<?xml version="1.0" encoding="utf-8" standalone="no"?>
<!DOCTYPE svg PUBLIC "-//W3C//DTD SVG 1.1//EN"
  "http://www.w3.org/Graphics/SVG/1.1/DTD/svg11.dtd">
<svg xmlns:xlink="http://www.w3.org/1999/xlink" width="553.623812pt" height="327.930058pt" viewBox="0 0 553.623812 327.930058" xmlns="http://www.w3.org/2000/svg" version="1.1">
 <metadata>
  <rdf:RDF xmlns:dc="http://purl.org/dc/elements/1.1/" xmlns:cc="http://creativecommons.org/ns#" xmlns:rdf="http://www.w3.org/1999/02/22-rdf-syntax-ns#">
   <cc:Work>
    <dc:type rdf:resource="http://purl.org/dc/dcmitype/StillImage"/>
    <dc:date>2023-01-30T07:37:07.984941</dc:date>
    <dc:format>image/svg+xml</dc:format>
    <dc:creator>
     <cc:Agent>
      <dc:title>Matplotlib v3.5.1, https://matplotlib.org/</dc:title>
     </cc:Agent>
    </dc:creator>
   </cc:Work>
  </rdf:RDF>
 </metadata>
 <defs>
  <style type="text/css">*{stroke-linejoin: round; stroke-linecap: butt}</style>
 </defs>
 <g id="figure_1">
  <g id="patch_1">
   <path d="M 0 327.930058 
L 553.623812 327.930058 
L 553.623812 0 
L 0 0 
z
" style="fill: #ffffff; stroke: #ffffff; stroke-linejoin: miter"/>
  </g>
  <g id="axes_1">
   <g id="patch_2">
    <path d="M 46.789688 292.217371 
L 403.909688 292.217371 
L 403.909688 26.105371 
L 46.789688 26.105371 
z
" style="fill: #ebebeb"/>
   </g>
   <g id="matplotlib.axis_1">
    <g id="xtick_1">
     <g id="line2d_1">
      <path d="M 155.612776 292.217371 
L 155.612776 26.105371 
" clip-path="url(#p29a8b2c91b)" style="fill: none; stroke: #ffffff"/>
     </g>
     <g id="line2d_2">
      <path d="M 155.612776 292.217371 
" style="fill: none; stroke: #333333; stroke-width: 1.5"/>
      <defs>
       <path id="m519a53fd08" d="M 0 0 
L 0 2.75 
" style="stroke: #000000"/>
      </defs>
      <g>
       <use xlink:href="#m519a53fd08" x="155.612776" y="292.217371" style="fill: #333333; stroke: #000000"/>
      </g>
     </g>
     <g id="text_1">
      <!-- 5000 -->
      <g style="fill: #4d4d4d" transform="translate(144.414776 303.853996)scale(0.088 -0.088)">
       <defs>
        <path id="DejaVuSans-35" d="M 691 4666 
L 3169 4666 
L 3169 4134 
L 1269 4134 
L 1269 2991 
Q 1406 3038 1543 3061 
Q 1681 3084 1819 3084 
Q 2600 3084 3056 2656 
Q 3513 2228 3513 1497 
Q 3513 744 3044 326 
Q 2575 -91 1722 -91 
Q 1428 -91 1123 -41 
Q 819 9 494 109 
L 494 744 
Q 775 591 1075 516 
Q 1375 441 1709 441 
Q 2250 441 2565 725 
Q 2881 1009 2881 1497 
Q 2881 1984 2565 2268 
Q 2250 2553 1709 2553 
Q 1456 2553 1204 2497 
Q 953 2441 691 2322 
L 691 4666 
z
" transform="scale(0.015625)"/>
        <path id="DejaVuSans-30" d="M 2034 4250 
Q 1547 4250 1301 3770 
Q 1056 3291 1056 2328 
Q 1056 1369 1301 889 
Q 1547 409 2034 409 
Q 2525 409 2770 889 
Q 3016 1369 3016 2328 
Q 3016 3291 2770 3770 
Q 2525 4250 2034 4250 
z
M 2034 4750 
Q 2819 4750 3233 4129 
Q 3647 3509 3647 2328 
Q 3647 1150 3233 529 
Q 2819 -91 2034 -91 
Q 1250 -91 836 529 
Q 422 1150 422 2328 
Q 422 3509 836 4129 
Q 1250 4750 2034 4750 
z
" transform="scale(0.015625)"/>
       </defs>
       <use xlink:href="#DejaVuSans-35"/>
       <use xlink:href="#DejaVuSans-30" x="63.623047"/>
       <use xlink:href="#DejaVuSans-30" x="127.246094"/>
       <use xlink:href="#DejaVuSans-30" x="190.869141"/>
      </g>
     </g>
    </g>
    <g id="xtick_2">
     <g id="line2d_3">
      <path d="M 283.500015 292.217371 
L 283.500015 26.105371 
" clip-path="url(#p29a8b2c91b)" style="fill: none; stroke: #ffffff"/>
     </g>
     <g id="line2d_4">
      <path d="M 283.500015 292.217371 
" style="fill: none; stroke: #333333; stroke-width: 1.5"/>
      <g>
       <use xlink:href="#m519a53fd08" x="283.500015" y="292.217371" style="fill: #333333; stroke: #000000"/>
      </g>
     </g>
     <g id="text_2">
      <!-- 10000 -->
      <g style="fill: #4d4d4d" transform="translate(269.502515 303.853996)scale(0.088 -0.088)">
       <defs>
        <path id="DejaVuSans-31" d="M 794 531 
L 1825 531 
L 1825 4091 
L 703 3866 
L 703 4441 
L 1819 4666 
L 2450 4666 
L 2450 531 
L 3481 531 
L 3481 0 
L 794 0 
L 794 531 
z
" transform="scale(0.015625)"/>
       </defs>
       <use xlink:href="#DejaVuSans-31"/>
       <use xlink:href="#DejaVuSans-30" x="63.623047"/>
       <use xlink:href="#DejaVuSans-30" x="127.246094"/>
       <use xlink:href="#DejaVuSans-30" x="190.869141"/>
       <use xlink:href="#DejaVuSans-30" x="254.492188"/>
      </g>
     </g>
    </g>
    <g id="xtick_3">
     <g id="line2d_5">
      <path d="M 91.669156 292.217371 
L 91.669156 26.105371 
" clip-path="url(#p29a8b2c91b)" style="fill: none; stroke: #ffffff; stroke-width: 0.5"/>
     </g>
    </g>
    <g id="xtick_4">
     <g id="line2d_6">
      <path d="M 219.556396 292.217371 
L 219.556396 26.105371 
" clip-path="url(#p29a8b2c91b)" style="fill: none; stroke: #ffffff; stroke-width: 0.5"/>
     </g>
    </g>
    <g id="xtick_5">
     <g id="line2d_7">
      <path d="M 347.443635 292.217371 
L 347.443635 26.105371 
" clip-path="url(#p29a8b2c91b)" style="fill: none; stroke: #ffffff; stroke-width: 0.5"/>
     </g>
    </g>
    <g id="text_3">
     <!-- Train Sample Count -->
     <g transform="translate(165.944063 318.442402)scale(0.11 -0.11)">
      <defs>
       <path id="DejaVuSans-54" d="M -19 4666 
L 3928 4666 
L 3928 4134 
L 2272 4134 
L 2272 0 
L 1638 0 
L 1638 4134 
L -19 4134 
L -19 4666 
z
" transform="scale(0.015625)"/>
       <path id="DejaVuSans-72" d="M 2631 2963 
Q 2534 3019 2420 3045 
Q 2306 3072 2169 3072 
Q 1681 3072 1420 2755 
Q 1159 2438 1159 1844 
L 1159 0 
L 581 0 
L 581 3500 
L 1159 3500 
L 1159 2956 
Q 1341 3275 1631 3429 
Q 1922 3584 2338 3584 
Q 2397 3584 2469 3576 
Q 2541 3569 2628 3553 
L 2631 2963 
z
" transform="scale(0.015625)"/>
       <path id="DejaVuSans-61" d="M 2194 1759 
Q 1497 1759 1228 1600 
Q 959 1441 959 1056 
Q 959 750 1161 570 
Q 1363 391 1709 391 
Q 2188 391 2477 730 
Q 2766 1069 2766 1631 
L 2766 1759 
L 2194 1759 
z
M 3341 1997 
L 3341 0 
L 2766 0 
L 2766 531 
Q 2569 213 2275 61 
Q 1981 -91 1556 -91 
Q 1019 -91 701 211 
Q 384 513 384 1019 
Q 384 1609 779 1909 
Q 1175 2209 1959 2209 
L 2766 2209 
L 2766 2266 
Q 2766 2663 2505 2880 
Q 2244 3097 1772 3097 
Q 1472 3097 1187 3025 
Q 903 2953 641 2809 
L 641 3341 
Q 956 3463 1253 3523 
Q 1550 3584 1831 3584 
Q 2591 3584 2966 3190 
Q 3341 2797 3341 1997 
z
" transform="scale(0.015625)"/>
       <path id="DejaVuSans-69" d="M 603 3500 
L 1178 3500 
L 1178 0 
L 603 0 
L 603 3500 
z
M 603 4863 
L 1178 4863 
L 1178 4134 
L 603 4134 
L 603 4863 
z
" transform="scale(0.015625)"/>
       <path id="DejaVuSans-6e" d="M 3513 2113 
L 3513 0 
L 2938 0 
L 2938 2094 
Q 2938 2591 2744 2837 
Q 2550 3084 2163 3084 
Q 1697 3084 1428 2787 
Q 1159 2491 1159 1978 
L 1159 0 
L 581 0 
L 581 3500 
L 1159 3500 
L 1159 2956 
Q 1366 3272 1645 3428 
Q 1925 3584 2291 3584 
Q 2894 3584 3203 3211 
Q 3513 2838 3513 2113 
z
" transform="scale(0.015625)"/>
       <path id="DejaVuSans-20" transform="scale(0.015625)"/>
       <path id="DejaVuSans-53" d="M 3425 4513 
L 3425 3897 
Q 3066 4069 2747 4153 
Q 2428 4238 2131 4238 
Q 1616 4238 1336 4038 
Q 1056 3838 1056 3469 
Q 1056 3159 1242 3001 
Q 1428 2844 1947 2747 
L 2328 2669 
Q 3034 2534 3370 2195 
Q 3706 1856 3706 1288 
Q 3706 609 3251 259 
Q 2797 -91 1919 -91 
Q 1588 -91 1214 -16 
Q 841 59 441 206 
L 441 856 
Q 825 641 1194 531 
Q 1563 422 1919 422 
Q 2459 422 2753 634 
Q 3047 847 3047 1241 
Q 3047 1584 2836 1778 
Q 2625 1972 2144 2069 
L 1759 2144 
Q 1053 2284 737 2584 
Q 422 2884 422 3419 
Q 422 4038 858 4394 
Q 1294 4750 2059 4750 
Q 2388 4750 2728 4690 
Q 3069 4631 3425 4513 
z
" transform="scale(0.015625)"/>
       <path id="DejaVuSans-6d" d="M 3328 2828 
Q 3544 3216 3844 3400 
Q 4144 3584 4550 3584 
Q 5097 3584 5394 3201 
Q 5691 2819 5691 2113 
L 5691 0 
L 5113 0 
L 5113 2094 
Q 5113 2597 4934 2840 
Q 4756 3084 4391 3084 
Q 3944 3084 3684 2787 
Q 3425 2491 3425 1978 
L 3425 0 
L 2847 0 
L 2847 2094 
Q 2847 2600 2669 2842 
Q 2491 3084 2119 3084 
Q 1678 3084 1418 2786 
Q 1159 2488 1159 1978 
L 1159 0 
L 581 0 
L 581 3500 
L 1159 3500 
L 1159 2956 
Q 1356 3278 1631 3431 
Q 1906 3584 2284 3584 
Q 2666 3584 2933 3390 
Q 3200 3197 3328 2828 
z
" transform="scale(0.015625)"/>
       <path id="DejaVuSans-70" d="M 1159 525 
L 1159 -1331 
L 581 -1331 
L 581 3500 
L 1159 3500 
L 1159 2969 
Q 1341 3281 1617 3432 
Q 1894 3584 2278 3584 
Q 2916 3584 3314 3078 
Q 3713 2572 3713 1747 
Q 3713 922 3314 415 
Q 2916 -91 2278 -91 
Q 1894 -91 1617 61 
Q 1341 213 1159 525 
z
M 3116 1747 
Q 3116 2381 2855 2742 
Q 2594 3103 2138 3103 
Q 1681 3103 1420 2742 
Q 1159 2381 1159 1747 
Q 1159 1113 1420 752 
Q 1681 391 2138 391 
Q 2594 391 2855 752 
Q 3116 1113 3116 1747 
z
" transform="scale(0.015625)"/>
       <path id="DejaVuSans-6c" d="M 603 4863 
L 1178 4863 
L 1178 0 
L 603 0 
L 603 4863 
z
" transform="scale(0.015625)"/>
       <path id="DejaVuSans-65" d="M 3597 1894 
L 3597 1613 
L 953 1613 
Q 991 1019 1311 708 
Q 1631 397 2203 397 
Q 2534 397 2845 478 
Q 3156 559 3463 722 
L 3463 178 
Q 3153 47 2828 -22 
Q 2503 -91 2169 -91 
Q 1331 -91 842 396 
Q 353 884 353 1716 
Q 353 2575 817 3079 
Q 1281 3584 2069 3584 
Q 2775 3584 3186 3129 
Q 3597 2675 3597 1894 
z
M 3022 2063 
Q 3016 2534 2758 2815 
Q 2500 3097 2075 3097 
Q 1594 3097 1305 2825 
Q 1016 2553 972 2059 
L 3022 2063 
z
" transform="scale(0.015625)"/>
       <path id="DejaVuSans-43" d="M 4122 4306 
L 4122 3641 
Q 3803 3938 3442 4084 
Q 3081 4231 2675 4231 
Q 1875 4231 1450 3742 
Q 1025 3253 1025 2328 
Q 1025 1406 1450 917 
Q 1875 428 2675 428 
Q 3081 428 3442 575 
Q 3803 722 4122 1019 
L 4122 359 
Q 3791 134 3420 21 
Q 3050 -91 2638 -91 
Q 1578 -91 968 557 
Q 359 1206 359 2328 
Q 359 3453 968 4101 
Q 1578 4750 2638 4750 
Q 3056 4750 3426 4639 
Q 3797 4528 4122 4306 
z
" transform="scale(0.015625)"/>
       <path id="DejaVuSans-6f" d="M 1959 3097 
Q 1497 3097 1228 2736 
Q 959 2375 959 1747 
Q 959 1119 1226 758 
Q 1494 397 1959 397 
Q 2419 397 2687 759 
Q 2956 1122 2956 1747 
Q 2956 2369 2687 2733 
Q 2419 3097 1959 3097 
z
M 1959 3584 
Q 2709 3584 3137 3096 
Q 3566 2609 3566 1747 
Q 3566 888 3137 398 
Q 2709 -91 1959 -91 
Q 1206 -91 779 398 
Q 353 888 353 1747 
Q 353 2609 779 3096 
Q 1206 3584 1959 3584 
z
" transform="scale(0.015625)"/>
       <path id="DejaVuSans-75" d="M 544 1381 
L 544 3500 
L 1119 3500 
L 1119 1403 
Q 1119 906 1312 657 
Q 1506 409 1894 409 
Q 2359 409 2629 706 
Q 2900 1003 2900 1516 
L 2900 3500 
L 3475 3500 
L 3475 0 
L 2900 0 
L 2900 538 
Q 2691 219 2414 64 
Q 2138 -91 1772 -91 
Q 1169 -91 856 284 
Q 544 659 544 1381 
z
M 1991 3584 
L 1991 3584 
z
" transform="scale(0.015625)"/>
       <path id="DejaVuSans-74" d="M 1172 4494 
L 1172 3500 
L 2356 3500 
L 2356 3053 
L 1172 3053 
L 1172 1153 
Q 1172 725 1289 603 
Q 1406 481 1766 481 
L 2356 481 
L 2356 0 
L 1766 0 
Q 1100 0 847 248 
Q 594 497 594 1153 
L 594 3053 
L 172 3053 
L 172 3500 
L 594 3500 
L 594 4494 
L 1172 4494 
z
" transform="scale(0.015625)"/>
      </defs>
      <use xlink:href="#DejaVuSans-54"/>
      <use xlink:href="#DejaVuSans-72" x="46.333984"/>
      <use xlink:href="#DejaVuSans-61" x="87.447266"/>
      <use xlink:href="#DejaVuSans-69" x="148.726562"/>
      <use xlink:href="#DejaVuSans-6e" x="176.509766"/>
      <use xlink:href="#DejaVuSans-20" x="239.888672"/>
      <use xlink:href="#DejaVuSans-53" x="271.675781"/>
      <use xlink:href="#DejaVuSans-61" x="335.152344"/>
      <use xlink:href="#DejaVuSans-6d" x="396.431641"/>
      <use xlink:href="#DejaVuSans-70" x="493.84375"/>
      <use xlink:href="#DejaVuSans-6c" x="557.320312"/>
      <use xlink:href="#DejaVuSans-65" x="585.103516"/>
      <use xlink:href="#DejaVuSans-20" x="646.626953"/>
      <use xlink:href="#DejaVuSans-43" x="678.414062"/>
      <use xlink:href="#DejaVuSans-6f" x="748.238281"/>
      <use xlink:href="#DejaVuSans-75" x="809.419922"/>
      <use xlink:href="#DejaVuSans-6e" x="872.798828"/>
      <use xlink:href="#DejaVuSans-74" x="936.177734"/>
     </g>
    </g>
   </g>
   <g id="matplotlib.axis_2">
    <g id="ytick_1">
     <g id="line2d_8">
      <path d="M 46.789688 278.36602 
L 403.909688 278.36602 
" clip-path="url(#p29a8b2c91b)" style="fill: none; stroke: #ffffff"/>
     </g>
     <g id="line2d_9">
      <path d="M 46.789688 278.36602 
" style="fill: none; stroke: #333333; stroke-width: 1.5"/>
      <defs>
       <path id="mafd2fb0650" d="M 0 0 
L -2.75 0 
" style="stroke: #000000"/>
      </defs>
      <g>
       <use xlink:href="#mafd2fb0650" x="46.789688" y="278.36602" style="fill: #333333; stroke: #000000"/>
      </g>
     </g>
     <g id="text_4">
      <!-- 0 -->
      <g style="fill: #4d4d4d" transform="translate(36.240688 280.79427)scale(0.088 -0.088)">
       <use xlink:href="#DejaVuSans-30"/>
      </g>
     </g>
    </g>
    <g id="ytick_2">
     <g id="line2d_10">
      <path d="M 46.789688 213.634397 
L 403.909688 213.634397 
" clip-path="url(#p29a8b2c91b)" style="fill: none; stroke: #ffffff"/>
     </g>
     <g id="line2d_11">
      <path d="M 46.789688 213.634397 
" style="fill: none; stroke: #333333; stroke-width: 1.5"/>
      <g>
       <use xlink:href="#mafd2fb0650" x="46.789688" y="213.634397" style="fill: #333333; stroke: #000000"/>
      </g>
     </g>
     <g id="text_5">
      <!-- 0.25 -->
      <g style="fill: #4d4d4d" transform="translate(22.245938 216.062647)scale(0.088 -0.088)">
       <defs>
        <path id="DejaVuSans-2e" d="M 684 794 
L 1344 794 
L 1344 0 
L 684 0 
L 684 794 
z
" transform="scale(0.015625)"/>
        <path id="DejaVuSans-32" d="M 1228 531 
L 3431 531 
L 3431 0 
L 469 0 
L 469 531 
Q 828 903 1448 1529 
Q 2069 2156 2228 2338 
Q 2531 2678 2651 2914 
Q 2772 3150 2772 3378 
Q 2772 3750 2511 3984 
Q 2250 4219 1831 4219 
Q 1534 4219 1204 4116 
Q 875 4013 500 3803 
L 500 4441 
Q 881 4594 1212 4672 
Q 1544 4750 1819 4750 
Q 2544 4750 2975 4387 
Q 3406 4025 3406 3419 
Q 3406 3131 3298 2873 
Q 3191 2616 2906 2266 
Q 2828 2175 2409 1742 
Q 1991 1309 1228 531 
z
" transform="scale(0.015625)"/>
       </defs>
       <use xlink:href="#DejaVuSans-30"/>
       <use xlink:href="#DejaVuSans-2e" x="63.623047"/>
       <use xlink:href="#DejaVuSans-32" x="95.410156"/>
       <use xlink:href="#DejaVuSans-35" x="159.033203"/>
      </g>
     </g>
    </g>
    <g id="ytick_3">
     <g id="line2d_12">
      <path d="M 46.789688 148.902775 
L 403.909688 148.902775 
" clip-path="url(#p29a8b2c91b)" style="fill: none; stroke: #ffffff"/>
     </g>
     <g id="line2d_13">
      <path d="M 46.789688 148.902775 
" style="fill: none; stroke: #333333; stroke-width: 1.5"/>
      <g>
       <use xlink:href="#mafd2fb0650" x="46.789688" y="148.902775" style="fill: #333333; stroke: #000000"/>
      </g>
     </g>
     <g id="text_6">
      <!-- 0.50 -->
      <g style="fill: #4d4d4d" transform="translate(22.245938 151.331025)scale(0.088 -0.088)">
       <use xlink:href="#DejaVuSans-30"/>
       <use xlink:href="#DejaVuSans-2e" x="63.623047"/>
       <use xlink:href="#DejaVuSans-35" x="95.410156"/>
       <use xlink:href="#DejaVuSans-30" x="159.033203"/>
      </g>
     </g>
    </g>
    <g id="ytick_4">
     <g id="line2d_14">
      <path d="M 46.789688 84.171152 
L 403.909688 84.171152 
" clip-path="url(#p29a8b2c91b)" style="fill: none; stroke: #ffffff"/>
     </g>
     <g id="line2d_15">
      <path d="M 46.789688 84.171152 
" style="fill: none; stroke: #333333; stroke-width: 1.5"/>
      <g>
       <use xlink:href="#mafd2fb0650" x="46.789688" y="84.171152" style="fill: #333333; stroke: #000000"/>
      </g>
     </g>
     <g id="text_7">
      <!-- 0.75 -->
      <g style="fill: #4d4d4d" transform="translate(22.245938 86.599402)scale(0.088 -0.088)">
       <defs>
        <path id="DejaVuSans-37" d="M 525 4666 
L 3525 4666 
L 3525 4397 
L 1831 0 
L 1172 0 
L 2766 4134 
L 525 4134 
L 525 4666 
z
" transform="scale(0.015625)"/>
       </defs>
       <use xlink:href="#DejaVuSans-30"/>
       <use xlink:href="#DejaVuSans-2e" x="63.623047"/>
       <use xlink:href="#DejaVuSans-37" x="95.410156"/>
       <use xlink:href="#DejaVuSans-35" x="159.033203"/>
      </g>
     </g>
    </g>
    <g id="ytick_5">
     <g id="line2d_16">
      <path d="M 46.789688 246.000209 
L 403.909688 246.000209 
" clip-path="url(#p29a8b2c91b)" style="fill: none; stroke: #ffffff; stroke-width: 0.5"/>
     </g>
    </g>
    <g id="ytick_6">
     <g id="line2d_17">
      <path d="M 46.789688 181.268586 
L 403.909688 181.268586 
" clip-path="url(#p29a8b2c91b)" style="fill: none; stroke: #ffffff; stroke-width: 0.5"/>
     </g>
    </g>
    <g id="ytick_7">
     <g id="line2d_18">
      <path d="M 46.789688 116.536963 
L 403.909688 116.536963 
" clip-path="url(#p29a8b2c91b)" style="fill: none; stroke: #ffffff; stroke-width: 0.5"/>
     </g>
    </g>
    <g id="ytick_8">
     <g id="line2d_19">
      <path d="M 46.789688 51.805341 
L 403.909688 51.805341 
" clip-path="url(#p29a8b2c91b)" style="fill: none; stroke: #ffffff; stroke-width: 0.5"/>
     </g>
    </g>
    <g id="text_8">
     <!-- Balanced Accuracy (Val Set) -->
     <g transform="translate(15.558281 234.774543)rotate(-90)scale(0.11 -0.11)">
      <defs>
       <path id="DejaVuSans-42" d="M 1259 2228 
L 1259 519 
L 2272 519 
Q 2781 519 3026 730 
Q 3272 941 3272 1375 
Q 3272 1813 3026 2020 
Q 2781 2228 2272 2228 
L 1259 2228 
z
M 1259 4147 
L 1259 2741 
L 2194 2741 
Q 2656 2741 2882 2914 
Q 3109 3088 3109 3444 
Q 3109 3797 2882 3972 
Q 2656 4147 2194 4147 
L 1259 4147 
z
M 628 4666 
L 2241 4666 
Q 2963 4666 3353 4366 
Q 3744 4066 3744 3513 
Q 3744 3084 3544 2831 
Q 3344 2578 2956 2516 
Q 3422 2416 3680 2098 
Q 3938 1781 3938 1306 
Q 3938 681 3513 340 
Q 3088 0 2303 0 
L 628 0 
L 628 4666 
z
" transform="scale(0.015625)"/>
       <path id="DejaVuSans-63" d="M 3122 3366 
L 3122 2828 
Q 2878 2963 2633 3030 
Q 2388 3097 2138 3097 
Q 1578 3097 1268 2742 
Q 959 2388 959 1747 
Q 959 1106 1268 751 
Q 1578 397 2138 397 
Q 2388 397 2633 464 
Q 2878 531 3122 666 
L 3122 134 
Q 2881 22 2623 -34 
Q 2366 -91 2075 -91 
Q 1284 -91 818 406 
Q 353 903 353 1747 
Q 353 2603 823 3093 
Q 1294 3584 2113 3584 
Q 2378 3584 2631 3529 
Q 2884 3475 3122 3366 
z
" transform="scale(0.015625)"/>
       <path id="DejaVuSans-64" d="M 2906 2969 
L 2906 4863 
L 3481 4863 
L 3481 0 
L 2906 0 
L 2906 525 
Q 2725 213 2448 61 
Q 2172 -91 1784 -91 
Q 1150 -91 751 415 
Q 353 922 353 1747 
Q 353 2572 751 3078 
Q 1150 3584 1784 3584 
Q 2172 3584 2448 3432 
Q 2725 3281 2906 2969 
z
M 947 1747 
Q 947 1113 1208 752 
Q 1469 391 1925 391 
Q 2381 391 2643 752 
Q 2906 1113 2906 1747 
Q 2906 2381 2643 2742 
Q 2381 3103 1925 3103 
Q 1469 3103 1208 2742 
Q 947 2381 947 1747 
z
" transform="scale(0.015625)"/>
       <path id="DejaVuSans-41" d="M 2188 4044 
L 1331 1722 
L 3047 1722 
L 2188 4044 
z
M 1831 4666 
L 2547 4666 
L 4325 0 
L 3669 0 
L 3244 1197 
L 1141 1197 
L 716 0 
L 50 0 
L 1831 4666 
z
" transform="scale(0.015625)"/>
       <path id="DejaVuSans-79" d="M 2059 -325 
Q 1816 -950 1584 -1140 
Q 1353 -1331 966 -1331 
L 506 -1331 
L 506 -850 
L 844 -850 
Q 1081 -850 1212 -737 
Q 1344 -625 1503 -206 
L 1606 56 
L 191 3500 
L 800 3500 
L 1894 763 
L 2988 3500 
L 3597 3500 
L 2059 -325 
z
" transform="scale(0.015625)"/>
       <path id="DejaVuSans-28" d="M 1984 4856 
Q 1566 4138 1362 3434 
Q 1159 2731 1159 2009 
Q 1159 1288 1364 580 
Q 1569 -128 1984 -844 
L 1484 -844 
Q 1016 -109 783 600 
Q 550 1309 550 2009 
Q 550 2706 781 3412 
Q 1013 4119 1484 4856 
L 1984 4856 
z
" transform="scale(0.015625)"/>
       <path id="DejaVuSans-56" d="M 1831 0 
L 50 4666 
L 709 4666 
L 2188 738 
L 3669 4666 
L 4325 4666 
L 2547 0 
L 1831 0 
z
" transform="scale(0.015625)"/>
       <path id="DejaVuSans-29" d="M 513 4856 
L 1013 4856 
Q 1481 4119 1714 3412 
Q 1947 2706 1947 2009 
Q 1947 1309 1714 600 
Q 1481 -109 1013 -844 
L 513 -844 
Q 928 -128 1133 580 
Q 1338 1288 1338 2009 
Q 1338 2731 1133 3434 
Q 928 4138 513 4856 
z
" transform="scale(0.015625)"/>
      </defs>
      <use xlink:href="#DejaVuSans-42"/>
      <use xlink:href="#DejaVuSans-61" x="68.603516"/>
      <use xlink:href="#DejaVuSans-6c" x="129.882812"/>
      <use xlink:href="#DejaVuSans-61" x="157.666016"/>
      <use xlink:href="#DejaVuSans-6e" x="218.945312"/>
      <use xlink:href="#DejaVuSans-63" x="282.324219"/>
      <use xlink:href="#DejaVuSans-65" x="337.304688"/>
      <use xlink:href="#DejaVuSans-64" x="398.828125"/>
      <use xlink:href="#DejaVuSans-20" x="462.304688"/>
      <use xlink:href="#DejaVuSans-41" x="494.091797"/>
      <use xlink:href="#DejaVuSans-63" x="560.75"/>
      <use xlink:href="#DejaVuSans-63" x="615.730469"/>
      <use xlink:href="#DejaVuSans-75" x="670.710938"/>
      <use xlink:href="#DejaVuSans-72" x="734.089844"/>
      <use xlink:href="#DejaVuSans-61" x="775.203125"/>
      <use xlink:href="#DejaVuSans-63" x="836.482422"/>
      <use xlink:href="#DejaVuSans-79" x="891.462891"/>
      <use xlink:href="#DejaVuSans-20" x="950.642578"/>
      <use xlink:href="#DejaVuSans-28" x="982.429688"/>
      <use xlink:href="#DejaVuSans-56" x="1021.443359"/>
      <use xlink:href="#DejaVuSans-61" x="1082.101562"/>
      <use xlink:href="#DejaVuSans-6c" x="1143.380859"/>
      <use xlink:href="#DejaVuSans-20" x="1171.164062"/>
      <use xlink:href="#DejaVuSans-53" x="1202.951172"/>
      <use xlink:href="#DejaVuSans-65" x="1266.427734"/>
      <use xlink:href="#DejaVuSans-74" x="1327.951172"/>
      <use xlink:href="#DejaVuSans-29" x="1367.160156"/>
     </g>
    </g>
   </g>
   <g id="PolyCollection_1">
    <path d="M 63.022415 214.331596 
L 63.022415 254.037556 
L 63.124725 253.845429 
L 63.150302 253.797426 
L 63.175879 253.749434 
L 63.201457 253.701453 
L 63.329344 253.461716 
L 63.354922 253.413803 
L 63.380499 253.365901 
L 63.431654 253.27013 
L 63.559541 253.0309 
L 63.713006 252.744197 
L 98.319293 198.956877 
L 98.54949 198.671153 
L 98.575067 198.63946 
L 98.600645 198.607778 
L 98.626222 198.576108 
L 98.677377 198.512806 
L 98.958729 198.165522 
L 98.984306 198.134024 
L 99.009884 198.102538 
L 99.061039 198.039603 
L 99.137771 197.945291 
L 99.419123 197.600415 
L 99.700475 197.256994 
L 133.641748 163.335811 
L 133.948678 163.071972 
L 133.999833 163.028036 
L 134.050987 162.98411 
L 134.076565 162.962152 
L 134.153297 162.896291 
L 134.588114 162.524919 
L 134.613691 162.503183 
L 134.664846 162.459748 
L 134.716001 162.416361 
L 134.843888 162.308103 
L 135.278705 161.94226 
L 135.687944 161.601049 
L 168.938626 139.782143 
L 169.373443 139.507894 
L 169.424598 139.475511 
L 169.450175 139.459309 
L 169.475753 139.443102 
L 169.552485 139.39444 
L 169.629217 139.34572 
L 170.191921 138.986612 
L 170.243076 138.953803 
L 170.294231 138.920965 
L 170.396541 138.855206 
L 170.550005 138.756534 
L 171.138287 138.379269 
L 171.700991 138.019913 
L 204.261082 121.287034 
L 204.772631 121.046569 
L 204.874941 120.99814 
L 204.926095 120.973882 
L 205.002828 120.937441 
L 205.105138 120.888749 
L 205.821306 120.544457 
L 205.872461 120.519625 
L 205.949193 120.482316 
L 206.077081 120.419965 
L 206.2817 120.319763 
L 206.997869 119.964598 
L 207.68846 119.615165 
L 239.55796 101.946077 
L 240.197396 101.627829 
L 240.299706 101.577231 
L 240.376438 101.539342 
L 240.45317 101.501503 
L 240.581058 101.438551 
L 241.450691 101.014231 
L 241.501846 100.989476 
L 241.604156 100.940036 
L 241.732043 100.878366 
L 241.987817 100.755458 
L 242.857451 100.34192 
L 243.675929 99.958901 
L 274.854838 89.109681 
L 275.596584 88.906363 
L 275.724471 88.871406 
L 275.750048 88.864419 
L 275.801203 88.850461 
L 275.929091 88.81565 
L 276.056978 88.780958 
L 277.054498 88.514441 
L 277.131231 88.494237 
L 277.23354 88.467364 
L 277.412583 88.420517 
L 277.693935 88.347361 
L 278.717032 88.086064 
L 279.688975 87.844609 
L 310.177293 82.255589 
L 311.021349 82.088174 
L 311.149236 82.062354 
L 311.174814 82.057176 
L 311.251546 82.041611 
L 311.379433 82.015571 
L 311.532898 81.984158 
L 312.683883 81.751181 
L 312.760615 81.735882 
L 312.888503 81.710449 
L 313.067545 81.674978 
L 313.400052 81.609522 
L 314.576614 81.382259 
L 315.676445 81.175918 
L 345.474171 77.89905 
L 346.420537 77.878461 
L 346.574002 77.875711 
L 346.599579 77.875269 
L 346.701889 77.873547 
L 346.829776 77.871498 
L 347.008818 77.868824 
L 348.313268 77.8563 
L 348.39 77.855948 
L 348.543465 77.855376 
L 348.748085 77.854883 
L 349.106169 77.854897 
L 350.436196 77.865708 
L 351.663914 77.891138 
L 380.796627 83.453619 
L 381.845302 83.833133 
L 382.024344 83.899105 
L 382.049922 83.908557 
L 382.152231 83.946436 
L 382.305696 84.003463 
L 382.510316 84.079889 
L 383.942653 84.62727 
L 384.019385 84.657203 
L 384.198427 84.727287 
L 384.428624 84.817888 
L 384.837864 84.980321 
L 386.295778 85.573108 
L 387.67696 86.154848 
L 387.67696 43.279861 
L 387.67696 43.279861 
L 386.295778 43.826893 
L 384.837864 44.392674 
L 384.428624 44.549293 
L 384.198427 44.636961 
L 384.019385 44.704933 
L 383.942653 44.734007 
L 382.510316 45.270274 
L 382.305696 45.345875 
L 382.152231 45.402409 
L 382.049922 45.440019 
L 382.024344 45.449411 
L 381.845302 45.515045 
L 380.796627 45.895493 
L 351.663914 53.341502 
L 350.436196 53.519421 
L 349.106169 53.701581 
L 348.748085 53.748813 
L 348.543465 53.775442 
L 348.39 53.795223 
L 348.313268 53.805053 
L 347.008818 53.96617 
L 346.829776 53.987431 
L 346.701889 54.002495 
L 346.599579 54.014474 
L 346.574002 54.017459 
L 346.420537 54.035284 
L 345.474171 54.142131 
L 315.676445 56.573564 
L 314.576614 56.686896 
L 313.400052 56.813856 
L 313.067545 56.850857 
L 312.888503 56.87099 
L 312.760615 56.885462 
L 312.683883 56.894182 
L 311.532898 57.028346 
L 311.379433 57.04665 
L 311.251546 57.061885 
L 311.174814 57.071018 
L 311.149236 57.074061 
L 311.021349 57.089268 
L 310.177293 57.189284 
L 279.688975 61.565011 
L 278.717032 61.788669 
L 277.693935 62.036047 
L 277.412583 62.106326 
L 277.23354 62.151569 
L 277.131231 62.177605 
L 277.054498 62.197221 
L 276.056978 62.45925 
L 275.929091 62.493808 
L 275.801203 62.52859 
L 275.750048 62.542565 
L 275.724471 62.549567 
L 275.596584 62.584725 
L 274.854838 62.793644 
L 243.675929 76.238247 
L 242.857451 76.632572 
L 241.987817 77.050329 
L 241.732043 77.172944 
L 241.604156 77.234206 
L 241.501846 77.283194 
L 241.450691 77.30768 
L 240.581058 77.723181 
L 240.45317 77.784159 
L 240.376438 77.82073 
L 240.299706 77.857289 
L 240.197396 77.906016 
L 239.55796 78.210075 
L 207.68846 93.176018 
L 206.997869 93.528903 
L 206.2817 93.89639 
L 206.077081 94.00165 
L 205.949193 94.067493 
L 205.872461 94.107019 
L 205.821306 94.133378 
L 205.105138 94.50305 
L 205.002828 94.555953 
L 204.926095 94.595644 
L 204.874941 94.622112 
L 204.772631 94.675062 
L 204.261082 94.9401 
L 171.700991 111.709201 
L 171.138287 112.058798 
L 170.550005 112.431328 
L 170.396541 112.529729 
L 170.294231 112.595476 
L 170.243076 112.628332 
L 170.191921 112.661176 
L 169.629217 113.021683 
L 169.552485 113.070737 
L 169.475753 113.119766 
L 169.450175 113.136103 
L 169.424598 113.152438 
L 169.373443 113.1851 
L 168.938626 113.462296 
L 135.687944 136.544448 
L 135.278705 136.918078 
L 134.843888 137.319503 
L 134.716001 137.438451 
L 134.664846 137.486143 
L 134.613691 137.533901 
L 134.588114 137.557804 
L 134.153297 137.966652 
L 134.076565 138.039231 
L 134.050987 138.063429 
L 133.999833 138.111832 
L 133.948678 138.160244 
L 133.641748 138.450923 
L 99.700475 173.346071 
L 99.419123 173.659997 
L 99.137771 173.974303 
L 99.061039 174.060088 
L 99.009884 174.117294 
L 98.984306 174.145902 
L 98.958729 174.174513 
L 98.677377 174.489438 
L 98.626222 174.546737 
L 98.600645 174.575391 
L 98.575067 174.604049 
L 98.54949 174.632708 
L 98.319293 174.890683 
L 63.713006 213.562737 
L 63.559541 213.733569 
L 63.431654 213.87594 
L 63.380499 213.932891 
L 63.354922 213.961367 
L 63.329344 213.989844 
L 63.201457 214.132233 
L 63.175879 214.160712 
L 63.150302 214.189192 
L 63.124725 214.217672 
L 63.022415 214.331596 
z
" clip-path="url(#p29a8b2c91b)" style="fill: #999999; fill-opacity: 0.4"/>
   </g>
   <g id="line2d_20">
    <path d="M 63.022415 234.184576 
L 63.713006 233.153467 
L 99.419123 185.630206 
L 99.700475 185.301533 
L 134.843888 149.813803 
L 135.687944 149.072749 
L 171.700991 124.864557 
L 239.55796 90.078076 
L 243.675929 88.098574 
L 275.801203 75.689525 
L 279.688975 74.70481 
L 315.676445 68.874741 
L 349.106169 65.778239 
L 351.663914 65.61632 
L 384.019385 64.681068 
L 387.67696 64.717354 
L 387.67696 64.717354 
" clip-path="url(#p29a8b2c91b)" style="fill: none; stroke: #db5f57; stroke-width: 1.772454; stroke-linejoin: miter"/>
   </g>
   <g id="PolyCollection_2">
    <path d="M 63.022415 244.868873 
L 63.022415 279.697025 
L 63.124725 279.612099 
L 63.150302 279.590881 
L 63.175879 279.569669 
L 63.201457 279.548463 
L 63.329344 279.442515 
L 63.354922 279.421343 
L 63.380499 279.400176 
L 63.431654 279.357859 
L 63.559541 279.252165 
L 63.713006 279.125519 
L 98.319293 256.172339 
L 98.54949 256.056552 
L 98.575067 256.043713 
L 98.600645 256.030878 
L 98.626222 256.018049 
L 98.677377 255.992405 
L 98.958729 255.851715 
L 98.984306 255.838954 
L 99.009884 255.826198 
L 99.061039 255.800702 
L 99.137771 255.762494 
L 99.419123 255.622771 
L 99.700475 255.48363 
L 133.641748 241.382166 
L 133.948678 241.267792 
L 133.999833 241.248738 
L 134.050987 241.229687 
L 134.076565 241.220162 
L 134.153297 241.191592 
L 134.588114 241.029775 
L 134.613691 241.02026 
L 134.664846 241.001232 
L 134.716001 240.982206 
L 134.843888 240.934648 
L 135.278705 240.773031 
L 135.687944 240.621033 
L 168.938626 228.695251 
L 169.373443 228.535579 
L 169.424598 228.516749 
L 169.450175 228.50733 
L 169.475753 228.497909 
L 169.552485 228.469631 
L 169.629217 228.441331 
L 170.191921 228.233109 
L 170.243076 228.214118 
L 170.294231 228.195117 
L 170.396541 228.157083 
L 170.550005 228.099906 
L 171.138287 227.87905 
L 171.700991 227.665422 
L 204.261082 215.762722 
L 204.772631 215.594448 
L 204.874941 215.56067 
L 204.926095 215.543765 
L 205.002828 215.518386 
L 205.105138 215.48451 
L 205.821306 215.246047 
L 205.872461 215.22892 
L 205.949193 215.203206 
L 206.077081 215.160281 
L 206.2817 215.091426 
L 206.997869 214.848622 
L 207.68846 214.611617 
L 239.55796 202.14529 
L 240.197396 201.917413 
L 240.299706 201.881184 
L 240.376438 201.854054 
L 240.45317 201.826961 
L 240.581058 201.781886 
L 241.450691 201.478076 
L 241.501846 201.460352 
L 241.604156 201.424954 
L 241.732043 201.380799 
L 241.987817 201.2928 
L 242.857451 200.996717 
L 243.675929 200.722475 
L 274.854838 192.614942 
L 275.596584 192.442672 
L 275.724471 192.412904 
L 275.750048 192.406948 
L 275.801203 192.395039 
L 275.929091 192.365276 
L 276.056978 192.335529 
L 277.054498 192.104065 
L 277.131231 192.086304 
L 277.23354 192.062633 
L 277.412583 192.021238 
L 277.693935 191.956266 
L 278.717032 191.720852 
L 279.688975 191.498569 
L 310.177293 185.419613 
L 311.021349 185.25576 
L 311.149236 185.230788 
L 311.174814 185.225789 
L 311.251546 185.210782 
L 311.379433 185.185738 
L 311.532898 185.155632 
L 312.683883 184.93113 
L 312.760615 184.916272 
L 312.888503 184.891538 
L 313.067545 184.856975 
L 313.400052 184.792987 
L 314.576614 184.56869 
L 315.676445 184.362088 
L 345.474171 180.435796 
L 346.420537 180.388118 
L 346.574002 180.381011 
L 346.599579 180.379843 
L 346.701889 180.375222 
L 346.829776 180.369557 
L 347.008818 180.361834 
L 348.313268 180.313005 
L 348.39 180.310547 
L 348.543465 180.305772 
L 348.748085 180.299697 
L 349.106169 180.289913 
L 350.436196 180.26338 
L 351.663914 180.252947 
L 380.796627 184.447929 
L 381.845302 184.75774 
L 382.024344 184.811664 
L 382.049922 184.819392 
L 382.152231 184.850365 
L 382.305696 184.897008 
L 382.510316 184.959538 
L 383.942653 185.408097 
L 384.019385 185.43266 
L 384.198427 185.490182 
L 384.428624 185.56457 
L 384.837864 185.698006 
L 386.295778 186.18569 
L 387.67696 186.665264 
L 387.67696 149.057394 
L 387.67696 149.057394 
L 386.295778 149.567925 
L 384.837864 150.09648 
L 384.428624 150.242901 
L 384.198427 150.324883 
L 384.019385 150.388457 
L 383.942653 150.415652 
L 382.510316 150.917616 
L 382.305696 150.988437 
L 382.152231 151.041405 
L 382.049922 151.076647 
L 382.024344 151.085449 
L 381.845302 151.146962 
L 380.796627 151.503754 
L 351.663914 158.719191 
L 350.436196 158.907992 
L 349.106169 159.103789 
L 348.748085 159.155016 
L 348.543465 159.184016 
L 348.39 159.20564 
L 348.313268 159.216412 
L 347.008818 159.395579 
L 346.829776 159.419606 
L 346.701889 159.436688 
L 346.599579 159.450305 
L 346.574002 159.453703 
L 346.420537 159.474034 
L 345.474171 159.597372 
L 315.676445 162.782091 
L 314.576614 162.907109 
L 313.400052 163.043426 
L 313.067545 163.082454 
L 312.888503 163.103563 
L 312.760615 163.118683 
L 312.683883 163.12777 
L 311.532898 163.265598 
L 311.379433 163.284205 
L 311.251546 163.299771 
L 311.174814 163.309137 
L 311.149236 163.312263 
L 311.021349 163.327926 
L 310.177293 163.432659 
L 279.688975 168.447373 
L 278.717032 168.654045 
L 277.693935 168.877251 
L 277.412583 168.9397 
L 277.23354 168.979688 
L 277.131231 169.002625 
L 277.054498 169.01987 
L 276.056978 169.247397 
L 275.929091 169.277027 
L 275.801203 169.306763 
L 275.750048 169.318688 
L 275.724471 169.324657 
L 275.596584 169.354601 
L 274.854838 169.531784 
L 243.675929 179.915862 
L 242.857451 180.200021 
L 241.987817 180.499805 
L 241.732043 180.587547 
L 241.604156 180.631343 
L 241.501846 180.666345 
L 241.450691 180.683834 
L 240.581058 180.979908 
L 240.45317 181.023251 
L 240.376438 181.049232 
L 240.299706 181.075195 
L 240.197396 181.109783 
L 239.55796 181.325215 
L 207.68846 191.420474 
L 206.997869 191.660507 
L 206.2817 191.914118 
L 206.077081 191.98741 
L 205.949193 192.033398 
L 205.872461 192.061056 
L 205.821306 192.079522 
L 205.105138 192.340248 
L 205.002828 192.377818 
L 204.926095 192.406047 
L 204.874941 192.42489 
L 204.772631 192.462634 
L 204.261082 192.652462 
L 171.700991 204.586935 
L 171.138287 204.792002 
L 170.550005 205.008705 
L 170.396541 205.065644 
L 170.294231 205.103668 
L 170.243076 205.122685 
L 170.191921 205.141706 
L 169.629217 205.351156 
L 169.552485 205.379749 
L 169.475753 205.408349 
L 169.450175 205.417884 
L 169.424598 205.42742 
L 169.373443 205.446494 
L 168.938626 205.608751 
L 135.687944 218.642591 
L 135.278705 218.823026 
L 134.843888 219.015854 
L 134.716001 219.072789 
L 134.664846 219.095592 
L 134.613691 219.11841 
L 134.588114 219.129826 
L 134.153297 219.324515 
L 134.076565 219.358979 
L 134.050987 219.370468 
L 133.999833 219.393446 
L 133.948678 219.416427 
L 133.641748 219.554344 
L 99.700475 234.510123 
L 99.419123 234.623391 
L 99.137771 234.736299 
L 99.061039 234.767029 
L 99.009884 234.7875 
L 98.984306 234.797731 
L 98.958729 234.807959 
L 98.677377 234.920265 
L 98.626222 234.940644 
L 98.600645 234.950829 
L 98.575067 234.96101 
L 98.54949 234.971189 
L 98.319293 235.062634 
L 63.713006 244.757433 
L 63.559541 244.782442 
L 63.431654 244.803176 
L 63.380499 244.811443 
L 63.354922 244.81557 
L 63.329344 244.819693 
L 63.201457 244.840253 
L 63.175879 244.844353 
L 63.150302 244.848449 
L 63.124725 244.852542 
L 63.022415 244.868873 
z
" clip-path="url(#p29a8b2c91b)" style="fill: #999999; fill-opacity: 0.4"/>
   </g>
   <g id="line2d_21">
    <path d="M 63.022415 262.282949 
L 63.713006 261.941476 
L 99.700475 244.996876 
L 135.687944 229.631812 
L 171.700991 216.126179 
L 207.68846 203.016046 
L 243.675929 190.319168 
L 276.056978 180.791463 
L 279.688975 179.972971 
L 314.576614 173.7379 
L 315.676445 173.572089 
L 348.748085 169.727357 
L 351.663914 169.486069 
L 384.198427 167.907533 
L 387.67696 167.861329 
L 387.67696 167.861329 
" clip-path="url(#p29a8b2c91b)" style="fill: none; stroke-dasharray: 6.558079,2.835926; stroke-dashoffset: 0; stroke: #db5f57; stroke-width: 1.772454; stroke-linejoin: miter"/>
   </g>
   <g id="PolyCollection_3">
    <path d="M 63.022415 189.34295 
L 63.022415 230.690457 
L 63.124725 230.501832 
L 63.150302 230.454704 
L 63.175879 230.407588 
L 63.201457 230.360484 
L 63.329344 230.125134 
L 63.354922 230.078099 
L 63.380499 230.031075 
L 63.431654 229.937062 
L 63.559541 229.702232 
L 63.713006 229.420818 
L 98.319293 177.107606 
L 98.54949 176.833549 
L 98.575067 176.803153 
L 98.600645 176.77277 
L 98.626222 176.742399 
L 98.677377 176.681695 
L 98.958729 176.34873 
L 98.984306 176.318536 
L 99.009884 176.288355 
L 99.061039 176.228031 
L 99.137771 176.137639 
L 99.419123 175.807164 
L 99.700475 175.478195 
L 133.641748 143.464301 
L 133.948678 143.217558 
L 133.999833 143.176468 
L 134.050987 143.135388 
L 134.076565 143.114852 
L 134.153297 143.053258 
L 134.588114 142.706237 
L 134.613691 142.685945 
L 134.664846 142.6454 
L 134.716001 142.604909 
L 134.843888 142.503913 
L 135.278705 142.162985 
L 135.687944 141.845537 
L 168.938626 122.260351 
L 169.373443 122.009486 
L 169.424598 121.979826 
L 169.450175 121.964984 
L 169.475753 121.950135 
L 169.552485 121.905539 
L 169.629217 121.860871 
L 170.191921 121.531072 
L 170.243076 121.50089 
L 170.294231 121.470675 
L 170.396541 121.410141 
L 170.550005 121.319279 
L 171.138287 120.971751 
L 171.700991 120.640551 
L 204.261082 105.244462 
L 204.772631 105.020651 
L 204.874941 104.975527 
L 204.926095 104.952918 
L 205.002828 104.918946 
L 205.105138 104.873538 
L 205.821306 104.551983 
L 205.872461 104.528758 
L 205.949193 104.493853 
L 206.077081 104.435501 
L 206.2817 104.341664 
L 206.997869 104.008476 
L 207.68846 103.679778 
L 239.55796 86.186004 
L 240.197396 85.866098 
L 240.299706 85.815254 
L 240.376438 85.777182 
L 240.45317 85.739164 
L 240.581058 85.67592 
L 241.450691 85.249849 
L 241.501846 85.225005 
L 241.604156 85.17539 
L 241.732043 85.113511 
L 241.987817 84.990214 
L 242.857451 84.575669 
L 243.675929 84.192182 
L 274.854838 74.026058 
L 275.596584 73.863326 
L 275.724471 73.835516 
L 275.750048 73.829964 
L 275.801203 73.818874 
L 275.929091 73.791238 
L 276.056978 73.763727 
L 277.054498 73.553417 
L 277.131231 73.537553 
L 277.23354 73.516469 
L 277.412583 73.479762 
L 277.693935 73.422569 
L 278.717032 73.219603 
L 279.688975 73.034015 
L 310.177293 69.640551 
L 311.021349 69.550901 
L 311.149236 69.536963 
L 311.174814 69.534164 
L 311.251546 69.525743 
L 311.379433 69.51163 
L 311.532898 69.494566 
L 312.683883 69.369916 
L 312.760615 69.361881 
L 312.888503 69.348566 
L 313.067545 69.330084 
L 313.400052 69.296255 
L 314.576614 69.181714 
L 315.676445 69.081908 
L 345.474171 69.234717 
L 346.420537 69.344173 
L 346.574002 69.362659 
L 346.599579 69.36576 
L 346.701889 69.378222 
L 346.829776 69.393929 
L 347.008818 69.416162 
L 348.313268 69.586819 
L 348.39 69.597338 
L 348.543465 69.618538 
L 348.748085 69.647142 
L 349.106169 69.698243 
L 350.436196 69.900594 
L 351.663914 70.105347 
L 380.796627 80.640574 
L 381.845302 81.224276 
L 382.024344 81.325276 
L 382.049922 81.339737 
L 382.152231 81.397659 
L 382.305696 81.48478 
L 382.510316 81.601388 
L 383.942653 82.431821 
L 384.019385 82.477006 
L 384.198427 82.582711 
L 384.428624 82.719182 
L 384.837864 82.963359 
L 386.295778 83.849408 
L 387.67696 84.711911 
L 387.67696 40.06436 
L 387.67696 40.06436 
L 386.295778 40.377296 
L 384.837864 40.697714 
L 384.428624 40.785779 
L 384.198427 40.834948 
L 384.019385 40.873006 
L 383.942653 40.889267 
L 382.510316 41.187282 
L 382.305696 41.228987 
L 382.152231 41.260122 
L 382.049922 41.280809 
L 382.024344 41.285973 
L 381.845302 41.322018 
L 380.796627 41.529698 
L 351.663914 44.540765 
L 350.436196 44.547769 
L 349.106169 44.546366 
L 348.748085 44.544464 
L 348.543465 44.543077 
L 348.39 44.54188 
L 348.313268 44.541232 
L 347.008818 44.525311 
L 346.829776 44.522432 
L 346.701889 44.520279 
L 346.599579 44.518497 
L 346.574002 44.518044 
L 346.420537 44.515257 
L 345.474171 44.495624 
L 315.676445 43.462429 
L 314.576614 43.465381 
L 313.400052 43.475472 
L 313.067545 43.479669 
L 312.888503 43.482179 
L 312.760615 43.484081 
L 312.683883 43.485265 
L 311.532898 43.507015 
L 311.379433 43.51043 
L 311.251546 43.51329 
L 311.174814 43.515013 
L 311.149236 43.515589 
L 311.021349 43.518475 
L 310.177293 43.537939 
L 279.688975 45.66795 
L 278.717032 45.835004 
L 277.693935 46.023477 
L 277.412583 46.077675 
L 277.23354 46.11271 
L 277.131231 46.132923 
L 277.054498 46.148175 
L 276.056978 46.353811 
L 275.929091 46.381183 
L 275.801203 46.408788 
L 275.750048 46.419896 
L 275.724471 46.425464 
L 275.596584 46.453483 
L 274.854838 46.622048 
L 243.675929 59.490855 
L 242.857451 59.886116 
L 241.987817 60.305054 
L 241.732043 60.428045 
L 241.604156 60.4895 
L 241.501846 60.538643 
L 241.450691 60.563208 
L 240.581058 60.980095 
L 240.45317 61.041283 
L 240.376438 61.077981 
L 240.299706 61.114667 
L 240.197396 61.163564 
L 239.55796 61.468695 
L 207.68846 76.147568 
L 206.997869 76.479861 
L 206.2817 76.825881 
L 206.077081 76.924984 
L 205.949193 76.986973 
L 205.872461 77.024185 
L 205.821306 77.049 
L 205.105138 77.396986 
L 205.002828 77.446779 
L 204.926095 77.484135 
L 204.874941 77.509045 
L 204.772631 77.558877 
L 204.261082 77.808277 
L 171.700991 93.242086 
L 171.138287 93.563123 
L 170.550005 93.90572 
L 170.396541 93.996301 
L 170.294231 94.056822 
L 170.243076 94.087056 
L 170.191921 94.117273 
L 169.629217 94.44853 
L 169.552485 94.493545 
L 169.475753 94.538524 
L 169.450175 94.553509 
L 169.424598 94.568489 
L 169.373443 94.598439 
L 168.938626 94.852373 
L 135.687944 115.753031 
L 135.278705 116.104239 
L 134.843888 116.48222 
L 134.716001 116.594348 
L 134.664846 116.639323 
L 134.613691 116.684367 
L 134.588114 116.706916 
L 134.153297 117.092962 
L 134.076565 117.161553 
L 134.050987 117.184421 
L 133.999833 117.230164 
L 133.948678 117.275915 
L 133.641748 117.550609 
L 99.700475 150.578732 
L 99.419123 150.876987 
L 99.137771 151.175627 
L 99.061039 151.257141 
L 99.009884 151.311499 
L 98.984306 151.338683 
L 98.958729 151.365871 
L 98.677377 151.665137 
L 98.626222 151.719591 
L 98.600645 151.746822 
L 98.575067 151.774056 
L 98.54949 151.801293 
L 98.319293 152.046453 
L 63.713006 188.619495 
L 63.559541 188.780248 
L 63.431654 188.914214 
L 63.380499 188.967803 
L 63.354922 188.994597 
L 63.329344 189.021392 
L 63.201457 189.15537 
L 63.175879 189.182166 
L 63.150302 189.208963 
L 63.124725 189.23576 
L 63.022415 189.34295 
z
" clip-path="url(#p29a8b2c91b)" style="fill: #999999; fill-opacity: 0.4"/>
   </g>
   <g id="line2d_22">
    <path d="M 63.022415 210.016703 
L 63.713006 209.020157 
L 99.419123 163.342076 
L 99.700475 163.028464 
L 134.843888 129.493066 
L 135.687944 128.799284 
L 171.700991 106.941318 
L 207.68846 89.913673 
L 243.675929 71.841519 
L 275.596584 60.158405 
L 279.688975 59.350983 
L 313.400052 56.385864 
L 315.676445 56.272169 
L 347.008818 56.970736 
L 351.663914 57.323056 
L 382.510316 61.394335 
L 387.67696 62.388135 
L 387.67696 62.388135 
" clip-path="url(#p29a8b2c91b)" style="fill: none; stroke: #91db57; stroke-width: 1.772454; stroke-linejoin: miter"/>
   </g>
   <g id="PolyCollection_4">
    <path d="M 63.022415 264.938483 
L 63.022415 270.283662 
L 63.124725 270.268292 
L 63.150302 270.264452 
L 63.175879 270.260615 
L 63.201457 270.256778 
L 63.329344 270.237615 
L 63.354922 270.233786 
L 63.380499 270.229959 
L 63.431654 270.222308 
L 63.559541 270.203205 
L 63.713006 270.180324 
L 98.319293 266.305324 
L 98.54949 266.288071 
L 98.575067 266.28616 
L 98.600645 266.28425 
L 98.626222 266.282342 
L 98.677377 266.278531 
L 98.958729 266.257667 
L 98.984306 266.255778 
L 99.009884 266.253892 
L 99.061039 266.250122 
L 99.137771 266.244478 
L 99.419123 266.223891 
L 99.700475 266.203472 
L 133.641748 264.576118 
L 133.948678 264.565918 
L 133.999833 264.564221 
L 134.050987 264.562526 
L 134.076565 264.561678 
L 134.153297 264.559137 
L 134.588114 264.544898 
L 134.613691 264.54407 
L 134.664846 264.542417 
L 134.716001 264.540768 
L 134.843888 264.536664 
L 135.278705 264.522903 
L 135.687944 264.510222 
L 168.938626 264.022537 
L 169.373443 264.017374 
L 169.424598 264.016755 
L 169.450175 264.016444 
L 169.475753 264.016134 
L 169.552485 264.015197 
L 169.629217 264.014255 
L 170.191921 264.007169 
L 170.243076 264.00651 
L 170.294231 264.005847 
L 170.396541 264.004514 
L 170.550005 264.002514 
L 171.138287 263.995005 
L 171.700991 263.988061 
L 204.261082 264.112619 
L 204.772631 264.116037 
L 204.874941 264.116665 
L 204.926095 264.116972 
L 205.002828 264.117424 
L 205.105138 264.118008 
L 205.821306 264.121539 
L 205.872461 264.121753 
L 205.949193 264.122062 
L 206.077081 264.122552 
L 206.2817 264.123264 
L 206.997869 264.125038 
L 207.68846 264.125639 
L 239.55796 263.935861 
L 240.197396 263.935312 
L 240.299706 263.935256 
L 240.376438 263.93522 
L 240.45317 263.935189 
L 240.581058 263.935148 
L 241.450691 263.93524 
L 241.501846 263.935266 
L 241.604156 263.935324 
L 241.732043 263.935409 
L 241.987817 263.935622 
L 242.857451 263.936769 
L 243.675929 263.938448 
L 274.854838 264.263626 
L 275.596584 264.271255 
L 275.724471 264.27254 
L 275.750048 264.272796 
L 275.801203 264.273311 
L 275.929091 264.274604 
L 276.056978 264.275908 
L 277.054498 264.286466 
L 277.131231 264.287306 
L 277.23354 264.288432 
L 277.412583 264.290418 
L 277.693935 264.293582 
L 278.717032 264.305515 
L 279.688975 264.317455 
L 310.177293 264.759476 
L 311.021349 264.763218 
L 311.149236 264.763686 
L 311.174814 264.763777 
L 311.251546 264.764042 
L 311.379433 264.764462 
L 311.532898 264.764931 
L 312.683883 264.768462 
L 312.760615 264.768708 
L 312.888503 264.769122 
L 313.067545 264.769707 
L 313.400052 264.770813 
L 314.576614 264.774927 
L 315.676445 264.779047 
L 345.474171 264.992171 
L 346.420537 265.003271 
L 346.574002 265.005108 
L 346.599579 265.005416 
L 346.701889 265.006648 
L 346.829776 265.008195 
L 347.008818 265.010374 
L 348.313268 265.026703 
L 348.39 265.027689 
L 348.543465 265.029671 
L 348.748085 265.03233 
L 349.106169 265.037054 
L 350.436196 265.055521 
L 351.663914 265.073908 
L 380.796627 265.970869 
L 381.845302 266.01992 
L 382.024344 266.028402 
L 382.049922 266.029616 
L 382.152231 266.03448 
L 382.305696 266.041794 
L 382.510316 266.051581 
L 383.942653 266.121219 
L 384.019385 266.125005 
L 384.198427 266.13386 
L 384.428624 266.14529 
L 384.837864 266.165733 
L 386.295778 266.239831 
L 387.67696 266.311835 
L 387.67696 260.540045 
L 387.67696 260.540045 
L 386.295778 260.619995 
L 384.837864 260.701862 
L 384.428624 260.72437 
L 384.198427 260.736939 
L 384.019385 260.746668 
L 383.942653 260.750826 
L 382.510316 260.827068 
L 382.305696 260.837746 
L 382.152231 260.845719 
L 382.049922 260.851018 
L 382.024344 260.852341 
L 381.845302 260.861575 
L 380.796627 260.91483 
L 351.663914 261.76906 
L 350.436196 261.778047 
L 349.106169 261.785558 
L 348.748085 261.787194 
L 348.543465 261.788053 
L 348.39 261.788657 
L 348.313268 261.788947 
L 347.008818 261.792621 
L 346.829776 261.792945 
L 346.701889 261.79315 
L 346.599579 261.793298 
L 346.574002 261.793333 
L 346.420537 261.793525 
L 345.474171 261.794037 
L 315.676445 261.467102 
L 314.576614 261.450461 
L 313.400052 261.432844 
L 313.067545 261.427907 
L 312.888503 261.425257 
L 312.760615 261.423368 
L 312.683883 261.422236 
L 311.532898 261.405403 
L 311.379433 261.40317 
L 311.251546 261.401295 
L 311.174814 261.400164 
L 311.149236 261.399786 
L 311.021349 261.397889 
L 310.177293 261.385074 
L 279.688975 260.77972 
L 278.717032 260.765385 
L 277.693935 260.751578 
L 277.412583 260.748027 
L 277.23354 260.745824 
L 277.131231 260.744586 
L 277.054498 260.743667 
L 276.056978 260.732505 
L 275.929091 260.731182 
L 275.801203 260.729885 
L 275.750048 260.729373 
L 275.724471 260.729119 
L 275.596584 260.727861 
L 274.854838 260.720986 
L 243.675929 260.745196 
L 242.857451 260.745039 
L 241.987817 260.74446 
L 241.732043 260.744208 
L 241.604156 260.744068 
L 241.501846 260.743949 
L 241.450691 260.743887 
L 240.581058 260.742607 
L 240.45317 260.742382 
L 240.376438 260.742243 
L 240.299706 260.7421 
L 240.197396 260.741904 
L 239.55796 260.740543 
L 207.68846 260.566426 
L 206.997869 260.56629 
L 206.2817 260.566174 
L 206.077081 260.566143 
L 205.949193 260.566124 
L 205.872461 260.566113 
L 205.821306 260.566105 
L 205.105138 260.565991 
L 205.002828 260.565973 
L 204.926095 260.565959 
L 204.874941 260.565949 
L 204.772631 260.56593 
L 204.261082 260.56582 
L 171.700991 260.446138 
L 171.138287 260.451768 
L 170.550005 260.45864 
L 170.396541 260.460603 
L 170.294231 260.461935 
L 170.243076 260.4626 
L 170.191921 260.463264 
L 169.629217 260.470538 
L 169.552485 260.471525 
L 169.475753 260.472511 
L 169.450175 260.472839 
L 169.424598 260.473168 
L 169.373443 260.473824 
L 168.938626 260.479384 
L 135.687944 261.137126 
L 135.278705 261.154172 
L 134.843888 261.172722 
L 134.716001 261.178265 
L 134.664846 261.180494 
L 134.613691 261.182729 
L 134.588114 261.183848 
L 134.153297 261.203133 
L 134.076565 261.206578 
L 134.050987 261.207727 
L 133.999833 261.210025 
L 133.948678 261.212325 
L 133.641748 261.226138 
L 99.700475 262.984606 
L 99.419123 263.001055 
L 99.137771 263.017526 
L 99.061039 263.022023 
L 99.009884 263.025021 
L 98.984306 263.02652 
L 98.958729 263.02802 
L 98.677377 263.044528 
L 98.626222 263.047531 
L 98.600645 263.049033 
L 98.575067 263.050536 
L 98.54949 263.052038 
L 98.319293 263.065556 
L 63.713006 264.905753 
L 63.559541 264.913035 
L 63.431654 264.9191 
L 63.380499 264.921525 
L 63.354922 264.922737 
L 63.329344 264.923949 
L 63.201457 264.930007 
L 63.175879 264.931218 
L 63.150302 264.93243 
L 63.124725 264.933641 
L 63.022415 264.938483 
z
" clip-path="url(#p29a8b2c91b)" style="fill: #999999; fill-opacity: 0.4"/>
   </g>
   <g id="line2d_23">
    <path d="M 63.022415 267.611072 
L 63.713006 267.543039 
L 99.700475 264.594039 
L 135.687944 262.823674 
L 171.700991 262.217099 
L 207.68846 262.346033 
L 243.675929 262.341822 
L 279.688975 262.548587 
L 315.676445 263.123074 
L 351.663914 263.421484 
L 387.67696 263.42594 
L 387.67696 263.42594 
" clip-path="url(#p29a8b2c91b)" style="fill: none; stroke-dasharray: 6.558079,2.835926; stroke-dashoffset: 0; stroke: #91db57; stroke-width: 1.772454; stroke-linejoin: miter"/>
   </g>
   <g id="PolyCollection_5">
    <path d="M 63.022415 175.947402 
L 63.022415 221.387778 
L 63.124725 221.184878 
L 63.150302 221.134187 
L 63.175879 221.083511 
L 63.201457 221.032848 
L 63.329344 220.779739 
L 63.354922 220.729159 
L 63.380499 220.678593 
L 63.431654 220.577501 
L 63.559541 220.325014 
L 63.713006 220.022485 
L 98.319293 165.089868 
L 98.54949 164.812726 
L 98.575067 164.781999 
L 98.600645 164.751286 
L 98.626222 164.72059 
L 98.677377 164.659246 
L 98.958729 164.323011 
L 98.984306 164.292541 
L 99.009884 164.262087 
L 99.061039 164.201227 
L 99.137771 164.110057 
L 99.419123 163.776996 
L 99.700475 163.445853 
L 133.641748 133.014417 
L 133.948678 132.788376 
L 133.999833 132.750731 
L 134.050987 132.713093 
L 134.076565 132.694278 
L 134.153297 132.637843 
L 134.588114 132.321068 
L 134.613691 132.302618 
L 134.664846 132.265779 
L 134.716001 132.229021 
L 134.843888 132.137481 
L 135.278705 131.829982 
L 135.687944 131.545778 
L 168.938626 117.109352 
L 169.373443 116.913193 
L 169.424598 116.88987 
L 169.450175 116.878189 
L 169.475753 116.866495 
L 169.552485 116.831333 
L 169.629217 116.796051 
L 170.191921 116.533591 
L 170.243076 116.509399 
L 170.294231 116.48515 
L 170.396541 116.436484 
L 170.550005 116.363401 
L 171.138287 116.08487 
L 171.700991 115.820889 
L 204.261082 104.987515 
L 204.772631 104.817867 
L 204.874941 104.78338 
L 204.926095 104.766065 
L 205.002828 104.740002 
L 205.105138 104.705082 
L 205.821306 104.455033 
L 205.872461 104.436785 
L 205.949193 104.409315 
L 206.077081 104.363262 
L 206.2817 104.288873 
L 206.997869 104.021455 
L 207.68846 103.752685 
L 239.55796 87.152912 
L 240.197396 86.829106 
L 240.299706 86.777607 
L 240.376438 86.739039 
L 240.45317 86.70052 
L 240.581058 86.636432 
L 241.450691 86.204308 
L 241.501846 86.179091 
L 241.604156 86.128727 
L 241.732043 86.0659 
L 241.987817 85.940678 
L 242.857451 85.519295 
L 243.675929 85.128996 
L 274.854838 74.752199 
L 275.596584 74.591468 
L 275.724471 74.564062 
L 275.750048 74.558592 
L 275.801203 74.547663 
L 275.929091 74.520406 
L 276.056978 74.493245 
L 277.054498 74.284665 
L 277.131231 74.268861 
L 277.23354 74.247844 
L 277.412583 74.211212 
L 277.693935 74.154029 
L 278.717032 73.950043 
L 279.688975 73.762044 
L 310.177293 70.153419 
L 311.021349 70.066628 
L 311.149236 70.053213 
L 311.174814 70.050522 
L 311.251546 70.04243 
L 311.379433 70.028885 
L 311.532898 70.012534 
L 312.683883 69.893745 
L 312.760615 69.886127 
L 312.888503 69.873513 
L 313.067545 69.856029 
L 313.400052 69.8241 
L 314.576614 69.716756 
L 315.676445 69.624336 
L 345.474171 70.17719 
L 346.420537 70.305196 
L 346.574002 70.326726 
L 346.599579 70.330335 
L 346.701889 70.344833 
L 346.829776 70.363092 
L 347.008818 70.388909 
L 348.313268 70.5861 
L 348.39 70.598203 
L 348.543465 70.622579 
L 348.748085 70.655434 
L 349.106169 70.714039 
L 350.436196 70.945149 
L 351.663914 71.177727 
L 380.796627 82.810743 
L 381.845302 83.450314 
L 382.024344 83.560963 
L 382.049922 83.576804 
L 382.152231 83.640257 
L 382.305696 83.735693 
L 382.510316 83.863424 
L 383.942653 84.772882 
L 384.019385 84.822358 
L 384.198427 84.938097 
L 384.428624 85.087515 
L 384.837864 85.354837 
L 386.295778 86.324671 
L 387.67696 87.268453 
L 387.67696 38.201371 
L 387.67696 38.201371 
L 386.295778 38.549381 
L 384.837864 38.905439 
L 384.428624 39.003246 
L 384.198427 39.057844 
L 384.019385 39.100099 
L 383.942653 39.118152 
L 382.510316 39.448844 
L 382.305696 39.495097 
L 382.152231 39.529622 
L 382.049922 39.552561 
L 382.024344 39.558285 
L 381.845302 39.598248 
L 380.796627 39.828395 
L 351.663914 43.082582 
L 350.436196 43.082721 
L 349.106169 43.072452 
L 348.748085 43.067915 
L 348.543465 43.064971 
L 348.39 43.062578 
L 348.313268 43.061323 
L 347.008818 43.034185 
L 346.829776 43.029638 
L 346.701889 43.026275 
L 346.599579 43.023514 
L 346.574002 43.022815 
L 346.420537 43.018538 
L 345.474171 42.989247 
L 315.676445 41.46886 
L 314.576614 41.454838 
L 313.400052 41.447392 
L 313.067545 41.446757 
L 312.888503 41.446688 
L 312.760615 41.446758 
L 312.683883 41.446848 
L 311.532898 41.452552 
L 311.379433 41.453901 
L 311.251546 41.45508 
L 311.174814 41.455811 
L 311.149236 41.456059 
L 311.021349 41.457328 
L 310.177293 41.466986 
L 279.688975 43.687092 
L 278.717032 43.854723 
L 277.693935 44.042781 
L 277.412583 44.096672 
L 277.23354 44.131468 
L 277.131231 44.151528 
L 277.054498 44.166658 
L 276.056978 44.370102 
L 275.929091 44.39711 
L 275.801203 44.424332 
L 275.750048 44.435282 
L 275.724471 44.440769 
L 275.596584 44.468404 
L 274.854838 44.635546 
L 243.675929 57.982556 
L 242.857451 58.385794 
L 241.987817 58.812006 
L 241.732043 58.936892 
L 241.604156 58.999252 
L 241.501846 59.049098 
L 241.450691 59.074008 
L 240.581058 59.49604 
L 240.45317 59.557868 
L 240.376438 59.594936 
L 240.299706 59.631981 
L 240.197396 59.681339 
L 239.55796 59.988909 
L 207.68846 73.495143 
L 206.997869 73.767863 
L 206.2817 74.049383 
L 206.077081 74.129559 
L 205.949193 74.179609 
L 205.872461 74.209616 
L 205.821306 74.229611 
L 205.105138 74.508706 
L 205.002828 74.548445 
L 204.926095 74.578227 
L 204.874941 74.598071 
L 204.772631 74.637732 
L 204.261082 74.835502 
L 171.700991 85.71033 
L 171.138287 85.963141 
L 170.550005 86.236253 
L 170.396541 86.309027 
L 170.294231 86.35768 
L 170.243076 86.381949 
L 170.191921 86.40618 
L 169.629217 86.670242 
L 169.552485 86.705906 
L 169.475753 86.741488 
L 169.450175 86.753331 
L 169.424598 86.765165 
L 169.373443 86.788806 
L 168.938626 86.988338 
L 135.687944 102.87045 
L 135.278705 103.191756 
L 134.843888 103.539975 
L 134.716001 103.643751 
L 134.664846 103.685435 
L 134.613691 103.72722 
L 134.588114 103.74815 
L 134.153297 104.107813 
L 134.076565 104.171937 
L 134.050987 104.193316 
L 133.999833 104.236077 
L 133.948678 104.278846 
L 133.641748 104.535603 
L 99.700475 136.081665 
L 99.419123 136.379054 
L 99.137771 136.677129 
L 99.061039 136.758542 
L 99.009884 136.812845 
L 98.984306 136.840006 
L 98.958729 136.867172 
L 98.677377 137.166373 
L 98.626222 137.220847 
L 98.600645 137.248093 
L 98.575067 137.275344 
L 98.54949 137.302599 
L 98.319293 137.547984 
L 63.713006 175.182358 
L 63.559541 175.352281 
L 63.431654 175.493921 
L 63.380499 175.550586 
L 63.354922 175.578921 
L 63.329344 175.607258 
L 63.201457 175.74896 
L 63.175879 175.777304 
L 63.150302 175.805651 
L 63.124725 175.833998 
L 63.022415 175.947402 
z
" clip-path="url(#p29a8b2c91b)" style="fill: #999999; fill-opacity: 0.4"/>
   </g>
   <g id="line2d_24">
    <path d="M 63.022415 198.66759 
L 63.713006 197.602421 
L 99.137771 150.393593 
L 99.700475 149.763759 
L 134.716001 117.936386 
L 135.687944 117.208114 
L 171.700991 100.765609 
L 206.997869 88.894659 
L 207.68846 88.623914 
L 243.675929 71.555776 
L 275.596584 59.529936 
L 279.688975 58.724568 
L 312.888503 55.660101 
L 315.676445 55.546598 
L 347.008818 56.711547 
L 351.663914 57.130154 
L 382.510316 61.656134 
L 387.67696 62.734912 
L 387.67696 62.734912 
" clip-path="url(#p29a8b2c91b)" style="fill: none; stroke: #57d3db; stroke-width: 1.772454; stroke-linejoin: miter"/>
   </g>
   <g id="PolyCollection_6">
    <path d="M 63.022415 267.383596 
L 63.022415 269.564895 
L 63.124725 269.560415 
L 63.150302 269.559296 
L 63.175879 269.558178 
L 63.201457 269.55706 
L 63.329344 269.551475 
L 63.354922 269.55036 
L 63.380499 269.549245 
L 63.431654 269.547016 
L 63.559541 269.541451 
L 63.713006 269.534788 
L 98.319293 268.456466 
L 98.54949 268.452099 
L 98.575067 268.451616 
L 98.600645 268.451133 
L 98.626222 268.450651 
L 98.677377 268.449688 
L 98.958729 268.444416 
L 98.984306 268.443939 
L 99.009884 268.443462 
L 99.061039 268.44251 
L 99.137771 268.441085 
L 99.419123 268.43589 
L 99.700475 268.43074 
L 133.641748 268.049888 
L 133.948678 268.047945 
L 133.999833 268.047622 
L 134.050987 268.047301 
L 134.076565 268.04714 
L 134.153297 268.046659 
L 134.588114 268.043941 
L 134.613691 268.043782 
L 134.664846 268.043463 
L 134.716001 268.043144 
L 134.843888 268.042347 
L 135.278705 268.039647 
L 135.687944 268.037116 
L 168.938626 267.909635 
L 169.373443 267.908942 
L 169.424598 267.90886 
L 169.450175 267.90882 
L 169.475753 267.908779 
L 169.552485 267.908657 
L 169.629217 267.908535 
L 170.191921 267.90764 
L 170.243076 267.907558 
L 170.294231 267.907477 
L 170.396541 267.907314 
L 170.550005 267.907067 
L 171.138287 267.906078 
L 171.700991 267.905075 
L 204.261082 267.979672 
L 204.772631 267.982873 
L 204.874941 267.983506 
L 204.926095 267.983822 
L 205.002828 267.984294 
L 205.105138 267.984921 
L 205.821306 267.989228 
L 205.872461 267.98953 
L 205.949193 267.989981 
L 206.077081 267.990729 
L 206.2817 267.991915 
L 206.997869 267.99595 
L 207.68846 267.999657 
L 239.55796 268.23144 
L 240.197396 268.239318 
L 240.299706 268.240595 
L 240.376438 268.241555 
L 240.45317 268.242518 
L 240.581058 268.244128 
L 241.450691 268.255263 
L 241.501846 268.255928 
L 241.604156 268.257261 
L 241.732043 268.258934 
L 241.987817 268.2623 
L 242.857451 268.273947 
L 243.675929 268.285193 
L 274.854838 268.798472 
L 275.596584 268.808938 
L 275.724471 268.810717 
L 275.750048 268.811072 
L 275.801203 268.811783 
L 275.929091 268.813563 
L 276.056978 268.815349 
L 277.054498 268.82944 
L 277.131231 268.830536 
L 277.23354 268.832 
L 277.412583 268.834568 
L 277.693935 268.838623 
L 278.717032 268.853549 
L 279.688975 268.867983 
L 310.177293 269.333057 
L 311.021349 269.341514 
L 311.149236 269.342748 
L 311.174814 269.342994 
L 311.251546 269.343727 
L 311.379433 269.344938 
L 311.532898 269.346375 
L 312.683883 269.357103 
L 312.760615 269.35782 
L 312.888503 269.359015 
L 313.067545 269.360688 
L 313.400052 269.363799 
L 314.576614 269.374831 
L 315.676445 269.385179 
L 345.474171 269.684753 
L 346.420537 269.695527 
L 346.574002 269.697287 
L 346.599579 269.697581 
L 346.701889 269.698758 
L 346.829776 269.70023 
L 347.008818 269.702297 
L 348.313268 269.717519 
L 348.39 269.718424 
L 348.543465 269.720237 
L 348.748085 269.722661 
L 349.106169 269.726928 
L 350.436196 269.743112 
L 351.663914 269.75854 
L 380.796627 270.294843 
L 381.845302 270.320305 
L 382.024344 270.32469 
L 382.049922 270.325318 
L 382.152231 270.32783 
L 382.305696 270.331605 
L 382.510316 270.336651 
L 383.942653 270.372379 
L 384.019385 270.374313 
L 384.198427 270.378833 
L 384.428624 270.38466 
L 384.837864 270.395064 
L 386.295778 270.432582 
L 387.67696 270.468769 
L 387.67696 268.113375 
L 387.67696 268.113375 
L 386.295778 268.139199 
L 384.837864 268.165328 
L 384.428624 268.172452 
L 384.198427 268.176418 
L 384.019385 268.179482 
L 383.942653 268.18079 
L 382.510316 268.204594 
L 382.305696 268.207899 
L 382.152231 268.210363 
L 382.049922 268.211998 
L 382.024344 268.212406 
L 381.845302 268.21525 
L 380.796627 268.231538 
L 351.663914 268.409874 
L 350.436196 268.405617 
L 349.106169 268.400034 
L 348.748085 268.398362 
L 348.543465 268.397374 
L 348.39 268.396616 
L 348.313268 268.396232 
L 347.008818 268.389173 
L 346.829776 268.388128 
L 346.701889 268.38737 
L 346.599579 268.386757 
L 346.574002 268.386603 
L 346.420537 268.38567 
L 345.474171 268.379636 
L 315.676445 268.033616 
L 314.576614 268.018159 
L 313.400052 268.001616 
L 313.067545 267.996942 
L 312.888503 267.994426 
L 312.760615 267.992629 
L 312.683883 267.991551 
L 311.532898 267.975395 
L 311.379433 267.973238 
L 311.251546 267.971433 
L 311.174814 267.970346 
L 311.149236 267.969984 
L 311.021349 267.968166 
L 310.177293 267.956006 
L 279.688975 267.424279 
L 278.717032 267.408867 
L 277.693935 267.393176 
L 277.412583 267.388964 
L 277.23354 267.386307 
L 277.131231 267.384797 
L 277.054498 267.383669 
L 276.056978 267.369331 
L 275.929091 267.367538 
L 275.801203 267.365756 
L 275.750048 267.365046 
L 275.724471 267.364692 
L 275.596584 267.362924 
L 274.854838 267.352766 
L 243.675929 266.982068 
L 242.857451 266.971443 
L 241.987817 266.960027 
L 241.732043 266.956645 
L 241.604156 266.95495 
L 241.501846 266.953592 
L 241.450691 266.952912 
L 240.581058 266.941293 
L 240.45317 266.939574 
L 240.376438 266.938542 
L 240.299706 266.937508 
L 240.197396 266.936129 
L 239.55796 266.927471 
L 207.68846 266.547188 
L 206.997869 266.54367 
L 206.2817 266.540312 
L 206.077081 266.539404 
L 205.949193 266.538848 
L 205.872461 266.538518 
L 205.821306 266.5383 
L 205.105138 266.535387 
L 205.002828 266.534992 
L 204.926095 266.534698 
L 204.874941 266.534504 
L 204.772631 266.53412 
L 204.261082 266.532268 
L 171.700991 266.459661 
L 171.138287 266.460128 
L 170.550005 266.460857 
L 170.396541 266.461089 
L 170.294231 266.461251 
L 170.243076 266.461334 
L 170.191921 266.461417 
L 169.629217 266.462389 
L 169.552485 266.462529 
L 169.475753 266.462672 
L 169.450175 266.462719 
L 169.424598 266.462768 
L 169.373443 266.462864 
L 168.938626 266.463719 
L 135.687944 266.660598 
L 135.278705 266.66491 
L 134.843888 266.669566 
L 134.716001 266.670949 
L 134.664846 266.671505 
L 134.613691 266.672061 
L 134.588114 266.67234 
L 134.153297 266.677116 
L 134.076565 266.677967 
L 134.050987 266.67825 
L 133.999833 266.678818 
L 133.948678 266.679386 
L 133.641748 266.682804 
L 99.700475 267.117162 
L 99.419123 267.120691 
L 99.137771 267.124207 
L 99.061039 267.125164 
L 99.009884 267.125801 
L 98.984306 267.12612 
L 98.958729 267.126438 
L 98.677377 267.129932 
L 98.626222 267.130566 
L 98.600645 267.130883 
L 98.575067 267.131199 
L 98.54949 267.131516 
L 98.319293 267.134358 
L 63.713006 267.382303 
L 63.559541 267.3826 
L 63.431654 267.382844 
L 63.380499 267.38294 
L 63.354922 267.382988 
L 63.329344 267.383036 
L 63.201457 267.383272 
L 63.175879 267.383319 
L 63.150302 267.383366 
L 63.124725 267.383412 
L 63.022415 267.383596 
z
" clip-path="url(#p29a8b2c91b)" style="fill: #999999; fill-opacity: 0.4"/>
   </g>
   <g id="line2d_25">
    <path d="M 63.022415 268.474246 
L 63.713006 268.458545 
L 99.700475 267.773951 
L 135.687944 267.348857 
L 171.700991 267.182368 
L 207.68846 267.273422 
L 243.675929 267.63363 
L 351.663914 269.084207 
L 387.67696 269.291072 
L 387.67696 269.291072 
" clip-path="url(#p29a8b2c91b)" style="fill: none; stroke-dasharray: 6.558079,2.835926; stroke-dashoffset: 0; stroke: #57d3db; stroke-width: 1.772454; stroke-linejoin: miter"/>
   </g>
   <g id="PolyCollection_7">
    <path d="M 63.022415 238.573224 
L 63.022415 277.960138 
L 63.124725 277.786299 
L 63.150302 277.742863 
L 63.175879 277.699435 
L 63.201457 277.656017 
L 63.329344 277.439062 
L 63.354922 277.395698 
L 63.380499 277.352344 
L 63.431654 277.265663 
L 63.559541 277.04912 
L 63.713006 276.789572 
L 98.319293 227.208018 
L 98.54949 226.937547 
L 98.575067 226.907538 
L 98.600645 226.877538 
L 98.626222 226.847548 
L 98.677377 226.787597 
L 98.958729 226.458548 
L 98.984306 226.428692 
L 99.009884 226.398845 
L 99.061039 226.33918 
L 99.137771 226.249753 
L 99.419123 225.922581 
L 99.700475 225.596543 
L 133.641748 191.9121 
L 133.948678 191.638109 
L 133.999833 191.592468 
L 134.050987 191.546833 
L 134.076565 191.524018 
L 134.153297 191.455584 
L 134.588114 191.068707 
L 134.613691 191.046003 
L 134.664846 191.000615 
L 134.716001 190.95525 
L 134.843888 190.841943 
L 135.278705 190.457806 
L 135.687944 190.097809 
L 168.938626 164.144096 
L 169.373443 163.814056 
L 169.424598 163.77516 
L 169.450175 163.755707 
L 169.475753 163.73625 
L 169.552485 163.677858 
L 169.629217 163.619433 
L 170.191921 163.189942 
L 170.243076 163.150804 
L 170.294231 163.11165 
L 170.396541 163.033294 
L 170.550005 162.915696 
L 171.138287 162.46466 
L 171.700991 162.032969 
L 204.261082 139.846204 
L 204.772631 139.527018 
L 204.874941 139.462972 
L 204.926095 139.430921 
L 205.002828 139.38281 
L 205.105138 139.318597 
L 205.821306 138.866897 
L 205.872461 138.834477 
L 205.949193 138.785807 
L 206.077081 138.704582 
L 206.2817 138.57433 
L 206.997869 138.115495 
L 207.68846 137.668383 
L 239.55796 115.08297 
L 240.197396 114.664457 
L 240.299706 114.59784 
L 240.376438 114.547941 
L 240.45317 114.498096 
L 240.581058 114.415141 
L 241.450691 113.855096 
L 241.501846 113.822374 
L 241.604156 113.757005 
L 241.732043 113.675433 
L 241.987817 113.512759 
L 242.857451 112.964393 
L 243.675929 112.45504 
L 274.854838 97.610895 
L 275.596584 97.341795 
L 275.724471 97.295678 
L 275.750048 97.286466 
L 275.801203 97.26806 
L 275.929091 97.222153 
L 276.056978 97.176399 
L 277.054498 96.824726 
L 277.131231 96.798054 
L 277.23354 96.762575 
L 277.412583 96.700717 
L 277.693935 96.604101 
L 278.717032 96.258787 
L 279.688975 95.939369 
L 310.177293 88.604626 
L 311.021349 88.402466 
L 311.149236 88.371421 
L 311.174814 88.365199 
L 311.251546 88.346504 
L 311.379433 88.315256 
L 311.532898 88.277607 
L 312.683883 87.998644 
L 312.760615 87.980332 
L 312.888503 87.949893 
L 313.067545 87.907443 
L 313.400052 87.829123 
L 314.576614 87.557347 
L 315.676445 87.310827 
L 345.474171 83.518878 
L 346.420537 83.501475 
L 346.574002 83.499363 
L 346.599579 83.499031 
L 346.701889 83.497756 
L 346.829776 83.496288 
L 347.008818 83.494467 
L 348.313268 83.489554 
L 348.39 83.489727 
L 348.543465 83.490229 
L 348.748085 83.491223 
L 349.106169 83.493975 
L 350.436196 83.516425 
L 351.663914 83.55465 
L 380.796627 89.983504 
L 381.845302 90.413984 
L 382.024344 90.488792 
L 382.049922 90.49951 
L 382.152231 90.54246 
L 382.305696 90.607118 
L 382.510316 90.693763 
L 383.942653 91.31412 
L 384.019385 91.348034 
L 384.198427 91.427435 
L 384.428624 91.530072 
L 384.837864 91.714064 
L 386.295778 92.385328 
L 387.67696 93.043822 
L 387.67696 50.513343 
L 387.67696 50.513343 
L 386.295778 50.974552 
L 384.837864 51.452547 
L 384.428624 51.585043 
L 384.198427 51.659243 
L 384.019385 51.716789 
L 383.942653 51.741407 
L 382.510316 52.19599 
L 382.305696 52.260151 
L 382.152231 52.308143 
L 382.049922 52.340075 
L 382.024344 52.34805 
L 381.845302 52.403789 
L 380.796627 52.727165 
L 351.663914 59.202275 
L 350.436196 59.365766 
L 349.106169 59.534735 
L 348.748085 59.578849 
L 348.543465 59.603782 
L 348.39 59.622334 
L 348.313268 59.631564 
L 347.008818 59.783876 
L 346.829776 59.804134 
L 346.701889 59.818513 
L 346.599579 59.829962 
L 346.574002 59.832817 
L 346.420537 59.849883 
L 345.474171 59.952849 
L 315.676445 62.906158 
L 314.576614 63.060417 
L 313.400052 63.232695 
L 313.067545 63.282789 
L 312.888503 63.310024 
L 312.760615 63.329591 
L 312.683883 63.341377 
L 311.532898 63.522319 
L 311.379433 63.546966 
L 311.251546 63.567496 
L 311.174814 63.57981 
L 311.149236 63.583914 
L 311.021349 63.604432 
L 310.177293 63.739733 
L 279.688975 69.870933 
L 278.717032 70.172696 
L 277.693935 70.504203 
L 277.412583 70.597966 
L 277.23354 70.658233 
L 277.131231 70.692882 
L 277.054498 70.718971 
L 276.056978 71.066192 
L 275.929091 71.111813 
L 275.801203 71.15769 
L 275.750048 71.176114 
L 275.724471 71.185341 
L 275.596584 71.231656 
L 274.854838 71.506314 
L 243.675929 88.924986 
L 242.857451 89.445555 
L 241.987817 89.998106 
L 241.732043 90.160489 
L 241.604156 90.241655 
L 241.501846 90.306576 
L 241.450691 90.339032 
L 240.581058 90.890329 
L 240.45317 90.971325 
L 240.376438 91.019912 
L 240.299706 91.068492 
L 240.197396 91.133254 
L 239.55796 91.537692 
L 207.68846 111.441681 
L 206.997869 111.892217 
L 206.2817 112.363275 
L 206.077081 112.498543 
L 205.949193 112.583233 
L 205.872461 112.634101 
L 205.821306 112.668035 
L 205.105138 113.144913 
L 205.002828 113.213303 
L 204.926095 113.264637 
L 204.874941 113.29888 
L 204.772631 113.367411 
L 204.261082 113.710973 
L 171.700991 135.933669 
L 171.138287 136.355679 
L 170.550005 136.802018 
L 170.396541 136.919347 
L 170.294231 136.997692 
L 170.243076 137.036863 
L 170.191921 137.076035 
L 169.629217 137.506915 
L 169.552485 137.565672 
L 169.475753 137.624428 
L 169.450175 137.644013 
L 169.424598 137.663599 
L 169.373443 137.70277 
L 168.938626 138.035733 
L 135.687944 165.242542 
L 135.278705 165.634698 
L 134.843888 166.054132 
L 134.716001 166.178043 
L 134.664846 166.227679 
L 134.613691 166.277354 
L 134.588114 166.302207 
L 134.153297 166.726259 
L 134.076565 166.801358 
L 134.050987 166.826394 
L 133.999833 166.876471 
L 133.948678 166.926553 
L 133.641748 167.227168 
L 99.700475 201.87775 
L 99.419123 202.174529 
L 99.137771 202.471376 
L 99.061039 202.552345 
L 99.009884 202.606328 
L 98.984306 202.633319 
L 98.958729 202.660312 
L 98.677377 202.957261 
L 98.626222 203.011258 
L 98.600645 203.038257 
L 98.575067 203.065256 
L 98.54949 203.092256 
L 98.319293 203.3352 
L 63.713006 237.922944 
L 63.559541 238.067551 
L 63.431654 238.188013 
L 63.380499 238.236186 
L 63.354922 238.260271 
L 63.329344 238.284354 
L 63.201457 238.404744 
L 63.175879 238.428817 
L 63.150302 238.452889 
L 63.124725 238.476959 
L 63.022415 238.573224 
z
" clip-path="url(#p29a8b2c91b)" style="fill: #999999; fill-opacity: 0.4"/>
   </g>
   <g id="line2d_26">
    <path d="M 63.022415 258.266681 
L 63.713006 257.356258 
L 99.700475 213.737146 
L 135.278705 178.046252 
L 135.687944 177.670176 
L 171.700991 148.983319 
L 207.68846 124.555032 
L 243.675929 100.690013 
L 275.596584 84.286725 
L 279.688975 82.905151 
L 314.576614 75.308882 
L 315.676445 75.108493 
L 347.008818 71.639172 
L 351.663914 71.378463 
L 382.510316 71.444877 
L 387.67696 71.778582 
L 387.67696 71.778582 
" clip-path="url(#p29a8b2c91b)" style="fill: none; stroke: #a157db; stroke-width: 1.772454; stroke-linejoin: miter"/>
   </g>
   <g id="PolyCollection_8">
    <path d="M 63.022415 259.269963 
L 63.022415 280.121371 
L 63.124725 280.102603 
L 63.150302 280.097916 
L 63.175879 280.093231 
L 63.201457 280.088549 
L 63.329344 280.065169 
L 63.354922 280.060499 
L 63.380499 280.055831 
L 63.431654 280.046503 
L 63.559541 280.023218 
L 63.713006 279.995347 
L 98.319293 275.916237 
L 98.54949 275.903478 
L 98.575067 275.902069 
L 98.600645 275.900662 
L 98.626222 275.899256 
L 98.677377 275.896448 
L 98.958729 275.881092 
L 98.984306 275.879703 
L 99.009884 275.878316 
L 99.061039 275.875545 
L 99.137771 275.871397 
L 99.419123 275.856283 
L 99.700475 275.841314 
L 133.641748 274.494712 
L 133.948678 274.483207 
L 133.999833 274.481288 
L 134.050987 274.479369 
L 134.076565 274.478409 
L 134.153297 274.475528 
L 134.588114 274.458781 
L 134.613691 274.45777 
L 134.664846 274.455739 
L 134.716001 274.453697 
L 134.843888 274.448541 
L 135.278705 274.430482 
L 135.687944 274.412745 
L 168.938626 271.79329 
L 169.373443 271.753503 
L 169.424598 271.748816 
L 169.450175 271.746472 
L 169.475753 271.744127 
L 169.552485 271.737091 
L 169.629217 271.730052 
L 170.191921 271.67833 
L 170.243076 271.673619 
L 170.294231 271.668907 
L 170.396541 271.659478 
L 170.550005 271.645197 
L 171.138287 271.588049 
L 171.700991 271.529935 
L 204.261082 267.107796 
L 204.772631 267.060612 
L 204.874941 267.051259 
L 204.926095 267.046594 
L 205.002828 267.039608 
L 205.105138 267.030318 
L 205.821306 266.966037 
L 205.872461 266.961495 
L 205.949193 266.954693 
L 206.077081 266.94339 
L 206.2817 266.925387 
L 206.997869 266.863158 
L 207.68846 266.804266 
L 239.55796 264.290748 
L 240.197396 264.264299 
L 240.299706 264.260205 
L 240.376438 264.257159 
L 240.45317 264.254134 
L 240.581058 264.249141 
L 241.450691 264.216755 
L 241.501846 264.214935 
L 241.604156 264.211323 
L 241.732043 264.206862 
L 241.987817 264.198114 
L 242.857451 264.170121 
L 243.675929 264.146216 
L 274.854838 263.957619 
L 275.596584 263.93686 
L 275.724471 263.933048 
L 275.750048 263.93228 
L 275.801203 263.930745 
L 275.929091 263.926922 
L 276.056978 263.923121 
L 277.054498 263.894179 
L 277.131231 263.892004 
L 277.23354 263.889116 
L 277.412583 263.884092 
L 277.693935 263.876275 
L 278.717032 263.848649 
L 279.688975 263.823534 
L 310.177293 262.974771 
L 311.021349 262.916893 
L 311.149236 262.907768 
L 311.174814 262.905931 
L 311.251546 262.900399 
L 311.379433 262.891102 
L 311.532898 262.879819 
L 312.683883 262.794805 
L 312.760615 262.789147 
L 312.888503 262.779719 
L 313.067545 262.766525 
L 313.400052 262.742038 
L 314.576614 262.655557 
L 315.676445 262.574946 
L 345.474171 260.574439 
L 346.420537 260.524108 
L 346.574002 260.516089 
L 346.599579 260.514757 
L 346.701889 260.509438 
L 346.829776 260.502815 
L 347.008818 260.493591 
L 348.313268 260.428146 
L 348.39 260.424396 
L 348.543465 260.416928 
L 348.748085 260.407042 
L 349.106169 260.389996 
L 350.436196 260.329973 
L 351.663914 260.27938 
L 380.796627 260.745523 
L 381.845302 260.82263 
L 382.024344 260.836176 
L 382.049922 260.83812 
L 382.152231 260.845918 
L 382.305696 260.857684 
L 382.510316 260.873497 
L 383.942653 260.988172 
L 384.019385 260.99451 
L 384.198427 261.009376 
L 384.428624 261.028647 
L 384.837864 261.06334 
L 386.295778 261.191409 
L 387.67696 261.319082 
L 387.67696 238.803474 
L 387.67696 238.803474 
L 386.295778 239.26857 
L 384.837864 239.748918 
L 384.428624 239.881774 
L 384.198427 239.956121 
L 384.019385 240.013754 
L 383.942653 240.038403 
L 382.510316 240.492801 
L 382.305696 240.556824 
L 382.152231 240.604695 
L 382.049922 240.636539 
L 382.024344 240.644491 
L 381.845302 240.700057 
L 380.796627 241.022041 
L 351.663914 247.387249 
L 350.436196 247.544629 
L 349.106169 247.70599 
L 348.748085 247.747847 
L 348.543465 247.771458 
L 348.39 247.789013 
L 348.313268 247.797742 
L 347.008818 247.941219 
L 346.829776 247.960204 
L 346.701889 247.973662 
L 346.599579 247.984367 
L 346.574002 247.987034 
L 346.420537 248.00297 
L 345.474171 248.098599 
L 315.676445 249.65513 
L 314.576614 249.686898 
L 313.400052 249.720705 
L 313.067545 249.730249 
L 312.888503 249.735388 
L 312.760615 249.73906 
L 312.683883 249.741264 
L 311.532898 249.774385 
L 311.379433 249.778785 
L 311.251546 249.782407 
L 311.174814 249.784562 
L 311.149236 249.785277 
L 311.021349 249.788829 
L 310.177293 249.811312 
L 279.688975 250.02292 
L 278.717032 250.038689 
L 277.693935 250.059006 
L 277.412583 250.065312 
L 277.23354 250.069494 
L 277.131231 250.071943 
L 277.054498 250.073809 
L 276.056978 250.100393 
L 275.929091 250.104125 
L 275.801203 250.107932 
L 275.750048 250.109476 
L 275.724471 250.110252 
L 275.596584 250.114169 
L 274.854838 250.13787 
L 243.675929 251.689421 
L 242.857451 251.719263 
L 241.987817 251.749472 
L 241.732043 251.758065 
L 241.604156 251.762313 
L 241.501846 251.765687 
L 241.450691 251.767366 
L 240.581058 251.795121 
L 240.45317 251.799077 
L 240.376438 251.801436 
L 240.299706 251.803783 
L 240.197396 251.806895 
L 239.55796 251.825893 
L 207.68846 252.919866 
L 206.997869 252.980571 
L 206.2817 253.049271 
L 206.077081 253.06993 
L 205.949193 253.083067 
L 205.872461 253.091032 
L 205.821306 253.096376 
L 205.105138 253.173986 
L 205.002828 253.185488 
L 204.926095 253.19418 
L 204.874941 253.200006 
L 204.772631 253.211732 
L 204.261082 253.271821 
L 171.700991 257.712982 
L 171.138287 257.765971 
L 170.550005 257.820632 
L 170.396541 257.834771 
L 170.294231 257.844194 
L 170.243076 257.848916 
L 170.191921 257.853645 
L 169.629217 257.906102 
L 169.552485 257.913316 
L 169.475753 257.920545 
L 169.450175 257.922958 
L 169.424598 257.925372 
L 169.373443 257.930205 
L 168.938626 257.971539 
L 135.687944 261.254383 
L 135.278705 261.289144 
L 134.843888 261.325889 
L 134.716001 261.336659 
L 134.664846 261.340962 
L 134.613691 261.345262 
L 134.588114 261.347412 
L 134.153297 261.383839 
L 134.076565 261.390248 
L 134.050987 261.392384 
L 133.999833 261.396655 
L 133.948678 261.400925 
L 133.641748 261.426525 
L 99.700475 263.284599 
L 99.419123 263.28408 
L 99.137771 263.28314 
L 99.061039 263.28281 
L 99.009884 263.282572 
L 98.984306 263.282448 
L 98.958729 263.28232 
L 98.677377 263.280683 
L 98.626222 263.280339 
L 98.600645 263.280161 
L 98.575067 263.27998 
L 98.54949 263.279796 
L 98.319293 263.277983 
L 63.713006 259.419379 
L 63.559541 259.3864 
L 63.431654 259.35882 
L 63.380499 259.347763 
L 63.354922 259.342229 
L 63.329344 259.336691 
L 63.201457 259.30895 
L 63.175879 259.303391 
L 63.150302 259.297829 
L 63.124725 259.292263 
L 63.022415 259.269963 
z
" clip-path="url(#p29a8b2c91b)" style="fill: #999999; fill-opacity: 0.4"/>
   </g>
   <g id="line2d_27">
    <path d="M 63.022415 269.695667 
L 63.713006 269.707363 
L 99.700475 269.562956 
L 135.687944 267.833564 
L 171.700991 264.621458 
L 206.997869 259.921865 
L 207.68846 259.862066 
L 243.675929 257.917818 
L 279.688975 256.923227 
L 313.400052 256.231372 
L 315.676445 256.115038 
L 350.436196 253.937301 
L 351.663914 253.833315 
L 386.295778 250.229989 
L 387.67696 250.061278 
L 387.67696 250.061278 
" clip-path="url(#p29a8b2c91b)" style="fill: none; stroke-dasharray: 6.558079,2.835926; stroke-dashoffset: 0; stroke: #a157db; stroke-width: 1.772454; stroke-linejoin: miter"/>
   </g>
   <g id="patch_3">
    <path d="M 411.109688 241.199308 
L 546.423813 241.199308 
L 546.423813 73.667433 
L 411.109688 73.667433 
z
" style="fill: #ffffff"/>
   </g>
   <g id="text_9">
    <!-- Model -->
    <g transform="translate(423.309687 97.261027)scale(0.11 -0.11)">
     <defs>
      <path id="DejaVuSans-4d" d="M 628 4666 
L 1569 4666 
L 2759 1491 
L 3956 4666 
L 4897 4666 
L 4897 0 
L 4281 0 
L 4281 4097 
L 3078 897 
L 2444 897 
L 1241 4097 
L 1241 0 
L 628 0 
L 628 4666 
z
" transform="scale(0.015625)"/>
     </defs>
     <use xlink:href="#DejaVuSans-4d"/>
     <use xlink:href="#DejaVuSans-6f" x="86.279297"/>
     <use xlink:href="#DejaVuSans-64" x="147.460938"/>
     <use xlink:href="#DejaVuSans-65" x="210.9375"/>
     <use xlink:href="#DejaVuSans-6c" x="272.460938"/>
    </g>
   </g>
   <g id="patch_4">
    <path d="M 423.309687 116.753371 
L 439.149687 116.753371 
L 439.149687 100.913371 
L 423.309687 100.913371 
z
" clip-path="url(#p0bab3c064b)" style="fill: #f2f2f2"/>
   </g>
   <g id="patch_5">
    <path d="M 423.309687 112.793371 
L 439.149687 112.793371 
L 439.149687 104.873371 
L 423.309687 104.873371 
z
" clip-path="url(#p0bab3c064b)" style="fill: #999999; opacity: 0.4"/>
   </g>
   <g id="line2d_28">
    <path d="M 423.309687 108.833371 
L 439.149687 108.833371 
" clip-path="url(#p0bab3c064b)" style="fill: none; stroke: #db5f57; stroke-width: 1.772454"/>
   </g>
   <g id="text_10">
    <!-- Five Layer Network -->
    <g transform="translate(442.149688 111.261621)scale(0.088 -0.088)">
     <defs>
      <path id="DejaVuSans-46" d="M 628 4666 
L 3309 4666 
L 3309 4134 
L 1259 4134 
L 1259 2759 
L 3109 2759 
L 3109 2228 
L 1259 2228 
L 1259 0 
L 628 0 
L 628 4666 
z
" transform="scale(0.015625)"/>
      <path id="DejaVuSans-76" d="M 191 3500 
L 800 3500 
L 1894 563 
L 2988 3500 
L 3597 3500 
L 2284 0 
L 1503 0 
L 191 3500 
z
" transform="scale(0.015625)"/>
      <path id="DejaVuSans-4c" d="M 628 4666 
L 1259 4666 
L 1259 531 
L 3531 531 
L 3531 0 
L 628 0 
L 628 4666 
z
" transform="scale(0.015625)"/>
      <path id="DejaVuSans-4e" d="M 628 4666 
L 1478 4666 
L 3547 763 
L 3547 4666 
L 4159 4666 
L 4159 0 
L 3309 0 
L 1241 3903 
L 1241 0 
L 628 0 
L 628 4666 
z
" transform="scale(0.015625)"/>
      <path id="DejaVuSans-77" d="M 269 3500 
L 844 3500 
L 1563 769 
L 2278 3500 
L 2956 3500 
L 3675 769 
L 4391 3500 
L 4966 3500 
L 4050 0 
L 3372 0 
L 2619 2869 
L 1863 0 
L 1184 0 
L 269 3500 
z
" transform="scale(0.015625)"/>
      <path id="DejaVuSans-6b" d="M 581 4863 
L 1159 4863 
L 1159 1991 
L 2875 3500 
L 3609 3500 
L 1753 1863 
L 3688 0 
L 2938 0 
L 1159 1709 
L 1159 0 
L 581 0 
L 581 4863 
z
" transform="scale(0.015625)"/>
     </defs>
     <use xlink:href="#DejaVuSans-46"/>
     <use xlink:href="#DejaVuSans-69" x="50.269531"/>
     <use xlink:href="#DejaVuSans-76" x="78.052734"/>
     <use xlink:href="#DejaVuSans-65" x="137.232422"/>
     <use xlink:href="#DejaVuSans-20" x="198.755859"/>
     <use xlink:href="#DejaVuSans-4c" x="230.542969"/>
     <use xlink:href="#DejaVuSans-61" x="286.255859"/>
     <use xlink:href="#DejaVuSans-79" x="347.535156"/>
     <use xlink:href="#DejaVuSans-65" x="406.714844"/>
     <use xlink:href="#DejaVuSans-72" x="468.238281"/>
     <use xlink:href="#DejaVuSans-20" x="509.351562"/>
     <use xlink:href="#DejaVuSans-4e" x="541.138672"/>
     <use xlink:href="#DejaVuSans-65" x="615.943359"/>
     <use xlink:href="#DejaVuSans-74" x="677.466797"/>
     <use xlink:href="#DejaVuSans-77" x="716.675781"/>
     <use xlink:href="#DejaVuSans-6f" x="798.462891"/>
     <use xlink:href="#DejaVuSans-72" x="859.644531"/>
     <use xlink:href="#DejaVuSans-6b" x="900.757812"/>
    </g>
   </g>
   <g id="patch_6">
    <path d="M 423.309687 134.593371 
L 439.149687 134.593371 
L 439.149687 118.753371 
L 423.309687 118.753371 
z
" clip-path="url(#pc1fee1a782)" style="fill: #f2f2f2"/>
   </g>
   <g id="patch_7">
    <path d="M 423.309687 130.633371 
L 439.149687 130.633371 
L 439.149687 122.713371 
L 423.309687 122.713371 
z
" clip-path="url(#pc1fee1a782)" style="fill: #999999; opacity: 0.4"/>
   </g>
   <g id="line2d_29">
    <path d="M 423.309687 126.673371 
L 439.149687 126.673371 
" clip-path="url(#pc1fee1a782)" style="fill: none; stroke: #91db57; stroke-width: 1.772454"/>
   </g>
   <g id="text_11">
    <!-- Logistic Regression -->
    <g transform="translate(442.149688 129.101621)scale(0.088 -0.088)">
     <defs>
      <path id="DejaVuSans-67" d="M 2906 1791 
Q 2906 2416 2648 2759 
Q 2391 3103 1925 3103 
Q 1463 3103 1205 2759 
Q 947 2416 947 1791 
Q 947 1169 1205 825 
Q 1463 481 1925 481 
Q 2391 481 2648 825 
Q 2906 1169 2906 1791 
z
M 3481 434 
Q 3481 -459 3084 -895 
Q 2688 -1331 1869 -1331 
Q 1566 -1331 1297 -1286 
Q 1028 -1241 775 -1147 
L 775 -588 
Q 1028 -725 1275 -790 
Q 1522 -856 1778 -856 
Q 2344 -856 2625 -561 
Q 2906 -266 2906 331 
L 2906 616 
Q 2728 306 2450 153 
Q 2172 0 1784 0 
Q 1141 0 747 490 
Q 353 981 353 1791 
Q 353 2603 747 3093 
Q 1141 3584 1784 3584 
Q 2172 3584 2450 3431 
Q 2728 3278 2906 2969 
L 2906 3500 
L 3481 3500 
L 3481 434 
z
" transform="scale(0.015625)"/>
      <path id="DejaVuSans-73" d="M 2834 3397 
L 2834 2853 
Q 2591 2978 2328 3040 
Q 2066 3103 1784 3103 
Q 1356 3103 1142 2972 
Q 928 2841 928 2578 
Q 928 2378 1081 2264 
Q 1234 2150 1697 2047 
L 1894 2003 
Q 2506 1872 2764 1633 
Q 3022 1394 3022 966 
Q 3022 478 2636 193 
Q 2250 -91 1575 -91 
Q 1294 -91 989 -36 
Q 684 19 347 128 
L 347 722 
Q 666 556 975 473 
Q 1284 391 1588 391 
Q 1994 391 2212 530 
Q 2431 669 2431 922 
Q 2431 1156 2273 1281 
Q 2116 1406 1581 1522 
L 1381 1569 
Q 847 1681 609 1914 
Q 372 2147 372 2553 
Q 372 3047 722 3315 
Q 1072 3584 1716 3584 
Q 2034 3584 2315 3537 
Q 2597 3491 2834 3397 
z
" transform="scale(0.015625)"/>
      <path id="DejaVuSans-52" d="M 2841 2188 
Q 3044 2119 3236 1894 
Q 3428 1669 3622 1275 
L 4263 0 
L 3584 0 
L 2988 1197 
Q 2756 1666 2539 1819 
Q 2322 1972 1947 1972 
L 1259 1972 
L 1259 0 
L 628 0 
L 628 4666 
L 2053 4666 
Q 2853 4666 3247 4331 
Q 3641 3997 3641 3322 
Q 3641 2881 3436 2590 
Q 3231 2300 2841 2188 
z
M 1259 4147 
L 1259 2491 
L 2053 2491 
Q 2509 2491 2742 2702 
Q 2975 2913 2975 3322 
Q 2975 3731 2742 3939 
Q 2509 4147 2053 4147 
L 1259 4147 
z
" transform="scale(0.015625)"/>
     </defs>
     <use xlink:href="#DejaVuSans-4c"/>
     <use xlink:href="#DejaVuSans-6f" x="53.962891"/>
     <use xlink:href="#DejaVuSans-67" x="115.144531"/>
     <use xlink:href="#DejaVuSans-69" x="178.621094"/>
     <use xlink:href="#DejaVuSans-73" x="206.404297"/>
     <use xlink:href="#DejaVuSans-74" x="258.503906"/>
     <use xlink:href="#DejaVuSans-69" x="297.712891"/>
     <use xlink:href="#DejaVuSans-63" x="325.496094"/>
     <use xlink:href="#DejaVuSans-20" x="380.476562"/>
     <use xlink:href="#DejaVuSans-52" x="412.263672"/>
     <use xlink:href="#DejaVuSans-65" x="477.246094"/>
     <use xlink:href="#DejaVuSans-67" x="538.769531"/>
     <use xlink:href="#DejaVuSans-72" x="602.246094"/>
     <use xlink:href="#DejaVuSans-65" x="641.109375"/>
     <use xlink:href="#DejaVuSans-73" x="702.632812"/>
     <use xlink:href="#DejaVuSans-73" x="754.732422"/>
     <use xlink:href="#DejaVuSans-69" x="806.832031"/>
     <use xlink:href="#DejaVuSans-6f" x="834.615234"/>
     <use xlink:href="#DejaVuSans-6e" x="895.796875"/>
    </g>
   </g>
   <g id="patch_8">
    <path d="M 423.309687 152.433371 
L 439.149687 152.433371 
L 439.149687 136.593371 
L 423.309687 136.593371 
z
" clip-path="url(#p1bc0431d25)" style="fill: #f2f2f2"/>
   </g>
   <g id="patch_9">
    <path d="M 423.309687 148.473371 
L 439.149687 148.473371 
L 439.149687 140.553371 
L 423.309687 140.553371 
z
" clip-path="url(#p1bc0431d25)" style="fill: #999999; opacity: 0.4"/>
   </g>
   <g id="line2d_30">
    <path d="M 423.309687 144.513371 
L 439.149687 144.513371 
" clip-path="url(#p1bc0431d25)" style="fill: none; stroke: #57d3db; stroke-width: 1.772454"/>
   </g>
   <g id="text_12">
    <!-- SVM -->
    <g transform="translate(442.149688 146.941621)scale(0.088 -0.088)">
     <use xlink:href="#DejaVuSans-53"/>
     <use xlink:href="#DejaVuSans-56" x="63.476562"/>
     <use xlink:href="#DejaVuSans-4d" x="131.884766"/>
    </g>
   </g>
   <g id="patch_10">
    <path d="M 423.309687 170.273371 
L 439.149687 170.273371 
L 439.149687 154.433371 
L 423.309687 154.433371 
z
" clip-path="url(#pa3d1c04336)" style="fill: #f2f2f2"/>
   </g>
   <g id="patch_11">
    <path d="M 423.309687 166.313371 
L 439.149687 166.313371 
L 439.149687 158.393371 
L 423.309687 158.393371 
z
" clip-path="url(#pa3d1c04336)" style="fill: #999999; opacity: 0.4"/>
   </g>
   <g id="line2d_31">
    <path d="M 423.309687 162.353371 
L 439.149687 162.353371 
" clip-path="url(#pa3d1c04336)" style="fill: none; stroke: #a157db; stroke-width: 1.772454"/>
   </g>
   <g id="text_13">
    <!-- Three Layer Network -->
    <g transform="translate(442.149688 164.781621)scale(0.088 -0.088)">
     <defs>
      <path id="DejaVuSans-68" d="M 3513 2113 
L 3513 0 
L 2938 0 
L 2938 2094 
Q 2938 2591 2744 2837 
Q 2550 3084 2163 3084 
Q 1697 3084 1428 2787 
Q 1159 2491 1159 1978 
L 1159 0 
L 581 0 
L 581 4863 
L 1159 4863 
L 1159 2956 
Q 1366 3272 1645 3428 
Q 1925 3584 2291 3584 
Q 2894 3584 3203 3211 
Q 3513 2838 3513 2113 
z
" transform="scale(0.015625)"/>
     </defs>
     <use xlink:href="#DejaVuSans-54"/>
     <use xlink:href="#DejaVuSans-68" x="61.083984"/>
     <use xlink:href="#DejaVuSans-72" x="124.462891"/>
     <use xlink:href="#DejaVuSans-65" x="163.326172"/>
     <use xlink:href="#DejaVuSans-65" x="224.849609"/>
     <use xlink:href="#DejaVuSans-20" x="286.373047"/>
     <use xlink:href="#DejaVuSans-4c" x="318.160156"/>
     <use xlink:href="#DejaVuSans-61" x="373.873047"/>
     <use xlink:href="#DejaVuSans-79" x="435.152344"/>
     <use xlink:href="#DejaVuSans-65" x="494.332031"/>
     <use xlink:href="#DejaVuSans-72" x="555.855469"/>
     <use xlink:href="#DejaVuSans-20" x="596.96875"/>
     <use xlink:href="#DejaVuSans-4e" x="628.755859"/>
     <use xlink:href="#DejaVuSans-65" x="703.560547"/>
     <use xlink:href="#DejaVuSans-74" x="765.083984"/>
     <use xlink:href="#DejaVuSans-77" x="804.292969"/>
     <use xlink:href="#DejaVuSans-6f" x="886.080078"/>
     <use xlink:href="#DejaVuSans-72" x="947.261719"/>
     <use xlink:href="#DejaVuSans-6b" x="988.375"/>
    </g>
   </g>
   <g id="text_14">
    <!-- Correction -->
    <g transform="translate(423.309687 191.666964)scale(0.11 -0.11)">
     <use xlink:href="#DejaVuSans-43"/>
     <use xlink:href="#DejaVuSans-6f" x="69.824219"/>
     <use xlink:href="#DejaVuSans-72" x="131.005859"/>
     <use xlink:href="#DejaVuSans-72" x="170.369141"/>
     <use xlink:href="#DejaVuSans-65" x="209.232422"/>
     <use xlink:href="#DejaVuSans-63" x="270.755859"/>
     <use xlink:href="#DejaVuSans-74" x="325.736328"/>
     <use xlink:href="#DejaVuSans-69" x="364.945312"/>
     <use xlink:href="#DejaVuSans-6f" x="392.728516"/>
     <use xlink:href="#DejaVuSans-6e" x="453.910156"/>
    </g>
   </g>
   <g id="patch_12">
    <path d="M 423.309687 211.159308 
L 439.149687 211.159308 
L 439.149687 195.319308 
L 423.309687 195.319308 
z
" clip-path="url(#p6535471464)" style="fill: #f2f2f2"/>
   </g>
   <g id="patch_13">
    <path d="M 423.309687 207.199308 
L 439.149687 207.199308 
L 439.149687 199.279308 
L 423.309687 199.279308 
z
" clip-path="url(#p6535471464)" style="fill: #999999; opacity: 0.4"/>
   </g>
   <g id="line2d_32">
    <path d="M 423.309687 203.239308 
L 439.149687 203.239308 
" clip-path="url(#p6535471464)" style="fill: none; stroke: #000000; stroke-width: 1.772454"/>
   </g>
   <g id="text_15">
    <!-- Full Signal -->
    <g transform="translate(442.149688 205.667558)scale(0.088 -0.088)">
     <use xlink:href="#DejaVuSans-46"/>
     <use xlink:href="#DejaVuSans-75" x="52.019531"/>
     <use xlink:href="#DejaVuSans-6c" x="115.398438"/>
     <use xlink:href="#DejaVuSans-6c" x="143.181641"/>
     <use xlink:href="#DejaVuSans-20" x="170.964844"/>
     <use xlink:href="#DejaVuSans-53" x="202.751953"/>
     <use xlink:href="#DejaVuSans-69" x="266.228516"/>
     <use xlink:href="#DejaVuSans-67" x="294.011719"/>
     <use xlink:href="#DejaVuSans-6e" x="357.488281"/>
     <use xlink:href="#DejaVuSans-61" x="420.867188"/>
     <use xlink:href="#DejaVuSans-6c" x="482.146484"/>
    </g>
   </g>
   <g id="patch_14">
    <path d="M 423.309687 228.999308 
L 439.149687 228.999308 
L 439.149687 213.159308 
L 423.309687 213.159308 
z
" clip-path="url(#p8287483007)" style="fill: #f2f2f2"/>
   </g>
   <g id="patch_15">
    <path d="M 423.309687 225.039308 
L 439.149687 225.039308 
L 439.149687 217.119308 
L 423.309687 217.119308 
z
" clip-path="url(#p8287483007)" style="fill: #999999; opacity: 0.4"/>
   </g>
   <g id="line2d_33">
    <path d="M 423.309687 221.079308 
L 439.149687 221.079308 
" clip-path="url(#p8287483007)" style="fill: none; stroke-dasharray: 6.558079,2.835926; stroke-dashoffset: 0; stroke: #000000; stroke-width: 1.772454"/>
   </g>
   <g id="text_16">
    <!-- Signal Removed -->
    <g transform="translate(442.149688 223.507558)scale(0.088 -0.088)">
     <use xlink:href="#DejaVuSans-53"/>
     <use xlink:href="#DejaVuSans-69" x="63.476562"/>
     <use xlink:href="#DejaVuSans-67" x="91.259766"/>
     <use xlink:href="#DejaVuSans-6e" x="154.736328"/>
     <use xlink:href="#DejaVuSans-61" x="218.115234"/>
     <use xlink:href="#DejaVuSans-6c" x="279.394531"/>
     <use xlink:href="#DejaVuSans-20" x="307.177734"/>
     <use xlink:href="#DejaVuSans-52" x="338.964844"/>
     <use xlink:href="#DejaVuSans-65" x="403.947266"/>
     <use xlink:href="#DejaVuSans-6d" x="465.470703"/>
     <use xlink:href="#DejaVuSans-6f" x="562.882812"/>
     <use xlink:href="#DejaVuSans-76" x="624.064453"/>
     <use xlink:href="#DejaVuSans-65" x="683.244141"/>
     <use xlink:href="#DejaVuSans-64" x="744.767578"/>
    </g>
   </g>
  </g>
  <g id="text_17">
   <!-- GTEx Multiclass Tissue Prediction -->
   <g transform="translate(110.235938 17.229938)scale(0.132 -0.132)">
    <defs>
     <path id="DejaVuSans-47" d="M 3809 666 
L 3809 1919 
L 2778 1919 
L 2778 2438 
L 4434 2438 
L 4434 434 
Q 4069 175 3628 42 
Q 3188 -91 2688 -91 
Q 1594 -91 976 548 
Q 359 1188 359 2328 
Q 359 3472 976 4111 
Q 1594 4750 2688 4750 
Q 3144 4750 3555 4637 
Q 3966 4525 4313 4306 
L 4313 3634 
Q 3963 3931 3569 4081 
Q 3175 4231 2741 4231 
Q 1884 4231 1454 3753 
Q 1025 3275 1025 2328 
Q 1025 1384 1454 906 
Q 1884 428 2741 428 
Q 3075 428 3337 486 
Q 3600 544 3809 666 
z
" transform="scale(0.015625)"/>
     <path id="DejaVuSans-45" d="M 628 4666 
L 3578 4666 
L 3578 4134 
L 1259 4134 
L 1259 2753 
L 3481 2753 
L 3481 2222 
L 1259 2222 
L 1259 531 
L 3634 531 
L 3634 0 
L 628 0 
L 628 4666 
z
" transform="scale(0.015625)"/>
     <path id="DejaVuSans-78" d="M 3513 3500 
L 2247 1797 
L 3578 0 
L 2900 0 
L 1881 1375 
L 863 0 
L 184 0 
L 1544 1831 
L 300 3500 
L 978 3500 
L 1906 2253 
L 2834 3500 
L 3513 3500 
z
" transform="scale(0.015625)"/>
     <path id="DejaVuSans-50" d="M 1259 4147 
L 1259 2394 
L 2053 2394 
Q 2494 2394 2734 2622 
Q 2975 2850 2975 3272 
Q 2975 3691 2734 3919 
Q 2494 4147 2053 4147 
L 1259 4147 
z
M 628 4666 
L 2053 4666 
Q 2838 4666 3239 4311 
Q 3641 3956 3641 3272 
Q 3641 2581 3239 2228 
Q 2838 1875 2053 1875 
L 1259 1875 
L 1259 0 
L 628 0 
L 628 4666 
z
" transform="scale(0.015625)"/>
    </defs>
    <use xlink:href="#DejaVuSans-47"/>
    <use xlink:href="#DejaVuSans-54" x="73.865234"/>
    <use xlink:href="#DejaVuSans-45" x="134.949219"/>
    <use xlink:href="#DejaVuSans-78" x="198.132812"/>
    <use xlink:href="#DejaVuSans-20" x="257.3125"/>
    <use xlink:href="#DejaVuSans-4d" x="289.099609"/>
    <use xlink:href="#DejaVuSans-75" x="375.378906"/>
    <use xlink:href="#DejaVuSans-6c" x="438.757812"/>
    <use xlink:href="#DejaVuSans-74" x="466.541016"/>
    <use xlink:href="#DejaVuSans-69" x="505.75"/>
    <use xlink:href="#DejaVuSans-63" x="533.533203"/>
    <use xlink:href="#DejaVuSans-6c" x="588.513672"/>
    <use xlink:href="#DejaVuSans-61" x="616.296875"/>
    <use xlink:href="#DejaVuSans-73" x="677.576172"/>
    <use xlink:href="#DejaVuSans-73" x="729.675781"/>
    <use xlink:href="#DejaVuSans-20" x="781.775391"/>
    <use xlink:href="#DejaVuSans-54" x="813.5625"/>
    <use xlink:href="#DejaVuSans-69" x="871.521484"/>
    <use xlink:href="#DejaVuSans-73" x="899.304688"/>
    <use xlink:href="#DejaVuSans-73" x="951.404297"/>
    <use xlink:href="#DejaVuSans-75" x="1003.503906"/>
    <use xlink:href="#DejaVuSans-65" x="1066.882812"/>
    <use xlink:href="#DejaVuSans-20" x="1128.40625"/>
    <use xlink:href="#DejaVuSans-50" x="1160.193359"/>
    <use xlink:href="#DejaVuSans-72" x="1218.746094"/>
    <use xlink:href="#DejaVuSans-65" x="1257.609375"/>
    <use xlink:href="#DejaVuSans-64" x="1319.132812"/>
    <use xlink:href="#DejaVuSans-69" x="1382.609375"/>
    <use xlink:href="#DejaVuSans-63" x="1410.392578"/>
    <use xlink:href="#DejaVuSans-74" x="1465.373047"/>
    <use xlink:href="#DejaVuSans-69" x="1504.582031"/>
    <use xlink:href="#DejaVuSans-6f" x="1532.365234"/>
    <use xlink:href="#DejaVuSans-6e" x="1593.546875"/>
   </g>
  </g>
 </g>
 <defs>
  <clipPath id="p29a8b2c91b">
   <rect x="46.789688" y="26.105371" width="357.12" height="266.112"/>
  </clipPath>
  <clipPath id="p0bab3c064b">
   <path d="M 423.309687 116.753371 
L 423.309687 100.913371 
L 439.149687 100.913371 
L 439.149687 116.753371 
"/>
  </clipPath>
  <clipPath id="pc1fee1a782">
   <path d="M 423.309687 134.593371 
L 423.309687 118.753371 
L 439.149687 118.753371 
L 439.149687 134.593371 
"/>
  </clipPath>
  <clipPath id="p1bc0431d25">
   <path d="M 423.309687 152.433371 
L 423.309687 136.593371 
L 439.149687 136.593371 
L 439.149687 152.433371 
"/>
  </clipPath>
  <clipPath id="pa3d1c04336">
   <path d="M 423.309687 170.273371 
L 423.309687 154.433371 
L 439.149687 154.433371 
L 439.149687 170.273371 
"/>
  </clipPath>
  <clipPath id="p6535471464">
   <path d="M 423.309687 211.159308 
L 423.309687 195.319308 
L 439.149687 195.319308 
L 439.149687 211.159308 
"/>
  </clipPath>
  <clipPath id="p8287483007">
   <path d="M 423.309687 228.999308 
L 423.309687 213.159308 
L 439.149687 213.159308 
L 439.149687 228.999308 
"/>
  </clipPath>
 </defs>
</svg>
