<?xml version="1.0" encoding="utf-8" standalone="no"?>
<!DOCTYPE svg PUBLIC "-//W3C//DTD SVG 1.1//EN"
  "http://www.w3.org/Graphics/SVG/1.1/DTD/svg11.dtd">
<svg xmlns:xlink="http://www.w3.org/1999/xlink" width="553.623812pt" height="327.930058pt" viewBox="0 0 553.623812 327.930058" xmlns="http://www.w3.org/2000/svg" version="1.1">
 <metadata>
  <rdf:RDF xmlns:dc="http://purl.org/dc/elements/1.1/" xmlns:cc="http://creativecommons.org/ns#" xmlns:rdf="http://www.w3.org/1999/02/22-rdf-syntax-ns#">
   <cc:Work>
    <dc:type rdf:resource="http://purl.org/dc/dcmitype/StillImage"/>
    <dc:date>2023-01-30T07:37:05.908343</dc:date>
    <dc:format>image/svg+xml</dc:format>
    <dc:creator>
     <cc:Agent>
      <dc:title>Matplotlib v3.5.1, https://matplotlib.org/</dc:title>
     </cc:Agent>
    </dc:creator>
   </cc:Work>
  </rdf:RDF>
 </metadata>
 <defs>
  <style type="text/css">*{stroke-linejoin: round; stroke-linecap: butt}</style>
 </defs>
 <g id="figure_1">
  <g id="patch_1">
   <path d="M 0 327.930058 
L 553.623812 327.930058 
L 553.623812 0 
L 0 0 
z
" style="fill: #ffffff; stroke: #ffffff; stroke-linejoin: miter"/>
  </g>
  <g id="axes_1">
   <g id="patch_2">
    <path d="M 46.789688 292.217371 
L 403.909688 292.217371 
L 403.909688 26.105371 
L 46.789688 26.105371 
z
" style="fill: #ebebeb"/>
   </g>
   <g id="matplotlib.axis_1">
    <g id="xtick_1">
     <g id="line2d_1">
      <path d="M 155.612776 292.217371 
L 155.612776 26.105371 
" clip-path="url(#p0963bede79)" style="fill: none; stroke: #ffffff"/>
     </g>
     <g id="line2d_2">
      <path d="M 155.612776 292.217371 
" style="fill: none; stroke: #333333; stroke-width: 1.5"/>
      <defs>
       <path id="m01befe26ec" d="M 0 0 
L 0 2.75 
" style="stroke: #000000"/>
      </defs>
      <g>
       <use xlink:href="#m01befe26ec" x="155.612776" y="292.217371" style="fill: #333333; stroke: #000000"/>
      </g>
     </g>
     <g id="text_1">
      <!-- 5000 -->
      <g style="fill: #4d4d4d" transform="translate(144.414776 303.853996)scale(0.088 -0.088)">
       <defs>
        <path id="DejaVuSans-35" d="M 691 4666 
L 3169 4666 
L 3169 4134 
L 1269 4134 
L 1269 2991 
Q 1406 3038 1543 3061 
Q 1681 3084 1819 3084 
Q 2600 3084 3056 2656 
Q 3513 2228 3513 1497 
Q 3513 744 3044 326 
Q 2575 -91 1722 -91 
Q 1428 -91 1123 -41 
Q 819 9 494 109 
L 494 744 
Q 775 591 1075 516 
Q 1375 441 1709 441 
Q 2250 441 2565 725 
Q 2881 1009 2881 1497 
Q 2881 1984 2565 2268 
Q 2250 2553 1709 2553 
Q 1456 2553 1204 2497 
Q 953 2441 691 2322 
L 691 4666 
z
" transform="scale(0.015625)"/>
        <path id="DejaVuSans-30" d="M 2034 4250 
Q 1547 4250 1301 3770 
Q 1056 3291 1056 2328 
Q 1056 1369 1301 889 
Q 1547 409 2034 409 
Q 2525 409 2770 889 
Q 3016 1369 3016 2328 
Q 3016 3291 2770 3770 
Q 2525 4250 2034 4250 
z
M 2034 4750 
Q 2819 4750 3233 4129 
Q 3647 3509 3647 2328 
Q 3647 1150 3233 529 
Q 2819 -91 2034 -91 
Q 1250 -91 836 529 
Q 422 1150 422 2328 
Q 422 3509 836 4129 
Q 1250 4750 2034 4750 
z
" transform="scale(0.015625)"/>
       </defs>
       <use xlink:href="#DejaVuSans-35"/>
       <use xlink:href="#DejaVuSans-30" x="63.623047"/>
       <use xlink:href="#DejaVuSans-30" x="127.246094"/>
       <use xlink:href="#DejaVuSans-30" x="190.869141"/>
      </g>
     </g>
    </g>
    <g id="xtick_2">
     <g id="line2d_3">
      <path d="M 283.500015 292.217371 
L 283.500015 26.105371 
" clip-path="url(#p0963bede79)" style="fill: none; stroke: #ffffff"/>
     </g>
     <g id="line2d_4">
      <path d="M 283.500015 292.217371 
" style="fill: none; stroke: #333333; stroke-width: 1.5"/>
      <g>
       <use xlink:href="#m01befe26ec" x="283.500015" y="292.217371" style="fill: #333333; stroke: #000000"/>
      </g>
     </g>
     <g id="text_2">
      <!-- 10000 -->
      <g style="fill: #4d4d4d" transform="translate(269.502515 303.853996)scale(0.088 -0.088)">
       <defs>
        <path id="DejaVuSans-31" d="M 794 531 
L 1825 531 
L 1825 4091 
L 703 3866 
L 703 4441 
L 1819 4666 
L 2450 4666 
L 2450 531 
L 3481 531 
L 3481 0 
L 794 0 
L 794 531 
z
" transform="scale(0.015625)"/>
       </defs>
       <use xlink:href="#DejaVuSans-31"/>
       <use xlink:href="#DejaVuSans-30" x="63.623047"/>
       <use xlink:href="#DejaVuSans-30" x="127.246094"/>
       <use xlink:href="#DejaVuSans-30" x="190.869141"/>
       <use xlink:href="#DejaVuSans-30" x="254.492188"/>
      </g>
     </g>
    </g>
    <g id="xtick_3">
     <g id="line2d_5">
      <path d="M 91.669156 292.217371 
L 91.669156 26.105371 
" clip-path="url(#p0963bede79)" style="fill: none; stroke: #ffffff; stroke-width: 0.5"/>
     </g>
    </g>
    <g id="xtick_4">
     <g id="line2d_6">
      <path d="M 219.556396 292.217371 
L 219.556396 26.105371 
" clip-path="url(#p0963bede79)" style="fill: none; stroke: #ffffff; stroke-width: 0.5"/>
     </g>
    </g>
    <g id="xtick_5">
     <g id="line2d_7">
      <path d="M 347.443635 292.217371 
L 347.443635 26.105371 
" clip-path="url(#p0963bede79)" style="fill: none; stroke: #ffffff; stroke-width: 0.5"/>
     </g>
    </g>
    <g id="text_3">
     <!-- Train Sample Count -->
     <g transform="translate(165.944063 318.442402)scale(0.11 -0.11)">
      <defs>
       <path id="DejaVuSans-54" d="M -19 4666 
L 3928 4666 
L 3928 4134 
L 2272 4134 
L 2272 0 
L 1638 0 
L 1638 4134 
L -19 4134 
L -19 4666 
z
" transform="scale(0.015625)"/>
       <path id="DejaVuSans-72" d="M 2631 2963 
Q 2534 3019 2420 3045 
Q 2306 3072 2169 3072 
Q 1681 3072 1420 2755 
Q 1159 2438 1159 1844 
L 1159 0 
L 581 0 
L 581 3500 
L 1159 3500 
L 1159 2956 
Q 1341 3275 1631 3429 
Q 1922 3584 2338 3584 
Q 2397 3584 2469 3576 
Q 2541 3569 2628 3553 
L 2631 2963 
z
" transform="scale(0.015625)"/>
       <path id="DejaVuSans-61" d="M 2194 1759 
Q 1497 1759 1228 1600 
Q 959 1441 959 1056 
Q 959 750 1161 570 
Q 1363 391 1709 391 
Q 2188 391 2477 730 
Q 2766 1069 2766 1631 
L 2766 1759 
L 2194 1759 
z
M 3341 1997 
L 3341 0 
L 2766 0 
L 2766 531 
Q 2569 213 2275 61 
Q 1981 -91 1556 -91 
Q 1019 -91 701 211 
Q 384 513 384 1019 
Q 384 1609 779 1909 
Q 1175 2209 1959 2209 
L 2766 2209 
L 2766 2266 
Q 2766 2663 2505 2880 
Q 2244 3097 1772 3097 
Q 1472 3097 1187 3025 
Q 903 2953 641 2809 
L 641 3341 
Q 956 3463 1253 3523 
Q 1550 3584 1831 3584 
Q 2591 3584 2966 3190 
Q 3341 2797 3341 1997 
z
" transform="scale(0.015625)"/>
       <path id="DejaVuSans-69" d="M 603 3500 
L 1178 3500 
L 1178 0 
L 603 0 
L 603 3500 
z
M 603 4863 
L 1178 4863 
L 1178 4134 
L 603 4134 
L 603 4863 
z
" transform="scale(0.015625)"/>
       <path id="DejaVuSans-6e" d="M 3513 2113 
L 3513 0 
L 2938 0 
L 2938 2094 
Q 2938 2591 2744 2837 
Q 2550 3084 2163 3084 
Q 1697 3084 1428 2787 
Q 1159 2491 1159 1978 
L 1159 0 
L 581 0 
L 581 3500 
L 1159 3500 
L 1159 2956 
Q 1366 3272 1645 3428 
Q 1925 3584 2291 3584 
Q 2894 3584 3203 3211 
Q 3513 2838 3513 2113 
z
" transform="scale(0.015625)"/>
       <path id="DejaVuSans-20" transform="scale(0.015625)"/>
       <path id="DejaVuSans-53" d="M 3425 4513 
L 3425 3897 
Q 3066 4069 2747 4153 
Q 2428 4238 2131 4238 
Q 1616 4238 1336 4038 
Q 1056 3838 1056 3469 
Q 1056 3159 1242 3001 
Q 1428 2844 1947 2747 
L 2328 2669 
Q 3034 2534 3370 2195 
Q 3706 1856 3706 1288 
Q 3706 609 3251 259 
Q 2797 -91 1919 -91 
Q 1588 -91 1214 -16 
Q 841 59 441 206 
L 441 856 
Q 825 641 1194 531 
Q 1563 422 1919 422 
Q 2459 422 2753 634 
Q 3047 847 3047 1241 
Q 3047 1584 2836 1778 
Q 2625 1972 2144 2069 
L 1759 2144 
Q 1053 2284 737 2584 
Q 422 2884 422 3419 
Q 422 4038 858 4394 
Q 1294 4750 2059 4750 
Q 2388 4750 2728 4690 
Q 3069 4631 3425 4513 
z
" transform="scale(0.015625)"/>
       <path id="DejaVuSans-6d" d="M 3328 2828 
Q 3544 3216 3844 3400 
Q 4144 3584 4550 3584 
Q 5097 3584 5394 3201 
Q 5691 2819 5691 2113 
L 5691 0 
L 5113 0 
L 5113 2094 
Q 5113 2597 4934 2840 
Q 4756 3084 4391 3084 
Q 3944 3084 3684 2787 
Q 3425 2491 3425 1978 
L 3425 0 
L 2847 0 
L 2847 2094 
Q 2847 2600 2669 2842 
Q 2491 3084 2119 3084 
Q 1678 3084 1418 2786 
Q 1159 2488 1159 1978 
L 1159 0 
L 581 0 
L 581 3500 
L 1159 3500 
L 1159 2956 
Q 1356 3278 1631 3431 
Q 1906 3584 2284 3584 
Q 2666 3584 2933 3390 
Q 3200 3197 3328 2828 
z
" transform="scale(0.015625)"/>
       <path id="DejaVuSans-70" d="M 1159 525 
L 1159 -1331 
L 581 -1331 
L 581 3500 
L 1159 3500 
L 1159 2969 
Q 1341 3281 1617 3432 
Q 1894 3584 2278 3584 
Q 2916 3584 3314 3078 
Q 3713 2572 3713 1747 
Q 3713 922 3314 415 
Q 2916 -91 2278 -91 
Q 1894 -91 1617 61 
Q 1341 213 1159 525 
z
M 3116 1747 
Q 3116 2381 2855 2742 
Q 2594 3103 2138 3103 
Q 1681 3103 1420 2742 
Q 1159 2381 1159 1747 
Q 1159 1113 1420 752 
Q 1681 391 2138 391 
Q 2594 391 2855 752 
Q 3116 1113 3116 1747 
z
" transform="scale(0.015625)"/>
       <path id="DejaVuSans-6c" d="M 603 4863 
L 1178 4863 
L 1178 0 
L 603 0 
L 603 4863 
z
" transform="scale(0.015625)"/>
       <path id="DejaVuSans-65" d="M 3597 1894 
L 3597 1613 
L 953 1613 
Q 991 1019 1311 708 
Q 1631 397 2203 397 
Q 2534 397 2845 478 
Q 3156 559 3463 722 
L 3463 178 
Q 3153 47 2828 -22 
Q 2503 -91 2169 -91 
Q 1331 -91 842 396 
Q 353 884 353 1716 
Q 353 2575 817 3079 
Q 1281 3584 2069 3584 
Q 2775 3584 3186 3129 
Q 3597 2675 3597 1894 
z
M 3022 2063 
Q 3016 2534 2758 2815 
Q 2500 3097 2075 3097 
Q 1594 3097 1305 2825 
Q 1016 2553 972 2059 
L 3022 2063 
z
" transform="scale(0.015625)"/>
       <path id="DejaVuSans-43" d="M 4122 4306 
L 4122 3641 
Q 3803 3938 3442 4084 
Q 3081 4231 2675 4231 
Q 1875 4231 1450 3742 
Q 1025 3253 1025 2328 
Q 1025 1406 1450 917 
Q 1875 428 2675 428 
Q 3081 428 3442 575 
Q 3803 722 4122 1019 
L 4122 359 
Q 3791 134 3420 21 
Q 3050 -91 2638 -91 
Q 1578 -91 968 557 
Q 359 1206 359 2328 
Q 359 3453 968 4101 
Q 1578 4750 2638 4750 
Q 3056 4750 3426 4639 
Q 3797 4528 4122 4306 
z
" transform="scale(0.015625)"/>
       <path id="DejaVuSans-6f" d="M 1959 3097 
Q 1497 3097 1228 2736 
Q 959 2375 959 1747 
Q 959 1119 1226 758 
Q 1494 397 1959 397 
Q 2419 397 2687 759 
Q 2956 1122 2956 1747 
Q 2956 2369 2687 2733 
Q 2419 3097 1959 3097 
z
M 1959 3584 
Q 2709 3584 3137 3096 
Q 3566 2609 3566 1747 
Q 3566 888 3137 398 
Q 2709 -91 1959 -91 
Q 1206 -91 779 398 
Q 353 888 353 1747 
Q 353 2609 779 3096 
Q 1206 3584 1959 3584 
z
" transform="scale(0.015625)"/>
       <path id="DejaVuSans-75" d="M 544 1381 
L 544 3500 
L 1119 3500 
L 1119 1403 
Q 1119 906 1312 657 
Q 1506 409 1894 409 
Q 2359 409 2629 706 
Q 2900 1003 2900 1516 
L 2900 3500 
L 3475 3500 
L 3475 0 
L 2900 0 
L 2900 538 
Q 2691 219 2414 64 
Q 2138 -91 1772 -91 
Q 1169 -91 856 284 
Q 544 659 544 1381 
z
M 1991 3584 
L 1991 3584 
z
" transform="scale(0.015625)"/>
       <path id="DejaVuSans-74" d="M 1172 4494 
L 1172 3500 
L 2356 3500 
L 2356 3053 
L 1172 3053 
L 1172 1153 
Q 1172 725 1289 603 
Q 1406 481 1766 481 
L 2356 481 
L 2356 0 
L 1766 0 
Q 1100 0 847 248 
Q 594 497 594 1153 
L 594 3053 
L 172 3053 
L 172 3500 
L 594 3500 
L 594 4494 
L 1172 4494 
z
" transform="scale(0.015625)"/>
      </defs>
      <use xlink:href="#DejaVuSans-54"/>
      <use xlink:href="#DejaVuSans-72" x="46.333984"/>
      <use xlink:href="#DejaVuSans-61" x="87.447266"/>
      <use xlink:href="#DejaVuSans-69" x="148.726562"/>
      <use xlink:href="#DejaVuSans-6e" x="176.509766"/>
      <use xlink:href="#DejaVuSans-20" x="239.888672"/>
      <use xlink:href="#DejaVuSans-53" x="271.675781"/>
      <use xlink:href="#DejaVuSans-61" x="335.152344"/>
      <use xlink:href="#DejaVuSans-6d" x="396.431641"/>
      <use xlink:href="#DejaVuSans-70" x="493.84375"/>
      <use xlink:href="#DejaVuSans-6c" x="557.320312"/>
      <use xlink:href="#DejaVuSans-65" x="585.103516"/>
      <use xlink:href="#DejaVuSans-20" x="646.626953"/>
      <use xlink:href="#DejaVuSans-43" x="678.414062"/>
      <use xlink:href="#DejaVuSans-6f" x="748.238281"/>
      <use xlink:href="#DejaVuSans-75" x="809.419922"/>
      <use xlink:href="#DejaVuSans-6e" x="872.798828"/>
      <use xlink:href="#DejaVuSans-74" x="936.177734"/>
     </g>
    </g>
   </g>
   <g id="matplotlib.axis_2">
    <g id="ytick_1">
     <g id="line2d_8">
      <path d="M 46.789688 280.530911 
L 403.909688 280.530911 
" clip-path="url(#p0963bede79)" style="fill: none; stroke: #ffffff"/>
     </g>
     <g id="line2d_9">
      <path d="M 46.789688 280.530911 
" style="fill: none; stroke: #333333; stroke-width: 1.5"/>
      <defs>
       <path id="m0a18630260" d="M 0 0 
L -2.75 0 
" style="stroke: #000000"/>
      </defs>
      <g>
       <use xlink:href="#m0a18630260" x="46.789688" y="280.530911" style="fill: #333333; stroke: #000000"/>
      </g>
     </g>
     <g id="text_4">
      <!-- 0 -->
      <g style="fill: #4d4d4d" transform="translate(36.240688 282.959161)scale(0.088 -0.088)">
       <use xlink:href="#DejaVuSans-30"/>
      </g>
     </g>
    </g>
    <g id="ytick_2">
     <g id="line2d_10">
      <path d="M 46.789688 215.215785 
L 403.909688 215.215785 
" clip-path="url(#p0963bede79)" style="fill: none; stroke: #ffffff"/>
     </g>
     <g id="line2d_11">
      <path d="M 46.789688 215.215785 
" style="fill: none; stroke: #333333; stroke-width: 1.5"/>
      <g>
       <use xlink:href="#m0a18630260" x="46.789688" y="215.215785" style="fill: #333333; stroke: #000000"/>
      </g>
     </g>
     <g id="text_5">
      <!-- 0.25 -->
      <g style="fill: #4d4d4d" transform="translate(22.245938 217.644035)scale(0.088 -0.088)">
       <defs>
        <path id="DejaVuSans-2e" d="M 684 794 
L 1344 794 
L 1344 0 
L 684 0 
L 684 794 
z
" transform="scale(0.015625)"/>
        <path id="DejaVuSans-32" d="M 1228 531 
L 3431 531 
L 3431 0 
L 469 0 
L 469 531 
Q 828 903 1448 1529 
Q 2069 2156 2228 2338 
Q 2531 2678 2651 2914 
Q 2772 3150 2772 3378 
Q 2772 3750 2511 3984 
Q 2250 4219 1831 4219 
Q 1534 4219 1204 4116 
Q 875 4013 500 3803 
L 500 4441 
Q 881 4594 1212 4672 
Q 1544 4750 1819 4750 
Q 2544 4750 2975 4387 
Q 3406 4025 3406 3419 
Q 3406 3131 3298 2873 
Q 3191 2616 2906 2266 
Q 2828 2175 2409 1742 
Q 1991 1309 1228 531 
z
" transform="scale(0.015625)"/>
       </defs>
       <use xlink:href="#DejaVuSans-30"/>
       <use xlink:href="#DejaVuSans-2e" x="63.623047"/>
       <use xlink:href="#DejaVuSans-32" x="95.410156"/>
       <use xlink:href="#DejaVuSans-35" x="159.033203"/>
      </g>
     </g>
    </g>
    <g id="ytick_3">
     <g id="line2d_12">
      <path d="M 46.789688 149.900659 
L 403.909688 149.900659 
" clip-path="url(#p0963bede79)" style="fill: none; stroke: #ffffff"/>
     </g>
     <g id="line2d_13">
      <path d="M 46.789688 149.900659 
" style="fill: none; stroke: #333333; stroke-width: 1.5"/>
      <g>
       <use xlink:href="#m0a18630260" x="46.789688" y="149.900659" style="fill: #333333; stroke: #000000"/>
      </g>
     </g>
     <g id="text_6">
      <!-- 0.50 -->
      <g style="fill: #4d4d4d" transform="translate(22.245938 152.328909)scale(0.088 -0.088)">
       <use xlink:href="#DejaVuSans-30"/>
       <use xlink:href="#DejaVuSans-2e" x="63.623047"/>
       <use xlink:href="#DejaVuSans-35" x="95.410156"/>
       <use xlink:href="#DejaVuSans-30" x="159.033203"/>
      </g>
     </g>
    </g>
    <g id="ytick_4">
     <g id="line2d_14">
      <path d="M 46.789688 84.585533 
L 403.909688 84.585533 
" clip-path="url(#p0963bede79)" style="fill: none; stroke: #ffffff"/>
     </g>
     <g id="line2d_15">
      <path d="M 46.789688 84.585533 
" style="fill: none; stroke: #333333; stroke-width: 1.5"/>
      <g>
       <use xlink:href="#m0a18630260" x="46.789688" y="84.585533" style="fill: #333333; stroke: #000000"/>
      </g>
     </g>
     <g id="text_7">
      <!-- 0.75 -->
      <g style="fill: #4d4d4d" transform="translate(22.245938 87.013783)scale(0.088 -0.088)">
       <defs>
        <path id="DejaVuSans-37" d="M 525 4666 
L 3525 4666 
L 3525 4397 
L 1831 0 
L 1172 0 
L 2766 4134 
L 525 4134 
L 525 4666 
z
" transform="scale(0.015625)"/>
       </defs>
       <use xlink:href="#DejaVuSans-30"/>
       <use xlink:href="#DejaVuSans-2e" x="63.623047"/>
       <use xlink:href="#DejaVuSans-37" x="95.410156"/>
       <use xlink:href="#DejaVuSans-35" x="159.033203"/>
      </g>
     </g>
    </g>
    <g id="ytick_5">
     <g id="line2d_16">
      <path d="M 46.789688 247.873348 
L 403.909688 247.873348 
" clip-path="url(#p0963bede79)" style="fill: none; stroke: #ffffff; stroke-width: 0.5"/>
     </g>
    </g>
    <g id="ytick_6">
     <g id="line2d_17">
      <path d="M 46.789688 182.558222 
L 403.909688 182.558222 
" clip-path="url(#p0963bede79)" style="fill: none; stroke: #ffffff; stroke-width: 0.5"/>
     </g>
    </g>
    <g id="ytick_7">
     <g id="line2d_18">
      <path d="M 46.789688 117.243096 
L 403.909688 117.243096 
" clip-path="url(#p0963bede79)" style="fill: none; stroke: #ffffff; stroke-width: 0.5"/>
     </g>
    </g>
    <g id="ytick_8">
     <g id="line2d_19">
      <path d="M 46.789688 51.92797 
L 403.909688 51.92797 
" clip-path="url(#p0963bede79)" style="fill: none; stroke: #ffffff; stroke-width: 0.5"/>
     </g>
    </g>
    <g id="text_8">
     <!-- Balanced Accuracy (Val Set) -->
     <g transform="translate(15.558281 234.774543)rotate(-90)scale(0.11 -0.11)">
      <defs>
       <path id="DejaVuSans-42" d="M 1259 2228 
L 1259 519 
L 2272 519 
Q 2781 519 3026 730 
Q 3272 941 3272 1375 
Q 3272 1813 3026 2020 
Q 2781 2228 2272 2228 
L 1259 2228 
z
M 1259 4147 
L 1259 2741 
L 2194 2741 
Q 2656 2741 2882 2914 
Q 3109 3088 3109 3444 
Q 3109 3797 2882 3972 
Q 2656 4147 2194 4147 
L 1259 4147 
z
M 628 4666 
L 2241 4666 
Q 2963 4666 3353 4366 
Q 3744 4066 3744 3513 
Q 3744 3084 3544 2831 
Q 3344 2578 2956 2516 
Q 3422 2416 3680 2098 
Q 3938 1781 3938 1306 
Q 3938 681 3513 340 
Q 3088 0 2303 0 
L 628 0 
L 628 4666 
z
" transform="scale(0.015625)"/>
       <path id="DejaVuSans-63" d="M 3122 3366 
L 3122 2828 
Q 2878 2963 2633 3030 
Q 2388 3097 2138 3097 
Q 1578 3097 1268 2742 
Q 959 2388 959 1747 
Q 959 1106 1268 751 
Q 1578 397 2138 397 
Q 2388 397 2633 464 
Q 2878 531 3122 666 
L 3122 134 
Q 2881 22 2623 -34 
Q 2366 -91 2075 -91 
Q 1284 -91 818 406 
Q 353 903 353 1747 
Q 353 2603 823 3093 
Q 1294 3584 2113 3584 
Q 2378 3584 2631 3529 
Q 2884 3475 3122 3366 
z
" transform="scale(0.015625)"/>
       <path id="DejaVuSans-64" d="M 2906 2969 
L 2906 4863 
L 3481 4863 
L 3481 0 
L 2906 0 
L 2906 525 
Q 2725 213 2448 61 
Q 2172 -91 1784 -91 
Q 1150 -91 751 415 
Q 353 922 353 1747 
Q 353 2572 751 3078 
Q 1150 3584 1784 3584 
Q 2172 3584 2448 3432 
Q 2725 3281 2906 2969 
z
M 947 1747 
Q 947 1113 1208 752 
Q 1469 391 1925 391 
Q 2381 391 2643 752 
Q 2906 1113 2906 1747 
Q 2906 2381 2643 2742 
Q 2381 3103 1925 3103 
Q 1469 3103 1208 2742 
Q 947 2381 947 1747 
z
" transform="scale(0.015625)"/>
       <path id="DejaVuSans-41" d="M 2188 4044 
L 1331 1722 
L 3047 1722 
L 2188 4044 
z
M 1831 4666 
L 2547 4666 
L 4325 0 
L 3669 0 
L 3244 1197 
L 1141 1197 
L 716 0 
L 50 0 
L 1831 4666 
z
" transform="scale(0.015625)"/>
       <path id="DejaVuSans-79" d="M 2059 -325 
Q 1816 -950 1584 -1140 
Q 1353 -1331 966 -1331 
L 506 -1331 
L 506 -850 
L 844 -850 
Q 1081 -850 1212 -737 
Q 1344 -625 1503 -206 
L 1606 56 
L 191 3500 
L 800 3500 
L 1894 763 
L 2988 3500 
L 3597 3500 
L 2059 -325 
z
" transform="scale(0.015625)"/>
       <path id="DejaVuSans-28" d="M 1984 4856 
Q 1566 4138 1362 3434 
Q 1159 2731 1159 2009 
Q 1159 1288 1364 580 
Q 1569 -128 1984 -844 
L 1484 -844 
Q 1016 -109 783 600 
Q 550 1309 550 2009 
Q 550 2706 781 3412 
Q 1013 4119 1484 4856 
L 1984 4856 
z
" transform="scale(0.015625)"/>
       <path id="DejaVuSans-56" d="M 1831 0 
L 50 4666 
L 709 4666 
L 2188 738 
L 3669 4666 
L 4325 4666 
L 2547 0 
L 1831 0 
z
" transform="scale(0.015625)"/>
       <path id="DejaVuSans-29" d="M 513 4856 
L 1013 4856 
Q 1481 4119 1714 3412 
Q 1947 2706 1947 2009 
Q 1947 1309 1714 600 
Q 1481 -109 1013 -844 
L 513 -844 
Q 928 -128 1133 580 
Q 1338 1288 1338 2009 
Q 1338 2731 1133 3434 
Q 928 4138 513 4856 
z
" transform="scale(0.015625)"/>
      </defs>
      <use xlink:href="#DejaVuSans-42"/>
      <use xlink:href="#DejaVuSans-61" x="68.603516"/>
      <use xlink:href="#DejaVuSans-6c" x="129.882812"/>
      <use xlink:href="#DejaVuSans-61" x="157.666016"/>
      <use xlink:href="#DejaVuSans-6e" x="218.945312"/>
      <use xlink:href="#DejaVuSans-63" x="282.324219"/>
      <use xlink:href="#DejaVuSans-65" x="337.304688"/>
      <use xlink:href="#DejaVuSans-64" x="398.828125"/>
      <use xlink:href="#DejaVuSans-20" x="462.304688"/>
      <use xlink:href="#DejaVuSans-41" x="494.091797"/>
      <use xlink:href="#DejaVuSans-63" x="560.75"/>
      <use xlink:href="#DejaVuSans-63" x="615.730469"/>
      <use xlink:href="#DejaVuSans-75" x="670.710938"/>
      <use xlink:href="#DejaVuSans-72" x="734.089844"/>
      <use xlink:href="#DejaVuSans-61" x="775.203125"/>
      <use xlink:href="#DejaVuSans-63" x="836.482422"/>
      <use xlink:href="#DejaVuSans-79" x="891.462891"/>
      <use xlink:href="#DejaVuSans-20" x="950.642578"/>
      <use xlink:href="#DejaVuSans-28" x="982.429688"/>
      <use xlink:href="#DejaVuSans-56" x="1021.443359"/>
      <use xlink:href="#DejaVuSans-61" x="1082.101562"/>
      <use xlink:href="#DejaVuSans-6c" x="1143.380859"/>
      <use xlink:href="#DejaVuSans-20" x="1171.164062"/>
      <use xlink:href="#DejaVuSans-53" x="1202.951172"/>
      <use xlink:href="#DejaVuSans-65" x="1266.427734"/>
      <use xlink:href="#DejaVuSans-74" x="1327.951172"/>
      <use xlink:href="#DejaVuSans-29" x="1367.160156"/>
     </g>
    </g>
   </g>
   <g id="PolyCollection_1">
    <path d="M 63.022415 215.919269 
L 63.022415 255.983146 
L 63.124725 255.789287 
L 63.150302 255.740851 
L 63.175879 255.692426 
L 63.201457 255.644013 
L 63.329344 255.402115 
L 63.354922 255.35377 
L 63.380499 255.305436 
L 63.431654 255.208802 
L 63.559541 254.967416 
L 63.713006 254.678128 
L 98.319293 200.405959 
L 98.54949 200.117659 
L 98.575067 200.08568 
L 98.600645 200.053713 
L 98.626222 200.021758 
L 98.677377 199.957885 
L 98.958729 199.60747 
L 98.984306 199.575688 
L 99.009884 199.543918 
L 99.061039 199.480416 
L 99.137771 199.385254 
L 99.419123 199.037269 
L 99.700475 198.690753 
L 133.641748 164.463797 
L 133.948678 164.19758 
L 133.999833 164.153248 
L 134.050987 164.108927 
L 134.076565 164.08677 
L 134.153297 164.020316 
L 134.588114 163.645596 
L 134.613691 163.623664 
L 134.664846 163.579837 
L 134.716001 163.536059 
L 134.843888 163.426826 
L 135.278705 163.057685 
L 135.687944 162.713398 
L 168.938626 140.697813 
L 169.373443 140.421091 
L 169.424598 140.388416 
L 169.450175 140.372068 
L 169.475753 140.355715 
L 169.552485 140.306614 
L 169.629217 140.257455 
L 170.191921 139.89511 
L 170.243076 139.862005 
L 170.294231 139.828871 
L 170.396541 139.76252 
L 170.550005 139.662958 
L 171.138287 139.282293 
L 171.700991 138.919697 
L 204.261082 122.035985 
L 204.772631 121.793352 
L 204.874941 121.744487 
L 204.926095 121.72001 
L 205.002828 121.68324 
L 205.105138 121.634109 
L 205.821306 121.286714 
L 205.872461 121.261658 
L 205.949193 121.224012 
L 206.077081 121.1611 
L 206.2817 121.059994 
L 206.997869 120.701628 
L 207.68846 120.349045 
L 239.55796 102.520684 
L 240.197396 102.199568 
L 240.299706 102.148514 
L 240.376438 102.110283 
L 240.45317 102.072103 
L 240.581058 102.008583 
L 241.450691 101.580438 
L 241.501846 101.55546 
L 241.604156 101.505575 
L 241.732043 101.443348 
L 241.987817 101.319333 
L 242.857451 100.902067 
L 243.675929 100.515595 
L 274.854838 89.568578 
L 275.596584 89.363428 
L 275.724471 89.328155 
L 275.750048 89.321106 
L 275.801203 89.307022 
L 275.929091 89.271897 
L 276.056978 89.236892 
L 277.054498 88.967973 
L 277.131231 88.947587 
L 277.23354 88.920471 
L 277.412583 88.873202 
L 277.693935 88.799387 
L 278.717032 88.535735 
L 279.688975 88.292103 
L 310.177293 82.652703 
L 311.021349 82.483778 
L 311.149236 82.457726 
L 311.174814 82.452501 
L 311.251546 82.436796 
L 311.379433 82.410521 
L 311.532898 82.378825 
L 312.683883 82.143747 
L 312.760615 82.128311 
L 312.888503 82.102648 
L 313.067545 82.066858 
L 313.400052 82.000812 
L 314.576614 81.7715 
L 315.676445 81.563299 
L 345.474171 78.256893 
L 346.420537 78.236118 
L 346.574002 78.233344 
L 346.599579 78.232898 
L 346.701889 78.23116 
L 346.829776 78.229092 
L 347.008818 78.226395 
L 348.313268 78.213757 
L 348.39 78.213402 
L 348.543465 78.212825 
L 348.748085 78.212328 
L 349.106169 78.212342 
L 350.436196 78.22325 
L 351.663914 78.248909 
L 380.796627 83.861531 
L 381.845302 84.244467 
L 382.024344 84.311033 
L 382.049922 84.32057 
L 382.152231 84.358791 
L 382.305696 84.416332 
L 382.510316 84.493447 
L 383.942653 85.045762 
L 384.019385 85.075965 
L 384.198427 85.146681 
L 384.428624 85.238098 
L 384.837864 85.401996 
L 386.295778 86.000126 
L 387.67696 86.58711 
L 387.67696 43.325639 
L 387.67696 43.325639 
L 386.295778 43.877602 
L 384.837864 44.448483 
L 384.428624 44.606514 
L 384.198427 44.694973 
L 384.019385 44.763558 
L 383.942653 44.792893 
L 382.510316 45.333994 
L 382.305696 45.410277 
L 382.152231 45.467321 
L 382.049922 45.505269 
L 382.024344 45.514746 
L 381.845302 45.580972 
L 380.796627 45.96485 
L 351.663914 53.477978 
L 350.436196 53.657501 
L 349.106169 53.841303 
L 348.748085 53.888961 
L 348.543465 53.91583 
L 348.39 53.935789 
L 348.313268 53.945708 
L 347.008818 54.108277 
L 346.829776 54.129729 
L 346.701889 54.144929 
L 346.599579 54.157016 
L 346.574002 54.160028 
L 346.420537 54.178014 
L 345.474171 54.285824 
L 315.676445 56.739175 
L 314.576614 56.853528 
L 313.400052 56.981633 
L 313.067545 57.018967 
L 312.888503 57.039282 
L 312.760615 57.053885 
L 312.683883 57.062683 
L 311.532898 57.198056 
L 311.379433 57.216525 
L 311.251546 57.231897 
L 311.174814 57.241113 
L 311.149236 57.244183 
L 311.021349 57.259527 
L 310.177293 57.360444 
L 279.688975 61.775616 
L 278.717032 62.001289 
L 277.693935 62.250898 
L 277.412583 62.32181 
L 277.23354 62.367461 
L 277.131231 62.393732 
L 277.054498 62.413524 
L 276.056978 62.677915 
L 275.929091 62.712785 
L 275.801203 62.74788 
L 275.750048 62.761982 
L 275.724471 62.769046 
L 275.596584 62.804521 
L 274.854838 63.015324 
L 243.675929 76.581119 
L 242.857451 76.978998 
L 241.987817 77.400521 
L 241.732043 77.524241 
L 241.604156 77.586056 
L 241.501846 77.635485 
L 241.450691 77.660192 
L 240.581058 78.079438 
L 240.45317 78.140966 
L 240.376438 78.177866 
L 240.299706 78.214755 
L 240.197396 78.263921 
L 239.55796 78.570722 
L 207.68846 93.671571 
L 206.997869 94.027637 
L 206.2817 94.398436 
L 206.077081 94.504645 
L 205.949193 94.571081 
L 205.872461 94.610963 
L 205.821306 94.63756 
L 205.105138 95.010565 
L 205.002828 95.063944 
L 204.926095 95.103993 
L 204.874941 95.130699 
L 204.772631 95.184127 
L 204.261082 95.451554 
L 171.700991 112.371815 
L 171.138287 112.724563 
L 170.550005 113.100451 
L 170.396541 113.19974 
L 170.294231 113.26608 
L 170.243076 113.299231 
L 170.191921 113.332371 
L 169.629217 113.696128 
L 169.552485 113.745624 
L 169.475753 113.795095 
L 169.450175 113.81158 
L 169.424598 113.828062 
L 169.373443 113.861018 
L 168.938626 114.140712 
L 135.687944 137.430932 
L 135.278705 137.80793 
L 134.843888 138.212973 
L 134.716001 138.332994 
L 134.664846 138.381116 
L 134.613691 138.429304 
L 134.588114 138.453422 
L 134.153297 138.865956 
L 134.076565 138.939189 
L 134.050987 138.963605 
L 133.999833 139.012444 
L 133.948678 139.061293 
L 133.641748 139.354593 
L 99.700475 174.564292 
L 99.419123 174.881047 
L 99.137771 175.198186 
L 99.061039 175.284745 
L 99.009884 175.342467 
L 98.984306 175.371333 
L 98.958729 175.400201 
L 98.677377 175.717965 
L 98.626222 175.775781 
L 98.600645 175.804694 
L 98.575067 175.833609 
L 98.54949 175.862527 
L 98.319293 176.122827 
L 63.713006 215.143479 
L 63.559541 215.315851 
L 63.431654 215.459505 
L 63.380499 215.516969 
L 63.354922 215.545702 
L 63.329344 215.574436 
L 63.201457 215.718109 
L 63.175879 215.746844 
L 63.150302 215.775581 
L 63.124725 215.804317 
L 63.022415 215.919269 
z
" clip-path="url(#p0963bede79)" style="fill: #999999; fill-opacity: 0.4"/>
   </g>
   <g id="line2d_20">
    <path d="M 63.022415 235.951207 
L 63.713006 234.910803 
L 99.419123 186.959158 
L 99.700475 186.627522 
L 134.843888 150.8199 
L 135.687944 150.072165 
L 171.700991 125.645756 
L 239.55796 90.545703 
L 243.675929 88.548357 
L 275.801203 76.027451 
L 279.688975 75.03386 
L 315.676445 69.151237 
L 349.106169 66.026823 
L 351.663914 65.863444 
L 383.942653 64.919327 
L 387.67696 64.956375 
L 387.67696 64.956375 
" clip-path="url(#p0963bede79)" style="fill: none; stroke: #db5f57; stroke-width: 1.772454; stroke-linejoin: miter"/>
   </g>
   <g id="PolyCollection_2">
    <path d="M 63.022415 190.70537 
L 63.022415 232.425591 
L 63.124725 232.235266 
L 63.150302 232.187713 
L 63.175879 232.140173 
L 63.201457 232.092644 
L 63.329344 231.855173 
L 63.354922 231.807713 
L 63.380499 231.760266 
L 63.431654 231.665406 
L 63.559541 231.428459 
L 63.713006 231.144508 
L 98.319293 178.359734 
L 98.54949 178.083207 
L 98.575067 178.052537 
L 98.600645 178.021879 
L 98.626222 177.991235 
L 98.677377 177.929983 
L 98.958729 177.594017 
L 98.984306 177.563552 
L 99.009884 177.533098 
L 99.061039 177.47223 
L 99.137771 177.381023 
L 99.419123 177.04757 
L 99.700475 176.715635 
L 133.641748 144.413162 
L 133.948678 144.164194 
L 133.999833 144.122734 
L 134.050987 144.081284 
L 134.076565 144.060563 
L 134.153297 143.998413 
L 134.588114 143.648264 
L 134.613691 143.627789 
L 134.664846 143.586879 
L 134.716001 143.546023 
L 134.843888 143.444117 
L 135.278705 143.100116 
L 135.687944 142.779806 
L 168.938626 123.018076 
L 169.373443 122.764949 
L 169.424598 122.735021 
L 169.450175 122.720046 
L 169.475753 122.705063 
L 169.552485 122.660065 
L 169.629217 122.614994 
L 170.191921 122.282222 
L 170.243076 122.251769 
L 170.294231 122.221281 
L 170.396541 122.160202 
L 170.550005 122.06852 
L 171.138287 121.71786 
L 171.700991 121.383674 
L 204.261082 105.848802 
L 204.772631 105.622973 
L 204.874941 105.577442 
L 204.926095 105.55463 
L 205.002828 105.520351 
L 205.105138 105.474534 
L 205.821306 105.15008 
L 205.872461 105.126646 
L 205.949193 105.091427 
L 206.077081 105.032548 
L 206.2817 104.937865 
L 206.997869 104.601674 
L 207.68846 104.270013 
L 239.55796 86.618547 
L 240.197396 86.295758 
L 240.299706 86.244454 
L 240.376438 86.20604 
L 240.45317 86.167679 
L 240.581058 86.103865 
L 241.450691 85.673953 
L 241.501846 85.648885 
L 241.604156 85.598823 
L 241.732043 85.536386 
L 241.987817 85.411978 
L 242.857451 84.993696 
L 243.675929 84.606753 
L 274.854838 74.348988 
L 275.596584 74.18479 
L 275.724471 74.156729 
L 275.750048 74.151127 
L 275.801203 74.139937 
L 275.929091 74.112052 
L 276.056978 74.084293 
L 277.054498 73.872088 
L 277.131231 73.85608 
L 277.23354 73.834806 
L 277.412583 73.797769 
L 277.693935 73.74006 
L 278.717032 73.535264 
L 279.688975 73.348003 
L 310.177293 69.92395 
L 311.021349 69.833492 
L 311.149236 69.819428 
L 311.174814 69.816604 
L 311.251546 69.808107 
L 311.379433 69.793867 
L 311.532898 69.776649 
L 312.683883 69.650876 
L 312.760615 69.642768 
L 312.888503 69.629333 
L 313.067545 69.610684 
L 313.400052 69.576551 
L 314.576614 69.460977 
L 315.676445 69.360271 
L 345.474171 69.514458 
L 346.420537 69.624901 
L 346.574002 69.643553 
L 346.599579 69.646682 
L 346.701889 69.659256 
L 346.829776 69.675105 
L 347.008818 69.697539 
L 348.313268 69.869734 
L 348.39 69.880348 
L 348.543465 69.901739 
L 348.748085 69.9306 
L 349.106169 69.982162 
L 350.436196 70.186337 
L 351.663914 70.392936 
L 380.796627 81.023129 
L 381.845302 81.612093 
L 382.024344 81.714004 
L 382.049922 81.728594 
L 382.152231 81.787038 
L 382.305696 81.874945 
L 382.510316 81.992604 
L 383.942653 82.830523 
L 384.019385 82.876115 
L 384.198427 82.982774 
L 384.428624 83.120474 
L 384.837864 83.366853 
L 386.295778 84.260888 
L 387.67696 85.131166 
L 387.67696 40.081153 
L 387.67696 40.081153 
L 386.295778 40.39691 
L 384.837864 40.720216 
L 384.428624 40.809075 
L 384.198427 40.858687 
L 384.019385 40.897089 
L 383.942653 40.913496 
L 382.510316 41.214197 
L 382.305696 41.256279 
L 382.152231 41.287694 
L 382.049922 41.308568 
L 382.024344 41.313778 
L 381.845302 41.350148 
L 380.796627 41.5597 
L 351.663914 44.59791 
L 350.436196 44.604976 
L 349.106169 44.603561 
L 348.748085 44.601642 
L 348.543465 44.600243 
L 348.39 44.599035 
L 348.313268 44.598381 
L 347.008818 44.582316 
L 346.829776 44.579412 
L 346.701889 44.577238 
L 346.599579 44.575441 
L 346.574002 44.574984 
L 346.420537 44.572172 
L 345.474171 44.552362 
L 315.676445 43.509854 
L 314.576614 43.512832 
L 313.400052 43.523014 
L 313.067545 43.527248 
L 312.888503 43.529782 
L 312.760615 43.5317 
L 312.683883 43.532895 
L 311.532898 43.554841 
L 311.379433 43.558286 
L 311.251546 43.561173 
L 311.174814 43.562911 
L 311.149236 43.563492 
L 311.021349 43.566405 
L 310.177293 43.586044 
L 279.688975 45.735255 
L 278.717032 45.903815 
L 277.693935 46.093987 
L 277.412583 46.148673 
L 277.23354 46.184025 
L 277.131231 46.20442 
L 277.054498 46.219809 
L 276.056978 46.427299 
L 275.929091 46.454917 
L 275.801203 46.482771 
L 275.750048 46.493979 
L 275.724471 46.499598 
L 275.596584 46.527869 
L 274.854838 46.697954 
L 243.675929 59.682762 
L 242.857451 60.081586 
L 241.987817 60.504301 
L 241.732043 60.6284 
L 241.604156 60.690409 
L 241.501846 60.739996 
L 241.450691 60.764782 
L 240.581058 61.185427 
L 240.45317 61.247167 
L 240.376438 61.284195 
L 240.299706 61.321212 
L 240.197396 61.37055 
L 239.55796 61.678431 
L 207.68846 76.489623 
L 206.997869 76.824911 
L 206.2817 77.174049 
L 206.077081 77.274046 
L 205.949193 77.336594 
L 205.872461 77.374142 
L 205.821306 77.399181 
L 205.105138 77.750303 
L 205.002828 77.800545 
L 204.926095 77.838238 
L 204.874941 77.863372 
L 204.772631 77.913654 
L 204.261082 78.165302 
L 171.700991 93.738234 
L 171.138287 94.062165 
L 170.550005 94.40785 
L 170.396541 94.499247 
L 170.294231 94.560314 
L 170.243076 94.590821 
L 170.191921 94.62131 
L 169.629217 94.955553 
L 169.552485 95.000974 
L 169.475753 95.046358 
L 169.450175 95.061478 
L 169.424598 95.076594 
L 169.373443 95.106813 
L 168.938626 95.363036 
L 135.687944 116.452097 
L 135.278705 116.80647 
L 134.843888 117.187858 
L 134.716001 117.300998 
L 134.664846 117.346378 
L 134.613691 117.391828 
L 134.588114 117.414581 
L 134.153297 117.804107 
L 134.076565 117.873316 
L 134.050987 117.89639 
L 133.999833 117.942545 
L 133.948678 117.988709 
L 133.641748 118.265878 
L 99.700475 151.591724 
L 99.419123 151.892667 
L 99.137771 152.193999 
L 99.061039 152.276248 
L 99.009884 152.331096 
L 98.984306 152.358525 
L 98.958729 152.385958 
L 98.677377 152.687922 
L 98.626222 152.742866 
L 98.600645 152.770343 
L 98.575067 152.797823 
L 98.54949 152.825305 
L 98.319293 153.072674 
L 63.713006 189.975394 
L 63.559541 190.137595 
L 63.431654 190.27277 
L 63.380499 190.326841 
L 63.354922 190.353877 
L 63.329344 190.380913 
L 63.201457 190.516099 
L 63.175879 190.543137 
L 63.150302 190.570175 
L 63.124725 190.597213 
L 63.022415 190.70537 
z
" clip-path="url(#p0963bede79)" style="fill: #999999; fill-opacity: 0.4"/>
   </g>
   <g id="line2d_21">
    <path d="M 63.022415 211.56548 
L 63.713006 210.559951 
L 99.419123 164.470118 
L 99.700475 164.15368 
L 134.843888 130.315988 
L 135.687944 129.615951 
L 171.700991 107.560954 
L 207.68846 90.379818 
L 243.675929 72.144757 
L 275.596584 60.35633 
L 279.688975 59.541629 
L 313.400052 56.549782 
L 315.676445 56.435062 
L 347.008818 57.139927 
L 351.663914 57.495423 
L 382.510316 61.603401 
L 387.67696 62.606159 
L 387.67696 62.606159 
" clip-path="url(#p0963bede79)" style="fill: none; stroke: #91db57; stroke-width: 1.772454; stroke-linejoin: miter"/>
   </g>
   <g id="PolyCollection_3">
    <path d="M 63.022415 177.189071 
L 63.022415 223.039056 
L 63.124725 222.834327 
L 63.150302 222.78318 
L 63.175879 222.732046 
L 63.201457 222.680926 
L 63.329344 222.425537 
L 63.354922 222.3745 
L 63.380499 222.323478 
L 63.431654 222.221475 
L 63.559541 221.966712 
L 63.713006 221.661456 
L 98.319293 166.233666 
L 98.54949 165.954025 
L 98.575067 165.923021 
L 98.600645 165.892032 
L 98.626222 165.861059 
L 98.677377 165.799162 
L 98.958729 165.459897 
L 98.984306 165.429152 
L 99.009884 165.398423 
L 99.061039 165.337015 
L 99.137771 165.245023 
L 99.419123 164.90896 
L 99.700475 164.574831 
L 133.641748 133.86908 
L 133.948678 133.641002 
L 133.999833 133.603017 
L 134.050987 133.565041 
L 134.076565 133.546055 
L 134.153297 133.489111 
L 134.588114 133.169481 
L 134.613691 133.150865 
L 134.664846 133.113694 
L 134.716001 133.076605 
L 134.843888 132.984239 
L 135.278705 132.673969 
L 135.687944 132.387203 
L 168.938626 117.820644 
L 169.373443 117.622717 
L 169.424598 117.599184 
L 169.450175 117.587397 
L 169.475753 117.575598 
L 169.552485 117.540119 
L 169.629217 117.504519 
L 170.191921 117.239693 
L 170.243076 117.215283 
L 170.294231 117.190816 
L 170.396541 117.141711 
L 170.550005 117.067969 
L 171.138287 116.786927 
L 171.700991 116.520566 
L 204.261082 105.589539 
L 204.772631 105.418361 
L 204.874941 105.383563 
L 204.926095 105.366092 
L 205.002828 105.339794 
L 205.105138 105.304559 
L 205.821306 105.052257 
L 205.872461 105.033844 
L 205.949193 105.006126 
L 206.077081 104.959658 
L 206.2817 104.884599 
L 206.997869 104.61477 
L 207.68846 104.343577 
L 239.55796 87.594171 
L 240.197396 87.267446 
L 240.299706 87.215482 
L 240.376438 87.176567 
L 240.45317 87.137701 
L 240.581058 87.073035 
L 241.450691 86.637016 
L 241.501846 86.611572 
L 241.604156 86.560753 
L 241.732043 86.49736 
L 241.987817 86.37101 
L 242.857451 85.945828 
L 243.675929 85.55201 
L 274.854838 75.081675 
L 275.596584 74.919496 
L 275.724471 74.891843 
L 275.750048 74.886323 
L 275.801203 74.875295 
L 275.929091 74.847793 
L 276.056978 74.820387 
L 277.054498 74.609927 
L 277.131231 74.593981 
L 277.23354 74.572774 
L 277.412583 74.535812 
L 277.693935 74.478113 
L 278.717032 74.272289 
L 279.688975 74.082595 
L 310.177293 70.441441 
L 311.021349 70.353867 
L 311.149236 70.340332 
L 311.174814 70.337616 
L 311.251546 70.329451 
L 311.379433 70.315784 
L 311.532898 70.299286 
L 312.683883 70.179426 
L 312.760615 70.171739 
L 312.888503 70.159012 
L 313.067545 70.14137 
L 313.400052 70.109153 
L 314.576614 70.000842 
L 315.676445 69.907588 
L 345.474171 70.465426 
L 346.420537 70.594586 
L 346.574002 70.61631 
L 346.599579 70.619952 
L 346.701889 70.63458 
L 346.829776 70.653004 
L 347.008818 70.679054 
L 348.313268 70.878022 
L 348.39 70.890235 
L 348.543465 70.91483 
L 348.748085 70.947981 
L 349.106169 71.007115 
L 350.436196 71.240307 
L 351.663914 71.474982 
L 380.796627 83.21286 
L 381.845302 83.858197 
L 382.024344 83.969843 
L 382.049922 83.985828 
L 382.152231 84.049852 
L 382.305696 84.146149 
L 382.510316 84.275031 
L 383.942653 85.192687 
L 384.019385 85.242608 
L 384.198427 85.359391 
L 384.428624 85.510156 
L 384.837864 85.779888 
L 386.295778 86.758464 
L 387.67696 87.710753 
L 387.67696 38.201371 
L 387.67696 38.201371 
L 386.295778 38.552519 
L 384.837864 38.911785 
L 384.428624 39.010474 
L 384.198427 39.065564 
L 384.019385 39.1082 
L 383.942653 39.126416 
L 382.510316 39.460089 
L 382.305696 39.506759 
L 382.152231 39.541595 
L 382.049922 39.56474 
L 382.024344 39.570517 
L 381.845302 39.61084 
L 380.796627 39.843062 
L 351.663914 43.126582 
L 350.436196 43.126722 
L 349.106169 43.116361 
L 348.748085 43.111783 
L 348.543465 43.108813 
L 348.39 43.106398 
L 348.313268 43.105131 
L 347.008818 43.077749 
L 346.829776 43.073161 
L 346.701889 43.069767 
L 346.599579 43.066982 
L 346.574002 43.066276 
L 346.420537 43.061961 
L 345.474171 43.032405 
L 315.676445 41.498313 
L 314.576614 41.484165 
L 313.400052 41.476653 
L 313.067545 41.476011 
L 312.888503 41.475942 
L 312.760615 41.476013 
L 312.683883 41.476103 
L 311.532898 41.481858 
L 311.379433 41.48322 
L 311.251546 41.48441 
L 311.174814 41.485148 
L 311.149236 41.485398 
L 311.021349 41.486678 
L 310.177293 41.496423 
L 279.688975 43.736542 
L 278.717032 43.905684 
L 277.693935 44.095436 
L 277.412583 44.149813 
L 277.23354 44.184923 
L 277.131231 44.205164 
L 277.054498 44.22043 
L 276.056978 44.425708 
L 275.929091 44.45296 
L 275.801203 44.480427 
L 275.750048 44.491475 
L 275.724471 44.497012 
L 275.596584 44.524897 
L 274.854838 44.693545 
L 243.675929 58.160867 
L 242.857451 58.567741 
L 241.987817 58.997794 
L 241.732043 59.123806 
L 241.604156 59.186728 
L 241.501846 59.237024 
L 241.450691 59.262158 
L 240.581058 59.687994 
L 240.45317 59.75038 
L 240.376438 59.787782 
L 240.299706 59.825161 
L 240.197396 59.874964 
L 239.55796 60.185306 
L 207.68846 73.813288 
L 206.997869 74.088466 
L 206.2817 74.372524 
L 206.077081 74.453423 
L 205.949193 74.503924 
L 205.872461 74.534201 
L 205.821306 74.554376 
L 205.105138 74.835988 
L 205.002828 74.876085 
L 204.926095 74.906135 
L 204.874941 74.926158 
L 204.772631 74.966177 
L 204.261082 75.16573 
L 171.700991 86.138585 
L 171.138287 86.393675 
L 170.550005 86.669249 
L 170.396541 86.742679 
L 170.294231 86.791771 
L 170.243076 86.816258 
L 170.191921 86.840707 
L 169.629217 87.10715 
L 169.552485 87.143135 
L 169.475753 87.179039 
L 169.450175 87.190988 
L 169.424598 87.202929 
L 169.373443 87.226783 
L 168.938626 87.428113 
L 135.687944 103.45339 
L 135.278705 103.777592 
L 134.843888 104.12895 
L 134.716001 104.233661 
L 134.664846 104.275722 
L 134.613691 104.317883 
L 134.588114 104.339001 
L 134.153297 104.701907 
L 134.076565 104.766609 
L 134.050987 104.78818 
L 133.999833 104.831327 
L 133.948678 104.874481 
L 133.641748 105.133553 
L 99.700475 136.963977 
L 99.419123 137.264047 
L 99.137771 137.564809 
L 99.061039 137.646956 
L 99.009884 137.701749 
L 98.984306 137.729154 
L 98.958729 137.756564 
L 98.677377 138.058463 
L 98.626222 138.113428 
L 98.600645 138.140919 
L 98.575067 138.168416 
L 98.54949 138.195917 
L 98.319293 138.443514 
L 63.713006 176.417132 
L 63.559541 176.588586 
L 63.431654 176.731503 
L 63.380499 176.788679 
L 63.354922 176.81727 
L 63.329344 176.845861 
L 63.201457 176.988841 
L 63.175879 177.017441 
L 63.150302 177.046043 
L 63.124725 177.074645 
L 63.022415 177.189071 
z
" clip-path="url(#p0963bede79)" style="fill: #999999; fill-opacity: 0.4"/>
   </g>
   <g id="line2d_22">
    <path d="M 63.022415 200.114064 
L 63.713006 199.039294 
L 99.137771 151.404916 
L 99.700475 150.769404 
L 134.716001 118.655133 
L 135.687944 117.920296 
L 171.700991 101.329575 
L 206.997869 89.351618 
L 207.68846 89.078433 
L 243.675929 71.856439 
L 274.854838 59.88761 
L 279.688975 58.909568 
L 312.888503 55.817477 
L 315.676445 55.702951 
L 347.008818 56.878401 
L 351.663914 57.300782 
L 382.510316 61.86756 
L 387.67696 62.956062 
L 387.67696 62.956062 
" clip-path="url(#p0963bede79)" style="fill: none; stroke: #57d3db; stroke-width: 1.772454; stroke-linejoin: miter"/>
   </g>
   <g id="PolyCollection_4">
    <path d="M 63.022415 240.379415 
L 63.022415 280.121371 
L 63.124725 279.945965 
L 63.150302 279.902137 
L 63.175879 279.858318 
L 63.201457 279.814508 
L 63.329344 279.595597 
L 63.354922 279.551843 
L 63.380499 279.508098 
L 63.431654 279.420635 
L 63.559541 279.202141 
L 63.713006 278.940253 
L 98.319293 228.911761 
L 98.54949 228.638852 
L 98.575067 228.608572 
L 98.600645 228.578302 
L 98.626222 228.548042 
L 98.677377 228.48755 
L 98.958729 228.155535 
L 98.984306 228.12541 
L 99.009884 228.095294 
L 99.061039 228.035091 
L 99.137771 227.944858 
L 99.419123 227.614737 
L 99.700475 227.28576 
L 133.641748 193.297678 
L 133.948678 193.021218 
L 133.999833 192.975165 
L 134.050987 192.929119 
L 134.076565 192.906099 
L 134.153297 192.837047 
L 134.588114 192.446683 
L 134.613691 192.423775 
L 134.664846 192.377977 
L 134.716001 192.332204 
L 134.843888 192.217875 
L 135.278705 191.830275 
L 135.687944 191.467033 
L 168.938626 165.279368 
L 169.373443 164.946353 
L 169.424598 164.907107 
L 169.450175 164.887479 
L 169.475753 164.867847 
L 169.552485 164.808928 
L 169.629217 164.749976 
L 170.191921 164.316613 
L 170.243076 164.277122 
L 170.294231 164.237616 
L 170.396541 164.158553 
L 170.550005 164.039895 
L 171.138287 163.584794 
L 171.700991 163.149212 
L 204.261082 140.762451 
L 204.772631 140.440388 
L 204.874941 140.375764 
L 204.926095 140.343424 
L 205.002828 140.29488 
L 205.105138 140.230088 
L 205.821306 139.774316 
L 205.872461 139.741604 
L 205.949193 139.692495 
L 206.077081 139.610537 
L 206.2817 139.479112 
L 206.997869 139.016141 
L 207.68846 138.564998 
L 239.55796 115.775996 
L 240.197396 115.35371 
L 240.299706 115.286493 
L 240.376438 115.236144 
L 240.45317 115.185849 
L 240.581058 115.102147 
L 241.450691 114.537053 
L 241.501846 114.504036 
L 241.604156 114.438078 
L 241.732043 114.355771 
L 241.987817 114.191631 
L 242.857451 113.638322 
L 243.675929 113.124377 
L 274.854838 98.146425 
L 275.596584 97.874898 
L 275.724471 97.828366 
L 275.750048 97.819071 
L 275.801203 97.800499 
L 275.929091 97.754178 
L 276.056978 97.708012 
L 277.054498 97.353169 
L 277.131231 97.326256 
L 277.23354 97.290458 
L 277.412583 97.228042 
L 277.693935 97.130554 
L 278.717032 96.782128 
L 279.688975 96.459831 
L 310.177293 89.058971 
L 311.021349 88.854989 
L 311.149236 88.823664 
L 311.174814 88.817386 
L 311.251546 88.798523 
L 311.379433 88.766993 
L 311.532898 88.729004 
L 312.683883 88.447526 
L 312.760615 88.42905 
L 312.888503 88.398336 
L 313.067545 88.355503 
L 313.400052 88.276477 
L 314.576614 88.002252 
L 315.676445 87.753509 
L 345.474171 83.927379 
L 346.420537 83.909819 
L 346.574002 83.907688 
L 346.599579 83.907353 
L 346.701889 83.906067 
L 346.829776 83.904585 
L 347.008818 83.902748 
L 348.313268 83.89779 
L 348.39 83.897965 
L 348.543465 83.898472 
L 348.748085 83.899474 
L 349.106169 83.902251 
L 350.436196 83.924904 
L 351.663914 83.963474 
L 380.796627 90.450278 
L 381.845302 90.884639 
L 382.024344 90.960121 
L 382.049922 90.970936 
L 382.152231 91.014273 
L 382.305696 91.079514 
L 382.510316 91.16694 
L 383.942653 91.792889 
L 384.019385 91.827108 
L 384.198427 91.907225 
L 384.428624 92.010787 
L 384.837864 92.196438 
L 386.295778 92.873753 
L 387.67696 93.538182 
L 387.67696 50.624326 
L 387.67696 50.624326 
L 386.295778 51.089692 
L 384.837864 51.571996 
L 384.428624 51.705686 
L 384.198427 51.780555 
L 384.019385 51.83862 
L 383.942653 51.86346 
L 382.510316 52.322141 
L 382.305696 52.38688 
L 382.152231 52.435304 
L 382.049922 52.467524 
L 382.024344 52.475571 
L 381.845302 52.531813 
L 380.796627 52.858104 
L 351.663914 59.391582 
L 350.436196 59.556546 
L 349.106169 59.727039 
L 348.748085 59.77155 
L 348.543465 59.796708 
L 348.39 59.815427 
L 348.313268 59.82474 
L 347.008818 59.978425 
L 346.829776 59.998866 
L 346.701889 60.013374 
L 346.599579 60.024926 
L 346.574002 60.027807 
L 346.420537 60.045027 
L 345.474171 60.148922 
L 315.676445 63.128852 
L 314.576614 63.284501 
L 313.400052 63.458332 
L 313.067545 63.508877 
L 312.888503 63.536358 
L 312.760615 63.556102 
L 312.683883 63.567994 
L 311.532898 63.750567 
L 311.379433 63.775436 
L 311.251546 63.796151 
L 311.174814 63.808576 
L 311.149236 63.812717 
L 311.021349 63.83342 
L 310.177293 63.969941 
L 279.688975 70.156409 
L 278.717032 70.460892 
L 277.693935 70.795387 
L 277.412583 70.889996 
L 277.23354 70.950806 
L 277.131231 70.985767 
L 277.054498 71.012091 
L 276.056978 71.362442 
L 275.929091 71.408474 
L 275.801203 71.454765 
L 275.750048 71.473354 
L 275.724471 71.482665 
L 275.596584 71.529398 
L 274.854838 71.806531 
L 243.675929 89.382219 
L 242.857451 89.90748 
L 241.987817 90.465012 
L 241.732043 90.628859 
L 241.604156 90.710757 
L 241.501846 90.776263 
L 241.450691 90.809011 
L 240.581058 91.365278 
L 240.45317 91.447004 
L 240.376438 91.496029 
L 240.299706 91.545047 
L 240.197396 91.610392 
L 239.55796 92.018476 
L 207.68846 112.101883 
L 206.997869 112.556481 
L 206.2817 113.031785 
L 206.077081 113.168272 
L 205.949193 113.253726 
L 205.872461 113.305052 
L 205.821306 113.339292 
L 205.105138 113.820469 
L 205.002828 113.889475 
L 204.926095 113.941272 
L 204.874941 113.975823 
L 204.772631 114.044973 
L 204.261082 114.391631 
L 171.700991 136.814647 
L 171.138287 137.240461 
L 170.550005 137.690823 
L 170.396541 137.80921 
L 170.294231 137.888261 
L 170.243076 137.927786 
L 170.191921 137.967311 
L 169.629217 138.402075 
L 169.552485 138.461361 
L 169.475753 138.520647 
L 169.450175 138.540409 
L 169.424598 138.560171 
L 169.373443 138.599695 
L 168.938626 138.93566 
L 135.687944 166.387716 
L 135.278705 166.783407 
L 134.843888 167.206621 
L 134.716001 167.33165 
L 134.664846 167.381733 
L 134.613691 167.431856 
L 134.588114 167.456933 
L 134.153297 167.884808 
L 134.076565 167.960584 
L 134.050987 167.985846 
L 133.999833 168.036373 
L 133.948678 168.086907 
L 133.641748 168.390232 
L 99.700475 203.353161 
L 99.419123 203.652616 
L 99.137771 203.952138 
L 99.061039 204.033837 
L 99.009884 204.088306 
L 98.984306 204.115541 
L 98.958729 204.142777 
L 98.677377 204.442403 
L 98.626222 204.496886 
L 98.600645 204.524129 
L 98.575067 204.551372 
L 98.54949 204.578615 
L 98.319293 204.823749 
L 63.713006 239.723273 
L 63.559541 239.869184 
L 63.431654 239.990732 
L 63.380499 240.039339 
L 63.354922 240.063641 
L 63.329344 240.087941 
L 63.201457 240.209416 
L 63.175879 240.233707 
L 63.150302 240.257995 
L 63.124725 240.282282 
L 63.022415 240.379415 
z
" clip-path="url(#p0963bede79)" style="fill: #999999; fill-opacity: 0.4"/>
   </g>
   <g id="line2d_23">
    <path d="M 63.022415 260.250393 
L 63.713006 259.331763 
L 99.700475 215.31946 
L 135.278705 179.306841 
L 135.687944 178.927375 
L 171.700991 149.98193 
L 207.68846 125.333441 
L 243.675929 101.253298 
L 275.596584 84.702148 
L 279.688975 83.30812 
L 314.576614 75.643376 
L 315.676445 75.441181 
L 347.008818 71.940587 
L 351.663914 71.677528 
L 382.510316 71.74454 
L 387.67696 72.081254 
L 387.67696 72.081254 
" clip-path="url(#p0963bede79)" style="fill: none; stroke: #a157db; stroke-width: 1.772454; stroke-linejoin: miter"/>
   </g>
   <g id="patch_3">
    <path d="M 411.109688 211.836339 
L 546.423813 211.836339 
L 546.423813 103.030402 
L 411.109688 103.030402 
z
" style="fill: #ffffff"/>
   </g>
   <g id="text_9">
    <!-- Model -->
    <g transform="translate(423.309687 126.623996)scale(0.11 -0.11)">
     <defs>
      <path id="DejaVuSans-4d" d="M 628 4666 
L 1569 4666 
L 2759 1491 
L 3956 4666 
L 4897 4666 
L 4897 0 
L 4281 0 
L 4281 4097 
L 3078 897 
L 2444 897 
L 1241 4097 
L 1241 0 
L 628 0 
L 628 4666 
z
" transform="scale(0.015625)"/>
     </defs>
     <use xlink:href="#DejaVuSans-4d"/>
     <use xlink:href="#DejaVuSans-6f" x="86.279297"/>
     <use xlink:href="#DejaVuSans-64" x="147.460938"/>
     <use xlink:href="#DejaVuSans-65" x="210.9375"/>
     <use xlink:href="#DejaVuSans-6c" x="272.460938"/>
    </g>
   </g>
   <g id="patch_4">
    <path d="M 423.309687 146.116339 
L 439.149687 146.116339 
L 439.149687 130.276339 
L 423.309687 130.276339 
z
" clip-path="url(#pc4b7d3c99f)" style="fill: #f2f2f2"/>
   </g>
   <g id="patch_5">
    <path d="M 423.309687 142.156339 
L 439.149687 142.156339 
L 439.149687 134.236339 
L 423.309687 134.236339 
z
" clip-path="url(#pc4b7d3c99f)" style="fill: #999999; opacity: 0.4"/>
   </g>
   <g id="line2d_24">
    <path d="M 423.309687 138.196339 
L 439.149687 138.196339 
" clip-path="url(#pc4b7d3c99f)" style="fill: none; stroke: #db5f57; stroke-width: 1.772454"/>
   </g>
   <g id="text_10">
    <!-- Five Layer Network -->
    <g transform="translate(442.149688 140.624589)scale(0.088 -0.088)">
     <defs>
      <path id="DejaVuSans-46" d="M 628 4666 
L 3309 4666 
L 3309 4134 
L 1259 4134 
L 1259 2759 
L 3109 2759 
L 3109 2228 
L 1259 2228 
L 1259 0 
L 628 0 
L 628 4666 
z
" transform="scale(0.015625)"/>
      <path id="DejaVuSans-76" d="M 191 3500 
L 800 3500 
L 1894 563 
L 2988 3500 
L 3597 3500 
L 2284 0 
L 1503 0 
L 191 3500 
z
" transform="scale(0.015625)"/>
      <path id="DejaVuSans-4c" d="M 628 4666 
L 1259 4666 
L 1259 531 
L 3531 531 
L 3531 0 
L 628 0 
L 628 4666 
z
" transform="scale(0.015625)"/>
      <path id="DejaVuSans-4e" d="M 628 4666 
L 1478 4666 
L 3547 763 
L 3547 4666 
L 4159 4666 
L 4159 0 
L 3309 0 
L 1241 3903 
L 1241 0 
L 628 0 
L 628 4666 
z
" transform="scale(0.015625)"/>
      <path id="DejaVuSans-77" d="M 269 3500 
L 844 3500 
L 1563 769 
L 2278 3500 
L 2956 3500 
L 3675 769 
L 4391 3500 
L 4966 3500 
L 4050 0 
L 3372 0 
L 2619 2869 
L 1863 0 
L 1184 0 
L 269 3500 
z
" transform="scale(0.015625)"/>
      <path id="DejaVuSans-6b" d="M 581 4863 
L 1159 4863 
L 1159 1991 
L 2875 3500 
L 3609 3500 
L 1753 1863 
L 3688 0 
L 2938 0 
L 1159 1709 
L 1159 0 
L 581 0 
L 581 4863 
z
" transform="scale(0.015625)"/>
     </defs>
     <use xlink:href="#DejaVuSans-46"/>
     <use xlink:href="#DejaVuSans-69" x="50.269531"/>
     <use xlink:href="#DejaVuSans-76" x="78.052734"/>
     <use xlink:href="#DejaVuSans-65" x="137.232422"/>
     <use xlink:href="#DejaVuSans-20" x="198.755859"/>
     <use xlink:href="#DejaVuSans-4c" x="230.542969"/>
     <use xlink:href="#DejaVuSans-61" x="286.255859"/>
     <use xlink:href="#DejaVuSans-79" x="347.535156"/>
     <use xlink:href="#DejaVuSans-65" x="406.714844"/>
     <use xlink:href="#DejaVuSans-72" x="468.238281"/>
     <use xlink:href="#DejaVuSans-20" x="509.351562"/>
     <use xlink:href="#DejaVuSans-4e" x="541.138672"/>
     <use xlink:href="#DejaVuSans-65" x="615.943359"/>
     <use xlink:href="#DejaVuSans-74" x="677.466797"/>
     <use xlink:href="#DejaVuSans-77" x="716.675781"/>
     <use xlink:href="#DejaVuSans-6f" x="798.462891"/>
     <use xlink:href="#DejaVuSans-72" x="859.644531"/>
     <use xlink:href="#DejaVuSans-6b" x="900.757812"/>
    </g>
   </g>
   <g id="patch_6">
    <path d="M 423.309687 163.956339 
L 439.149687 163.956339 
L 439.149687 148.116339 
L 423.309687 148.116339 
z
" clip-path="url(#p2aa6cf72d8)" style="fill: #f2f2f2"/>
   </g>
   <g id="patch_7">
    <path d="M 423.309687 159.996339 
L 439.149687 159.996339 
L 439.149687 152.076339 
L 423.309687 152.076339 
z
" clip-path="url(#p2aa6cf72d8)" style="fill: #999999; opacity: 0.4"/>
   </g>
   <g id="line2d_25">
    <path d="M 423.309687 156.036339 
L 439.149687 156.036339 
" clip-path="url(#p2aa6cf72d8)" style="fill: none; stroke: #91db57; stroke-width: 1.772454"/>
   </g>
   <g id="text_11">
    <!-- Logistic Regression -->
    <g transform="translate(442.149688 158.464589)scale(0.088 -0.088)">
     <defs>
      <path id="DejaVuSans-67" d="M 2906 1791 
Q 2906 2416 2648 2759 
Q 2391 3103 1925 3103 
Q 1463 3103 1205 2759 
Q 947 2416 947 1791 
Q 947 1169 1205 825 
Q 1463 481 1925 481 
Q 2391 481 2648 825 
Q 2906 1169 2906 1791 
z
M 3481 434 
Q 3481 -459 3084 -895 
Q 2688 -1331 1869 -1331 
Q 1566 -1331 1297 -1286 
Q 1028 -1241 775 -1147 
L 775 -588 
Q 1028 -725 1275 -790 
Q 1522 -856 1778 -856 
Q 2344 -856 2625 -561 
Q 2906 -266 2906 331 
L 2906 616 
Q 2728 306 2450 153 
Q 2172 0 1784 0 
Q 1141 0 747 490 
Q 353 981 353 1791 
Q 353 2603 747 3093 
Q 1141 3584 1784 3584 
Q 2172 3584 2450 3431 
Q 2728 3278 2906 2969 
L 2906 3500 
L 3481 3500 
L 3481 434 
z
" transform="scale(0.015625)"/>
      <path id="DejaVuSans-73" d="M 2834 3397 
L 2834 2853 
Q 2591 2978 2328 3040 
Q 2066 3103 1784 3103 
Q 1356 3103 1142 2972 
Q 928 2841 928 2578 
Q 928 2378 1081 2264 
Q 1234 2150 1697 2047 
L 1894 2003 
Q 2506 1872 2764 1633 
Q 3022 1394 3022 966 
Q 3022 478 2636 193 
Q 2250 -91 1575 -91 
Q 1294 -91 989 -36 
Q 684 19 347 128 
L 347 722 
Q 666 556 975 473 
Q 1284 391 1588 391 
Q 1994 391 2212 530 
Q 2431 669 2431 922 
Q 2431 1156 2273 1281 
Q 2116 1406 1581 1522 
L 1381 1569 
Q 847 1681 609 1914 
Q 372 2147 372 2553 
Q 372 3047 722 3315 
Q 1072 3584 1716 3584 
Q 2034 3584 2315 3537 
Q 2597 3491 2834 3397 
z
" transform="scale(0.015625)"/>
      <path id="DejaVuSans-52" d="M 2841 2188 
Q 3044 2119 3236 1894 
Q 3428 1669 3622 1275 
L 4263 0 
L 3584 0 
L 2988 1197 
Q 2756 1666 2539 1819 
Q 2322 1972 1947 1972 
L 1259 1972 
L 1259 0 
L 628 0 
L 628 4666 
L 2053 4666 
Q 2853 4666 3247 4331 
Q 3641 3997 3641 3322 
Q 3641 2881 3436 2590 
Q 3231 2300 2841 2188 
z
M 1259 4147 
L 1259 2491 
L 2053 2491 
Q 2509 2491 2742 2702 
Q 2975 2913 2975 3322 
Q 2975 3731 2742 3939 
Q 2509 4147 2053 4147 
L 1259 4147 
z
" transform="scale(0.015625)"/>
     </defs>
     <use xlink:href="#DejaVuSans-4c"/>
     <use xlink:href="#DejaVuSans-6f" x="53.962891"/>
     <use xlink:href="#DejaVuSans-67" x="115.144531"/>
     <use xlink:href="#DejaVuSans-69" x="178.621094"/>
     <use xlink:href="#DejaVuSans-73" x="206.404297"/>
     <use xlink:href="#DejaVuSans-74" x="258.503906"/>
     <use xlink:href="#DejaVuSans-69" x="297.712891"/>
     <use xlink:href="#DejaVuSans-63" x="325.496094"/>
     <use xlink:href="#DejaVuSans-20" x="380.476562"/>
     <use xlink:href="#DejaVuSans-52" x="412.263672"/>
     <use xlink:href="#DejaVuSans-65" x="477.246094"/>
     <use xlink:href="#DejaVuSans-67" x="538.769531"/>
     <use xlink:href="#DejaVuSans-72" x="602.246094"/>
     <use xlink:href="#DejaVuSans-65" x="641.109375"/>
     <use xlink:href="#DejaVuSans-73" x="702.632812"/>
     <use xlink:href="#DejaVuSans-73" x="754.732422"/>
     <use xlink:href="#DejaVuSans-69" x="806.832031"/>
     <use xlink:href="#DejaVuSans-6f" x="834.615234"/>
     <use xlink:href="#DejaVuSans-6e" x="895.796875"/>
    </g>
   </g>
   <g id="patch_8">
    <path d="M 423.309687 181.796339 
L 439.149687 181.796339 
L 439.149687 165.956339 
L 423.309687 165.956339 
z
" clip-path="url(#p05ab30bca4)" style="fill: #f2f2f2"/>
   </g>
   <g id="patch_9">
    <path d="M 423.309687 177.836339 
L 439.149687 177.836339 
L 439.149687 169.916339 
L 423.309687 169.916339 
z
" clip-path="url(#p05ab30bca4)" style="fill: #999999; opacity: 0.4"/>
   </g>
   <g id="line2d_26">
    <path d="M 423.309687 173.876339 
L 439.149687 173.876339 
" clip-path="url(#p05ab30bca4)" style="fill: none; stroke: #57d3db; stroke-width: 1.772454"/>
   </g>
   <g id="text_12">
    <!-- SVM -->
    <g transform="translate(442.149688 176.304589)scale(0.088 -0.088)">
     <use xlink:href="#DejaVuSans-53"/>
     <use xlink:href="#DejaVuSans-56" x="63.476562"/>
     <use xlink:href="#DejaVuSans-4d" x="131.884766"/>
    </g>
   </g>
   <g id="patch_10">
    <path d="M 423.309687 199.636339 
L 439.149687 199.636339 
L 439.149687 183.796339 
L 423.309687 183.796339 
z
" clip-path="url(#pf587727803)" style="fill: #f2f2f2"/>
   </g>
   <g id="patch_11">
    <path d="M 423.309687 195.676339 
L 439.149687 195.676339 
L 439.149687 187.756339 
L 423.309687 187.756339 
z
" clip-path="url(#pf587727803)" style="fill: #999999; opacity: 0.4"/>
   </g>
   <g id="line2d_27">
    <path d="M 423.309687 191.716339 
L 439.149687 191.716339 
" clip-path="url(#pf587727803)" style="fill: none; stroke: #a157db; stroke-width: 1.772454"/>
   </g>
   <g id="text_13">
    <!-- Three Layer Network -->
    <g transform="translate(442.149688 194.144589)scale(0.088 -0.088)">
     <defs>
      <path id="DejaVuSans-68" d="M 3513 2113 
L 3513 0 
L 2938 0 
L 2938 2094 
Q 2938 2591 2744 2837 
Q 2550 3084 2163 3084 
Q 1697 3084 1428 2787 
Q 1159 2491 1159 1978 
L 1159 0 
L 581 0 
L 581 4863 
L 1159 4863 
L 1159 2956 
Q 1366 3272 1645 3428 
Q 1925 3584 2291 3584 
Q 2894 3584 3203 3211 
Q 3513 2838 3513 2113 
z
" transform="scale(0.015625)"/>
     </defs>
     <use xlink:href="#DejaVuSans-54"/>
     <use xlink:href="#DejaVuSans-68" x="61.083984"/>
     <use xlink:href="#DejaVuSans-72" x="124.462891"/>
     <use xlink:href="#DejaVuSans-65" x="163.326172"/>
     <use xlink:href="#DejaVuSans-65" x="224.849609"/>
     <use xlink:href="#DejaVuSans-20" x="286.373047"/>
     <use xlink:href="#DejaVuSans-4c" x="318.160156"/>
     <use xlink:href="#DejaVuSans-61" x="373.873047"/>
     <use xlink:href="#DejaVuSans-79" x="435.152344"/>
     <use xlink:href="#DejaVuSans-65" x="494.332031"/>
     <use xlink:href="#DejaVuSans-72" x="555.855469"/>
     <use xlink:href="#DejaVuSans-20" x="596.96875"/>
     <use xlink:href="#DejaVuSans-4e" x="628.755859"/>
     <use xlink:href="#DejaVuSans-65" x="703.560547"/>
     <use xlink:href="#DejaVuSans-74" x="765.083984"/>
     <use xlink:href="#DejaVuSans-77" x="804.292969"/>
     <use xlink:href="#DejaVuSans-6f" x="886.080078"/>
     <use xlink:href="#DejaVuSans-72" x="947.261719"/>
     <use xlink:href="#DejaVuSans-6b" x="988.375"/>
    </g>
   </g>
  </g>
  <g id="text_14">
   <!-- GTEx Multiclass Tissue Prediction -->
   <g transform="translate(110.235938 17.229938)scale(0.132 -0.132)">
    <defs>
     <path id="DejaVuSans-47" d="M 3809 666 
L 3809 1919 
L 2778 1919 
L 2778 2438 
L 4434 2438 
L 4434 434 
Q 4069 175 3628 42 
Q 3188 -91 2688 -91 
Q 1594 -91 976 548 
Q 359 1188 359 2328 
Q 359 3472 976 4111 
Q 1594 4750 2688 4750 
Q 3144 4750 3555 4637 
Q 3966 4525 4313 4306 
L 4313 3634 
Q 3963 3931 3569 4081 
Q 3175 4231 2741 4231 
Q 1884 4231 1454 3753 
Q 1025 3275 1025 2328 
Q 1025 1384 1454 906 
Q 1884 428 2741 428 
Q 3075 428 3337 486 
Q 3600 544 3809 666 
z
" transform="scale(0.015625)"/>
     <path id="DejaVuSans-45" d="M 628 4666 
L 3578 4666 
L 3578 4134 
L 1259 4134 
L 1259 2753 
L 3481 2753 
L 3481 2222 
L 1259 2222 
L 1259 531 
L 3634 531 
L 3634 0 
L 628 0 
L 628 4666 
z
" transform="scale(0.015625)"/>
     <path id="DejaVuSans-78" d="M 3513 3500 
L 2247 1797 
L 3578 0 
L 2900 0 
L 1881 1375 
L 863 0 
L 184 0 
L 1544 1831 
L 300 3500 
L 978 3500 
L 1906 2253 
L 2834 3500 
L 3513 3500 
z
" transform="scale(0.015625)"/>
     <path id="DejaVuSans-50" d="M 1259 4147 
L 1259 2394 
L 2053 2394 
Q 2494 2394 2734 2622 
Q 2975 2850 2975 3272 
Q 2975 3691 2734 3919 
Q 2494 4147 2053 4147 
L 1259 4147 
z
M 628 4666 
L 2053 4666 
Q 2838 4666 3239 4311 
Q 3641 3956 3641 3272 
Q 3641 2581 3239 2228 
Q 2838 1875 2053 1875 
L 1259 1875 
L 1259 0 
L 628 0 
L 628 4666 
z
" transform="scale(0.015625)"/>
    </defs>
    <use xlink:href="#DejaVuSans-47"/>
    <use xlink:href="#DejaVuSans-54" x="73.865234"/>
    <use xlink:href="#DejaVuSans-45" x="134.949219"/>
    <use xlink:href="#DejaVuSans-78" x="198.132812"/>
    <use xlink:href="#DejaVuSans-20" x="257.3125"/>
    <use xlink:href="#DejaVuSans-4d" x="289.099609"/>
    <use xlink:href="#DejaVuSans-75" x="375.378906"/>
    <use xlink:href="#DejaVuSans-6c" x="438.757812"/>
    <use xlink:href="#DejaVuSans-74" x="466.541016"/>
    <use xlink:href="#DejaVuSans-69" x="505.75"/>
    <use xlink:href="#DejaVuSans-63" x="533.533203"/>
    <use xlink:href="#DejaVuSans-6c" x="588.513672"/>
    <use xlink:href="#DejaVuSans-61" x="616.296875"/>
    <use xlink:href="#DejaVuSans-73" x="677.576172"/>
    <use xlink:href="#DejaVuSans-73" x="729.675781"/>
    <use xlink:href="#DejaVuSans-20" x="781.775391"/>
    <use xlink:href="#DejaVuSans-54" x="813.5625"/>
    <use xlink:href="#DejaVuSans-69" x="871.521484"/>
    <use xlink:href="#DejaVuSans-73" x="899.304688"/>
    <use xlink:href="#DejaVuSans-73" x="951.404297"/>
    <use xlink:href="#DejaVuSans-75" x="1003.503906"/>
    <use xlink:href="#DejaVuSans-65" x="1066.882812"/>
    <use xlink:href="#DejaVuSans-20" x="1128.40625"/>
    <use xlink:href="#DejaVuSans-50" x="1160.193359"/>
    <use xlink:href="#DejaVuSans-72" x="1218.746094"/>
    <use xlink:href="#DejaVuSans-65" x="1257.609375"/>
    <use xlink:href="#DejaVuSans-64" x="1319.132812"/>
    <use xlink:href="#DejaVuSans-69" x="1382.609375"/>
    <use xlink:href="#DejaVuSans-63" x="1410.392578"/>
    <use xlink:href="#DejaVuSans-74" x="1465.373047"/>
    <use xlink:href="#DejaVuSans-69" x="1504.582031"/>
    <use xlink:href="#DejaVuSans-6f" x="1532.365234"/>
    <use xlink:href="#DejaVuSans-6e" x="1593.546875"/>
   </g>
  </g>
 </g>
 <defs>
  <clipPath id="p0963bede79">
   <rect x="46.789688" y="26.105371" width="357.12" height="266.112"/>
  </clipPath>
  <clipPath id="pc4b7d3c99f">
   <path d="M 423.309687 146.116339 
L 423.309687 130.276339 
L 439.149687 130.276339 
L 439.149687 146.116339 
"/>
  </clipPath>
  <clipPath id="p2aa6cf72d8">
   <path d="M 423.309687 163.956339 
L 423.309687 148.116339 
L 439.149687 148.116339 
L 439.149687 163.956339 
"/>
  </clipPath>
  <clipPath id="p05ab30bca4">
   <path d="M 423.309687 181.796339 
L 423.309687 165.956339 
L 439.149687 165.956339 
L 439.149687 181.796339 
"/>
  </clipPath>
  <clipPath id="pf587727803">
   <path d="M 423.309687 199.636339 
L 423.309687 183.796339 
L 439.149687 183.796339 
L 439.149687 199.636339 
"/>
  </clipPath>
 </defs>
</svg>
