<?xml version="1.0" encoding="utf-8" standalone="no"?>
<!DOCTYPE svg PUBLIC "-//W3C//DTD SVG 1.1//EN"
  "http://www.w3.org/Graphics/SVG/1.1/DTD/svg11.dtd">
<svg xmlns:xlink="http://www.w3.org/1999/xlink" width="530.145688pt" height="327.930058pt" viewBox="0 0 530.145688 327.930058" xmlns="http://www.w3.org/2000/svg" version="1.1">
 <metadata>
  <rdf:RDF xmlns:dc="http://purl.org/dc/elements/1.1/" xmlns:cc="http://creativecommons.org/ns#" xmlns:rdf="http://www.w3.org/1999/02/22-rdf-syntax-ns#">
   <cc:Work>
    <dc:type rdf:resource="http://purl.org/dc/dcmitype/StillImage"/>
    <dc:date>2022-05-09T09:49:40.339015</dc:date>
    <dc:format>image/svg+xml</dc:format>
    <dc:creator>
     <cc:Agent>
      <dc:title>Matplotlib v3.5.1, https://matplotlib.org/</dc:title>
     </cc:Agent>
    </dc:creator>
   </cc:Work>
  </rdf:RDF>
 </metadata>
 <defs>
  <style type="text/css">*{stroke-linejoin: round; stroke-linecap: butt}</style>
 </defs>
 <g id="figure_1">
  <g id="patch_1">
   <path d="M 0 327.930058 
L 530.145688 327.930058 
L 530.145688 0 
L 0 0 
z
" style="fill: #ffffff; stroke: #ffffff; stroke-linejoin: miter"/>
  </g>
  <g id="axes_1">
   <g id="patch_2">
    <path d="M 46.789688 292.217371 
L 403.909688 292.217371 
L 403.909688 26.105371 
L 46.789688 26.105371 
z
" style="fill: #ebebeb"/>
   </g>
   <g id="matplotlib.axis_1">
    <g id="xtick_1">
     <g id="line2d_1">
      <path d="M 155.612776 292.217371 
L 155.612776 26.105371 
" clip-path="url(#pc4c2a4353f)" style="fill: none; stroke: #ffffff"/>
     </g>
     <g id="line2d_2">
      <path d="M 155.612776 292.217371 
" style="fill: none; stroke: #333333; stroke-width: 1.5"/>
      <defs>
       <path id="m22b9bdeae1" d="M 0 0 
L 0 2.75 
" style="stroke: #000000"/>
      </defs>
      <g>
       <use xlink:href="#m22b9bdeae1" x="155.612776" y="292.217371" style="fill: #333333; stroke: #000000"/>
      </g>
     </g>
     <g id="text_1">
      <!-- 5000 -->
      <g style="fill: #4d4d4d" transform="translate(144.414776 303.853996)scale(0.088 -0.088)">
       <defs>
        <path id="DejaVuSans-35" d="M 691 4666 
L 3169 4666 
L 3169 4134 
L 1269 4134 
L 1269 2991 
Q 1406 3038 1543 3061 
Q 1681 3084 1819 3084 
Q 2600 3084 3056 2656 
Q 3513 2228 3513 1497 
Q 3513 744 3044 326 
Q 2575 -91 1722 -91 
Q 1428 -91 1123 -41 
Q 819 9 494 109 
L 494 744 
Q 775 591 1075 516 
Q 1375 441 1709 441 
Q 2250 441 2565 725 
Q 2881 1009 2881 1497 
Q 2881 1984 2565 2268 
Q 2250 2553 1709 2553 
Q 1456 2553 1204 2497 
Q 953 2441 691 2322 
L 691 4666 
z
" transform="scale(0.015625)"/>
        <path id="DejaVuSans-30" d="M 2034 4250 
Q 1547 4250 1301 3770 
Q 1056 3291 1056 2328 
Q 1056 1369 1301 889 
Q 1547 409 2034 409 
Q 2525 409 2770 889 
Q 3016 1369 3016 2328 
Q 3016 3291 2770 3770 
Q 2525 4250 2034 4250 
z
M 2034 4750 
Q 2819 4750 3233 4129 
Q 3647 3509 3647 2328 
Q 3647 1150 3233 529 
Q 2819 -91 2034 -91 
Q 1250 -91 836 529 
Q 422 1150 422 2328 
Q 422 3509 836 4129 
Q 1250 4750 2034 4750 
z
" transform="scale(0.015625)"/>
       </defs>
       <use xlink:href="#DejaVuSans-35"/>
       <use xlink:href="#DejaVuSans-30" x="63.623047"/>
       <use xlink:href="#DejaVuSans-30" x="127.246094"/>
       <use xlink:href="#DejaVuSans-30" x="190.869141"/>
      </g>
     </g>
    </g>
    <g id="xtick_2">
     <g id="line2d_3">
      <path d="M 283.500015 292.217371 
L 283.500015 26.105371 
" clip-path="url(#pc4c2a4353f)" style="fill: none; stroke: #ffffff"/>
     </g>
     <g id="line2d_4">
      <path d="M 283.500015 292.217371 
" style="fill: none; stroke: #333333; stroke-width: 1.5"/>
      <g>
       <use xlink:href="#m22b9bdeae1" x="283.500015" y="292.217371" style="fill: #333333; stroke: #000000"/>
      </g>
     </g>
     <g id="text_2">
      <!-- 10000 -->
      <g style="fill: #4d4d4d" transform="translate(269.502515 303.853996)scale(0.088 -0.088)">
       <defs>
        <path id="DejaVuSans-31" d="M 794 531 
L 1825 531 
L 1825 4091 
L 703 3866 
L 703 4441 
L 1819 4666 
L 2450 4666 
L 2450 531 
L 3481 531 
L 3481 0 
L 794 0 
L 794 531 
z
" transform="scale(0.015625)"/>
       </defs>
       <use xlink:href="#DejaVuSans-31"/>
       <use xlink:href="#DejaVuSans-30" x="63.623047"/>
       <use xlink:href="#DejaVuSans-30" x="127.246094"/>
       <use xlink:href="#DejaVuSans-30" x="190.869141"/>
       <use xlink:href="#DejaVuSans-30" x="254.492188"/>
      </g>
     </g>
    </g>
    <g id="xtick_3">
     <g id="line2d_5">
      <path d="M 91.669156 292.217371 
L 91.669156 26.105371 
" clip-path="url(#pc4c2a4353f)" style="fill: none; stroke: #ffffff; stroke-width: 0.5"/>
     </g>
    </g>
    <g id="xtick_4">
     <g id="line2d_6">
      <path d="M 219.556396 292.217371 
L 219.556396 26.105371 
" clip-path="url(#pc4c2a4353f)" style="fill: none; stroke: #ffffff; stroke-width: 0.5"/>
     </g>
    </g>
    <g id="xtick_5">
     <g id="line2d_7">
      <path d="M 347.443635 292.217371 
L 347.443635 26.105371 
" clip-path="url(#pc4c2a4353f)" style="fill: none; stroke: #ffffff; stroke-width: 0.5"/>
     </g>
    </g>
    <g id="text_3">
     <!-- Train Sample Count -->
     <g transform="translate(165.944063 318.442402)scale(0.11 -0.11)">
      <defs>
       <path id="DejaVuSans-54" d="M -19 4666 
L 3928 4666 
L 3928 4134 
L 2272 4134 
L 2272 0 
L 1638 0 
L 1638 4134 
L -19 4134 
L -19 4666 
z
" transform="scale(0.015625)"/>
       <path id="DejaVuSans-72" d="M 2631 2963 
Q 2534 3019 2420 3045 
Q 2306 3072 2169 3072 
Q 1681 3072 1420 2755 
Q 1159 2438 1159 1844 
L 1159 0 
L 581 0 
L 581 3500 
L 1159 3500 
L 1159 2956 
Q 1341 3275 1631 3429 
Q 1922 3584 2338 3584 
Q 2397 3584 2469 3576 
Q 2541 3569 2628 3553 
L 2631 2963 
z
" transform="scale(0.015625)"/>
       <path id="DejaVuSans-61" d="M 2194 1759 
Q 1497 1759 1228 1600 
Q 959 1441 959 1056 
Q 959 750 1161 570 
Q 1363 391 1709 391 
Q 2188 391 2477 730 
Q 2766 1069 2766 1631 
L 2766 1759 
L 2194 1759 
z
M 3341 1997 
L 3341 0 
L 2766 0 
L 2766 531 
Q 2569 213 2275 61 
Q 1981 -91 1556 -91 
Q 1019 -91 701 211 
Q 384 513 384 1019 
Q 384 1609 779 1909 
Q 1175 2209 1959 2209 
L 2766 2209 
L 2766 2266 
Q 2766 2663 2505 2880 
Q 2244 3097 1772 3097 
Q 1472 3097 1187 3025 
Q 903 2953 641 2809 
L 641 3341 
Q 956 3463 1253 3523 
Q 1550 3584 1831 3584 
Q 2591 3584 2966 3190 
Q 3341 2797 3341 1997 
z
" transform="scale(0.015625)"/>
       <path id="DejaVuSans-69" d="M 603 3500 
L 1178 3500 
L 1178 0 
L 603 0 
L 603 3500 
z
M 603 4863 
L 1178 4863 
L 1178 4134 
L 603 4134 
L 603 4863 
z
" transform="scale(0.015625)"/>
       <path id="DejaVuSans-6e" d="M 3513 2113 
L 3513 0 
L 2938 0 
L 2938 2094 
Q 2938 2591 2744 2837 
Q 2550 3084 2163 3084 
Q 1697 3084 1428 2787 
Q 1159 2491 1159 1978 
L 1159 0 
L 581 0 
L 581 3500 
L 1159 3500 
L 1159 2956 
Q 1366 3272 1645 3428 
Q 1925 3584 2291 3584 
Q 2894 3584 3203 3211 
Q 3513 2838 3513 2113 
z
" transform="scale(0.015625)"/>
       <path id="DejaVuSans-20" transform="scale(0.015625)"/>
       <path id="DejaVuSans-53" d="M 3425 4513 
L 3425 3897 
Q 3066 4069 2747 4153 
Q 2428 4238 2131 4238 
Q 1616 4238 1336 4038 
Q 1056 3838 1056 3469 
Q 1056 3159 1242 3001 
Q 1428 2844 1947 2747 
L 2328 2669 
Q 3034 2534 3370 2195 
Q 3706 1856 3706 1288 
Q 3706 609 3251 259 
Q 2797 -91 1919 -91 
Q 1588 -91 1214 -16 
Q 841 59 441 206 
L 441 856 
Q 825 641 1194 531 
Q 1563 422 1919 422 
Q 2459 422 2753 634 
Q 3047 847 3047 1241 
Q 3047 1584 2836 1778 
Q 2625 1972 2144 2069 
L 1759 2144 
Q 1053 2284 737 2584 
Q 422 2884 422 3419 
Q 422 4038 858 4394 
Q 1294 4750 2059 4750 
Q 2388 4750 2728 4690 
Q 3069 4631 3425 4513 
z
" transform="scale(0.015625)"/>
       <path id="DejaVuSans-6d" d="M 3328 2828 
Q 3544 3216 3844 3400 
Q 4144 3584 4550 3584 
Q 5097 3584 5394 3201 
Q 5691 2819 5691 2113 
L 5691 0 
L 5113 0 
L 5113 2094 
Q 5113 2597 4934 2840 
Q 4756 3084 4391 3084 
Q 3944 3084 3684 2787 
Q 3425 2491 3425 1978 
L 3425 0 
L 2847 0 
L 2847 2094 
Q 2847 2600 2669 2842 
Q 2491 3084 2119 3084 
Q 1678 3084 1418 2786 
Q 1159 2488 1159 1978 
L 1159 0 
L 581 0 
L 581 3500 
L 1159 3500 
L 1159 2956 
Q 1356 3278 1631 3431 
Q 1906 3584 2284 3584 
Q 2666 3584 2933 3390 
Q 3200 3197 3328 2828 
z
" transform="scale(0.015625)"/>
       <path id="DejaVuSans-70" d="M 1159 525 
L 1159 -1331 
L 581 -1331 
L 581 3500 
L 1159 3500 
L 1159 2969 
Q 1341 3281 1617 3432 
Q 1894 3584 2278 3584 
Q 2916 3584 3314 3078 
Q 3713 2572 3713 1747 
Q 3713 922 3314 415 
Q 2916 -91 2278 -91 
Q 1894 -91 1617 61 
Q 1341 213 1159 525 
z
M 3116 1747 
Q 3116 2381 2855 2742 
Q 2594 3103 2138 3103 
Q 1681 3103 1420 2742 
Q 1159 2381 1159 1747 
Q 1159 1113 1420 752 
Q 1681 391 2138 391 
Q 2594 391 2855 752 
Q 3116 1113 3116 1747 
z
" transform="scale(0.015625)"/>
       <path id="DejaVuSans-6c" d="M 603 4863 
L 1178 4863 
L 1178 0 
L 603 0 
L 603 4863 
z
" transform="scale(0.015625)"/>
       <path id="DejaVuSans-65" d="M 3597 1894 
L 3597 1613 
L 953 1613 
Q 991 1019 1311 708 
Q 1631 397 2203 397 
Q 2534 397 2845 478 
Q 3156 559 3463 722 
L 3463 178 
Q 3153 47 2828 -22 
Q 2503 -91 2169 -91 
Q 1331 -91 842 396 
Q 353 884 353 1716 
Q 353 2575 817 3079 
Q 1281 3584 2069 3584 
Q 2775 3584 3186 3129 
Q 3597 2675 3597 1894 
z
M 3022 2063 
Q 3016 2534 2758 2815 
Q 2500 3097 2075 3097 
Q 1594 3097 1305 2825 
Q 1016 2553 972 2059 
L 3022 2063 
z
" transform="scale(0.015625)"/>
       <path id="DejaVuSans-43" d="M 4122 4306 
L 4122 3641 
Q 3803 3938 3442 4084 
Q 3081 4231 2675 4231 
Q 1875 4231 1450 3742 
Q 1025 3253 1025 2328 
Q 1025 1406 1450 917 
Q 1875 428 2675 428 
Q 3081 428 3442 575 
Q 3803 722 4122 1019 
L 4122 359 
Q 3791 134 3420 21 
Q 3050 -91 2638 -91 
Q 1578 -91 968 557 
Q 359 1206 359 2328 
Q 359 3453 968 4101 
Q 1578 4750 2638 4750 
Q 3056 4750 3426 4639 
Q 3797 4528 4122 4306 
z
" transform="scale(0.015625)"/>
       <path id="DejaVuSans-6f" d="M 1959 3097 
Q 1497 3097 1228 2736 
Q 959 2375 959 1747 
Q 959 1119 1226 758 
Q 1494 397 1959 397 
Q 2419 397 2687 759 
Q 2956 1122 2956 1747 
Q 2956 2369 2687 2733 
Q 2419 3097 1959 3097 
z
M 1959 3584 
Q 2709 3584 3137 3096 
Q 3566 2609 3566 1747 
Q 3566 888 3137 398 
Q 2709 -91 1959 -91 
Q 1206 -91 779 398 
Q 353 888 353 1747 
Q 353 2609 779 3096 
Q 1206 3584 1959 3584 
z
" transform="scale(0.015625)"/>
       <path id="DejaVuSans-75" d="M 544 1381 
L 544 3500 
L 1119 3500 
L 1119 1403 
Q 1119 906 1312 657 
Q 1506 409 1894 409 
Q 2359 409 2629 706 
Q 2900 1003 2900 1516 
L 2900 3500 
L 3475 3500 
L 3475 0 
L 2900 0 
L 2900 538 
Q 2691 219 2414 64 
Q 2138 -91 1772 -91 
Q 1169 -91 856 284 
Q 544 659 544 1381 
z
M 1991 3584 
L 1991 3584 
z
" transform="scale(0.015625)"/>
       <path id="DejaVuSans-74" d="M 1172 4494 
L 1172 3500 
L 2356 3500 
L 2356 3053 
L 1172 3053 
L 1172 1153 
Q 1172 725 1289 603 
Q 1406 481 1766 481 
L 2356 481 
L 2356 0 
L 1766 0 
Q 1100 0 847 248 
Q 594 497 594 1153 
L 594 3053 
L 172 3053 
L 172 3500 
L 594 3500 
L 594 4494 
L 1172 4494 
z
" transform="scale(0.015625)"/>
      </defs>
      <use xlink:href="#DejaVuSans-54"/>
      <use xlink:href="#DejaVuSans-72" x="46.333984"/>
      <use xlink:href="#DejaVuSans-61" x="87.447266"/>
      <use xlink:href="#DejaVuSans-69" x="148.726562"/>
      <use xlink:href="#DejaVuSans-6e" x="176.509766"/>
      <use xlink:href="#DejaVuSans-20" x="239.888672"/>
      <use xlink:href="#DejaVuSans-53" x="271.675781"/>
      <use xlink:href="#DejaVuSans-61" x="335.152344"/>
      <use xlink:href="#DejaVuSans-6d" x="396.431641"/>
      <use xlink:href="#DejaVuSans-70" x="493.84375"/>
      <use xlink:href="#DejaVuSans-6c" x="557.320312"/>
      <use xlink:href="#DejaVuSans-65" x="585.103516"/>
      <use xlink:href="#DejaVuSans-20" x="646.626953"/>
      <use xlink:href="#DejaVuSans-43" x="678.414062"/>
      <use xlink:href="#DejaVuSans-6f" x="748.238281"/>
      <use xlink:href="#DejaVuSans-75" x="809.419922"/>
      <use xlink:href="#DejaVuSans-6e" x="872.798828"/>
      <use xlink:href="#DejaVuSans-74" x="936.177734"/>
     </g>
    </g>
   </g>
   <g id="matplotlib.axis_2">
    <g id="ytick_1">
     <g id="line2d_8">
      <path d="M 46.789688 280.534118 
L 403.909688 280.534118 
" clip-path="url(#pc4c2a4353f)" style="fill: none; stroke: #ffffff"/>
     </g>
     <g id="line2d_9">
      <path d="M 46.789688 280.534118 
" style="fill: none; stroke: #333333; stroke-width: 1.5"/>
      <defs>
       <path id="mc1e1c8ae72" d="M 0 0 
L -2.75 0 
" style="stroke: #000000"/>
      </defs>
      <g>
       <use xlink:href="#mc1e1c8ae72" x="46.789688" y="280.534118" style="fill: #333333; stroke: #000000"/>
      </g>
     </g>
     <g id="text_4">
      <!-- 0 -->
      <g style="fill: #4d4d4d" transform="translate(36.240688 282.962368)scale(0.088 -0.088)">
       <use xlink:href="#DejaVuSans-30"/>
      </g>
     </g>
    </g>
    <g id="ytick_2">
     <g id="line2d_10">
      <path d="M 46.789688 214.707502 
L 403.909688 214.707502 
" clip-path="url(#pc4c2a4353f)" style="fill: none; stroke: #ffffff"/>
     </g>
     <g id="line2d_11">
      <path d="M 46.789688 214.707502 
" style="fill: none; stroke: #333333; stroke-width: 1.5"/>
      <g>
       <use xlink:href="#mc1e1c8ae72" x="46.789688" y="214.707502" style="fill: #333333; stroke: #000000"/>
      </g>
     </g>
     <g id="text_5">
      <!-- 0.25 -->
      <g style="fill: #4d4d4d" transform="translate(22.245938 217.135752)scale(0.088 -0.088)">
       <defs>
        <path id="DejaVuSans-2e" d="M 684 794 
L 1344 794 
L 1344 0 
L 684 0 
L 684 794 
z
" transform="scale(0.015625)"/>
        <path id="DejaVuSans-32" d="M 1228 531 
L 3431 531 
L 3431 0 
L 469 0 
L 469 531 
Q 828 903 1448 1529 
Q 2069 2156 2228 2338 
Q 2531 2678 2651 2914 
Q 2772 3150 2772 3378 
Q 2772 3750 2511 3984 
Q 2250 4219 1831 4219 
Q 1534 4219 1204 4116 
Q 875 4013 500 3803 
L 500 4441 
Q 881 4594 1212 4672 
Q 1544 4750 1819 4750 
Q 2544 4750 2975 4387 
Q 3406 4025 3406 3419 
Q 3406 3131 3298 2873 
Q 3191 2616 2906 2266 
Q 2828 2175 2409 1742 
Q 1991 1309 1228 531 
z
" transform="scale(0.015625)"/>
       </defs>
       <use xlink:href="#DejaVuSans-30"/>
       <use xlink:href="#DejaVuSans-2e" x="63.623047"/>
       <use xlink:href="#DejaVuSans-32" x="95.410156"/>
       <use xlink:href="#DejaVuSans-35" x="159.033203"/>
      </g>
     </g>
    </g>
    <g id="ytick_3">
     <g id="line2d_12">
      <path d="M 46.789688 148.880886 
L 403.909688 148.880886 
" clip-path="url(#pc4c2a4353f)" style="fill: none; stroke: #ffffff"/>
     </g>
     <g id="line2d_13">
      <path d="M 46.789688 148.880886 
" style="fill: none; stroke: #333333; stroke-width: 1.5"/>
      <g>
       <use xlink:href="#mc1e1c8ae72" x="46.789688" y="148.880886" style="fill: #333333; stroke: #000000"/>
      </g>
     </g>
     <g id="text_6">
      <!-- 0.50 -->
      <g style="fill: #4d4d4d" transform="translate(22.245938 151.309136)scale(0.088 -0.088)">
       <use xlink:href="#DejaVuSans-30"/>
       <use xlink:href="#DejaVuSans-2e" x="63.623047"/>
       <use xlink:href="#DejaVuSans-35" x="95.410156"/>
       <use xlink:href="#DejaVuSans-30" x="159.033203"/>
      </g>
     </g>
    </g>
    <g id="ytick_4">
     <g id="line2d_14">
      <path d="M 46.789688 83.054269 
L 403.909688 83.054269 
" clip-path="url(#pc4c2a4353f)" style="fill: none; stroke: #ffffff"/>
     </g>
     <g id="line2d_15">
      <path d="M 46.789688 83.054269 
" style="fill: none; stroke: #333333; stroke-width: 1.5"/>
      <g>
       <use xlink:href="#mc1e1c8ae72" x="46.789688" y="83.054269" style="fill: #333333; stroke: #000000"/>
      </g>
     </g>
     <g id="text_7">
      <!-- 0.75 -->
      <g style="fill: #4d4d4d" transform="translate(22.245938 85.482519)scale(0.088 -0.088)">
       <defs>
        <path id="DejaVuSans-37" d="M 525 4666 
L 3525 4666 
L 3525 4397 
L 1831 0 
L 1172 0 
L 2766 4134 
L 525 4134 
L 525 4666 
z
" transform="scale(0.015625)"/>
       </defs>
       <use xlink:href="#DejaVuSans-30"/>
       <use xlink:href="#DejaVuSans-2e" x="63.623047"/>
       <use xlink:href="#DejaVuSans-37" x="95.410156"/>
       <use xlink:href="#DejaVuSans-35" x="159.033203"/>
      </g>
     </g>
    </g>
    <g id="ytick_5">
     <g id="line2d_16">
      <path d="M 46.789688 247.62081 
L 403.909688 247.62081 
" clip-path="url(#pc4c2a4353f)" style="fill: none; stroke: #ffffff; stroke-width: 0.5"/>
     </g>
    </g>
    <g id="ytick_6">
     <g id="line2d_17">
      <path d="M 46.789688 181.794194 
L 403.909688 181.794194 
" clip-path="url(#pc4c2a4353f)" style="fill: none; stroke: #ffffff; stroke-width: 0.5"/>
     </g>
    </g>
    <g id="ytick_7">
     <g id="line2d_18">
      <path d="M 46.789688 115.967577 
L 403.909688 115.967577 
" clip-path="url(#pc4c2a4353f)" style="fill: none; stroke: #ffffff; stroke-width: 0.5"/>
     </g>
    </g>
    <g id="ytick_8">
     <g id="line2d_19">
      <path d="M 46.789688 50.140961 
L 403.909688 50.140961 
" clip-path="url(#pc4c2a4353f)" style="fill: none; stroke: #ffffff; stroke-width: 0.5"/>
     </g>
    </g>
    <g id="text_8">
     <!-- Balanced Accuracy (Val Set) -->
     <g transform="translate(15.558281 234.774543)rotate(-90)scale(0.11 -0.11)">
      <defs>
       <path id="DejaVuSans-42" d="M 1259 2228 
L 1259 519 
L 2272 519 
Q 2781 519 3026 730 
Q 3272 941 3272 1375 
Q 3272 1813 3026 2020 
Q 2781 2228 2272 2228 
L 1259 2228 
z
M 1259 4147 
L 1259 2741 
L 2194 2741 
Q 2656 2741 2882 2914 
Q 3109 3088 3109 3444 
Q 3109 3797 2882 3972 
Q 2656 4147 2194 4147 
L 1259 4147 
z
M 628 4666 
L 2241 4666 
Q 2963 4666 3353 4366 
Q 3744 4066 3744 3513 
Q 3744 3084 3544 2831 
Q 3344 2578 2956 2516 
Q 3422 2416 3680 2098 
Q 3938 1781 3938 1306 
Q 3938 681 3513 340 
Q 3088 0 2303 0 
L 628 0 
L 628 4666 
z
" transform="scale(0.015625)"/>
       <path id="DejaVuSans-63" d="M 3122 3366 
L 3122 2828 
Q 2878 2963 2633 3030 
Q 2388 3097 2138 3097 
Q 1578 3097 1268 2742 
Q 959 2388 959 1747 
Q 959 1106 1268 751 
Q 1578 397 2138 397 
Q 2388 397 2633 464 
Q 2878 531 3122 666 
L 3122 134 
Q 2881 22 2623 -34 
Q 2366 -91 2075 -91 
Q 1284 -91 818 406 
Q 353 903 353 1747 
Q 353 2603 823 3093 
Q 1294 3584 2113 3584 
Q 2378 3584 2631 3529 
Q 2884 3475 3122 3366 
z
" transform="scale(0.015625)"/>
       <path id="DejaVuSans-64" d="M 2906 2969 
L 2906 4863 
L 3481 4863 
L 3481 0 
L 2906 0 
L 2906 525 
Q 2725 213 2448 61 
Q 2172 -91 1784 -91 
Q 1150 -91 751 415 
Q 353 922 353 1747 
Q 353 2572 751 3078 
Q 1150 3584 1784 3584 
Q 2172 3584 2448 3432 
Q 2725 3281 2906 2969 
z
M 947 1747 
Q 947 1113 1208 752 
Q 1469 391 1925 391 
Q 2381 391 2643 752 
Q 2906 1113 2906 1747 
Q 2906 2381 2643 2742 
Q 2381 3103 1925 3103 
Q 1469 3103 1208 2742 
Q 947 2381 947 1747 
z
" transform="scale(0.015625)"/>
       <path id="DejaVuSans-41" d="M 2188 4044 
L 1331 1722 
L 3047 1722 
L 2188 4044 
z
M 1831 4666 
L 2547 4666 
L 4325 0 
L 3669 0 
L 3244 1197 
L 1141 1197 
L 716 0 
L 50 0 
L 1831 4666 
z
" transform="scale(0.015625)"/>
       <path id="DejaVuSans-79" d="M 2059 -325 
Q 1816 -950 1584 -1140 
Q 1353 -1331 966 -1331 
L 506 -1331 
L 506 -850 
L 844 -850 
Q 1081 -850 1212 -737 
Q 1344 -625 1503 -206 
L 1606 56 
L 191 3500 
L 800 3500 
L 1894 763 
L 2988 3500 
L 3597 3500 
L 2059 -325 
z
" transform="scale(0.015625)"/>
       <path id="DejaVuSans-28" d="M 1984 4856 
Q 1566 4138 1362 3434 
Q 1159 2731 1159 2009 
Q 1159 1288 1364 580 
Q 1569 -128 1984 -844 
L 1484 -844 
Q 1016 -109 783 600 
Q 550 1309 550 2009 
Q 550 2706 781 3412 
Q 1013 4119 1484 4856 
L 1984 4856 
z
" transform="scale(0.015625)"/>
       <path id="DejaVuSans-56" d="M 1831 0 
L 50 4666 
L 709 4666 
L 2188 738 
L 3669 4666 
L 4325 4666 
L 2547 0 
L 1831 0 
z
" transform="scale(0.015625)"/>
       <path id="DejaVuSans-29" d="M 513 4856 
L 1013 4856 
Q 1481 4119 1714 3412 
Q 1947 2706 1947 2009 
Q 1947 1309 1714 600 
Q 1481 -109 1013 -844 
L 513 -844 
Q 928 -128 1133 580 
Q 1338 1288 1338 2009 
Q 1338 2731 1133 3434 
Q 928 4138 513 4856 
z
" transform="scale(0.015625)"/>
      </defs>
      <use xlink:href="#DejaVuSans-42"/>
      <use xlink:href="#DejaVuSans-61" x="68.603516"/>
      <use xlink:href="#DejaVuSans-6c" x="129.882812"/>
      <use xlink:href="#DejaVuSans-61" x="157.666016"/>
      <use xlink:href="#DejaVuSans-6e" x="218.945312"/>
      <use xlink:href="#DejaVuSans-63" x="282.324219"/>
      <use xlink:href="#DejaVuSans-65" x="337.304688"/>
      <use xlink:href="#DejaVuSans-64" x="398.828125"/>
      <use xlink:href="#DejaVuSans-20" x="462.304688"/>
      <use xlink:href="#DejaVuSans-41" x="494.091797"/>
      <use xlink:href="#DejaVuSans-63" x="560.75"/>
      <use xlink:href="#DejaVuSans-63" x="615.730469"/>
      <use xlink:href="#DejaVuSans-75" x="670.710938"/>
      <use xlink:href="#DejaVuSans-72" x="734.089844"/>
      <use xlink:href="#DejaVuSans-61" x="775.203125"/>
      <use xlink:href="#DejaVuSans-63" x="836.482422"/>
      <use xlink:href="#DejaVuSans-79" x="891.462891"/>
      <use xlink:href="#DejaVuSans-20" x="950.642578"/>
      <use xlink:href="#DejaVuSans-28" x="982.429688"/>
      <use xlink:href="#DejaVuSans-56" x="1021.443359"/>
      <use xlink:href="#DejaVuSans-61" x="1082.101562"/>
      <use xlink:href="#DejaVuSans-6c" x="1143.380859"/>
      <use xlink:href="#DejaVuSans-20" x="1171.164062"/>
      <use xlink:href="#DejaVuSans-53" x="1202.951172"/>
      <use xlink:href="#DejaVuSans-65" x="1266.427734"/>
      <use xlink:href="#DejaVuSans-74" x="1327.951172"/>
      <use xlink:href="#DejaVuSans-29" x="1367.160156"/>
     </g>
    </g>
   </g>
   <g id="PolyCollection_1">
    <path d="M 63.022415 215.416495 
L 63.022415 255.794116 
L 63.124725 255.59874 
L 63.150302 255.549924 
L 63.175879 255.50112 
L 63.201457 255.452328 
L 63.329344 255.208536 
L 63.354922 255.159812 
L 63.380499 255.111099 
L 63.431654 255.013709 
L 63.559541 254.770432 
L 63.713006 254.478879 
L 98.319293 199.781698 
L 98.54949 199.491141 
L 98.575067 199.458912 
L 98.600645 199.426694 
L 98.626222 199.394489 
L 98.677377 199.330116 
L 98.958729 198.976956 
L 98.984306 198.944926 
L 99.009884 198.912907 
L 99.061039 198.848907 
L 99.137771 198.753001 
L 99.419123 198.40229 
L 99.700475 198.05306 
L 133.641748 163.558069 
L 133.948678 163.289767 
L 133.999833 163.245088 
L 134.050987 163.20042 
L 134.076565 163.17809 
L 134.153297 163.111115 
L 134.588114 162.733461 
L 134.613691 162.711357 
L 134.664846 162.667187 
L 134.716001 162.623066 
L 134.843888 162.512977 
L 135.278705 162.140946 
L 135.687944 161.793963 
L 168.938626 139.605971 
L 169.373443 139.327082 
L 169.424598 139.294151 
L 169.450175 139.277676 
L 169.475753 139.261194 
L 169.552485 139.211709 
L 169.629217 139.162165 
L 170.191921 138.796982 
L 170.243076 138.763618 
L 170.294231 138.730225 
L 170.396541 138.663353 
L 170.550005 138.563013 
L 171.138287 138.179366 
L 171.700991 137.813931 
L 204.261082 120.798 
L 204.772631 120.553467 
L 204.874941 120.504219 
L 204.926095 120.479551 
L 205.002828 120.442493 
L 205.105138 120.392977 
L 205.821306 120.042862 
L 205.872461 120.01761 
L 205.949193 119.979669 
L 206.077081 119.916264 
L 206.2817 119.814366 
L 206.997869 119.453193 
L 207.68846 119.097849 
L 239.55796 101.129873 
L 240.197396 100.806242 
L 240.299706 100.754788 
L 240.376438 100.716258 
L 240.45317 100.677779 
L 240.581058 100.613762 
L 241.450691 100.182264 
L 241.501846 100.15709 
L 241.604156 100.106814 
L 241.732043 100.0441 
L 241.987817 99.919114 
L 242.857451 99.49858 
L 243.675929 99.109082 
L 274.854838 88.076338 
L 275.596584 87.869581 
L 275.724471 87.834032 
L 275.750048 87.826927 
L 275.801203 87.812733 
L 275.929091 87.777333 
L 276.056978 87.742054 
L 277.054498 87.471028 
L 277.131231 87.450483 
L 277.23354 87.423155 
L 277.412583 87.375516 
L 277.693935 87.301123 
L 278.717032 87.035406 
L 279.688975 86.789866 
L 310.177293 81.106303 
L 311.021349 80.936055 
L 311.149236 80.909799 
L 311.174814 80.904533 
L 311.251546 80.888705 
L 311.379433 80.862224 
L 311.532898 80.830281 
L 312.683883 80.593362 
L 312.760615 80.577804 
L 312.888503 80.551941 
L 313.067545 80.51587 
L 313.400052 80.449307 
L 314.576614 80.218199 
L 315.676445 80.008368 
L 345.474171 76.676069 
L 346.420537 76.655132 
L 346.574002 76.652335 
L 346.599579 76.651886 
L 346.701889 76.650134 
L 346.829776 76.648051 
L 347.008818 76.645332 
L 348.313268 76.632595 
L 348.39 76.632238 
L 348.543465 76.631656 
L 348.748085 76.631155 
L 349.106169 76.631169 
L 350.436196 76.642163 
L 351.663914 76.668023 
L 380.796627 82.324598 
L 381.845302 82.710533 
L 382.024344 82.77762 
L 382.049922 82.787232 
L 382.152231 82.825752 
L 382.305696 82.883744 
L 382.510316 82.961463 
L 383.942653 83.518103 
L 384.019385 83.548542 
L 384.198427 83.619812 
L 384.428624 83.711945 
L 384.837864 83.877126 
L 386.295778 84.47994 
L 387.67696 85.071521 
L 387.67696 41.471265 
L 387.67696 41.471265 
L 386.295778 42.02755 
L 384.837864 42.602902 
L 384.428624 42.76217 
L 384.198427 42.851322 
L 384.019385 42.920444 
L 383.942653 42.950009 
L 382.510316 43.495348 
L 382.305696 43.572228 
L 382.152231 43.629718 
L 382.049922 43.667964 
L 382.024344 43.677515 
L 381.845302 43.744259 
L 380.796627 44.131143 
L 351.663914 51.703108 
L 350.436196 51.884036 
L 349.106169 52.069278 
L 348.748085 52.117309 
L 348.543465 52.144388 
L 348.39 52.164504 
L 348.313268 52.1745 
L 347.008818 52.338343 
L 346.829776 52.359963 
L 346.701889 52.375282 
L 346.599579 52.387464 
L 346.574002 52.390499 
L 346.420537 52.408626 
L 345.474171 52.51728 
L 315.676445 54.989843 
L 314.576614 55.105092 
L 313.400052 55.2342 
L 313.067545 55.271826 
L 312.888503 55.292301 
L 312.760615 55.307018 
L 312.683883 55.315885 
L 311.532898 55.452318 
L 311.379433 55.470932 
L 311.251546 55.486424 
L 311.174814 55.495712 
L 311.149236 55.498807 
L 311.021349 55.51427 
L 310.177293 55.615978 
L 279.688975 60.065725 
L 278.717032 60.293166 
L 277.693935 60.544729 
L 277.412583 60.616197 
L 277.23354 60.662205 
L 277.131231 60.688682 
L 277.054498 60.708629 
L 276.056978 60.975091 
L 275.929091 61.010233 
L 275.801203 61.045603 
L 275.750048 61.059816 
L 275.724471 61.066935 
L 275.596584 61.102688 
L 274.854838 61.315142 
L 243.675929 74.987172 
L 242.857451 75.388167 
L 241.987817 75.812991 
L 241.732043 75.93768 
L 241.604156 75.999978 
L 241.501846 76.049795 
L 241.450691 76.074695 
L 240.581058 76.497225 
L 240.45317 76.559234 
L 240.376438 76.596424 
L 240.299706 76.633601 
L 240.197396 76.683153 
L 239.55796 76.992356 
L 207.68846 92.211461 
L 206.997869 92.570315 
L 206.2817 92.944019 
L 206.077081 93.051059 
L 205.949193 93.118016 
L 205.872461 93.15821 
L 205.821306 93.185015 
L 205.105138 93.560941 
L 205.002828 93.614739 
L 204.926095 93.655101 
L 204.874941 93.682016 
L 204.772631 93.735862 
L 204.261082 94.005384 
L 171.700991 111.058149 
L 171.138287 111.413659 
L 170.550005 111.792491 
L 170.396541 111.892557 
L 170.294231 111.959417 
L 170.243076 111.992828 
L 170.191921 112.026227 
L 169.629217 112.392833 
L 169.552485 112.442717 
L 169.475753 112.492575 
L 169.450175 112.509189 
L 169.424598 112.5258 
L 169.373443 112.559014 
L 168.938626 112.840899 
L 135.687944 136.313507 
L 135.278705 136.693457 
L 134.843888 137.101673 
L 134.716001 137.222633 
L 134.664846 137.271132 
L 134.613691 137.319697 
L 134.588114 137.344004 
L 134.153297 137.759768 
L 134.076565 137.833575 
L 134.050987 137.858182 
L 133.999833 137.907404 
L 133.948678 137.956636 
L 133.641748 138.252232 
L 99.700475 173.737662 
L 99.419123 174.056898 
L 99.137771 174.376521 
L 99.061039 174.463758 
L 99.009884 174.521932 
L 98.984306 174.551023 
L 98.958729 174.580118 
L 98.677377 174.90037 
L 98.626222 174.958639 
L 98.600645 174.987778 
L 98.575067 175.01692 
L 98.54949 175.046064 
L 98.319293 175.308403 
L 63.713006 214.63463 
L 63.559541 214.808351 
L 63.431654 214.95313 
L 63.380499 215.011045 
L 63.354922 215.040003 
L 63.329344 215.068961 
L 63.201457 215.213759 
L 63.175879 215.24272 
L 63.150302 215.271681 
L 63.124725 215.300643 
L 63.022415 215.416495 
z
" clip-path="url(#pc4c2a4353f)" style="fill: #999999; fill-opacity: 0.4"/>
   </g>
   <g id="line2d_20">
    <path d="M 63.022415 235.605305 
L 63.713006 234.556754 
L 99.419123 186.229594 
L 99.700475 185.895361 
L 134.843888 149.807325 
L 135.687944 149.053735 
L 171.700991 124.43604 
L 207.68846 105.654655 
L 242.857451 87.443374 
L 243.675929 87.048127 
L 275.801203 74.429168 
L 279.688975 73.427796 
L 315.676445 67.499106 
L 349.106169 64.350224 
L 351.663914 64.185565 
L 383.942653 63.234056 
L 387.67696 63.271393 
L 387.67696 63.271393 
" clip-path="url(#pc4c2a4353f)" style="fill: none; stroke: #db5f57; stroke-width: 1.772454; stroke-linejoin: miter"/>
   </g>
   <g id="PolyCollection_2">
    <path d="M 63.022415 190.005143 
L 63.022415 232.05208 
L 63.124725 231.860264 
L 63.150302 231.812339 
L 63.175879 231.764426 
L 63.201457 231.716525 
L 63.329344 231.477195 
L 63.354922 231.429364 
L 63.380499 231.381545 
L 63.431654 231.285941 
L 63.559541 231.047139 
L 63.713006 230.760964 
L 98.319293 177.562827 
L 98.54949 177.284134 
L 98.575067 177.253224 
L 98.600645 177.222327 
L 98.626222 177.191442 
L 98.677377 177.129711 
L 98.958729 176.791114 
L 98.984306 176.76041 
L 99.009884 176.729718 
L 99.061039 176.668373 
L 99.137771 176.576452 
L 99.419123 176.240387 
L 99.700475 175.905853 
L 133.641748 143.350416 
L 133.948678 143.099498 
L 133.999833 143.057714 
L 134.050987 143.015939 
L 134.076565 142.995055 
L 134.153297 142.932419 
L 134.588114 142.579528 
L 134.613691 142.558893 
L 134.664846 142.517662 
L 134.716001 142.476486 
L 134.843888 142.373782 
L 135.278705 142.027087 
L 135.687944 141.704268 
L 168.938626 121.787782 
L 169.373443 121.532673 
L 169.424598 121.502511 
L 169.450175 121.487418 
L 169.475753 121.472318 
L 169.552485 121.426967 
L 169.629217 121.381544 
L 170.191921 121.046166 
L 170.243076 121.015474 
L 170.294231 120.984747 
L 170.396541 120.92319 
L 170.550005 120.83079 
L 171.138287 120.477384 
L 171.700991 120.140581 
L 204.261082 104.484054 
L 204.772631 104.256457 
L 204.874941 104.210569 
L 204.926095 104.187577 
L 205.002828 104.15303 
L 205.105138 104.106855 
L 205.821306 103.77986 
L 205.872461 103.756242 
L 205.949193 103.720747 
L 206.077081 103.661407 
L 206.2817 103.565983 
L 206.997869 103.227159 
L 207.68846 102.892901 
L 239.55796 85.103205 
L 240.197396 84.777887 
L 240.299706 84.726182 
L 240.376438 84.687467 
L 240.45317 84.648806 
L 240.581058 84.584491 
L 241.450691 84.151213 
L 241.501846 84.125949 
L 241.604156 84.075495 
L 241.732043 84.012569 
L 241.987817 83.887186 
L 242.857451 83.465629 
L 243.675929 83.075655 
L 274.854838 72.737561 
L 275.596584 72.572077 
L 275.724471 72.543797 
L 275.750048 72.53815 
L 275.801203 72.526873 
L 275.929091 72.498769 
L 276.056978 72.470793 
L 277.054498 72.256926 
L 277.131231 72.240793 
L 277.23354 72.219352 
L 277.412583 72.182025 
L 277.693935 72.123864 
L 278.717032 71.917465 
L 279.688975 71.728737 
L 310.177293 68.27787 
L 311.021349 68.186704 
L 311.149236 68.172529 
L 311.174814 68.169683 
L 311.251546 68.16112 
L 311.379433 68.146769 
L 311.532898 68.129415 
L 312.683883 68.002657 
L 312.760615 67.994486 
L 312.888503 67.980945 
L 313.067545 67.962151 
L 313.400052 67.92775 
L 314.576614 67.811272 
L 315.676445 67.709777 
L 345.474171 67.865171 
L 346.420537 67.976479 
L 346.574002 67.995277 
L 346.599579 67.99843 
L 346.701889 68.011103 
L 346.829776 68.027076 
L 347.008818 68.049685 
L 348.313268 68.223229 
L 348.39 68.233926 
L 348.543465 68.255485 
L 348.748085 68.284573 
L 349.106169 68.336538 
L 350.436196 68.542312 
L 351.663914 68.750528 
L 380.796627 79.463968 
L 381.845302 80.057544 
L 382.024344 80.160253 
L 382.049922 80.174958 
L 382.152231 80.23386 
L 382.305696 80.322455 
L 382.510316 80.441035 
L 383.942653 81.285516 
L 384.019385 81.331465 
L 384.198427 81.438959 
L 384.428624 81.577738 
L 384.837864 81.826046 
L 386.295778 82.727082 
L 387.67696 83.604175 
L 387.67696 38.201371 
L 387.67696 38.201371 
L 386.295778 38.5196 
L 384.837864 38.845438 
L 384.428624 38.934993 
L 384.198427 38.984994 
L 384.019385 39.023696 
L 383.942653 39.040232 
L 382.510316 39.343288 
L 382.305696 39.385699 
L 382.152231 39.41736 
L 382.049922 39.438398 
L 382.024344 39.443648 
L 381.845302 39.480303 
L 380.796627 39.691496 
L 351.663914 42.753498 
L 350.436196 42.760621 
L 349.106169 42.759194 
L 348.748085 42.75726 
L 348.543465 42.75585 
L 348.39 42.754633 
L 348.313268 42.753973 
L 347.008818 42.737783 
L 346.829776 42.734856 
L 346.701889 42.732665 
L 346.599579 42.730854 
L 346.574002 42.730393 
L 346.420537 42.727559 
L 345.474171 42.707594 
L 315.676445 41.656922 
L 314.576614 41.659923 
L 313.400052 41.670185 
L 313.067545 41.674453 
L 312.888503 41.677006 
L 312.760615 41.67894 
L 312.683883 41.680144 
L 311.532898 41.702262 
L 311.379433 41.705734 
L 311.251546 41.708643 
L 311.174814 41.710395 
L 311.149236 41.71098 
L 311.021349 41.713916 
L 310.177293 41.733709 
L 279.688975 43.899751 
L 278.717032 44.069631 
L 277.693935 44.261292 
L 277.412583 44.316407 
L 277.23354 44.352035 
L 277.131231 44.37259 
L 277.054498 44.3881 
L 276.056978 44.597214 
L 275.929091 44.625048 
L 275.801203 44.653121 
L 275.750048 44.664416 
L 275.724471 44.670079 
L 275.596584 44.698572 
L 274.854838 44.869988 
L 243.675929 57.956483 
L 242.857451 58.358429 
L 241.987817 58.784454 
L 241.732043 58.909526 
L 241.604156 58.97202 
L 241.501846 59.021995 
L 241.450691 59.046976 
L 240.581058 59.470915 
L 240.45317 59.533138 
L 240.376438 59.570456 
L 240.299706 59.607763 
L 240.197396 59.657487 
L 239.55796 59.96778 
L 207.68846 74.894959 
L 206.997869 75.232873 
L 206.2817 75.584746 
L 206.077081 75.685525 
L 205.949193 75.748564 
L 205.872461 75.786405 
L 205.821306 75.81164 
L 205.105138 76.165512 
L 205.002828 76.216147 
L 204.926095 76.254135 
L 204.874941 76.279466 
L 204.772631 76.330142 
L 204.261082 76.583761 
L 171.700991 92.278646 
L 171.138287 92.605114 
L 170.550005 92.953506 
L 170.396541 93.045619 
L 170.294231 93.107164 
L 170.243076 93.13791 
L 170.191921 93.168638 
L 169.629217 93.505499 
L 169.552485 93.551275 
L 169.475753 93.597014 
L 169.450175 93.612253 
L 169.424598 93.627487 
L 169.373443 93.657943 
L 168.938626 93.916172 
L 135.687944 115.170384 
L 135.278705 115.527533 
L 134.843888 115.911908 
L 134.716001 116.025933 
L 134.664846 116.071668 
L 134.613691 116.117475 
L 134.588114 116.140405 
L 134.153297 116.532982 
L 134.076565 116.602733 
L 134.050987 116.625988 
L 133.999833 116.672504 
L 133.948678 116.719029 
L 133.641748 116.998369 
L 99.700475 150.585194 
L 99.419123 150.888494 
L 99.137771 151.192185 
L 99.061039 151.275078 
L 99.009884 151.330356 
L 98.984306 151.358 
L 98.958729 151.385647 
L 98.677377 151.689976 
L 98.626222 151.745351 
L 98.600645 151.773042 
L 98.575067 151.800738 
L 98.54949 151.828435 
L 98.319293 152.077742 
L 63.713006 189.26945 
L 63.559541 189.432922 
L 63.431654 189.569155 
L 63.380499 189.62365 
L 63.354922 189.650898 
L 63.329344 189.678146 
L 63.201457 189.81439 
L 63.175879 189.841639 
L 63.150302 189.868889 
L 63.124725 189.896139 
L 63.022415 190.005143 
z
" clip-path="url(#pc4c2a4353f)" style="fill: #999999; fill-opacity: 0.4"/>
   </g>
   <g id="line2d_21">
    <path d="M 63.022415 211.028611 
L 63.713006 210.015207 
L 99.419123 163.56444 
L 99.700475 163.245523 
L 134.843888 129.142845 
L 135.687944 128.437326 
L 171.700991 106.209613 
L 207.68846 88.89393 
L 243.675929 70.516069 
L 275.596584 58.635325 
L 279.688975 57.814244 
L 313.400052 54.798968 
L 315.676445 54.683349 
L 347.008818 55.393734 
L 351.663914 55.752013 
L 382.510316 59.892162 
L 387.67696 60.902773 
L 387.67696 60.902773 
" clip-path="url(#pc4c2a4353f)" style="fill: none; stroke: #57db5f; stroke-width: 1.772454; stroke-linejoin: miter"/>
   </g>
   <g id="PolyCollection_3">
    <path d="M 63.022415 240.068191 
L 63.022415 280.121371 
L 63.124725 279.944591 
L 63.150302 279.90042 
L 63.175879 279.856258 
L 63.201457 279.812105 
L 63.329344 279.59148 
L 63.354922 279.547383 
L 63.380499 279.503295 
L 63.431654 279.415147 
L 63.559541 279.194942 
L 63.713006 278.931004 
L 98.319293 228.510732 
L 98.54949 228.235686 
L 98.575067 228.20517 
L 98.600645 228.174662 
L 98.626222 228.144165 
L 98.677377 228.0832 
L 98.958729 227.748585 
L 98.984306 227.718223 
L 99.009884 227.687872 
L 99.061039 227.627197 
L 99.137771 227.536258 
L 99.419123 227.203552 
L 99.700475 226.871998 
L 133.641748 192.617752 
L 133.948678 192.339127 
L 133.999833 192.292713 
L 134.050987 192.246307 
L 134.076565 192.223106 
L 134.153297 192.153514 
L 134.588114 191.760092 
L 134.613691 191.737005 
L 134.664846 191.690849 
L 134.716001 191.644717 
L 134.843888 191.529493 
L 135.278705 191.138857 
L 135.687944 190.772771 
L 168.938626 164.380028 
L 169.373443 164.044404 
L 169.424598 164.004851 
L 169.450175 163.985069 
L 169.475753 163.965283 
L 169.552485 163.905903 
L 169.629217 163.84649 
L 170.191921 163.409733 
L 170.243076 163.369933 
L 170.294231 163.330117 
L 170.396541 163.250435 
L 170.550005 163.130848 
L 171.138287 162.672183 
L 171.700991 162.233189 
L 204.261082 139.671115 
L 204.772631 139.34653 
L 204.874941 139.2814 
L 204.926095 139.248807 
L 205.002828 139.199882 
L 205.105138 139.134583 
L 205.821306 138.675242 
L 205.872461 138.642274 
L 205.949193 138.592781 
L 206.077081 138.510181 
L 206.2817 138.377726 
L 206.997869 137.91113 
L 207.68846 137.456454 
L 239.55796 114.488988 
L 240.197396 114.063396 
L 240.299706 113.995652 
L 240.376438 113.944909 
L 240.45317 113.89422 
L 240.581058 113.809863 
L 241.450691 113.240344 
L 241.501846 113.207068 
L 241.604156 113.140593 
L 241.732043 113.057642 
L 241.987817 112.892216 
L 242.857451 112.334574 
L 243.675929 111.816605 
L 274.854838 96.721358 
L 275.596584 96.447705 
L 275.724471 96.400809 
L 275.750048 96.391441 
L 275.801203 96.372724 
L 275.929091 96.32604 
L 276.056978 96.279512 
L 277.054498 95.92189 
L 277.131231 95.894767 
L 277.23354 95.858688 
L 277.412583 95.795783 
L 277.693935 95.697532 
L 278.717032 95.346377 
L 279.688975 95.021556 
L 310.177293 87.562739 
L 311.021349 87.35716 
L 311.149236 87.32559 
L 311.174814 87.319262 
L 311.251546 87.300251 
L 311.379433 87.268475 
L 311.532898 87.230188 
L 312.683883 86.946507 
L 312.760615 86.927885 
L 312.888503 86.896931 
L 313.067545 86.853763 
L 313.400052 86.774118 
L 314.576614 86.497745 
L 315.676445 86.247054 
L 345.474171 82.390961 
L 346.420537 82.373264 
L 346.574002 82.371117 
L 346.599579 82.370778 
L 346.701889 82.369482 
L 346.829776 82.367989 
L 347.008818 82.366138 
L 348.313268 82.361141 
L 348.39 82.361317 
L 348.543465 82.361828 
L 348.748085 82.362838 
L 349.106169 82.365637 
L 350.436196 82.388467 
L 351.663914 82.427339 
L 380.796627 88.964942 
L 381.845302 89.402704 
L 382.024344 89.478778 
L 382.049922 89.489677 
L 382.152231 89.533354 
L 382.305696 89.599105 
L 382.510316 89.687216 
L 383.942653 90.318067 
L 384.019385 90.352555 
L 384.198427 90.433298 
L 384.428624 90.537672 
L 384.837864 90.724776 
L 386.295778 91.407395 
L 387.67696 92.077028 
L 387.67696 48.827108 
L 387.67696 48.827108 
L 386.295778 49.296119 
L 384.837864 49.782199 
L 384.428624 49.916937 
L 384.198427 49.992392 
L 384.019385 50.050911 
L 383.942653 50.075946 
L 382.510316 50.538219 
L 382.305696 50.603465 
L 382.152231 50.652268 
L 382.049922 50.68474 
L 382.024344 50.692851 
L 381.845302 50.749533 
L 380.796627 51.078379 
L 351.663914 57.663021 
L 350.436196 57.829277 
L 349.106169 58.001105 
L 348.748085 58.045966 
L 348.543465 58.07132 
L 348.39 58.090186 
L 348.313268 58.099572 
L 347.008818 58.254461 
L 346.829776 58.275061 
L 346.701889 58.289683 
L 346.599579 58.301326 
L 346.574002 58.304229 
L 346.420537 58.321584 
L 345.474171 58.426292 
L 315.676445 61.429559 
L 314.576614 61.586427 
L 313.400052 61.761619 
L 313.067545 61.81256 
L 312.888503 61.840256 
L 312.760615 61.860154 
L 312.683883 61.872139 
L 311.532898 62.056143 
L 311.379433 62.081206 
L 311.251546 62.102083 
L 311.174814 62.114606 
L 311.149236 62.11878 
L 311.021349 62.139644 
L 310.177293 62.277234 
L 279.688975 68.512149 
L 278.717032 68.819016 
L 277.693935 69.156132 
L 277.412583 69.251481 
L 277.23354 69.312767 
L 277.131231 69.348002 
L 277.054498 69.374532 
L 276.056978 69.727627 
L 275.929091 69.77402 
L 275.801203 69.820673 
L 275.750048 69.839408 
L 275.724471 69.848791 
L 275.596584 69.89589 
L 274.854838 70.175194 
L 243.675929 87.888519 
L 242.857451 88.417893 
L 241.987817 88.979791 
L 241.732043 89.144921 
L 241.604156 89.227461 
L 241.501846 89.29348 
L 241.450691 89.326485 
L 240.581058 89.887107 
L 240.45317 89.969473 
L 240.376438 90.018883 
L 240.299706 90.068284 
L 240.197396 90.134141 
L 239.55796 90.545421 
L 207.68846 110.786103 
L 206.997869 111.244261 
L 206.2817 111.723287 
L 206.077081 111.860844 
L 205.949193 111.946966 
L 205.872461 111.998695 
L 205.821306 112.033203 
L 205.105138 112.518148 
L 205.002828 112.587695 
L 204.926095 112.639897 
L 204.874941 112.674719 
L 204.772631 112.744409 
L 204.261082 113.093782 
L 171.700991 135.692396 
L 171.138287 136.121544 
L 170.550005 136.575433 
L 170.396541 136.694748 
L 170.294231 136.774417 
L 170.243076 136.814252 
L 170.191921 136.854086 
L 169.629217 137.292255 
L 169.552485 137.352005 
L 169.475753 137.411755 
L 169.450175 137.431672 
L 169.424598 137.451589 
L 169.373443 137.491423 
L 168.938626 137.830019 
L 135.687944 165.497055 
L 135.278705 165.895845 
L 134.843888 166.322373 
L 134.716001 166.448381 
L 134.664846 166.498856 
L 134.613691 166.549372 
L 134.588114 166.574645 
L 134.153297 167.00587 
L 134.076565 167.08224 
L 134.050987 167.107699 
L 133.999833 167.158623 
L 133.948678 167.209552 
L 133.641748 167.515252 
L 99.700475 202.75198 
L 99.419123 203.05378 
L 99.137771 203.355648 
L 99.061039 203.437987 
L 99.009884 203.492883 
L 98.984306 203.520331 
L 98.958729 203.54778 
L 98.677377 203.849752 
L 98.626222 203.904662 
L 98.600645 203.932118 
L 98.575067 203.959575 
L 98.54949 203.987031 
L 98.319293 204.234085 
L 63.713006 239.406911 
L 63.559541 239.553964 
L 63.431654 239.676464 
L 63.380499 239.725453 
L 63.354922 239.749944 
L 63.329344 239.774435 
L 63.201457 239.896861 
L 63.175879 239.921342 
L 63.150302 239.945821 
L 63.124725 239.970298 
L 63.022415 240.068191 
z
" clip-path="url(#pc4c2a4353f)" style="fill: #999999; fill-opacity: 0.4"/>
   </g>
   <g id="line2d_22">
    <path d="M 63.022415 260.094781 
L 63.713006 259.168957 
L 99.700475 214.811989 
L 135.278705 178.517351 
L 135.687944 178.134913 
L 171.700991 148.962793 
L 207.68846 124.121279 
L 243.675929 99.852562 
L 275.596584 83.171798 
L 279.688975 81.766853 
L 314.576614 74.042086 
L 315.676445 73.838307 
L 347.008818 70.310299 
L 351.663914 70.04518 
L 382.510316 70.112717 
L 387.67696 70.452068 
L 387.67696 70.452068 
" clip-path="url(#pc4c2a4353f)" style="fill: none; stroke: #5f57db; stroke-width: 1.772454; stroke-linejoin: miter"/>
   </g>
   <g id="patch_3">
    <path d="M 411.109688 202.916339 
L 522.945688 202.916339 
L 522.945688 111.950402 
L 411.109688 111.950402 
z
" style="fill: #ffffff"/>
   </g>
   <g id="text_9">
    <!-- Model -->
    <g transform="translate(423.309687 135.543996)scale(0.11 -0.11)">
     <defs>
      <path id="DejaVuSans-4d" d="M 628 4666 
L 1569 4666 
L 2759 1491 
L 3956 4666 
L 4897 4666 
L 4897 0 
L 4281 0 
L 4281 4097 
L 3078 897 
L 2444 897 
L 1241 4097 
L 1241 0 
L 628 0 
L 628 4666 
z
" transform="scale(0.015625)"/>
     </defs>
     <use xlink:href="#DejaVuSans-4d"/>
     <use xlink:href="#DejaVuSans-6f" x="86.279297"/>
     <use xlink:href="#DejaVuSans-64" x="147.460938"/>
     <use xlink:href="#DejaVuSans-65" x="210.9375"/>
     <use xlink:href="#DejaVuSans-6c" x="272.460938"/>
    </g>
   </g>
   <g id="patch_4">
    <path d="M 423.309687 155.036339 
L 439.149687 155.036339 
L 439.149687 139.196339 
L 423.309687 139.196339 
z
" clip-path="url(#pa4f6fbebf4)" style="fill: #f2f2f2"/>
   </g>
   <g id="patch_5">
    <path d="M 423.309687 151.076339 
L 439.149687 151.076339 
L 439.149687 143.156339 
L 423.309687 143.156339 
z
" clip-path="url(#pa4f6fbebf4)" style="fill: #999999; opacity: 0.4"/>
   </g>
   <g id="line2d_23">
    <path d="M 423.309687 147.116339 
L 439.149687 147.116339 
" clip-path="url(#pa4f6fbebf4)" style="fill: none; stroke: #db5f57; stroke-width: 1.772454"/>
   </g>
   <g id="text_10">
    <!-- five_layer_net -->
    <g transform="translate(442.149688 149.422214)scale(0.088 -0.088)">
     <defs>
      <path id="DejaVuSans-66" d="M 2375 4863 
L 2375 4384 
L 1825 4384 
Q 1516 4384 1395 4259 
Q 1275 4134 1275 3809 
L 1275 3500 
L 2222 3500 
L 2222 3053 
L 1275 3053 
L 1275 0 
L 697 0 
L 697 3053 
L 147 3053 
L 147 3500 
L 697 3500 
L 697 3744 
Q 697 4328 969 4595 
Q 1241 4863 1831 4863 
L 2375 4863 
z
" transform="scale(0.015625)"/>
      <path id="DejaVuSans-76" d="M 191 3500 
L 800 3500 
L 1894 563 
L 2988 3500 
L 3597 3500 
L 2284 0 
L 1503 0 
L 191 3500 
z
" transform="scale(0.015625)"/>
      <path id="DejaVuSans-5f" d="M 3263 -1063 
L 3263 -1509 
L -63 -1509 
L -63 -1063 
L 3263 -1063 
z
" transform="scale(0.015625)"/>
     </defs>
     <use xlink:href="#DejaVuSans-66"/>
     <use xlink:href="#DejaVuSans-69" x="35.205078"/>
     <use xlink:href="#DejaVuSans-76" x="62.988281"/>
     <use xlink:href="#DejaVuSans-65" x="122.167969"/>
     <use xlink:href="#DejaVuSans-5f" x="183.691406"/>
     <use xlink:href="#DejaVuSans-6c" x="233.691406"/>
     <use xlink:href="#DejaVuSans-61" x="261.474609"/>
     <use xlink:href="#DejaVuSans-79" x="322.753906"/>
     <use xlink:href="#DejaVuSans-65" x="381.933594"/>
     <use xlink:href="#DejaVuSans-72" x="443.457031"/>
     <use xlink:href="#DejaVuSans-5f" x="484.570312"/>
     <use xlink:href="#DejaVuSans-6e" x="534.570312"/>
     <use xlink:href="#DejaVuSans-65" x="597.949219"/>
     <use xlink:href="#DejaVuSans-74" x="659.472656"/>
    </g>
   </g>
   <g id="patch_6">
    <path d="M 423.309687 172.876339 
L 439.149687 172.876339 
L 439.149687 157.036339 
L 423.309687 157.036339 
z
" clip-path="url(#pd998b64bdd)" style="fill: #f2f2f2"/>
   </g>
   <g id="patch_7">
    <path d="M 423.309687 168.916339 
L 439.149687 168.916339 
L 439.149687 160.996339 
L 423.309687 160.996339 
z
" clip-path="url(#pd998b64bdd)" style="fill: #999999; opacity: 0.4"/>
   </g>
   <g id="line2d_24">
    <path d="M 423.309687 164.956339 
L 439.149687 164.956339 
" clip-path="url(#pd998b64bdd)" style="fill: none; stroke: #57db5f; stroke-width: 1.772454"/>
   </g>
   <g id="text_11">
    <!-- pytorch_lr -->
    <g transform="translate(442.149688 167.262214)scale(0.088 -0.088)">
     <defs>
      <path id="DejaVuSans-68" d="M 3513 2113 
L 3513 0 
L 2938 0 
L 2938 2094 
Q 2938 2591 2744 2837 
Q 2550 3084 2163 3084 
Q 1697 3084 1428 2787 
Q 1159 2491 1159 1978 
L 1159 0 
L 581 0 
L 581 4863 
L 1159 4863 
L 1159 2956 
Q 1366 3272 1645 3428 
Q 1925 3584 2291 3584 
Q 2894 3584 3203 3211 
Q 3513 2838 3513 2113 
z
" transform="scale(0.015625)"/>
     </defs>
     <use xlink:href="#DejaVuSans-70"/>
     <use xlink:href="#DejaVuSans-79" x="63.476562"/>
     <use xlink:href="#DejaVuSans-74" x="122.65625"/>
     <use xlink:href="#DejaVuSans-6f" x="161.865234"/>
     <use xlink:href="#DejaVuSans-72" x="223.046875"/>
     <use xlink:href="#DejaVuSans-63" x="261.910156"/>
     <use xlink:href="#DejaVuSans-68" x="316.890625"/>
     <use xlink:href="#DejaVuSans-5f" x="380.269531"/>
     <use xlink:href="#DejaVuSans-6c" x="430.269531"/>
     <use xlink:href="#DejaVuSans-72" x="458.052734"/>
    </g>
   </g>
   <g id="patch_8">
    <path d="M 423.309687 190.716339 
L 439.149687 190.716339 
L 439.149687 174.876339 
L 423.309687 174.876339 
z
" clip-path="url(#p0efba88600)" style="fill: #f2f2f2"/>
   </g>
   <g id="patch_9">
    <path d="M 423.309687 186.756339 
L 439.149687 186.756339 
L 439.149687 178.836339 
L 423.309687 178.836339 
z
" clip-path="url(#p0efba88600)" style="fill: #999999; opacity: 0.4"/>
   </g>
   <g id="line2d_25">
    <path d="M 423.309687 182.796339 
L 439.149687 182.796339 
" clip-path="url(#p0efba88600)" style="fill: none; stroke: #5f57db; stroke-width: 1.772454"/>
   </g>
   <g id="text_12">
    <!-- three_layer_net -->
    <g transform="translate(442.149688 185.102214)scale(0.088 -0.088)">
     <use xlink:href="#DejaVuSans-74"/>
     <use xlink:href="#DejaVuSans-68" x="39.208984"/>
     <use xlink:href="#DejaVuSans-72" x="102.587891"/>
     <use xlink:href="#DejaVuSans-65" x="141.451172"/>
     <use xlink:href="#DejaVuSans-65" x="202.974609"/>
     <use xlink:href="#DejaVuSans-5f" x="264.498047"/>
     <use xlink:href="#DejaVuSans-6c" x="314.498047"/>
     <use xlink:href="#DejaVuSans-61" x="342.28125"/>
     <use xlink:href="#DejaVuSans-79" x="403.560547"/>
     <use xlink:href="#DejaVuSans-65" x="462.740234"/>
     <use xlink:href="#DejaVuSans-72" x="524.263672"/>
     <use xlink:href="#DejaVuSans-5f" x="565.376953"/>
     <use xlink:href="#DejaVuSans-6e" x="615.376953"/>
     <use xlink:href="#DejaVuSans-65" x="678.755859"/>
     <use xlink:href="#DejaVuSans-74" x="740.279297"/>
    </g>
   </g>
  </g>
  <g id="text_13">
   <!-- GTEx Multiclass -->
   <g transform="translate(167.994188 17.229938)scale(0.132 -0.132)">
    <defs>
     <path id="DejaVuSans-47" d="M 3809 666 
L 3809 1919 
L 2778 1919 
L 2778 2438 
L 4434 2438 
L 4434 434 
Q 4069 175 3628 42 
Q 3188 -91 2688 -91 
Q 1594 -91 976 548 
Q 359 1188 359 2328 
Q 359 3472 976 4111 
Q 1594 4750 2688 4750 
Q 3144 4750 3555 4637 
Q 3966 4525 4313 4306 
L 4313 3634 
Q 3963 3931 3569 4081 
Q 3175 4231 2741 4231 
Q 1884 4231 1454 3753 
Q 1025 3275 1025 2328 
Q 1025 1384 1454 906 
Q 1884 428 2741 428 
Q 3075 428 3337 486 
Q 3600 544 3809 666 
z
" transform="scale(0.015625)"/>
     <path id="DejaVuSans-45" d="M 628 4666 
L 3578 4666 
L 3578 4134 
L 1259 4134 
L 1259 2753 
L 3481 2753 
L 3481 2222 
L 1259 2222 
L 1259 531 
L 3634 531 
L 3634 0 
L 628 0 
L 628 4666 
z
" transform="scale(0.015625)"/>
     <path id="DejaVuSans-78" d="M 3513 3500 
L 2247 1797 
L 3578 0 
L 2900 0 
L 1881 1375 
L 863 0 
L 184 0 
L 1544 1831 
L 300 3500 
L 978 3500 
L 1906 2253 
L 2834 3500 
L 3513 3500 
z
" transform="scale(0.015625)"/>
     <path id="DejaVuSans-73" d="M 2834 3397 
L 2834 2853 
Q 2591 2978 2328 3040 
Q 2066 3103 1784 3103 
Q 1356 3103 1142 2972 
Q 928 2841 928 2578 
Q 928 2378 1081 2264 
Q 1234 2150 1697 2047 
L 1894 2003 
Q 2506 1872 2764 1633 
Q 3022 1394 3022 966 
Q 3022 478 2636 193 
Q 2250 -91 1575 -91 
Q 1294 -91 989 -36 
Q 684 19 347 128 
L 347 722 
Q 666 556 975 473 
Q 1284 391 1588 391 
Q 1994 391 2212 530 
Q 2431 669 2431 922 
Q 2431 1156 2273 1281 
Q 2116 1406 1581 1522 
L 1381 1569 
Q 847 1681 609 1914 
Q 372 2147 372 2553 
Q 372 3047 722 3315 
Q 1072 3584 1716 3584 
Q 2034 3584 2315 3537 
Q 2597 3491 2834 3397 
z
" transform="scale(0.015625)"/>
    </defs>
    <use xlink:href="#DejaVuSans-47"/>
    <use xlink:href="#DejaVuSans-54" x="73.865234"/>
    <use xlink:href="#DejaVuSans-45" x="134.949219"/>
    <use xlink:href="#DejaVuSans-78" x="198.132812"/>
    <use xlink:href="#DejaVuSans-20" x="257.3125"/>
    <use xlink:href="#DejaVuSans-4d" x="289.099609"/>
    <use xlink:href="#DejaVuSans-75" x="375.378906"/>
    <use xlink:href="#DejaVuSans-6c" x="438.757812"/>
    <use xlink:href="#DejaVuSans-74" x="466.541016"/>
    <use xlink:href="#DejaVuSans-69" x="505.75"/>
    <use xlink:href="#DejaVuSans-63" x="533.533203"/>
    <use xlink:href="#DejaVuSans-6c" x="588.513672"/>
    <use xlink:href="#DejaVuSans-61" x="616.296875"/>
    <use xlink:href="#DejaVuSans-73" x="677.576172"/>
    <use xlink:href="#DejaVuSans-73" x="729.675781"/>
   </g>
  </g>
 </g>
 <defs>
  <clipPath id="pc4c2a4353f">
   <rect x="46.789688" y="26.105371" width="357.12" height="266.112"/>
  </clipPath>
  <clipPath id="pa4f6fbebf4">
   <path d="M 423.309687 155.036339 
L 423.309687 139.196339 
L 439.149687 139.196339 
L 439.149687 155.036339 
"/>
  </clipPath>
  <clipPath id="pd998b64bdd">
   <path d="M 423.309687 172.876339 
L 423.309687 157.036339 
L 439.149687 157.036339 
L 439.149687 172.876339 
"/>
  </clipPath>
  <clipPath id="p0efba88600">
   <path d="M 423.309687 190.716339 
L 423.309687 174.876339 
L 439.149687 174.876339 
L 439.149687 190.716339 
"/>
  </clipPath>
 </defs>
</svg>
