<?xml version="1.0" encoding="utf-8" standalone="no"?>
<!DOCTYPE svg PUBLIC "-//W3C//DTD SVG 1.1//EN"
  "http://www.w3.org/Graphics/SVG/1.1/DTD/svg11.dtd">
<svg xmlns:xlink="http://www.w3.org/1999/xlink" width="524.546688pt" height="327.930058pt" viewBox="0 0 524.546688 327.930058" xmlns="http://www.w3.org/2000/svg" version="1.1">
 <metadata>
  <rdf:RDF xmlns:dc="http://purl.org/dc/elements/1.1/" xmlns:cc="http://creativecommons.org/ns#" xmlns:rdf="http://www.w3.org/1999/02/22-rdf-syntax-ns#">
   <cc:Work>
    <dc:type rdf:resource="http://purl.org/dc/dcmitype/StillImage"/>
    <dc:date>2022-05-09T09:49:41.414306</dc:date>
    <dc:format>image/svg+xml</dc:format>
    <dc:creator>
     <cc:Agent>
      <dc:title>Matplotlib v3.5.1, https://matplotlib.org/</dc:title>
     </cc:Agent>
    </dc:creator>
   </cc:Work>
  </rdf:RDF>
 </metadata>
 <defs>
  <style type="text/css">*{stroke-linejoin: round; stroke-linecap: butt}</style>
 </defs>
 <g id="figure_1">
  <g id="patch_1">
   <path d="M 0 327.930058 
L 524.546688 327.930058 
L 524.546688 0 
L 0 0 
z
" style="fill: #ffffff; stroke: #ffffff; stroke-linejoin: miter"/>
  </g>
  <g id="axes_1">
   <g id="patch_2">
    <path d="M 41.190688 292.217371 
L 398.310688 292.217371 
L 398.310688 26.105371 
L 41.190688 26.105371 
z
" style="fill: #ebebeb"/>
   </g>
   <g id="matplotlib.axis_1">
    <g id="xtick_1">
     <g id="line2d_1">
      <path d="M 150.013776 292.217371 
L 150.013776 26.105371 
" clip-path="url(#pebe399d11f)" style="fill: none; stroke: #ffffff"/>
     </g>
     <g id="line2d_2">
      <path d="M 150.013776 292.217371 
" style="fill: none; stroke: #333333; stroke-width: 1.5"/>
      <defs>
       <path id="m5b2515813c" d="M 0 0 
L 0 2.75 
" style="stroke: #000000"/>
      </defs>
      <g>
       <use xlink:href="#m5b2515813c" x="150.013776" y="292.217371" style="fill: #333333; stroke: #000000"/>
      </g>
     </g>
     <g id="text_1">
      <!-- 5000 -->
      <g style="fill: #4d4d4d" transform="translate(138.815776 303.853996)scale(0.088 -0.088)">
       <defs>
        <path id="DejaVuSans-35" d="M 691 4666 
L 3169 4666 
L 3169 4134 
L 1269 4134 
L 1269 2991 
Q 1406 3038 1543 3061 
Q 1681 3084 1819 3084 
Q 2600 3084 3056 2656 
Q 3513 2228 3513 1497 
Q 3513 744 3044 326 
Q 2575 -91 1722 -91 
Q 1428 -91 1123 -41 
Q 819 9 494 109 
L 494 744 
Q 775 591 1075 516 
Q 1375 441 1709 441 
Q 2250 441 2565 725 
Q 2881 1009 2881 1497 
Q 2881 1984 2565 2268 
Q 2250 2553 1709 2553 
Q 1456 2553 1204 2497 
Q 953 2441 691 2322 
L 691 4666 
z
" transform="scale(0.015625)"/>
        <path id="DejaVuSans-30" d="M 2034 4250 
Q 1547 4250 1301 3770 
Q 1056 3291 1056 2328 
Q 1056 1369 1301 889 
Q 1547 409 2034 409 
Q 2525 409 2770 889 
Q 3016 1369 3016 2328 
Q 3016 3291 2770 3770 
Q 2525 4250 2034 4250 
z
M 2034 4750 
Q 2819 4750 3233 4129 
Q 3647 3509 3647 2328 
Q 3647 1150 3233 529 
Q 2819 -91 2034 -91 
Q 1250 -91 836 529 
Q 422 1150 422 2328 
Q 422 3509 836 4129 
Q 1250 4750 2034 4750 
z
" transform="scale(0.015625)"/>
       </defs>
       <use xlink:href="#DejaVuSans-35"/>
       <use xlink:href="#DejaVuSans-30" x="63.623047"/>
       <use xlink:href="#DejaVuSans-30" x="127.246094"/>
       <use xlink:href="#DejaVuSans-30" x="190.869141"/>
      </g>
     </g>
    </g>
    <g id="xtick_2">
     <g id="line2d_3">
      <path d="M 277.901015 292.217371 
L 277.901015 26.105371 
" clip-path="url(#pebe399d11f)" style="fill: none; stroke: #ffffff"/>
     </g>
     <g id="line2d_4">
      <path d="M 277.901015 292.217371 
" style="fill: none; stroke: #333333; stroke-width: 1.5"/>
      <g>
       <use xlink:href="#m5b2515813c" x="277.901015" y="292.217371" style="fill: #333333; stroke: #000000"/>
      </g>
     </g>
     <g id="text_2">
      <!-- 10000 -->
      <g style="fill: #4d4d4d" transform="translate(263.903515 303.853996)scale(0.088 -0.088)">
       <defs>
        <path id="DejaVuSans-31" d="M 794 531 
L 1825 531 
L 1825 4091 
L 703 3866 
L 703 4441 
L 1819 4666 
L 2450 4666 
L 2450 531 
L 3481 531 
L 3481 0 
L 794 0 
L 794 531 
z
" transform="scale(0.015625)"/>
       </defs>
       <use xlink:href="#DejaVuSans-31"/>
       <use xlink:href="#DejaVuSans-30" x="63.623047"/>
       <use xlink:href="#DejaVuSans-30" x="127.246094"/>
       <use xlink:href="#DejaVuSans-30" x="190.869141"/>
       <use xlink:href="#DejaVuSans-30" x="254.492188"/>
      </g>
     </g>
    </g>
    <g id="xtick_3">
     <g id="line2d_5">
      <path d="M 86.070156 292.217371 
L 86.070156 26.105371 
" clip-path="url(#pebe399d11f)" style="fill: none; stroke: #ffffff; stroke-width: 0.5"/>
     </g>
    </g>
    <g id="xtick_4">
     <g id="line2d_6">
      <path d="M 213.957396 292.217371 
L 213.957396 26.105371 
" clip-path="url(#pebe399d11f)" style="fill: none; stroke: #ffffff; stroke-width: 0.5"/>
     </g>
    </g>
    <g id="xtick_5">
     <g id="line2d_7">
      <path d="M 341.844635 292.217371 
L 341.844635 26.105371 
" clip-path="url(#pebe399d11f)" style="fill: none; stroke: #ffffff; stroke-width: 0.5"/>
     </g>
    </g>
    <g id="text_3">
     <!-- Train Sample Count -->
     <g transform="translate(160.345063 318.442402)scale(0.11 -0.11)">
      <defs>
       <path id="DejaVuSans-54" d="M -19 4666 
L 3928 4666 
L 3928 4134 
L 2272 4134 
L 2272 0 
L 1638 0 
L 1638 4134 
L -19 4134 
L -19 4666 
z
" transform="scale(0.015625)"/>
       <path id="DejaVuSans-72" d="M 2631 2963 
Q 2534 3019 2420 3045 
Q 2306 3072 2169 3072 
Q 1681 3072 1420 2755 
Q 1159 2438 1159 1844 
L 1159 0 
L 581 0 
L 581 3500 
L 1159 3500 
L 1159 2956 
Q 1341 3275 1631 3429 
Q 1922 3584 2338 3584 
Q 2397 3584 2469 3576 
Q 2541 3569 2628 3553 
L 2631 2963 
z
" transform="scale(0.015625)"/>
       <path id="DejaVuSans-61" d="M 2194 1759 
Q 1497 1759 1228 1600 
Q 959 1441 959 1056 
Q 959 750 1161 570 
Q 1363 391 1709 391 
Q 2188 391 2477 730 
Q 2766 1069 2766 1631 
L 2766 1759 
L 2194 1759 
z
M 3341 1997 
L 3341 0 
L 2766 0 
L 2766 531 
Q 2569 213 2275 61 
Q 1981 -91 1556 -91 
Q 1019 -91 701 211 
Q 384 513 384 1019 
Q 384 1609 779 1909 
Q 1175 2209 1959 2209 
L 2766 2209 
L 2766 2266 
Q 2766 2663 2505 2880 
Q 2244 3097 1772 3097 
Q 1472 3097 1187 3025 
Q 903 2953 641 2809 
L 641 3341 
Q 956 3463 1253 3523 
Q 1550 3584 1831 3584 
Q 2591 3584 2966 3190 
Q 3341 2797 3341 1997 
z
" transform="scale(0.015625)"/>
       <path id="DejaVuSans-69" d="M 603 3500 
L 1178 3500 
L 1178 0 
L 603 0 
L 603 3500 
z
M 603 4863 
L 1178 4863 
L 1178 4134 
L 603 4134 
L 603 4863 
z
" transform="scale(0.015625)"/>
       <path id="DejaVuSans-6e" d="M 3513 2113 
L 3513 0 
L 2938 0 
L 2938 2094 
Q 2938 2591 2744 2837 
Q 2550 3084 2163 3084 
Q 1697 3084 1428 2787 
Q 1159 2491 1159 1978 
L 1159 0 
L 581 0 
L 581 3500 
L 1159 3500 
L 1159 2956 
Q 1366 3272 1645 3428 
Q 1925 3584 2291 3584 
Q 2894 3584 3203 3211 
Q 3513 2838 3513 2113 
z
" transform="scale(0.015625)"/>
       <path id="DejaVuSans-20" transform="scale(0.015625)"/>
       <path id="DejaVuSans-53" d="M 3425 4513 
L 3425 3897 
Q 3066 4069 2747 4153 
Q 2428 4238 2131 4238 
Q 1616 4238 1336 4038 
Q 1056 3838 1056 3469 
Q 1056 3159 1242 3001 
Q 1428 2844 1947 2747 
L 2328 2669 
Q 3034 2534 3370 2195 
Q 3706 1856 3706 1288 
Q 3706 609 3251 259 
Q 2797 -91 1919 -91 
Q 1588 -91 1214 -16 
Q 841 59 441 206 
L 441 856 
Q 825 641 1194 531 
Q 1563 422 1919 422 
Q 2459 422 2753 634 
Q 3047 847 3047 1241 
Q 3047 1584 2836 1778 
Q 2625 1972 2144 2069 
L 1759 2144 
Q 1053 2284 737 2584 
Q 422 2884 422 3419 
Q 422 4038 858 4394 
Q 1294 4750 2059 4750 
Q 2388 4750 2728 4690 
Q 3069 4631 3425 4513 
z
" transform="scale(0.015625)"/>
       <path id="DejaVuSans-6d" d="M 3328 2828 
Q 3544 3216 3844 3400 
Q 4144 3584 4550 3584 
Q 5097 3584 5394 3201 
Q 5691 2819 5691 2113 
L 5691 0 
L 5113 0 
L 5113 2094 
Q 5113 2597 4934 2840 
Q 4756 3084 4391 3084 
Q 3944 3084 3684 2787 
Q 3425 2491 3425 1978 
L 3425 0 
L 2847 0 
L 2847 2094 
Q 2847 2600 2669 2842 
Q 2491 3084 2119 3084 
Q 1678 3084 1418 2786 
Q 1159 2488 1159 1978 
L 1159 0 
L 581 0 
L 581 3500 
L 1159 3500 
L 1159 2956 
Q 1356 3278 1631 3431 
Q 1906 3584 2284 3584 
Q 2666 3584 2933 3390 
Q 3200 3197 3328 2828 
z
" transform="scale(0.015625)"/>
       <path id="DejaVuSans-70" d="M 1159 525 
L 1159 -1331 
L 581 -1331 
L 581 3500 
L 1159 3500 
L 1159 2969 
Q 1341 3281 1617 3432 
Q 1894 3584 2278 3584 
Q 2916 3584 3314 3078 
Q 3713 2572 3713 1747 
Q 3713 922 3314 415 
Q 2916 -91 2278 -91 
Q 1894 -91 1617 61 
Q 1341 213 1159 525 
z
M 3116 1747 
Q 3116 2381 2855 2742 
Q 2594 3103 2138 3103 
Q 1681 3103 1420 2742 
Q 1159 2381 1159 1747 
Q 1159 1113 1420 752 
Q 1681 391 2138 391 
Q 2594 391 2855 752 
Q 3116 1113 3116 1747 
z
" transform="scale(0.015625)"/>
       <path id="DejaVuSans-6c" d="M 603 4863 
L 1178 4863 
L 1178 0 
L 603 0 
L 603 4863 
z
" transform="scale(0.015625)"/>
       <path id="DejaVuSans-65" d="M 3597 1894 
L 3597 1613 
L 953 1613 
Q 991 1019 1311 708 
Q 1631 397 2203 397 
Q 2534 397 2845 478 
Q 3156 559 3463 722 
L 3463 178 
Q 3153 47 2828 -22 
Q 2503 -91 2169 -91 
Q 1331 -91 842 396 
Q 353 884 353 1716 
Q 353 2575 817 3079 
Q 1281 3584 2069 3584 
Q 2775 3584 3186 3129 
Q 3597 2675 3597 1894 
z
M 3022 2063 
Q 3016 2534 2758 2815 
Q 2500 3097 2075 3097 
Q 1594 3097 1305 2825 
Q 1016 2553 972 2059 
L 3022 2063 
z
" transform="scale(0.015625)"/>
       <path id="DejaVuSans-43" d="M 4122 4306 
L 4122 3641 
Q 3803 3938 3442 4084 
Q 3081 4231 2675 4231 
Q 1875 4231 1450 3742 
Q 1025 3253 1025 2328 
Q 1025 1406 1450 917 
Q 1875 428 2675 428 
Q 3081 428 3442 575 
Q 3803 722 4122 1019 
L 4122 359 
Q 3791 134 3420 21 
Q 3050 -91 2638 -91 
Q 1578 -91 968 557 
Q 359 1206 359 2328 
Q 359 3453 968 4101 
Q 1578 4750 2638 4750 
Q 3056 4750 3426 4639 
Q 3797 4528 4122 4306 
z
" transform="scale(0.015625)"/>
       <path id="DejaVuSans-6f" d="M 1959 3097 
Q 1497 3097 1228 2736 
Q 959 2375 959 1747 
Q 959 1119 1226 758 
Q 1494 397 1959 397 
Q 2419 397 2687 759 
Q 2956 1122 2956 1747 
Q 2956 2369 2687 2733 
Q 2419 3097 1959 3097 
z
M 1959 3584 
Q 2709 3584 3137 3096 
Q 3566 2609 3566 1747 
Q 3566 888 3137 398 
Q 2709 -91 1959 -91 
Q 1206 -91 779 398 
Q 353 888 353 1747 
Q 353 2609 779 3096 
Q 1206 3584 1959 3584 
z
" transform="scale(0.015625)"/>
       <path id="DejaVuSans-75" d="M 544 1381 
L 544 3500 
L 1119 3500 
L 1119 1403 
Q 1119 906 1312 657 
Q 1506 409 1894 409 
Q 2359 409 2629 706 
Q 2900 1003 2900 1516 
L 2900 3500 
L 3475 3500 
L 3475 0 
L 2900 0 
L 2900 538 
Q 2691 219 2414 64 
Q 2138 -91 1772 -91 
Q 1169 -91 856 284 
Q 544 659 544 1381 
z
M 1991 3584 
L 1991 3584 
z
" transform="scale(0.015625)"/>
       <path id="DejaVuSans-74" d="M 1172 4494 
L 1172 3500 
L 2356 3500 
L 2356 3053 
L 1172 3053 
L 1172 1153 
Q 1172 725 1289 603 
Q 1406 481 1766 481 
L 2356 481 
L 2356 0 
L 1766 0 
Q 1100 0 847 248 
Q 594 497 594 1153 
L 594 3053 
L 172 3053 
L 172 3500 
L 594 3500 
L 594 4494 
L 1172 4494 
z
" transform="scale(0.015625)"/>
      </defs>
      <use xlink:href="#DejaVuSans-54"/>
      <use xlink:href="#DejaVuSans-72" x="46.333984"/>
      <use xlink:href="#DejaVuSans-61" x="87.447266"/>
      <use xlink:href="#DejaVuSans-69" x="148.726562"/>
      <use xlink:href="#DejaVuSans-6e" x="176.509766"/>
      <use xlink:href="#DejaVuSans-20" x="239.888672"/>
      <use xlink:href="#DejaVuSans-53" x="271.675781"/>
      <use xlink:href="#DejaVuSans-61" x="335.152344"/>
      <use xlink:href="#DejaVuSans-6d" x="396.431641"/>
      <use xlink:href="#DejaVuSans-70" x="493.84375"/>
      <use xlink:href="#DejaVuSans-6c" x="557.320312"/>
      <use xlink:href="#DejaVuSans-65" x="585.103516"/>
      <use xlink:href="#DejaVuSans-20" x="646.626953"/>
      <use xlink:href="#DejaVuSans-43" x="678.414062"/>
      <use xlink:href="#DejaVuSans-6f" x="748.238281"/>
      <use xlink:href="#DejaVuSans-75" x="809.419922"/>
      <use xlink:href="#DejaVuSans-6e" x="872.798828"/>
      <use xlink:href="#DejaVuSans-74" x="936.177734"/>
     </g>
    </g>
   </g>
   <g id="matplotlib.axis_2">
    <g id="ytick_1">
     <g id="line2d_8">
      <path d="M 41.190688 276.881316 
L 398.310688 276.881316 
" clip-path="url(#pebe399d11f)" style="fill: none; stroke: #ffffff"/>
     </g>
     <g id="line2d_9">
      <path d="M 41.190688 276.881316 
" style="fill: none; stroke: #333333; stroke-width: 1.5"/>
      <defs>
       <path id="m612b6b0e14" d="M 0 0 
L -2.75 0 
" style="stroke: #000000"/>
      </defs>
      <g>
       <use xlink:href="#m612b6b0e14" x="41.190688" y="276.881316" style="fill: #333333; stroke: #000000"/>
      </g>
     </g>
     <g id="text_4">
      <!-- 0 -->
      <g style="fill: #4d4d4d" transform="translate(30.641688 279.309566)scale(0.088 -0.088)">
       <use xlink:href="#DejaVuSans-30"/>
      </g>
     </g>
    </g>
    <g id="ytick_2">
     <g id="line2d_10">
      <path d="M 41.190688 229.088247 
L 398.310688 229.088247 
" clip-path="url(#pebe399d11f)" style="fill: none; stroke: #ffffff"/>
     </g>
     <g id="line2d_11">
      <path d="M 41.190688 229.088247 
" style="fill: none; stroke: #333333; stroke-width: 1.5"/>
      <g>
       <use xlink:href="#m612b6b0e14" x="41.190688" y="229.088247" style="fill: #333333; stroke: #000000"/>
      </g>
     </g>
     <g id="text_5">
      <!-- 0.1 -->
      <g style="fill: #4d4d4d" transform="translate(22.245938 231.516497)scale(0.088 -0.088)">
       <defs>
        <path id="DejaVuSans-2e" d="M 684 794 
L 1344 794 
L 1344 0 
L 684 0 
L 684 794 
z
" transform="scale(0.015625)"/>
       </defs>
       <use xlink:href="#DejaVuSans-30"/>
       <use xlink:href="#DejaVuSans-2e" x="63.623047"/>
       <use xlink:href="#DejaVuSans-31" x="95.410156"/>
      </g>
     </g>
    </g>
    <g id="ytick_3">
     <g id="line2d_12">
      <path d="M 41.190688 181.295178 
L 398.310688 181.295178 
" clip-path="url(#pebe399d11f)" style="fill: none; stroke: #ffffff"/>
     </g>
     <g id="line2d_13">
      <path d="M 41.190688 181.295178 
" style="fill: none; stroke: #333333; stroke-width: 1.5"/>
      <g>
       <use xlink:href="#m612b6b0e14" x="41.190688" y="181.295178" style="fill: #333333; stroke: #000000"/>
      </g>
     </g>
     <g id="text_6">
      <!-- 0.2 -->
      <g style="fill: #4d4d4d" transform="translate(22.245938 183.723428)scale(0.088 -0.088)">
       <defs>
        <path id="DejaVuSans-32" d="M 1228 531 
L 3431 531 
L 3431 0 
L 469 0 
L 469 531 
Q 828 903 1448 1529 
Q 2069 2156 2228 2338 
Q 2531 2678 2651 2914 
Q 2772 3150 2772 3378 
Q 2772 3750 2511 3984 
Q 2250 4219 1831 4219 
Q 1534 4219 1204 4116 
Q 875 4013 500 3803 
L 500 4441 
Q 881 4594 1212 4672 
Q 1544 4750 1819 4750 
Q 2544 4750 2975 4387 
Q 3406 4025 3406 3419 
Q 3406 3131 3298 2873 
Q 3191 2616 2906 2266 
Q 2828 2175 2409 1742 
Q 1991 1309 1228 531 
z
" transform="scale(0.015625)"/>
       </defs>
       <use xlink:href="#DejaVuSans-30"/>
       <use xlink:href="#DejaVuSans-2e" x="63.623047"/>
       <use xlink:href="#DejaVuSans-32" x="95.410156"/>
      </g>
     </g>
    </g>
    <g id="ytick_4">
     <g id="line2d_14">
      <path d="M 41.190688 133.502109 
L 398.310688 133.502109 
" clip-path="url(#pebe399d11f)" style="fill: none; stroke: #ffffff"/>
     </g>
     <g id="line2d_15">
      <path d="M 41.190688 133.502109 
" style="fill: none; stroke: #333333; stroke-width: 1.5"/>
      <g>
       <use xlink:href="#m612b6b0e14" x="41.190688" y="133.502109" style="fill: #333333; stroke: #000000"/>
      </g>
     </g>
     <g id="text_7">
      <!-- 0.3 -->
      <g style="fill: #4d4d4d" transform="translate(22.245938 135.930359)scale(0.088 -0.088)">
       <defs>
        <path id="DejaVuSans-33" d="M 2597 2516 
Q 3050 2419 3304 2112 
Q 3559 1806 3559 1356 
Q 3559 666 3084 287 
Q 2609 -91 1734 -91 
Q 1441 -91 1130 -33 
Q 819 25 488 141 
L 488 750 
Q 750 597 1062 519 
Q 1375 441 1716 441 
Q 2309 441 2620 675 
Q 2931 909 2931 1356 
Q 2931 1769 2642 2001 
Q 2353 2234 1838 2234 
L 1294 2234 
L 1294 2753 
L 1863 2753 
Q 2328 2753 2575 2939 
Q 2822 3125 2822 3475 
Q 2822 3834 2567 4026 
Q 2313 4219 1838 4219 
Q 1578 4219 1281 4162 
Q 984 4106 628 3988 
L 628 4550 
Q 988 4650 1302 4700 
Q 1616 4750 1894 4750 
Q 2613 4750 3031 4423 
Q 3450 4097 3450 3541 
Q 3450 3153 3228 2886 
Q 3006 2619 2597 2516 
z
" transform="scale(0.015625)"/>
       </defs>
       <use xlink:href="#DejaVuSans-30"/>
       <use xlink:href="#DejaVuSans-2e" x="63.623047"/>
       <use xlink:href="#DejaVuSans-33" x="95.410156"/>
      </g>
     </g>
    </g>
    <g id="ytick_5">
     <g id="line2d_16">
      <path d="M 41.190688 85.709041 
L 398.310688 85.709041 
" clip-path="url(#pebe399d11f)" style="fill: none; stroke: #ffffff"/>
     </g>
     <g id="line2d_17">
      <path d="M 41.190688 85.709041 
" style="fill: none; stroke: #333333; stroke-width: 1.5"/>
      <g>
       <use xlink:href="#m612b6b0e14" x="41.190688" y="85.709041" style="fill: #333333; stroke: #000000"/>
      </g>
     </g>
     <g id="text_8">
      <!-- 0.4 -->
      <g style="fill: #4d4d4d" transform="translate(22.245938 88.137291)scale(0.088 -0.088)">
       <defs>
        <path id="DejaVuSans-34" d="M 2419 4116 
L 825 1625 
L 2419 1625 
L 2419 4116 
z
M 2253 4666 
L 3047 4666 
L 3047 1625 
L 3713 1625 
L 3713 1100 
L 3047 1100 
L 3047 0 
L 2419 0 
L 2419 1100 
L 313 1100 
L 313 1709 
L 2253 4666 
z
" transform="scale(0.015625)"/>
       </defs>
       <use xlink:href="#DejaVuSans-30"/>
       <use xlink:href="#DejaVuSans-2e" x="63.623047"/>
       <use xlink:href="#DejaVuSans-34" x="95.410156"/>
      </g>
     </g>
    </g>
    <g id="ytick_6">
     <g id="line2d_18">
      <path d="M 41.190688 37.915972 
L 398.310688 37.915972 
" clip-path="url(#pebe399d11f)" style="fill: none; stroke: #ffffff"/>
     </g>
     <g id="line2d_19">
      <path d="M 41.190688 37.915972 
" style="fill: none; stroke: #333333; stroke-width: 1.5"/>
      <g>
       <use xlink:href="#m612b6b0e14" x="41.190688" y="37.915972" style="fill: #333333; stroke: #000000"/>
      </g>
     </g>
     <g id="text_9">
      <!-- 0.5 -->
      <g style="fill: #4d4d4d" transform="translate(22.245938 40.344222)scale(0.088 -0.088)">
       <use xlink:href="#DejaVuSans-30"/>
       <use xlink:href="#DejaVuSans-2e" x="63.623047"/>
       <use xlink:href="#DejaVuSans-35" x="95.410156"/>
      </g>
     </g>
    </g>
    <g id="ytick_7">
     <g id="line2d_20">
      <path d="M 41.190688 252.984781 
L 398.310688 252.984781 
" clip-path="url(#pebe399d11f)" style="fill: none; stroke: #ffffff; stroke-width: 0.5"/>
     </g>
    </g>
    <g id="ytick_8">
     <g id="line2d_21">
      <path d="M 41.190688 205.191713 
L 398.310688 205.191713 
" clip-path="url(#pebe399d11f)" style="fill: none; stroke: #ffffff; stroke-width: 0.5"/>
     </g>
    </g>
    <g id="ytick_9">
     <g id="line2d_22">
      <path d="M 41.190688 157.398644 
L 398.310688 157.398644 
" clip-path="url(#pebe399d11f)" style="fill: none; stroke: #ffffff; stroke-width: 0.5"/>
     </g>
    </g>
    <g id="ytick_10">
     <g id="line2d_23">
      <path d="M 41.190688 109.605575 
L 398.310688 109.605575 
" clip-path="url(#pebe399d11f)" style="fill: none; stroke: #ffffff; stroke-width: 0.5"/>
     </g>
    </g>
    <g id="ytick_11">
     <g id="line2d_24">
      <path d="M 41.190688 61.812506 
L 398.310688 61.812506 
" clip-path="url(#pebe399d11f)" style="fill: none; stroke: #ffffff; stroke-width: 0.5"/>
     </g>
    </g>
    <g id="text_10">
     <!-- Balanced Accuracy (Val Set) -->
     <g transform="translate(15.558281 234.774543)rotate(-90)scale(0.11 -0.11)">
      <defs>
       <path id="DejaVuSans-42" d="M 1259 2228 
L 1259 519 
L 2272 519 
Q 2781 519 3026 730 
Q 3272 941 3272 1375 
Q 3272 1813 3026 2020 
Q 2781 2228 2272 2228 
L 1259 2228 
z
M 1259 4147 
L 1259 2741 
L 2194 2741 
Q 2656 2741 2882 2914 
Q 3109 3088 3109 3444 
Q 3109 3797 2882 3972 
Q 2656 4147 2194 4147 
L 1259 4147 
z
M 628 4666 
L 2241 4666 
Q 2963 4666 3353 4366 
Q 3744 4066 3744 3513 
Q 3744 3084 3544 2831 
Q 3344 2578 2956 2516 
Q 3422 2416 3680 2098 
Q 3938 1781 3938 1306 
Q 3938 681 3513 340 
Q 3088 0 2303 0 
L 628 0 
L 628 4666 
z
" transform="scale(0.015625)"/>
       <path id="DejaVuSans-63" d="M 3122 3366 
L 3122 2828 
Q 2878 2963 2633 3030 
Q 2388 3097 2138 3097 
Q 1578 3097 1268 2742 
Q 959 2388 959 1747 
Q 959 1106 1268 751 
Q 1578 397 2138 397 
Q 2388 397 2633 464 
Q 2878 531 3122 666 
L 3122 134 
Q 2881 22 2623 -34 
Q 2366 -91 2075 -91 
Q 1284 -91 818 406 
Q 353 903 353 1747 
Q 353 2603 823 3093 
Q 1294 3584 2113 3584 
Q 2378 3584 2631 3529 
Q 2884 3475 3122 3366 
z
" transform="scale(0.015625)"/>
       <path id="DejaVuSans-64" d="M 2906 2969 
L 2906 4863 
L 3481 4863 
L 3481 0 
L 2906 0 
L 2906 525 
Q 2725 213 2448 61 
Q 2172 -91 1784 -91 
Q 1150 -91 751 415 
Q 353 922 353 1747 
Q 353 2572 751 3078 
Q 1150 3584 1784 3584 
Q 2172 3584 2448 3432 
Q 2725 3281 2906 2969 
z
M 947 1747 
Q 947 1113 1208 752 
Q 1469 391 1925 391 
Q 2381 391 2643 752 
Q 2906 1113 2906 1747 
Q 2906 2381 2643 2742 
Q 2381 3103 1925 3103 
Q 1469 3103 1208 2742 
Q 947 2381 947 1747 
z
" transform="scale(0.015625)"/>
       <path id="DejaVuSans-41" d="M 2188 4044 
L 1331 1722 
L 3047 1722 
L 2188 4044 
z
M 1831 4666 
L 2547 4666 
L 4325 0 
L 3669 0 
L 3244 1197 
L 1141 1197 
L 716 0 
L 50 0 
L 1831 4666 
z
" transform="scale(0.015625)"/>
       <path id="DejaVuSans-79" d="M 2059 -325 
Q 1816 -950 1584 -1140 
Q 1353 -1331 966 -1331 
L 506 -1331 
L 506 -850 
L 844 -850 
Q 1081 -850 1212 -737 
Q 1344 -625 1503 -206 
L 1606 56 
L 191 3500 
L 800 3500 
L 1894 763 
L 2988 3500 
L 3597 3500 
L 2059 -325 
z
" transform="scale(0.015625)"/>
       <path id="DejaVuSans-28" d="M 1984 4856 
Q 1566 4138 1362 3434 
Q 1159 2731 1159 2009 
Q 1159 1288 1364 580 
Q 1569 -128 1984 -844 
L 1484 -844 
Q 1016 -109 783 600 
Q 550 1309 550 2009 
Q 550 2706 781 3412 
Q 1013 4119 1484 4856 
L 1984 4856 
z
" transform="scale(0.015625)"/>
       <path id="DejaVuSans-56" d="M 1831 0 
L 50 4666 
L 709 4666 
L 2188 738 
L 3669 4666 
L 4325 4666 
L 2547 0 
L 1831 0 
z
" transform="scale(0.015625)"/>
       <path id="DejaVuSans-29" d="M 513 4856 
L 1013 4856 
Q 1481 4119 1714 3412 
Q 1947 2706 1947 2009 
Q 1947 1309 1714 600 
Q 1481 -109 1013 -844 
L 513 -844 
Q 928 -128 1133 580 
Q 1338 1288 1338 2009 
Q 1338 2731 1133 3434 
Q 928 4138 513 4856 
z
" transform="scale(0.015625)"/>
      </defs>
      <use xlink:href="#DejaVuSans-42"/>
      <use xlink:href="#DejaVuSans-61" x="68.603516"/>
      <use xlink:href="#DejaVuSans-6c" x="129.882812"/>
      <use xlink:href="#DejaVuSans-61" x="157.666016"/>
      <use xlink:href="#DejaVuSans-6e" x="218.945312"/>
      <use xlink:href="#DejaVuSans-63" x="282.324219"/>
      <use xlink:href="#DejaVuSans-65" x="337.304688"/>
      <use xlink:href="#DejaVuSans-64" x="398.828125"/>
      <use xlink:href="#DejaVuSans-20" x="462.304688"/>
      <use xlink:href="#DejaVuSans-41" x="494.091797"/>
      <use xlink:href="#DejaVuSans-63" x="560.75"/>
      <use xlink:href="#DejaVuSans-63" x="615.730469"/>
      <use xlink:href="#DejaVuSans-75" x="670.710938"/>
      <use xlink:href="#DejaVuSans-72" x="734.089844"/>
      <use xlink:href="#DejaVuSans-61" x="775.203125"/>
      <use xlink:href="#DejaVuSans-63" x="836.482422"/>
      <use xlink:href="#DejaVuSans-79" x="891.462891"/>
      <use xlink:href="#DejaVuSans-20" x="950.642578"/>
      <use xlink:href="#DejaVuSans-28" x="982.429688"/>
      <use xlink:href="#DejaVuSans-56" x="1021.443359"/>
      <use xlink:href="#DejaVuSans-61" x="1082.101562"/>
      <use xlink:href="#DejaVuSans-6c" x="1143.380859"/>
      <use xlink:href="#DejaVuSans-20" x="1171.164062"/>
      <use xlink:href="#DejaVuSans-53" x="1202.951172"/>
      <use xlink:href="#DejaVuSans-65" x="1266.427734"/>
      <use xlink:href="#DejaVuSans-74" x="1327.951172"/>
      <use xlink:href="#DejaVuSans-29" x="1367.160156"/>
     </g>
    </g>
   </g>
   <g id="PolyCollection_1">
    <path d="M 57.423415 215.051743 
L 57.423415 279.338107 
L 57.525725 279.181348 
L 57.551302 279.142184 
L 57.576879 279.103031 
L 57.602457 279.063888 
L 57.730344 278.868328 
L 57.755922 278.829248 
L 57.781499 278.790177 
L 57.832654 278.712068 
L 57.960541 278.516977 
L 58.114006 278.283211 
L 92.720293 235.915861 
L 92.95049 235.702142 
L 92.976067 235.678442 
L 93.001645 235.654752 
L 93.027222 235.631071 
L 93.078377 235.583736 
L 93.359729 235.324048 
L 93.385306 235.300495 
L 93.410884 235.27695 
L 93.462039 235.229888 
L 93.538771 235.159363 
L 93.820123 234.90146 
L 94.101475 234.644632 
L 128.042748 208.615923 
L 128.349678 208.404809 
L 128.400833 208.369639 
L 128.451987 208.334474 
L 128.477565 208.316894 
L 128.554297 208.264158 
L 128.989114 207.965473 
L 129.014691 207.947911 
L 129.065846 207.912789 
L 129.117001 207.87767 
L 129.244888 207.789887 
L 129.679705 207.491572 
L 130.088944 207.211011 
L 163.339626 185.198211 
L 163.774443 184.903485 
L 163.825598 184.868728 
L 163.851175 184.851343 
L 163.876753 184.833953 
L 163.953485 184.781757 
L 164.030217 184.729521 
L 164.592921 184.345181 
L 164.644076 184.310127 
L 164.695231 184.275054 
L 164.797541 184.20485 
L 164.951005 184.099314 
L 165.539287 183.691654 
L 166.101991 183.297335 
L 198.662082 161.32714 
L 199.173631 161.016537 
L 199.275941 160.954189 
L 199.327095 160.922985 
L 199.403828 160.876141 
L 199.506138 160.813611 
L 200.222306 160.373453 
L 200.273461 160.34184 
L 200.350193 160.294375 
L 200.478081 160.215145 
L 200.6827 160.08805 
L 201.398869 159.63988 
L 202.08946 159.202412 
L 233.95896 136.191864 
L 234.598396 135.771245 
L 234.700706 135.704373 
L 234.777438 135.654297 
L 234.85417 135.604288 
L 234.982058 135.521088 
L 235.851691 134.96031 
L 235.902846 134.927595 
L 236.005156 134.862257 
L 236.133043 134.780755 
L 236.388817 134.618325 
L 237.258451 134.071809 
L 238.076929 133.565609 
L 269.255838 118.600594 
L 269.997584 118.282616 
L 270.125471 118.227669 
L 270.151048 118.216676 
L 270.202203 118.194694 
L 270.330091 118.139758 
L 270.457978 118.08485 
L 271.455498 117.65761 
L 271.532231 117.624826 
L 271.63454 117.581134 
L 271.813583 117.504727 
L 272.094935 117.3848 
L 273.118032 116.950268 
L 274.089975 116.539975 
L 304.578293 105.31934 
L 305.422349 105.016898 
L 305.550236 104.970804 
L 305.575814 104.961576 
L 305.652546 104.933876 
L 305.780433 104.88765 
L 305.933898 104.832081 
L 307.084883 104.417691 
L 307.161615 104.390265 
L 307.289503 104.344611 
L 307.468545 104.280815 
L 307.801052 104.162705 
L 308.977614 103.748693 
L 310.077445 103.367344 
L 339.875171 96.120131 
L 340.821537 96.032127 
L 340.975002 96.019007 
L 341.000579 96.016852 
L 341.102889 96.008323 
L 341.230776 95.997866 
L 341.409818 95.98361 
L 342.714268 95.893481 
L 342.791 95.888944 
L 342.944465 95.88013 
L 343.149085 95.868918 
L 343.507169 95.850857 
L 344.837196 95.801882 
L 346.064914 95.782626 
L 375.197627 103.525791 
L 376.246302 104.097644 
L 376.425344 104.197179 
L 376.450922 104.211444 
L 376.553231 104.268614 
L 376.706696 104.354707 
L 376.911316 104.470127 
L 378.343653 105.298085 
L 378.420385 105.343423 
L 378.599427 105.449598 
L 378.829624 105.586904 
L 379.238864 105.833203 
L 380.696778 106.733378 
L 382.07796 107.618584 
L 382.07796 38.201371 
L 382.07796 38.201371 
L 380.696778 39.143716 
L 379.238864 40.119333 
L 378.829624 40.389599 
L 378.599427 40.540922 
L 378.420385 40.658268 
L 378.343653 40.708465 
L 376.911316 41.634998 
L 376.706696 41.76572 
L 376.553231 41.86349 
L 376.450922 41.92854 
L 376.425344 41.944787 
L 376.246302 42.058328 
L 375.197627 42.716901 
L 346.064914 56.035272 
L 344.837196 56.383762 
L 343.507169 56.745169 
L 343.149085 56.839724 
L 342.944465 56.893252 
L 342.791 56.933167 
L 342.714268 56.95305 
L 341.409818 57.283759 
L 341.230776 57.328109 
L 341.102889 57.359638 
L 341.000579 57.384773 
L 340.975002 57.391045 
L 340.821537 57.428573 
L 339.875171 57.656233 
L 310.077445 63.534637 
L 308.977614 63.765398 
L 307.801052 64.017013 
L 307.468545 64.089052 
L 307.289503 64.128017 
L 307.161615 64.155924 
L 307.084883 64.172698 
L 305.933898 64.427102 
L 305.780433 64.461448 
L 305.652546 64.49018 
L 305.575814 64.507467 
L 305.550236 64.513237 
L 305.422349 64.542148 
L 304.578293 64.735466 
L 274.089975 73.991707 
L 273.118032 74.373185 
L 272.094935 74.785182 
L 271.813583 74.900452 
L 271.63454 74.974261 
L 271.532231 75.016599 
L 271.455498 75.04843 
L 270.457978 75.468404 
L 270.330091 75.523095 
L 270.202203 75.577983 
L 270.151048 75.599993 
L 270.125471 75.611011 
L 269.997584 75.666282 
L 269.255838 75.99333 
L 238.076929 95.160428 
L 237.258451 95.684933 
L 236.388817 96.23828 
L 236.133043 96.400235 
L 236.005156 96.481075 
L 235.902846 96.545681 
L 235.851691 96.577962 
L 234.982058 97.124462 
L 234.85417 97.204465 
L 234.777438 97.252421 
L 234.700706 97.300343 
L 234.598396 97.364186 
L 233.95896 97.761834 
L 202.08946 116.395826 
L 201.398869 116.838883 
L 200.6827 117.307003 
L 200.478081 117.442286 
L 200.350193 117.527171 
L 200.273461 117.578223 
L 200.222306 117.612308 
L 199.506138 118.09356 
L 199.403828 118.162908 
L 199.327095 118.215013 
L 199.275941 118.249794 
L 199.173631 118.319463 
L 198.662082 118.66985 
L 166.101991 140.698693 
L 165.539287 141.077209 
L 164.951005 141.477203 
L 164.797541 141.582302 
L 164.695231 141.652487 
L 164.644076 141.687589 
L 164.592921 141.722697 
L 164.030217 142.109304 
L 163.953485 142.162081 
L 163.876753 142.214871 
L 163.851175 142.232471 
L 163.825598 142.250072 
L 163.774443 142.285279 
L 163.339626 142.584776 
L 130.088944 166.642849 
L 129.679705 166.975899 
L 129.244888 167.331823 
L 129.117001 167.436915 
L 129.065846 167.479004 
L 129.014691 167.521124 
L 128.989114 167.542194 
L 128.554297 167.901555 
L 128.477565 167.965169 
L 128.451987 167.986375 
L 128.400833 168.028789 
L 128.349678 168.071207 
L 128.042748 168.325777 
L 94.101475 195.931394 
L 93.820123 196.140467 
L 93.538771 196.348874 
L 93.462039 196.405596 
L 93.410884 196.443382 
L 93.385306 196.462267 
L 93.359729 196.481146 
L 93.078377 196.688441 
L 93.027222 196.726057 
L 93.001645 196.744856 
L 92.976067 196.76365 
L 92.95049 196.782437 
L 92.720293 196.951229 
L 58.114006 214.846045 
L 57.960541 214.892207 
L 57.832654 214.930478 
L 57.781499 214.945736 
L 57.755922 214.953355 
L 57.730344 214.960966 
L 57.602457 214.998915 
L 57.576879 215.006483 
L 57.551302 215.014044 
L 57.525725 215.021598 
L 57.423415 215.051743 
z
" clip-path="url(#pebe399d11f)" style="fill: #999999; fill-opacity: 0.4"/>
   </g>
   <g id="line2d_25">
    <path d="M 57.423415 247.194925 
L 58.114006 246.564628 
L 94.101475 215.288013 
L 130.088944 186.92693 
L 166.101991 161.998014 
L 202.08946 137.799119 
L 238.076929 114.363018 
L 270.330091 96.831427 
L 274.089975 95.265841 
L 307.161615 84.273094 
L 310.077445 83.45099 
L 341.409818 76.633684 
L 346.064914 75.908949 
L 376.911316 73.052563 
L 382.07796 72.909977 
L 382.07796 72.909977 
" clip-path="url(#pebe399d11f)" style="fill: none; stroke: #db5f57; stroke-width: 1.772454; stroke-linejoin: miter"/>
   </g>
   <g id="PolyCollection_2">
    <path d="M 57.423415 252.096552 
L 57.423415 261.962769 
L 57.525725 261.934399 
L 57.551302 261.927312 
L 57.576879 261.920228 
L 57.602457 261.913147 
L 57.730344 261.877775 
L 57.755922 261.870708 
L 57.781499 261.863644 
L 57.832654 261.849522 
L 57.960541 261.81426 
L 58.114006 261.772027 
L 92.720293 254.619489 
L 92.95049 254.587643 
L 92.976067 254.584116 
L 93.001645 254.580591 
L 93.027222 254.577069 
L 93.078377 254.570033 
L 93.359729 254.531523 
L 93.385306 254.528037 
L 93.410884 254.524554 
L 93.462039 254.517596 
L 93.538771 254.507179 
L 93.820123 254.469179 
L 94.101475 254.431489 
L 128.042748 251.427692 
L 128.349678 251.408865 
L 128.400833 251.405734 
L 128.451987 251.402604 
L 128.477565 251.401039 
L 128.554297 251.396349 
L 128.989114 251.370066 
L 129.014691 251.368537 
L 129.065846 251.365486 
L 129.117001 251.362443 
L 129.244888 251.354867 
L 129.679705 251.329468 
L 130.088944 251.306061 
L 163.339626 250.405885 
L 163.774443 250.396354 
L 163.825598 250.395211 
L 163.851175 250.394638 
L 163.876753 250.394064 
L 163.953485 250.392336 
L 164.030217 250.390596 
L 164.592921 250.377518 
L 164.644076 250.3763 
L 164.695231 250.375077 
L 164.797541 250.372616 
L 164.951005 250.368925 
L 165.539287 250.355065 
L 166.101991 250.342248 
L 198.662082 250.572159 
L 199.173631 250.578468 
L 199.275941 250.579628 
L 199.327095 250.580194 
L 199.403828 250.581027 
L 199.506138 250.582107 
L 200.222306 250.588624 
L 200.273461 250.589018 
L 200.350193 250.58959 
L 200.478081 250.590493 
L 200.6827 250.591807 
L 201.398869 250.595083 
L 202.08946 250.596192 
L 233.95896 250.245897 
L 234.598396 250.244883 
L 234.700706 250.24478 
L 234.777438 250.244713 
L 234.85417 250.244655 
L 234.982058 250.24458 
L 235.851691 250.244751 
L 235.902846 250.244798 
L 236.005156 250.244905 
L 236.133043 250.245062 
L 236.388817 250.245455 
L 237.258451 250.247572 
L 238.076929 250.250671 
L 269.255838 250.85089 
L 269.997584 250.864971 
L 270.125471 250.867344 
L 270.151048 250.867817 
L 270.202203 250.868766 
L 270.330091 250.871153 
L 270.457978 250.873561 
L 271.455498 250.893049 
L 271.532231 250.894599 
L 271.63454 250.896677 
L 271.813583 250.900344 
L 272.094935 250.906184 
L 273.118032 250.92821 
L 274.089975 250.950248 
L 304.578293 251.766138 
L 305.422349 251.773045 
L 305.550236 251.773909 
L 305.575814 251.774076 
L 305.652546 251.774565 
L 305.780433 251.775341 
L 305.933898 251.776207 
L 307.084883 251.782724 
L 307.161615 251.783179 
L 307.289503 251.783942 
L 307.468545 251.785022 
L 307.801052 251.787065 
L 308.977614 251.794658 
L 310.077445 251.802263 
L 339.875171 252.195649 
L 340.821537 252.216138 
L 340.975002 252.21953 
L 341.000579 252.220097 
L 341.102889 252.222372 
L 341.230776 252.225227 
L 341.409818 252.229249 
L 342.714268 252.25939 
L 342.791 252.261211 
L 342.944465 252.264867 
L 343.149085 252.269777 
L 343.507169 252.278496 
L 344.837196 252.312582 
L 346.064914 252.346522 
L 375.197627 254.002147 
L 376.246302 254.092686 
L 376.425344 254.108342 
L 376.450922 254.110584 
L 376.553231 254.11956 
L 376.706696 254.133061 
L 376.911316 254.151127 
L 378.343653 254.279666 
L 378.420385 254.286653 
L 378.599427 254.302999 
L 378.829624 254.324096 
L 379.238864 254.36183 
L 380.696778 254.498601 
L 382.07796 254.631507 
L 382.07796 243.977843 
L 382.07796 243.977843 
L 380.696778 244.125417 
L 379.238864 244.276529 
L 378.829624 244.318074 
L 378.599427 244.341274 
L 378.420385 244.359233 
L 378.343653 244.366907 
L 376.911316 244.507635 
L 376.706696 244.527345 
L 376.553231 244.542063 
L 376.450922 244.551844 
L 376.425344 244.554285 
L 376.246302 244.57133 
L 375.197627 244.669628 
L 346.064914 246.246379 
L 344.837196 246.262967 
L 343.507169 246.276832 
L 343.149085 246.279852 
L 342.944465 246.281437 
L 342.791 246.282553 
L 342.714268 246.283088 
L 341.409818 246.289869 
L 341.230776 246.290466 
L 341.102889 246.290845 
L 341.000579 246.291119 
L 340.975002 246.291183 
L 340.821537 246.291537 
L 339.875171 246.292482 
L 310.077445 245.68902 
L 308.977614 245.658305 
L 307.801052 245.625788 
L 307.468545 245.616675 
L 307.289503 245.611783 
L 307.161615 245.608296 
L 307.084883 245.606207 
L 305.933898 245.575137 
L 305.780433 245.571014 
L 305.652546 245.567553 
L 305.575814 245.565465 
L 305.550236 245.564768 
L 305.422349 245.561266 
L 304.578293 245.537612 
L 274.089975 244.42024 
L 273.118032 244.39378 
L 272.094935 244.368296 
L 271.813583 244.361741 
L 271.63454 244.357675 
L 271.532231 244.35539 
L 271.455498 244.353693 
L 270.457978 244.33309 
L 270.330091 244.330649 
L 270.202203 244.328254 
L 270.151048 244.32731 
L 270.125471 244.32684 
L 269.997584 244.324517 
L 269.255838 244.311828 
L 238.076929 244.356515 
L 237.258451 244.356226 
L 236.388817 244.355157 
L 236.133043 244.354691 
L 236.005156 244.354433 
L 235.902846 244.354213 
L 235.851691 244.354099 
L 234.982058 244.351737 
L 234.85417 244.351322 
L 234.777438 244.351064 
L 234.700706 244.3508 
L 234.598396 244.350439 
L 233.95896 244.347927 
L 202.08946 244.026539 
L 201.398869 244.026288 
L 200.6827 244.026074 
L 200.478081 244.026017 
L 200.350193 244.025981 
L 200.273461 244.02596 
L 200.222306 244.025946 
L 199.506138 244.025735 
L 199.403828 244.025702 
L 199.327095 244.025676 
L 199.275941 244.025659 
L 199.173631 244.025623 
L 198.662082 244.025419 
L 166.101991 243.804509 
L 165.539287 243.814902 
L 164.951005 243.827585 
L 164.797541 243.831209 
L 164.695231 243.833667 
L 164.644076 243.834894 
L 164.592921 243.836121 
L 164.030217 243.849547 
L 163.953485 243.851369 
L 163.876753 243.853189 
L 163.851175 243.853795 
L 163.825598 243.854401 
L 163.774443 243.855613 
L 163.339626 243.865876 
L 130.088944 245.079946 
L 129.679705 245.111409 
L 129.244888 245.145649 
L 129.117001 245.155881 
L 129.065846 245.159995 
L 129.014691 245.16412 
L 128.989114 245.166187 
L 128.554297 245.201782 
L 128.477565 245.208142 
L 128.451987 245.210263 
L 128.400833 245.214505 
L 128.349678 245.218749 
L 128.042748 245.244245 
L 94.101475 248.490054 
L 93.820123 248.520416 
L 93.538771 248.550819 
L 93.462039 248.559118 
L 93.410884 248.564653 
L 93.385306 248.56742 
L 93.359729 248.570188 
L 93.078377 248.600658 
L 93.027222 248.606203 
L 93.001645 248.608975 
L 92.976067 248.611748 
L 92.95049 248.614521 
L 92.720293 248.639473 
L 58.114006 252.036139 
L 57.960541 252.04958 
L 57.832654 252.060774 
L 57.781499 252.06525 
L 57.755922 252.067487 
L 57.730344 252.069725 
L 57.602457 252.080907 
L 57.576879 252.083143 
L 57.551302 252.085378 
L 57.525725 252.087614 
L 57.423415 252.096552 
z
" clip-path="url(#pebe399d11f)" style="fill: #999999; fill-opacity: 0.4"/>
   </g>
   <g id="line2d_26">
    <path d="M 57.423415 257.02966 
L 58.114006 256.904083 
L 94.101475 251.460772 
L 130.088944 248.193004 
L 166.101991 247.073378 
L 202.08946 247.311365 
L 238.076929 247.303593 
L 274.089975 247.685244 
L 310.077445 248.745641 
L 346.064914 249.296451 
L 382.07796 249.304675 
L 382.07796 249.304675 
" clip-path="url(#pebe399d11f)" style="fill: none; stroke: #57db5f; stroke-width: 1.772454; stroke-linejoin: miter"/>
   </g>
   <g id="PolyCollection_3">
    <path d="M 57.423415 241.633507 
L 57.423415 280.121371 
L 57.525725 280.086729 
L 57.551302 280.078078 
L 57.576879 280.069431 
L 57.602457 280.060788 
L 57.730344 280.017632 
L 57.755922 280.009013 
L 57.781499 280.000397 
L 57.832654 279.983178 
L 57.960541 279.940199 
L 58.114006 279.888755 
L 92.720293 272.359468 
L 92.95049 272.335916 
L 92.976067 272.333315 
L 93.001645 272.330718 
L 93.027222 272.328123 
L 93.078377 272.322939 
L 93.359729 272.294595 
L 93.385306 272.292032 
L 93.410884 272.289471 
L 93.462039 272.284356 
L 93.538771 272.276701 
L 93.820123 272.248803 
L 94.101475 272.221172 
L 128.042748 269.735593 
L 128.349678 269.714358 
L 128.400833 269.710816 
L 128.451987 269.707272 
L 128.477565 269.7055 
L 128.554297 269.700183 
L 128.989114 269.669271 
L 129.014691 269.667405 
L 129.065846 269.663656 
L 129.117001 269.659887 
L 129.244888 269.65037 
L 129.679705 269.617036 
L 130.088944 269.584297 
L 163.339626 264.749265 
L 163.774443 264.675826 
L 163.825598 264.667174 
L 163.851175 264.662847 
L 163.876753 264.658519 
L 163.953485 264.645532 
L 164.030217 264.632539 
L 164.592921 264.537071 
L 164.644076 264.528375 
L 164.695231 264.519677 
L 164.797541 264.502273 
L 164.951005 264.475913 
L 165.539287 264.370428 
L 166.101991 264.26316 
L 198.662082 256.100704 
L 199.173631 256.013611 
L 199.275941 255.996349 
L 199.327095 255.987737 
L 199.403828 255.974842 
L 199.506138 255.957694 
L 200.222306 255.839044 
L 200.273461 255.830659 
L 200.350193 255.818106 
L 200.478081 255.797242 
L 200.6827 255.764011 
L 201.398869 255.649148 
L 202.08946 255.540444 
L 233.95896 250.900952 
L 234.598396 250.852132 
L 234.700706 250.844575 
L 234.777438 250.838953 
L 234.85417 250.83337 
L 234.982058 250.824153 
L 235.851691 250.764375 
L 235.902846 250.761016 
L 236.005156 250.754349 
L 236.133043 250.746114 
L 236.388817 250.729967 
L 237.258451 250.678297 
L 238.076929 250.634173 
L 269.255838 250.286057 
L 269.997584 250.247739 
L 270.125471 250.240705 
L 270.151048 250.239286 
L 270.202203 250.236453 
L 270.330091 250.229397 
L 270.457978 250.22238 
L 271.455498 250.168959 
L 271.532231 250.164945 
L 271.63454 250.159613 
L 271.813583 250.150339 
L 272.094935 250.135911 
L 273.118032 250.084919 
L 274.089975 250.03856 
L 304.578293 248.4719 
L 305.422349 248.365068 
L 305.550236 248.348225 
L 305.575814 248.344835 
L 305.652546 248.334624 
L 305.780433 248.317463 
L 305.933898 248.296636 
L 307.084883 248.139717 
L 307.161615 248.129273 
L 307.289503 248.111871 
L 307.468545 248.087517 
L 307.801052 248.042319 
L 308.977614 247.882691 
L 310.077445 247.733896 
L 339.875171 244.041329 
L 340.821537 243.948428 
L 340.975002 243.933626 
L 341.000579 243.931167 
L 341.102889 243.921349 
L 341.230776 243.909124 
L 341.409818 243.892099 
L 342.714268 243.7713 
L 342.791 243.764377 
L 342.944465 243.750593 
L 343.149085 243.732346 
L 343.507169 243.700882 
L 344.837196 243.59009 
L 346.064914 243.496705 
L 375.197627 244.357118 
L 376.246302 244.499444 
L 376.425344 244.524447 
L 376.450922 244.528035 
L 376.553231 244.54243 
L 376.706696 244.564148 
L 376.911316 244.593336 
L 378.343653 244.805004 
L 378.420385 244.816703 
L 378.599427 244.844143 
L 378.829624 244.879713 
L 379.238864 244.94375 
L 380.696778 245.180142 
L 382.07796 245.415803 
L 382.07796 203.85613 
L 382.07796 203.85613 
L 380.696778 204.714613 
L 379.238864 205.601247 
L 378.829624 205.846474 
L 378.599427 205.983705 
L 378.420385 206.090086 
L 378.343653 206.135582 
L 376.911316 206.974318 
L 376.706696 207.092494 
L 376.553231 207.180854 
L 376.450922 207.239632 
L 376.425344 207.25431 
L 376.246302 207.356875 
L 375.197627 207.951198 
L 346.064914 219.700201 
L 344.837196 219.990697 
L 343.507169 220.288539 
L 343.149085 220.365799 
L 342.944465 220.409381 
L 342.791 220.441784 
L 342.714268 220.457896 
L 341.409818 220.722729 
L 341.230776 220.757771 
L 341.102889 220.782611 
L 341.000579 220.802371 
L 340.975002 220.807295 
L 340.821537 220.83671 
L 339.875171 221.013222 
L 310.077445 223.886292 
L 308.977614 223.94493 
L 307.801052 224.007332 
L 307.468545 224.024948 
L 307.289503 224.034435 
L 307.161615 224.041213 
L 307.084883 224.04528 
L 305.933898 224.106416 
L 305.780433 224.114537 
L 305.652546 224.121223 
L 305.575814 224.1252 
L 305.550236 224.12652 
L 305.422349 224.133077 
L 304.578293 224.174576 
L 274.089975 224.565165 
L 273.118032 224.594272 
L 272.094935 224.631774 
L 271.813583 224.643413 
L 271.63454 224.651132 
L 271.532231 224.655653 
L 271.455498 224.659097 
L 270.457978 224.708167 
L 270.330091 224.715054 
L 270.202203 224.722081 
L 270.151048 224.724931 
L 270.125471 224.726365 
L 269.997584 224.733594 
L 269.255838 224.777342 
L 238.076929 227.641219 
L 237.258451 227.696302 
L 236.388817 227.752062 
L 236.133043 227.767924 
L 236.005156 227.775764 
L 235.902846 227.781993 
L 235.851691 227.785092 
L 234.982058 227.836322 
L 234.85417 227.843624 
L 234.777438 227.847978 
L 234.700706 227.852311 
L 234.598396 227.858055 
L 233.95896 227.893122 
L 202.08946 229.912396 
L 201.398869 230.024445 
L 200.6827 230.151253 
L 200.478081 230.189385 
L 200.350193 230.213635 
L 200.273461 230.228336 
L 200.222306 230.238201 
L 199.506138 230.381454 
L 199.403828 230.402684 
L 199.327095 230.418728 
L 199.275941 230.429482 
L 199.173631 230.451127 
L 198.662082 230.562039 
L 166.101991 238.759605 
L 165.539287 238.857413 
L 164.951005 238.958309 
L 164.797541 238.984406 
L 164.695231 239.001799 
L 164.644076 239.010515 
L 164.592921 239.019243 
L 164.030217 239.116069 
L 163.953485 239.129386 
L 163.876753 239.142729 
L 163.851175 239.147182 
L 163.825598 239.151639 
L 163.774443 239.16056 
L 163.339626 239.236855 
L 130.088944 245.29638 
L 129.679705 245.360544 
L 129.244888 245.428368 
L 129.117001 245.448247 
L 129.065846 245.45619 
L 129.014691 245.464128 
L 128.989114 245.468094 
L 128.554297 245.535333 
L 128.477565 245.547163 
L 128.451987 245.551105 
L 128.400833 245.558989 
L 128.349678 245.566871 
L 128.042748 245.614122 
L 94.101475 249.043787 
L 93.820123 249.042827 
L 93.538771 249.041092 
L 93.462039 249.040483 
L 93.410884 249.040045 
L 93.385306 249.039816 
L 93.359729 249.03958 
L 93.078377 249.036558 
L 93.027222 249.035922 
L 93.001645 249.035595 
L 92.976067 249.035261 
L 92.95049 249.03492 
L 92.720293 249.031574 
L 58.114006 241.909301 
L 57.960541 241.848428 
L 57.832654 241.79752 
L 57.781499 241.77711 
L 57.755922 241.766896 
L 57.730344 241.756674 
L 57.602457 241.70547 
L 57.576879 241.695209 
L 57.551302 241.684942 
L 57.525725 241.674668 
L 57.423415 241.633507 
z
" clip-path="url(#pebe399d11f)" style="fill: #999999; fill-opacity: 0.4"/>
   </g>
   <g id="line2d_27">
    <path d="M 57.423415 260.877439 
L 58.114006 260.899028 
L 94.101475 260.63248 
L 130.088944 257.440339 
L 166.101991 251.511383 
L 200.350193 243.01587 
L 202.08946 242.72642 
L 236.388817 239.241015 
L 238.076929 239.137696 
L 274.089975 237.301863 
L 305.933898 236.201526 
L 310.077445 235.810094 
L 342.944465 232.079987 
L 346.064914 231.598453 
L 378.829624 225.363093 
L 382.07796 224.635967 
L 382.07796 224.635967 
" clip-path="url(#pebe399d11f)" style="fill: none; stroke: #5f57db; stroke-width: 1.772454; stroke-linejoin: miter"/>
   </g>
   <g id="patch_3">
    <path d="M 405.510688 202.916339 
L 517.346688 202.916339 
L 517.346688 111.950402 
L 405.510688 111.950402 
z
" style="fill: #ffffff"/>
   </g>
   <g id="text_11">
    <!-- Model -->
    <g transform="translate(417.710688 135.543996)scale(0.11 -0.11)">
     <defs>
      <path id="DejaVuSans-4d" d="M 628 4666 
L 1569 4666 
L 2759 1491 
L 3956 4666 
L 4897 4666 
L 4897 0 
L 4281 0 
L 4281 4097 
L 3078 897 
L 2444 897 
L 1241 4097 
L 1241 0 
L 628 0 
L 628 4666 
z
" transform="scale(0.015625)"/>
     </defs>
     <use xlink:href="#DejaVuSans-4d"/>
     <use xlink:href="#DejaVuSans-6f" x="86.279297"/>
     <use xlink:href="#DejaVuSans-64" x="147.460938"/>
     <use xlink:href="#DejaVuSans-65" x="210.9375"/>
     <use xlink:href="#DejaVuSans-6c" x="272.460938"/>
    </g>
   </g>
   <g id="patch_4">
    <path d="M 417.710688 155.036339 
L 433.550687 155.036339 
L 433.550687 139.196339 
L 417.710688 139.196339 
z
" clip-path="url(#p37fc4208df)" style="fill: #f2f2f2"/>
   </g>
   <g id="patch_5">
    <path d="M 417.710688 151.076339 
L 433.550687 151.076339 
L 433.550687 143.156339 
L 417.710688 143.156339 
z
" clip-path="url(#p37fc4208df)" style="fill: #999999; opacity: 0.4"/>
   </g>
   <g id="line2d_28">
    <path d="M 417.710688 147.116339 
L 433.550687 147.116339 
" clip-path="url(#p37fc4208df)" style="fill: none; stroke: #db5f57; stroke-width: 1.772454"/>
   </g>
   <g id="text_12">
    <!-- five_layer_net -->
    <g transform="translate(436.550687 149.422214)scale(0.088 -0.088)">
     <defs>
      <path id="DejaVuSans-66" d="M 2375 4863 
L 2375 4384 
L 1825 4384 
Q 1516 4384 1395 4259 
Q 1275 4134 1275 3809 
L 1275 3500 
L 2222 3500 
L 2222 3053 
L 1275 3053 
L 1275 0 
L 697 0 
L 697 3053 
L 147 3053 
L 147 3500 
L 697 3500 
L 697 3744 
Q 697 4328 969 4595 
Q 1241 4863 1831 4863 
L 2375 4863 
z
" transform="scale(0.015625)"/>
      <path id="DejaVuSans-76" d="M 191 3500 
L 800 3500 
L 1894 563 
L 2988 3500 
L 3597 3500 
L 2284 0 
L 1503 0 
L 191 3500 
z
" transform="scale(0.015625)"/>
      <path id="DejaVuSans-5f" d="M 3263 -1063 
L 3263 -1509 
L -63 -1509 
L -63 -1063 
L 3263 -1063 
z
" transform="scale(0.015625)"/>
     </defs>
     <use xlink:href="#DejaVuSans-66"/>
     <use xlink:href="#DejaVuSans-69" x="35.205078"/>
     <use xlink:href="#DejaVuSans-76" x="62.988281"/>
     <use xlink:href="#DejaVuSans-65" x="122.167969"/>
     <use xlink:href="#DejaVuSans-5f" x="183.691406"/>
     <use xlink:href="#DejaVuSans-6c" x="233.691406"/>
     <use xlink:href="#DejaVuSans-61" x="261.474609"/>
     <use xlink:href="#DejaVuSans-79" x="322.753906"/>
     <use xlink:href="#DejaVuSans-65" x="381.933594"/>
     <use xlink:href="#DejaVuSans-72" x="443.457031"/>
     <use xlink:href="#DejaVuSans-5f" x="484.570312"/>
     <use xlink:href="#DejaVuSans-6e" x="534.570312"/>
     <use xlink:href="#DejaVuSans-65" x="597.949219"/>
     <use xlink:href="#DejaVuSans-74" x="659.472656"/>
    </g>
   </g>
   <g id="patch_6">
    <path d="M 417.710688 172.876339 
L 433.550687 172.876339 
L 433.550687 157.036339 
L 417.710688 157.036339 
z
" clip-path="url(#p2cb643e272)" style="fill: #f2f2f2"/>
   </g>
   <g id="patch_7">
    <path d="M 417.710688 168.916339 
L 433.550687 168.916339 
L 433.550687 160.996339 
L 417.710688 160.996339 
z
" clip-path="url(#p2cb643e272)" style="fill: #999999; opacity: 0.4"/>
   </g>
   <g id="line2d_29">
    <path d="M 417.710688 164.956339 
L 433.550687 164.956339 
" clip-path="url(#p2cb643e272)" style="fill: none; stroke: #57db5f; stroke-width: 1.772454"/>
   </g>
   <g id="text_13">
    <!-- pytorch_lr -->
    <g transform="translate(436.550687 167.262214)scale(0.088 -0.088)">
     <defs>
      <path id="DejaVuSans-68" d="M 3513 2113 
L 3513 0 
L 2938 0 
L 2938 2094 
Q 2938 2591 2744 2837 
Q 2550 3084 2163 3084 
Q 1697 3084 1428 2787 
Q 1159 2491 1159 1978 
L 1159 0 
L 581 0 
L 581 4863 
L 1159 4863 
L 1159 2956 
Q 1366 3272 1645 3428 
Q 1925 3584 2291 3584 
Q 2894 3584 3203 3211 
Q 3513 2838 3513 2113 
z
" transform="scale(0.015625)"/>
     </defs>
     <use xlink:href="#DejaVuSans-70"/>
     <use xlink:href="#DejaVuSans-79" x="63.476562"/>
     <use xlink:href="#DejaVuSans-74" x="122.65625"/>
     <use xlink:href="#DejaVuSans-6f" x="161.865234"/>
     <use xlink:href="#DejaVuSans-72" x="223.046875"/>
     <use xlink:href="#DejaVuSans-63" x="261.910156"/>
     <use xlink:href="#DejaVuSans-68" x="316.890625"/>
     <use xlink:href="#DejaVuSans-5f" x="380.269531"/>
     <use xlink:href="#DejaVuSans-6c" x="430.269531"/>
     <use xlink:href="#DejaVuSans-72" x="458.052734"/>
    </g>
   </g>
   <g id="patch_8">
    <path d="M 417.710688 190.716339 
L 433.550687 190.716339 
L 433.550687 174.876339 
L 417.710688 174.876339 
z
" clip-path="url(#pf337139899)" style="fill: #f2f2f2"/>
   </g>
   <g id="patch_9">
    <path d="M 417.710688 186.756339 
L 433.550687 186.756339 
L 433.550687 178.836339 
L 417.710688 178.836339 
z
" clip-path="url(#pf337139899)" style="fill: #999999; opacity: 0.4"/>
   </g>
   <g id="line2d_30">
    <path d="M 417.710688 182.796339 
L 433.550687 182.796339 
" clip-path="url(#pf337139899)" style="fill: none; stroke: #5f57db; stroke-width: 1.772454"/>
   </g>
   <g id="text_14">
    <!-- three_layer_net -->
    <g transform="translate(436.550687 185.102214)scale(0.088 -0.088)">
     <use xlink:href="#DejaVuSans-74"/>
     <use xlink:href="#DejaVuSans-68" x="39.208984"/>
     <use xlink:href="#DejaVuSans-72" x="102.587891"/>
     <use xlink:href="#DejaVuSans-65" x="141.451172"/>
     <use xlink:href="#DejaVuSans-65" x="202.974609"/>
     <use xlink:href="#DejaVuSans-5f" x="264.498047"/>
     <use xlink:href="#DejaVuSans-6c" x="314.498047"/>
     <use xlink:href="#DejaVuSans-61" x="342.28125"/>
     <use xlink:href="#DejaVuSans-79" x="403.560547"/>
     <use xlink:href="#DejaVuSans-65" x="462.740234"/>
     <use xlink:href="#DejaVuSans-72" x="524.263672"/>
     <use xlink:href="#DejaVuSans-5f" x="565.376953"/>
     <use xlink:href="#DejaVuSans-6e" x="615.376953"/>
     <use xlink:href="#DejaVuSans-65" x="678.755859"/>
     <use xlink:href="#DejaVuSans-74" x="740.279297"/>
    </g>
   </g>
  </g>
  <g id="text_15">
   <!-- GTEx Multiclass Signal Removed -->
   <g transform="translate(106.951063 17.229938)scale(0.132 -0.132)">
    <defs>
     <path id="DejaVuSans-47" d="M 3809 666 
L 3809 1919 
L 2778 1919 
L 2778 2438 
L 4434 2438 
L 4434 434 
Q 4069 175 3628 42 
Q 3188 -91 2688 -91 
Q 1594 -91 976 548 
Q 359 1188 359 2328 
Q 359 3472 976 4111 
Q 1594 4750 2688 4750 
Q 3144 4750 3555 4637 
Q 3966 4525 4313 4306 
L 4313 3634 
Q 3963 3931 3569 4081 
Q 3175 4231 2741 4231 
Q 1884 4231 1454 3753 
Q 1025 3275 1025 2328 
Q 1025 1384 1454 906 
Q 1884 428 2741 428 
Q 3075 428 3337 486 
Q 3600 544 3809 666 
z
" transform="scale(0.015625)"/>
     <path id="DejaVuSans-45" d="M 628 4666 
L 3578 4666 
L 3578 4134 
L 1259 4134 
L 1259 2753 
L 3481 2753 
L 3481 2222 
L 1259 2222 
L 1259 531 
L 3634 531 
L 3634 0 
L 628 0 
L 628 4666 
z
" transform="scale(0.015625)"/>
     <path id="DejaVuSans-78" d="M 3513 3500 
L 2247 1797 
L 3578 0 
L 2900 0 
L 1881 1375 
L 863 0 
L 184 0 
L 1544 1831 
L 300 3500 
L 978 3500 
L 1906 2253 
L 2834 3500 
L 3513 3500 
z
" transform="scale(0.015625)"/>
     <path id="DejaVuSans-73" d="M 2834 3397 
L 2834 2853 
Q 2591 2978 2328 3040 
Q 2066 3103 1784 3103 
Q 1356 3103 1142 2972 
Q 928 2841 928 2578 
Q 928 2378 1081 2264 
Q 1234 2150 1697 2047 
L 1894 2003 
Q 2506 1872 2764 1633 
Q 3022 1394 3022 966 
Q 3022 478 2636 193 
Q 2250 -91 1575 -91 
Q 1294 -91 989 -36 
Q 684 19 347 128 
L 347 722 
Q 666 556 975 473 
Q 1284 391 1588 391 
Q 1994 391 2212 530 
Q 2431 669 2431 922 
Q 2431 1156 2273 1281 
Q 2116 1406 1581 1522 
L 1381 1569 
Q 847 1681 609 1914 
Q 372 2147 372 2553 
Q 372 3047 722 3315 
Q 1072 3584 1716 3584 
Q 2034 3584 2315 3537 
Q 2597 3491 2834 3397 
z
" transform="scale(0.015625)"/>
     <path id="DejaVuSans-67" d="M 2906 1791 
Q 2906 2416 2648 2759 
Q 2391 3103 1925 3103 
Q 1463 3103 1205 2759 
Q 947 2416 947 1791 
Q 947 1169 1205 825 
Q 1463 481 1925 481 
Q 2391 481 2648 825 
Q 2906 1169 2906 1791 
z
M 3481 434 
Q 3481 -459 3084 -895 
Q 2688 -1331 1869 -1331 
Q 1566 -1331 1297 -1286 
Q 1028 -1241 775 -1147 
L 775 -588 
Q 1028 -725 1275 -790 
Q 1522 -856 1778 -856 
Q 2344 -856 2625 -561 
Q 2906 -266 2906 331 
L 2906 616 
Q 2728 306 2450 153 
Q 2172 0 1784 0 
Q 1141 0 747 490 
Q 353 981 353 1791 
Q 353 2603 747 3093 
Q 1141 3584 1784 3584 
Q 2172 3584 2450 3431 
Q 2728 3278 2906 2969 
L 2906 3500 
L 3481 3500 
L 3481 434 
z
" transform="scale(0.015625)"/>
     <path id="DejaVuSans-52" d="M 2841 2188 
Q 3044 2119 3236 1894 
Q 3428 1669 3622 1275 
L 4263 0 
L 3584 0 
L 2988 1197 
Q 2756 1666 2539 1819 
Q 2322 1972 1947 1972 
L 1259 1972 
L 1259 0 
L 628 0 
L 628 4666 
L 2053 4666 
Q 2853 4666 3247 4331 
Q 3641 3997 3641 3322 
Q 3641 2881 3436 2590 
Q 3231 2300 2841 2188 
z
M 1259 4147 
L 1259 2491 
L 2053 2491 
Q 2509 2491 2742 2702 
Q 2975 2913 2975 3322 
Q 2975 3731 2742 3939 
Q 2509 4147 2053 4147 
L 1259 4147 
z
" transform="scale(0.015625)"/>
    </defs>
    <use xlink:href="#DejaVuSans-47"/>
    <use xlink:href="#DejaVuSans-54" x="73.865234"/>
    <use xlink:href="#DejaVuSans-45" x="134.949219"/>
    <use xlink:href="#DejaVuSans-78" x="198.132812"/>
    <use xlink:href="#DejaVuSans-20" x="257.3125"/>
    <use xlink:href="#DejaVuSans-4d" x="289.099609"/>
    <use xlink:href="#DejaVuSans-75" x="375.378906"/>
    <use xlink:href="#DejaVuSans-6c" x="438.757812"/>
    <use xlink:href="#DejaVuSans-74" x="466.541016"/>
    <use xlink:href="#DejaVuSans-69" x="505.75"/>
    <use xlink:href="#DejaVuSans-63" x="533.533203"/>
    <use xlink:href="#DejaVuSans-6c" x="588.513672"/>
    <use xlink:href="#DejaVuSans-61" x="616.296875"/>
    <use xlink:href="#DejaVuSans-73" x="677.576172"/>
    <use xlink:href="#DejaVuSans-73" x="729.675781"/>
    <use xlink:href="#DejaVuSans-20" x="781.775391"/>
    <use xlink:href="#DejaVuSans-53" x="813.5625"/>
    <use xlink:href="#DejaVuSans-69" x="877.039062"/>
    <use xlink:href="#DejaVuSans-67" x="904.822266"/>
    <use xlink:href="#DejaVuSans-6e" x="968.298828"/>
    <use xlink:href="#DejaVuSans-61" x="1031.677734"/>
    <use xlink:href="#DejaVuSans-6c" x="1092.957031"/>
    <use xlink:href="#DejaVuSans-20" x="1120.740234"/>
    <use xlink:href="#DejaVuSans-52" x="1152.527344"/>
    <use xlink:href="#DejaVuSans-65" x="1217.509766"/>
    <use xlink:href="#DejaVuSans-6d" x="1279.033203"/>
    <use xlink:href="#DejaVuSans-6f" x="1376.445312"/>
    <use xlink:href="#DejaVuSans-76" x="1437.626953"/>
    <use xlink:href="#DejaVuSans-65" x="1496.806641"/>
    <use xlink:href="#DejaVuSans-64" x="1558.330078"/>
   </g>
  </g>
 </g>
 <defs>
  <clipPath id="pebe399d11f">
   <rect x="41.190688" y="26.105371" width="357.12" height="266.112"/>
  </clipPath>
  <clipPath id="p37fc4208df">
   <path d="M 417.710688 155.036339 
L 417.710688 139.196339 
L 433.550687 139.196339 
L 433.550687 155.036339 
"/>
  </clipPath>
  <clipPath id="p2cb643e272">
   <path d="M 417.710688 172.876339 
L 417.710688 157.036339 
L 433.550687 157.036339 
L 433.550687 172.876339 
"/>
  </clipPath>
  <clipPath id="pf337139899">
   <path d="M 417.710688 190.716339 
L 417.710688 174.876339 
L 433.550687 174.876339 
L 433.550687 190.716339 
"/>
  </clipPath>
 </defs>
</svg>
