<?xml version="1.0" encoding="utf-8" standalone="no"?>
<!DOCTYPE svg PUBLIC "-//W3C//DTD SVG 1.1//EN"
  "http://www.w3.org/Graphics/SVG/1.1/DTD/svg11.dtd">
<svg xmlns:xlink="http://www.w3.org/1999/xlink" width="532.678437pt" height="327.930058pt" viewBox="0 0 532.678437 327.930058" xmlns="http://www.w3.org/2000/svg" version="1.1">
 <metadata>
  <rdf:RDF xmlns:dc="http://purl.org/dc/elements/1.1/" xmlns:cc="http://creativecommons.org/ns#" xmlns:rdf="http://www.w3.org/1999/02/22-rdf-syntax-ns#">
   <cc:Work>
    <dc:type rdf:resource="http://purl.org/dc/dcmitype/StillImage"/>
    <dc:date>2022-05-11T16:08:20.856215</dc:date>
    <dc:format>image/svg+xml</dc:format>
    <dc:creator>
     <cc:Agent>
      <dc:title>Matplotlib v3.5.1, https://matplotlib.org/</dc:title>
     </cc:Agent>
    </dc:creator>
   </cc:Work>
  </rdf:RDF>
 </metadata>
 <defs>
  <style type="text/css">*{stroke-linejoin: round; stroke-linecap: butt}</style>
 </defs>
 <g id="figure_1">
  <g id="patch_1">
   <path d="M 0 327.930058 
L 532.678437 327.930058 
L 532.678437 0 
L 0 0 
z
" style="fill: #ffffff; stroke: #ffffff; stroke-linejoin: miter"/>
  </g>
  <g id="axes_1">
   <g id="patch_2">
    <path d="M 46.789688 292.217371 
L 403.909688 292.217371 
L 403.909688 26.105371 
L 46.789688 26.105371 
z
" style="fill: #ebebeb"/>
   </g>
   <g id="matplotlib.axis_1">
    <g id="xtick_1">
     <g id="line2d_1">
      <path d="M 155.612776 292.217371 
L 155.612776 26.105371 
" clip-path="url(#p1af4b04f91)" style="fill: none; stroke: #ffffff"/>
     </g>
     <g id="line2d_2">
      <path d="M 155.612776 292.217371 
" style="fill: none; stroke: #333333; stroke-width: 1.5"/>
      <defs>
       <path id="m63cb8ced5a" d="M 0 0 
L 0 2.75 
" style="stroke: #000000"/>
      </defs>
      <g>
       <use xlink:href="#m63cb8ced5a" x="155.612776" y="292.217371" style="fill: #333333; stroke: #000000"/>
      </g>
     </g>
     <g id="text_1">
      <!-- 5000 -->
      <g style="fill: #4d4d4d" transform="translate(144.414776 303.853996)scale(0.088 -0.088)">
       <defs>
        <path id="DejaVuSans-35" d="M 691 4666 
L 3169 4666 
L 3169 4134 
L 1269 4134 
L 1269 2991 
Q 1406 3038 1543 3061 
Q 1681 3084 1819 3084 
Q 2600 3084 3056 2656 
Q 3513 2228 3513 1497 
Q 3513 744 3044 326 
Q 2575 -91 1722 -91 
Q 1428 -91 1123 -41 
Q 819 9 494 109 
L 494 744 
Q 775 591 1075 516 
Q 1375 441 1709 441 
Q 2250 441 2565 725 
Q 2881 1009 2881 1497 
Q 2881 1984 2565 2268 
Q 2250 2553 1709 2553 
Q 1456 2553 1204 2497 
Q 953 2441 691 2322 
L 691 4666 
z
" transform="scale(0.015625)"/>
        <path id="DejaVuSans-30" d="M 2034 4250 
Q 1547 4250 1301 3770 
Q 1056 3291 1056 2328 
Q 1056 1369 1301 889 
Q 1547 409 2034 409 
Q 2525 409 2770 889 
Q 3016 1369 3016 2328 
Q 3016 3291 2770 3770 
Q 2525 4250 2034 4250 
z
M 2034 4750 
Q 2819 4750 3233 4129 
Q 3647 3509 3647 2328 
Q 3647 1150 3233 529 
Q 2819 -91 2034 -91 
Q 1250 -91 836 529 
Q 422 1150 422 2328 
Q 422 3509 836 4129 
Q 1250 4750 2034 4750 
z
" transform="scale(0.015625)"/>
       </defs>
       <use xlink:href="#DejaVuSans-35"/>
       <use xlink:href="#DejaVuSans-30" x="63.623047"/>
       <use xlink:href="#DejaVuSans-30" x="127.246094"/>
       <use xlink:href="#DejaVuSans-30" x="190.869141"/>
      </g>
     </g>
    </g>
    <g id="xtick_2">
     <g id="line2d_3">
      <path d="M 283.500015 292.217371 
L 283.500015 26.105371 
" clip-path="url(#p1af4b04f91)" style="fill: none; stroke: #ffffff"/>
     </g>
     <g id="line2d_4">
      <path d="M 283.500015 292.217371 
" style="fill: none; stroke: #333333; stroke-width: 1.5"/>
      <g>
       <use xlink:href="#m63cb8ced5a" x="283.500015" y="292.217371" style="fill: #333333; stroke: #000000"/>
      </g>
     </g>
     <g id="text_2">
      <!-- 10000 -->
      <g style="fill: #4d4d4d" transform="translate(269.502515 303.853996)scale(0.088 -0.088)">
       <defs>
        <path id="DejaVuSans-31" d="M 794 531 
L 1825 531 
L 1825 4091 
L 703 3866 
L 703 4441 
L 1819 4666 
L 2450 4666 
L 2450 531 
L 3481 531 
L 3481 0 
L 794 0 
L 794 531 
z
" transform="scale(0.015625)"/>
       </defs>
       <use xlink:href="#DejaVuSans-31"/>
       <use xlink:href="#DejaVuSans-30" x="63.623047"/>
       <use xlink:href="#DejaVuSans-30" x="127.246094"/>
       <use xlink:href="#DejaVuSans-30" x="190.869141"/>
       <use xlink:href="#DejaVuSans-30" x="254.492188"/>
      </g>
     </g>
    </g>
    <g id="xtick_3">
     <g id="line2d_5">
      <path d="M 91.669156 292.217371 
L 91.669156 26.105371 
" clip-path="url(#p1af4b04f91)" style="fill: none; stroke: #ffffff; stroke-width: 0.5"/>
     </g>
    </g>
    <g id="xtick_4">
     <g id="line2d_6">
      <path d="M 219.556396 292.217371 
L 219.556396 26.105371 
" clip-path="url(#p1af4b04f91)" style="fill: none; stroke: #ffffff; stroke-width: 0.5"/>
     </g>
    </g>
    <g id="xtick_5">
     <g id="line2d_7">
      <path d="M 347.443635 292.217371 
L 347.443635 26.105371 
" clip-path="url(#p1af4b04f91)" style="fill: none; stroke: #ffffff; stroke-width: 0.5"/>
     </g>
    </g>
    <g id="text_3">
     <!-- Train Sample Count -->
     <g transform="translate(165.944063 318.442402)scale(0.11 -0.11)">
      <defs>
       <path id="DejaVuSans-54" d="M -19 4666 
L 3928 4666 
L 3928 4134 
L 2272 4134 
L 2272 0 
L 1638 0 
L 1638 4134 
L -19 4134 
L -19 4666 
z
" transform="scale(0.015625)"/>
       <path id="DejaVuSans-72" d="M 2631 2963 
Q 2534 3019 2420 3045 
Q 2306 3072 2169 3072 
Q 1681 3072 1420 2755 
Q 1159 2438 1159 1844 
L 1159 0 
L 581 0 
L 581 3500 
L 1159 3500 
L 1159 2956 
Q 1341 3275 1631 3429 
Q 1922 3584 2338 3584 
Q 2397 3584 2469 3576 
Q 2541 3569 2628 3553 
L 2631 2963 
z
" transform="scale(0.015625)"/>
       <path id="DejaVuSans-61" d="M 2194 1759 
Q 1497 1759 1228 1600 
Q 959 1441 959 1056 
Q 959 750 1161 570 
Q 1363 391 1709 391 
Q 2188 391 2477 730 
Q 2766 1069 2766 1631 
L 2766 1759 
L 2194 1759 
z
M 3341 1997 
L 3341 0 
L 2766 0 
L 2766 531 
Q 2569 213 2275 61 
Q 1981 -91 1556 -91 
Q 1019 -91 701 211 
Q 384 513 384 1019 
Q 384 1609 779 1909 
Q 1175 2209 1959 2209 
L 2766 2209 
L 2766 2266 
Q 2766 2663 2505 2880 
Q 2244 3097 1772 3097 
Q 1472 3097 1187 3025 
Q 903 2953 641 2809 
L 641 3341 
Q 956 3463 1253 3523 
Q 1550 3584 1831 3584 
Q 2591 3584 2966 3190 
Q 3341 2797 3341 1997 
z
" transform="scale(0.015625)"/>
       <path id="DejaVuSans-69" d="M 603 3500 
L 1178 3500 
L 1178 0 
L 603 0 
L 603 3500 
z
M 603 4863 
L 1178 4863 
L 1178 4134 
L 603 4134 
L 603 4863 
z
" transform="scale(0.015625)"/>
       <path id="DejaVuSans-6e" d="M 3513 2113 
L 3513 0 
L 2938 0 
L 2938 2094 
Q 2938 2591 2744 2837 
Q 2550 3084 2163 3084 
Q 1697 3084 1428 2787 
Q 1159 2491 1159 1978 
L 1159 0 
L 581 0 
L 581 3500 
L 1159 3500 
L 1159 2956 
Q 1366 3272 1645 3428 
Q 1925 3584 2291 3584 
Q 2894 3584 3203 3211 
Q 3513 2838 3513 2113 
z
" transform="scale(0.015625)"/>
       <path id="DejaVuSans-20" transform="scale(0.015625)"/>
       <path id="DejaVuSans-53" d="M 3425 4513 
L 3425 3897 
Q 3066 4069 2747 4153 
Q 2428 4238 2131 4238 
Q 1616 4238 1336 4038 
Q 1056 3838 1056 3469 
Q 1056 3159 1242 3001 
Q 1428 2844 1947 2747 
L 2328 2669 
Q 3034 2534 3370 2195 
Q 3706 1856 3706 1288 
Q 3706 609 3251 259 
Q 2797 -91 1919 -91 
Q 1588 -91 1214 -16 
Q 841 59 441 206 
L 441 856 
Q 825 641 1194 531 
Q 1563 422 1919 422 
Q 2459 422 2753 634 
Q 3047 847 3047 1241 
Q 3047 1584 2836 1778 
Q 2625 1972 2144 2069 
L 1759 2144 
Q 1053 2284 737 2584 
Q 422 2884 422 3419 
Q 422 4038 858 4394 
Q 1294 4750 2059 4750 
Q 2388 4750 2728 4690 
Q 3069 4631 3425 4513 
z
" transform="scale(0.015625)"/>
       <path id="DejaVuSans-6d" d="M 3328 2828 
Q 3544 3216 3844 3400 
Q 4144 3584 4550 3584 
Q 5097 3584 5394 3201 
Q 5691 2819 5691 2113 
L 5691 0 
L 5113 0 
L 5113 2094 
Q 5113 2597 4934 2840 
Q 4756 3084 4391 3084 
Q 3944 3084 3684 2787 
Q 3425 2491 3425 1978 
L 3425 0 
L 2847 0 
L 2847 2094 
Q 2847 2600 2669 2842 
Q 2491 3084 2119 3084 
Q 1678 3084 1418 2786 
Q 1159 2488 1159 1978 
L 1159 0 
L 581 0 
L 581 3500 
L 1159 3500 
L 1159 2956 
Q 1356 3278 1631 3431 
Q 1906 3584 2284 3584 
Q 2666 3584 2933 3390 
Q 3200 3197 3328 2828 
z
" transform="scale(0.015625)"/>
       <path id="DejaVuSans-70" d="M 1159 525 
L 1159 -1331 
L 581 -1331 
L 581 3500 
L 1159 3500 
L 1159 2969 
Q 1341 3281 1617 3432 
Q 1894 3584 2278 3584 
Q 2916 3584 3314 3078 
Q 3713 2572 3713 1747 
Q 3713 922 3314 415 
Q 2916 -91 2278 -91 
Q 1894 -91 1617 61 
Q 1341 213 1159 525 
z
M 3116 1747 
Q 3116 2381 2855 2742 
Q 2594 3103 2138 3103 
Q 1681 3103 1420 2742 
Q 1159 2381 1159 1747 
Q 1159 1113 1420 752 
Q 1681 391 2138 391 
Q 2594 391 2855 752 
Q 3116 1113 3116 1747 
z
" transform="scale(0.015625)"/>
       <path id="DejaVuSans-6c" d="M 603 4863 
L 1178 4863 
L 1178 0 
L 603 0 
L 603 4863 
z
" transform="scale(0.015625)"/>
       <path id="DejaVuSans-65" d="M 3597 1894 
L 3597 1613 
L 953 1613 
Q 991 1019 1311 708 
Q 1631 397 2203 397 
Q 2534 397 2845 478 
Q 3156 559 3463 722 
L 3463 178 
Q 3153 47 2828 -22 
Q 2503 -91 2169 -91 
Q 1331 -91 842 396 
Q 353 884 353 1716 
Q 353 2575 817 3079 
Q 1281 3584 2069 3584 
Q 2775 3584 3186 3129 
Q 3597 2675 3597 1894 
z
M 3022 2063 
Q 3016 2534 2758 2815 
Q 2500 3097 2075 3097 
Q 1594 3097 1305 2825 
Q 1016 2553 972 2059 
L 3022 2063 
z
" transform="scale(0.015625)"/>
       <path id="DejaVuSans-43" d="M 4122 4306 
L 4122 3641 
Q 3803 3938 3442 4084 
Q 3081 4231 2675 4231 
Q 1875 4231 1450 3742 
Q 1025 3253 1025 2328 
Q 1025 1406 1450 917 
Q 1875 428 2675 428 
Q 3081 428 3442 575 
Q 3803 722 4122 1019 
L 4122 359 
Q 3791 134 3420 21 
Q 3050 -91 2638 -91 
Q 1578 -91 968 557 
Q 359 1206 359 2328 
Q 359 3453 968 4101 
Q 1578 4750 2638 4750 
Q 3056 4750 3426 4639 
Q 3797 4528 4122 4306 
z
" transform="scale(0.015625)"/>
       <path id="DejaVuSans-6f" d="M 1959 3097 
Q 1497 3097 1228 2736 
Q 959 2375 959 1747 
Q 959 1119 1226 758 
Q 1494 397 1959 397 
Q 2419 397 2687 759 
Q 2956 1122 2956 1747 
Q 2956 2369 2687 2733 
Q 2419 3097 1959 3097 
z
M 1959 3584 
Q 2709 3584 3137 3096 
Q 3566 2609 3566 1747 
Q 3566 888 3137 398 
Q 2709 -91 1959 -91 
Q 1206 -91 779 398 
Q 353 888 353 1747 
Q 353 2609 779 3096 
Q 1206 3584 1959 3584 
z
" transform="scale(0.015625)"/>
       <path id="DejaVuSans-75" d="M 544 1381 
L 544 3500 
L 1119 3500 
L 1119 1403 
Q 1119 906 1312 657 
Q 1506 409 1894 409 
Q 2359 409 2629 706 
Q 2900 1003 2900 1516 
L 2900 3500 
L 3475 3500 
L 3475 0 
L 2900 0 
L 2900 538 
Q 2691 219 2414 64 
Q 2138 -91 1772 -91 
Q 1169 -91 856 284 
Q 544 659 544 1381 
z
M 1991 3584 
L 1991 3584 
z
" transform="scale(0.015625)"/>
       <path id="DejaVuSans-74" d="M 1172 4494 
L 1172 3500 
L 2356 3500 
L 2356 3053 
L 1172 3053 
L 1172 1153 
Q 1172 725 1289 603 
Q 1406 481 1766 481 
L 2356 481 
L 2356 0 
L 1766 0 
Q 1100 0 847 248 
Q 594 497 594 1153 
L 594 3053 
L 172 3053 
L 172 3500 
L 594 3500 
L 594 4494 
L 1172 4494 
z
" transform="scale(0.015625)"/>
      </defs>
      <use xlink:href="#DejaVuSans-54"/>
      <use xlink:href="#DejaVuSans-72" x="46.333984"/>
      <use xlink:href="#DejaVuSans-61" x="87.447266"/>
      <use xlink:href="#DejaVuSans-69" x="148.726562"/>
      <use xlink:href="#DejaVuSans-6e" x="176.509766"/>
      <use xlink:href="#DejaVuSans-20" x="239.888672"/>
      <use xlink:href="#DejaVuSans-53" x="271.675781"/>
      <use xlink:href="#DejaVuSans-61" x="335.152344"/>
      <use xlink:href="#DejaVuSans-6d" x="396.431641"/>
      <use xlink:href="#DejaVuSans-70" x="493.84375"/>
      <use xlink:href="#DejaVuSans-6c" x="557.320312"/>
      <use xlink:href="#DejaVuSans-65" x="585.103516"/>
      <use xlink:href="#DejaVuSans-20" x="646.626953"/>
      <use xlink:href="#DejaVuSans-43" x="678.414062"/>
      <use xlink:href="#DejaVuSans-6f" x="748.238281"/>
      <use xlink:href="#DejaVuSans-75" x="809.419922"/>
      <use xlink:href="#DejaVuSans-6e" x="872.798828"/>
      <use xlink:href="#DejaVuSans-74" x="936.177734"/>
     </g>
    </g>
   </g>
   <g id="matplotlib.axis_2">
    <g id="ytick_1">
     <g id="line2d_8">
      <path d="M 46.789688 278.352397 
L 403.909688 278.352397 
" clip-path="url(#p1af4b04f91)" style="fill: none; stroke: #ffffff"/>
     </g>
     <g id="line2d_9">
      <path d="M 46.789688 278.352397 
" style="fill: none; stroke: #333333; stroke-width: 1.5"/>
      <defs>
       <path id="m9c53815e05" d="M 0 0 
L -2.75 0 
" style="stroke: #000000"/>
      </defs>
      <g>
       <use xlink:href="#m9c53815e05" x="46.789688" y="278.352397" style="fill: #333333; stroke: #000000"/>
      </g>
     </g>
     <g id="text_4">
      <!-- 0 -->
      <g style="fill: #4d4d4d" transform="translate(36.240688 280.780647)scale(0.088 -0.088)">
       <use xlink:href="#DejaVuSans-30"/>
      </g>
     </g>
    </g>
    <g id="ytick_2">
     <g id="line2d_10">
      <path d="M 46.789688 213.118418 
L 403.909688 213.118418 
" clip-path="url(#p1af4b04f91)" style="fill: none; stroke: #ffffff"/>
     </g>
     <g id="line2d_11">
      <path d="M 46.789688 213.118418 
" style="fill: none; stroke: #333333; stroke-width: 1.5"/>
      <g>
       <use xlink:href="#m9c53815e05" x="46.789688" y="213.118418" style="fill: #333333; stroke: #000000"/>
      </g>
     </g>
     <g id="text_5">
      <!-- 0.25 -->
      <g style="fill: #4d4d4d" transform="translate(22.245938 215.546668)scale(0.088 -0.088)">
       <defs>
        <path id="DejaVuSans-2e" d="M 684 794 
L 1344 794 
L 1344 0 
L 684 0 
L 684 794 
z
" transform="scale(0.015625)"/>
        <path id="DejaVuSans-32" d="M 1228 531 
L 3431 531 
L 3431 0 
L 469 0 
L 469 531 
Q 828 903 1448 1529 
Q 2069 2156 2228 2338 
Q 2531 2678 2651 2914 
Q 2772 3150 2772 3378 
Q 2772 3750 2511 3984 
Q 2250 4219 1831 4219 
Q 1534 4219 1204 4116 
Q 875 4013 500 3803 
L 500 4441 
Q 881 4594 1212 4672 
Q 1544 4750 1819 4750 
Q 2544 4750 2975 4387 
Q 3406 4025 3406 3419 
Q 3406 3131 3298 2873 
Q 3191 2616 2906 2266 
Q 2828 2175 2409 1742 
Q 1991 1309 1228 531 
z
" transform="scale(0.015625)"/>
       </defs>
       <use xlink:href="#DejaVuSans-30"/>
       <use xlink:href="#DejaVuSans-2e" x="63.623047"/>
       <use xlink:href="#DejaVuSans-32" x="95.410156"/>
       <use xlink:href="#DejaVuSans-35" x="159.033203"/>
      </g>
     </g>
    </g>
    <g id="ytick_3">
     <g id="line2d_12">
      <path d="M 46.789688 147.884438 
L 403.909688 147.884438 
" clip-path="url(#p1af4b04f91)" style="fill: none; stroke: #ffffff"/>
     </g>
     <g id="line2d_13">
      <path d="M 46.789688 147.884438 
" style="fill: none; stroke: #333333; stroke-width: 1.5"/>
      <g>
       <use xlink:href="#m9c53815e05" x="46.789688" y="147.884438" style="fill: #333333; stroke: #000000"/>
      </g>
     </g>
     <g id="text_6">
      <!-- 0.50 -->
      <g style="fill: #4d4d4d" transform="translate(22.245938 150.312688)scale(0.088 -0.088)">
       <use xlink:href="#DejaVuSans-30"/>
       <use xlink:href="#DejaVuSans-2e" x="63.623047"/>
       <use xlink:href="#DejaVuSans-35" x="95.410156"/>
       <use xlink:href="#DejaVuSans-30" x="159.033203"/>
      </g>
     </g>
    </g>
    <g id="ytick_4">
     <g id="line2d_14">
      <path d="M 46.789688 82.650459 
L 403.909688 82.650459 
" clip-path="url(#p1af4b04f91)" style="fill: none; stroke: #ffffff"/>
     </g>
     <g id="line2d_15">
      <path d="M 46.789688 82.650459 
" style="fill: none; stroke: #333333; stroke-width: 1.5"/>
      <g>
       <use xlink:href="#m9c53815e05" x="46.789688" y="82.650459" style="fill: #333333; stroke: #000000"/>
      </g>
     </g>
     <g id="text_7">
      <!-- 0.75 -->
      <g style="fill: #4d4d4d" transform="translate(22.245938 85.078709)scale(0.088 -0.088)">
       <defs>
        <path id="DejaVuSans-37" d="M 525 4666 
L 3525 4666 
L 3525 4397 
L 1831 0 
L 1172 0 
L 2766 4134 
L 525 4134 
L 525 4666 
z
" transform="scale(0.015625)"/>
       </defs>
       <use xlink:href="#DejaVuSans-30"/>
       <use xlink:href="#DejaVuSans-2e" x="63.623047"/>
       <use xlink:href="#DejaVuSans-37" x="95.410156"/>
       <use xlink:href="#DejaVuSans-35" x="159.033203"/>
      </g>
     </g>
    </g>
    <g id="ytick_5">
     <g id="line2d_16">
      <path d="M 46.789688 245.735407 
L 403.909688 245.735407 
" clip-path="url(#p1af4b04f91)" style="fill: none; stroke: #ffffff; stroke-width: 0.5"/>
     </g>
    </g>
    <g id="ytick_6">
     <g id="line2d_17">
      <path d="M 46.789688 180.501428 
L 403.909688 180.501428 
" clip-path="url(#p1af4b04f91)" style="fill: none; stroke: #ffffff; stroke-width: 0.5"/>
     </g>
    </g>
    <g id="ytick_7">
     <g id="line2d_18">
      <path d="M 46.789688 115.267448 
L 403.909688 115.267448 
" clip-path="url(#p1af4b04f91)" style="fill: none; stroke: #ffffff; stroke-width: 0.5"/>
     </g>
    </g>
    <g id="ytick_8">
     <g id="line2d_19">
      <path d="M 46.789688 50.033469 
L 403.909688 50.033469 
" clip-path="url(#p1af4b04f91)" style="fill: none; stroke: #ffffff; stroke-width: 0.5"/>
     </g>
    </g>
    <g id="text_8">
     <!-- Balanced Accuracy (Val Set) -->
     <g transform="translate(15.558281 234.774543)rotate(-90)scale(0.11 -0.11)">
      <defs>
       <path id="DejaVuSans-42" d="M 1259 2228 
L 1259 519 
L 2272 519 
Q 2781 519 3026 730 
Q 3272 941 3272 1375 
Q 3272 1813 3026 2020 
Q 2781 2228 2272 2228 
L 1259 2228 
z
M 1259 4147 
L 1259 2741 
L 2194 2741 
Q 2656 2741 2882 2914 
Q 3109 3088 3109 3444 
Q 3109 3797 2882 3972 
Q 2656 4147 2194 4147 
L 1259 4147 
z
M 628 4666 
L 2241 4666 
Q 2963 4666 3353 4366 
Q 3744 4066 3744 3513 
Q 3744 3084 3544 2831 
Q 3344 2578 2956 2516 
Q 3422 2416 3680 2098 
Q 3938 1781 3938 1306 
Q 3938 681 3513 340 
Q 3088 0 2303 0 
L 628 0 
L 628 4666 
z
" transform="scale(0.015625)"/>
       <path id="DejaVuSans-63" d="M 3122 3366 
L 3122 2828 
Q 2878 2963 2633 3030 
Q 2388 3097 2138 3097 
Q 1578 3097 1268 2742 
Q 959 2388 959 1747 
Q 959 1106 1268 751 
Q 1578 397 2138 397 
Q 2388 397 2633 464 
Q 2878 531 3122 666 
L 3122 134 
Q 2881 22 2623 -34 
Q 2366 -91 2075 -91 
Q 1284 -91 818 406 
Q 353 903 353 1747 
Q 353 2603 823 3093 
Q 1294 3584 2113 3584 
Q 2378 3584 2631 3529 
Q 2884 3475 3122 3366 
z
" transform="scale(0.015625)"/>
       <path id="DejaVuSans-64" d="M 2906 2969 
L 2906 4863 
L 3481 4863 
L 3481 0 
L 2906 0 
L 2906 525 
Q 2725 213 2448 61 
Q 2172 -91 1784 -91 
Q 1150 -91 751 415 
Q 353 922 353 1747 
Q 353 2572 751 3078 
Q 1150 3584 1784 3584 
Q 2172 3584 2448 3432 
Q 2725 3281 2906 2969 
z
M 947 1747 
Q 947 1113 1208 752 
Q 1469 391 1925 391 
Q 2381 391 2643 752 
Q 2906 1113 2906 1747 
Q 2906 2381 2643 2742 
Q 2381 3103 1925 3103 
Q 1469 3103 1208 2742 
Q 947 2381 947 1747 
z
" transform="scale(0.015625)"/>
       <path id="DejaVuSans-41" d="M 2188 4044 
L 1331 1722 
L 3047 1722 
L 2188 4044 
z
M 1831 4666 
L 2547 4666 
L 4325 0 
L 3669 0 
L 3244 1197 
L 1141 1197 
L 716 0 
L 50 0 
L 1831 4666 
z
" transform="scale(0.015625)"/>
       <path id="DejaVuSans-79" d="M 2059 -325 
Q 1816 -950 1584 -1140 
Q 1353 -1331 966 -1331 
L 506 -1331 
L 506 -850 
L 844 -850 
Q 1081 -850 1212 -737 
Q 1344 -625 1503 -206 
L 1606 56 
L 191 3500 
L 800 3500 
L 1894 763 
L 2988 3500 
L 3597 3500 
L 2059 -325 
z
" transform="scale(0.015625)"/>
       <path id="DejaVuSans-28" d="M 1984 4856 
Q 1566 4138 1362 3434 
Q 1159 2731 1159 2009 
Q 1159 1288 1364 580 
Q 1569 -128 1984 -844 
L 1484 -844 
Q 1016 -109 783 600 
Q 550 1309 550 2009 
Q 550 2706 781 3412 
Q 1013 4119 1484 4856 
L 1984 4856 
z
" transform="scale(0.015625)"/>
       <path id="DejaVuSans-56" d="M 1831 0 
L 50 4666 
L 709 4666 
L 2188 738 
L 3669 4666 
L 4325 4666 
L 2547 0 
L 1831 0 
z
" transform="scale(0.015625)"/>
       <path id="DejaVuSans-29" d="M 513 4856 
L 1013 4856 
Q 1481 4119 1714 3412 
Q 1947 2706 1947 2009 
Q 1947 1309 1714 600 
Q 1481 -109 1013 -844 
L 513 -844 
Q 928 -128 1133 580 
Q 1338 1288 1338 2009 
Q 1338 2731 1133 3434 
Q 928 4138 513 4856 
z
" transform="scale(0.015625)"/>
      </defs>
      <use xlink:href="#DejaVuSans-42"/>
      <use xlink:href="#DejaVuSans-61" x="68.603516"/>
      <use xlink:href="#DejaVuSans-6c" x="129.882812"/>
      <use xlink:href="#DejaVuSans-61" x="157.666016"/>
      <use xlink:href="#DejaVuSans-6e" x="218.945312"/>
      <use xlink:href="#DejaVuSans-63" x="282.324219"/>
      <use xlink:href="#DejaVuSans-65" x="337.304688"/>
      <use xlink:href="#DejaVuSans-64" x="398.828125"/>
      <use xlink:href="#DejaVuSans-20" x="462.304688"/>
      <use xlink:href="#DejaVuSans-41" x="494.091797"/>
      <use xlink:href="#DejaVuSans-63" x="560.75"/>
      <use xlink:href="#DejaVuSans-63" x="615.730469"/>
      <use xlink:href="#DejaVuSans-75" x="670.710938"/>
      <use xlink:href="#DejaVuSans-72" x="734.089844"/>
      <use xlink:href="#DejaVuSans-61" x="775.203125"/>
      <use xlink:href="#DejaVuSans-63" x="836.482422"/>
      <use xlink:href="#DejaVuSans-79" x="891.462891"/>
      <use xlink:href="#DejaVuSans-20" x="950.642578"/>
      <use xlink:href="#DejaVuSans-28" x="982.429688"/>
      <use xlink:href="#DejaVuSans-56" x="1021.443359"/>
      <use xlink:href="#DejaVuSans-61" x="1082.101562"/>
      <use xlink:href="#DejaVuSans-6c" x="1143.380859"/>
      <use xlink:href="#DejaVuSans-20" x="1171.164062"/>
      <use xlink:href="#DejaVuSans-53" x="1202.951172"/>
      <use xlink:href="#DejaVuSans-65" x="1266.427734"/>
      <use xlink:href="#DejaVuSans-74" x="1327.951172"/>
      <use xlink:href="#DejaVuSans-29" x="1367.160156"/>
     </g>
    </g>
   </g>
   <g id="PolyCollection_1">
    <path d="M 63.022415 213.821027 
L 63.022415 253.83513 
L 63.124725 253.641512 
L 63.150302 253.593136 
L 63.175879 253.544771 
L 63.201457 253.496418 
L 63.329344 253.254821 
L 63.354922 253.206536 
L 63.380499 253.158262 
L 63.431654 253.061748 
L 63.559541 252.820662 
L 63.713006 252.531733 
L 98.319293 198.326991 
L 98.54949 198.03905 
L 98.575067 198.00711 
L 98.600645 197.975183 
L 98.626222 197.943267 
L 98.677377 197.879474 
L 98.958729 197.529494 
L 98.984306 197.497752 
L 99.009884 197.466022 
L 99.061039 197.402598 
L 99.137771 197.307555 
L 99.419123 196.960002 
L 99.700475 196.613916 
L 133.641748 162.429483 
L 133.948678 162.163597 
L 133.999833 162.11932 
L 134.050987 162.075054 
L 134.076565 162.052925 
L 134.153297 161.986553 
L 134.588114 161.612299 
L 134.613691 161.590394 
L 134.664846 161.546622 
L 134.716001 161.502898 
L 134.843888 161.3938 
L 135.278705 161.025118 
L 135.687944 160.681259 
L 168.938626 138.693025 
L 169.373443 138.416648 
L 169.424598 138.384013 
L 169.450175 138.367686 
L 169.475753 138.351352 
L 169.552485 138.302313 
L 169.629217 138.253215 
L 170.191921 137.89132 
L 170.243076 137.858256 
L 170.294231 137.825164 
L 170.396541 137.758894 
L 170.550005 137.659457 
L 171.138287 137.279264 
L 171.700991 136.917119 
L 204.261082 120.054383 
L 204.772631 119.812051 
L 204.874941 119.763247 
L 204.926095 119.738801 
L 205.002828 119.702076 
L 205.105138 119.653006 
L 205.821306 119.306043 
L 205.872461 119.281018 
L 205.949193 119.243419 
L 206.077081 119.180585 
L 206.2817 119.079605 
L 206.997869 118.721683 
L 207.68846 118.369539 
L 239.55796 100.563328 
L 240.197396 100.24261 
L 240.299706 100.19162 
L 240.376438 100.153437 
L 240.45317 100.115304 
L 240.581058 100.051863 
L 241.450691 99.62425 
L 241.501846 99.599303 
L 241.604156 99.54948 
L 241.732043 99.487331 
L 241.987817 99.363469 
L 242.857451 98.946721 
L 243.675929 98.56073 
L 274.854838 87.627313 
L 275.596584 87.422418 
L 275.724471 87.387189 
L 275.750048 87.380149 
L 275.801203 87.366082 
L 275.929091 87.331 
L 276.056978 87.296039 
L 277.054498 87.027454 
L 277.131231 87.007093 
L 277.23354 86.980012 
L 277.412583 86.932801 
L 277.693935 86.859078 
L 278.717032 86.595753 
L 279.688975 86.352424 
L 310.177293 80.72003 
L 311.021349 80.551315 
L 311.149236 80.525295 
L 311.174814 80.520077 
L 311.251546 80.504391 
L 311.379433 80.478149 
L 311.532898 80.446493 
L 312.683883 80.211707 
L 312.760615 80.19629 
L 312.888503 80.170659 
L 313.067545 80.134913 
L 313.400052 80.068949 
L 314.576614 79.839922 
L 315.676445 79.631979 
L 345.474171 76.329682 
L 346.420537 76.308933 
L 346.574002 76.306162 
L 346.599579 76.305716 
L 346.701889 76.30398 
L 346.829776 76.301915 
L 347.008818 76.299221 
L 348.313268 76.286599 
L 348.39 76.286245 
L 348.543465 76.285668 
L 348.748085 76.285172 
L 349.106169 76.285186 
L 350.436196 76.29608 
L 351.663914 76.321708 
L 380.796627 81.927357 
L 381.845302 82.309817 
L 382.024344 82.3763 
L 382.049922 82.385826 
L 382.152231 82.423999 
L 382.305696 82.481469 
L 382.510316 82.558488 
L 383.942653 83.110116 
L 384.019385 83.140282 
L 384.198427 83.21091 
L 384.428624 83.302213 
L 384.837864 83.465907 
L 386.295778 84.063294 
L 387.67696 84.64955 
L 387.67696 41.441826 
L 387.67696 41.441826 
L 386.295778 41.993103 
L 384.837864 42.563275 
L 384.428624 42.721109 
L 384.198427 42.809459 
L 384.019385 42.877958 
L 383.942653 42.907257 
L 382.510316 43.447686 
L 382.305696 43.523874 
L 382.152231 43.580847 
L 382.049922 43.618748 
L 382.024344 43.628213 
L 381.845302 43.694357 
L 380.796627 44.077758 
L 351.663914 51.581552 
L 350.436196 51.760851 
L 349.106169 51.944426 
L 348.748085 51.992024 
L 348.543465 52.018859 
L 348.39 52.038794 
L 348.313268 52.0487 
L 347.008818 52.211068 
L 346.829776 52.232493 
L 346.701889 52.247674 
L 346.599579 52.259746 
L 346.574002 52.262754 
L 346.420537 52.280718 
L 345.474171 52.388394 
L 315.676445 54.838697 
L 314.576614 54.952908 
L 313.400052 55.080853 
L 313.067545 55.118141 
L 312.888503 55.138431 
L 312.760615 55.153016 
L 312.683883 55.161803 
L 311.532898 55.297008 
L 311.379433 55.315454 
L 311.251546 55.330807 
L 311.174814 55.340011 
L 311.149236 55.343078 
L 311.021349 55.358402 
L 310.177293 55.459195 
L 279.688975 59.868881 
L 278.717032 60.094273 
L 277.693935 60.343572 
L 277.412583 60.414396 
L 277.23354 60.45999 
L 277.131231 60.486229 
L 277.054498 60.505996 
L 276.056978 60.770059 
L 275.929091 60.804885 
L 275.801203 60.839937 
L 275.750048 60.854021 
L 275.724471 60.861077 
L 275.596584 60.896508 
L 274.854838 61.107048 
L 243.675929 74.655989 
L 242.857451 75.053375 
L 241.987817 75.474374 
L 241.732043 75.59794 
L 241.604156 75.659678 
L 241.501846 75.709046 
L 241.450691 75.733722 
L 240.581058 76.152448 
L 240.45317 76.213899 
L 240.376438 76.250753 
L 240.299706 76.287596 
L 240.197396 76.336701 
L 239.55796 76.64312 
L 207.68846 91.725208 
L 206.997869 92.080832 
L 206.2817 92.451171 
L 206.077081 92.557247 
L 205.949193 92.623601 
L 205.872461 92.663434 
L 205.821306 92.689997 
L 205.105138 93.062539 
L 205.002828 93.115852 
L 204.926095 93.155851 
L 204.874941 93.182524 
L 204.772631 93.235885 
L 204.261082 93.50298 
L 171.700991 110.40222 
L 171.138287 110.754529 
L 170.550005 111.129951 
L 170.396541 111.229116 
L 170.294231 111.295373 
L 170.243076 111.328484 
L 170.191921 111.361582 
L 169.629217 111.724888 
L 169.552485 111.774322 
L 169.475753 111.823731 
L 169.450175 111.840196 
L 169.424598 111.856657 
L 169.373443 111.889572 
L 168.938626 112.168919 
L 135.687944 135.430203 
L 135.278705 135.806733 
L 134.843888 136.211273 
L 134.716001 136.331145 
L 134.664846 136.379207 
L 134.613691 136.427335 
L 134.588114 136.451423 
L 134.153297 136.863444 
L 134.076565 136.936587 
L 134.050987 136.960972 
L 133.999833 137.009751 
L 133.948678 137.058539 
L 133.641748 137.351474 
L 99.700475 172.51743 
L 99.419123 172.833791 
L 99.137771 173.150537 
L 99.061039 173.236988 
L 99.009884 173.294638 
L 98.984306 173.323468 
L 98.958729 173.352301 
L 98.677377 173.669669 
L 98.626222 173.727413 
L 98.600645 173.75629 
L 98.575067 173.78517 
L 98.54949 173.814052 
L 98.319293 174.074028 
L 63.713006 213.046202 
L 63.559541 213.218359 
L 63.431654 213.361835 
L 63.380499 213.419228 
L 63.354922 213.447925 
L 63.329344 213.476623 
L 63.201457 213.620117 
L 63.175879 213.648817 
L 63.150302 213.677518 
L 63.124725 213.706219 
L 63.022415 213.821027 
z
" clip-path="url(#p1af4b04f91)" style="fill: #999999; fill-opacity: 0.4"/>
   </g>
   <g id="line2d_20">
    <path d="M 63.022415 233.828078 
L 63.713006 232.788967 
L 99.419123 184.896896 
L 99.700475 184.565673 
L 134.843888 148.802537 
L 135.687944 148.055731 
L 171.700991 123.65967 
L 239.55796 88.603224 
L 243.675929 86.60836 
L 275.801203 74.103009 
L 279.688975 73.110652 
L 315.676445 67.235338 
L 349.106169 64.114806 
L 351.663914 63.95163 
L 383.942653 63.008686 
L 387.67696 63.045688 
L 387.67696 63.045688 
" clip-path="url(#p1af4b04f91)" style="fill: none; stroke: #db5f57; stroke-width: 1.772454; stroke-linejoin: miter"/>
   </g>
   <g id="PolyCollection_2">
    <path d="M 63.022415 244.595292 
L 63.022415 279.693732 
L 63.124725 279.608146 
L 63.150302 279.586764 
L 63.175879 279.565387 
L 63.201457 279.544017 
L 63.329344 279.437247 
L 63.354922 279.41591 
L 63.380499 279.394579 
L 63.431654 279.351933 
L 63.559541 279.245419 
L 63.713006 279.11779 
L 98.319293 255.98648 
L 98.54949 255.869795 
L 98.575067 255.856856 
L 98.600645 255.843921 
L 98.626222 255.830992 
L 98.677377 255.805149 
L 98.958729 255.663367 
L 98.984306 255.650508 
L 99.009884 255.637653 
L 99.061039 255.611959 
L 99.137771 255.573454 
L 99.419123 255.432647 
L 99.700475 255.292426 
L 133.641748 241.081526 
L 133.948678 240.966264 
L 133.999833 240.947063 
L 134.050987 240.927864 
L 134.076565 240.918265 
L 134.153297 240.889473 
L 134.588114 240.7264 
L 134.613691 240.716812 
L 134.664846 240.697636 
L 134.716001 240.678462 
L 134.843888 240.630535 
L 135.278705 240.467664 
L 135.687944 240.314486 
L 168.938626 228.296153 
L 169.373443 228.135242 
L 169.424598 228.116265 
L 169.450175 228.106774 
L 169.475753 228.097279 
L 169.552485 228.068782 
L 169.629217 228.040262 
L 170.191921 227.830424 
L 170.243076 227.811286 
L 170.294231 227.792137 
L 170.396541 227.753808 
L 170.550005 227.696188 
L 171.138287 227.473618 
L 171.700991 227.258332 
L 204.261082 215.263259 
L 204.772631 215.09368 
L 204.874941 215.05964 
L 204.926095 215.042603 
L 205.002828 215.017028 
L 205.105138 214.982888 
L 205.821306 214.742575 
L 205.872461 214.725315 
L 205.949193 214.699401 
L 206.077081 214.656144 
L 206.2817 214.586754 
L 206.997869 214.342066 
L 207.68846 214.103222 
L 239.55796 201.540148 
L 240.197396 201.310502 
L 240.299706 201.273992 
L 240.376438 201.246652 
L 240.45317 201.219349 
L 240.581058 201.173924 
L 241.450691 200.867756 
L 241.501846 200.849894 
L 241.604156 200.814222 
L 241.732043 200.769724 
L 241.987817 200.681042 
L 242.857451 200.382661 
L 243.675929 200.106291 
L 274.854838 191.935838 
L 275.596584 191.762232 
L 275.724471 191.732232 
L 275.750048 191.726231 
L 275.801203 191.714229 
L 275.929091 191.684236 
L 276.056978 191.654258 
L 277.054498 191.420997 
L 277.131231 191.403098 
L 277.23354 191.379244 
L 277.412583 191.337528 
L 277.693935 191.272051 
L 278.717032 191.03481 
L 279.688975 190.810802 
L 310.177293 184.684669 
L 311.021349 184.519545 
L 311.149236 184.494379 
L 311.174814 184.489341 
L 311.251546 184.474217 
L 311.379433 184.448979 
L 311.532898 184.41864 
L 312.683883 184.192396 
L 312.760615 184.177422 
L 312.888503 184.152496 
L 313.067545 184.117665 
L 313.400052 184.053181 
L 314.576614 183.827143 
L 315.676445 183.618937 
L 345.474171 179.662175 
L 346.420537 179.614127 
L 346.574002 179.606965 
L 346.599579 179.605788 
L 346.701889 179.601131 
L 346.829776 179.595422 
L 347.008818 179.587639 
L 348.313268 179.538431 
L 348.39 179.535954 
L 348.543465 179.531142 
L 348.748085 179.52502 
L 349.106169 179.515159 
L 350.436196 179.488421 
L 351.663914 179.477907 
L 380.796627 183.705445 
L 381.845302 184.01766 
L 382.024344 184.072003 
L 382.049922 184.079791 
L 382.152231 184.111004 
L 382.305696 184.158008 
L 382.510316 184.221024 
L 383.942653 184.673064 
L 384.019385 184.697818 
L 384.198427 184.755786 
L 384.428624 184.830751 
L 384.837864 184.965223 
L 386.295778 185.456692 
L 387.67696 185.939988 
L 387.67696 148.040257 
L 387.67696 148.040257 
L 386.295778 148.55475 
L 384.837864 149.087408 
L 384.428624 149.234965 
L 384.198427 149.317583 
L 384.019385 149.38165 
L 383.942653 149.409056 
L 382.510316 149.914916 
L 382.305696 149.986286 
L 382.152231 150.039666 
L 382.049922 150.075181 
L 382.024344 150.084051 
L 381.845302 150.146041 
L 380.796627 150.505603 
L 351.663914 157.777036 
L 350.436196 157.967302 
L 349.106169 158.164619 
L 348.748085 158.216243 
L 348.543465 158.245468 
L 348.39 158.26726 
L 348.313268 158.278116 
L 347.008818 158.458673 
L 346.829776 158.482887 
L 346.701889 158.500101 
L 346.599579 158.513824 
L 346.574002 158.517248 
L 346.420537 158.537737 
L 345.474171 158.662033 
L 315.676445 161.871466 
L 314.576614 161.997455 
L 313.400052 162.134829 
L 313.067545 162.17416 
L 312.888503 162.195434 
L 312.760615 162.21067 
L 312.683883 162.219829 
L 311.532898 162.358726 
L 311.379433 162.377478 
L 311.251546 162.393164 
L 311.174814 162.402602 
L 311.149236 162.405753 
L 311.021349 162.421537 
L 310.177293 162.527083 
L 279.688975 167.580715 
L 278.717032 167.78899 
L 277.693935 168.013929 
L 277.412583 168.076863 
L 277.23354 168.11716 
L 277.131231 168.140276 
L 277.054498 168.157654 
L 276.056978 168.386948 
L 275.929091 168.416807 
L 275.801203 168.446774 
L 275.750048 168.458791 
L 275.724471 168.464806 
L 275.596584 168.494983 
L 274.854838 168.673541 
L 243.675929 179.138206 
L 242.857451 179.42457 
L 241.987817 179.726681 
L 241.732043 179.815104 
L 241.604156 179.85924 
L 241.501846 179.894513 
L 241.450691 179.912138 
L 240.581058 180.21051 
L 240.45317 180.254189 
L 240.376438 180.280372 
L 240.299706 180.306536 
L 240.197396 180.341392 
L 239.55796 180.558496 
L 207.68846 190.732101 
L 206.997869 190.973996 
L 206.2817 191.229576 
L 206.077081 191.303437 
L 205.949193 191.349781 
L 205.872461 191.377654 
L 205.821306 191.396264 
L 205.105138 191.659013 
L 205.002828 191.696875 
L 204.926095 191.725323 
L 204.874941 191.744312 
L 204.772631 191.782349 
L 204.261082 191.97365 
L 171.700991 204.000742 
L 171.138287 204.2074 
L 170.550005 204.425785 
L 170.396541 204.483166 
L 170.294231 204.521485 
L 170.243076 204.54065 
L 170.191921 204.559818 
L 169.629217 204.770894 
L 169.552485 204.799708 
L 169.475753 204.82853 
L 169.450175 204.838139 
L 169.424598 204.847749 
L 169.373443 204.866971 
L 168.938626 205.030487 
L 135.687944 218.165478 
L 135.278705 218.347314 
L 134.843888 218.541638 
L 134.716001 218.599015 
L 134.664846 218.621994 
L 134.613691 218.64499 
L 134.588114 218.656494 
L 134.153297 218.852694 
L 134.076565 218.887426 
L 134.050987 218.899004 
L 133.999833 218.922161 
L 133.948678 218.945319 
L 133.641748 219.084307 
L 99.700475 234.156151 
L 99.419123 234.270299 
L 99.137771 234.384083 
L 99.061039 234.415051 
L 99.009884 234.435682 
L 98.984306 234.445992 
L 98.958729 234.456299 
L 98.677377 234.569477 
L 98.626222 234.590014 
L 98.600645 234.600278 
L 98.575067 234.610538 
L 98.54949 234.620796 
L 98.319293 234.712951 
L 63.713006 244.482987 
L 63.559541 244.508191 
L 63.431654 244.529085 
L 63.380499 244.537416 
L 63.354922 244.541575 
L 63.329344 244.545731 
L 63.201457 244.56645 
L 63.175879 244.570582 
L 63.150302 244.57471 
L 63.124725 244.578834 
L 63.022415 244.595292 
z
" clip-path="url(#p1af4b04f91)" style="fill: #999999; fill-opacity: 0.4"/>
   </g>
   <g id="line2d_21">
    <path d="M 63.022415 262.144512 
L 63.713006 261.800389 
L 99.700475 244.724289 
L 135.687944 229.239982 
L 171.700991 215.629537 
L 207.68846 202.417661 
L 243.675929 189.622248 
L 276.056978 180.020603 
L 279.688975 179.195758 
L 313.400052 173.094005 
L 315.676445 172.745202 
L 348.748085 168.870632 
L 351.663914 168.627472 
L 384.198427 167.036685 
L 387.67696 166.990123 
L 387.67696 166.990123 
" clip-path="url(#p1af4b04f91)" style="fill: none; stroke-dasharray: 6.558079,2.835926; stroke-dashoffset: 0; stroke: #db5f57; stroke-width: 1.772454; stroke-linejoin: miter"/>
   </g>
   <g id="PolyCollection_3">
    <path d="M 63.022415 188.638454 
L 63.022415 230.306843 
L 63.124725 230.116754 
L 63.150302 230.06926 
L 63.175879 230.021779 
L 63.201457 229.974309 
L 63.329344 229.737133 
L 63.354922 229.689733 
L 63.380499 229.642344 
L 63.431654 229.547602 
L 63.559541 229.310949 
L 63.713006 229.027351 
L 98.319293 176.308156 
L 98.54949 176.031973 
L 98.575067 176.001341 
L 98.600645 175.970721 
L 98.626222 175.940115 
L 98.677377 175.87894 
L 98.958729 175.543391 
L 98.984306 175.512963 
L 99.009884 175.482548 
L 99.061039 175.421755 
L 99.137771 175.330661 
L 99.419123 174.997622 
L 99.700475 174.6661 
L 133.641748 142.403759 
L 133.948678 142.155101 
L 133.999833 142.113692 
L 134.050987 142.072294 
L 134.076565 142.051598 
L 134.153297 141.989526 
L 134.588114 141.639812 
L 134.613691 141.619362 
L 134.664846 141.578503 
L 134.716001 141.537697 
L 134.843888 141.435918 
L 135.278705 141.092344 
L 135.687944 140.772432 
L 168.938626 121.035254 
L 169.373443 120.782441 
L 169.424598 120.752551 
L 169.450175 120.737594 
L 169.475753 120.722629 
L 169.552485 120.677687 
L 169.629217 120.632673 
L 170.191921 120.300314 
L 170.243076 120.269899 
L 170.294231 120.239449 
L 170.396541 120.178445 
L 170.550005 120.086878 
L 171.138287 119.736653 
L 171.700991 119.402882 
L 204.261082 103.887311 
L 204.772631 103.661763 
L 204.874941 103.616288 
L 204.926095 103.593504 
L 205.002828 103.559268 
L 205.105138 103.513508 
L 205.821306 103.189457 
L 205.872461 103.166052 
L 205.949193 103.130876 
L 206.077081 103.072071 
L 206.2817 102.977506 
L 206.997869 102.641732 
L 207.68846 102.310483 
L 239.55796 84.680948 
L 240.197396 84.358559 
L 240.299706 84.307319 
L 240.376438 84.268953 
L 240.45317 84.230639 
L 240.581058 84.166904 
L 241.450691 83.737527 
L 241.501846 83.71249 
L 241.604156 83.662491 
L 241.732043 83.60013 
L 241.987817 83.475877 
L 242.857451 83.058115 
L 243.675929 82.671652 
L 274.854838 72.426632 
L 275.596584 72.262638 
L 275.724471 72.234612 
L 275.750048 72.229016 
L 275.801203 72.217841 
L 275.929091 72.18999 
L 276.056978 72.162265 
L 277.054498 71.950324 
L 277.131231 71.934336 
L 277.23354 71.913089 
L 277.412583 71.876097 
L 277.693935 71.81846 
L 278.717032 71.613919 
L 279.688975 71.426891 
L 310.177293 68.007091 
L 311.021349 67.916746 
L 311.149236 67.902699 
L 311.174814 67.899878 
L 311.251546 67.891392 
L 311.379433 67.87717 
L 311.532898 67.859973 
L 312.683883 67.734356 
L 312.760615 67.726259 
L 312.888503 67.71284 
L 313.067545 67.694215 
L 313.400052 67.660124 
L 314.576614 67.544694 
L 315.676445 67.444113 
L 345.474171 67.598108 
L 346.420537 67.708413 
L 346.574002 67.727042 
L 346.599579 67.730167 
L 346.701889 67.742726 
L 346.829776 67.758555 
L 347.008818 67.780961 
L 348.313268 67.952943 
L 348.39 67.963543 
L 348.543465 67.984908 
L 348.748085 68.013734 
L 349.106169 68.065231 
L 350.436196 68.269153 
L 351.663914 68.475494 
L 380.796627 79.092481 
L 381.845302 79.680713 
L 382.024344 79.782497 
L 382.049922 79.79707 
L 382.152231 79.855441 
L 382.305696 79.943239 
L 382.510316 80.060751 
L 383.942653 80.89763 
L 384.019385 80.943165 
L 384.198427 81.049691 
L 384.428624 81.187221 
L 384.837864 81.433293 
L 386.295778 82.326218 
L 387.67696 83.195414 
L 387.67696 38.201371 
L 387.67696 38.201371 
L 386.295778 38.516735 
L 384.837864 38.83964 
L 384.428624 38.928388 
L 384.198427 38.977939 
L 384.019385 39.016293 
L 383.942653 39.03268 
L 382.510316 39.333007 
L 382.305696 39.375036 
L 382.152231 39.406413 
L 382.049922 39.427261 
L 382.024344 39.432464 
L 381.845302 39.468789 
L 380.796627 39.678081 
L 351.663914 42.712516 
L 350.436196 42.719574 
L 349.106169 42.71816 
L 348.748085 42.716244 
L 348.543465 42.714846 
L 348.39 42.71364 
L 348.313268 42.712986 
L 347.008818 42.696941 
L 346.829776 42.694041 
L 346.701889 42.69187 
L 346.599579 42.690075 
L 346.574002 42.689618 
L 346.420537 42.68681 
L 345.474171 42.667025 
L 315.676445 41.625812 
L 314.576614 41.628786 
L 313.400052 41.638955 
L 313.067545 41.643185 
L 312.888503 41.645715 
L 312.760615 41.647631 
L 312.683883 41.648825 
L 311.532898 41.670743 
L 311.379433 41.674184 
L 311.251546 41.677067 
L 311.174814 41.678803 
L 311.149236 41.679383 
L 311.021349 41.682293 
L 310.177293 41.701907 
L 279.688975 43.848448 
L 278.717032 44.016799 
L 277.693935 44.206734 
L 277.412583 44.261353 
L 277.23354 44.29666 
L 277.131231 44.31703 
L 277.054498 44.332401 
L 276.056978 44.539632 
L 275.929091 44.567216 
L 275.801203 44.595036 
L 275.750048 44.60623 
L 275.724471 44.611841 
L 275.596584 44.640077 
L 274.854838 44.809951 
L 243.675929 57.778627 
L 242.857451 58.176956 
L 241.987817 58.599145 
L 241.732043 58.72309 
L 241.604156 58.785022 
L 241.501846 58.834547 
L 241.450691 58.859303 
L 240.581058 59.279425 
L 240.45317 59.341088 
L 240.376438 59.37807 
L 240.299706 59.415041 
L 240.197396 59.464318 
L 239.55796 59.771817 
L 207.68846 74.564607 
L 206.997869 74.899478 
L 206.2817 75.248183 
L 206.077081 75.348056 
L 205.949193 75.410526 
L 205.872461 75.448027 
L 205.821306 75.473035 
L 205.105138 75.823721 
L 205.002828 75.8739 
L 204.926095 75.911546 
L 204.874941 75.936649 
L 204.772631 75.986869 
L 204.261082 76.238204 
L 171.700991 91.791788 
L 171.138287 92.115317 
L 170.550005 92.460573 
L 170.396541 92.551857 
L 170.294231 92.612848 
L 170.243076 92.643316 
L 170.191921 92.673768 
L 169.629217 93.007596 
L 169.552485 93.05296 
L 169.475753 93.098288 
L 169.450175 93.113389 
L 169.424598 93.128486 
L 169.373443 93.158667 
L 168.938626 93.414572 
L 135.687944 114.477432 
L 135.278705 114.831366 
L 134.843888 115.21228 
L 134.716001 115.325279 
L 134.664846 115.370602 
L 134.613691 115.415996 
L 134.588114 115.43872 
L 134.153297 115.827762 
L 134.076565 115.896886 
L 134.050987 115.919931 
L 133.999833 115.966029 
L 133.948678 116.012135 
L 133.641748 116.28896 
L 99.700475 149.573402 
L 99.419123 149.873972 
L 99.137771 150.174929 
L 99.061039 150.257076 
L 99.009884 150.311856 
L 98.984306 150.339251 
L 98.958729 150.366649 
L 98.677377 150.668239 
L 98.626222 150.723114 
L 98.600645 150.750557 
L 98.575067 150.778003 
L 98.54949 150.805451 
L 98.319293 151.052513 
L 63.713006 187.909385 
L 63.559541 188.071385 
L 63.431654 188.206391 
L 63.380499 188.260395 
L 63.354922 188.287398 
L 63.329344 188.314401 
L 63.201457 188.449418 
L 63.175879 188.476422 
L 63.150302 188.503427 
L 63.124725 188.530432 
L 63.022415 188.638454 
z
" clip-path="url(#p1af4b04f91)" style="fill: #999999; fill-opacity: 0.4"/>
   </g>
   <g id="line2d_22">
    <path d="M 63.022415 209.472648 
L 63.713006 208.468368 
L 99.419123 162.435797 
L 99.700475 162.119751 
L 134.843888 128.324099 
L 135.687944 127.624932 
L 171.700991 105.597335 
L 207.68846 88.437545 
L 243.675929 70.22514 
L 275.596584 58.451358 
L 279.688975 57.63767 
L 313.400052 54.64954 
L 315.676445 54.534962 
L 347.008818 55.238951 
L 351.663914 55.594005 
L 382.510316 59.696879 
L 387.67696 60.698392 
L 387.67696 60.698392 
" clip-path="url(#p1af4b04f91)" style="fill: none; stroke: #57db5f; stroke-width: 1.772454; stroke-linejoin: miter"/>
   </g>
   <g id="PolyCollection_4">
    <path d="M 63.022415 264.820655 
L 63.022415 270.207315 
L 63.124725 270.191826 
L 63.150302 270.187957 
L 63.175879 270.184089 
L 63.201457 270.180223 
L 63.329344 270.160911 
L 63.354922 270.157053 
L 63.380499 270.153196 
L 63.431654 270.145486 
L 63.559541 270.126234 
L 63.713006 270.103175 
L 98.319293 266.198103 
L 98.54949 266.180716 
L 98.575067 266.17879 
L 98.600645 266.176866 
L 98.626222 266.174943 
L 98.677377 266.171102 
L 98.958729 266.150076 
L 98.984306 266.148173 
L 99.009884 266.146271 
L 99.061039 266.142473 
L 99.137771 266.136785 
L 99.419123 266.116038 
L 99.700475 266.09546 
L 133.641748 264.455477 
L 133.948678 264.445198 
L 133.999833 264.443488 
L 134.050987 264.441779 
L 134.076565 264.440925 
L 134.153297 264.438365 
L 134.588114 264.424015 
L 134.613691 264.42318 
L 134.664846 264.421514 
L 134.716001 264.419853 
L 134.843888 264.415717 
L 135.278705 264.40185 
L 135.687944 264.38907 
L 168.938626 263.897601 
L 169.373443 263.892397 
L 169.424598 263.891773 
L 169.450175 263.89146 
L 169.475753 263.891147 
L 169.552485 263.890203 
L 169.629217 263.889254 
L 170.191921 263.882113 
L 170.243076 263.881448 
L 170.294231 263.880781 
L 170.396541 263.879437 
L 170.550005 263.877422 
L 171.138287 263.869855 
L 171.700991 263.862857 
L 204.261082 263.988381 
L 204.772631 263.991826 
L 204.874941 263.992459 
L 204.926095 263.992768 
L 205.002828 263.993223 
L 205.105138 263.993813 
L 205.821306 263.997371 
L 205.872461 263.997586 
L 205.949193 263.997898 
L 206.077081 263.998391 
L 206.2817 263.999108 
L 206.997869 264.000897 
L 207.68846 264.001502 
L 239.55796 263.810252 
L 240.197396 263.809698 
L 240.299706 263.809642 
L 240.376438 263.809606 
L 240.45317 263.809574 
L 240.581058 263.809533 
L 241.450691 263.809626 
L 241.501846 263.809652 
L 241.604156 263.809711 
L 241.732043 263.809796 
L 241.987817 263.810011 
L 242.857451 263.811167 
L 243.675929 263.812859 
L 274.854838 264.14056 
L 275.596584 264.148248 
L 275.724471 264.149543 
L 275.750048 264.149802 
L 275.801203 264.15032 
L 275.929091 264.151623 
L 276.056978 264.152938 
L 277.054498 264.163578 
L 277.131231 264.164424 
L 277.23354 264.165559 
L 277.412583 264.167561 
L 277.693935 264.170749 
L 278.717032 264.182775 
L 279.688975 264.194806 
L 310.177293 264.640258 
L 311.021349 264.644029 
L 311.149236 264.644501 
L 311.174814 264.644592 
L 311.251546 264.644859 
L 311.379433 264.645283 
L 311.532898 264.645756 
L 312.683883 264.649314 
L 312.760615 264.649562 
L 312.888503 264.649979 
L 313.067545 264.650569 
L 313.400052 264.651684 
L 314.576614 264.65583 
L 315.676445 264.659981 
L 345.474171 264.874759 
L 346.420537 264.885945 
L 346.574002 264.887797 
L 346.599579 264.888107 
L 346.701889 264.889348 
L 346.829776 264.890908 
L 347.008818 264.893103 
L 348.313268 264.909559 
L 348.39 264.910553 
L 348.543465 264.91255 
L 348.748085 264.91523 
L 349.106169 264.919991 
L 350.436196 264.9386 
L 351.663914 264.957131 
L 380.796627 265.861053 
L 381.845302 265.910484 
L 382.024344 265.919032 
L 382.049922 265.920256 
L 382.152231 265.925157 
L 382.305696 265.932528 
L 382.510316 265.942391 
L 383.942653 266.01257 
L 384.019385 266.016385 
L 384.198427 266.025309 
L 384.428624 266.036827 
L 384.837864 266.057429 
L 386.295778 266.132102 
L 387.67696 266.204664 
L 387.67696 260.388082 
L 387.67696 260.388082 
L 386.295778 260.468652 
L 384.837864 260.551155 
L 384.428624 260.573837 
L 384.198427 260.586504 
L 384.019385 260.596309 
L 383.942653 260.600499 
L 382.510316 260.677332 
L 382.305696 260.688093 
L 382.152231 260.696129 
L 382.049922 260.701469 
L 382.024344 260.702801 
L 381.845302 260.712108 
L 380.796627 260.765775 
L 351.663914 261.626635 
L 350.436196 261.635691 
L 349.106169 261.643261 
L 348.748085 261.644909 
L 348.543465 261.645775 
L 348.39 261.646384 
L 348.313268 261.646676 
L 347.008818 261.650379 
L 346.829776 261.650705 
L 346.701889 261.650911 
L 346.599579 261.651061 
L 346.574002 261.651096 
L 346.420537 261.651289 
L 345.474171 261.651805 
L 315.676445 261.322333 
L 314.576614 261.305563 
L 313.400052 261.28781 
L 313.067545 261.282835 
L 312.888503 261.280164 
L 312.760615 261.27826 
L 312.683883 261.277119 
L 311.532898 261.260156 
L 311.379433 261.257905 
L 311.251546 261.256015 
L 311.174814 261.254876 
L 311.149236 261.254495 
L 311.021349 261.252583 
L 310.177293 261.239669 
L 279.688975 260.629617 
L 278.717032 260.615171 
L 277.693935 260.601257 
L 277.412583 260.597678 
L 277.23354 260.595458 
L 277.131231 260.59421 
L 277.054498 260.593284 
L 276.056978 260.582036 
L 275.929091 260.580703 
L 275.801203 260.579395 
L 275.750048 260.57888 
L 275.724471 260.578623 
L 275.596584 260.577355 
L 274.854838 260.570427 
L 243.675929 260.594825 
L 242.857451 260.594667 
L 241.987817 260.594084 
L 241.732043 260.593829 
L 241.604156 260.593688 
L 241.501846 260.593568 
L 241.450691 260.593506 
L 240.581058 260.592216 
L 240.45317 260.59199 
L 240.376438 260.591849 
L 240.299706 260.591705 
L 240.197396 260.591508 
L 239.55796 260.590136 
L 207.68846 260.414668 
L 206.997869 260.414531 
L 206.2817 260.414414 
L 206.077081 260.414383 
L 205.949193 260.414363 
L 205.872461 260.414352 
L 205.821306 260.414344 
L 205.105138 260.414229 
L 205.002828 260.414211 
L 204.926095 260.414197 
L 204.874941 260.414187 
L 204.772631 260.414168 
L 204.261082 260.414057 
L 171.700991 260.293446 
L 171.138287 260.29912 
L 170.550005 260.306045 
L 170.396541 260.308023 
L 170.294231 260.309365 
L 170.243076 260.310036 
L 170.191921 260.310705 
L 169.629217 260.318035 
L 169.552485 260.31903 
L 169.475753 260.320024 
L 169.450175 260.320355 
L 169.424598 260.320686 
L 169.373443 260.321347 
L 168.938626 260.326951 
L 135.687944 260.989797 
L 135.278705 261.006974 
L 134.843888 261.025669 
L 134.716001 261.031255 
L 134.664846 261.033501 
L 134.613691 261.035753 
L 134.588114 261.036882 
L 134.153297 261.056316 
L 134.076565 261.059788 
L 134.050987 261.060946 
L 133.999833 261.063262 
L 133.948678 261.065579 
L 133.641748 261.079499 
L 99.700475 262.851614 
L 99.419123 262.868191 
L 99.137771 262.88479 
L 99.061039 262.889321 
L 99.009884 262.892343 
L 98.984306 262.893854 
L 98.958729 262.895365 
L 98.677377 262.912001 
L 98.626222 262.915028 
L 98.600645 262.916542 
L 98.575067 262.918056 
L 98.54949 262.91957 
L 98.319293 262.933192 
L 63.713006 264.787671 
L 63.559541 264.795009 
L 63.431654 264.801121 
L 63.380499 264.803565 
L 63.354922 264.804786 
L 63.329344 264.806008 
L 63.201457 264.812113 
L 63.175879 264.813334 
L 63.150302 264.814554 
L 63.124725 264.815774 
L 63.022415 264.820655 
z
" clip-path="url(#p1af4b04f91)" style="fill: #999999; fill-opacity: 0.4"/>
   </g>
   <g id="line2d_23">
    <path d="M 63.022415 267.513985 
L 63.713006 267.445423 
L 99.700475 264.473537 
L 135.687944 262.689433 
L 171.700991 262.078151 
L 207.68846 262.208085 
L 243.675929 262.203842 
L 279.688975 262.412212 
L 315.676445 262.991157 
L 351.663914 263.291883 
L 387.67696 263.296373 
L 387.67696 263.296373 
" clip-path="url(#p1af4b04f91)" style="fill: none; stroke-dasharray: 6.558079,2.835926; stroke-dashoffset: 0; stroke: #57db5f; stroke-width: 1.772454; stroke-linejoin: miter"/>
   </g>
   <g id="PolyCollection_5">
    <path d="M 63.022415 238.250785 
L 63.022415 277.943366 
L 63.124725 277.768178 
L 63.150302 277.724404 
L 63.175879 277.680639 
L 63.201457 277.636884 
L 63.329344 277.418245 
L 63.354922 277.374545 
L 63.380499 277.330854 
L 63.431654 277.2435 
L 63.559541 277.025278 
L 63.713006 276.763715 
L 98.319293 226.797378 
L 98.54949 226.524808 
L 98.575067 226.494566 
L 98.600645 226.464333 
L 98.626222 226.434111 
L 98.677377 226.373694 
L 98.958729 226.042092 
L 98.984306 226.012004 
L 99.009884 225.981925 
L 99.061039 225.921797 
L 99.137771 225.831676 
L 99.419123 225.501966 
L 99.700475 225.173397 
L 133.641748 191.227542 
L 133.948678 190.951425 
L 133.999833 190.90543 
L 134.050987 190.859441 
L 134.076565 190.836449 
L 134.153297 190.767483 
L 134.588114 190.377604 
L 134.613691 190.354724 
L 134.664846 190.308983 
L 134.716001 190.263267 
L 134.843888 190.14908 
L 135.278705 189.761962 
L 135.687944 189.399171 
L 168.938626 163.244041 
L 169.373443 162.91144 
L 169.424598 162.872243 
L 169.450175 162.852639 
L 169.475753 162.833031 
L 169.552485 162.774186 
L 169.629217 162.715307 
L 170.191921 162.282482 
L 170.243076 162.243041 
L 170.294231 162.203583 
L 170.396541 162.124619 
L 170.550005 162.006108 
L 171.138287 161.551572 
L 171.700991 161.116531 
L 204.261082 138.757583 
L 204.772631 138.43592 
L 204.874941 138.371376 
L 204.926095 138.339077 
L 205.002828 138.290593 
L 205.105138 138.225882 
L 205.821306 137.770676 
L 205.872461 137.738005 
L 205.949193 137.688957 
L 206.077081 137.607101 
L 206.2817 137.475839 
L 206.997869 137.013443 
L 207.68846 136.562861 
L 239.55796 113.802171 
L 240.197396 113.38041 
L 240.299706 113.313277 
L 240.376438 113.26299 
L 240.45317 113.212758 
L 240.581058 113.12916 
L 241.450691 112.564768 
L 241.501846 112.531792 
L 241.604156 112.465915 
L 241.732043 112.383711 
L 241.987817 112.219775 
L 242.857451 111.667153 
L 243.675929 111.153847 
L 274.854838 96.194503 
L 275.596584 95.923314 
L 275.724471 95.876839 
L 275.750048 95.867556 
L 275.801203 95.849007 
L 275.929091 95.802744 
L 276.056978 95.756635 
L 277.054498 95.402233 
L 277.131231 95.375354 
L 277.23354 95.339599 
L 277.412583 95.277261 
L 277.693935 95.179894 
L 278.717032 94.831901 
L 279.688975 94.510004 
L 310.177293 87.118339 
L 311.021349 86.91461 
L 311.149236 86.883325 
L 311.174814 86.877054 
L 311.251546 86.858214 
L 311.379433 86.826724 
L 311.532898 86.788782 
L 312.683883 86.507654 
L 312.760615 86.489201 
L 312.888503 86.458525 
L 313.067545 86.415746 
L 313.400052 86.336818 
L 314.576614 86.062933 
L 315.676445 85.814499 
L 345.474171 81.993122 
L 346.420537 81.975585 
L 346.574002 81.973456 
L 346.599579 81.973121 
L 346.701889 81.971837 
L 346.829776 81.970357 
L 347.008818 81.968523 
L 348.313268 81.963571 
L 348.39 81.963745 
L 348.543465 81.964251 
L 348.748085 81.965253 
L 349.106169 81.968026 
L 350.436196 81.990651 
L 351.663914 82.029172 
L 380.796627 88.507918 
L 381.845302 88.941739 
L 382.024344 89.017128 
L 382.049922 89.027929 
L 382.152231 89.071212 
L 382.305696 89.136372 
L 382.510316 89.223689 
L 383.942653 89.84886 
L 384.019385 89.883038 
L 384.198427 89.963055 
L 384.428624 90.066488 
L 384.837864 90.251908 
L 386.295778 90.928382 
L 387.67696 91.591986 
L 387.67696 48.731445 
L 387.67696 48.731445 
L 386.295778 49.196233 
L 384.837864 49.677937 
L 384.428624 49.811462 
L 384.198427 49.886237 
L 384.019385 49.94423 
L 383.942653 49.969039 
L 382.510316 50.42715 
L 382.305696 50.491809 
L 382.152231 50.540173 
L 382.049922 50.572353 
L 382.024344 50.58039 
L 381.845302 50.636562 
L 380.796627 50.962448 
L 351.663914 57.487808 
L 350.436196 57.652567 
L 349.106169 57.822848 
L 348.748085 57.867305 
L 348.543465 57.892431 
L 348.39 57.911127 
L 348.313268 57.920428 
L 347.008818 58.073923 
L 346.829776 58.094338 
L 346.701889 58.108828 
L 346.599579 58.120366 
L 346.574002 58.123243 
L 346.420537 58.140442 
L 345.474171 58.244207 
L 315.676445 61.220436 
L 314.576614 61.375891 
L 313.400052 61.549506 
L 313.067545 61.599989 
L 312.888503 61.627436 
L 312.760615 61.647154 
L 312.683883 61.659032 
L 311.532898 61.841378 
L 311.379433 61.866216 
L 311.251546 61.886905 
L 311.174814 61.899315 
L 311.149236 61.903451 
L 311.021349 61.924128 
L 310.177293 62.060479 
L 279.688975 68.239261 
L 278.717032 68.543366 
L 277.693935 68.877446 
L 277.412583 68.971937 
L 277.23354 69.032671 
L 277.131231 69.067589 
L 277.054498 69.09388 
L 276.056978 69.443796 
L 275.929091 69.489771 
L 275.801203 69.536005 
L 275.750048 69.554571 
L 275.724471 69.563869 
L 275.596584 69.610544 
L 274.854838 69.887333 
L 243.675929 87.441186 
L 242.857451 87.965794 
L 241.987817 88.522633 
L 241.732043 88.686276 
L 241.604156 88.768073 
L 241.501846 88.833497 
L 241.450691 88.866205 
L 240.581058 89.421781 
L 240.45317 89.503405 
L 240.376438 89.55237 
L 240.299706 89.601327 
L 240.197396 89.66659 
L 239.55796 90.074168 
L 207.68846 110.132623 
L 206.997869 110.586656 
L 206.2817 111.06137 
L 206.077081 111.197688 
L 205.949193 111.283035 
L 205.872461 111.334298 
L 205.821306 111.368495 
L 205.105138 111.849074 
L 205.002828 111.917995 
L 204.926095 111.969727 
L 204.874941 112.004235 
L 204.772631 112.073299 
L 204.261082 112.419526 
L 171.700991 134.814685 
L 171.138287 135.239969 
L 170.550005 135.689772 
L 170.396541 135.808012 
L 170.294231 135.886964 
L 170.243076 135.92644 
L 170.191921 135.965916 
L 169.629217 136.40014 
L 169.552485 136.459352 
L 169.475753 136.518565 
L 169.450175 136.538302 
L 169.424598 136.55804 
L 169.373443 136.597515 
L 168.938626 136.933062 
L 135.687944 164.351012 
L 135.278705 164.746212 
L 134.843888 165.1689 
L 134.716001 165.293774 
L 134.664846 165.343794 
L 134.613691 165.393855 
L 134.588114 165.418901 
L 134.153297 165.846244 
L 134.076565 165.921926 
L 134.050987 165.947156 
L 133.999833 165.997621 
L 133.948678 166.048092 
L 133.641748 166.35104 
L 99.700475 201.270531 
L 99.419123 201.569614 
L 99.137771 201.868765 
L 99.061039 201.950362 
L 99.009884 202.004764 
L 98.984306 202.031965 
L 98.958729 202.059167 
L 98.677377 202.35842 
L 98.626222 202.412836 
L 98.600645 202.440045 
L 98.575067 202.467254 
L 98.54949 202.494463 
L 98.319293 202.739292 
L 63.713006 237.595458 
L 63.559541 237.741188 
L 63.431654 237.862584 
L 63.380499 237.911132 
L 63.354922 237.935403 
L 63.329344 237.959673 
L 63.201457 238.080997 
L 63.175879 238.105257 
L 63.150302 238.129516 
L 63.124725 238.153773 
L 63.022415 238.250785 
z
" clip-path="url(#p1af4b04f91)" style="fill: #999999; fill-opacity: 0.4"/>
   </g>
   <g id="line2d_24">
    <path d="M 63.022415 258.097075 
L 63.713006 257.179587 
L 99.700475 213.221964 
L 135.278705 177.254087 
L 135.687944 176.875092 
L 171.700991 147.965608 
L 207.68846 123.347742 
L 243.675929 99.297516 
L 275.596584 82.766929 
L 279.688975 81.374633 
L 314.576614 73.719412 
L 315.676445 73.517467 
L 347.008818 70.021223 
L 351.663914 69.75849 
L 382.510316 69.82542 
L 387.67696 70.161715 
L 387.67696 70.161715 
" clip-path="url(#p1af4b04f91)" style="fill: none; stroke: #5f57db; stroke-width: 1.772454; stroke-linejoin: miter"/>
   </g>
   <g id="PolyCollection_6">
    <path d="M 63.022415 259.108144 
L 63.022415 280.121371 
L 63.124725 280.102457 
L 63.150302 280.097734 
L 63.175879 280.093013 
L 63.201457 280.088294 
L 63.329344 280.064733 
L 63.354922 280.060027 
L 63.380499 280.055323 
L 63.431654 280.045922 
L 63.559541 280.022457 
L 63.713006 279.994369 
L 98.319293 275.883603 
L 98.54949 275.870744 
L 98.575067 275.869325 
L 98.600645 275.867906 
L 98.626222 275.86649 
L 98.677377 275.86366 
L 98.958729 275.848184 
L 98.984306 275.846785 
L 99.009884 275.845387 
L 99.061039 275.842594 
L 99.137771 275.838415 
L 99.419123 275.823184 
L 99.700475 275.808098 
L 133.641748 274.451046 
L 133.948678 274.439452 
L 133.999833 274.437518 
L 134.050987 274.435583 
L 134.076565 274.434616 
L 134.153297 274.431713 
L 134.588114 274.414836 
L 134.613691 274.413817 
L 134.664846 274.41177 
L 134.716001 274.409712 
L 134.843888 274.404516 
L 135.278705 274.386317 
L 135.687944 274.368443 
L 168.938626 271.728659 
L 169.373443 271.688564 
L 169.424598 271.68384 
L 169.450175 271.681477 
L 169.475753 271.679115 
L 169.552485 271.672024 
L 169.629217 271.66493 
L 170.191921 271.612807 
L 170.243076 271.60806 
L 170.294231 271.603311 
L 170.396541 271.593808 
L 170.550005 271.579417 
L 171.138287 271.521825 
L 171.700991 271.46326 
L 204.261082 267.006802 
L 204.772631 266.959252 
L 204.874941 266.949827 
L 204.926095 266.945125 
L 205.002828 266.938086 
L 205.105138 266.928723 
L 205.821306 266.863943 
L 205.872461 266.859366 
L 205.949193 266.852512 
L 206.077081 266.841121 
L 206.2817 266.822978 
L 206.997869 266.760266 
L 207.68846 266.700917 
L 239.55796 264.167892 
L 240.197396 264.141238 
L 240.299706 264.137112 
L 240.376438 264.134043 
L 240.45317 264.130995 
L 240.581058 264.125963 
L 241.450691 264.093326 
L 241.501846 264.091492 
L 241.604156 264.087852 
L 241.732043 264.083355 
L 241.987817 264.07454 
L 242.857451 264.046329 
L 243.675929 264.022239 
L 274.854838 263.832178 
L 275.596584 263.811258 
L 275.724471 263.807417 
L 275.750048 263.806643 
L 275.801203 263.805096 
L 275.929091 263.801243 
L 276.056978 263.797412 
L 277.054498 263.768246 
L 277.131231 263.766055 
L 277.23354 263.763144 
L 277.412583 263.75808 
L 277.693935 263.750203 
L 278.717032 263.722363 
L 279.688975 263.697052 
L 310.177293 262.841703 
L 311.021349 262.783376 
L 311.149236 262.77418 
L 311.174814 262.772329 
L 311.251546 262.766754 
L 311.379433 262.757385 
L 311.532898 262.746014 
L 312.683883 262.660341 
L 312.760615 262.654638 
L 312.888503 262.645137 
L 313.067545 262.631841 
L 313.400052 262.607164 
L 314.576614 262.520012 
L 315.676445 262.438775 
L 345.474171 260.422743 
L 346.420537 260.372021 
L 346.574002 260.36394 
L 346.599579 260.362597 
L 346.701889 260.357237 
L 346.829776 260.350563 
L 347.008818 260.341268 
L 348.313268 260.275315 
L 348.39 260.271535 
L 348.543465 260.26401 
L 348.748085 260.254047 
L 349.106169 260.236869 
L 350.436196 260.17638 
L 351.663914 260.125394 
L 380.796627 260.595154 
L 381.845302 260.67286 
L 382.024344 260.686511 
L 382.049922 260.68847 
L 382.152231 260.696329 
L 382.305696 260.708186 
L 382.510316 260.724122 
L 383.942653 260.839686 
L 384.019385 260.846074 
L 384.198427 260.861055 
L 384.428624 260.880475 
L 384.837864 260.915438 
L 386.295778 261.0445 
L 387.67696 261.173165 
L 387.67696 238.482821 
L 387.67696 238.482821 
L 386.295778 238.951527 
L 384.837864 239.435603 
L 384.428624 239.56949 
L 384.198427 239.644414 
L 384.019385 239.702494 
L 383.942653 239.727334 
L 382.510316 240.185259 
L 382.305696 240.249779 
L 382.152231 240.298022 
L 382.049922 240.330112 
L 382.024344 240.338126 
L 381.845302 240.394124 
L 380.796627 240.718606 
L 351.663914 247.133212 
L 350.436196 247.291814 
L 349.106169 247.454427 
L 348.748085 247.496609 
L 348.543465 247.520403 
L 348.39 247.538094 
L 348.313268 247.546891 
L 347.008818 247.691482 
L 346.829776 247.710614 
L 346.701889 247.724176 
L 346.599579 247.734964 
L 346.574002 247.737652 
L 346.420537 247.753712 
L 345.474171 247.850082 
L 315.676445 249.418693 
L 314.576614 249.450708 
L 313.400052 249.484777 
L 313.067545 249.494395 
L 312.888503 249.499575 
L 312.760615 249.503275 
L 312.683883 249.505496 
L 311.532898 249.538874 
L 311.379433 249.543308 
L 311.251546 249.546958 
L 311.174814 249.54913 
L 311.149236 249.54985 
L 311.021349 249.55343 
L 310.177293 249.576088 
L 279.688975 249.789338 
L 278.717032 249.805229 
L 277.693935 249.825704 
L 277.412583 249.832059 
L 277.23354 249.836273 
L 277.131231 249.838741 
L 277.054498 249.840621 
L 276.056978 249.867412 
L 275.929091 249.871172 
L 275.801203 249.875009 
L 275.750048 249.876565 
L 275.724471 249.877348 
L 275.596584 249.881295 
L 274.854838 249.90518 
L 243.675929 251.468771 
L 242.857451 251.498845 
L 241.987817 251.529288 
L 241.732043 251.537949 
L 241.604156 251.542229 
L 241.501846 251.545629 
L 241.450691 251.547322 
L 240.581058 251.575292 
L 240.45317 251.579279 
L 240.376438 251.581656 
L 240.299706 251.584021 
L 240.197396 251.587157 
L 239.55796 251.606303 
L 207.68846 252.708766 
L 206.997869 252.769942 
L 206.2817 252.839175 
L 206.077081 252.859994 
L 205.949193 252.873234 
L 205.872461 252.88126 
L 205.821306 252.886646 
L 205.105138 252.964858 
L 205.002828 252.976449 
L 204.926095 252.985208 
L 204.874941 252.99108 
L 204.772631 253.002897 
L 204.261082 253.063452 
L 171.700991 257.539079 
L 171.138287 257.592479 
L 170.550005 257.647565 
L 170.396541 257.661814 
L 170.294231 257.67131 
L 170.243076 257.676068 
L 170.191921 257.680834 
L 169.629217 257.733697 
L 169.552485 257.740968 
L 169.475753 257.748253 
L 169.450175 257.750684 
L 169.424598 257.753118 
L 169.373443 257.757988 
L 168.938626 257.799643 
L 135.687944 261.107963 
L 135.278705 261.142995 
L 134.843888 261.180025 
L 134.716001 261.190878 
L 134.664846 261.195215 
L 134.613691 261.199548 
L 134.588114 261.201714 
L 134.153297 261.238424 
L 134.076565 261.244883 
L 134.050987 261.247036 
L 133.999833 261.25134 
L 133.948678 261.255643 
L 133.641748 261.281441 
L 99.700475 263.153936 
L 99.419123 263.153412 
L 99.137771 263.152465 
L 99.061039 263.152132 
L 99.009884 263.151893 
L 98.984306 263.151768 
L 98.958729 263.151639 
L 98.677377 263.149989 
L 98.626222 263.149642 
L 98.600645 263.149463 
L 98.575067 263.149281 
L 98.54949 263.149095 
L 98.319293 263.147268 
L 63.713006 259.258719 
L 63.559541 259.225484 
L 63.431654 259.19769 
L 63.380499 259.186547 
L 63.354922 259.18097 
L 63.329344 259.175389 
L 63.201457 259.147433 
L 63.175879 259.141831 
L 63.150302 259.136225 
L 63.124725 259.130616 
L 63.022415 259.108144 
z
" clip-path="url(#p1af4b04f91)" style="fill: #999999; fill-opacity: 0.4"/>
   </g>
   <g id="line2d_25">
    <path d="M 63.022415 269.614757 
L 63.713006 269.626544 
L 99.700475 269.481017 
L 135.687944 267.738203 
L 171.700991 264.501169 
L 206.997869 259.765104 
L 207.68846 259.704842 
L 243.675929 257.745505 
L 279.688975 256.743195 
L 313.400052 256.045971 
L 315.676445 255.928734 
L 350.436196 253.734097 
L 351.663914 253.629303 
L 386.295778 249.998014 
L 387.67696 249.827993 
L 387.67696 249.827993 
" clip-path="url(#p1af4b04f91)" style="fill: none; stroke-dasharray: 6.558079,2.835926; stroke-dashoffset: 0; stroke: #5f57db; stroke-width: 1.772454; stroke-linejoin: miter"/>
   </g>
   <g id="patch_3">
    <path d="M 411.109688 232.279308 
L 525.478438 232.279308 
L 525.478438 82.587433 
L 411.109688 82.587433 
z
" style="fill: #ffffff"/>
   </g>
   <g id="text_9">
    <!-- Model -->
    <g transform="translate(423.309687 106.181027)scale(0.11 -0.11)">
     <defs>
      <path id="DejaVuSans-4d" d="M 628 4666 
L 1569 4666 
L 2759 1491 
L 3956 4666 
L 4897 4666 
L 4897 0 
L 4281 0 
L 4281 4097 
L 3078 897 
L 2444 897 
L 1241 4097 
L 1241 0 
L 628 0 
L 628 4666 
z
" transform="scale(0.015625)"/>
     </defs>
     <use xlink:href="#DejaVuSans-4d"/>
     <use xlink:href="#DejaVuSans-6f" x="86.279297"/>
     <use xlink:href="#DejaVuSans-64" x="147.460938"/>
     <use xlink:href="#DejaVuSans-65" x="210.9375"/>
     <use xlink:href="#DejaVuSans-6c" x="272.460938"/>
    </g>
   </g>
   <g id="patch_4">
    <path d="M 423.309687 125.673371 
L 439.149687 125.673371 
L 439.149687 109.833371 
L 423.309687 109.833371 
z
" clip-path="url(#pae7e14b5cc)" style="fill: #f2f2f2"/>
   </g>
   <g id="patch_5">
    <path d="M 423.309687 121.713371 
L 439.149687 121.713371 
L 439.149687 113.793371 
L 423.309687 113.793371 
z
" clip-path="url(#pae7e14b5cc)" style="fill: #999999; opacity: 0.4"/>
   </g>
   <g id="line2d_26">
    <path d="M 423.309687 117.753371 
L 439.149687 117.753371 
" clip-path="url(#pae7e14b5cc)" style="fill: none; stroke: #db5f57; stroke-width: 1.772454"/>
   </g>
   <g id="text_10">
    <!-- five_layer_net -->
    <g transform="translate(442.149688 120.059246)scale(0.088 -0.088)">
     <defs>
      <path id="DejaVuSans-66" d="M 2375 4863 
L 2375 4384 
L 1825 4384 
Q 1516 4384 1395 4259 
Q 1275 4134 1275 3809 
L 1275 3500 
L 2222 3500 
L 2222 3053 
L 1275 3053 
L 1275 0 
L 697 0 
L 697 3053 
L 147 3053 
L 147 3500 
L 697 3500 
L 697 3744 
Q 697 4328 969 4595 
Q 1241 4863 1831 4863 
L 2375 4863 
z
" transform="scale(0.015625)"/>
      <path id="DejaVuSans-76" d="M 191 3500 
L 800 3500 
L 1894 563 
L 2988 3500 
L 3597 3500 
L 2284 0 
L 1503 0 
L 191 3500 
z
" transform="scale(0.015625)"/>
      <path id="DejaVuSans-5f" d="M 3263 -1063 
L 3263 -1509 
L -63 -1509 
L -63 -1063 
L 3263 -1063 
z
" transform="scale(0.015625)"/>
     </defs>
     <use xlink:href="#DejaVuSans-66"/>
     <use xlink:href="#DejaVuSans-69" x="35.205078"/>
     <use xlink:href="#DejaVuSans-76" x="62.988281"/>
     <use xlink:href="#DejaVuSans-65" x="122.167969"/>
     <use xlink:href="#DejaVuSans-5f" x="183.691406"/>
     <use xlink:href="#DejaVuSans-6c" x="233.691406"/>
     <use xlink:href="#DejaVuSans-61" x="261.474609"/>
     <use xlink:href="#DejaVuSans-79" x="322.753906"/>
     <use xlink:href="#DejaVuSans-65" x="381.933594"/>
     <use xlink:href="#DejaVuSans-72" x="443.457031"/>
     <use xlink:href="#DejaVuSans-5f" x="484.570312"/>
     <use xlink:href="#DejaVuSans-6e" x="534.570312"/>
     <use xlink:href="#DejaVuSans-65" x="597.949219"/>
     <use xlink:href="#DejaVuSans-74" x="659.472656"/>
    </g>
   </g>
   <g id="patch_6">
    <path d="M 423.309687 143.513371 
L 439.149687 143.513371 
L 439.149687 127.673371 
L 423.309687 127.673371 
z
" clip-path="url(#p77e4e7dace)" style="fill: #f2f2f2"/>
   </g>
   <g id="patch_7">
    <path d="M 423.309687 139.553371 
L 439.149687 139.553371 
L 439.149687 131.633371 
L 423.309687 131.633371 
z
" clip-path="url(#p77e4e7dace)" style="fill: #999999; opacity: 0.4"/>
   </g>
   <g id="line2d_27">
    <path d="M 423.309687 135.593371 
L 439.149687 135.593371 
" clip-path="url(#p77e4e7dace)" style="fill: none; stroke: #57db5f; stroke-width: 1.772454"/>
   </g>
   <g id="text_11">
    <!-- pytorch_lr -->
    <g transform="translate(442.149688 137.899246)scale(0.088 -0.088)">
     <defs>
      <path id="DejaVuSans-68" d="M 3513 2113 
L 3513 0 
L 2938 0 
L 2938 2094 
Q 2938 2591 2744 2837 
Q 2550 3084 2163 3084 
Q 1697 3084 1428 2787 
Q 1159 2491 1159 1978 
L 1159 0 
L 581 0 
L 581 4863 
L 1159 4863 
L 1159 2956 
Q 1366 3272 1645 3428 
Q 1925 3584 2291 3584 
Q 2894 3584 3203 3211 
Q 3513 2838 3513 2113 
z
" transform="scale(0.015625)"/>
     </defs>
     <use xlink:href="#DejaVuSans-70"/>
     <use xlink:href="#DejaVuSans-79" x="63.476562"/>
     <use xlink:href="#DejaVuSans-74" x="122.65625"/>
     <use xlink:href="#DejaVuSans-6f" x="161.865234"/>
     <use xlink:href="#DejaVuSans-72" x="223.046875"/>
     <use xlink:href="#DejaVuSans-63" x="261.910156"/>
     <use xlink:href="#DejaVuSans-68" x="316.890625"/>
     <use xlink:href="#DejaVuSans-5f" x="380.269531"/>
     <use xlink:href="#DejaVuSans-6c" x="430.269531"/>
     <use xlink:href="#DejaVuSans-72" x="458.052734"/>
    </g>
   </g>
   <g id="patch_8">
    <path d="M 423.309687 161.353371 
L 439.149687 161.353371 
L 439.149687 145.513371 
L 423.309687 145.513371 
z
" clip-path="url(#p99af176fce)" style="fill: #f2f2f2"/>
   </g>
   <g id="patch_9">
    <path d="M 423.309687 157.393371 
L 439.149687 157.393371 
L 439.149687 149.473371 
L 423.309687 149.473371 
z
" clip-path="url(#p99af176fce)" style="fill: #999999; opacity: 0.4"/>
   </g>
   <g id="line2d_28">
    <path d="M 423.309687 153.433371 
L 439.149687 153.433371 
" clip-path="url(#p99af176fce)" style="fill: none; stroke: #5f57db; stroke-width: 1.772454"/>
   </g>
   <g id="text_12">
    <!-- three_layer_net -->
    <g transform="translate(442.149688 155.739246)scale(0.088 -0.088)">
     <use xlink:href="#DejaVuSans-74"/>
     <use xlink:href="#DejaVuSans-68" x="39.208984"/>
     <use xlink:href="#DejaVuSans-72" x="102.587891"/>
     <use xlink:href="#DejaVuSans-65" x="141.451172"/>
     <use xlink:href="#DejaVuSans-65" x="202.974609"/>
     <use xlink:href="#DejaVuSans-5f" x="264.498047"/>
     <use xlink:href="#DejaVuSans-6c" x="314.498047"/>
     <use xlink:href="#DejaVuSans-61" x="342.28125"/>
     <use xlink:href="#DejaVuSans-79" x="403.560547"/>
     <use xlink:href="#DejaVuSans-65" x="462.740234"/>
     <use xlink:href="#DejaVuSans-72" x="524.263672"/>
     <use xlink:href="#DejaVuSans-5f" x="565.376953"/>
     <use xlink:href="#DejaVuSans-6e" x="615.376953"/>
     <use xlink:href="#DejaVuSans-65" x="678.755859"/>
     <use xlink:href="#DejaVuSans-74" x="740.279297"/>
    </g>
   </g>
   <g id="text_13">
    <!-- Correction -->
    <g transform="translate(423.309687 182.746964)scale(0.11 -0.11)">
     <use xlink:href="#DejaVuSans-43"/>
     <use xlink:href="#DejaVuSans-6f" x="69.824219"/>
     <use xlink:href="#DejaVuSans-72" x="131.005859"/>
     <use xlink:href="#DejaVuSans-72" x="170.369141"/>
     <use xlink:href="#DejaVuSans-65" x="209.232422"/>
     <use xlink:href="#DejaVuSans-63" x="270.755859"/>
     <use xlink:href="#DejaVuSans-74" x="325.736328"/>
     <use xlink:href="#DejaVuSans-69" x="364.945312"/>
     <use xlink:href="#DejaVuSans-6f" x="392.728516"/>
     <use xlink:href="#DejaVuSans-6e" x="453.910156"/>
    </g>
   </g>
   <g id="patch_10">
    <path d="M 423.309687 202.239308 
L 439.149687 202.239308 
L 439.149687 186.399308 
L 423.309687 186.399308 
z
" clip-path="url(#p03a5d08267)" style="fill: #f2f2f2"/>
   </g>
   <g id="patch_11">
    <path d="M 423.309687 198.279308 
L 439.149687 198.279308 
L 439.149687 190.359308 
L 423.309687 190.359308 
z
" clip-path="url(#p03a5d08267)" style="fill: #999999; opacity: 0.4"/>
   </g>
   <g id="line2d_29">
    <path d="M 423.309687 194.319308 
L 439.149687 194.319308 
" clip-path="url(#p03a5d08267)" style="fill: none; stroke: #000000; stroke-width: 1.772454"/>
   </g>
   <g id="text_14">
    <!-- Full Signal -->
    <g transform="translate(442.149688 196.747558)scale(0.088 -0.088)">
     <defs>
      <path id="DejaVuSans-46" d="M 628 4666 
L 3309 4666 
L 3309 4134 
L 1259 4134 
L 1259 2759 
L 3109 2759 
L 3109 2228 
L 1259 2228 
L 1259 0 
L 628 0 
L 628 4666 
z
" transform="scale(0.015625)"/>
      <path id="DejaVuSans-67" d="M 2906 1791 
Q 2906 2416 2648 2759 
Q 2391 3103 1925 3103 
Q 1463 3103 1205 2759 
Q 947 2416 947 1791 
Q 947 1169 1205 825 
Q 1463 481 1925 481 
Q 2391 481 2648 825 
Q 2906 1169 2906 1791 
z
M 3481 434 
Q 3481 -459 3084 -895 
Q 2688 -1331 1869 -1331 
Q 1566 -1331 1297 -1286 
Q 1028 -1241 775 -1147 
L 775 -588 
Q 1028 -725 1275 -790 
Q 1522 -856 1778 -856 
Q 2344 -856 2625 -561 
Q 2906 -266 2906 331 
L 2906 616 
Q 2728 306 2450 153 
Q 2172 0 1784 0 
Q 1141 0 747 490 
Q 353 981 353 1791 
Q 353 2603 747 3093 
Q 1141 3584 1784 3584 
Q 2172 3584 2450 3431 
Q 2728 3278 2906 2969 
L 2906 3500 
L 3481 3500 
L 3481 434 
z
" transform="scale(0.015625)"/>
     </defs>
     <use xlink:href="#DejaVuSans-46"/>
     <use xlink:href="#DejaVuSans-75" x="52.019531"/>
     <use xlink:href="#DejaVuSans-6c" x="115.398438"/>
     <use xlink:href="#DejaVuSans-6c" x="143.181641"/>
     <use xlink:href="#DejaVuSans-20" x="170.964844"/>
     <use xlink:href="#DejaVuSans-53" x="202.751953"/>
     <use xlink:href="#DejaVuSans-69" x="266.228516"/>
     <use xlink:href="#DejaVuSans-67" x="294.011719"/>
     <use xlink:href="#DejaVuSans-6e" x="357.488281"/>
     <use xlink:href="#DejaVuSans-61" x="420.867188"/>
     <use xlink:href="#DejaVuSans-6c" x="482.146484"/>
    </g>
   </g>
   <g id="patch_12">
    <path d="M 423.309687 220.079308 
L 439.149687 220.079308 
L 439.149687 204.239308 
L 423.309687 204.239308 
z
" clip-path="url(#p265a931706)" style="fill: #f2f2f2"/>
   </g>
   <g id="patch_13">
    <path d="M 423.309687 216.119308 
L 439.149687 216.119308 
L 439.149687 208.199308 
L 423.309687 208.199308 
z
" clip-path="url(#p265a931706)" style="fill: #999999; opacity: 0.4"/>
   </g>
   <g id="line2d_30">
    <path d="M 423.309687 212.159308 
L 439.149687 212.159308 
" clip-path="url(#p265a931706)" style="fill: none; stroke-dasharray: 6.558079,2.835926; stroke-dashoffset: 0; stroke: #000000; stroke-width: 1.772454"/>
   </g>
   <g id="text_15">
    <!-- Signal Removed -->
    <g transform="translate(442.149688 214.587558)scale(0.088 -0.088)">
     <defs>
      <path id="DejaVuSans-52" d="M 2841 2188 
Q 3044 2119 3236 1894 
Q 3428 1669 3622 1275 
L 4263 0 
L 3584 0 
L 2988 1197 
Q 2756 1666 2539 1819 
Q 2322 1972 1947 1972 
L 1259 1972 
L 1259 0 
L 628 0 
L 628 4666 
L 2053 4666 
Q 2853 4666 3247 4331 
Q 3641 3997 3641 3322 
Q 3641 2881 3436 2590 
Q 3231 2300 2841 2188 
z
M 1259 4147 
L 1259 2491 
L 2053 2491 
Q 2509 2491 2742 2702 
Q 2975 2913 2975 3322 
Q 2975 3731 2742 3939 
Q 2509 4147 2053 4147 
L 1259 4147 
z
" transform="scale(0.015625)"/>
     </defs>
     <use xlink:href="#DejaVuSans-53"/>
     <use xlink:href="#DejaVuSans-69" x="63.476562"/>
     <use xlink:href="#DejaVuSans-67" x="91.259766"/>
     <use xlink:href="#DejaVuSans-6e" x="154.736328"/>
     <use xlink:href="#DejaVuSans-61" x="218.115234"/>
     <use xlink:href="#DejaVuSans-6c" x="279.394531"/>
     <use xlink:href="#DejaVuSans-20" x="307.177734"/>
     <use xlink:href="#DejaVuSans-52" x="338.964844"/>
     <use xlink:href="#DejaVuSans-65" x="403.947266"/>
     <use xlink:href="#DejaVuSans-6d" x="465.470703"/>
     <use xlink:href="#DejaVuSans-6f" x="562.882812"/>
     <use xlink:href="#DejaVuSans-76" x="624.064453"/>
     <use xlink:href="#DejaVuSans-65" x="683.244141"/>
     <use xlink:href="#DejaVuSans-64" x="744.767578"/>
    </g>
   </g>
  </g>
  <g id="text_16">
   <!-- GTEx Multiclass Tissue Prediction -->
   <g transform="translate(110.235938 17.229938)scale(0.132 -0.132)">
    <defs>
     <path id="DejaVuSans-47" d="M 3809 666 
L 3809 1919 
L 2778 1919 
L 2778 2438 
L 4434 2438 
L 4434 434 
Q 4069 175 3628 42 
Q 3188 -91 2688 -91 
Q 1594 -91 976 548 
Q 359 1188 359 2328 
Q 359 3472 976 4111 
Q 1594 4750 2688 4750 
Q 3144 4750 3555 4637 
Q 3966 4525 4313 4306 
L 4313 3634 
Q 3963 3931 3569 4081 
Q 3175 4231 2741 4231 
Q 1884 4231 1454 3753 
Q 1025 3275 1025 2328 
Q 1025 1384 1454 906 
Q 1884 428 2741 428 
Q 3075 428 3337 486 
Q 3600 544 3809 666 
z
" transform="scale(0.015625)"/>
     <path id="DejaVuSans-45" d="M 628 4666 
L 3578 4666 
L 3578 4134 
L 1259 4134 
L 1259 2753 
L 3481 2753 
L 3481 2222 
L 1259 2222 
L 1259 531 
L 3634 531 
L 3634 0 
L 628 0 
L 628 4666 
z
" transform="scale(0.015625)"/>
     <path id="DejaVuSans-78" d="M 3513 3500 
L 2247 1797 
L 3578 0 
L 2900 0 
L 1881 1375 
L 863 0 
L 184 0 
L 1544 1831 
L 300 3500 
L 978 3500 
L 1906 2253 
L 2834 3500 
L 3513 3500 
z
" transform="scale(0.015625)"/>
     <path id="DejaVuSans-73" d="M 2834 3397 
L 2834 2853 
Q 2591 2978 2328 3040 
Q 2066 3103 1784 3103 
Q 1356 3103 1142 2972 
Q 928 2841 928 2578 
Q 928 2378 1081 2264 
Q 1234 2150 1697 2047 
L 1894 2003 
Q 2506 1872 2764 1633 
Q 3022 1394 3022 966 
Q 3022 478 2636 193 
Q 2250 -91 1575 -91 
Q 1294 -91 989 -36 
Q 684 19 347 128 
L 347 722 
Q 666 556 975 473 
Q 1284 391 1588 391 
Q 1994 391 2212 530 
Q 2431 669 2431 922 
Q 2431 1156 2273 1281 
Q 2116 1406 1581 1522 
L 1381 1569 
Q 847 1681 609 1914 
Q 372 2147 372 2553 
Q 372 3047 722 3315 
Q 1072 3584 1716 3584 
Q 2034 3584 2315 3537 
Q 2597 3491 2834 3397 
z
" transform="scale(0.015625)"/>
     <path id="DejaVuSans-50" d="M 1259 4147 
L 1259 2394 
L 2053 2394 
Q 2494 2394 2734 2622 
Q 2975 2850 2975 3272 
Q 2975 3691 2734 3919 
Q 2494 4147 2053 4147 
L 1259 4147 
z
M 628 4666 
L 2053 4666 
Q 2838 4666 3239 4311 
Q 3641 3956 3641 3272 
Q 3641 2581 3239 2228 
Q 2838 1875 2053 1875 
L 1259 1875 
L 1259 0 
L 628 0 
L 628 4666 
z
" transform="scale(0.015625)"/>
    </defs>
    <use xlink:href="#DejaVuSans-47"/>
    <use xlink:href="#DejaVuSans-54" x="73.865234"/>
    <use xlink:href="#DejaVuSans-45" x="134.949219"/>
    <use xlink:href="#DejaVuSans-78" x="198.132812"/>
    <use xlink:href="#DejaVuSans-20" x="257.3125"/>
    <use xlink:href="#DejaVuSans-4d" x="289.099609"/>
    <use xlink:href="#DejaVuSans-75" x="375.378906"/>
    <use xlink:href="#DejaVuSans-6c" x="438.757812"/>
    <use xlink:href="#DejaVuSans-74" x="466.541016"/>
    <use xlink:href="#DejaVuSans-69" x="505.75"/>
    <use xlink:href="#DejaVuSans-63" x="533.533203"/>
    <use xlink:href="#DejaVuSans-6c" x="588.513672"/>
    <use xlink:href="#DejaVuSans-61" x="616.296875"/>
    <use xlink:href="#DejaVuSans-73" x="677.576172"/>
    <use xlink:href="#DejaVuSans-73" x="729.675781"/>
    <use xlink:href="#DejaVuSans-20" x="781.775391"/>
    <use xlink:href="#DejaVuSans-54" x="813.5625"/>
    <use xlink:href="#DejaVuSans-69" x="871.521484"/>
    <use xlink:href="#DejaVuSans-73" x="899.304688"/>
    <use xlink:href="#DejaVuSans-73" x="951.404297"/>
    <use xlink:href="#DejaVuSans-75" x="1003.503906"/>
    <use xlink:href="#DejaVuSans-65" x="1066.882812"/>
    <use xlink:href="#DejaVuSans-20" x="1128.40625"/>
    <use xlink:href="#DejaVuSans-50" x="1160.193359"/>
    <use xlink:href="#DejaVuSans-72" x="1218.746094"/>
    <use xlink:href="#DejaVuSans-65" x="1257.609375"/>
    <use xlink:href="#DejaVuSans-64" x="1319.132812"/>
    <use xlink:href="#DejaVuSans-69" x="1382.609375"/>
    <use xlink:href="#DejaVuSans-63" x="1410.392578"/>
    <use xlink:href="#DejaVuSans-74" x="1465.373047"/>
    <use xlink:href="#DejaVuSans-69" x="1504.582031"/>
    <use xlink:href="#DejaVuSans-6f" x="1532.365234"/>
    <use xlink:href="#DejaVuSans-6e" x="1593.546875"/>
   </g>
  </g>
 </g>
 <defs>
  <clipPath id="p1af4b04f91">
   <rect x="46.789688" y="26.105371" width="357.12" height="266.112"/>
  </clipPath>
  <clipPath id="pae7e14b5cc">
   <path d="M 423.309687 125.673371 
L 423.309687 109.833371 
L 439.149687 109.833371 
L 439.149687 125.673371 
"/>
  </clipPath>
  <clipPath id="p77e4e7dace">
   <path d="M 423.309687 143.513371 
L 423.309687 127.673371 
L 439.149687 127.673371 
L 439.149687 143.513371 
"/>
  </clipPath>
  <clipPath id="p99af176fce">
   <path d="M 423.309687 161.353371 
L 423.309687 145.513371 
L 439.149687 145.513371 
L 439.149687 161.353371 
"/>
  </clipPath>
  <clipPath id="p03a5d08267">
   <path d="M 423.309687 202.239308 
L 423.309687 186.399308 
L 439.149687 186.399308 
L 439.149687 202.239308 
"/>
  </clipPath>
  <clipPath id="p265a931706">
   <path d="M 423.309687 220.079308 
L 423.309687 204.239308 
L 439.149687 204.239308 
L 439.149687 220.079308 
"/>
  </clipPath>
 </defs>
</svg>
