<?xml version="1.0" encoding="utf-8" standalone="no"?>
<!DOCTYPE svg PUBLIC "-//W3C//DTD SVG 1.1//EN"
  "http://www.w3.org/Graphics/SVG/1.1/DTD/svg11.dtd">
<svg height="327.930058pt" version="1.1" viewBox="0 0 530.145688 327.930058" width="530.145688pt" xmlns="http://www.w3.org/2000/svg" xmlns:xlink="http://www.w3.org/1999/xlink">
 <metadata>
  <rdf:RDF xmlns:cc="http://creativecommons.org/ns#" xmlns:dc="http://purl.org/dc/elements/1.1/" xmlns:rdf="http://www.w3.org/1999/02/22-rdf-syntax-ns#">
   <cc:Work>
    <dc:type rdf:resource="http://purl.org/dc/dcmitype/StillImage"/>
    <dc:date>2022-03-04T11:06:04.804955</dc:date>
    <dc:format>image/svg+xml</dc:format>
    <dc:creator>
     <cc:Agent>
      <dc:title>Matplotlib v3.4.2, https://matplotlib.org/</dc:title>
     </cc:Agent>
    </dc:creator>
   </cc:Work>
  </rdf:RDF>
 </metadata>
 <defs>
  <style type="text/css">*{stroke-linecap:butt;stroke-linejoin:round;}</style>
 </defs>
 <g id="figure_1">
  <g id="patch_1">
   <path d="M 0 327.930058 
L 530.145688 327.930058 
L 530.145688 0 
L 0 0 
z
" style="fill:#ffffff;stroke:#ffffff;stroke-linejoin:miter;"/>
  </g>
  <g id="axes_1">
   <g id="patch_2">
    <path d="M 46.789688 292.217371 
L 403.909688 292.217371 
L 403.909688 26.105371 
L 46.789688 26.105371 
z
" style="fill:#ebebeb;"/>
   </g>
   <g id="matplotlib.axis_1">
    <g id="xtick_1">
     <g id="line2d_1">
      <path clip-path="url(#p37e9601718)" d="M 117.131506 292.217371 
L 117.131506 26.105371 
" style="fill:none;stroke:#ffffff;"/>
     </g>
     <g id="line2d_2">
      <path d="M 117.131506 292.217371 
" style="fill:none;stroke:#333333;stroke-width:1.5;"/>
      <defs>
       <path d="M 0 0 
L 0 2.75 
" id="m7fc2f7ac3c" style="stroke:#000000;"/>
      </defs>
      <g>
       <use style="fill:#333333;stroke:#000000;" x="117.131506" xlink:href="#m7fc2f7ac3c" y="292.217371"/>
      </g>
     </g>
     <g id="text_1">
      <!-- 200 -->
      <g style="fill:#4d4d4d;" transform="translate(108.733006 303.853996)scale(0.088 -0.088)">
       <defs>
        <path d="M 1228 531 
L 3431 531 
L 3431 0 
L 469 0 
L 469 531 
Q 828 903 1448 1529 
Q 2069 2156 2228 2338 
Q 2531 2678 2651 2914 
Q 2772 3150 2772 3378 
Q 2772 3750 2511 3984 
Q 2250 4219 1831 4219 
Q 1534 4219 1204 4116 
Q 875 4013 500 3803 
L 500 4441 
Q 881 4594 1212 4672 
Q 1544 4750 1819 4750 
Q 2544 4750 2975 4387 
Q 3406 4025 3406 3419 
Q 3406 3131 3298 2873 
Q 3191 2616 2906 2266 
Q 2828 2175 2409 1742 
Q 1991 1309 1228 531 
z
" id="DejaVuSans-32" transform="scale(0.015625)"/>
        <path d="M 2034 4250 
Q 1547 4250 1301 3770 
Q 1056 3291 1056 2328 
Q 1056 1369 1301 889 
Q 1547 409 2034 409 
Q 2525 409 2770 889 
Q 3016 1369 3016 2328 
Q 3016 3291 2770 3770 
Q 2525 4250 2034 4250 
z
M 2034 4750 
Q 2819 4750 3233 4129 
Q 3647 3509 3647 2328 
Q 3647 1150 3233 529 
Q 2819 -91 2034 -91 
Q 1250 -91 836 529 
Q 422 1150 422 2328 
Q 422 3509 836 4129 
Q 1250 4750 2034 4750 
z
" id="DejaVuSans-30" transform="scale(0.015625)"/>
       </defs>
       <use xlink:href="#DejaVuSans-32"/>
       <use x="63.623047" xlink:href="#DejaVuSans-30"/>
       <use x="127.246094" xlink:href="#DejaVuSans-30"/>
      </g>
     </g>
    </g>
    <g id="xtick_2">
     <g id="line2d_3">
      <path clip-path="url(#p37e9601718)" d="M 207.313324 292.217371 
L 207.313324 26.105371 
" style="fill:none;stroke:#ffffff;"/>
     </g>
     <g id="line2d_4">
      <path d="M 207.313324 292.217371 
" style="fill:none;stroke:#333333;stroke-width:1.5;"/>
      <g>
       <use style="fill:#333333;stroke:#000000;" x="207.313324" xlink:href="#m7fc2f7ac3c" y="292.217371"/>
      </g>
     </g>
     <g id="text_2">
      <!-- 400 -->
      <g style="fill:#4d4d4d;" transform="translate(198.914824 303.853996)scale(0.088 -0.088)">
       <defs>
        <path d="M 2419 4116 
L 825 1625 
L 2419 1625 
L 2419 4116 
z
M 2253 4666 
L 3047 4666 
L 3047 1625 
L 3713 1625 
L 3713 1100 
L 3047 1100 
L 3047 0 
L 2419 0 
L 2419 1100 
L 313 1100 
L 313 1709 
L 2253 4666 
z
" id="DejaVuSans-34" transform="scale(0.015625)"/>
       </defs>
       <use xlink:href="#DejaVuSans-34"/>
       <use x="63.623047" xlink:href="#DejaVuSans-30"/>
       <use x="127.246094" xlink:href="#DejaVuSans-30"/>
      </g>
     </g>
    </g>
    <g id="xtick_3">
     <g id="line2d_5">
      <path clip-path="url(#p37e9601718)" d="M 297.495142 292.217371 
L 297.495142 26.105371 
" style="fill:none;stroke:#ffffff;"/>
     </g>
     <g id="line2d_6">
      <path d="M 297.495142 292.217371 
" style="fill:none;stroke:#333333;stroke-width:1.5;"/>
      <g>
       <use style="fill:#333333;stroke:#000000;" x="297.495142" xlink:href="#m7fc2f7ac3c" y="292.217371"/>
      </g>
     </g>
     <g id="text_3">
      <!-- 600 -->
      <g style="fill:#4d4d4d;" transform="translate(289.096642 303.853996)scale(0.088 -0.088)">
       <defs>
        <path d="M 2113 2584 
Q 1688 2584 1439 2293 
Q 1191 2003 1191 1497 
Q 1191 994 1439 701 
Q 1688 409 2113 409 
Q 2538 409 2786 701 
Q 3034 994 3034 1497 
Q 3034 2003 2786 2293 
Q 2538 2584 2113 2584 
z
M 3366 4563 
L 3366 3988 
Q 3128 4100 2886 4159 
Q 2644 4219 2406 4219 
Q 1781 4219 1451 3797 
Q 1122 3375 1075 2522 
Q 1259 2794 1537 2939 
Q 1816 3084 2150 3084 
Q 2853 3084 3261 2657 
Q 3669 2231 3669 1497 
Q 3669 778 3244 343 
Q 2819 -91 2113 -91 
Q 1303 -91 875 529 
Q 447 1150 447 2328 
Q 447 3434 972 4092 
Q 1497 4750 2381 4750 
Q 2619 4750 2861 4703 
Q 3103 4656 3366 4563 
z
" id="DejaVuSans-36" transform="scale(0.015625)"/>
       </defs>
       <use xlink:href="#DejaVuSans-36"/>
       <use x="63.623047" xlink:href="#DejaVuSans-30"/>
       <use x="127.246094" xlink:href="#DejaVuSans-30"/>
      </g>
     </g>
    </g>
    <g id="xtick_4">
     <g id="line2d_7">
      <path clip-path="url(#p37e9601718)" d="M 387.67696 292.217371 
L 387.67696 26.105371 
" style="fill:none;stroke:#ffffff;"/>
     </g>
     <g id="line2d_8">
      <path d="M 387.67696 292.217371 
" style="fill:none;stroke:#333333;stroke-width:1.5;"/>
      <g>
       <use style="fill:#333333;stroke:#000000;" x="387.67696" xlink:href="#m7fc2f7ac3c" y="292.217371"/>
      </g>
     </g>
     <g id="text_4">
      <!-- 800 -->
      <g style="fill:#4d4d4d;" transform="translate(379.27846 303.853996)scale(0.088 -0.088)">
       <defs>
        <path d="M 2034 2216 
Q 1584 2216 1326 1975 
Q 1069 1734 1069 1313 
Q 1069 891 1326 650 
Q 1584 409 2034 409 
Q 2484 409 2743 651 
Q 3003 894 3003 1313 
Q 3003 1734 2745 1975 
Q 2488 2216 2034 2216 
z
M 1403 2484 
Q 997 2584 770 2862 
Q 544 3141 544 3541 
Q 544 4100 942 4425 
Q 1341 4750 2034 4750 
Q 2731 4750 3128 4425 
Q 3525 4100 3525 3541 
Q 3525 3141 3298 2862 
Q 3072 2584 2669 2484 
Q 3125 2378 3379 2068 
Q 3634 1759 3634 1313 
Q 3634 634 3220 271 
Q 2806 -91 2034 -91 
Q 1263 -91 848 271 
Q 434 634 434 1313 
Q 434 1759 690 2068 
Q 947 2378 1403 2484 
z
M 1172 3481 
Q 1172 3119 1398 2916 
Q 1625 2713 2034 2713 
Q 2441 2713 2670 2916 
Q 2900 3119 2900 3481 
Q 2900 3844 2670 4047 
Q 2441 4250 2034 4250 
Q 1625 4250 1398 4047 
Q 1172 3844 1172 3481 
z
" id="DejaVuSans-38" transform="scale(0.015625)"/>
       </defs>
       <use xlink:href="#DejaVuSans-38"/>
       <use x="63.623047" xlink:href="#DejaVuSans-30"/>
       <use x="127.246094" xlink:href="#DejaVuSans-30"/>
      </g>
     </g>
    </g>
    <g id="xtick_5">
     <g id="line2d_9">
      <path clip-path="url(#p37e9601718)" d="M 72.040597 292.217371 
L 72.040597 26.105371 
" style="fill:none;stroke:#ffffff;stroke-width:0.5;"/>
     </g>
    </g>
    <g id="xtick_6">
     <g id="line2d_10">
      <path clip-path="url(#p37e9601718)" d="M 162.222415 292.217371 
L 162.222415 26.105371 
" style="fill:none;stroke:#ffffff;stroke-width:0.5;"/>
     </g>
    </g>
    <g id="xtick_7">
     <g id="line2d_11">
      <path clip-path="url(#p37e9601718)" d="M 252.404233 292.217371 
L 252.404233 26.105371 
" style="fill:none;stroke:#ffffff;stroke-width:0.5;"/>
     </g>
    </g>
    <g id="xtick_8">
     <g id="line2d_12">
      <path clip-path="url(#p37e9601718)" d="M 342.586051 292.217371 
L 342.586051 26.105371 
" style="fill:none;stroke:#ffffff;stroke-width:0.5;"/>
     </g>
    </g>
    <g id="text_5">
     <!-- Train Sample Count -->
     <g transform="translate(165.944063 318.442402)scale(0.11 -0.11)">
      <defs>
       <path d="M -19 4666 
L 3928 4666 
L 3928 4134 
L 2272 4134 
L 2272 0 
L 1638 0 
L 1638 4134 
L -19 4134 
L -19 4666 
z
" id="DejaVuSans-54" transform="scale(0.015625)"/>
       <path d="M 2631 2963 
Q 2534 3019 2420 3045 
Q 2306 3072 2169 3072 
Q 1681 3072 1420 2755 
Q 1159 2438 1159 1844 
L 1159 0 
L 581 0 
L 581 3500 
L 1159 3500 
L 1159 2956 
Q 1341 3275 1631 3429 
Q 1922 3584 2338 3584 
Q 2397 3584 2469 3576 
Q 2541 3569 2628 3553 
L 2631 2963 
z
" id="DejaVuSans-72" transform="scale(0.015625)"/>
       <path d="M 2194 1759 
Q 1497 1759 1228 1600 
Q 959 1441 959 1056 
Q 959 750 1161 570 
Q 1363 391 1709 391 
Q 2188 391 2477 730 
Q 2766 1069 2766 1631 
L 2766 1759 
L 2194 1759 
z
M 3341 1997 
L 3341 0 
L 2766 0 
L 2766 531 
Q 2569 213 2275 61 
Q 1981 -91 1556 -91 
Q 1019 -91 701 211 
Q 384 513 384 1019 
Q 384 1609 779 1909 
Q 1175 2209 1959 2209 
L 2766 2209 
L 2766 2266 
Q 2766 2663 2505 2880 
Q 2244 3097 1772 3097 
Q 1472 3097 1187 3025 
Q 903 2953 641 2809 
L 641 3341 
Q 956 3463 1253 3523 
Q 1550 3584 1831 3584 
Q 2591 3584 2966 3190 
Q 3341 2797 3341 1997 
z
" id="DejaVuSans-61" transform="scale(0.015625)"/>
       <path d="M 603 3500 
L 1178 3500 
L 1178 0 
L 603 0 
L 603 3500 
z
M 603 4863 
L 1178 4863 
L 1178 4134 
L 603 4134 
L 603 4863 
z
" id="DejaVuSans-69" transform="scale(0.015625)"/>
       <path d="M 3513 2113 
L 3513 0 
L 2938 0 
L 2938 2094 
Q 2938 2591 2744 2837 
Q 2550 3084 2163 3084 
Q 1697 3084 1428 2787 
Q 1159 2491 1159 1978 
L 1159 0 
L 581 0 
L 581 3500 
L 1159 3500 
L 1159 2956 
Q 1366 3272 1645 3428 
Q 1925 3584 2291 3584 
Q 2894 3584 3203 3211 
Q 3513 2838 3513 2113 
z
" id="DejaVuSans-6e" transform="scale(0.015625)"/>
       <path id="DejaVuSans-20" transform="scale(0.015625)"/>
       <path d="M 3425 4513 
L 3425 3897 
Q 3066 4069 2747 4153 
Q 2428 4238 2131 4238 
Q 1616 4238 1336 4038 
Q 1056 3838 1056 3469 
Q 1056 3159 1242 3001 
Q 1428 2844 1947 2747 
L 2328 2669 
Q 3034 2534 3370 2195 
Q 3706 1856 3706 1288 
Q 3706 609 3251 259 
Q 2797 -91 1919 -91 
Q 1588 -91 1214 -16 
Q 841 59 441 206 
L 441 856 
Q 825 641 1194 531 
Q 1563 422 1919 422 
Q 2459 422 2753 634 
Q 3047 847 3047 1241 
Q 3047 1584 2836 1778 
Q 2625 1972 2144 2069 
L 1759 2144 
Q 1053 2284 737 2584 
Q 422 2884 422 3419 
Q 422 4038 858 4394 
Q 1294 4750 2059 4750 
Q 2388 4750 2728 4690 
Q 3069 4631 3425 4513 
z
" id="DejaVuSans-53" transform="scale(0.015625)"/>
       <path d="M 3328 2828 
Q 3544 3216 3844 3400 
Q 4144 3584 4550 3584 
Q 5097 3584 5394 3201 
Q 5691 2819 5691 2113 
L 5691 0 
L 5113 0 
L 5113 2094 
Q 5113 2597 4934 2840 
Q 4756 3084 4391 3084 
Q 3944 3084 3684 2787 
Q 3425 2491 3425 1978 
L 3425 0 
L 2847 0 
L 2847 2094 
Q 2847 2600 2669 2842 
Q 2491 3084 2119 3084 
Q 1678 3084 1418 2786 
Q 1159 2488 1159 1978 
L 1159 0 
L 581 0 
L 581 3500 
L 1159 3500 
L 1159 2956 
Q 1356 3278 1631 3431 
Q 1906 3584 2284 3584 
Q 2666 3584 2933 3390 
Q 3200 3197 3328 2828 
z
" id="DejaVuSans-6d" transform="scale(0.015625)"/>
       <path d="M 1159 525 
L 1159 -1331 
L 581 -1331 
L 581 3500 
L 1159 3500 
L 1159 2969 
Q 1341 3281 1617 3432 
Q 1894 3584 2278 3584 
Q 2916 3584 3314 3078 
Q 3713 2572 3713 1747 
Q 3713 922 3314 415 
Q 2916 -91 2278 -91 
Q 1894 -91 1617 61 
Q 1341 213 1159 525 
z
M 3116 1747 
Q 3116 2381 2855 2742 
Q 2594 3103 2138 3103 
Q 1681 3103 1420 2742 
Q 1159 2381 1159 1747 
Q 1159 1113 1420 752 
Q 1681 391 2138 391 
Q 2594 391 2855 752 
Q 3116 1113 3116 1747 
z
" id="DejaVuSans-70" transform="scale(0.015625)"/>
       <path d="M 603 4863 
L 1178 4863 
L 1178 0 
L 603 0 
L 603 4863 
z
" id="DejaVuSans-6c" transform="scale(0.015625)"/>
       <path d="M 3597 1894 
L 3597 1613 
L 953 1613 
Q 991 1019 1311 708 
Q 1631 397 2203 397 
Q 2534 397 2845 478 
Q 3156 559 3463 722 
L 3463 178 
Q 3153 47 2828 -22 
Q 2503 -91 2169 -91 
Q 1331 -91 842 396 
Q 353 884 353 1716 
Q 353 2575 817 3079 
Q 1281 3584 2069 3584 
Q 2775 3584 3186 3129 
Q 3597 2675 3597 1894 
z
M 3022 2063 
Q 3016 2534 2758 2815 
Q 2500 3097 2075 3097 
Q 1594 3097 1305 2825 
Q 1016 2553 972 2059 
L 3022 2063 
z
" id="DejaVuSans-65" transform="scale(0.015625)"/>
       <path d="M 4122 4306 
L 4122 3641 
Q 3803 3938 3442 4084 
Q 3081 4231 2675 4231 
Q 1875 4231 1450 3742 
Q 1025 3253 1025 2328 
Q 1025 1406 1450 917 
Q 1875 428 2675 428 
Q 3081 428 3442 575 
Q 3803 722 4122 1019 
L 4122 359 
Q 3791 134 3420 21 
Q 3050 -91 2638 -91 
Q 1578 -91 968 557 
Q 359 1206 359 2328 
Q 359 3453 968 4101 
Q 1578 4750 2638 4750 
Q 3056 4750 3426 4639 
Q 3797 4528 4122 4306 
z
" id="DejaVuSans-43" transform="scale(0.015625)"/>
       <path d="M 1959 3097 
Q 1497 3097 1228 2736 
Q 959 2375 959 1747 
Q 959 1119 1226 758 
Q 1494 397 1959 397 
Q 2419 397 2687 759 
Q 2956 1122 2956 1747 
Q 2956 2369 2687 2733 
Q 2419 3097 1959 3097 
z
M 1959 3584 
Q 2709 3584 3137 3096 
Q 3566 2609 3566 1747 
Q 3566 888 3137 398 
Q 2709 -91 1959 -91 
Q 1206 -91 779 398 
Q 353 888 353 1747 
Q 353 2609 779 3096 
Q 1206 3584 1959 3584 
z
" id="DejaVuSans-6f" transform="scale(0.015625)"/>
       <path d="M 544 1381 
L 544 3500 
L 1119 3500 
L 1119 1403 
Q 1119 906 1312 657 
Q 1506 409 1894 409 
Q 2359 409 2629 706 
Q 2900 1003 2900 1516 
L 2900 3500 
L 3475 3500 
L 3475 0 
L 2900 0 
L 2900 538 
Q 2691 219 2414 64 
Q 2138 -91 1772 -91 
Q 1169 -91 856 284 
Q 544 659 544 1381 
z
M 1991 3584 
L 1991 3584 
z
" id="DejaVuSans-75" transform="scale(0.015625)"/>
       <path d="M 1172 4494 
L 1172 3500 
L 2356 3500 
L 2356 3053 
L 1172 3053 
L 1172 1153 
Q 1172 725 1289 603 
Q 1406 481 1766 481 
L 2356 481 
L 2356 0 
L 1766 0 
Q 1100 0 847 248 
Q 594 497 594 1153 
L 594 3053 
L 172 3053 
L 172 3500 
L 594 3500 
L 594 4494 
L 1172 4494 
z
" id="DejaVuSans-74" transform="scale(0.015625)"/>
      </defs>
      <use xlink:href="#DejaVuSans-54"/>
      <use x="46.333984" xlink:href="#DejaVuSans-72"/>
      <use x="87.447266" xlink:href="#DejaVuSans-61"/>
      <use x="148.726562" xlink:href="#DejaVuSans-69"/>
      <use x="176.509766" xlink:href="#DejaVuSans-6e"/>
      <use x="239.888672" xlink:href="#DejaVuSans-20"/>
      <use x="271.675781" xlink:href="#DejaVuSans-53"/>
      <use x="335.152344" xlink:href="#DejaVuSans-61"/>
      <use x="396.431641" xlink:href="#DejaVuSans-6d"/>
      <use x="493.84375" xlink:href="#DejaVuSans-70"/>
      <use x="557.320312" xlink:href="#DejaVuSans-6c"/>
      <use x="585.103516" xlink:href="#DejaVuSans-65"/>
      <use x="646.626953" xlink:href="#DejaVuSans-20"/>
      <use x="678.414062" xlink:href="#DejaVuSans-43"/>
      <use x="748.238281" xlink:href="#DejaVuSans-6f"/>
      <use x="809.419922" xlink:href="#DejaVuSans-75"/>
      <use x="872.798828" xlink:href="#DejaVuSans-6e"/>
      <use x="936.177734" xlink:href="#DejaVuSans-74"/>
     </g>
    </g>
   </g>
   <g id="matplotlib.axis_2">
    <g id="ytick_1">
     <g id="line2d_13">
      <path clip-path="url(#p37e9601718)" d="M 46.789688 257.662518 
L 403.909688 257.662518 
" style="fill:none;stroke:#ffffff;"/>
     </g>
     <g id="line2d_14">
      <path d="M 46.789688 257.662518 
" style="fill:none;stroke:#333333;stroke-width:1.5;"/>
      <defs>
       <path d="M 0 0 
L -2.75 0 
" id="mac237478c9" style="stroke:#000000;"/>
      </defs>
      <g>
       <use style="fill:#333333;stroke:#000000;" x="46.789688" xlink:href="#mac237478c9" y="257.662518"/>
      </g>
     </g>
     <g id="text_6">
      <!-- 0.49 -->
      <g style="fill:#4d4d4d;" transform="translate(22.245938 260.090768)scale(0.088 -0.088)">
       <defs>
        <path d="M 684 794 
L 1344 794 
L 1344 0 
L 684 0 
L 684 794 
z
" id="DejaVuSans-2e" transform="scale(0.015625)"/>
        <path d="M 703 97 
L 703 672 
Q 941 559 1184 500 
Q 1428 441 1663 441 
Q 2288 441 2617 861 
Q 2947 1281 2994 2138 
Q 2813 1869 2534 1725 
Q 2256 1581 1919 1581 
Q 1219 1581 811 2004 
Q 403 2428 403 3163 
Q 403 3881 828 4315 
Q 1253 4750 1959 4750 
Q 2769 4750 3195 4129 
Q 3622 3509 3622 2328 
Q 3622 1225 3098 567 
Q 2575 -91 1691 -91 
Q 1453 -91 1209 -44 
Q 966 3 703 97 
z
M 1959 2075 
Q 2384 2075 2632 2365 
Q 2881 2656 2881 3163 
Q 2881 3666 2632 3958 
Q 2384 4250 1959 4250 
Q 1534 4250 1286 3958 
Q 1038 3666 1038 3163 
Q 1038 2656 1286 2365 
Q 1534 2075 1959 2075 
z
" id="DejaVuSans-39" transform="scale(0.015625)"/>
       </defs>
       <use xlink:href="#DejaVuSans-30"/>
       <use x="63.623047" xlink:href="#DejaVuSans-2e"/>
       <use x="95.410156" xlink:href="#DejaVuSans-34"/>
       <use x="159.033203" xlink:href="#DejaVuSans-39"/>
      </g>
     </g>
    </g>
    <g id="ytick_2">
     <g id="line2d_15">
      <path clip-path="url(#p37e9601718)" d="M 46.789688 201.259778 
L 403.909688 201.259778 
" style="fill:none;stroke:#ffffff;"/>
     </g>
     <g id="line2d_16">
      <path d="M 46.789688 201.259778 
" style="fill:none;stroke:#333333;stroke-width:1.5;"/>
      <g>
       <use style="fill:#333333;stroke:#000000;" x="46.789688" xlink:href="#mac237478c9" y="201.259778"/>
      </g>
     </g>
     <g id="text_7">
      <!-- 0.50 -->
      <g style="fill:#4d4d4d;" transform="translate(22.245938 203.688028)scale(0.088 -0.088)">
       <defs>
        <path d="M 691 4666 
L 3169 4666 
L 3169 4134 
L 1269 4134 
L 1269 2991 
Q 1406 3038 1543 3061 
Q 1681 3084 1819 3084 
Q 2600 3084 3056 2656 
Q 3513 2228 3513 1497 
Q 3513 744 3044 326 
Q 2575 -91 1722 -91 
Q 1428 -91 1123 -41 
Q 819 9 494 109 
L 494 744 
Q 775 591 1075 516 
Q 1375 441 1709 441 
Q 2250 441 2565 725 
Q 2881 1009 2881 1497 
Q 2881 1984 2565 2268 
Q 2250 2553 1709 2553 
Q 1456 2553 1204 2497 
Q 953 2441 691 2322 
L 691 4666 
z
" id="DejaVuSans-35" transform="scale(0.015625)"/>
       </defs>
       <use xlink:href="#DejaVuSans-30"/>
       <use x="63.623047" xlink:href="#DejaVuSans-2e"/>
       <use x="95.410156" xlink:href="#DejaVuSans-35"/>
       <use x="159.033203" xlink:href="#DejaVuSans-30"/>
      </g>
     </g>
    </g>
    <g id="ytick_3">
     <g id="line2d_17">
      <path clip-path="url(#p37e9601718)" d="M 46.789688 144.857038 
L 403.909688 144.857038 
" style="fill:none;stroke:#ffffff;"/>
     </g>
     <g id="line2d_18">
      <path d="M 46.789688 144.857038 
" style="fill:none;stroke:#333333;stroke-width:1.5;"/>
      <g>
       <use style="fill:#333333;stroke:#000000;" x="46.789688" xlink:href="#mac237478c9" y="144.857038"/>
      </g>
     </g>
     <g id="text_8">
      <!-- 0.51 -->
      <g style="fill:#4d4d4d;" transform="translate(22.245938 147.285288)scale(0.088 -0.088)">
       <defs>
        <path d="M 794 531 
L 1825 531 
L 1825 4091 
L 703 3866 
L 703 4441 
L 1819 4666 
L 2450 4666 
L 2450 531 
L 3481 531 
L 3481 0 
L 794 0 
L 794 531 
z
" id="DejaVuSans-31" transform="scale(0.015625)"/>
       </defs>
       <use xlink:href="#DejaVuSans-30"/>
       <use x="63.623047" xlink:href="#DejaVuSans-2e"/>
       <use x="95.410156" xlink:href="#DejaVuSans-35"/>
       <use x="159.033203" xlink:href="#DejaVuSans-31"/>
      </g>
     </g>
    </g>
    <g id="ytick_4">
     <g id="line2d_19">
      <path clip-path="url(#p37e9601718)" d="M 46.789688 88.454298 
L 403.909688 88.454298 
" style="fill:none;stroke:#ffffff;"/>
     </g>
     <g id="line2d_20">
      <path d="M 46.789688 88.454298 
" style="fill:none;stroke:#333333;stroke-width:1.5;"/>
      <g>
       <use style="fill:#333333;stroke:#000000;" x="46.789688" xlink:href="#mac237478c9" y="88.454298"/>
      </g>
     </g>
     <g id="text_9">
      <!-- 0.52 -->
      <g style="fill:#4d4d4d;" transform="translate(22.245938 90.882548)scale(0.088 -0.088)">
       <use xlink:href="#DejaVuSans-30"/>
       <use x="63.623047" xlink:href="#DejaVuSans-2e"/>
       <use x="95.410156" xlink:href="#DejaVuSans-35"/>
       <use x="159.033203" xlink:href="#DejaVuSans-32"/>
      </g>
     </g>
    </g>
    <g id="ytick_5">
     <g id="line2d_21">
      <path clip-path="url(#p37e9601718)" d="M 46.789688 32.051558 
L 403.909688 32.051558 
" style="fill:none;stroke:#ffffff;"/>
     </g>
     <g id="line2d_22">
      <path d="M 46.789688 32.051558 
" style="fill:none;stroke:#333333;stroke-width:1.5;"/>
      <g>
       <use style="fill:#333333;stroke:#000000;" x="46.789688" xlink:href="#mac237478c9" y="32.051558"/>
      </g>
     </g>
     <g id="text_10">
      <!-- 0.53 -->
      <g style="fill:#4d4d4d;" transform="translate(22.245938 34.479808)scale(0.088 -0.088)">
       <defs>
        <path d="M 2597 2516 
Q 3050 2419 3304 2112 
Q 3559 1806 3559 1356 
Q 3559 666 3084 287 
Q 2609 -91 1734 -91 
Q 1441 -91 1130 -33 
Q 819 25 488 141 
L 488 750 
Q 750 597 1062 519 
Q 1375 441 1716 441 
Q 2309 441 2620 675 
Q 2931 909 2931 1356 
Q 2931 1769 2642 2001 
Q 2353 2234 1838 2234 
L 1294 2234 
L 1294 2753 
L 1863 2753 
Q 2328 2753 2575 2939 
Q 2822 3125 2822 3475 
Q 2822 3834 2567 4026 
Q 2313 4219 1838 4219 
Q 1578 4219 1281 4162 
Q 984 4106 628 3988 
L 628 4550 
Q 988 4650 1302 4700 
Q 1616 4750 1894 4750 
Q 2613 4750 3031 4423 
Q 3450 4097 3450 3541 
Q 3450 3153 3228 2886 
Q 3006 2619 2597 2516 
z
" id="DejaVuSans-33" transform="scale(0.015625)"/>
       </defs>
       <use xlink:href="#DejaVuSans-30"/>
       <use x="63.623047" xlink:href="#DejaVuSans-2e"/>
       <use x="95.410156" xlink:href="#DejaVuSans-35"/>
       <use x="159.033203" xlink:href="#DejaVuSans-33"/>
      </g>
     </g>
    </g>
    <g id="ytick_6">
     <g id="line2d_23">
      <path clip-path="url(#p37e9601718)" d="M 46.789688 285.863889 
L 403.909688 285.863889 
" style="fill:none;stroke:#ffffff;stroke-width:0.5;"/>
     </g>
    </g>
    <g id="ytick_7">
     <g id="line2d_24">
      <path clip-path="url(#p37e9601718)" d="M 46.789688 229.461148 
L 403.909688 229.461148 
" style="fill:none;stroke:#ffffff;stroke-width:0.5;"/>
     </g>
    </g>
    <g id="ytick_8">
     <g id="line2d_25">
      <path clip-path="url(#p37e9601718)" d="M 46.789688 173.058408 
L 403.909688 173.058408 
" style="fill:none;stroke:#ffffff;stroke-width:0.5;"/>
     </g>
    </g>
    <g id="ytick_9">
     <g id="line2d_26">
      <path clip-path="url(#p37e9601718)" d="M 46.789688 116.655668 
L 403.909688 116.655668 
" style="fill:none;stroke:#ffffff;stroke-width:0.5;"/>
     </g>
    </g>
    <g id="ytick_10">
     <g id="line2d_27">
      <path clip-path="url(#p37e9601718)" d="M 46.789688 60.252928 
L 403.909688 60.252928 
" style="fill:none;stroke:#ffffff;stroke-width:0.5;"/>
     </g>
    </g>
    <g id="text_11">
     <!-- Balanced Accuracy (Val Set) -->
     <g transform="translate(15.558281 234.774543)rotate(-90)scale(0.11 -0.11)">
      <defs>
       <path d="M 1259 2228 
L 1259 519 
L 2272 519 
Q 2781 519 3026 730 
Q 3272 941 3272 1375 
Q 3272 1813 3026 2020 
Q 2781 2228 2272 2228 
L 1259 2228 
z
M 1259 4147 
L 1259 2741 
L 2194 2741 
Q 2656 2741 2882 2914 
Q 3109 3088 3109 3444 
Q 3109 3797 2882 3972 
Q 2656 4147 2194 4147 
L 1259 4147 
z
M 628 4666 
L 2241 4666 
Q 2963 4666 3353 4366 
Q 3744 4066 3744 3513 
Q 3744 3084 3544 2831 
Q 3344 2578 2956 2516 
Q 3422 2416 3680 2098 
Q 3938 1781 3938 1306 
Q 3938 681 3513 340 
Q 3088 0 2303 0 
L 628 0 
L 628 4666 
z
" id="DejaVuSans-42" transform="scale(0.015625)"/>
       <path d="M 3122 3366 
L 3122 2828 
Q 2878 2963 2633 3030 
Q 2388 3097 2138 3097 
Q 1578 3097 1268 2742 
Q 959 2388 959 1747 
Q 959 1106 1268 751 
Q 1578 397 2138 397 
Q 2388 397 2633 464 
Q 2878 531 3122 666 
L 3122 134 
Q 2881 22 2623 -34 
Q 2366 -91 2075 -91 
Q 1284 -91 818 406 
Q 353 903 353 1747 
Q 353 2603 823 3093 
Q 1294 3584 2113 3584 
Q 2378 3584 2631 3529 
Q 2884 3475 3122 3366 
z
" id="DejaVuSans-63" transform="scale(0.015625)"/>
       <path d="M 2906 2969 
L 2906 4863 
L 3481 4863 
L 3481 0 
L 2906 0 
L 2906 525 
Q 2725 213 2448 61 
Q 2172 -91 1784 -91 
Q 1150 -91 751 415 
Q 353 922 353 1747 
Q 353 2572 751 3078 
Q 1150 3584 1784 3584 
Q 2172 3584 2448 3432 
Q 2725 3281 2906 2969 
z
M 947 1747 
Q 947 1113 1208 752 
Q 1469 391 1925 391 
Q 2381 391 2643 752 
Q 2906 1113 2906 1747 
Q 2906 2381 2643 2742 
Q 2381 3103 1925 3103 
Q 1469 3103 1208 2742 
Q 947 2381 947 1747 
z
" id="DejaVuSans-64" transform="scale(0.015625)"/>
       <path d="M 2188 4044 
L 1331 1722 
L 3047 1722 
L 2188 4044 
z
M 1831 4666 
L 2547 4666 
L 4325 0 
L 3669 0 
L 3244 1197 
L 1141 1197 
L 716 0 
L 50 0 
L 1831 4666 
z
" id="DejaVuSans-41" transform="scale(0.015625)"/>
       <path d="M 2059 -325 
Q 1816 -950 1584 -1140 
Q 1353 -1331 966 -1331 
L 506 -1331 
L 506 -850 
L 844 -850 
Q 1081 -850 1212 -737 
Q 1344 -625 1503 -206 
L 1606 56 
L 191 3500 
L 800 3500 
L 1894 763 
L 2988 3500 
L 3597 3500 
L 2059 -325 
z
" id="DejaVuSans-79" transform="scale(0.015625)"/>
       <path d="M 1984 4856 
Q 1566 4138 1362 3434 
Q 1159 2731 1159 2009 
Q 1159 1288 1364 580 
Q 1569 -128 1984 -844 
L 1484 -844 
Q 1016 -109 783 600 
Q 550 1309 550 2009 
Q 550 2706 781 3412 
Q 1013 4119 1484 4856 
L 1984 4856 
z
" id="DejaVuSans-28" transform="scale(0.015625)"/>
       <path d="M 1831 0 
L 50 4666 
L 709 4666 
L 2188 738 
L 3669 4666 
L 4325 4666 
L 2547 0 
L 1831 0 
z
" id="DejaVuSans-56" transform="scale(0.015625)"/>
       <path d="M 513 4856 
L 1013 4856 
Q 1481 4119 1714 3412 
Q 1947 2706 1947 2009 
Q 1947 1309 1714 600 
Q 1481 -109 1013 -844 
L 513 -844 
Q 928 -128 1133 580 
Q 1338 1288 1338 2009 
Q 1338 2731 1133 3434 
Q 928 4138 513 4856 
z
" id="DejaVuSans-29" transform="scale(0.015625)"/>
      </defs>
      <use xlink:href="#DejaVuSans-42"/>
      <use x="68.603516" xlink:href="#DejaVuSans-61"/>
      <use x="129.882812" xlink:href="#DejaVuSans-6c"/>
      <use x="157.666016" xlink:href="#DejaVuSans-61"/>
      <use x="218.945312" xlink:href="#DejaVuSans-6e"/>
      <use x="282.324219" xlink:href="#DejaVuSans-63"/>
      <use x="337.304688" xlink:href="#DejaVuSans-65"/>
      <use x="398.828125" xlink:href="#DejaVuSans-64"/>
      <use x="462.304688" xlink:href="#DejaVuSans-20"/>
      <use x="494.091797" xlink:href="#DejaVuSans-41"/>
      <use x="560.75" xlink:href="#DejaVuSans-63"/>
      <use x="615.730469" xlink:href="#DejaVuSans-63"/>
      <use x="670.710938" xlink:href="#DejaVuSans-75"/>
      <use x="734.089844" xlink:href="#DejaVuSans-72"/>
      <use x="775.203125" xlink:href="#DejaVuSans-61"/>
      <use x="836.482422" xlink:href="#DejaVuSans-63"/>
      <use x="891.462891" xlink:href="#DejaVuSans-79"/>
      <use x="950.642578" xlink:href="#DejaVuSans-20"/>
      <use x="982.429688" xlink:href="#DejaVuSans-28"/>
      <use x="1021.443359" xlink:href="#DejaVuSans-56"/>
      <use x="1082.101562" xlink:href="#DejaVuSans-61"/>
      <use x="1143.380859" xlink:href="#DejaVuSans-6c"/>
      <use x="1171.164062" xlink:href="#DejaVuSans-20"/>
      <use x="1202.951172" xlink:href="#DejaVuSans-53"/>
      <use x="1266.427734" xlink:href="#DejaVuSans-65"/>
      <use x="1327.951172" xlink:href="#DejaVuSans-74"/>
      <use x="1367.160156" xlink:href="#DejaVuSans-29"/>
     </g>
    </g>
   </g>
   <g id="LineCollection_1">
    <path clip-path="url(#p37e9601718)" d="M 46.789688 201.259778 
L 403.909688 201.259778 
" style="fill:none;stroke:#000000;stroke-dasharray:3.27904,1.417963;stroke-dashoffset:0;stroke-width:0.886227;"/>
   </g>
   <g id="PolyCollection_1">
    <path clip-path="url(#p37e9601718)" d="M 63.022415 103.952264 
L 63.022415 236.230763 
L 99.095142 180.635737 
L 135.167869 164.235215 
L 171.240597 159.652946 
L 207.313324 162.091829 
L 243.386051 149.672633 
L 279.458778 131.910458 
L 315.531506 121.639362 
L 351.604233 130.435692 
L 387.67696 184.338522 
L 387.67696 52.026654 
L 387.67696 52.026654 
L 351.604233 50.053049 
L 315.531506 38.201371 
L 279.458778 43.904869 
L 243.386051 61.667044 
L 207.313324 74.086241 
L 171.240597 71.647358 
L 135.167869 80.797224 
L 99.095142 100.253095 
L 63.022415 103.952264 
z
" style="fill:#999999;fill-opacity:0.4;"/>
   </g>
   <g id="PolyCollection_2">
    <path clip-path="url(#p37e9601718)" d="M 63.022415 121.285963 
L 63.022415 227.67703 
L 99.095142 230.512227 
L 135.167869 247.327295 
L 171.240597 254.699522 
L 207.313324 244.689321 
L 243.386051 234.286656 
L 279.458778 215.81623 
L 315.531506 211.575381 
L 351.604233 226.401617 
L 387.67696 278.724822 
L 387.67696 172.306917 
L 387.67696 172.306917 
L 351.604233 161.75018 
L 315.531506 144.46654 
L 279.458778 145.033687 
L 243.386051 163.504114 
L 207.313324 173.906779 
L 171.240597 183.91698 
L 135.167869 180.218454 
L 99.095142 165.86079 
L 63.022415 121.285963 
z
" style="fill:#999999;fill-opacity:0.4;"/>
   </g>
   <g id="PolyCollection_3">
    <path clip-path="url(#p37e9601718)" d="M 63.022415 165.757344 
L 63.022415 280.121371 
L 99.095142 238.341737 
L 135.167869 234.435363 
L 171.240597 245.252042 
L 207.313324 256.333154 
L 243.386051 241.514937 
L 279.458778 228.819339 
L 315.531506 223.621954 
L 351.604233 216.408213 
L 387.67696 231.233339 
L 387.67696 116.840463 
L 387.67696 116.840463 
L 351.604233 146.911789 
L 315.531506 151.483967 
L 279.458778 152.732344 
L 243.386051 165.427942 
L 207.313324 180.246159 
L 171.240597 169.165047 
L 135.167869 162.297376 
L 99.095142 168.845312 
L 63.022415 165.757344 
z
" style="fill:#999999;fill-opacity:0.4;"/>
   </g>
   <g id="line2d_28">
    <path clip-path="url(#p37e9601718)" d="M 63.022415 170.091513 
L 99.095142 140.444416 
L 135.167869 122.516219 
L 171.240597 115.650152 
L 207.313324 118.089035 
L 243.386051 105.669839 
L 279.458778 87.907663 
L 315.531506 79.920366 
L 351.604233 90.244371 
L 387.67696 118.182588 
" style="fill:none;stroke:#db5f57;stroke-linejoin:miter;stroke-width:1.772454;"/>
   </g>
   <g id="line2d_29">
    <path clip-path="url(#p37e9601718)" d="M 63.022415 174.481497 
L 99.095142 198.186509 
L 135.167869 213.772875 
L 171.240597 219.308251 
L 207.313324 209.29805 
L 243.386051 198.895385 
L 279.458778 180.424958 
L 315.531506 178.020961 
L 351.604233 194.075898 
L 387.67696 225.515869 
" style="fill:none;stroke:#57db5f;stroke-linejoin:miter;stroke-width:1.772454;"/>
   </g>
   <g id="line2d_30">
    <path clip-path="url(#p37e9601718)" d="M 63.022415 222.939357 
L 99.095142 203.593524 
L 135.167869 198.36637 
L 171.240597 207.208545 
L 207.313324 218.289657 
L 243.386051 203.47144 
L 279.458778 190.775841 
L 315.531506 187.552961 
L 351.604233 181.660001 
L 387.67696 174.036901 
" style="fill:none;stroke:#5f57db;stroke-linejoin:miter;stroke-width:1.772454;"/>
   </g>
   <g id="patch_3">
    <path d="M 411.109688 202.916339 
L 522.945688 202.916339 
L 522.945688 111.950402 
L 411.109688 111.950402 
z
" style="fill:#ffffff;"/>
   </g>
   <g id="text_12">
    <!-- Model -->
    <g transform="translate(423.309687 135.543996)scale(0.11 -0.11)">
     <defs>
      <path d="M 628 4666 
L 1569 4666 
L 2759 1491 
L 3956 4666 
L 4897 4666 
L 4897 0 
L 4281 0 
L 4281 4097 
L 3078 897 
L 2444 897 
L 1241 4097 
L 1241 0 
L 628 0 
L 628 4666 
z
" id="DejaVuSans-4d" transform="scale(0.015625)"/>
     </defs>
     <use xlink:href="#DejaVuSans-4d"/>
     <use x="86.279297" xlink:href="#DejaVuSans-6f"/>
     <use x="147.460938" xlink:href="#DejaVuSans-64"/>
     <use x="210.9375" xlink:href="#DejaVuSans-65"/>
     <use x="272.460938" xlink:href="#DejaVuSans-6c"/>
    </g>
   </g>
   <g id="patch_4">
    <path clip-path="url(#p49a4691af8)" d="M 423.309687 155.036339 
L 439.149687 155.036339 
L 439.149687 139.196339 
L 423.309687 139.196339 
z
" style="fill:#f2f2f2;"/>
   </g>
   <g id="patch_5">
    <path clip-path="url(#p49a4691af8)" d="M 423.309687 151.076339 
L 439.149687 151.076339 
L 439.149687 143.156339 
L 423.309687 143.156339 
z
" style="fill:#999999;opacity:0.4;"/>
   </g>
   <g id="line2d_31">
    <path clip-path="url(#p49a4691af8)" d="M 423.309687 147.116339 
L 439.149687 147.116339 
" style="fill:none;stroke:#db5f57;stroke-width:1.772454;"/>
   </g>
   <g id="text_13">
    <!-- five_layer_net -->
    <g transform="translate(442.149688 149.422214)scale(0.088 -0.088)">
     <defs>
      <path d="M 2375 4863 
L 2375 4384 
L 1825 4384 
Q 1516 4384 1395 4259 
Q 1275 4134 1275 3809 
L 1275 3500 
L 2222 3500 
L 2222 3053 
L 1275 3053 
L 1275 0 
L 697 0 
L 697 3053 
L 147 3053 
L 147 3500 
L 697 3500 
L 697 3744 
Q 697 4328 969 4595 
Q 1241 4863 1831 4863 
L 2375 4863 
z
" id="DejaVuSans-66" transform="scale(0.015625)"/>
      <path d="M 191 3500 
L 800 3500 
L 1894 563 
L 2988 3500 
L 3597 3500 
L 2284 0 
L 1503 0 
L 191 3500 
z
" id="DejaVuSans-76" transform="scale(0.015625)"/>
      <path d="M 3263 -1063 
L 3263 -1509 
L -63 -1509 
L -63 -1063 
L 3263 -1063 
z
" id="DejaVuSans-5f" transform="scale(0.015625)"/>
     </defs>
     <use xlink:href="#DejaVuSans-66"/>
     <use x="35.205078" xlink:href="#DejaVuSans-69"/>
     <use x="62.988281" xlink:href="#DejaVuSans-76"/>
     <use x="122.167969" xlink:href="#DejaVuSans-65"/>
     <use x="183.691406" xlink:href="#DejaVuSans-5f"/>
     <use x="233.691406" xlink:href="#DejaVuSans-6c"/>
     <use x="261.474609" xlink:href="#DejaVuSans-61"/>
     <use x="322.753906" xlink:href="#DejaVuSans-79"/>
     <use x="381.933594" xlink:href="#DejaVuSans-65"/>
     <use x="443.457031" xlink:href="#DejaVuSans-72"/>
     <use x="484.570312" xlink:href="#DejaVuSans-5f"/>
     <use x="534.570312" xlink:href="#DejaVuSans-6e"/>
     <use x="597.949219" xlink:href="#DejaVuSans-65"/>
     <use x="659.472656" xlink:href="#DejaVuSans-74"/>
    </g>
   </g>
   <g id="patch_6">
    <path clip-path="url(#p9902600fff)" d="M 423.309687 172.876339 
L 439.149687 172.876339 
L 439.149687 157.036339 
L 423.309687 157.036339 
z
" style="fill:#f2f2f2;"/>
   </g>
   <g id="patch_7">
    <path clip-path="url(#p9902600fff)" d="M 423.309687 168.916339 
L 439.149687 168.916339 
L 439.149687 160.996339 
L 423.309687 160.996339 
z
" style="fill:#999999;opacity:0.4;"/>
   </g>
   <g id="line2d_32">
    <path clip-path="url(#p9902600fff)" d="M 423.309687 164.956339 
L 439.149687 164.956339 
" style="fill:none;stroke:#57db5f;stroke-width:1.772454;"/>
   </g>
   <g id="text_14">
    <!-- pytorch_lr -->
    <g transform="translate(442.149688 167.262214)scale(0.088 -0.088)">
     <defs>
      <path d="M 3513 2113 
L 3513 0 
L 2938 0 
L 2938 2094 
Q 2938 2591 2744 2837 
Q 2550 3084 2163 3084 
Q 1697 3084 1428 2787 
Q 1159 2491 1159 1978 
L 1159 0 
L 581 0 
L 581 4863 
L 1159 4863 
L 1159 2956 
Q 1366 3272 1645 3428 
Q 1925 3584 2291 3584 
Q 2894 3584 3203 3211 
Q 3513 2838 3513 2113 
z
" id="DejaVuSans-68" transform="scale(0.015625)"/>
     </defs>
     <use xlink:href="#DejaVuSans-70"/>
     <use x="63.476562" xlink:href="#DejaVuSans-79"/>
     <use x="122.65625" xlink:href="#DejaVuSans-74"/>
     <use x="161.865234" xlink:href="#DejaVuSans-6f"/>
     <use x="223.046875" xlink:href="#DejaVuSans-72"/>
     <use x="261.910156" xlink:href="#DejaVuSans-63"/>
     <use x="316.890625" xlink:href="#DejaVuSans-68"/>
     <use x="380.269531" xlink:href="#DejaVuSans-5f"/>
     <use x="430.269531" xlink:href="#DejaVuSans-6c"/>
     <use x="458.052734" xlink:href="#DejaVuSans-72"/>
    </g>
   </g>
   <g id="patch_8">
    <path clip-path="url(#pca9aed93a3)" d="M 423.309687 190.716339 
L 439.149687 190.716339 
L 439.149687 174.876339 
L 423.309687 174.876339 
z
" style="fill:#f2f2f2;"/>
   </g>
   <g id="patch_9">
    <path clip-path="url(#pca9aed93a3)" d="M 423.309687 186.756339 
L 439.149687 186.756339 
L 439.149687 178.836339 
L 423.309687 178.836339 
z
" style="fill:#999999;opacity:0.4;"/>
   </g>
   <g id="line2d_33">
    <path clip-path="url(#pca9aed93a3)" d="M 423.309687 182.796339 
L 439.149687 182.796339 
" style="fill:none;stroke:#5f57db;stroke-width:1.772454;"/>
   </g>
   <g id="text_15">
    <!-- three_layer_net -->
    <g transform="translate(442.149688 185.102214)scale(0.088 -0.088)">
     <use xlink:href="#DejaVuSans-74"/>
     <use x="39.208984" xlink:href="#DejaVuSans-68"/>
     <use x="102.587891" xlink:href="#DejaVuSans-72"/>
     <use x="141.451172" xlink:href="#DejaVuSans-65"/>
     <use x="202.974609" xlink:href="#DejaVuSans-65"/>
     <use x="264.498047" xlink:href="#DejaVuSans-5f"/>
     <use x="314.498047" xlink:href="#DejaVuSans-6c"/>
     <use x="342.28125" xlink:href="#DejaVuSans-61"/>
     <use x="403.560547" xlink:href="#DejaVuSans-79"/>
     <use x="462.740234" xlink:href="#DejaVuSans-65"/>
     <use x="524.263672" xlink:href="#DejaVuSans-72"/>
     <use x="565.376953" xlink:href="#DejaVuSans-5f"/>
     <use x="615.376953" xlink:href="#DejaVuSans-6e"/>
     <use x="678.755859" xlink:href="#DejaVuSans-65"/>
     <use x="740.279297" xlink:href="#DejaVuSans-74"/>
    </g>
   </g>
  </g>
  <g id="text_16">
   <!-- Simulated data prediction - linear vars, split signal removal -->
   <g transform="translate(23.948156 17.229938)scale(0.132 -0.132)">
    <defs>
     <path d="M 313 2009 
L 1997 2009 
L 1997 1497 
L 313 1497 
L 313 2009 
z
" id="DejaVuSans-2d" transform="scale(0.015625)"/>
     <path d="M 2834 3397 
L 2834 2853 
Q 2591 2978 2328 3040 
Q 2066 3103 1784 3103 
Q 1356 3103 1142 2972 
Q 928 2841 928 2578 
Q 928 2378 1081 2264 
Q 1234 2150 1697 2047 
L 1894 2003 
Q 2506 1872 2764 1633 
Q 3022 1394 3022 966 
Q 3022 478 2636 193 
Q 2250 -91 1575 -91 
Q 1294 -91 989 -36 
Q 684 19 347 128 
L 347 722 
Q 666 556 975 473 
Q 1284 391 1588 391 
Q 1994 391 2212 530 
Q 2431 669 2431 922 
Q 2431 1156 2273 1281 
Q 2116 1406 1581 1522 
L 1381 1569 
Q 847 1681 609 1914 
Q 372 2147 372 2553 
Q 372 3047 722 3315 
Q 1072 3584 1716 3584 
Q 2034 3584 2315 3537 
Q 2597 3491 2834 3397 
z
" id="DejaVuSans-73" transform="scale(0.015625)"/>
     <path d="M 750 794 
L 1409 794 
L 1409 256 
L 897 -744 
L 494 -744 
L 750 256 
L 750 794 
z
" id="DejaVuSans-2c" transform="scale(0.015625)"/>
     <path d="M 2906 1791 
Q 2906 2416 2648 2759 
Q 2391 3103 1925 3103 
Q 1463 3103 1205 2759 
Q 947 2416 947 1791 
Q 947 1169 1205 825 
Q 1463 481 1925 481 
Q 2391 481 2648 825 
Q 2906 1169 2906 1791 
z
M 3481 434 
Q 3481 -459 3084 -895 
Q 2688 -1331 1869 -1331 
Q 1566 -1331 1297 -1286 
Q 1028 -1241 775 -1147 
L 775 -588 
Q 1028 -725 1275 -790 
Q 1522 -856 1778 -856 
Q 2344 -856 2625 -561 
Q 2906 -266 2906 331 
L 2906 616 
Q 2728 306 2450 153 
Q 2172 0 1784 0 
Q 1141 0 747 490 
Q 353 981 353 1791 
Q 353 2603 747 3093 
Q 1141 3584 1784 3584 
Q 2172 3584 2450 3431 
Q 2728 3278 2906 2969 
L 2906 3500 
L 3481 3500 
L 3481 434 
z
" id="DejaVuSans-67" transform="scale(0.015625)"/>
    </defs>
    <use xlink:href="#DejaVuSans-53"/>
    <use x="63.476562" xlink:href="#DejaVuSans-69"/>
    <use x="91.259766" xlink:href="#DejaVuSans-6d"/>
    <use x="188.671875" xlink:href="#DejaVuSans-75"/>
    <use x="252.050781" xlink:href="#DejaVuSans-6c"/>
    <use x="279.833984" xlink:href="#DejaVuSans-61"/>
    <use x="341.113281" xlink:href="#DejaVuSans-74"/>
    <use x="380.322266" xlink:href="#DejaVuSans-65"/>
    <use x="441.845703" xlink:href="#DejaVuSans-64"/>
    <use x="505.322266" xlink:href="#DejaVuSans-20"/>
    <use x="537.109375" xlink:href="#DejaVuSans-64"/>
    <use x="600.585938" xlink:href="#DejaVuSans-61"/>
    <use x="661.865234" xlink:href="#DejaVuSans-74"/>
    <use x="701.074219" xlink:href="#DejaVuSans-61"/>
    <use x="762.353516" xlink:href="#DejaVuSans-20"/>
    <use x="794.140625" xlink:href="#DejaVuSans-70"/>
    <use x="857.617188" xlink:href="#DejaVuSans-72"/>
    <use x="896.480469" xlink:href="#DejaVuSans-65"/>
    <use x="958.003906" xlink:href="#DejaVuSans-64"/>
    <use x="1021.480469" xlink:href="#DejaVuSans-69"/>
    <use x="1049.263672" xlink:href="#DejaVuSans-63"/>
    <use x="1104.244141" xlink:href="#DejaVuSans-74"/>
    <use x="1143.453125" xlink:href="#DejaVuSans-69"/>
    <use x="1171.236328" xlink:href="#DejaVuSans-6f"/>
    <use x="1232.417969" xlink:href="#DejaVuSans-6e"/>
    <use x="1295.796875" xlink:href="#DejaVuSans-20"/>
    <use x="1327.583984" xlink:href="#DejaVuSans-2d"/>
    <use x="1363.667969" xlink:href="#DejaVuSans-20"/>
    <use x="1395.455078" xlink:href="#DejaVuSans-6c"/>
    <use x="1423.238281" xlink:href="#DejaVuSans-69"/>
    <use x="1451.021484" xlink:href="#DejaVuSans-6e"/>
    <use x="1514.400391" xlink:href="#DejaVuSans-65"/>
    <use x="1575.923828" xlink:href="#DejaVuSans-61"/>
    <use x="1637.203125" xlink:href="#DejaVuSans-72"/>
    <use x="1678.316406" xlink:href="#DejaVuSans-20"/>
    <use x="1710.103516" xlink:href="#DejaVuSans-76"/>
    <use x="1769.283203" xlink:href="#DejaVuSans-61"/>
    <use x="1830.5625" xlink:href="#DejaVuSans-72"/>
    <use x="1871.675781" xlink:href="#DejaVuSans-73"/>
    <use x="1923.775391" xlink:href="#DejaVuSans-2c"/>
    <use x="1955.5625" xlink:href="#DejaVuSans-20"/>
    <use x="1987.349609" xlink:href="#DejaVuSans-73"/>
    <use x="2039.449219" xlink:href="#DejaVuSans-70"/>
    <use x="2102.925781" xlink:href="#DejaVuSans-6c"/>
    <use x="2130.708984" xlink:href="#DejaVuSans-69"/>
    <use x="2158.492188" xlink:href="#DejaVuSans-74"/>
    <use x="2197.701172" xlink:href="#DejaVuSans-20"/>
    <use x="2229.488281" xlink:href="#DejaVuSans-73"/>
    <use x="2281.587891" xlink:href="#DejaVuSans-69"/>
    <use x="2309.371094" xlink:href="#DejaVuSans-67"/>
    <use x="2372.847656" xlink:href="#DejaVuSans-6e"/>
    <use x="2436.226562" xlink:href="#DejaVuSans-61"/>
    <use x="2497.505859" xlink:href="#DejaVuSans-6c"/>
    <use x="2525.289062" xlink:href="#DejaVuSans-20"/>
    <use x="2557.076172" xlink:href="#DejaVuSans-72"/>
    <use x="2595.939453" xlink:href="#DejaVuSans-65"/>
    <use x="2657.462891" xlink:href="#DejaVuSans-6d"/>
    <use x="2754.875" xlink:href="#DejaVuSans-6f"/>
    <use x="2816.056641" xlink:href="#DejaVuSans-76"/>
    <use x="2875.236328" xlink:href="#DejaVuSans-61"/>
    <use x="2936.515625" xlink:href="#DejaVuSans-6c"/>
   </g>
  </g>
 </g>
 <defs>
  <clipPath id="p37e9601718">
   <rect height="266.112" width="357.12" x="46.789688" y="26.105371"/>
  </clipPath>
  <clipPath id="p49a4691af8">
   <path d="M 423.309687 155.036339 
L 423.309687 139.196339 
L 439.149687 139.196339 
L 439.149687 155.036339 
"/>
  </clipPath>
  <clipPath id="p9902600fff">
   <path d="M 423.309687 172.876339 
L 423.309687 157.036339 
L 439.149687 157.036339 
L 439.149687 172.876339 
"/>
  </clipPath>
  <clipPath id="pca9aed93a3">
   <path d="M 423.309687 190.716339 
L 423.309687 174.876339 
L 439.149687 174.876339 
L 439.149687 190.716339 
"/>
  </clipPath>
 </defs>
</svg>
