<?xml version="1.0" encoding="utf-8" standalone="no"?>
<!DOCTYPE svg PUBLIC "-//W3C//DTD SVG 1.1//EN"
  "http://www.w3.org/Graphics/SVG/1.1/DTD/svg11.dtd">
<svg xmlns:xlink="http://www.w3.org/1999/xlink" width="524.546688pt" height="327.930058pt" viewBox="0 0 524.546688 327.930058" xmlns="http://www.w3.org/2000/svg" version="1.1">
 <metadata>
  <rdf:RDF xmlns:dc="http://purl.org/dc/elements/1.1/" xmlns:cc="http://creativecommons.org/ns#" xmlns:rdf="http://www.w3.org/1999/02/22-rdf-syntax-ns#">
   <cc:Work>
    <dc:type rdf:resource="http://purl.org/dc/dcmitype/StillImage"/>
    <dc:date>2022-05-09T09:40:40.322168</dc:date>
    <dc:format>image/svg+xml</dc:format>
    <dc:creator>
     <cc:Agent>
      <dc:title>Matplotlib v3.5.1, https://matplotlib.org/</dc:title>
     </cc:Agent>
    </dc:creator>
   </cc:Work>
  </rdf:RDF>
 </metadata>
 <defs>
  <style type="text/css">*{stroke-linejoin: round; stroke-linecap: butt}</style>
 </defs>
 <g id="figure_1">
  <g id="patch_1">
   <path d="M 0 327.930058 
L 524.546688 327.930058 
L 524.546688 0 
L 0 0 
z
" style="fill: #ffffff; stroke: #ffffff; stroke-linejoin: miter"/>
  </g>
  <g id="axes_1">
   <g id="patch_2">
    <path d="M 41.190688 292.217371 
L 398.310688 292.217371 
L 398.310688 26.105371 
L 41.190688 26.105371 
z
" style="fill: #ebebeb"/>
   </g>
   <g id="matplotlib.axis_1">
    <g id="xtick_1">
     <g id="line2d_1">
      <path d="M 115.113903 292.217371 
L 115.113903 26.105371 
" clip-path="url(#pc86cd3be7b)" style="fill: none; stroke: #ffffff"/>
     </g>
     <g id="line2d_2">
      <path d="M 115.113903 292.217371 
" style="fill: none; stroke: #333333; stroke-width: 1.5"/>
      <defs>
       <path id="m374820ead9" d="M 0 0 
L 0 2.75 
" style="stroke: #000000"/>
      </defs>
      <g>
       <use xlink:href="#m374820ead9" x="115.113903" y="292.217371" style="fill: #333333; stroke: #000000"/>
      </g>
     </g>
     <g id="text_1">
      <!-- 2500 -->
      <g style="fill: #4d4d4d" transform="translate(103.915903 303.853996)scale(0.088 -0.088)">
       <defs>
        <path id="DejaVuSans-32" d="M 1228 531 
L 3431 531 
L 3431 0 
L 469 0 
L 469 531 
Q 828 903 1448 1529 
Q 2069 2156 2228 2338 
Q 2531 2678 2651 2914 
Q 2772 3150 2772 3378 
Q 2772 3750 2511 3984 
Q 2250 4219 1831 4219 
Q 1534 4219 1204 4116 
Q 875 4013 500 3803 
L 500 4441 
Q 881 4594 1212 4672 
Q 1544 4750 1819 4750 
Q 2544 4750 2975 4387 
Q 3406 4025 3406 3419 
Q 3406 3131 3298 2873 
Q 3191 2616 2906 2266 
Q 2828 2175 2409 1742 
Q 1991 1309 1228 531 
z
" transform="scale(0.015625)"/>
        <path id="DejaVuSans-35" d="M 691 4666 
L 3169 4666 
L 3169 4134 
L 1269 4134 
L 1269 2991 
Q 1406 3038 1543 3061 
Q 1681 3084 1819 3084 
Q 2600 3084 3056 2656 
Q 3513 2228 3513 1497 
Q 3513 744 3044 326 
Q 2575 -91 1722 -91 
Q 1428 -91 1123 -41 
Q 819 9 494 109 
L 494 744 
Q 775 591 1075 516 
Q 1375 441 1709 441 
Q 2250 441 2565 725 
Q 2881 1009 2881 1497 
Q 2881 1984 2565 2268 
Q 2250 2553 1709 2553 
Q 1456 2553 1204 2497 
Q 953 2441 691 2322 
L 691 4666 
z
" transform="scale(0.015625)"/>
        <path id="DejaVuSans-30" d="M 2034 4250 
Q 1547 4250 1301 3770 
Q 1056 3291 1056 2328 
Q 1056 1369 1301 889 
Q 1547 409 2034 409 
Q 2525 409 2770 889 
Q 3016 1369 3016 2328 
Q 3016 3291 2770 3770 
Q 2525 4250 2034 4250 
z
M 2034 4750 
Q 2819 4750 3233 4129 
Q 3647 3509 3647 2328 
Q 3647 1150 3233 529 
Q 2819 -91 2034 -91 
Q 1250 -91 836 529 
Q 422 1150 422 2328 
Q 422 3509 836 4129 
Q 1250 4750 2034 4750 
z
" transform="scale(0.015625)"/>
       </defs>
       <use xlink:href="#DejaVuSans-32"/>
       <use xlink:href="#DejaVuSans-35" x="63.623047"/>
       <use xlink:href="#DejaVuSans-30" x="127.246094"/>
       <use xlink:href="#DejaVuSans-30" x="190.869141"/>
      </g>
     </g>
    </g>
    <g id="xtick_2">
     <g id="line2d_3">
      <path d="M 203.325659 292.217371 
L 203.325659 26.105371 
" clip-path="url(#pc86cd3be7b)" style="fill: none; stroke: #ffffff"/>
     </g>
     <g id="line2d_4">
      <path d="M 203.325659 292.217371 
" style="fill: none; stroke: #333333; stroke-width: 1.5"/>
      <g>
       <use xlink:href="#m374820ead9" x="203.325659" y="292.217371" style="fill: #333333; stroke: #000000"/>
      </g>
     </g>
     <g id="text_2">
      <!-- 5000 -->
      <g style="fill: #4d4d4d" transform="translate(192.127659 303.853996)scale(0.088 -0.088)">
       <use xlink:href="#DejaVuSans-35"/>
       <use xlink:href="#DejaVuSans-30" x="63.623047"/>
       <use xlink:href="#DejaVuSans-30" x="127.246094"/>
       <use xlink:href="#DejaVuSans-30" x="190.869141"/>
      </g>
     </g>
    </g>
    <g id="xtick_3">
     <g id="line2d_5">
      <path d="M 291.537414 292.217371 
L 291.537414 26.105371 
" clip-path="url(#pc86cd3be7b)" style="fill: none; stroke: #ffffff"/>
     </g>
     <g id="line2d_6">
      <path d="M 291.537414 292.217371 
" style="fill: none; stroke: #333333; stroke-width: 1.5"/>
      <g>
       <use xlink:href="#m374820ead9" x="291.537414" y="292.217371" style="fill: #333333; stroke: #000000"/>
      </g>
     </g>
     <g id="text_3">
      <!-- 7500 -->
      <g style="fill: #4d4d4d" transform="translate(280.339414 303.853996)scale(0.088 -0.088)">
       <defs>
        <path id="DejaVuSans-37" d="M 525 4666 
L 3525 4666 
L 3525 4397 
L 1831 0 
L 1172 0 
L 2766 4134 
L 525 4134 
L 525 4666 
z
" transform="scale(0.015625)"/>
       </defs>
       <use xlink:href="#DejaVuSans-37"/>
       <use xlink:href="#DejaVuSans-35" x="63.623047"/>
       <use xlink:href="#DejaVuSans-30" x="127.246094"/>
       <use xlink:href="#DejaVuSans-30" x="190.869141"/>
      </g>
     </g>
    </g>
    <g id="xtick_4">
     <g id="line2d_7">
      <path d="M 379.74917 292.217371 
L 379.74917 26.105371 
" clip-path="url(#pc86cd3be7b)" style="fill: none; stroke: #ffffff"/>
     </g>
     <g id="line2d_8">
      <path d="M 379.74917 292.217371 
" style="fill: none; stroke: #333333; stroke-width: 1.5"/>
      <g>
       <use xlink:href="#m374820ead9" x="379.74917" y="292.217371" style="fill: #333333; stroke: #000000"/>
      </g>
     </g>
     <g id="text_4">
      <!-- 10000 -->
      <g style="fill: #4d4d4d" transform="translate(365.75167 303.853996)scale(0.088 -0.088)">
       <defs>
        <path id="DejaVuSans-31" d="M 794 531 
L 1825 531 
L 1825 4091 
L 703 3866 
L 703 4441 
L 1819 4666 
L 2450 4666 
L 2450 531 
L 3481 531 
L 3481 0 
L 794 0 
L 794 531 
z
" transform="scale(0.015625)"/>
       </defs>
       <use xlink:href="#DejaVuSans-31"/>
       <use xlink:href="#DejaVuSans-30" x="63.623047"/>
       <use xlink:href="#DejaVuSans-30" x="127.246094"/>
       <use xlink:href="#DejaVuSans-30" x="190.869141"/>
       <use xlink:href="#DejaVuSans-30" x="254.492188"/>
      </g>
     </g>
    </g>
    <g id="xtick_5">
     <g id="line2d_9">
      <path d="M 71.008025 292.217371 
L 71.008025 26.105371 
" clip-path="url(#pc86cd3be7b)" style="fill: none; stroke: #ffffff; stroke-width: 0.5"/>
     </g>
    </g>
    <g id="xtick_6">
     <g id="line2d_10">
      <path d="M 159.219781 292.217371 
L 159.219781 26.105371 
" clip-path="url(#pc86cd3be7b)" style="fill: none; stroke: #ffffff; stroke-width: 0.5"/>
     </g>
    </g>
    <g id="xtick_7">
     <g id="line2d_11">
      <path d="M 247.431536 292.217371 
L 247.431536 26.105371 
" clip-path="url(#pc86cd3be7b)" style="fill: none; stroke: #ffffff; stroke-width: 0.5"/>
     </g>
    </g>
    <g id="xtick_8">
     <g id="line2d_12">
      <path d="M 335.643292 292.217371 
L 335.643292 26.105371 
" clip-path="url(#pc86cd3be7b)" style="fill: none; stroke: #ffffff; stroke-width: 0.5"/>
     </g>
    </g>
    <g id="text_5">
     <!-- Train Sample Count -->
     <g transform="translate(160.345063 318.442402)scale(0.11 -0.11)">
      <defs>
       <path id="DejaVuSans-54" d="M -19 4666 
L 3928 4666 
L 3928 4134 
L 2272 4134 
L 2272 0 
L 1638 0 
L 1638 4134 
L -19 4134 
L -19 4666 
z
" transform="scale(0.015625)"/>
       <path id="DejaVuSans-72" d="M 2631 2963 
Q 2534 3019 2420 3045 
Q 2306 3072 2169 3072 
Q 1681 3072 1420 2755 
Q 1159 2438 1159 1844 
L 1159 0 
L 581 0 
L 581 3500 
L 1159 3500 
L 1159 2956 
Q 1341 3275 1631 3429 
Q 1922 3584 2338 3584 
Q 2397 3584 2469 3576 
Q 2541 3569 2628 3553 
L 2631 2963 
z
" transform="scale(0.015625)"/>
       <path id="DejaVuSans-61" d="M 2194 1759 
Q 1497 1759 1228 1600 
Q 959 1441 959 1056 
Q 959 750 1161 570 
Q 1363 391 1709 391 
Q 2188 391 2477 730 
Q 2766 1069 2766 1631 
L 2766 1759 
L 2194 1759 
z
M 3341 1997 
L 3341 0 
L 2766 0 
L 2766 531 
Q 2569 213 2275 61 
Q 1981 -91 1556 -91 
Q 1019 -91 701 211 
Q 384 513 384 1019 
Q 384 1609 779 1909 
Q 1175 2209 1959 2209 
L 2766 2209 
L 2766 2266 
Q 2766 2663 2505 2880 
Q 2244 3097 1772 3097 
Q 1472 3097 1187 3025 
Q 903 2953 641 2809 
L 641 3341 
Q 956 3463 1253 3523 
Q 1550 3584 1831 3584 
Q 2591 3584 2966 3190 
Q 3341 2797 3341 1997 
z
" transform="scale(0.015625)"/>
       <path id="DejaVuSans-69" d="M 603 3500 
L 1178 3500 
L 1178 0 
L 603 0 
L 603 3500 
z
M 603 4863 
L 1178 4863 
L 1178 4134 
L 603 4134 
L 603 4863 
z
" transform="scale(0.015625)"/>
       <path id="DejaVuSans-6e" d="M 3513 2113 
L 3513 0 
L 2938 0 
L 2938 2094 
Q 2938 2591 2744 2837 
Q 2550 3084 2163 3084 
Q 1697 3084 1428 2787 
Q 1159 2491 1159 1978 
L 1159 0 
L 581 0 
L 581 3500 
L 1159 3500 
L 1159 2956 
Q 1366 3272 1645 3428 
Q 1925 3584 2291 3584 
Q 2894 3584 3203 3211 
Q 3513 2838 3513 2113 
z
" transform="scale(0.015625)"/>
       <path id="DejaVuSans-20" transform="scale(0.015625)"/>
       <path id="DejaVuSans-53" d="M 3425 4513 
L 3425 3897 
Q 3066 4069 2747 4153 
Q 2428 4238 2131 4238 
Q 1616 4238 1336 4038 
Q 1056 3838 1056 3469 
Q 1056 3159 1242 3001 
Q 1428 2844 1947 2747 
L 2328 2669 
Q 3034 2534 3370 2195 
Q 3706 1856 3706 1288 
Q 3706 609 3251 259 
Q 2797 -91 1919 -91 
Q 1588 -91 1214 -16 
Q 841 59 441 206 
L 441 856 
Q 825 641 1194 531 
Q 1563 422 1919 422 
Q 2459 422 2753 634 
Q 3047 847 3047 1241 
Q 3047 1584 2836 1778 
Q 2625 1972 2144 2069 
L 1759 2144 
Q 1053 2284 737 2584 
Q 422 2884 422 3419 
Q 422 4038 858 4394 
Q 1294 4750 2059 4750 
Q 2388 4750 2728 4690 
Q 3069 4631 3425 4513 
z
" transform="scale(0.015625)"/>
       <path id="DejaVuSans-6d" d="M 3328 2828 
Q 3544 3216 3844 3400 
Q 4144 3584 4550 3584 
Q 5097 3584 5394 3201 
Q 5691 2819 5691 2113 
L 5691 0 
L 5113 0 
L 5113 2094 
Q 5113 2597 4934 2840 
Q 4756 3084 4391 3084 
Q 3944 3084 3684 2787 
Q 3425 2491 3425 1978 
L 3425 0 
L 2847 0 
L 2847 2094 
Q 2847 2600 2669 2842 
Q 2491 3084 2119 3084 
Q 1678 3084 1418 2786 
Q 1159 2488 1159 1978 
L 1159 0 
L 581 0 
L 581 3500 
L 1159 3500 
L 1159 2956 
Q 1356 3278 1631 3431 
Q 1906 3584 2284 3584 
Q 2666 3584 2933 3390 
Q 3200 3197 3328 2828 
z
" transform="scale(0.015625)"/>
       <path id="DejaVuSans-70" d="M 1159 525 
L 1159 -1331 
L 581 -1331 
L 581 3500 
L 1159 3500 
L 1159 2969 
Q 1341 3281 1617 3432 
Q 1894 3584 2278 3584 
Q 2916 3584 3314 3078 
Q 3713 2572 3713 1747 
Q 3713 922 3314 415 
Q 2916 -91 2278 -91 
Q 1894 -91 1617 61 
Q 1341 213 1159 525 
z
M 3116 1747 
Q 3116 2381 2855 2742 
Q 2594 3103 2138 3103 
Q 1681 3103 1420 2742 
Q 1159 2381 1159 1747 
Q 1159 1113 1420 752 
Q 1681 391 2138 391 
Q 2594 391 2855 752 
Q 3116 1113 3116 1747 
z
" transform="scale(0.015625)"/>
       <path id="DejaVuSans-6c" d="M 603 4863 
L 1178 4863 
L 1178 0 
L 603 0 
L 603 4863 
z
" transform="scale(0.015625)"/>
       <path id="DejaVuSans-65" d="M 3597 1894 
L 3597 1613 
L 953 1613 
Q 991 1019 1311 708 
Q 1631 397 2203 397 
Q 2534 397 2845 478 
Q 3156 559 3463 722 
L 3463 178 
Q 3153 47 2828 -22 
Q 2503 -91 2169 -91 
Q 1331 -91 842 396 
Q 353 884 353 1716 
Q 353 2575 817 3079 
Q 1281 3584 2069 3584 
Q 2775 3584 3186 3129 
Q 3597 2675 3597 1894 
z
M 3022 2063 
Q 3016 2534 2758 2815 
Q 2500 3097 2075 3097 
Q 1594 3097 1305 2825 
Q 1016 2553 972 2059 
L 3022 2063 
z
" transform="scale(0.015625)"/>
       <path id="DejaVuSans-43" d="M 4122 4306 
L 4122 3641 
Q 3803 3938 3442 4084 
Q 3081 4231 2675 4231 
Q 1875 4231 1450 3742 
Q 1025 3253 1025 2328 
Q 1025 1406 1450 917 
Q 1875 428 2675 428 
Q 3081 428 3442 575 
Q 3803 722 4122 1019 
L 4122 359 
Q 3791 134 3420 21 
Q 3050 -91 2638 -91 
Q 1578 -91 968 557 
Q 359 1206 359 2328 
Q 359 3453 968 4101 
Q 1578 4750 2638 4750 
Q 3056 4750 3426 4639 
Q 3797 4528 4122 4306 
z
" transform="scale(0.015625)"/>
       <path id="DejaVuSans-6f" d="M 1959 3097 
Q 1497 3097 1228 2736 
Q 959 2375 959 1747 
Q 959 1119 1226 758 
Q 1494 397 1959 397 
Q 2419 397 2687 759 
Q 2956 1122 2956 1747 
Q 2956 2369 2687 2733 
Q 2419 3097 1959 3097 
z
M 1959 3584 
Q 2709 3584 3137 3096 
Q 3566 2609 3566 1747 
Q 3566 888 3137 398 
Q 2709 -91 1959 -91 
Q 1206 -91 779 398 
Q 353 888 353 1747 
Q 353 2609 779 3096 
Q 1206 3584 1959 3584 
z
" transform="scale(0.015625)"/>
       <path id="DejaVuSans-75" d="M 544 1381 
L 544 3500 
L 1119 3500 
L 1119 1403 
Q 1119 906 1312 657 
Q 1506 409 1894 409 
Q 2359 409 2629 706 
Q 2900 1003 2900 1516 
L 2900 3500 
L 3475 3500 
L 3475 0 
L 2900 0 
L 2900 538 
Q 2691 219 2414 64 
Q 2138 -91 1772 -91 
Q 1169 -91 856 284 
Q 544 659 544 1381 
z
M 1991 3584 
L 1991 3584 
z
" transform="scale(0.015625)"/>
       <path id="DejaVuSans-74" d="M 1172 4494 
L 1172 3500 
L 2356 3500 
L 2356 3053 
L 1172 3053 
L 1172 1153 
Q 1172 725 1289 603 
Q 1406 481 1766 481 
L 2356 481 
L 2356 0 
L 1766 0 
Q 1100 0 847 248 
Q 594 497 594 1153 
L 594 3053 
L 172 3053 
L 172 3500 
L 594 3500 
L 594 4494 
L 1172 4494 
z
" transform="scale(0.015625)"/>
      </defs>
      <use xlink:href="#DejaVuSans-54"/>
      <use xlink:href="#DejaVuSans-72" x="46.333984"/>
      <use xlink:href="#DejaVuSans-61" x="87.447266"/>
      <use xlink:href="#DejaVuSans-69" x="148.726562"/>
      <use xlink:href="#DejaVuSans-6e" x="176.509766"/>
      <use xlink:href="#DejaVuSans-20" x="239.888672"/>
      <use xlink:href="#DejaVuSans-53" x="271.675781"/>
      <use xlink:href="#DejaVuSans-61" x="335.152344"/>
      <use xlink:href="#DejaVuSans-6d" x="396.431641"/>
      <use xlink:href="#DejaVuSans-70" x="493.84375"/>
      <use xlink:href="#DejaVuSans-6c" x="557.320312"/>
      <use xlink:href="#DejaVuSans-65" x="585.103516"/>
      <use xlink:href="#DejaVuSans-20" x="646.626953"/>
      <use xlink:href="#DejaVuSans-43" x="678.414062"/>
      <use xlink:href="#DejaVuSans-6f" x="748.238281"/>
      <use xlink:href="#DejaVuSans-75" x="809.419922"/>
      <use xlink:href="#DejaVuSans-6e" x="872.798828"/>
      <use xlink:href="#DejaVuSans-74" x="936.177734"/>
     </g>
    </g>
   </g>
   <g id="matplotlib.axis_2">
    <g id="ytick_1">
     <g id="line2d_13">
      <path d="M 41.190688 279.318842 
L 398.310688 279.318842 
" clip-path="url(#pc86cd3be7b)" style="fill: none; stroke: #ffffff"/>
     </g>
     <g id="line2d_14">
      <path d="M 41.190688 279.318842 
" style="fill: none; stroke: #333333; stroke-width: 1.5"/>
      <defs>
       <path id="mb44a0c06ba" d="M 0 0 
L -2.75 0 
" style="stroke: #000000"/>
      </defs>
      <g>
       <use xlink:href="#mb44a0c06ba" x="41.190688" y="279.318842" style="fill: #333333; stroke: #000000"/>
      </g>
     </g>
     <g id="text_6">
      <!-- 0 -->
      <g style="fill: #4d4d4d" transform="translate(30.641688 281.747092)scale(0.088 -0.088)">
       <use xlink:href="#DejaVuSans-30"/>
      </g>
     </g>
    </g>
    <g id="ytick_2">
     <g id="line2d_15">
      <path d="M 41.190688 208.088131 
L 398.310688 208.088131 
" clip-path="url(#pc86cd3be7b)" style="fill: none; stroke: #ffffff"/>
     </g>
     <g id="line2d_16">
      <path d="M 41.190688 208.088131 
" style="fill: none; stroke: #333333; stroke-width: 1.5"/>
      <g>
       <use xlink:href="#mb44a0c06ba" x="41.190688" y="208.088131" style="fill: #333333; stroke: #000000"/>
      </g>
     </g>
     <g id="text_7">
      <!-- 0.1 -->
      <g style="fill: #4d4d4d" transform="translate(22.245938 210.516381)scale(0.088 -0.088)">
       <defs>
        <path id="DejaVuSans-2e" d="M 684 794 
L 1344 794 
L 1344 0 
L 684 0 
L 684 794 
z
" transform="scale(0.015625)"/>
       </defs>
       <use xlink:href="#DejaVuSans-30"/>
       <use xlink:href="#DejaVuSans-2e" x="63.623047"/>
       <use xlink:href="#DejaVuSans-31" x="95.410156"/>
      </g>
     </g>
    </g>
    <g id="ytick_3">
     <g id="line2d_17">
      <path d="M 41.190688 136.857421 
L 398.310688 136.857421 
" clip-path="url(#pc86cd3be7b)" style="fill: none; stroke: #ffffff"/>
     </g>
     <g id="line2d_18">
      <path d="M 41.190688 136.857421 
" style="fill: none; stroke: #333333; stroke-width: 1.5"/>
      <g>
       <use xlink:href="#mb44a0c06ba" x="41.190688" y="136.857421" style="fill: #333333; stroke: #000000"/>
      </g>
     </g>
     <g id="text_8">
      <!-- 0.2 -->
      <g style="fill: #4d4d4d" transform="translate(22.245938 139.285671)scale(0.088 -0.088)">
       <use xlink:href="#DejaVuSans-30"/>
       <use xlink:href="#DejaVuSans-2e" x="63.623047"/>
       <use xlink:href="#DejaVuSans-32" x="95.410156"/>
      </g>
     </g>
    </g>
    <g id="ytick_4">
     <g id="line2d_19">
      <path d="M 41.190688 65.62671 
L 398.310688 65.62671 
" clip-path="url(#pc86cd3be7b)" style="fill: none; stroke: #ffffff"/>
     </g>
     <g id="line2d_20">
      <path d="M 41.190688 65.62671 
" style="fill: none; stroke: #333333; stroke-width: 1.5"/>
      <g>
       <use xlink:href="#mb44a0c06ba" x="41.190688" y="65.62671" style="fill: #333333; stroke: #000000"/>
      </g>
     </g>
     <g id="text_9">
      <!-- 0.3 -->
      <g style="fill: #4d4d4d" transform="translate(22.245938 68.05496)scale(0.088 -0.088)">
       <defs>
        <path id="DejaVuSans-33" d="M 2597 2516 
Q 3050 2419 3304 2112 
Q 3559 1806 3559 1356 
Q 3559 666 3084 287 
Q 2609 -91 1734 -91 
Q 1441 -91 1130 -33 
Q 819 25 488 141 
L 488 750 
Q 750 597 1062 519 
Q 1375 441 1716 441 
Q 2309 441 2620 675 
Q 2931 909 2931 1356 
Q 2931 1769 2642 2001 
Q 2353 2234 1838 2234 
L 1294 2234 
L 1294 2753 
L 1863 2753 
Q 2328 2753 2575 2939 
Q 2822 3125 2822 3475 
Q 2822 3834 2567 4026 
Q 2313 4219 1838 4219 
Q 1578 4219 1281 4162 
Q 984 4106 628 3988 
L 628 4550 
Q 988 4650 1302 4700 
Q 1616 4750 1894 4750 
Q 2613 4750 3031 4423 
Q 3450 4097 3450 3541 
Q 3450 3153 3228 2886 
Q 3006 2619 2597 2516 
z
" transform="scale(0.015625)"/>
       </defs>
       <use xlink:href="#DejaVuSans-30"/>
       <use xlink:href="#DejaVuSans-2e" x="63.623047"/>
       <use xlink:href="#DejaVuSans-33" x="95.410156"/>
      </g>
     </g>
    </g>
    <g id="ytick_5">
     <g id="line2d_21">
      <path d="M 41.190688 243.703487 
L 398.310688 243.703487 
" clip-path="url(#pc86cd3be7b)" style="fill: none; stroke: #ffffff; stroke-width: 0.5"/>
     </g>
    </g>
    <g id="ytick_6">
     <g id="line2d_22">
      <path d="M 41.190688 172.472776 
L 398.310688 172.472776 
" clip-path="url(#pc86cd3be7b)" style="fill: none; stroke: #ffffff; stroke-width: 0.5"/>
     </g>
    </g>
    <g id="ytick_7">
     <g id="line2d_23">
      <path d="M 41.190688 101.242066 
L 398.310688 101.242066 
" clip-path="url(#pc86cd3be7b)" style="fill: none; stroke: #ffffff; stroke-width: 0.5"/>
     </g>
    </g>
    <g id="ytick_8">
     <g id="line2d_24">
      <path d="M 41.190688 30.011355 
L 398.310688 30.011355 
" clip-path="url(#pc86cd3be7b)" style="fill: none; stroke: #ffffff; stroke-width: 0.5"/>
     </g>
    </g>
    <g id="text_10">
     <!-- Balanced Accuracy (Val Set) -->
     <g transform="translate(15.558281 234.774543)rotate(-90)scale(0.11 -0.11)">
      <defs>
       <path id="DejaVuSans-42" d="M 1259 2228 
L 1259 519 
L 2272 519 
Q 2781 519 3026 730 
Q 3272 941 3272 1375 
Q 3272 1813 3026 2020 
Q 2781 2228 2272 2228 
L 1259 2228 
z
M 1259 4147 
L 1259 2741 
L 2194 2741 
Q 2656 2741 2882 2914 
Q 3109 3088 3109 3444 
Q 3109 3797 2882 3972 
Q 2656 4147 2194 4147 
L 1259 4147 
z
M 628 4666 
L 2241 4666 
Q 2963 4666 3353 4366 
Q 3744 4066 3744 3513 
Q 3744 3084 3544 2831 
Q 3344 2578 2956 2516 
Q 3422 2416 3680 2098 
Q 3938 1781 3938 1306 
Q 3938 681 3513 340 
Q 3088 0 2303 0 
L 628 0 
L 628 4666 
z
" transform="scale(0.015625)"/>
       <path id="DejaVuSans-63" d="M 3122 3366 
L 3122 2828 
Q 2878 2963 2633 3030 
Q 2388 3097 2138 3097 
Q 1578 3097 1268 2742 
Q 959 2388 959 1747 
Q 959 1106 1268 751 
Q 1578 397 2138 397 
Q 2388 397 2633 464 
Q 2878 531 3122 666 
L 3122 134 
Q 2881 22 2623 -34 
Q 2366 -91 2075 -91 
Q 1284 -91 818 406 
Q 353 903 353 1747 
Q 353 2603 823 3093 
Q 1294 3584 2113 3584 
Q 2378 3584 2631 3529 
Q 2884 3475 3122 3366 
z
" transform="scale(0.015625)"/>
       <path id="DejaVuSans-64" d="M 2906 2969 
L 2906 4863 
L 3481 4863 
L 3481 0 
L 2906 0 
L 2906 525 
Q 2725 213 2448 61 
Q 2172 -91 1784 -91 
Q 1150 -91 751 415 
Q 353 922 353 1747 
Q 353 2572 751 3078 
Q 1150 3584 1784 3584 
Q 2172 3584 2448 3432 
Q 2725 3281 2906 2969 
z
M 947 1747 
Q 947 1113 1208 752 
Q 1469 391 1925 391 
Q 2381 391 2643 752 
Q 2906 1113 2906 1747 
Q 2906 2381 2643 2742 
Q 2381 3103 1925 3103 
Q 1469 3103 1208 2742 
Q 947 2381 947 1747 
z
" transform="scale(0.015625)"/>
       <path id="DejaVuSans-41" d="M 2188 4044 
L 1331 1722 
L 3047 1722 
L 2188 4044 
z
M 1831 4666 
L 2547 4666 
L 4325 0 
L 3669 0 
L 3244 1197 
L 1141 1197 
L 716 0 
L 50 0 
L 1831 4666 
z
" transform="scale(0.015625)"/>
       <path id="DejaVuSans-79" d="M 2059 -325 
Q 1816 -950 1584 -1140 
Q 1353 -1331 966 -1331 
L 506 -1331 
L 506 -850 
L 844 -850 
Q 1081 -850 1212 -737 
Q 1344 -625 1503 -206 
L 1606 56 
L 191 3500 
L 800 3500 
L 1894 763 
L 2988 3500 
L 3597 3500 
L 2059 -325 
z
" transform="scale(0.015625)"/>
       <path id="DejaVuSans-28" d="M 1984 4856 
Q 1566 4138 1362 3434 
Q 1159 2731 1159 2009 
Q 1159 1288 1364 580 
Q 1569 -128 1984 -844 
L 1484 -844 
Q 1016 -109 783 600 
Q 550 1309 550 2009 
Q 550 2706 781 3412 
Q 1013 4119 1484 4856 
L 1984 4856 
z
" transform="scale(0.015625)"/>
       <path id="DejaVuSans-56" d="M 1831 0 
L 50 4666 
L 709 4666 
L 2188 738 
L 3669 4666 
L 4325 4666 
L 2547 0 
L 1831 0 
z
" transform="scale(0.015625)"/>
       <path id="DejaVuSans-29" d="M 513 4856 
L 1013 4856 
Q 1481 4119 1714 3412 
Q 1947 2706 1947 2009 
Q 1947 1309 1714 600 
Q 1481 -109 1013 -844 
L 513 -844 
Q 928 -128 1133 580 
Q 1338 1288 1338 2009 
Q 1338 2731 1133 3434 
Q 928 4138 513 4856 
z
" transform="scale(0.015625)"/>
      </defs>
      <use xlink:href="#DejaVuSans-42"/>
      <use xlink:href="#DejaVuSans-61" x="68.603516"/>
      <use xlink:href="#DejaVuSans-6c" x="129.882812"/>
      <use xlink:href="#DejaVuSans-61" x="157.666016"/>
      <use xlink:href="#DejaVuSans-6e" x="218.945312"/>
      <use xlink:href="#DejaVuSans-63" x="282.324219"/>
      <use xlink:href="#DejaVuSans-65" x="337.304688"/>
      <use xlink:href="#DejaVuSans-64" x="398.828125"/>
      <use xlink:href="#DejaVuSans-20" x="462.304688"/>
      <use xlink:href="#DejaVuSans-41" x="494.091797"/>
      <use xlink:href="#DejaVuSans-63" x="560.75"/>
      <use xlink:href="#DejaVuSans-63" x="615.730469"/>
      <use xlink:href="#DejaVuSans-75" x="670.710938"/>
      <use xlink:href="#DejaVuSans-72" x="734.089844"/>
      <use xlink:href="#DejaVuSans-61" x="775.203125"/>
      <use xlink:href="#DejaVuSans-63" x="836.482422"/>
      <use xlink:href="#DejaVuSans-79" x="891.462891"/>
      <use xlink:href="#DejaVuSans-20" x="950.642578"/>
      <use xlink:href="#DejaVuSans-28" x="982.429688"/>
      <use xlink:href="#DejaVuSans-56" x="1021.443359"/>
      <use xlink:href="#DejaVuSans-61" x="1082.101562"/>
      <use xlink:href="#DejaVuSans-6c" x="1143.380859"/>
      <use xlink:href="#DejaVuSans-20" x="1171.164062"/>
      <use xlink:href="#DejaVuSans-53" x="1202.951172"/>
      <use xlink:href="#DejaVuSans-65" x="1266.427734"/>
      <use xlink:href="#DejaVuSans-74" x="1327.951172"/>
      <use xlink:href="#DejaVuSans-29" x="1367.160156"/>
     </g>
    </g>
   </g>
   <g id="PolyCollection_1">
    <path d="M 57.423415 185.151869 
L 57.423415 280.121371 
L 59.752205 275.071297 
L 59.893344 274.770299 
L 59.963913 274.620018 
L 59.999198 274.544933 
L 60.281476 273.945566 
L 60.352045 273.79609 
L 60.457899 273.572152 
L 60.563753 273.348544 
L 60.634323 273.199655 
L 60.881316 272.679705 
L 60.9166 272.605574 
L 61.939857 270.471856 
L 62.292704 269.743337 
L 62.398558 269.52551 
L 87.979967 227.39654 
L 92.602263 222.039334 
L 92.919825 221.694321 
L 93.060964 221.541896 
L 93.131533 221.465894 
L 93.696089 220.86286 
L 93.801943 220.75077 
L 94.013651 220.527508 
L 94.260644 220.268573 
L 94.366498 220.158105 
L 94.895769 219.610255 
L 94.966338 219.537769 
L 96.977566 217.525785 
L 97.68326 216.843704 
L 97.930253 216.607805 
L 118.536519 200.913406 
L 125.487605 196.84433 
L 125.946307 196.589804 
L 126.158015 196.472849 
L 126.263869 196.414492 
L 127.110702 195.950495 
L 127.251841 195.873647 
L 127.569403 195.701237 
L 127.92225 195.510207 
L 128.133958 195.395742 
L 128.874937 194.996022 
L 128.980791 194.939038 
L 132.05056 193.300956 
L 133.073816 192.762241 
L 133.426663 192.577487 
L 149.093071 185.220447 
L 158.337663 181.717704 
L 158.937503 181.500464 
L 159.219781 181.398271 
L 159.396204 181.334398 
L 160.49003 180.937983 
L 160.701738 180.861108 
L 161.125155 180.707134 
L 161.619141 180.527033 
L 161.866133 180.43676 
L 162.88939 180.060805 
L 163.030529 180.008663 
L 167.088269 178.492421 
L 168.464373 177.98314 
L 168.958359 177.802723 
L 179.649623 174.704699 
L 191.223006 174.056821 
L 191.963984 174.091418 
L 192.316831 174.1093 
L 192.52854 174.120389 
L 193.904643 174.196905 
L 194.151636 174.211073 
L 194.716191 174.243423 
L 195.316031 174.277215 
L 195.633594 174.294627 
L 196.903843 174.358543 
L 197.080266 174.366444 
L 202.161263 174.394692 
L 203.890214 174.271624 
L 204.490054 174.207802 
L 210.206176 173.436764 
L 224.073064 171.72101 
L 224.990466 171.672661 
L 225.413882 171.654583 
L 225.660875 171.645304 
L 227.319256 171.607878 
L 227.601534 171.605916 
L 228.271943 171.606501 
L 228.977637 171.615151 
L 229.365769 171.623439 
L 230.883011 171.679878 
L 231.094719 171.69078 
L 237.198973 172.297842 
L 239.28077 172.610867 
L 239.986464 172.725195 
L 240.762728 172.854565 
L 256.923121 174.659804 
L 257.981662 174.593599 
L 258.475648 174.549987 
L 258.793211 174.518653 
L 260.698584 174.306037 
L 261.051431 174.262343 
L 261.827695 174.161884 
L 262.674528 174.045932 
L 263.097944 173.985647 
L 264.897464 173.714233 
L 265.144457 173.675258 
L 271.31928 172.612429 
L 272.236682 172.445588 
L 274.671327 171.997711 
L 275.518159 171.840537 
L 289.808464 168.832799 
L 291.008144 168.505725 
L 291.572699 168.344823 
L 291.925546 168.24186 
L 294.113198 167.559282 
L 294.501329 167.429759 
L 295.383447 167.125411 
L 296.336134 166.787822 
L 296.865404 166.599191 
L 298.876632 165.875829 
L 299.15891 165.773526 
L 301.875832 164.780328 
L 307.309676 162.761298 
L 310.061883 161.732498 
L 311.01457 161.376985 
L 322.658522 157.19586 
L 324.034625 156.739953 
L 324.66975 156.533698 
L 325.057881 156.409036 
L 327.527811 155.64262 
L 327.951227 155.516289 
L 328.939199 155.227804 
L 330.033024 154.919252 
L 330.59758 154.764709 
L 332.432384 154.286183 
L 332.891085 154.172538 
L 333.208648 154.095409 
L 342.347385 152.540243 
L 345.452439 152.338974 
L 346.546265 152.310486 
L 355.543864 152.924043 
L 357.061106 153.174191 
L 357.7668 153.304519 
L 358.190217 153.386934 
L 360.942424 153.998494 
L 361.436409 154.121955 
L 362.530235 154.409867 
L 363.729915 154.748354 
L 364.36504 154.937032 
L 366.905538 155.755896 
L 367.258385 155.877596 
L 377.42038 160.160231 
L 380.87828 161.935456 
L 382.07796 162.586198 
L 382.07796 38.201371 
L 382.07796 38.201371 
L 380.87828 40.394024 
L 377.42038 46.54073 
L 367.258385 63.041277 
L 366.905538 63.57028 
L 364.36504 67.28806 
L 363.729915 68.192217 
L 362.530235 69.872058 
L 361.436409 71.371441 
L 360.942424 72.038411 
L 358.190217 75.63694 
L 357.7668 76.172689 
L 357.061106 77.054897 
L 355.543864 78.906005 
L 346.546265 88.575133 
L 345.452439 89.596181 
L 342.347385 92.31337 
L 333.208648 98.823295 
L 332.891085 99.012293 
L 332.432384 99.281209 
L 330.59758 100.310028 
L 330.033024 100.612009 
L 328.939199 101.178387 
L 327.951227 101.669431 
L 327.527811 101.874103 
L 325.057881 103.002392 
L 324.66975 103.169949 
L 324.034625 103.438694 
L 322.658522 103.998587 
L 311.01457 107.732218 
L 310.061883 107.974596 
L 307.309676 108.634727 
L 301.875832 109.793287 
L 299.15891 110.316764 
L 298.876632 110.369457 
L 296.865404 110.736977 
L 296.336134 110.831586 
L 295.383447 110.999929 
L 294.501329 111.154021 
L 294.113198 111.22138 
L 291.925546 111.595175 
L 291.572699 111.654368 
L 291.008144 111.748321 
L 289.808464 111.944471 
L 275.518159 113.598154 
L 274.671327 113.646696 
L 272.236682 113.760022 
L 271.31928 113.794274 
L 265.144457 113.977989 
L 264.897464 113.986139 
L 263.097944 114.05467 
L 262.674528 114.073731 
L 261.827695 114.116063 
L 261.051431 114.160468 
L 260.698584 114.182628 
L 258.793211 114.326947 
L 258.475648 114.355499 
L 257.981662 114.401742 
L 256.923121 114.505507 
L 240.762728 115.972363 
L 239.986464 115.989596 
L 239.28077 115.997685 
L 237.198973 115.977198 
L 231.094719 115.513391 
L 230.883011 115.486693 
L 229.365769 115.276472 
L 228.977637 115.217619 
L 228.271943 115.105678 
L 227.601534 114.993769 
L 227.319256 114.945125 
L 225.660875 114.643136 
L 225.413882 114.596057 
L 224.990466 114.514267 
L 224.073064 114.332935 
L 210.206176 112.013375 
L 204.490054 112.175516 
L 203.890214 112.256159 
L 202.161263 112.531128 
L 197.080266 113.616646 
L 196.903843 113.659389 
L 195.633594 113.972584 
L 195.316031 114.052039 
L 194.716191 114.202934 
L 194.151636 114.345565 
L 193.904643 114.40805 
L 192.52854 114.75541 
L 192.316831 114.808524 
L 191.963984 114.896727 
L 191.223006 115.080324 
L 179.649623 117.311915 
L 168.958359 118.764586 
L 168.464373 118.860555 
L 167.088269 119.157719 
L 163.030529 120.355413 
L 162.88939 120.407042 
L 161.866133 120.789291 
L 161.619141 120.883601 
L 161.125155 121.074536 
L 160.701738 121.2406 
L 160.49003 121.324448 
L 159.396204 121.766045 
L 159.219781 121.838548 
L 158.937503 121.95527 
L 158.337663 122.206167 
L 149.093071 126.47675 
L 133.426663 135.252516 
L 133.073816 135.482079 
L 132.05056 136.158941 
L 128.980791 138.296195 
L 128.874937 138.372915 
L 128.133958 138.91584 
L 127.92225 139.072871 
L 127.569403 139.336493 
L 127.251841 139.575144 
L 127.110702 139.681415 
L 126.263869 140.321635 
L 126.158015 140.401973 
L 125.946307 140.562853 
L 125.487605 140.912357 
L 118.536519 146.351883 
L 97.930253 163.228175 
L 97.68326 163.42663 
L 96.977566 163.991721 
L 94.966338 165.584732 
L 94.895769 165.640109 
L 94.366498 166.054213 
L 94.260644 166.13677 
L 94.013651 166.329052 
L 93.801943 166.493467 
L 93.696089 166.575534 
L 93.131533 167.011607 
L 93.060964 167.06592 
L 92.919825 167.174394 
L 92.602263 167.417657 
L 87.979967 170.819477 
L 62.398558 183.754819 
L 62.292704 183.787838 
L 61.939857 183.896833 
L 60.9166 184.203722 
L 60.881316 184.214063 
L 60.634323 184.286002 
L 60.563753 184.306413 
L 60.457899 184.33691 
L 60.352045 184.367265 
L 60.281476 184.387423 
L 59.999198 184.467424 
L 59.963913 184.477353 
L 59.893344 184.497165 
L 59.752205 184.536601 
L 57.423415 185.151869 
z
" clip-path="url(#pc86cd3be7b)" style="fill: #999999; fill-opacity: 0.4"/>
   </g>
   <g id="line2d_25">
    <path d="M 57.423415 232.63662 
L 62.398558 226.640164 
L 87.979967 199.108008 
L 94.966338 192.561251 
L 97.930253 189.91799 
L 118.536519 173.632644 
L 128.980791 166.617616 
L 133.426663 163.915001 
L 149.093071 155.848598 
L 161.125155 150.890835 
L 163.030529 150.182038 
L 168.958359 148.283654 
L 179.649623 146.008307 
L 195.316031 144.164627 
L 210.206176 142.725069 
L 225.660875 143.14422 
L 240.762728 144.413464 
L 257.981662 144.49767 
L 272.236682 143.102805 
L 275.518159 142.719346 
L 291.572699 139.999596 
L 296.336134 138.809704 
L 301.875832 137.286808 
L 311.01457 134.554602 
L 325.057881 129.705714 
L 332.891085 126.592415 
L 333.208648 126.459352 
L 345.452439 120.967578 
L 346.546265 120.442809 
L 358.190217 114.511937 
L 366.905538 109.663088 
L 367.258385 109.459436 
L 380.87828 101.16474 
L 382.07796 100.393784 
L 382.07796 100.393784 
" clip-path="url(#pc86cd3be7b)" style="fill: none; stroke: #db5f57; stroke-width: 1.772454; stroke-linejoin: miter"/>
   </g>
   <g id="PolyCollection_2">
    <path d="M 57.423415 241.818577 
L 57.423415 253.840613 
L 59.752205 253.510645 
L 59.893344 253.491188 
L 59.963913 253.481484 
L 59.999198 253.476637 
L 60.281476 253.438006 
L 60.352045 253.428387 
L 60.457899 253.413989 
L 60.563753 253.399626 
L 60.634323 253.39007 
L 60.881316 253.35675 
L 60.9166 253.352005 
L 61.939857 253.216152 
L 62.292704 253.170086 
L 62.398558 253.156345 
L 87.979967 250.987329 
L 92.602263 250.844543 
L 92.919825 250.83726 
L 93.060964 250.834124 
L 93.131533 250.832579 
L 93.696089 250.820789 
L 93.801943 250.81869 
L 94.013651 250.814598 
L 94.260644 250.809998 
L 94.366498 250.808085 
L 94.895769 250.799026 
L 94.966338 250.797881 
L 96.977566 250.771337 
L 97.68326 250.764692 
L 97.930253 250.76268 
L 118.536519 251.00178 
L 125.487605 251.18468 
L 125.946307 251.197417 
L 126.158015 251.203313 
L 126.263869 251.206265 
L 127.110702 251.229967 
L 127.251841 251.233931 
L 127.569403 251.242862 
L 127.92225 251.252808 
L 128.133958 251.258788 
L 128.874937 251.279792 
L 128.980791 251.282801 
L 132.05056 251.371092 
L 133.073816 251.401016 
L 133.426663 251.411403 
L 149.093071 251.928982 
L 158.337663 252.267324 
L 158.937503 252.287978 
L 159.219781 252.297583 
L 159.396204 252.303546 
L 160.49003 252.33978 
L 160.701738 252.346636 
L 161.125155 252.360182 
L 161.619141 252.375695 
L 161.866133 252.383328 
L 162.88939 252.414017 
L 163.030529 252.418126 
L 167.088269 252.5483 
L 168.464373 252.598696 
L 168.958359 252.617657 
L 179.649623 253.167577 
L 191.223006 254.04667 
L 191.963984 254.105515 
L 192.316831 254.133299 
L 192.52854 254.149883 
L 193.904643 254.25572 
L 194.151636 254.274292 
L 194.716191 254.316165 
L 195.316031 254.359686 
L 195.633594 254.382283 
L 196.903843 254.469181 
L 197.080266 254.480766 
L 202.161263 254.747349 
L 203.890214 254.800867 
L 204.490054 254.814093 
L 210.206176 254.864504 
L 224.073064 254.656897 
L 224.990466 254.636663 
L 225.413882 254.627328 
L 225.660875 254.621889 
L 227.319256 254.585676 
L 227.601534 254.579589 
L 228.271943 254.565248 
L 228.977637 254.550356 
L 229.365769 254.542264 
L 230.883011 254.511374 
L 231.094719 254.507164 
L 237.198973 254.395873 
L 239.28077 254.360823 
L 239.986464 254.348939 
L 240.762728 254.335754 
L 256.923121 253.860225 
L 257.981662 253.803021 
L 258.475648 253.774734 
L 258.793211 253.755953 
L 260.698584 253.632665 
L 261.051431 253.60795 
L 261.827695 253.551649 
L 262.674528 253.487354 
L 263.097944 253.454142 
L 264.897464 253.305748 
L 265.144457 253.284533 
L 271.31928 252.704798 
L 272.236682 252.612916 
L 274.671327 252.365308 
L 275.518159 252.278346 
L 289.808464 250.845111 
L 291.008144 250.732596 
L 291.572699 250.680238 
L 291.925546 250.647714 
L 294.113198 250.449689 
L 294.501329 250.415249 
L 295.383447 250.337821 
L 296.336134 250.254372 
L 296.865404 250.20761 
L 298.876632 250.027496 
L 299.15891 250.00193 
L 301.875832 249.752723 
L 307.309676 249.241781 
L 310.061883 248.979772 
L 311.01457 248.889012 
L 322.658522 247.811435 
L 324.034625 247.69213 
L 324.66975 247.637951 
L 325.057881 247.605136 
L 327.527811 247.402008 
L 327.951227 247.368254 
L 328.939199 247.290818 
L 330.033024 247.207361 
L 330.59758 247.165273 
L 332.432384 247.033442 
L 332.891085 247.001731 
L 333.208648 246.980071 
L 342.347385 246.464219 
L 345.452439 246.340152 
L 346.546265 246.302938 
L 355.543864 246.125101 
L 357.061106 246.117176 
L 357.7668 246.115585 
L 358.190217 246.115262 
L 360.942424 246.124526 
L 361.436409 246.128239 
L 362.530235 246.138635 
L 363.729915 246.153436 
L 364.36504 246.162689 
L 366.905538 246.209298 
L 367.258385 246.216963 
L 377.42038 246.553898 
L 380.87828 246.715946 
L 382.07796 246.777343 
L 382.07796 231.031668 
L 382.07796 231.031668 
L 380.87828 231.330212 
L 377.42038 232.170988 
L 367.258385 234.464963 
L 366.905538 234.53967 
L 364.36504 235.067347 
L 363.729915 235.196434 
L 362.530235 235.43713 
L 361.436409 235.652985 
L 360.942424 235.749332 
L 358.190217 236.273016 
L 357.7668 236.351591 
L 357.061106 236.481357 
L 355.543864 236.755277 
L 346.546265 238.234782 
L 345.452439 238.397643 
L 342.347385 238.840196 
L 333.208648 239.983263 
L 332.891085 240.019084 
L 332.432384 240.070451 
L 330.59758 240.271943 
L 330.033024 240.332695 
L 328.939199 240.448789 
L 327.951227 240.551867 
L 327.527811 240.595538 
L 325.057881 240.844475 
L 324.66975 240.88272 
L 324.034625 240.944809 
L 322.658522 241.077278 
L 311.01457 242.098208 
L 310.061883 242.174645 
L 307.309676 242.389985 
L 301.875832 242.792002 
L 299.15891 242.981748 
L 298.876632 243.001033 
L 296.865404 243.136102 
L 296.336134 243.170962 
L 295.383447 243.232986 
L 294.501329 243.291394 
L 294.113198 243.317964 
L 291.925546 243.476901 
L 291.572699 243.503885 
L 291.008144 243.547768 
L 289.808464 243.643709 
L 275.518159 244.905537 
L 274.671327 244.978747 
L 272.236682 245.184005 
L 271.31928 245.259103 
L 265.144457 245.727552 
L 264.897464 245.744865 
L 263.097944 245.867577 
L 262.674528 245.89557 
L 261.827695 245.950545 
L 261.051431 245.99975 
L 260.698584 246.021739 
L 258.793211 246.136381 
L 258.475648 246.154811 
L 257.981662 246.183431 
L 256.923121 246.24539 
L 240.762728 247.135127 
L 239.986464 247.166871 
L 239.28077 247.194252 
L 237.198973 247.266334 
L 231.094719 247.395758 
L 230.883011 247.39797 
L 229.365769 247.409392 
L 228.977637 247.411084 
L 228.271943 247.4129 
L 227.601534 247.413148 
L 227.319256 247.41283 
L 225.660875 247.406077 
L 225.413882 247.404381 
L 224.990466 247.401074 
L 224.073064 247.392233 
L 210.206176 247.089016 
L 204.490054 246.961526 
L 203.890214 246.950429 
L 202.161263 246.91614 
L 197.080266 246.790547 
L 196.903843 246.785372 
L 195.633594 246.746212 
L 195.316031 246.735878 
L 194.716191 246.715736 
L 194.151636 246.696013 
L 193.904643 246.687145 
L 192.52854 246.634966 
L 192.316831 246.62651 
L 191.963984 246.612154 
L 191.223006 246.58093 
L 179.649623 245.902316 
L 168.958359 245.144114 
L 168.464373 245.114464 
L 167.088269 245.037215 
L 163.030529 244.866718 
L 162.88939 244.862544 
L 161.866133 244.832651 
L 161.619141 244.825529 
L 161.125155 244.811388 
L 160.701738 244.799372 
L 160.49003 244.793399 
L 159.396204 244.762884 
L 159.219781 244.758013 
L 158.937503 244.750248 
L 158.337663 244.733855 
L 149.093071 244.492712 
L 133.426663 244.154727 
L 133.073816 244.150013 
L 132.05056 244.137577 
L 128.980791 244.112475 
L 128.874937 244.111964 
L 128.133958 244.109088 
L 127.92225 244.108496 
L 127.569403 244.107739 
L 127.251841 244.107194 
L 127.110702 244.106954 
L 126.263869 244.10556 
L 126.158015 244.105391 
L 125.946307 244.105055 
L 125.487605 244.104342 
L 118.536519 244.094925 
L 97.930253 244.005438 
L 97.68326 244.002711 
L 96.977566 243.994546 
L 94.966338 243.968053 
L 94.895769 243.967032 
L 94.366498 243.95916 
L 94.260644 243.957541 
L 94.013651 243.953702 
L 93.801943 243.950346 
L 93.696089 243.948644 
L 93.131533 243.939298 
L 93.060964 243.938098 
L 92.919825 243.935671 
L 92.602263 243.930073 
L 87.979967 243.82533 
L 62.398558 242.298771 
L 62.292704 242.289118 
L 61.939857 242.25676 
L 60.9166 242.161357 
L 60.881316 242.158026 
L 60.634323 242.134634 
L 60.563753 242.127926 
L 60.457899 242.117843 
L 60.352045 242.107736 
L 60.281476 242.100984 
L 59.999198 242.07387 
L 59.963913 242.070469 
L 59.893344 242.063658 
L 59.752205 242.050004 
L 57.423415 241.818577 
z
" clip-path="url(#pc86cd3be7b)" style="fill: #999999; fill-opacity: 0.4"/>
   </g>
   <g id="line2d_26">
    <path d="M 57.423415 247.829595 
L 62.398558 247.727558 
L 97.930253 247.384059 
L 132.05056 247.754335 
L 149.093071 248.210847 
L 168.958359 248.880885 
L 202.161263 250.831745 
L 210.206176 250.97676 
L 231.094719 250.951461 
L 240.762728 250.73544 
L 261.827695 249.751097 
L 271.31928 248.981951 
L 307.309676 245.815883 
L 333.208648 243.481667 
L 377.42038 239.362443 
L 382.07796 238.904505 
L 382.07796 238.904505 
" clip-path="url(#pc86cd3be7b)" style="fill: none; stroke: #57db5f; stroke-width: 1.772454; stroke-linejoin: miter"/>
   </g>
   <g id="PolyCollection_3">
    <path d="M 57.423415 208.562973 
L 57.423415 263.278882 
L 59.752205 261.67493 
L 59.893344 261.579956 
L 59.963913 261.532565 
L 59.999198 261.508894 
L 60.281476 261.320108 
L 60.352045 261.273074 
L 60.457899 261.202644 
L 60.563753 261.13236 
L 60.634323 261.085586 
L 60.881316 260.922389 
L 60.9166 260.89914 
L 61.939857 260.232067 
L 62.292704 260.00526 
L 62.398558 259.937542 
L 87.979967 248.315342 
L 92.602263 247.231091 
L 92.919825 247.16664 
L 93.060964 247.138388 
L 93.131533 247.12435 
L 93.696089 247.014062 
L 93.801943 246.993777 
L 94.013651 246.953577 
L 94.260644 246.907293 
L 94.366498 246.887659 
L 94.895769 246.791283 
L 94.966338 246.778656 
L 96.977566 246.440096 
L 97.68326 246.330659 
L 97.930253 246.293454 
L 118.536519 244.609491 
L 125.487605 244.412048 
L 125.946307 244.402125 
L 126.158015 244.397648 
L 126.263869 244.395434 
L 127.110702 244.378265 
L 127.251841 244.375496 
L 127.569403 244.369356 
L 127.92225 244.362393 
L 128.133958 244.358015 
L 128.874937 244.341518 
L 128.980791 244.339015 
L 132.05056 244.251926 
L 133.073816 244.217498 
L 133.426663 244.205119 
L 149.093071 243.629847 
L 158.337663 243.370458 
L 158.937503 243.350829 
L 159.219781 243.341282 
L 159.396204 243.335206 
L 160.49003 243.295492 
L 160.701738 243.287363 
L 161.125155 243.270636 
L 161.619141 243.250285 
L 161.866133 243.239754 
L 162.88939 243.193408 
L 163.030529 243.186652 
L 167.088269 242.910563 
L 168.464373 242.789464 
L 168.958359 242.743913 
L 179.649623 241.851344 
L 191.223006 241.943622 
L 191.963984 241.986382 
L 192.316831 242.007511 
L 192.52854 242.020389 
L 193.904643 242.106761 
L 194.151636 242.122572 
L 194.716191 242.158808 
L 195.316031 242.197203 
L 195.633594 242.217372 
L 196.903843 242.295785 
L 197.080266 242.306268 
L 202.161263 242.518449 
L 203.890214 242.529479 
L 204.490054 242.523477 
L 210.206176 242.324123 
L 224.073064 241.575614 
L 224.990466 241.551118 
L 225.413882 241.54189 
L 225.660875 241.537135 
L 227.319256 241.517749 
L 227.601534 241.516701 
L 228.271943 241.516926 
L 228.977637 241.521358 
L 229.365769 241.525653 
L 230.883011 241.555234 
L 231.094719 241.560986 
L 237.198973 241.88847 
L 239.28077 242.060783 
L 239.986464 242.124203 
L 240.762728 242.196281 
L 256.923121 243.33117 
L 257.981662 243.31505 
L 258.475648 243.301119 
L 258.793211 243.290336 
L 260.698584 243.206751 
L 261.051431 243.18796 
L 261.827695 243.143296 
L 262.674528 243.089696 
L 263.097944 243.061124 
L 264.897464 242.92803 
L 265.144457 242.908441 
L 271.31928 242.351785 
L 272.236682 242.262765 
L 274.671327 242.024466 
L 275.518159 241.941436 
L 289.808464 240.501992 
L 291.008144 240.361695 
L 291.572699 240.293394 
L 291.925546 240.249911 
L 294.113198 239.965466 
L 294.501329 239.912147 
L 295.383447 239.787578 
L 296.336134 239.649727 
L 296.865404 239.572536 
L 298.876632 239.275713 
L 299.15891 239.233659 
L 301.875832 238.82505 
L 307.309676 237.998531 
L 310.061883 237.583582 
L 311.01457 237.441746 
L 322.658522 235.884927 
L 324.034625 235.735455 
L 324.66975 235.669928 
L 325.057881 235.631019 
L 327.527811 235.40518 
L 327.951227 235.370505 
L 328.939199 235.294554 
L 330.033024 235.21895 
L 330.59758 235.183587 
L 332.432384 235.086923 
L 332.891085 235.067333 
L 333.208648 235.054901 
L 342.347385 235.146369 
L 345.452439 235.394533 
L 346.546265 235.509769 
L 355.543864 237.011436 
L 357.061106 237.360396 
L 357.7668 237.53184 
L 358.190217 237.637464 
L 360.942424 238.37368 
L 361.436409 238.514796 
L 362.530235 238.836804 
L 363.729915 239.204896 
L 364.36504 239.406002 
L 366.905538 240.252695 
L 367.258385 240.375549 
L 377.42038 244.429814 
L 380.87828 246.021701 
L 382.07796 246.597415 
L 382.07796 174.934104 
L 382.07796 174.934104 
L 380.87828 175.996589 
L 377.42038 178.968859 
L 367.258385 186.888656 
L 366.905538 187.140699 
L 364.36504 188.907757 
L 363.729915 189.336279 
L 362.530235 190.131031 
L 361.436409 190.838758 
L 360.942424 191.153042 
L 358.190217 192.842435 
L 357.7668 193.092961 
L 357.061106 193.504882 
L 355.543864 194.366543 
L 346.546265 198.789162 
L 345.452439 199.245782 
L 342.347385 200.447145 
L 333.208648 203.21032 
L 332.891085 203.287205 
L 332.432384 203.396253 
L 330.59758 203.809963 
L 330.033024 203.930272 
L 328.939199 204.15442 
L 327.951227 204.347073 
L 327.527811 204.426885 
L 325.057881 204.861213 
L 324.66975 204.924836 
L 324.034625 205.026366 
L 322.658522 205.23575 
L 311.01457 206.534749 
L 310.061883 206.611402 
L 307.309676 206.813946 
L 301.875832 207.144711 
L 299.15891 207.282695 
L 298.876632 207.296167 
L 296.865404 207.387974 
L 296.336134 207.410995 
L 295.383447 207.451336 
L 294.501329 207.489337 
L 294.113198 207.50684 
L 291.925546 207.613382 
L 291.572699 207.631647 
L 291.008144 207.661377 
L 289.808464 207.726243 
L 275.518159 208.385559 
L 274.671327 208.406002 
L 272.236682 208.451551 
L 271.31928 208.464182 
L 265.144457 208.514343 
L 264.897464 208.516173 
L 263.097944 208.532378 
L 262.674528 208.537198 
L 261.827695 208.548383 
L 261.051431 208.560751 
L 260.698584 208.567136 
L 258.793211 208.611372 
L 258.475648 208.620552 
L 257.981662 208.636 
L 256.923121 208.673759 
L 240.762728 209.424061 
L 239.986464 209.436447 
L 239.28077 209.443557 
L 237.198973 209.439787 
L 231.094719 209.194839 
L 230.883011 209.179986 
L 229.365769 209.061805 
L 228.977637 209.028377 
L 228.271943 208.964435 
L 227.601534 208.900071 
L 227.319256 208.871963 
L 225.660875 208.695798 
L 225.413882 208.668083 
L 224.990466 208.619773 
L 224.073064 208.511939 
L 210.206176 206.935535 
L 204.490054 206.784078 
L 203.890214 206.799771 
L 202.161263 206.876257 
L 197.080266 207.305764 
L 196.903843 207.32446 
L 195.633594 207.463315 
L 195.316031 207.498956 
L 194.716191 207.566966 
L 194.151636 207.631544 
L 193.904643 207.659897 
L 192.52854 207.817737 
L 192.316831 207.841849 
L 191.963984 207.881841 
L 191.223006 207.964791 
L 179.649623 208.784957 
L 168.958359 208.729569 
L 168.464373 208.726466 
L 167.088269 208.725355 
L 163.030529 208.817916 
L 162.88939 208.824375 
L 161.866133 208.874348 
L 161.619141 208.887205 
L 161.125155 208.913798 
L 160.701738 208.937491 
L 160.49003 208.949636 
L 159.396204 209.015382 
L 159.219781 209.02643 
L 158.937503 209.044349 
L 158.337663 209.083368 
L 149.093071 209.785141 
L 133.426663 211.177802 
L 133.073816 211.215997 
L 132.05056 211.330017 
L 128.980791 211.7047 
L 128.874937 211.718573 
L 128.133958 211.817577 
L 127.92225 211.846479 
L 127.569403 211.895265 
L 127.251841 211.939569 
L 127.110702 211.959291 
L 126.263869 212.077989 
L 126.158015 212.092868 
L 125.946307 212.122652 
L 125.487605 212.187295 
L 118.536519 213.174312 
L 97.930253 215.539212 
L 97.68326 215.554845 
L 96.977566 215.596879 
L 94.966338 215.694051 
L 94.895769 215.69682 
L 94.366498 215.71614 
L 94.260644 215.719693 
L 94.013651 215.727575 
L 93.801943 215.733872 
L 93.696089 215.736859 
L 93.131533 215.750954 
L 93.060964 215.752496 
L 92.919825 215.755426 
L 92.602263 215.761254 
L 87.979967 215.718926 
L 62.398558 210.521453 
L 62.292704 210.482696 
L 61.939857 210.35257 
L 60.9166 209.967129 
L 60.881316 209.953626 
L 60.634323 209.858705 
L 60.563753 209.831458 
L 60.457899 209.790483 
L 60.352045 209.749381 
L 60.281476 209.72191 
L 59.999198 209.611467 
L 59.963913 209.597599 
L 59.893344 209.569821 
L 59.752205 209.514098 
L 57.423415 208.562973 
z
" clip-path="url(#pc86cd3be7b)" style="fill: #999999; fill-opacity: 0.4"/>
   </g>
   <g id="line2d_27">
    <path d="M 57.423415 235.920928 
L 62.398558 235.229498 
L 94.966338 231.236354 
L 97.930253 230.916333 
L 126.263869 228.236711 
L 133.426663 227.691461 
L 158.937503 226.197589 
L 168.958359 225.736741 
L 192.52854 224.919063 
L 204.490054 224.653777 
L 210.206176 224.629829 
L 229.365769 225.293729 
L 240.762728 225.810171 
L 258.793211 225.950854 
L 265.144457 225.711392 
L 275.518159 225.163498 
L 296.336134 223.530361 
L 307.309676 222.406238 
L 311.01457 221.988248 
L 330.59758 219.496775 
L 345.452439 217.320157 
L 358.190217 215.239949 
L 367.258385 213.632103 
L 382.07796 210.76576 
L 382.07796 210.76576 
" clip-path="url(#pc86cd3be7b)" style="fill: none; stroke: #5f57db; stroke-width: 1.772454; stroke-linejoin: miter"/>
   </g>
   <g id="LineCollection_1">
    <path d="M 41.190688 245.399456 
L 398.310688 245.399456 
" clip-path="url(#pc86cd3be7b)" style="fill: none; stroke-dasharray: 3.27904,1.417963; stroke-dashoffset: 0; stroke: #000000; stroke-width: 0.886227"/>
   </g>
   <g id="patch_3">
    <path d="M 405.510688 202.916339 
L 517.346688 202.916339 
L 517.346688 111.950402 
L 405.510688 111.950402 
z
" style="fill: #ffffff"/>
   </g>
   <g id="text_11">
    <!-- Model -->
    <g transform="translate(417.710688 135.543996)scale(0.11 -0.11)">
     <defs>
      <path id="DejaVuSans-4d" d="M 628 4666 
L 1569 4666 
L 2759 1491 
L 3956 4666 
L 4897 4666 
L 4897 0 
L 4281 0 
L 4281 4097 
L 3078 897 
L 2444 897 
L 1241 4097 
L 1241 0 
L 628 0 
L 628 4666 
z
" transform="scale(0.015625)"/>
     </defs>
     <use xlink:href="#DejaVuSans-4d"/>
     <use xlink:href="#DejaVuSans-6f" x="86.279297"/>
     <use xlink:href="#DejaVuSans-64" x="147.460938"/>
     <use xlink:href="#DejaVuSans-65" x="210.9375"/>
     <use xlink:href="#DejaVuSans-6c" x="272.460938"/>
    </g>
   </g>
   <g id="patch_4">
    <path d="M 417.710688 155.036339 
L 433.550687 155.036339 
L 433.550687 139.196339 
L 417.710688 139.196339 
z
" clip-path="url(#p6bf129ea85)" style="fill: #f2f2f2"/>
   </g>
   <g id="patch_5">
    <path d="M 417.710688 151.076339 
L 433.550687 151.076339 
L 433.550687 143.156339 
L 417.710688 143.156339 
z
" clip-path="url(#p6bf129ea85)" style="fill: #999999; opacity: 0.4"/>
   </g>
   <g id="line2d_28">
    <path d="M 417.710688 147.116339 
L 433.550687 147.116339 
" clip-path="url(#p6bf129ea85)" style="fill: none; stroke: #db5f57; stroke-width: 1.772454"/>
   </g>
   <g id="text_12">
    <!-- five_layer_net -->
    <g transform="translate(436.550687 149.422214)scale(0.088 -0.088)">
     <defs>
      <path id="DejaVuSans-66" d="M 2375 4863 
L 2375 4384 
L 1825 4384 
Q 1516 4384 1395 4259 
Q 1275 4134 1275 3809 
L 1275 3500 
L 2222 3500 
L 2222 3053 
L 1275 3053 
L 1275 0 
L 697 0 
L 697 3053 
L 147 3053 
L 147 3500 
L 697 3500 
L 697 3744 
Q 697 4328 969 4595 
Q 1241 4863 1831 4863 
L 2375 4863 
z
" transform="scale(0.015625)"/>
      <path id="DejaVuSans-76" d="M 191 3500 
L 800 3500 
L 1894 563 
L 2988 3500 
L 3597 3500 
L 2284 0 
L 1503 0 
L 191 3500 
z
" transform="scale(0.015625)"/>
      <path id="DejaVuSans-5f" d="M 3263 -1063 
L 3263 -1509 
L -63 -1509 
L -63 -1063 
L 3263 -1063 
z
" transform="scale(0.015625)"/>
     </defs>
     <use xlink:href="#DejaVuSans-66"/>
     <use xlink:href="#DejaVuSans-69" x="35.205078"/>
     <use xlink:href="#DejaVuSans-76" x="62.988281"/>
     <use xlink:href="#DejaVuSans-65" x="122.167969"/>
     <use xlink:href="#DejaVuSans-5f" x="183.691406"/>
     <use xlink:href="#DejaVuSans-6c" x="233.691406"/>
     <use xlink:href="#DejaVuSans-61" x="261.474609"/>
     <use xlink:href="#DejaVuSans-79" x="322.753906"/>
     <use xlink:href="#DejaVuSans-65" x="381.933594"/>
     <use xlink:href="#DejaVuSans-72" x="443.457031"/>
     <use xlink:href="#DejaVuSans-5f" x="484.570312"/>
     <use xlink:href="#DejaVuSans-6e" x="534.570312"/>
     <use xlink:href="#DejaVuSans-65" x="597.949219"/>
     <use xlink:href="#DejaVuSans-74" x="659.472656"/>
    </g>
   </g>
   <g id="patch_6">
    <path d="M 417.710688 172.876339 
L 433.550687 172.876339 
L 433.550687 157.036339 
L 417.710688 157.036339 
z
" clip-path="url(#p0af98c84c0)" style="fill: #f2f2f2"/>
   </g>
   <g id="patch_7">
    <path d="M 417.710688 168.916339 
L 433.550687 168.916339 
L 433.550687 160.996339 
L 417.710688 160.996339 
z
" clip-path="url(#p0af98c84c0)" style="fill: #999999; opacity: 0.4"/>
   </g>
   <g id="line2d_29">
    <path d="M 417.710688 164.956339 
L 433.550687 164.956339 
" clip-path="url(#p0af98c84c0)" style="fill: none; stroke: #57db5f; stroke-width: 1.772454"/>
   </g>
   <g id="text_13">
    <!-- pytorch_lr -->
    <g transform="translate(436.550687 167.262214)scale(0.088 -0.088)">
     <defs>
      <path id="DejaVuSans-68" d="M 3513 2113 
L 3513 0 
L 2938 0 
L 2938 2094 
Q 2938 2591 2744 2837 
Q 2550 3084 2163 3084 
Q 1697 3084 1428 2787 
Q 1159 2491 1159 1978 
L 1159 0 
L 581 0 
L 581 4863 
L 1159 4863 
L 1159 2956 
Q 1366 3272 1645 3428 
Q 1925 3584 2291 3584 
Q 2894 3584 3203 3211 
Q 3513 2838 3513 2113 
z
" transform="scale(0.015625)"/>
     </defs>
     <use xlink:href="#DejaVuSans-70"/>
     <use xlink:href="#DejaVuSans-79" x="63.476562"/>
     <use xlink:href="#DejaVuSans-74" x="122.65625"/>
     <use xlink:href="#DejaVuSans-6f" x="161.865234"/>
     <use xlink:href="#DejaVuSans-72" x="223.046875"/>
     <use xlink:href="#DejaVuSans-63" x="261.910156"/>
     <use xlink:href="#DejaVuSans-68" x="316.890625"/>
     <use xlink:href="#DejaVuSans-5f" x="380.269531"/>
     <use xlink:href="#DejaVuSans-6c" x="430.269531"/>
     <use xlink:href="#DejaVuSans-72" x="458.052734"/>
    </g>
   </g>
   <g id="patch_8">
    <path d="M 417.710688 190.716339 
L 433.550687 190.716339 
L 433.550687 174.876339 
L 417.710688 174.876339 
z
" clip-path="url(#p672973c402)" style="fill: #f2f2f2"/>
   </g>
   <g id="patch_9">
    <path d="M 417.710688 186.756339 
L 433.550687 186.756339 
L 433.550687 178.836339 
L 417.710688 178.836339 
z
" clip-path="url(#p672973c402)" style="fill: #999999; opacity: 0.4"/>
   </g>
   <g id="line2d_30">
    <path d="M 417.710688 182.796339 
L 433.550687 182.796339 
" clip-path="url(#p672973c402)" style="fill: none; stroke: #5f57db; stroke-width: 1.772454"/>
   </g>
   <g id="text_14">
    <!-- three_layer_net -->
    <g transform="translate(436.550687 185.102214)scale(0.088 -0.088)">
     <use xlink:href="#DejaVuSans-74"/>
     <use xlink:href="#DejaVuSans-68" x="39.208984"/>
     <use xlink:href="#DejaVuSans-72" x="102.587891"/>
     <use xlink:href="#DejaVuSans-65" x="141.451172"/>
     <use xlink:href="#DejaVuSans-65" x="202.974609"/>
     <use xlink:href="#DejaVuSans-5f" x="264.498047"/>
     <use xlink:href="#DejaVuSans-6c" x="314.498047"/>
     <use xlink:href="#DejaVuSans-61" x="342.28125"/>
     <use xlink:href="#DejaVuSans-79" x="403.560547"/>
     <use xlink:href="#DejaVuSans-65" x="462.740234"/>
     <use xlink:href="#DejaVuSans-72" x="524.263672"/>
     <use xlink:href="#DejaVuSans-5f" x="565.376953"/>
     <use xlink:href="#DejaVuSans-6e" x="615.376953"/>
     <use xlink:href="#DejaVuSans-65" x="678.755859"/>
     <use xlink:href="#DejaVuSans-74" x="740.279297"/>
    </g>
   </g>
  </g>
  <g id="text_15">
   <!-- Recount3 21-Class Tissue Prediction Signal Removed -->
   <g transform="translate(39.378406 17.229938)scale(0.132 -0.132)">
    <defs>
     <path id="DejaVuSans-52" d="M 2841 2188 
Q 3044 2119 3236 1894 
Q 3428 1669 3622 1275 
L 4263 0 
L 3584 0 
L 2988 1197 
Q 2756 1666 2539 1819 
Q 2322 1972 1947 1972 
L 1259 1972 
L 1259 0 
L 628 0 
L 628 4666 
L 2053 4666 
Q 2853 4666 3247 4331 
Q 3641 3997 3641 3322 
Q 3641 2881 3436 2590 
Q 3231 2300 2841 2188 
z
M 1259 4147 
L 1259 2491 
L 2053 2491 
Q 2509 2491 2742 2702 
Q 2975 2913 2975 3322 
Q 2975 3731 2742 3939 
Q 2509 4147 2053 4147 
L 1259 4147 
z
" transform="scale(0.015625)"/>
     <path id="DejaVuSans-2d" d="M 313 2009 
L 1997 2009 
L 1997 1497 
L 313 1497 
L 313 2009 
z
" transform="scale(0.015625)"/>
     <path id="DejaVuSans-73" d="M 2834 3397 
L 2834 2853 
Q 2591 2978 2328 3040 
Q 2066 3103 1784 3103 
Q 1356 3103 1142 2972 
Q 928 2841 928 2578 
Q 928 2378 1081 2264 
Q 1234 2150 1697 2047 
L 1894 2003 
Q 2506 1872 2764 1633 
Q 3022 1394 3022 966 
Q 3022 478 2636 193 
Q 2250 -91 1575 -91 
Q 1294 -91 989 -36 
Q 684 19 347 128 
L 347 722 
Q 666 556 975 473 
Q 1284 391 1588 391 
Q 1994 391 2212 530 
Q 2431 669 2431 922 
Q 2431 1156 2273 1281 
Q 2116 1406 1581 1522 
L 1381 1569 
Q 847 1681 609 1914 
Q 372 2147 372 2553 
Q 372 3047 722 3315 
Q 1072 3584 1716 3584 
Q 2034 3584 2315 3537 
Q 2597 3491 2834 3397 
z
" transform="scale(0.015625)"/>
     <path id="DejaVuSans-50" d="M 1259 4147 
L 1259 2394 
L 2053 2394 
Q 2494 2394 2734 2622 
Q 2975 2850 2975 3272 
Q 2975 3691 2734 3919 
Q 2494 4147 2053 4147 
L 1259 4147 
z
M 628 4666 
L 2053 4666 
Q 2838 4666 3239 4311 
Q 3641 3956 3641 3272 
Q 3641 2581 3239 2228 
Q 2838 1875 2053 1875 
L 1259 1875 
L 1259 0 
L 628 0 
L 628 4666 
z
" transform="scale(0.015625)"/>
     <path id="DejaVuSans-67" d="M 2906 1791 
Q 2906 2416 2648 2759 
Q 2391 3103 1925 3103 
Q 1463 3103 1205 2759 
Q 947 2416 947 1791 
Q 947 1169 1205 825 
Q 1463 481 1925 481 
Q 2391 481 2648 825 
Q 2906 1169 2906 1791 
z
M 3481 434 
Q 3481 -459 3084 -895 
Q 2688 -1331 1869 -1331 
Q 1566 -1331 1297 -1286 
Q 1028 -1241 775 -1147 
L 775 -588 
Q 1028 -725 1275 -790 
Q 1522 -856 1778 -856 
Q 2344 -856 2625 -561 
Q 2906 -266 2906 331 
L 2906 616 
Q 2728 306 2450 153 
Q 2172 0 1784 0 
Q 1141 0 747 490 
Q 353 981 353 1791 
Q 353 2603 747 3093 
Q 1141 3584 1784 3584 
Q 2172 3584 2450 3431 
Q 2728 3278 2906 2969 
L 2906 3500 
L 3481 3500 
L 3481 434 
z
" transform="scale(0.015625)"/>
    </defs>
    <use xlink:href="#DejaVuSans-52"/>
    <use xlink:href="#DejaVuSans-65" x="64.982422"/>
    <use xlink:href="#DejaVuSans-63" x="126.505859"/>
    <use xlink:href="#DejaVuSans-6f" x="181.486328"/>
    <use xlink:href="#DejaVuSans-75" x="242.667969"/>
    <use xlink:href="#DejaVuSans-6e" x="306.046875"/>
    <use xlink:href="#DejaVuSans-74" x="369.425781"/>
    <use xlink:href="#DejaVuSans-33" x="408.634766"/>
    <use xlink:href="#DejaVuSans-20" x="472.257812"/>
    <use xlink:href="#DejaVuSans-32" x="504.044922"/>
    <use xlink:href="#DejaVuSans-31" x="567.667969"/>
    <use xlink:href="#DejaVuSans-2d" x="631.291016"/>
    <use xlink:href="#DejaVuSans-43" x="667.375"/>
    <use xlink:href="#DejaVuSans-6c" x="737.199219"/>
    <use xlink:href="#DejaVuSans-61" x="764.982422"/>
    <use xlink:href="#DejaVuSans-73" x="826.261719"/>
    <use xlink:href="#DejaVuSans-73" x="878.361328"/>
    <use xlink:href="#DejaVuSans-20" x="930.460938"/>
    <use xlink:href="#DejaVuSans-54" x="962.248047"/>
    <use xlink:href="#DejaVuSans-69" x="1020.207031"/>
    <use xlink:href="#DejaVuSans-73" x="1047.990234"/>
    <use xlink:href="#DejaVuSans-73" x="1100.089844"/>
    <use xlink:href="#DejaVuSans-75" x="1152.189453"/>
    <use xlink:href="#DejaVuSans-65" x="1215.568359"/>
    <use xlink:href="#DejaVuSans-20" x="1277.091797"/>
    <use xlink:href="#DejaVuSans-50" x="1308.878906"/>
    <use xlink:href="#DejaVuSans-72" x="1367.431641"/>
    <use xlink:href="#DejaVuSans-65" x="1406.294922"/>
    <use xlink:href="#DejaVuSans-64" x="1467.818359"/>
    <use xlink:href="#DejaVuSans-69" x="1531.294922"/>
    <use xlink:href="#DejaVuSans-63" x="1559.078125"/>
    <use xlink:href="#DejaVuSans-74" x="1614.058594"/>
    <use xlink:href="#DejaVuSans-69" x="1653.267578"/>
    <use xlink:href="#DejaVuSans-6f" x="1681.050781"/>
    <use xlink:href="#DejaVuSans-6e" x="1742.232422"/>
    <use xlink:href="#DejaVuSans-20" x="1805.611328"/>
    <use xlink:href="#DejaVuSans-53" x="1837.398438"/>
    <use xlink:href="#DejaVuSans-69" x="1900.875"/>
    <use xlink:href="#DejaVuSans-67" x="1928.658203"/>
    <use xlink:href="#DejaVuSans-6e" x="1992.134766"/>
    <use xlink:href="#DejaVuSans-61" x="2055.513672"/>
    <use xlink:href="#DejaVuSans-6c" x="2116.792969"/>
    <use xlink:href="#DejaVuSans-20" x="2144.576172"/>
    <use xlink:href="#DejaVuSans-52" x="2176.363281"/>
    <use xlink:href="#DejaVuSans-65" x="2241.345703"/>
    <use xlink:href="#DejaVuSans-6d" x="2302.869141"/>
    <use xlink:href="#DejaVuSans-6f" x="2400.28125"/>
    <use xlink:href="#DejaVuSans-76" x="2461.462891"/>
    <use xlink:href="#DejaVuSans-65" x="2520.642578"/>
    <use xlink:href="#DejaVuSans-64" x="2582.166016"/>
   </g>
  </g>
 </g>
 <defs>
  <clipPath id="pc86cd3be7b">
   <rect x="41.190688" y="26.105371" width="357.12" height="266.112"/>
  </clipPath>
  <clipPath id="p6bf129ea85">
   <path d="M 417.710688 155.036339 
L 417.710688 139.196339 
L 433.550687 139.196339 
L 433.550687 155.036339 
"/>
  </clipPath>
  <clipPath id="p0af98c84c0">
   <path d="M 417.710688 172.876339 
L 417.710688 157.036339 
L 433.550687 157.036339 
L 433.550687 172.876339 
"/>
  </clipPath>
  <clipPath id="p672973c402">
   <path d="M 417.710688 190.716339 
L 417.710688 174.876339 
L 433.550687 174.876339 
L 433.550687 190.716339 
"/>
  </clipPath>
 </defs>
</svg>
