<?xml version="1.0" encoding="utf-8" standalone="no"?>
<!DOCTYPE svg PUBLIC "-//W3C//DTD SVG 1.1//EN"
  "http://www.w3.org/Graphics/SVG/1.1/DTD/svg11.dtd">
<svg xmlns:xlink="http://www.w3.org/1999/xlink" width="527.079437pt" height="327.930058pt" viewBox="0 0 527.079437 327.930058" xmlns="http://www.w3.org/2000/svg" version="1.1">
 <metadata>
  <rdf:RDF xmlns:dc="http://purl.org/dc/elements/1.1/" xmlns:cc="http://creativecommons.org/ns#" xmlns:rdf="http://www.w3.org/1999/02/22-rdf-syntax-ns#">
   <cc:Work>
    <dc:type rdf:resource="http://purl.org/dc/dcmitype/StillImage"/>
    <dc:date>2022-05-11T16:08:12.444907</dc:date>
    <dc:format>image/svg+xml</dc:format>
    <dc:creator>
     <cc:Agent>
      <dc:title>Matplotlib v3.5.1, https://matplotlib.org/</dc:title>
     </cc:Agent>
    </dc:creator>
   </cc:Work>
  </rdf:RDF>
 </metadata>
 <defs>
  <style type="text/css">*{stroke-linejoin: round; stroke-linecap: butt}</style>
 </defs>
 <g id="figure_1">
  <g id="patch_1">
   <path d="M 0 327.930058 
L 527.079437 327.930058 
L 527.079437 0 
L 0 0 
z
" style="fill: #ffffff; stroke: #ffffff; stroke-linejoin: miter"/>
  </g>
  <g id="axes_1">
   <g id="patch_2">
    <path d="M 41.190688 292.217371 
L 398.310688 292.217371 
L 398.310688 26.105371 
L 41.190688 26.105371 
z
" style="fill: #ebebeb"/>
   </g>
   <g id="matplotlib.axis_1">
    <g id="xtick_1">
     <g id="line2d_1">
      <path d="M 115.113903 292.217371 
L 115.113903 26.105371 
" clip-path="url(#p3b6180f169)" style="fill: none; stroke: #ffffff"/>
     </g>
     <g id="line2d_2">
      <path d="M 115.113903 292.217371 
" style="fill: none; stroke: #333333; stroke-width: 1.5"/>
      <defs>
       <path id="m3a10335a22" d="M 0 0 
L 0 2.75 
" style="stroke: #000000"/>
      </defs>
      <g>
       <use xlink:href="#m3a10335a22" x="115.113903" y="292.217371" style="fill: #333333; stroke: #000000"/>
      </g>
     </g>
     <g id="text_1">
      <!-- 2500 -->
      <g style="fill: #4d4d4d" transform="translate(103.915903 303.853996)scale(0.088 -0.088)">
       <defs>
        <path id="DejaVuSans-32" d="M 1228 531 
L 3431 531 
L 3431 0 
L 469 0 
L 469 531 
Q 828 903 1448 1529 
Q 2069 2156 2228 2338 
Q 2531 2678 2651 2914 
Q 2772 3150 2772 3378 
Q 2772 3750 2511 3984 
Q 2250 4219 1831 4219 
Q 1534 4219 1204 4116 
Q 875 4013 500 3803 
L 500 4441 
Q 881 4594 1212 4672 
Q 1544 4750 1819 4750 
Q 2544 4750 2975 4387 
Q 3406 4025 3406 3419 
Q 3406 3131 3298 2873 
Q 3191 2616 2906 2266 
Q 2828 2175 2409 1742 
Q 1991 1309 1228 531 
z
" transform="scale(0.015625)"/>
        <path id="DejaVuSans-35" d="M 691 4666 
L 3169 4666 
L 3169 4134 
L 1269 4134 
L 1269 2991 
Q 1406 3038 1543 3061 
Q 1681 3084 1819 3084 
Q 2600 3084 3056 2656 
Q 3513 2228 3513 1497 
Q 3513 744 3044 326 
Q 2575 -91 1722 -91 
Q 1428 -91 1123 -41 
Q 819 9 494 109 
L 494 744 
Q 775 591 1075 516 
Q 1375 441 1709 441 
Q 2250 441 2565 725 
Q 2881 1009 2881 1497 
Q 2881 1984 2565 2268 
Q 2250 2553 1709 2553 
Q 1456 2553 1204 2497 
Q 953 2441 691 2322 
L 691 4666 
z
" transform="scale(0.015625)"/>
        <path id="DejaVuSans-30" d="M 2034 4250 
Q 1547 4250 1301 3770 
Q 1056 3291 1056 2328 
Q 1056 1369 1301 889 
Q 1547 409 2034 409 
Q 2525 409 2770 889 
Q 3016 1369 3016 2328 
Q 3016 3291 2770 3770 
Q 2525 4250 2034 4250 
z
M 2034 4750 
Q 2819 4750 3233 4129 
Q 3647 3509 3647 2328 
Q 3647 1150 3233 529 
Q 2819 -91 2034 -91 
Q 1250 -91 836 529 
Q 422 1150 422 2328 
Q 422 3509 836 4129 
Q 1250 4750 2034 4750 
z
" transform="scale(0.015625)"/>
       </defs>
       <use xlink:href="#DejaVuSans-32"/>
       <use xlink:href="#DejaVuSans-35" x="63.623047"/>
       <use xlink:href="#DejaVuSans-30" x="127.246094"/>
       <use xlink:href="#DejaVuSans-30" x="190.869141"/>
      </g>
     </g>
    </g>
    <g id="xtick_2">
     <g id="line2d_3">
      <path d="M 203.325659 292.217371 
L 203.325659 26.105371 
" clip-path="url(#p3b6180f169)" style="fill: none; stroke: #ffffff"/>
     </g>
     <g id="line2d_4">
      <path d="M 203.325659 292.217371 
" style="fill: none; stroke: #333333; stroke-width: 1.5"/>
      <g>
       <use xlink:href="#m3a10335a22" x="203.325659" y="292.217371" style="fill: #333333; stroke: #000000"/>
      </g>
     </g>
     <g id="text_2">
      <!-- 5000 -->
      <g style="fill: #4d4d4d" transform="translate(192.127659 303.853996)scale(0.088 -0.088)">
       <use xlink:href="#DejaVuSans-35"/>
       <use xlink:href="#DejaVuSans-30" x="63.623047"/>
       <use xlink:href="#DejaVuSans-30" x="127.246094"/>
       <use xlink:href="#DejaVuSans-30" x="190.869141"/>
      </g>
     </g>
    </g>
    <g id="xtick_3">
     <g id="line2d_5">
      <path d="M 291.537414 292.217371 
L 291.537414 26.105371 
" clip-path="url(#p3b6180f169)" style="fill: none; stroke: #ffffff"/>
     </g>
     <g id="line2d_6">
      <path d="M 291.537414 292.217371 
" style="fill: none; stroke: #333333; stroke-width: 1.5"/>
      <g>
       <use xlink:href="#m3a10335a22" x="291.537414" y="292.217371" style="fill: #333333; stroke: #000000"/>
      </g>
     </g>
     <g id="text_3">
      <!-- 7500 -->
      <g style="fill: #4d4d4d" transform="translate(280.339414 303.853996)scale(0.088 -0.088)">
       <defs>
        <path id="DejaVuSans-37" d="M 525 4666 
L 3525 4666 
L 3525 4397 
L 1831 0 
L 1172 0 
L 2766 4134 
L 525 4134 
L 525 4666 
z
" transform="scale(0.015625)"/>
       </defs>
       <use xlink:href="#DejaVuSans-37"/>
       <use xlink:href="#DejaVuSans-35" x="63.623047"/>
       <use xlink:href="#DejaVuSans-30" x="127.246094"/>
       <use xlink:href="#DejaVuSans-30" x="190.869141"/>
      </g>
     </g>
    </g>
    <g id="xtick_4">
     <g id="line2d_7">
      <path d="M 379.74917 292.217371 
L 379.74917 26.105371 
" clip-path="url(#p3b6180f169)" style="fill: none; stroke: #ffffff"/>
     </g>
     <g id="line2d_8">
      <path d="M 379.74917 292.217371 
" style="fill: none; stroke: #333333; stroke-width: 1.5"/>
      <g>
       <use xlink:href="#m3a10335a22" x="379.74917" y="292.217371" style="fill: #333333; stroke: #000000"/>
      </g>
     </g>
     <g id="text_4">
      <!-- 10000 -->
      <g style="fill: #4d4d4d" transform="translate(365.75167 303.853996)scale(0.088 -0.088)">
       <defs>
        <path id="DejaVuSans-31" d="M 794 531 
L 1825 531 
L 1825 4091 
L 703 3866 
L 703 4441 
L 1819 4666 
L 2450 4666 
L 2450 531 
L 3481 531 
L 3481 0 
L 794 0 
L 794 531 
z
" transform="scale(0.015625)"/>
       </defs>
       <use xlink:href="#DejaVuSans-31"/>
       <use xlink:href="#DejaVuSans-30" x="63.623047"/>
       <use xlink:href="#DejaVuSans-30" x="127.246094"/>
       <use xlink:href="#DejaVuSans-30" x="190.869141"/>
       <use xlink:href="#DejaVuSans-30" x="254.492188"/>
      </g>
     </g>
    </g>
    <g id="xtick_5">
     <g id="line2d_9">
      <path d="M 71.008025 292.217371 
L 71.008025 26.105371 
" clip-path="url(#p3b6180f169)" style="fill: none; stroke: #ffffff; stroke-width: 0.5"/>
     </g>
    </g>
    <g id="xtick_6">
     <g id="line2d_10">
      <path d="M 159.219781 292.217371 
L 159.219781 26.105371 
" clip-path="url(#p3b6180f169)" style="fill: none; stroke: #ffffff; stroke-width: 0.5"/>
     </g>
    </g>
    <g id="xtick_7">
     <g id="line2d_11">
      <path d="M 247.431536 292.217371 
L 247.431536 26.105371 
" clip-path="url(#p3b6180f169)" style="fill: none; stroke: #ffffff; stroke-width: 0.5"/>
     </g>
    </g>
    <g id="xtick_8">
     <g id="line2d_12">
      <path d="M 335.643292 292.217371 
L 335.643292 26.105371 
" clip-path="url(#p3b6180f169)" style="fill: none; stroke: #ffffff; stroke-width: 0.5"/>
     </g>
    </g>
    <g id="text_5">
     <!-- Train Sample Count -->
     <g transform="translate(160.345063 318.442402)scale(0.11 -0.11)">
      <defs>
       <path id="DejaVuSans-54" d="M -19 4666 
L 3928 4666 
L 3928 4134 
L 2272 4134 
L 2272 0 
L 1638 0 
L 1638 4134 
L -19 4134 
L -19 4666 
z
" transform="scale(0.015625)"/>
       <path id="DejaVuSans-72" d="M 2631 2963 
Q 2534 3019 2420 3045 
Q 2306 3072 2169 3072 
Q 1681 3072 1420 2755 
Q 1159 2438 1159 1844 
L 1159 0 
L 581 0 
L 581 3500 
L 1159 3500 
L 1159 2956 
Q 1341 3275 1631 3429 
Q 1922 3584 2338 3584 
Q 2397 3584 2469 3576 
Q 2541 3569 2628 3553 
L 2631 2963 
z
" transform="scale(0.015625)"/>
       <path id="DejaVuSans-61" d="M 2194 1759 
Q 1497 1759 1228 1600 
Q 959 1441 959 1056 
Q 959 750 1161 570 
Q 1363 391 1709 391 
Q 2188 391 2477 730 
Q 2766 1069 2766 1631 
L 2766 1759 
L 2194 1759 
z
M 3341 1997 
L 3341 0 
L 2766 0 
L 2766 531 
Q 2569 213 2275 61 
Q 1981 -91 1556 -91 
Q 1019 -91 701 211 
Q 384 513 384 1019 
Q 384 1609 779 1909 
Q 1175 2209 1959 2209 
L 2766 2209 
L 2766 2266 
Q 2766 2663 2505 2880 
Q 2244 3097 1772 3097 
Q 1472 3097 1187 3025 
Q 903 2953 641 2809 
L 641 3341 
Q 956 3463 1253 3523 
Q 1550 3584 1831 3584 
Q 2591 3584 2966 3190 
Q 3341 2797 3341 1997 
z
" transform="scale(0.015625)"/>
       <path id="DejaVuSans-69" d="M 603 3500 
L 1178 3500 
L 1178 0 
L 603 0 
L 603 3500 
z
M 603 4863 
L 1178 4863 
L 1178 4134 
L 603 4134 
L 603 4863 
z
" transform="scale(0.015625)"/>
       <path id="DejaVuSans-6e" d="M 3513 2113 
L 3513 0 
L 2938 0 
L 2938 2094 
Q 2938 2591 2744 2837 
Q 2550 3084 2163 3084 
Q 1697 3084 1428 2787 
Q 1159 2491 1159 1978 
L 1159 0 
L 581 0 
L 581 3500 
L 1159 3500 
L 1159 2956 
Q 1366 3272 1645 3428 
Q 1925 3584 2291 3584 
Q 2894 3584 3203 3211 
Q 3513 2838 3513 2113 
z
" transform="scale(0.015625)"/>
       <path id="DejaVuSans-20" transform="scale(0.015625)"/>
       <path id="DejaVuSans-53" d="M 3425 4513 
L 3425 3897 
Q 3066 4069 2747 4153 
Q 2428 4238 2131 4238 
Q 1616 4238 1336 4038 
Q 1056 3838 1056 3469 
Q 1056 3159 1242 3001 
Q 1428 2844 1947 2747 
L 2328 2669 
Q 3034 2534 3370 2195 
Q 3706 1856 3706 1288 
Q 3706 609 3251 259 
Q 2797 -91 1919 -91 
Q 1588 -91 1214 -16 
Q 841 59 441 206 
L 441 856 
Q 825 641 1194 531 
Q 1563 422 1919 422 
Q 2459 422 2753 634 
Q 3047 847 3047 1241 
Q 3047 1584 2836 1778 
Q 2625 1972 2144 2069 
L 1759 2144 
Q 1053 2284 737 2584 
Q 422 2884 422 3419 
Q 422 4038 858 4394 
Q 1294 4750 2059 4750 
Q 2388 4750 2728 4690 
Q 3069 4631 3425 4513 
z
" transform="scale(0.015625)"/>
       <path id="DejaVuSans-6d" d="M 3328 2828 
Q 3544 3216 3844 3400 
Q 4144 3584 4550 3584 
Q 5097 3584 5394 3201 
Q 5691 2819 5691 2113 
L 5691 0 
L 5113 0 
L 5113 2094 
Q 5113 2597 4934 2840 
Q 4756 3084 4391 3084 
Q 3944 3084 3684 2787 
Q 3425 2491 3425 1978 
L 3425 0 
L 2847 0 
L 2847 2094 
Q 2847 2600 2669 2842 
Q 2491 3084 2119 3084 
Q 1678 3084 1418 2786 
Q 1159 2488 1159 1978 
L 1159 0 
L 581 0 
L 581 3500 
L 1159 3500 
L 1159 2956 
Q 1356 3278 1631 3431 
Q 1906 3584 2284 3584 
Q 2666 3584 2933 3390 
Q 3200 3197 3328 2828 
z
" transform="scale(0.015625)"/>
       <path id="DejaVuSans-70" d="M 1159 525 
L 1159 -1331 
L 581 -1331 
L 581 3500 
L 1159 3500 
L 1159 2969 
Q 1341 3281 1617 3432 
Q 1894 3584 2278 3584 
Q 2916 3584 3314 3078 
Q 3713 2572 3713 1747 
Q 3713 922 3314 415 
Q 2916 -91 2278 -91 
Q 1894 -91 1617 61 
Q 1341 213 1159 525 
z
M 3116 1747 
Q 3116 2381 2855 2742 
Q 2594 3103 2138 3103 
Q 1681 3103 1420 2742 
Q 1159 2381 1159 1747 
Q 1159 1113 1420 752 
Q 1681 391 2138 391 
Q 2594 391 2855 752 
Q 3116 1113 3116 1747 
z
" transform="scale(0.015625)"/>
       <path id="DejaVuSans-6c" d="M 603 4863 
L 1178 4863 
L 1178 0 
L 603 0 
L 603 4863 
z
" transform="scale(0.015625)"/>
       <path id="DejaVuSans-65" d="M 3597 1894 
L 3597 1613 
L 953 1613 
Q 991 1019 1311 708 
Q 1631 397 2203 397 
Q 2534 397 2845 478 
Q 3156 559 3463 722 
L 3463 178 
Q 3153 47 2828 -22 
Q 2503 -91 2169 -91 
Q 1331 -91 842 396 
Q 353 884 353 1716 
Q 353 2575 817 3079 
Q 1281 3584 2069 3584 
Q 2775 3584 3186 3129 
Q 3597 2675 3597 1894 
z
M 3022 2063 
Q 3016 2534 2758 2815 
Q 2500 3097 2075 3097 
Q 1594 3097 1305 2825 
Q 1016 2553 972 2059 
L 3022 2063 
z
" transform="scale(0.015625)"/>
       <path id="DejaVuSans-43" d="M 4122 4306 
L 4122 3641 
Q 3803 3938 3442 4084 
Q 3081 4231 2675 4231 
Q 1875 4231 1450 3742 
Q 1025 3253 1025 2328 
Q 1025 1406 1450 917 
Q 1875 428 2675 428 
Q 3081 428 3442 575 
Q 3803 722 4122 1019 
L 4122 359 
Q 3791 134 3420 21 
Q 3050 -91 2638 -91 
Q 1578 -91 968 557 
Q 359 1206 359 2328 
Q 359 3453 968 4101 
Q 1578 4750 2638 4750 
Q 3056 4750 3426 4639 
Q 3797 4528 4122 4306 
z
" transform="scale(0.015625)"/>
       <path id="DejaVuSans-6f" d="M 1959 3097 
Q 1497 3097 1228 2736 
Q 959 2375 959 1747 
Q 959 1119 1226 758 
Q 1494 397 1959 397 
Q 2419 397 2687 759 
Q 2956 1122 2956 1747 
Q 2956 2369 2687 2733 
Q 2419 3097 1959 3097 
z
M 1959 3584 
Q 2709 3584 3137 3096 
Q 3566 2609 3566 1747 
Q 3566 888 3137 398 
Q 2709 -91 1959 -91 
Q 1206 -91 779 398 
Q 353 888 353 1747 
Q 353 2609 779 3096 
Q 1206 3584 1959 3584 
z
" transform="scale(0.015625)"/>
       <path id="DejaVuSans-75" d="M 544 1381 
L 544 3500 
L 1119 3500 
L 1119 1403 
Q 1119 906 1312 657 
Q 1506 409 1894 409 
Q 2359 409 2629 706 
Q 2900 1003 2900 1516 
L 2900 3500 
L 3475 3500 
L 3475 0 
L 2900 0 
L 2900 538 
Q 2691 219 2414 64 
Q 2138 -91 1772 -91 
Q 1169 -91 856 284 
Q 544 659 544 1381 
z
M 1991 3584 
L 1991 3584 
z
" transform="scale(0.015625)"/>
       <path id="DejaVuSans-74" d="M 1172 4494 
L 1172 3500 
L 2356 3500 
L 2356 3053 
L 1172 3053 
L 1172 1153 
Q 1172 725 1289 603 
Q 1406 481 1766 481 
L 2356 481 
L 2356 0 
L 1766 0 
Q 1100 0 847 248 
Q 594 497 594 1153 
L 594 3053 
L 172 3053 
L 172 3500 
L 594 3500 
L 594 4494 
L 1172 4494 
z
" transform="scale(0.015625)"/>
      </defs>
      <use xlink:href="#DejaVuSans-54"/>
      <use xlink:href="#DejaVuSans-72" x="46.333984"/>
      <use xlink:href="#DejaVuSans-61" x="87.447266"/>
      <use xlink:href="#DejaVuSans-69" x="148.726562"/>
      <use xlink:href="#DejaVuSans-6e" x="176.509766"/>
      <use xlink:href="#DejaVuSans-20" x="239.888672"/>
      <use xlink:href="#DejaVuSans-53" x="271.675781"/>
      <use xlink:href="#DejaVuSans-61" x="335.152344"/>
      <use xlink:href="#DejaVuSans-6d" x="396.431641"/>
      <use xlink:href="#DejaVuSans-70" x="493.84375"/>
      <use xlink:href="#DejaVuSans-6c" x="557.320312"/>
      <use xlink:href="#DejaVuSans-65" x="585.103516"/>
      <use xlink:href="#DejaVuSans-20" x="646.626953"/>
      <use xlink:href="#DejaVuSans-43" x="678.414062"/>
      <use xlink:href="#DejaVuSans-6f" x="748.238281"/>
      <use xlink:href="#DejaVuSans-75" x="809.419922"/>
      <use xlink:href="#DejaVuSans-6e" x="872.798828"/>
      <use xlink:href="#DejaVuSans-74" x="936.177734"/>
     </g>
    </g>
   </g>
   <g id="matplotlib.axis_2">
    <g id="ytick_1">
     <g id="line2d_13">
      <path d="M 41.190688 279.613935 
L 398.310688 279.613935 
" clip-path="url(#p3b6180f169)" style="fill: none; stroke: #ffffff"/>
     </g>
     <g id="line2d_14">
      <path d="M 41.190688 279.613935 
" style="fill: none; stroke: #333333; stroke-width: 1.5"/>
      <defs>
       <path id="m836acecb64" d="M 0 0 
L -2.75 0 
" style="stroke: #000000"/>
      </defs>
      <g>
       <use xlink:href="#m836acecb64" x="41.190688" y="279.613935" style="fill: #333333; stroke: #000000"/>
      </g>
     </g>
     <g id="text_6">
      <!-- 0 -->
      <g style="fill: #4d4d4d" transform="translate(30.641688 282.042185)scale(0.088 -0.088)">
       <use xlink:href="#DejaVuSans-30"/>
      </g>
     </g>
    </g>
    <g id="ytick_2">
     <g id="line2d_15">
      <path d="M 41.190688 189.53625 
L 398.310688 189.53625 
" clip-path="url(#p3b6180f169)" style="fill: none; stroke: #ffffff"/>
     </g>
     <g id="line2d_16">
      <path d="M 41.190688 189.53625 
" style="fill: none; stroke: #333333; stroke-width: 1.5"/>
      <g>
       <use xlink:href="#m836acecb64" x="41.190688" y="189.53625" style="fill: #333333; stroke: #000000"/>
      </g>
     </g>
     <g id="text_7">
      <!-- 0.2 -->
      <g style="fill: #4d4d4d" transform="translate(22.245938 191.9645)scale(0.088 -0.088)">
       <defs>
        <path id="DejaVuSans-2e" d="M 684 794 
L 1344 794 
L 1344 0 
L 684 0 
L 684 794 
z
" transform="scale(0.015625)"/>
       </defs>
       <use xlink:href="#DejaVuSans-30"/>
       <use xlink:href="#DejaVuSans-2e" x="63.623047"/>
       <use xlink:href="#DejaVuSans-32" x="95.410156"/>
      </g>
     </g>
    </g>
    <g id="ytick_3">
     <g id="line2d_17">
      <path d="M 41.190688 99.458564 
L 398.310688 99.458564 
" clip-path="url(#p3b6180f169)" style="fill: none; stroke: #ffffff"/>
     </g>
     <g id="line2d_18">
      <path d="M 41.190688 99.458564 
" style="fill: none; stroke: #333333; stroke-width: 1.5"/>
      <g>
       <use xlink:href="#m836acecb64" x="41.190688" y="99.458564" style="fill: #333333; stroke: #000000"/>
      </g>
     </g>
     <g id="text_8">
      <!-- 0.4 -->
      <g style="fill: #4d4d4d" transform="translate(22.245938 101.886814)scale(0.088 -0.088)">
       <defs>
        <path id="DejaVuSans-34" d="M 2419 4116 
L 825 1625 
L 2419 1625 
L 2419 4116 
z
M 2253 4666 
L 3047 4666 
L 3047 1625 
L 3713 1625 
L 3713 1100 
L 3047 1100 
L 3047 0 
L 2419 0 
L 2419 1100 
L 313 1100 
L 313 1709 
L 2253 4666 
z
" transform="scale(0.015625)"/>
       </defs>
       <use xlink:href="#DejaVuSans-30"/>
       <use xlink:href="#DejaVuSans-2e" x="63.623047"/>
       <use xlink:href="#DejaVuSans-34" x="95.410156"/>
      </g>
     </g>
    </g>
    <g id="ytick_4">
     <g id="line2d_19">
      <path d="M 41.190688 234.575093 
L 398.310688 234.575093 
" clip-path="url(#p3b6180f169)" style="fill: none; stroke: #ffffff; stroke-width: 0.5"/>
     </g>
    </g>
    <g id="ytick_5">
     <g id="line2d_20">
      <path d="M 41.190688 144.497407 
L 398.310688 144.497407 
" clip-path="url(#p3b6180f169)" style="fill: none; stroke: #ffffff; stroke-width: 0.5"/>
     </g>
    </g>
    <g id="ytick_6">
     <g id="line2d_21">
      <path d="M 41.190688 54.419722 
L 398.310688 54.419722 
" clip-path="url(#p3b6180f169)" style="fill: none; stroke: #ffffff; stroke-width: 0.5"/>
     </g>
    </g>
    <g id="text_9">
     <!-- Balanced Accuracy (Val Set) -->
     <g transform="translate(15.558281 234.774543)rotate(-90)scale(0.11 -0.11)">
      <defs>
       <path id="DejaVuSans-42" d="M 1259 2228 
L 1259 519 
L 2272 519 
Q 2781 519 3026 730 
Q 3272 941 3272 1375 
Q 3272 1813 3026 2020 
Q 2781 2228 2272 2228 
L 1259 2228 
z
M 1259 4147 
L 1259 2741 
L 2194 2741 
Q 2656 2741 2882 2914 
Q 3109 3088 3109 3444 
Q 3109 3797 2882 3972 
Q 2656 4147 2194 4147 
L 1259 4147 
z
M 628 4666 
L 2241 4666 
Q 2963 4666 3353 4366 
Q 3744 4066 3744 3513 
Q 3744 3084 3544 2831 
Q 3344 2578 2956 2516 
Q 3422 2416 3680 2098 
Q 3938 1781 3938 1306 
Q 3938 681 3513 340 
Q 3088 0 2303 0 
L 628 0 
L 628 4666 
z
" transform="scale(0.015625)"/>
       <path id="DejaVuSans-63" d="M 3122 3366 
L 3122 2828 
Q 2878 2963 2633 3030 
Q 2388 3097 2138 3097 
Q 1578 3097 1268 2742 
Q 959 2388 959 1747 
Q 959 1106 1268 751 
Q 1578 397 2138 397 
Q 2388 397 2633 464 
Q 2878 531 3122 666 
L 3122 134 
Q 2881 22 2623 -34 
Q 2366 -91 2075 -91 
Q 1284 -91 818 406 
Q 353 903 353 1747 
Q 353 2603 823 3093 
Q 1294 3584 2113 3584 
Q 2378 3584 2631 3529 
Q 2884 3475 3122 3366 
z
" transform="scale(0.015625)"/>
       <path id="DejaVuSans-64" d="M 2906 2969 
L 2906 4863 
L 3481 4863 
L 3481 0 
L 2906 0 
L 2906 525 
Q 2725 213 2448 61 
Q 2172 -91 1784 -91 
Q 1150 -91 751 415 
Q 353 922 353 1747 
Q 353 2572 751 3078 
Q 1150 3584 1784 3584 
Q 2172 3584 2448 3432 
Q 2725 3281 2906 2969 
z
M 947 1747 
Q 947 1113 1208 752 
Q 1469 391 1925 391 
Q 2381 391 2643 752 
Q 2906 1113 2906 1747 
Q 2906 2381 2643 2742 
Q 2381 3103 1925 3103 
Q 1469 3103 1208 2742 
Q 947 2381 947 1747 
z
" transform="scale(0.015625)"/>
       <path id="DejaVuSans-41" d="M 2188 4044 
L 1331 1722 
L 3047 1722 
L 2188 4044 
z
M 1831 4666 
L 2547 4666 
L 4325 0 
L 3669 0 
L 3244 1197 
L 1141 1197 
L 716 0 
L 50 0 
L 1831 4666 
z
" transform="scale(0.015625)"/>
       <path id="DejaVuSans-79" d="M 2059 -325 
Q 1816 -950 1584 -1140 
Q 1353 -1331 966 -1331 
L 506 -1331 
L 506 -850 
L 844 -850 
Q 1081 -850 1212 -737 
Q 1344 -625 1503 -206 
L 1606 56 
L 191 3500 
L 800 3500 
L 1894 763 
L 2988 3500 
L 3597 3500 
L 2059 -325 
z
" transform="scale(0.015625)"/>
       <path id="DejaVuSans-28" d="M 1984 4856 
Q 1566 4138 1362 3434 
Q 1159 2731 1159 2009 
Q 1159 1288 1364 580 
Q 1569 -128 1984 -844 
L 1484 -844 
Q 1016 -109 783 600 
Q 550 1309 550 2009 
Q 550 2706 781 3412 
Q 1013 4119 1484 4856 
L 1984 4856 
z
" transform="scale(0.015625)"/>
       <path id="DejaVuSans-56" d="M 1831 0 
L 50 4666 
L 709 4666 
L 2188 738 
L 3669 4666 
L 4325 4666 
L 2547 0 
L 1831 0 
z
" transform="scale(0.015625)"/>
       <path id="DejaVuSans-29" d="M 513 4856 
L 1013 4856 
Q 1481 4119 1714 3412 
Q 1947 2706 1947 2009 
Q 1947 1309 1714 600 
Q 1481 -109 1013 -844 
L 513 -844 
Q 928 -128 1133 580 
Q 1338 1288 1338 2009 
Q 1338 2731 1133 3434 
Q 928 4138 513 4856 
z
" transform="scale(0.015625)"/>
      </defs>
      <use xlink:href="#DejaVuSans-42"/>
      <use xlink:href="#DejaVuSans-61" x="68.603516"/>
      <use xlink:href="#DejaVuSans-6c" x="129.882812"/>
      <use xlink:href="#DejaVuSans-61" x="157.666016"/>
      <use xlink:href="#DejaVuSans-6e" x="218.945312"/>
      <use xlink:href="#DejaVuSans-63" x="282.324219"/>
      <use xlink:href="#DejaVuSans-65" x="337.304688"/>
      <use xlink:href="#DejaVuSans-64" x="398.828125"/>
      <use xlink:href="#DejaVuSans-20" x="462.304688"/>
      <use xlink:href="#DejaVuSans-41" x="494.091797"/>
      <use xlink:href="#DejaVuSans-63" x="560.75"/>
      <use xlink:href="#DejaVuSans-63" x="615.730469"/>
      <use xlink:href="#DejaVuSans-75" x="670.710938"/>
      <use xlink:href="#DejaVuSans-72" x="734.089844"/>
      <use xlink:href="#DejaVuSans-61" x="775.203125"/>
      <use xlink:href="#DejaVuSans-63" x="836.482422"/>
      <use xlink:href="#DejaVuSans-79" x="891.462891"/>
      <use xlink:href="#DejaVuSans-20" x="950.642578"/>
      <use xlink:href="#DejaVuSans-28" x="982.429688"/>
      <use xlink:href="#DejaVuSans-56" x="1021.443359"/>
      <use xlink:href="#DejaVuSans-61" x="1082.101562"/>
      <use xlink:href="#DejaVuSans-6c" x="1143.380859"/>
      <use xlink:href="#DejaVuSans-20" x="1171.164062"/>
      <use xlink:href="#DejaVuSans-53" x="1202.951172"/>
      <use xlink:href="#DejaVuSans-65" x="1266.427734"/>
      <use xlink:href="#DejaVuSans-74" x="1327.951172"/>
      <use xlink:href="#DejaVuSans-29" x="1367.160156"/>
     </g>
    </g>
   </g>
   <g id="PolyCollection_1">
    <path d="M 57.423415 163.468695 
L 57.423415 207.681415 
L 59.752205 202.642858 
L 59.893344 202.341624 
L 59.963913 202.191186 
L 59.999198 202.116011 
L 60.281476 201.515681 
L 60.352045 201.365896 
L 60.457899 201.141441 
L 60.563753 200.917253 
L 60.634323 200.767944 
L 60.881316 200.2463 
L 60.9166 200.171898 
L 61.939857 198.027253 
L 62.292704 197.29356 
L 62.398558 197.074038 
L 87.979967 152.228301 
L 92.602263 145.872207 
L 92.919825 145.454018 
L 93.060964 145.268902 
L 93.131533 145.176518 
L 93.696089 144.441712 
L 93.801943 144.304776 
L 94.013651 144.031694 
L 94.260644 143.714427 
L 94.366498 143.578891 
L 94.895769 142.905107 
L 94.966338 142.815757 
L 96.977566 140.316654 
L 97.68326 139.461018 
L 97.930253 139.164095 
L 118.536519 118.358559 
L 125.487605 112.771123 
L 125.946307 112.422756 
L 126.158015 112.262774 
L 126.263869 112.182972 
L 127.110702 111.549052 
L 127.251841 111.444169 
L 127.569403 111.208982 
L 127.92225 110.949987 
L 128.133958 110.796224 
L 128.874937 110.267556 
L 128.980791 110.193224 
L 132.05056 108.161721 
L 133.073816 107.53549 
L 133.426663 107.325174 
L 149.093071 100.340569 
L 158.337663 97.448872 
L 158.937503 97.262617 
L 159.219781 97.174431 
L 159.396204 97.119119 
L 160.49003 96.772305 
L 160.701738 96.704308 
L 161.125155 96.567352 
L 161.619141 96.405827 
L 161.866133 96.324308 
L 162.88939 95.98066 
L 163.030529 95.932455 
L 167.088269 94.61907 
L 168.464373 94.210912 
L 168.958359 94.069467 
L 179.649623 91.795582 
L 191.223006 91.090553 
L 191.963984 91.084442 
L 192.316831 91.082015 
L 192.52854 91.080662 
L 193.904643 91.072483 
L 194.151636 91.070901 
L 194.716191 91.066845 
L 195.316031 91.061547 
L 195.633594 91.058193 
L 196.903843 91.039544 
L 197.080266 91.036146 
L 202.161263 90.796784 
L 203.890214 90.626626 
L 204.490054 90.553871 
L 210.206176 89.866671 
L 224.073064 88.877035 
L 224.990466 88.863816 
L 225.413882 88.860347 
L 225.660875 88.859097 
L 227.319256 88.865584 
L 227.601534 88.869276 
L 228.271943 88.881062 
L 228.977637 88.898034 
L 229.365769 88.909352 
L 230.883011 88.966863 
L 231.094719 88.976537 
L 237.198973 89.40801 
L 239.28077 89.607408 
L 239.986464 89.678639 
L 240.762728 89.758439 
L 256.923121 90.806459 
L 257.981662 90.76611 
L 258.475648 90.73998 
L 258.793211 90.721242 
L 260.698584 90.592802 
L 261.051431 90.566226 
L 261.827695 90.504985 
L 262.674528 90.434129 
L 263.097944 90.397241 
L 264.897464 90.230993 
L 265.144457 90.207117 
L 271.31928 89.561052 
L 272.236682 89.46138 
L 274.671327 89.197985 
L 275.518159 89.107349 
L 289.808464 87.680784 
L 291.008144 87.560691 
L 291.572699 87.503365 
L 291.925546 87.467238 
L 294.113198 87.237365 
L 294.501329 87.195414 
L 295.383447 87.098655 
L 296.336134 86.992615 
L 296.865404 86.933332 
L 298.876632 86.706059 
L 299.15891 86.673953 
L 301.875832 86.363371 
L 307.309676 85.7443 
L 310.061883 85.43943 
L 311.01457 85.336356 
L 322.658522 84.268631 
L 324.034625 84.177193 
L 324.66975 84.138335 
L 325.057881 84.115679 
L 327.527811 83.992258 
L 327.951227 83.974928 
L 328.939199 83.939155 
L 330.033024 83.907501 
L 330.59758 83.894578 
L 332.432384 83.869547 
L 332.891085 83.867524 
L 333.208648 83.867176 
L 342.347385 84.274086 
L 345.452439 84.611085 
L 346.546265 84.755045 
L 355.543864 86.440442 
L 357.061106 86.811302 
L 357.7668 86.992077 
L 358.190217 87.103043 
L 360.942424 87.869419 
L 361.436409 88.015131 
L 362.530235 88.346463 
L 363.729915 88.723455 
L 364.36504 88.928725 
L 366.905538 89.788427 
L 367.258385 89.91264 
L 377.42038 93.964685 
L 380.87828 95.539954 
L 382.07796 96.108292 
L 382.07796 38.201371 
L 382.07796 38.201371 
L 380.87828 38.956765 
L 377.42038 41.069524 
L 367.258385 46.693017 
L 366.905538 46.871736 
L 364.36504 48.124053 
L 363.729915 48.427548 
L 362.530235 48.990182 
L 361.436409 49.490919 
L 360.942424 49.713189 
L 358.190217 50.906806 
L 357.7668 51.083623 
L 357.061106 51.374231 
L 355.543864 51.981604 
L 346.546265 55.083274 
L 345.452439 55.401398 
L 342.347385 56.235677 
L 333.208648 58.135437 
L 332.891085 58.187865 
L 332.432384 58.262174 
L 330.59758 58.543392 
L 330.033024 58.624954 
L 328.939199 58.776638 
L 327.951227 58.906711 
L 327.527811 58.960513 
L 325.057881 59.252403 
L 324.66975 59.295028 
L 324.034625 59.362979 
L 322.658522 59.502826 
L 311.01457 60.362222 
L 310.061883 60.412626 
L 307.309676 60.545864 
L 301.875832 60.764346 
L 299.15891 60.856252 
L 298.876632 60.865262 
L 296.865404 60.926874 
L 296.336134 60.942385 
L 295.383447 60.969633 
L 294.501329 60.996441 
L 294.113198 61.009452 
L 291.925546 61.095572 
L 291.572699 61.111322 
L 291.008144 61.13748 
L 289.808464 61.196621 
L 275.518159 61.992811 
L 274.671327 62.032875 
L 272.236682 62.14052 
L 271.31928 62.178466 
L 265.144457 62.415262 
L 264.897464 62.424788 
L 263.097944 62.496585 
L 262.674528 62.51428 
L 261.827695 62.550863 
L 261.051431 62.586009 
L 260.698584 62.602559 
L 258.793211 62.699203 
L 258.475648 62.716647 
L 257.981662 62.744001 
L 256.923121 62.801837 
L 240.762728 63.277129 
L 239.986464 63.265578 
L 239.28077 63.251339 
L 237.198973 63.188131 
L 231.094719 62.82335 
L 230.883011 62.806323 
L 229.365769 62.677218 
L 228.977637 62.642361 
L 228.271943 62.577301 
L 227.601534 62.513689 
L 227.319256 62.486437 
L 225.660875 62.321937 
L 225.413882 62.29695 
L 224.990466 62.253926 
L 224.073064 62.160217 
L 210.206176 61.271228 
L 204.490054 61.674958 
L 203.890214 61.755543 
L 202.161263 61.996418 
L 197.080266 62.75429 
L 196.903843 62.781266 
L 195.633594 62.975477 
L 195.316031 63.023928 
L 194.716191 63.115205 
L 194.151636 63.200723 
L 193.904643 63.23799 
L 192.52854 63.443503 
L 192.316831 63.474746 
L 191.963984 63.526561 
L 191.223006 63.63425 
L 179.649623 65.076572 
L 168.958359 66.584469 
L 168.464373 66.6866 
L 167.088269 66.996007 
L 163.030529 68.161093 
L 162.88939 68.209059 
L 161.866133 68.555637 
L 161.619141 68.639036 
L 161.125155 68.805605 
L 160.701738 68.948189 
L 160.49003 69.019432 
L 159.396204 69.38728 
L 159.219781 69.44661 
L 158.937503 69.541561 
L 158.337663 69.743484 
L 149.093071 72.992647 
L 133.426663 80.637734 
L 133.073816 80.868912 
L 132.05056 81.559456 
L 128.980791 83.823347 
L 128.874937 83.906867 
L 128.133958 84.502204 
L 127.92225 84.675783 
L 127.569403 84.968572 
L 127.251841 85.234598 
L 127.110702 85.353178 
L 126.263869 86.069138 
L 126.158015 86.159174 
L 125.946307 86.339605 
L 125.487605 86.732189 
L 118.536519 92.957633 
L 97.930253 114.313395 
L 97.68326 114.592886 
L 96.977566 115.394057 
L 94.966338 117.69811 
L 94.895769 117.779494 
L 94.366498 118.391013 
L 94.260644 118.513555 
L 94.013651 118.799793 
L 93.801943 119.045478 
L 93.696089 119.168437 
L 93.131533 119.825515 
L 93.060964 119.907802 
L 92.919825 120.072457 
L 92.602263 120.443276 
L 87.979967 125.889047 
L 62.398558 157.143793 
L 62.292704 157.277279 
L 61.939857 157.722554 
L 60.9166 159.016725 
L 60.881316 159.061429 
L 60.634323 159.374504 
L 60.563753 159.464001 
L 60.457899 159.598286 
L 60.352045 159.732619 
L 60.281476 159.822201 
L 59.999198 160.180741 
L 59.963913 160.225583 
L 59.893344 160.315283 
L 59.752205 160.494747 
L 57.423415 163.468695 
z
" clip-path="url(#p3b6180f169)" style="fill: #999999; fill-opacity: 0.4"/>
   </g>
   <g id="line2d_22">
    <path d="M 57.423415 185.575055 
L 62.398558 177.108916 
L 87.979967 139.058674 
L 94.966338 130.256933 
L 97.930253 126.738745 
L 118.536519 105.658096 
L 127.92225 97.812885 
L 128.980791 97.008286 
L 133.426663 93.981454 
L 149.093071 86.666608 
L 163.030529 82.046774 
L 168.958359 80.326968 
L 179.649623 78.436077 
L 210.206176 75.568949 
L 225.660875 75.590517 
L 231.094719 75.899944 
L 240.762728 76.517784 
L 258.475648 76.728313 
L 265.144457 76.311189 
L 289.808464 74.438702 
L 322.658522 71.885728 
L 358.190217 69.004924 
L 382.07796 67.154831 
L 382.07796 67.154831 
" clip-path="url(#p3b6180f169)" style="fill: none; stroke: #db5f57; stroke-width: 1.772454; stroke-linejoin: miter"/>
   </g>
   <g id="PolyCollection_2">
    <path d="M 57.423415 220.072602 
L 57.423415 280.121371 
L 59.752205 276.928233 
L 59.893344 276.737913 
L 59.963913 276.642891 
L 59.999198 276.595415 
L 60.281476 276.216438 
L 60.352045 276.121926 
L 60.457899 275.98033 
L 60.563753 275.838944 
L 60.634323 275.744803 
L 60.881316 275.41604 
L 60.9166 275.369168 
L 61.939857 274.020028 
L 62.292704 273.559389 
L 62.398558 273.421658 
L 87.979967 246.783708 
L 92.602263 243.396372 
L 92.919825 243.178222 
L 93.060964 243.081845 
L 93.131533 243.033789 
L 93.696089 242.652493 
L 93.801943 242.581619 
L 94.013651 242.440452 
L 94.260644 242.276729 
L 94.366498 242.20688 
L 94.895769 241.860477 
L 94.966338 241.814645 
L 96.977566 240.542477 
L 97.68326 240.1112 
L 97.930253 239.962043 
L 118.536519 230.038548 
L 125.487605 227.46569 
L 125.946307 227.304755 
L 126.158015 227.230804 
L 126.263869 227.193905 
L 127.110702 226.900522 
L 127.251841 226.851932 
L 127.569403 226.742918 
L 127.92225 226.622131 
L 128.133958 226.549754 
L 128.874937 226.297014 
L 128.980791 226.260983 
L 132.05056 225.225231 
L 133.073816 224.884604 
L 133.426663 224.767785 
L 149.093071 220.115964 
L 158.337663 217.901196 
L 158.937503 217.763836 
L 159.219781 217.699219 
L 159.396204 217.658833 
L 160.49003 217.408182 
L 160.701738 217.359574 
L 161.125155 217.262217 
L 161.619141 217.14834 
L 161.866133 217.091261 
L 162.88939 216.853546 
L 163.030529 216.820577 
L 167.088269 215.861865 
L 168.464373 215.539848 
L 168.958359 215.425772 
L 179.649623 213.466906 
L 191.223006 213.057256 
L 191.963984 213.079131 
L 192.316831 213.090438 
L 192.52854 213.09745 
L 193.904643 213.14583 
L 194.151636 213.154788 
L 194.716191 213.175243 
L 195.316031 213.196609 
L 195.633594 213.207619 
L 196.903843 213.248033 
L 197.080266 213.253029 
L 202.161263 213.27089 
L 203.890214 213.193074 
L 204.490054 213.15272 
L 210.206176 212.665196 
L 224.073064 211.580333 
L 224.990466 211.549762 
L 225.413882 211.538332 
L 225.660875 211.532465 
L 227.319256 211.5088 
L 227.601534 211.50756 
L 228.271943 211.507929 
L 228.977637 211.513399 
L 229.365769 211.518639 
L 230.883011 211.554326 
L 231.094719 211.561219 
L 237.198973 211.945061 
L 239.28077 212.142985 
L 239.986464 212.215275 
L 240.762728 212.297075 
L 256.923121 213.438519 
L 257.981662 213.396657 
L 258.475648 213.369082 
L 258.793211 213.34927 
L 260.698584 213.214833 
L 261.051431 213.187206 
L 261.827695 213.123686 
L 262.674528 213.050371 
L 263.097944 213.012252 
L 264.897464 212.840639 
L 265.144457 212.815995 
L 271.31928 212.143973 
L 272.236682 212.038481 
L 274.671327 211.75529 
L 275.518159 211.65591 
L 289.808464 209.754131 
L 291.008144 209.547324 
L 291.572699 209.445586 
L 291.925546 209.380483 
L 294.113198 208.948892 
L 294.501329 208.866995 
L 295.383447 208.674558 
L 296.336134 208.461102 
L 296.865404 208.341831 
L 298.876632 207.884453 
L 299.15891 207.819767 
L 301.875832 207.191773 
L 307.309676 205.91515 
L 310.061883 205.264644 
L 311.01457 205.039855 
L 322.658522 202.396149 
L 324.034625 202.107881 
L 324.66975 201.977468 
L 325.057881 201.898644 
L 327.527811 201.414043 
L 327.951227 201.334165 
L 328.939199 201.151757 
L 330.033024 200.956661 
L 330.59758 200.858944 
L 332.432384 200.556374 
L 332.891085 200.484517 
L 333.208648 200.435749 
L 342.347385 199.452424 
L 345.452439 199.325163 
L 346.546265 199.30715 
L 355.543864 199.6951 
L 357.061106 199.853267 
L 357.7668 199.935673 
L 358.190217 199.987783 
L 360.942424 200.374469 
L 361.436409 200.452534 
L 362.530235 200.634579 
L 363.729915 200.848603 
L 364.36504 200.967903 
L 366.905538 201.485667 
L 367.258385 201.562617 
L 377.42038 204.270507 
L 380.87828 205.392974 
L 382.07796 205.804434 
L 382.07796 127.156494 
L 382.07796 127.156494 
L 380.87828 128.542898 
L 377.42038 132.429431 
L 367.258385 142.86265 
L 366.905538 143.197136 
L 364.36504 145.547871 
L 363.729915 146.119565 
L 362.530235 147.181721 
L 361.436409 148.129774 
L 360.942424 148.551495 
L 358.190217 150.826829 
L 357.7668 151.16558 
L 357.061106 151.723396 
L 355.543864 152.893843 
L 346.546265 159.007587 
L 345.452439 159.653191 
L 342.347385 161.371257 
L 333.208648 165.487451 
L 332.891085 165.606954 
L 332.432384 165.776988 
L 330.59758 166.427506 
L 330.033024 166.618447 
L 328.939199 166.976565 
L 327.951227 167.28705 
L 327.527811 167.416463 
L 325.057881 168.129875 
L 324.66975 168.23582 
L 324.034625 168.405746 
L 322.658522 168.759764 
L 311.01457 171.120522 
L 310.061883 171.273776 
L 307.309676 171.691174 
L 301.875832 172.423726 
L 299.15891 172.754717 
L 298.876632 172.788035 
L 296.865404 173.020416 
L 296.336134 173.080237 
L 295.383447 173.186679 
L 294.501329 173.284111 
L 294.113198 173.326702 
L 291.925546 173.563051 
L 291.572699 173.600479 
L 291.008144 173.659885 
L 289.808464 173.783909 
L 275.518159 174.829525 
L 274.671327 174.860218 
L 272.236682 174.931873 
L 271.31928 174.953531 
L 265.144457 175.069693 
L 264.897464 175.074846 
L 263.097944 175.118178 
L 262.674528 175.13023 
L 261.827695 175.156996 
L 261.051431 175.185074 
L 260.698584 175.199085 
L 258.793211 175.290337 
L 258.475648 175.30839 
L 257.981662 175.33763 
L 256.923121 175.40324 
L 240.762728 176.330726 
L 239.986464 176.341622 
L 239.28077 176.346737 
L 237.198973 176.333783 
L 231.094719 176.040521 
L 230.883011 176.02364 
L 229.365769 175.890718 
L 228.977637 175.853505 
L 228.271943 175.782725 
L 227.601534 175.711966 
L 227.319256 175.681208 
L 225.660875 175.490262 
L 225.413882 175.460495 
L 224.990466 175.408779 
L 224.073064 175.294124 
L 210.206176 173.827477 
L 204.490054 173.929998 
L 203.890214 173.980988 
L 202.161263 174.15485 
L 197.080266 174.841218 
L 196.903843 174.868244 
L 195.633594 175.066275 
L 195.316031 175.116515 
L 194.716191 175.211925 
L 194.151636 175.302109 
L 193.904643 175.341619 
L 192.52854 175.561252 
L 192.316831 175.594836 
L 191.963984 175.650607 
L 191.223006 175.766694 
L 179.649623 177.177719 
L 168.958359 178.096236 
L 168.464373 178.156916 
L 167.088269 178.344812 
L 163.030529 179.102108 
L 162.88939 179.134753 
L 161.866133 179.376447 
L 161.619141 179.436079 
L 161.125155 179.556806 
L 160.701738 179.661808 
L 160.49003 179.714824 
L 159.396204 179.994044 
L 159.219781 180.039888 
L 158.937503 180.11369 
L 158.337663 180.272331 
L 149.093071 182.9726 
L 133.426663 188.521476 
L 133.073816 188.666628 
L 132.05056 189.094605 
L 128.980791 190.44598 
L 128.874937 190.49449 
L 128.133958 190.837779 
L 127.92225 190.937069 
L 127.569403 191.103755 
L 127.251841 191.254654 
L 127.110702 191.321848 
L 126.263869 191.726656 
L 126.158015 191.777453 
L 125.946307 191.879177 
L 125.487605 192.100167 
L 118.536519 195.539554 
L 97.930253 206.210354 
L 97.68326 206.335836 
L 96.977566 206.69314 
L 94.966338 207.700394 
L 94.895769 207.735408 
L 94.366498 207.997244 
L 94.260644 208.049445 
L 94.013651 208.171024 
L 93.801943 208.274982 
L 93.696089 208.326873 
L 93.131533 208.6026 
L 93.060964 208.636942 
L 92.919825 208.705529 
L 92.602263 208.859343 
L 87.979967 211.010298 
L 62.398558 219.189254 
L 62.292704 219.210132 
L 61.939857 219.279049 
L 60.9166 219.473093 
L 60.881316 219.479631 
L 60.634323 219.525118 
L 60.563753 219.538024 
L 60.457899 219.557307 
L 60.352045 219.576501 
L 60.281476 219.589246 
L 59.999198 219.63983 
L 59.963913 219.646109 
L 59.893344 219.658636 
L 59.752205 219.683571 
L 57.423415 220.072602 
z
" clip-path="url(#p3b6180f169)" style="fill: #999999; fill-opacity: 0.4"/>
   </g>
   <g id="line2d_23">
    <path d="M 57.423415 250.096986 
L 62.398558 246.305456 
L 87.979967 228.897003 
L 96.977566 223.617808 
L 97.930253 223.086198 
L 118.536519 212.789051 
L 128.980791 208.353481 
L 133.426663 206.644631 
L 149.093071 201.544282 
L 161.866133 198.233854 
L 167.088269 197.103338 
L 168.958359 196.761004 
L 179.649623 195.322312 
L 197.080266 194.047123 
L 210.206176 193.246337 
L 225.660875 193.511363 
L 240.762728 194.3139 
L 258.475648 194.338736 
L 275.518159 193.242717 
L 291.925546 191.471767 
L 299.15891 190.287242 
L 310.061883 188.26921 
L 311.01457 188.080188 
L 325.057881 185.014259 
L 333.208648 182.9616 
L 346.546265 179.157368 
L 360.942424 174.462982 
L 367.258385 172.212633 
L 382.07796 166.480464 
L 382.07796 166.480464 
" clip-path="url(#p3b6180f169)" style="fill: none; stroke-dasharray: 6.558079,2.835926; stroke-dashoffset: 0; stroke: #db5f57; stroke-width: 1.772454; stroke-linejoin: miter"/>
   </g>
   <g id="PolyCollection_3">
    <path d="M 57.423415 119.752169 
L 57.423415 151.746476 
L 59.752205 148.406085 
L 59.893344 148.206395 
L 59.963913 148.106669 
L 59.999198 148.056835 
L 60.281476 147.658883 
L 60.352045 147.559593 
L 60.457899 147.410808 
L 60.563753 147.262202 
L 60.634323 147.16323 
L 60.881316 146.817457 
L 60.9166 146.768141 
L 61.939857 145.346659 
L 62.292704 144.860402 
L 62.398558 144.714917 
L 87.979967 115.099457 
L 92.602263 110.936893 
L 92.919825 110.663537 
L 93.060964 110.542555 
L 93.131533 110.482184 
L 93.696089 110.002179 
L 93.801943 109.912763 
L 94.013651 109.734479 
L 94.260644 109.527403 
L 94.366498 109.438958 
L 94.895769 108.999441 
L 94.966338 108.941177 
L 96.977566 107.31345 
L 97.68326 106.756994 
L 97.930253 106.563992 
L 118.536519 93.144893 
L 125.487605 89.554184 
L 125.946307 89.329907 
L 126.158015 89.226886 
L 126.263869 89.175491 
L 127.110702 88.767078 
L 127.251841 88.699479 
L 127.569403 88.547864 
L 127.92225 88.380631 
L 128.133958 88.281109 
L 128.874937 87.937549 
L 128.980791 87.889069 
L 132.05056 86.546194 
L 133.073816 86.124783 
L 133.426663 85.98241 
L 149.093071 80.987656 
L 158.337663 78.866893 
L 158.937503 78.735959 
L 159.219781 78.674316 
L 159.396204 78.635769 
L 160.49003 78.396167 
L 160.701738 78.349618 
L 161.125155 78.25629 
L 161.619141 78.146957 
L 161.866133 78.092081 
L 162.88939 77.86296 
L 163.030529 77.831103 
L 167.088269 77.037779 
L 168.464373 76.823923 
L 168.958359 76.753899 
L 179.649623 76.09248 
L 191.223006 76.816942 
L 191.963984 76.8817 
L 192.316831 76.9121 
L 192.52854 76.930159 
L 193.904643 77.042997 
L 194.151636 77.062196 
L 194.716191 77.104576 
L 195.316031 77.147007 
L 195.633594 77.168255 
L 196.903843 77.243467 
L 197.080266 77.252535 
L 202.161263 77.315182 
L 203.890214 77.223714 
L 204.490054 77.175504 
L 210.206176 76.566956 
L 224.073064 74.726547 
L 224.990466 74.614743 
L 225.413882 74.564339 
L 225.660875 74.535305 
L 227.319256 74.347858 
L 227.601534 74.317322 
L 228.271943 74.246483 
L 228.977637 74.174549 
L 229.365769 74.136167 
L 230.883011 73.994404 
L 231.094719 73.975691 
L 237.198973 73.549264 
L 239.28077 73.450494 
L 239.986464 73.421598 
L 240.762728 73.39222 
L 256.923121 72.917802 
L 257.981662 72.864013 
L 258.475648 72.836716 
L 258.793211 72.818458 
L 260.698584 72.699443 
L 261.051431 72.675789 
L 261.827695 72.622195 
L 262.674528 72.561518 
L 263.097944 72.530407 
L 264.897464 72.393478 
L 265.144457 72.374193 
L 271.31928 71.879009 
L 272.236682 71.806601 
L 274.671327 71.620278 
L 275.518159 71.557923 
L 289.808464 70.726824 
L 291.008144 70.67028 
L 291.572699 70.643851 
L 291.925546 70.627368 
L 294.113198 70.525282 
L 294.501329 70.507119 
L 295.383447 70.465716 
L 296.336134 70.421003 
L 296.865404 70.396277 
L 298.876632 70.303431 
L 299.15891 70.29058 
L 301.875832 70.17006 
L 307.309676 69.955202 
L 310.061883 69.866059 
L 311.01457 69.83919 
L 322.658522 69.749383 
L 324.034625 69.776946 
L 324.66975 69.793076 
L 325.057881 69.804033 
L 327.527811 69.894389 
L 327.951227 69.913636 
L 328.939199 69.963063 
L 330.033024 70.025426 
L 330.59758 70.060868 
L 332.432384 70.192073 
L 332.891085 70.228843 
L 333.208648 70.25525 
L 342.347385 71.371535 
L 345.452439 71.918679 
L 346.546265 72.132597 
L 355.543864 74.312444 
L 357.061106 74.75284 
L 357.7668 74.964663 
L 358.190217 75.09387 
L 360.942424 75.971889 
L 361.436409 76.136403 
L 362.530235 76.508067 
L 363.729915 76.927283 
L 364.36504 77.154074 
L 366.905538 78.094307 
L 367.258385 78.229024 
L 377.42038 82.520223 
L 380.87828 84.1525 
L 382.07796 84.738139 
L 382.07796 42.834093 
L 382.07796 42.834093 
L 380.87828 43.206366 
L 377.42038 44.24291 
L 367.258385 46.953365 
L 366.905538 47.037864 
L 364.36504 47.625983 
L 363.729915 47.767356 
L 362.530235 48.028096 
L 361.436409 48.258554 
L 360.942424 48.360329 
L 358.190217 48.900649 
L 357.7668 48.979695 
L 357.061106 49.108985 
L 355.543864 49.376482 
L 346.546265 50.660773 
L 345.452439 50.781239 
L 342.347385 51.081683 
L 333.208648 51.634609 
L 332.891085 51.645889 
L 332.432384 51.661429 
L 330.59758 51.715612 
L 330.033024 51.729841 
L 328.939199 51.754337 
L 327.951227 51.773149 
L 327.527811 51.780295 
L 325.057881 51.811851 
L 324.66975 51.815344 
L 324.034625 51.820267 
L 322.658522 51.827736 
L 311.01457 51.766787 
L 310.061883 51.755541 
L 307.309676 51.720484 
L 301.875832 51.645457 
L 299.15891 51.607733 
L 298.876632 51.603871 
L 296.865404 51.576837 
L 296.336134 51.569888 
L 295.383447 51.557583 
L 294.501329 51.548367 
L 294.113198 51.545587 
L 291.925546 51.543647 
L 291.572699 51.545384 
L 291.008144 51.549259 
L 289.808464 51.561696 
L 275.518159 51.936627 
L 274.671327 51.962385 
L 272.236682 52.036001 
L 271.31928 52.063741 
L 265.144457 52.26276 
L 264.897464 52.27166 
L 263.097944 52.34024 
L 262.674528 52.357463 
L 261.827695 52.393338 
L 261.051431 52.428048 
L 260.698584 52.444448 
L 258.793211 52.540453 
L 258.475648 52.557775 
L 257.981662 52.585958 
L 256.923121 52.6524 
L 240.762728 54.229156 
L 239.986464 54.307923 
L 239.28077 54.37806 
L 237.198973 54.575383 
L 231.094719 55.050071 
L 230.883011 55.063463 
L 229.365769 55.153418 
L 228.977637 55.174766 
L 228.271943 55.211902 
L 227.601534 55.245237 
L 227.319256 55.258724 
L 225.660875 55.331826 
L 225.413882 55.341873 
L 224.990466 55.358632 
L 224.073064 55.393059 
L 210.206176 55.87401 
L 204.490054 56.277426 
L 203.890214 56.331303 
L 202.161263 56.473945 
L 197.080266 56.786515 
L 196.903843 56.794508 
L 195.633594 56.846342 
L 195.316031 56.857727 
L 194.716191 56.877515 
L 194.151636 56.894085 
L 193.904643 56.900709 
L 192.52854 56.930671 
L 192.316831 56.934241 
L 191.963984 56.939581 
L 191.223006 56.948329 
L 179.649623 56.757405 
L 168.958359 56.864521 
L 168.464373 56.906096 
L 167.088269 57.048491 
L 163.030529 57.734499 
L 162.88939 57.766183 
L 161.866133 57.997425 
L 161.619141 58.053661 
L 161.125155 58.166644 
L 160.701738 58.264045 
L 160.49003 58.312943 
L 159.396204 58.567767 
L 159.219781 58.609221 
L 158.937503 58.675759 
L 158.337663 58.818031 
L 149.093071 61.197472 
L 133.426663 66.670182 
L 133.073816 66.82765 
L 132.05056 67.295601 
L 128.980791 68.806642 
L 128.874937 68.861771 
L 128.133958 69.253576 
L 127.92225 69.367438 
L 127.569403 69.559126 
L 127.251841 69.733057 
L 127.110702 69.810569 
L 126.263869 70.27835 
L 126.158015 70.33715 
L 125.946307 70.454968 
L 125.487605 70.711242 
L 118.536519 74.763643 
L 97.930253 88.58091 
L 97.68326 88.761298 
L 96.977566 89.278341 
L 94.966338 90.76492 
L 94.895769 90.81742 
L 94.366498 91.21188 
L 94.260644 91.290921 
L 94.013651 91.475543 
L 93.801943 91.634001 
L 93.696089 91.713304 
L 93.131533 92.13706 
L 93.060964 92.190125 
L 92.919825 92.296301 
L 92.602263 92.535377 
L 87.979967 96.039191 
L 62.398558 115.8196 
L 62.292704 115.902825 
L 61.939857 116.180371 
L 60.9166 116.986411 
L 60.881316 117.014237 
L 60.634323 117.209079 
L 60.563753 117.264768 
L 60.457899 117.348317 
L 60.352045 117.431886 
L 60.281476 117.48761 
L 59.999198 117.710593 
L 59.963913 117.738476 
L 59.893344 117.794248 
L 59.752205 117.90582 
L 57.423415 119.752169 
z
" clip-path="url(#p3b6180f169)" style="fill: #999999; fill-opacity: 0.4"/>
   </g>
   <g id="line2d_24">
    <path d="M 57.423415 135.749322 
L 62.398558 130.267258 
L 87.979967 105.569324 
L 94.966338 99.853049 
L 97.930253 97.572451 
L 118.536519 83.954268 
L 128.133958 78.767342 
L 132.05056 76.920897 
L 133.426663 76.326296 
L 149.093071 71.092564 
L 163.030529 67.782801 
L 168.958359 66.80921 
L 179.649623 66.424943 
L 197.080266 67.019525 
L 204.490054 66.726465 
L 228.271943 64.729193 
L 240.762728 63.810688 
L 272.236682 61.921301 
L 275.518159 61.747275 
L 295.383447 61.011649 
L 311.01457 60.802988 
L 330.59758 60.88824 
L 342.347385 61.226609 
L 355.543864 61.844463 
L 367.258385 62.591195 
L 382.07796 63.786116 
L 382.07796 63.786116 
" clip-path="url(#p3b6180f169)" style="fill: none; stroke: #57db5f; stroke-width: 1.772454; stroke-linejoin: miter"/>
   </g>
   <g id="PolyCollection_4">
    <path d="M 57.423415 255.902694 
L 57.423415 263.504171 
L 59.752205 263.295534 
L 59.893344 263.283232 
L 59.963913 263.277096 
L 59.999198 263.274031 
L 60.281476 263.249605 
L 60.352045 263.243523 
L 60.457899 263.234419 
L 60.563753 263.225337 
L 60.634323 263.219295 
L 60.881316 263.198227 
L 60.9166 263.195227 
L 61.939857 263.109328 
L 62.292704 263.080201 
L 62.398558 263.071512 
L 87.979967 261.700054 
L 92.602263 261.60977 
L 92.919825 261.605166 
L 93.060964 261.603182 
L 93.131533 261.602205 
L 93.696089 261.594751 
L 93.801943 261.593424 
L 94.013651 261.590836 
L 94.260644 261.587928 
L 94.366498 261.586718 
L 94.895769 261.58099 
L 94.966338 261.580267 
L 96.977566 261.563482 
L 97.68326 261.559281 
L 97.930253 261.558009 
L 118.536519 261.709191 
L 125.487605 261.824837 
L 125.946307 261.832891 
L 126.158015 261.836619 
L 126.263869 261.838486 
L 127.110702 261.853472 
L 127.251841 261.855978 
L 127.569403 261.861625 
L 127.92225 261.867914 
L 128.133958 261.871696 
L 128.874937 261.884976 
L 128.980791 261.886879 
L 132.05056 261.942705 
L 133.073816 261.961626 
L 133.426663 261.968193 
L 149.093071 262.295456 
L 158.337663 262.509388 
L 158.937503 262.522448 
L 159.219781 262.528521 
L 159.396204 262.532291 
L 160.49003 262.555202 
L 160.701738 262.559537 
L 161.125155 262.568102 
L 161.619141 262.577911 
L 161.866133 262.582737 
L 162.88939 262.602142 
L 163.030529 262.60474 
L 167.088269 262.687048 
L 168.464373 262.718913 
L 168.958359 262.730902 
L 179.649623 263.078614 
L 191.223006 263.634461 
L 191.963984 263.671668 
L 192.316831 263.689236 
L 192.52854 263.699721 
L 193.904643 263.766642 
L 194.151636 263.778384 
L 194.716191 263.804861 
L 195.316031 263.832379 
L 195.633594 263.846667 
L 196.903843 263.901612 
L 197.080266 263.908937 
L 202.161263 264.077497 
L 203.890214 264.111335 
L 204.490054 264.119698 
L 210.206176 264.151573 
L 224.073064 264.020304 
L 224.990466 264.00751 
L 225.413882 264.001607 
L 225.660875 263.998169 
L 227.319256 263.975271 
L 227.601534 263.971422 
L 228.271943 263.962355 
L 228.977637 263.952939 
L 229.365769 263.947822 
L 230.883011 263.928291 
L 231.094719 263.925628 
L 237.198973 263.85526 
L 239.28077 263.833098 
L 239.986464 263.825584 
L 240.762728 263.817246 
L 256.923121 263.516572 
L 257.981662 263.480402 
L 258.475648 263.462516 
L 258.793211 263.450641 
L 260.698584 263.372687 
L 261.051431 263.35706 
L 261.827695 263.321461 
L 262.674528 263.280807 
L 263.097944 263.259808 
L 264.897464 263.165979 
L 265.144457 263.152565 
L 271.31928 262.786001 
L 272.236682 262.727904 
L 274.671327 262.571343 
L 275.518159 262.516358 
L 289.808464 261.610129 
L 291.008144 261.538987 
L 291.572699 261.505881 
L 291.925546 261.485316 
L 294.113198 261.360106 
L 294.501329 261.33833 
L 295.383447 261.289372 
L 296.336134 261.236608 
L 296.865404 261.207041 
L 298.876632 261.093155 
L 299.15891 261.07699 
L 301.875832 260.919418 
L 307.309676 260.596351 
L 310.061883 260.430684 
L 311.01457 260.373298 
L 322.658522 259.691951 
L 324.034625 259.616514 
L 324.66975 259.582258 
L 325.057881 259.561509 
L 327.527811 259.433072 
L 327.951227 259.411729 
L 328.939199 259.362767 
L 330.033024 259.309998 
L 330.59758 259.283386 
L 332.432384 259.200029 
L 332.891085 259.179978 
L 333.208648 259.166283 
L 342.347385 258.840112 
L 345.452439 258.761666 
L 346.546265 258.738135 
L 355.543864 258.62569 
L 357.061106 258.620678 
L 357.7668 258.619672 
L 358.190217 258.619468 
L 360.942424 258.625326 
L 361.436409 258.627674 
L 362.530235 258.634247 
L 363.729915 258.643605 
L 364.36504 258.649456 
L 366.905538 258.678927 
L 367.258385 258.683774 
L 377.42038 258.896816 
L 380.87828 258.999278 
L 382.07796 259.038099 
L 382.07796 249.082183 
L 382.07796 249.082183 
L 380.87828 249.270951 
L 377.42038 249.80257 
L 367.258385 251.253039 
L 366.905538 251.300276 
L 364.36504 251.633924 
L 363.729915 251.715545 
L 362.530235 251.867736 
L 361.436409 252.00422 
L 360.942424 252.065139 
L 358.190217 252.396262 
L 357.7668 252.445945 
L 357.061106 252.527995 
L 355.543864 252.701194 
L 346.546265 253.636678 
L 345.452439 253.739654 
L 342.347385 254.019478 
L 333.208648 254.742234 
L 332.891085 254.764884 
L 332.432384 254.797363 
L 330.59758 254.924765 
L 330.033024 254.963178 
L 328.939199 255.036584 
L 327.951227 255.10176 
L 327.527811 255.129373 
L 325.057881 255.286774 
L 324.66975 255.310957 
L 324.034625 255.350215 
L 322.658522 255.433975 
L 311.01457 256.079504 
L 310.061883 256.127835 
L 307.309676 256.263993 
L 301.875832 256.518187 
L 299.15891 256.638162 
L 298.876632 256.650356 
L 296.865404 256.73576 
L 296.336134 256.757801 
L 295.383447 256.797019 
L 294.501329 256.83395 
L 294.113198 256.85075 
L 291.925546 256.951245 
L 291.572699 256.968307 
L 291.008144 256.996054 
L 289.808464 257.056717 
L 275.518159 257.854565 
L 274.671327 257.900855 
L 272.236682 258.030639 
L 271.31928 258.078123 
L 265.144457 258.374321 
L 264.897464 258.385268 
L 263.097944 258.462858 
L 262.674528 258.480558 
L 261.827695 258.515318 
L 261.051431 258.546431 
L 260.698584 258.560335 
L 258.793211 258.632822 
L 258.475648 258.644475 
L 257.981662 258.662571 
L 256.923121 258.701747 
L 240.762728 259.264324 
L 239.986464 259.284396 
L 239.28077 259.301709 
L 237.198973 259.347286 
L 231.094719 259.42912 
L 230.883011 259.430518 
L 229.365769 259.437741 
L 228.977637 259.43881 
L 228.271943 259.439959 
L 227.601534 259.440116 
L 227.319256 259.439914 
L 225.660875 259.435644 
L 225.413882 259.434572 
L 224.990466 259.432481 
L 224.073064 259.426891 
L 210.206176 259.235169 
L 204.490054 259.154557 
L 203.890214 259.14754 
L 202.161263 259.12586 
L 197.080266 259.046448 
L 196.903843 259.043176 
L 195.633594 259.018415 
L 195.316031 259.011881 
L 194.716191 258.999145 
L 194.151636 258.986675 
L 193.904643 258.981067 
L 192.52854 258.948075 
L 192.316831 258.942728 
L 191.963984 258.933651 
L 191.223006 258.913908 
L 179.649623 258.484824 
L 168.958359 258.005416 
L 168.464373 257.986668 
L 167.088269 257.937825 
L 163.030529 257.83002 
L 162.88939 257.82738 
L 161.866133 257.80848 
L 161.619141 257.803976 
L 161.125155 257.795035 
L 160.701738 257.787437 
L 160.49003 257.78366 
L 159.396204 257.764366 
L 159.219781 257.761286 
L 158.937503 257.756377 
L 158.337663 257.746011 
L 149.093071 257.593538 
L 133.426663 257.379831 
L 133.073816 257.376851 
L 132.05056 257.368987 
L 128.980791 257.353116 
L 128.874937 257.352792 
L 128.133958 257.350974 
L 127.92225 257.3506 
L 127.569403 257.350121 
L 127.251841 257.349776 
L 127.110702 257.349625 
L 126.263869 257.348744 
L 126.158015 257.348636 
L 125.946307 257.348424 
L 125.487605 257.347973 
L 118.536519 257.342019 
L 97.930253 257.285437 
L 97.68326 257.283712 
L 96.977566 257.278549 
L 94.966338 257.261798 
L 94.895769 257.261153 
L 94.366498 257.256175 
L 94.260644 257.255151 
L 94.013651 257.252724 
L 93.801943 257.250602 
L 93.696089 257.249526 
L 93.131533 257.243617 
L 93.060964 257.242858 
L 92.919825 257.241323 
L 92.602263 257.237783 
L 87.979967 257.171555 
L 62.398558 256.206319 
L 62.292704 256.200216 
L 61.939857 256.179756 
L 60.9166 256.119433 
L 60.881316 256.117327 
L 60.634323 256.102536 
L 60.563753 256.098294 
L 60.457899 256.091919 
L 60.352045 256.085528 
L 60.281476 256.08126 
L 59.999198 256.064115 
L 59.963913 256.061965 
L 59.893344 256.057658 
L 59.752205 256.049025 
L 57.423415 255.902694 
z
" clip-path="url(#p3b6180f169)" style="fill: #999999; fill-opacity: 0.4"/>
   </g>
   <g id="line2d_25">
    <path d="M 57.423415 259.703433 
L 62.398558 259.638916 
L 97.930253 259.421723 
L 133.426663 259.674012 
L 168.958359 260.368159 
L 204.490054 261.637128 
L 224.073064 261.723597 
L 239.986464 261.55499 
L 240.762728 261.540785 
L 263.097944 260.861333 
L 275.518159 260.185461 
L 301.875832 258.718803 
L 333.208648 256.954259 
L 382.07796 254.060141 
L 382.07796 254.060141 
" clip-path="url(#p3b6180f169)" style="fill: none; stroke-dasharray: 6.558079,2.835926; stroke-dashoffset: 0; stroke: #57db5f; stroke-width: 1.772454; stroke-linejoin: miter"/>
   </g>
   <g id="PolyCollection_5">
    <path d="M 57.423415 157.96554 
L 57.423415 199.156134 
L 59.752205 195.167388 
L 59.893344 194.929018 
L 59.963913 194.809979 
L 59.999198 194.750495 
L 60.281476 194.275501 
L 60.352045 194.156995 
L 60.457899 193.979418 
L 60.563753 193.802061 
L 60.634323 193.683944 
L 60.881316 193.271301 
L 60.9166 193.21245 
L 61.939857 191.516386 
L 62.292704 190.936315 
L 62.398558 190.762773 
L 87.979967 155.591487 
L 92.602263 150.682476 
L 92.919825 150.360454 
L 93.060964 150.217945 
L 93.131533 150.146834 
L 93.696089 149.581415 
L 93.801943 149.476082 
L 94.013651 149.26606 
L 94.260644 149.022114 
L 94.366498 148.917919 
L 94.895769 148.400112 
L 94.966338 148.331468 
L 96.977566 146.4135 
L 97.68326 145.757724 
L 97.930253 145.530263 
L 118.536519 129.718817 
L 125.487605 125.508081 
L 125.946307 125.245909 
L 126.158015 125.125524 
L 126.263869 125.065476 
L 127.110702 124.588547 
L 127.251841 124.509651 
L 127.569403 124.332746 
L 127.92225 124.13759 
L 128.133958 124.02139 
L 128.874937 123.619907 
L 128.980791 123.563208 
L 132.05056 121.988229 
L 133.073816 121.492175 
L 133.426663 121.324389 
L 149.093071 115.388077 
L 158.337663 112.871877 
L 158.937503 112.717834 
L 159.219781 112.645379 
L 159.396204 112.600093 
L 160.49003 112.31899 
L 160.701738 112.264456 
L 161.125155 112.155196 
L 161.619141 112.027329 
L 161.866133 111.963203 
L 162.88939 111.69584 
L 163.030529 111.658715 
L 167.088269 110.720402 
L 168.464373 110.461287 
L 168.958359 110.375644 
L 179.649623 109.497545 
L 191.223006 110.311577 
L 191.963984 110.390525 
L 192.316831 110.427838 
L 192.52854 110.450086 
L 193.904643 110.590655 
L 194.151636 110.614884 
L 194.716191 110.668762 
L 195.316031 110.72336 
L 195.633594 110.751002 
L 196.903843 110.851209 
L 197.080266 110.863649 
L 202.161263 111.002566 
L 203.890214 110.923097 
L 204.490054 110.876818 
L 210.206176 110.310769 
L 224.073064 108.803749 
L 224.990466 108.72478 
L 225.413882 108.689934 
L 225.660875 108.670089 
L 227.319256 108.546427 
L 227.601534 108.527091 
L 228.271943 108.483226 
L 228.977637 108.440223 
L 229.365769 108.417971 
L 230.883011 108.34059 
L 231.094719 108.331008 
L 237.198973 108.174159 
L 239.28077 108.1646 
L 239.986464 108.164847 
L 240.762728 108.166675 
L 256.923121 107.861118 
L 257.981662 107.766825 
L 258.475648 107.71767 
L 258.793211 107.684382 
L 260.698584 107.460725 
L 261.051431 107.415113 
L 261.827695 107.310562 
L 262.674528 107.190329 
L 263.097944 107.127966 
L 264.897464 106.848112 
L 265.144457 106.808021 
L 271.31928 105.721763 
L 272.236682 105.553056 
L 274.671327 105.105374 
L 275.518159 104.950811 
L 289.808464 102.646517 
L 291.008144 102.485762 
L 291.572699 102.411921 
L 291.925546 102.366361 
L 294.113198 102.094164 
L 294.501329 102.047764 
L 295.383447 101.944527 
L 296.336134 101.834359 
L 296.865404 101.772874 
L 298.876632 101.53804 
L 299.15891 101.504996 
L 301.875832 101.187388 
L 307.309676 100.569346 
L 310.061883 100.275362 
L 311.01457 100.178028 
L 322.658522 99.285705 
L 324.034625 99.23036 
L 324.66975 99.209425 
L 325.057881 99.198124 
L 327.527811 99.154338 
L 327.951227 99.151977 
L 328.939199 99.152681 
L 330.033024 99.163995 
L 330.59758 99.174333 
L 332.432384 99.230137 
L 332.891085 99.249601 
L 333.208648 99.264385 
L 342.347385 100.167918 
L 345.452439 100.698563 
L 346.546265 100.913541 
L 355.543864 103.23601 
L 357.061106 103.723316 
L 357.7668 103.95912 
L 358.190217 104.103368 
L 360.942424 105.090867 
L 361.436409 105.277144 
L 362.530235 105.699242 
L 363.729915 106.177275 
L 364.36504 106.436668 
L 366.905538 107.517199 
L 367.258385 107.672631 
L 377.42038 112.680243 
L 380.87828 114.605129 
L 382.07796 115.297601 
L 382.07796 61.348861 
L 382.07796 61.348861 
L 380.87828 61.889638 
L 377.42038 63.400687 
L 367.258385 67.40725 
L 366.905538 67.534044 
L 364.36504 68.421166 
L 363.729915 68.635762 
L 362.530235 69.033127 
L 361.436409 69.386223 
L 360.942424 69.542775 
L 358.190217 70.381295 
L 357.7668 70.50516 
L 357.061106 70.708517 
L 355.543864 71.132577 
L 346.546265 73.269961 
L 345.452439 73.48548 
L 342.347385 74.046051 
L 333.208648 75.291518 
L 332.891085 75.325254 
L 332.432384 75.373135 
L 330.59758 75.556007 
L 330.033024 75.609616 
L 328.939199 75.710128 
L 327.951227 75.797278 
L 327.527811 75.833618 
L 325.057881 76.034357 
L 324.66975 76.064262 
L 324.034625 76.112301 
L 322.658522 76.212747 
L 311.01457 76.910981 
L 310.061883 76.959246 
L 307.309676 77.093329 
L 301.875832 77.338164 
L 299.15891 77.452042 
L 298.876632 77.46357 
L 296.865404 77.544066 
L 296.336134 77.564771 
L 295.383447 77.601533 
L 294.501329 77.639601 
L 294.113198 77.659039 
L 291.925546 77.797308 
L 291.572699 77.823885 
L 291.008144 77.868688 
L 289.808464 77.972659 
L 275.518159 79.689665 
L 274.671327 79.797113 
L 272.236682 80.099691 
L 271.31928 80.210891 
L 265.144457 80.915855 
L 264.897464 80.942577 
L 263.097944 81.134436 
L 262.674528 81.178919 
L 261.827695 81.267221 
L 261.051431 81.347461 
L 260.698584 81.383732 
L 258.793211 81.577767 
L 258.475648 81.609849 
L 257.981662 81.660146 
L 256.923121 81.770729 
L 240.762728 83.495473 
L 239.986464 83.55723 
L 239.28077 83.61008 
L 237.198973 83.746519 
L 231.094719 83.965501 
L 230.883011 83.968232 
L 229.365769 83.978914 
L 228.977637 83.979234 
L 228.271943 83.977438 
L 227.601534 83.973019 
L 227.319256 83.970406 
L 225.660875 83.946856 
L 225.413882 83.942257 
L 224.990466 83.933788 
L 224.073064 83.913138 
L 210.206176 83.669944 
L 204.490054 83.971899 
L 203.890214 84.025474 
L 202.161263 84.170826 
L 197.080266 84.514976 
L 196.903843 84.524502 
L 195.633594 84.587857 
L 195.316031 84.602229 
L 194.716191 84.627734 
L 194.151636 84.64975 
L 193.904643 84.658767 
L 192.52854 84.702043 
L 192.316831 84.707642 
L 191.963984 84.716341 
L 191.223006 84.732028 
L 179.649623 84.604892 
L 168.958359 84.769361 
L 168.464373 84.818377 
L 167.088269 84.985491 
L 163.030529 85.785642 
L 162.88939 85.822545 
L 161.866133 86.092637 
L 161.619141 86.158514 
L 161.125155 86.291081 
L 160.701738 86.405584 
L 160.49003 86.463142 
L 159.396204 86.763842 
L 159.219781 86.812871 
L 158.937503 86.891628 
L 158.337663 87.060268 
L 149.093071 89.909499 
L 133.426663 96.461148 
L 133.073816 96.648369 
L 132.05056 97.20434 
L 128.980791 98.995823 
L 128.874937 99.061081 
L 128.133958 99.524677 
L 127.92225 99.659338 
L 127.569403 99.885979 
L 127.251841 100.091614 
L 127.110702 100.183272 
L 126.263869 100.736633 
L 126.158015 100.806214 
L 125.946307 100.945651 
L 125.487605 101.249017 
L 118.536519 106.05415 
L 97.930253 122.378213 
L 97.68326 122.589433 
L 96.977566 123.194468 
L 94.966338 124.930716 
L 94.895769 124.99194 
L 94.366498 125.451739 
L 94.260644 125.543827 
L 94.013651 125.758865 
L 93.801943 125.943364 
L 93.696089 126.035675 
L 93.131533 126.528678 
L 93.060964 126.590383 
L 92.919825 126.713828 
L 92.602263 126.99172 
L 87.979967 131.052632 
L 62.398558 153.561928 
L 62.292704 153.655314 
L 61.939857 153.966683 
L 60.9166 154.870406 
L 60.881316 154.90159 
L 60.634323 155.119919 
L 60.563753 155.182312 
L 60.457899 155.275913 
L 60.352045 155.369527 
L 60.281476 155.431945 
L 59.999198 155.681677 
L 59.963913 155.712901 
L 59.893344 155.775353 
L 59.752205 155.900277 
L 57.423415 157.96554 
z
" clip-path="url(#p3b6180f169)" style="fill: #999999; fill-opacity: 0.4"/>
   </g>
   <g id="line2d_26">
    <path d="M 57.423415 178.560837 
L 62.398558 172.16235 
L 87.979967 143.32206 
L 94.966338 136.631092 
L 97.930253 133.954238 
L 118.536519 117.886484 
L 128.133958 111.773034 
L 132.05056 109.596284 
L 133.426663 108.892768 
L 149.093071 102.648788 
L 162.88939 98.759193 
L 163.030529 98.722178 
L 168.464373 97.639832 
L 168.958359 97.572503 
L 179.649623 97.051218 
L 197.080266 97.689312 
L 203.890214 97.474285 
L 210.206176 96.990357 
L 231.094719 96.148255 
L 240.762728 95.831074 
L 258.793211 94.631075 
L 265.144457 93.861938 
L 291.925546 90.081835 
L 299.15891 89.478519 
L 311.01457 88.544505 
L 328.939199 87.431405 
L 333.208648 87.277951 
L 346.546265 87.091751 
L 362.530235 87.366185 
L 367.258385 87.53994 
L 382.07796 88.323231 
L 382.07796 88.323231 
" clip-path="url(#p3b6180f169)" style="fill: none; stroke: #5f57db; stroke-width: 1.772454; stroke-linejoin: miter"/>
   </g>
   <g id="PolyCollection_6">
    <path d="M 57.423415 234.875333 
L 57.423415 269.471944 
L 59.752205 268.457773 
L 59.893344 268.397721 
L 59.963913 268.367756 
L 59.999198 268.352789 
L 60.281476 268.233421 
L 60.352045 268.203681 
L 60.457899 268.159149 
L 60.563753 268.114709 
L 60.634323 268.085134 
L 60.881316 267.981945 
L 60.9166 267.967245 
L 61.939857 267.545458 
L 62.292704 267.402049 
L 62.398558 267.359231 
L 87.979967 260.010569 
L 92.602263 259.325002 
L 92.919825 259.28425 
L 93.060964 259.266386 
L 93.131533 259.25751 
L 93.696089 259.187775 
L 93.801943 259.174949 
L 94.013651 259.149531 
L 94.260644 259.120266 
L 94.366498 259.107851 
L 94.895769 259.046913 
L 94.966338 259.038929 
L 96.977566 258.82486 
L 97.68326 258.755663 
L 97.930253 258.732138 
L 118.536519 257.667377 
L 125.487605 257.542534 
L 125.946307 257.53626 
L 126.158015 257.533429 
L 126.263869 257.532029 
L 127.110702 257.521174 
L 127.251841 257.519422 
L 127.569403 257.51554 
L 127.92225 257.511138 
L 128.133958 257.508369 
L 128.874937 257.497938 
L 128.980791 257.496356 
L 132.05056 257.44129 
L 133.073816 257.419521 
L 133.426663 257.411694 
L 149.093071 257.047952 
L 158.337663 256.883942 
L 158.937503 256.871531 
L 159.219781 256.865494 
L 159.396204 256.861652 
L 160.49003 256.836541 
L 160.701738 256.831401 
L 161.125155 256.820825 
L 161.619141 256.807957 
L 161.866133 256.801298 
L 162.88939 256.771994 
L 163.030529 256.767722 
L 167.088269 256.593152 
L 168.464373 256.516582 
L 168.958359 256.48778 
L 179.649623 255.923413 
L 191.223006 255.98176 
L 191.963984 256.008797 
L 192.316831 256.022157 
L 192.52854 256.030299 
L 193.904643 256.084912 
L 194.151636 256.094909 
L 194.716191 256.117821 
L 195.316031 256.142098 
L 195.633594 256.154851 
L 196.903843 256.204431 
L 197.080266 256.211059 
L 202.161263 256.34522 
L 203.890214 256.352195 
L 204.490054 256.348399 
L 210.206176 256.222349 
L 224.073064 255.74907 
L 224.990466 255.733582 
L 225.413882 255.727747 
L 225.660875 255.72474 
L 227.319256 255.712483 
L 227.601534 255.71182 
L 228.271943 255.711962 
L 228.977637 255.714764 
L 229.365769 255.71748 
L 230.883011 255.736184 
L 231.094719 255.739821 
L 237.198973 255.946887 
L 239.28077 256.05584 
L 239.986464 256.095941 
L 240.762728 256.141515 
L 256.923121 256.8591 
L 257.981662 256.848907 
L 258.475648 256.840099 
L 258.793211 256.833281 
L 260.698584 256.780431 
L 261.051431 256.768549 
L 261.827695 256.740308 
L 262.674528 256.706417 
L 263.097944 256.688351 
L 264.897464 256.604197 
L 265.144457 256.59181 
L 271.31928 256.23984 
L 272.236682 256.183552 
L 274.671327 256.032877 
L 275.518159 255.980378 
L 289.808464 255.070224 
L 291.008144 254.981515 
L 291.572699 254.938329 
L 291.925546 254.910835 
L 294.113198 254.730981 
L 294.501329 254.697268 
L 295.383447 254.618504 
L 296.336134 254.531341 
L 296.865404 254.482534 
L 298.876632 254.294854 
L 299.15891 254.268263 
L 301.875832 254.009901 
L 307.309676 253.487297 
L 310.061883 253.224927 
L 311.01457 253.135245 
L 322.658522 252.150876 
L 324.034625 252.056365 
L 324.66975 252.014933 
L 325.057881 251.990331 
L 327.527811 251.847534 
L 327.951227 251.825609 
L 328.939199 251.777585 
L 330.033024 251.729782 
L 330.59758 251.707422 
L 332.432384 251.646302 
L 332.891085 251.633915 
L 333.208648 251.626054 
L 342.347385 251.683889 
L 345.452439 251.840802 
L 346.546265 251.913665 
L 355.543864 252.863162 
L 357.061106 253.083808 
L 357.7668 253.192211 
L 358.190217 253.258996 
L 360.942424 253.724502 
L 361.436409 253.813729 
L 362.530235 254.017334 
L 363.729915 254.250076 
L 364.36504 254.377235 
L 366.905538 254.912595 
L 367.258385 254.990275 
L 377.42038 257.553768 
L 380.87828 258.56031 
L 382.07796 258.924331 
L 382.07796 213.611958 
L 382.07796 213.611958 
L 380.87828 214.283762 
L 377.42038 216.163114 
L 367.258385 221.170764 
L 366.905538 221.33013 
L 364.36504 222.447432 
L 363.729915 222.718385 
L 362.530235 223.220902 
L 361.436409 223.668395 
L 360.942424 223.867116 
L 358.190217 224.935311 
L 357.7668 225.093717 
L 357.061106 225.354173 
L 355.543864 225.898997 
L 346.546265 228.695398 
L 345.452439 228.984117 
L 342.347385 229.743733 
L 333.208648 231.490876 
L 332.891085 231.53949 
L 332.432384 231.60844 
L 330.59758 231.870027 
L 330.033024 231.946098 
L 328.939199 232.087826 
L 327.951227 232.209639 
L 327.527811 232.260104 
L 325.057881 232.534728 
L 324.66975 232.574956 
L 324.034625 232.639153 
L 322.658522 232.771545 
L 311.01457 233.592896 
L 310.061883 233.641364 
L 307.309676 233.769431 
L 301.875832 233.978573 
L 299.15891 234.065819 
L 298.876632 234.074337 
L 296.865404 234.132386 
L 296.336134 234.146942 
L 295.383447 234.17245 
L 294.501329 234.196478 
L 294.113198 234.207545 
L 291.925546 234.274911 
L 291.572699 234.28646 
L 291.008144 234.305258 
L 289.808464 234.346272 
L 275.518159 234.763155 
L 274.671327 234.776081 
L 272.236682 234.804881 
L 271.31928 234.812868 
L 265.144457 234.844584 
L 264.897464 234.845741 
L 263.097944 234.855988 
L 262.674528 234.859035 
L 261.827695 234.866107 
L 261.051431 234.873928 
L 260.698584 234.877965 
L 258.793211 234.905936 
L 258.475648 234.91174 
L 257.981662 234.921507 
L 256.923121 234.945382 
L 240.762728 235.419795 
L 239.986464 235.427627 
L 239.28077 235.432122 
L 237.198973 235.429738 
L 231.094719 235.274858 
L 230.883011 235.265467 
L 229.365769 235.190742 
L 228.977637 235.169605 
L 228.271943 235.129175 
L 227.601534 235.088478 
L 227.319256 235.070706 
L 225.660875 234.959317 
L 225.413882 234.941793 
L 224.990466 234.911247 
L 224.073064 234.843065 
L 210.206176 233.846312 
L 204.490054 233.750546 
L 203.890214 233.760469 
L 202.161263 233.808831 
L 197.080266 234.080406 
L 196.903843 234.092227 
L 195.633594 234.180025 
L 195.316031 234.20256 
L 194.716191 234.245562 
L 194.151636 234.286395 
L 193.904643 234.304322 
L 192.52854 234.404123 
L 192.316831 234.419369 
L 191.963984 234.444656 
L 191.223006 234.497105 
L 179.649623 235.015692 
L 168.958359 234.980671 
L 168.464373 234.978709 
L 167.088269 234.978006 
L 163.030529 235.036532 
L 162.88939 235.040616 
L 161.866133 235.072214 
L 161.619141 235.080343 
L 161.125155 235.097158 
L 160.701738 235.112139 
L 160.49003 235.119818 
L 159.396204 235.161389 
L 159.219781 235.168375 
L 158.937503 235.179704 
L 158.337663 235.204376 
L 149.093071 235.648104 
L 133.426663 236.528677 
L 133.073816 236.552828 
L 132.05056 236.624922 
L 128.980791 236.861832 
L 128.874937 236.870604 
L 128.133958 236.933204 
L 127.92225 236.951478 
L 127.569403 236.982326 
L 127.251841 237.010339 
L 127.110702 237.022809 
L 126.263869 237.097861 
L 126.158015 237.107269 
L 125.946307 237.126101 
L 125.487605 237.166975 
L 118.536519 237.791061 
L 97.930253 239.286376 
L 97.68326 239.296261 
L 96.977566 239.322839 
L 94.966338 239.38428 
L 94.895769 239.386031 
L 94.366498 239.398247 
L 94.260644 239.400493 
L 94.013651 239.405477 
L 93.801943 239.409458 
L 93.696089 239.411347 
L 93.131533 239.420259 
L 93.060964 239.421234 
L 92.919825 239.423087 
L 92.602263 239.426772 
L 87.979967 239.400008 
L 62.398558 236.113671 
L 62.292704 236.089165 
L 61.939857 236.006886 
L 60.9166 235.763174 
L 60.881316 235.754636 
L 60.634323 235.694618 
L 60.563753 235.67739 
L 60.457899 235.651481 
L 60.352045 235.625493 
L 60.281476 235.608123 
L 59.999198 235.538291 
L 59.963913 235.529522 
L 59.893344 235.511958 
L 59.752205 235.476725 
L 57.423415 234.875333 
z
" clip-path="url(#p3b6180f169)" style="fill: #999999; fill-opacity: 0.4"/>
   </g>
   <g id="line2d_27">
    <path d="M 57.423415 252.173639 
L 62.398558 251.736451 
L 97.930253 249.009257 
L 128.980791 247.179094 
L 133.426663 246.970185 
L 163.030529 245.902127 
L 179.649623 245.469553 
L 204.490054 245.049472 
L 210.206176 245.03433 
L 231.094719 245.50734 
L 240.762728 245.780655 
L 260.698584 245.829198 
L 274.671327 245.404479 
L 275.518159 245.371766 
L 299.15891 244.167041 
L 311.01457 243.364071 
L 333.208648 241.558465 
L 346.546265 240.304532 
L 367.258385 238.08052 
L 382.07796 236.268144 
L 382.07796 236.268144 
" clip-path="url(#p3b6180f169)" style="fill: none; stroke-dasharray: 6.558079,2.835926; stroke-dashoffset: 0; stroke: #5f57db; stroke-width: 1.772454; stroke-linejoin: miter"/>
   </g>
   <g id="LineCollection_1">
    <path d="M 41.190688 258.166867 
L 398.310688 258.166867 
" clip-path="url(#p3b6180f169)" style="fill: none; stroke-dasharray: 3.27904,1.417963; stroke-dashoffset: 0; stroke: #000000; stroke-width: 0.886227"/>
   </g>
   <g id="patch_3">
    <path d="M 405.510688 232.279308 
L 519.879437 232.279308 
L 519.879437 82.587433 
L 405.510688 82.587433 
z
" style="fill: #ffffff"/>
   </g>
   <g id="text_10">
    <!-- Model -->
    <g transform="translate(417.710688 106.181027)scale(0.11 -0.11)">
     <defs>
      <path id="DejaVuSans-4d" d="M 628 4666 
L 1569 4666 
L 2759 1491 
L 3956 4666 
L 4897 4666 
L 4897 0 
L 4281 0 
L 4281 4097 
L 3078 897 
L 2444 897 
L 1241 4097 
L 1241 0 
L 628 0 
L 628 4666 
z
" transform="scale(0.015625)"/>
     </defs>
     <use xlink:href="#DejaVuSans-4d"/>
     <use xlink:href="#DejaVuSans-6f" x="86.279297"/>
     <use xlink:href="#DejaVuSans-64" x="147.460938"/>
     <use xlink:href="#DejaVuSans-65" x="210.9375"/>
     <use xlink:href="#DejaVuSans-6c" x="272.460938"/>
    </g>
   </g>
   <g id="patch_4">
    <path d="M 417.710688 125.673371 
L 433.550687 125.673371 
L 433.550687 109.833371 
L 417.710688 109.833371 
z
" clip-path="url(#p62e7dbec17)" style="fill: #f2f2f2"/>
   </g>
   <g id="patch_5">
    <path d="M 417.710688 121.713371 
L 433.550687 121.713371 
L 433.550687 113.793371 
L 417.710688 113.793371 
z
" clip-path="url(#p62e7dbec17)" style="fill: #999999; opacity: 0.4"/>
   </g>
   <g id="line2d_28">
    <path d="M 417.710688 117.753371 
L 433.550687 117.753371 
" clip-path="url(#p62e7dbec17)" style="fill: none; stroke: #db5f57; stroke-width: 1.772454"/>
   </g>
   <g id="text_11">
    <!-- five_layer_net -->
    <g transform="translate(436.550687 120.059246)scale(0.088 -0.088)">
     <defs>
      <path id="DejaVuSans-66" d="M 2375 4863 
L 2375 4384 
L 1825 4384 
Q 1516 4384 1395 4259 
Q 1275 4134 1275 3809 
L 1275 3500 
L 2222 3500 
L 2222 3053 
L 1275 3053 
L 1275 0 
L 697 0 
L 697 3053 
L 147 3053 
L 147 3500 
L 697 3500 
L 697 3744 
Q 697 4328 969 4595 
Q 1241 4863 1831 4863 
L 2375 4863 
z
" transform="scale(0.015625)"/>
      <path id="DejaVuSans-76" d="M 191 3500 
L 800 3500 
L 1894 563 
L 2988 3500 
L 3597 3500 
L 2284 0 
L 1503 0 
L 191 3500 
z
" transform="scale(0.015625)"/>
      <path id="DejaVuSans-5f" d="M 3263 -1063 
L 3263 -1509 
L -63 -1509 
L -63 -1063 
L 3263 -1063 
z
" transform="scale(0.015625)"/>
     </defs>
     <use xlink:href="#DejaVuSans-66"/>
     <use xlink:href="#DejaVuSans-69" x="35.205078"/>
     <use xlink:href="#DejaVuSans-76" x="62.988281"/>
     <use xlink:href="#DejaVuSans-65" x="122.167969"/>
     <use xlink:href="#DejaVuSans-5f" x="183.691406"/>
     <use xlink:href="#DejaVuSans-6c" x="233.691406"/>
     <use xlink:href="#DejaVuSans-61" x="261.474609"/>
     <use xlink:href="#DejaVuSans-79" x="322.753906"/>
     <use xlink:href="#DejaVuSans-65" x="381.933594"/>
     <use xlink:href="#DejaVuSans-72" x="443.457031"/>
     <use xlink:href="#DejaVuSans-5f" x="484.570312"/>
     <use xlink:href="#DejaVuSans-6e" x="534.570312"/>
     <use xlink:href="#DejaVuSans-65" x="597.949219"/>
     <use xlink:href="#DejaVuSans-74" x="659.472656"/>
    </g>
   </g>
   <g id="patch_6">
    <path d="M 417.710688 143.513371 
L 433.550687 143.513371 
L 433.550687 127.673371 
L 417.710688 127.673371 
z
" clip-path="url(#p3537ab3a75)" style="fill: #f2f2f2"/>
   </g>
   <g id="patch_7">
    <path d="M 417.710688 139.553371 
L 433.550687 139.553371 
L 433.550687 131.633371 
L 417.710688 131.633371 
z
" clip-path="url(#p3537ab3a75)" style="fill: #999999; opacity: 0.4"/>
   </g>
   <g id="line2d_29">
    <path d="M 417.710688 135.593371 
L 433.550687 135.593371 
" clip-path="url(#p3537ab3a75)" style="fill: none; stroke: #57db5f; stroke-width: 1.772454"/>
   </g>
   <g id="text_12">
    <!-- pytorch_lr -->
    <g transform="translate(436.550687 137.899246)scale(0.088 -0.088)">
     <defs>
      <path id="DejaVuSans-68" d="M 3513 2113 
L 3513 0 
L 2938 0 
L 2938 2094 
Q 2938 2591 2744 2837 
Q 2550 3084 2163 3084 
Q 1697 3084 1428 2787 
Q 1159 2491 1159 1978 
L 1159 0 
L 581 0 
L 581 4863 
L 1159 4863 
L 1159 2956 
Q 1366 3272 1645 3428 
Q 1925 3584 2291 3584 
Q 2894 3584 3203 3211 
Q 3513 2838 3513 2113 
z
" transform="scale(0.015625)"/>
     </defs>
     <use xlink:href="#DejaVuSans-70"/>
     <use xlink:href="#DejaVuSans-79" x="63.476562"/>
     <use xlink:href="#DejaVuSans-74" x="122.65625"/>
     <use xlink:href="#DejaVuSans-6f" x="161.865234"/>
     <use xlink:href="#DejaVuSans-72" x="223.046875"/>
     <use xlink:href="#DejaVuSans-63" x="261.910156"/>
     <use xlink:href="#DejaVuSans-68" x="316.890625"/>
     <use xlink:href="#DejaVuSans-5f" x="380.269531"/>
     <use xlink:href="#DejaVuSans-6c" x="430.269531"/>
     <use xlink:href="#DejaVuSans-72" x="458.052734"/>
    </g>
   </g>
   <g id="patch_8">
    <path d="M 417.710688 161.353371 
L 433.550687 161.353371 
L 433.550687 145.513371 
L 417.710688 145.513371 
z
" clip-path="url(#pad03ae335d)" style="fill: #f2f2f2"/>
   </g>
   <g id="patch_9">
    <path d="M 417.710688 157.393371 
L 433.550687 157.393371 
L 433.550687 149.473371 
L 417.710688 149.473371 
z
" clip-path="url(#pad03ae335d)" style="fill: #999999; opacity: 0.4"/>
   </g>
   <g id="line2d_30">
    <path d="M 417.710688 153.433371 
L 433.550687 153.433371 
" clip-path="url(#pad03ae335d)" style="fill: none; stroke: #5f57db; stroke-width: 1.772454"/>
   </g>
   <g id="text_13">
    <!-- three_layer_net -->
    <g transform="translate(436.550687 155.739246)scale(0.088 -0.088)">
     <use xlink:href="#DejaVuSans-74"/>
     <use xlink:href="#DejaVuSans-68" x="39.208984"/>
     <use xlink:href="#DejaVuSans-72" x="102.587891"/>
     <use xlink:href="#DejaVuSans-65" x="141.451172"/>
     <use xlink:href="#DejaVuSans-65" x="202.974609"/>
     <use xlink:href="#DejaVuSans-5f" x="264.498047"/>
     <use xlink:href="#DejaVuSans-6c" x="314.498047"/>
     <use xlink:href="#DejaVuSans-61" x="342.28125"/>
     <use xlink:href="#DejaVuSans-79" x="403.560547"/>
     <use xlink:href="#DejaVuSans-65" x="462.740234"/>
     <use xlink:href="#DejaVuSans-72" x="524.263672"/>
     <use xlink:href="#DejaVuSans-5f" x="565.376953"/>
     <use xlink:href="#DejaVuSans-6e" x="615.376953"/>
     <use xlink:href="#DejaVuSans-65" x="678.755859"/>
     <use xlink:href="#DejaVuSans-74" x="740.279297"/>
    </g>
   </g>
   <g id="text_14">
    <!-- Correction -->
    <g transform="translate(417.710688 182.746964)scale(0.11 -0.11)">
     <use xlink:href="#DejaVuSans-43"/>
     <use xlink:href="#DejaVuSans-6f" x="69.824219"/>
     <use xlink:href="#DejaVuSans-72" x="131.005859"/>
     <use xlink:href="#DejaVuSans-72" x="170.369141"/>
     <use xlink:href="#DejaVuSans-65" x="209.232422"/>
     <use xlink:href="#DejaVuSans-63" x="270.755859"/>
     <use xlink:href="#DejaVuSans-74" x="325.736328"/>
     <use xlink:href="#DejaVuSans-69" x="364.945312"/>
     <use xlink:href="#DejaVuSans-6f" x="392.728516"/>
     <use xlink:href="#DejaVuSans-6e" x="453.910156"/>
    </g>
   </g>
   <g id="patch_10">
    <path d="M 417.710688 202.239308 
L 433.550687 202.239308 
L 433.550687 186.399308 
L 417.710688 186.399308 
z
" clip-path="url(#p0f15b2a974)" style="fill: #f2f2f2"/>
   </g>
   <g id="patch_11">
    <path d="M 417.710688 198.279308 
L 433.550687 198.279308 
L 433.550687 190.359308 
L 417.710688 190.359308 
z
" clip-path="url(#p0f15b2a974)" style="fill: #999999; opacity: 0.4"/>
   </g>
   <g id="line2d_31">
    <path d="M 417.710688 194.319308 
L 433.550687 194.319308 
" clip-path="url(#p0f15b2a974)" style="fill: none; stroke: #000000; stroke-width: 1.772454"/>
   </g>
   <g id="text_15">
    <!-- Full Signal -->
    <g transform="translate(436.550687 196.747558)scale(0.088 -0.088)">
     <defs>
      <path id="DejaVuSans-46" d="M 628 4666 
L 3309 4666 
L 3309 4134 
L 1259 4134 
L 1259 2759 
L 3109 2759 
L 3109 2228 
L 1259 2228 
L 1259 0 
L 628 0 
L 628 4666 
z
" transform="scale(0.015625)"/>
      <path id="DejaVuSans-67" d="M 2906 1791 
Q 2906 2416 2648 2759 
Q 2391 3103 1925 3103 
Q 1463 3103 1205 2759 
Q 947 2416 947 1791 
Q 947 1169 1205 825 
Q 1463 481 1925 481 
Q 2391 481 2648 825 
Q 2906 1169 2906 1791 
z
M 3481 434 
Q 3481 -459 3084 -895 
Q 2688 -1331 1869 -1331 
Q 1566 -1331 1297 -1286 
Q 1028 -1241 775 -1147 
L 775 -588 
Q 1028 -725 1275 -790 
Q 1522 -856 1778 -856 
Q 2344 -856 2625 -561 
Q 2906 -266 2906 331 
L 2906 616 
Q 2728 306 2450 153 
Q 2172 0 1784 0 
Q 1141 0 747 490 
Q 353 981 353 1791 
Q 353 2603 747 3093 
Q 1141 3584 1784 3584 
Q 2172 3584 2450 3431 
Q 2728 3278 2906 2969 
L 2906 3500 
L 3481 3500 
L 3481 434 
z
" transform="scale(0.015625)"/>
     </defs>
     <use xlink:href="#DejaVuSans-46"/>
     <use xlink:href="#DejaVuSans-75" x="52.019531"/>
     <use xlink:href="#DejaVuSans-6c" x="115.398438"/>
     <use xlink:href="#DejaVuSans-6c" x="143.181641"/>
     <use xlink:href="#DejaVuSans-20" x="170.964844"/>
     <use xlink:href="#DejaVuSans-53" x="202.751953"/>
     <use xlink:href="#DejaVuSans-69" x="266.228516"/>
     <use xlink:href="#DejaVuSans-67" x="294.011719"/>
     <use xlink:href="#DejaVuSans-6e" x="357.488281"/>
     <use xlink:href="#DejaVuSans-61" x="420.867188"/>
     <use xlink:href="#DejaVuSans-6c" x="482.146484"/>
    </g>
   </g>
   <g id="patch_12">
    <path d="M 417.710688 220.079308 
L 433.550687 220.079308 
L 433.550687 204.239308 
L 417.710688 204.239308 
z
" clip-path="url(#p940c84539a)" style="fill: #f2f2f2"/>
   </g>
   <g id="patch_13">
    <path d="M 417.710688 216.119308 
L 433.550687 216.119308 
L 433.550687 208.199308 
L 417.710688 208.199308 
z
" clip-path="url(#p940c84539a)" style="fill: #999999; opacity: 0.4"/>
   </g>
   <g id="line2d_32">
    <path d="M 417.710688 212.159308 
L 433.550687 212.159308 
" clip-path="url(#p940c84539a)" style="fill: none; stroke-dasharray: 6.558079,2.835926; stroke-dashoffset: 0; stroke: #000000; stroke-width: 1.772454"/>
   </g>
   <g id="text_16">
    <!-- Signal Removed -->
    <g transform="translate(436.550687 214.587558)scale(0.088 -0.088)">
     <defs>
      <path id="DejaVuSans-52" d="M 2841 2188 
Q 3044 2119 3236 1894 
Q 3428 1669 3622 1275 
L 4263 0 
L 3584 0 
L 2988 1197 
Q 2756 1666 2539 1819 
Q 2322 1972 1947 1972 
L 1259 1972 
L 1259 0 
L 628 0 
L 628 4666 
L 2053 4666 
Q 2853 4666 3247 4331 
Q 3641 3997 3641 3322 
Q 3641 2881 3436 2590 
Q 3231 2300 2841 2188 
z
M 1259 4147 
L 1259 2491 
L 2053 2491 
Q 2509 2491 2742 2702 
Q 2975 2913 2975 3322 
Q 2975 3731 2742 3939 
Q 2509 4147 2053 4147 
L 1259 4147 
z
" transform="scale(0.015625)"/>
     </defs>
     <use xlink:href="#DejaVuSans-53"/>
     <use xlink:href="#DejaVuSans-69" x="63.476562"/>
     <use xlink:href="#DejaVuSans-67" x="91.259766"/>
     <use xlink:href="#DejaVuSans-6e" x="154.736328"/>
     <use xlink:href="#DejaVuSans-61" x="218.115234"/>
     <use xlink:href="#DejaVuSans-6c" x="279.394531"/>
     <use xlink:href="#DejaVuSans-20" x="307.177734"/>
     <use xlink:href="#DejaVuSans-52" x="338.964844"/>
     <use xlink:href="#DejaVuSans-65" x="403.947266"/>
     <use xlink:href="#DejaVuSans-6d" x="465.470703"/>
     <use xlink:href="#DejaVuSans-6f" x="562.882812"/>
     <use xlink:href="#DejaVuSans-76" x="624.064453"/>
     <use xlink:href="#DejaVuSans-65" x="683.244141"/>
     <use xlink:href="#DejaVuSans-64" x="744.767578"/>
    </g>
   </g>
  </g>
  <g id="text_17">
   <!-- Recount3 Multiclass Tissue Prediction -->
   <g transform="translate(90.450031 17.229938)scale(0.132 -0.132)">
    <defs>
     <path id="DejaVuSans-33" d="M 2597 2516 
Q 3050 2419 3304 2112 
Q 3559 1806 3559 1356 
Q 3559 666 3084 287 
Q 2609 -91 1734 -91 
Q 1441 -91 1130 -33 
Q 819 25 488 141 
L 488 750 
Q 750 597 1062 519 
Q 1375 441 1716 441 
Q 2309 441 2620 675 
Q 2931 909 2931 1356 
Q 2931 1769 2642 2001 
Q 2353 2234 1838 2234 
L 1294 2234 
L 1294 2753 
L 1863 2753 
Q 2328 2753 2575 2939 
Q 2822 3125 2822 3475 
Q 2822 3834 2567 4026 
Q 2313 4219 1838 4219 
Q 1578 4219 1281 4162 
Q 984 4106 628 3988 
L 628 4550 
Q 988 4650 1302 4700 
Q 1616 4750 1894 4750 
Q 2613 4750 3031 4423 
Q 3450 4097 3450 3541 
Q 3450 3153 3228 2886 
Q 3006 2619 2597 2516 
z
" transform="scale(0.015625)"/>
     <path id="DejaVuSans-73" d="M 2834 3397 
L 2834 2853 
Q 2591 2978 2328 3040 
Q 2066 3103 1784 3103 
Q 1356 3103 1142 2972 
Q 928 2841 928 2578 
Q 928 2378 1081 2264 
Q 1234 2150 1697 2047 
L 1894 2003 
Q 2506 1872 2764 1633 
Q 3022 1394 3022 966 
Q 3022 478 2636 193 
Q 2250 -91 1575 -91 
Q 1294 -91 989 -36 
Q 684 19 347 128 
L 347 722 
Q 666 556 975 473 
Q 1284 391 1588 391 
Q 1994 391 2212 530 
Q 2431 669 2431 922 
Q 2431 1156 2273 1281 
Q 2116 1406 1581 1522 
L 1381 1569 
Q 847 1681 609 1914 
Q 372 2147 372 2553 
Q 372 3047 722 3315 
Q 1072 3584 1716 3584 
Q 2034 3584 2315 3537 
Q 2597 3491 2834 3397 
z
" transform="scale(0.015625)"/>
     <path id="DejaVuSans-50" d="M 1259 4147 
L 1259 2394 
L 2053 2394 
Q 2494 2394 2734 2622 
Q 2975 2850 2975 3272 
Q 2975 3691 2734 3919 
Q 2494 4147 2053 4147 
L 1259 4147 
z
M 628 4666 
L 2053 4666 
Q 2838 4666 3239 4311 
Q 3641 3956 3641 3272 
Q 3641 2581 3239 2228 
Q 2838 1875 2053 1875 
L 1259 1875 
L 1259 0 
L 628 0 
L 628 4666 
z
" transform="scale(0.015625)"/>
    </defs>
    <use xlink:href="#DejaVuSans-52"/>
    <use xlink:href="#DejaVuSans-65" x="64.982422"/>
    <use xlink:href="#DejaVuSans-63" x="126.505859"/>
    <use xlink:href="#DejaVuSans-6f" x="181.486328"/>
    <use xlink:href="#DejaVuSans-75" x="242.667969"/>
    <use xlink:href="#DejaVuSans-6e" x="306.046875"/>
    <use xlink:href="#DejaVuSans-74" x="369.425781"/>
    <use xlink:href="#DejaVuSans-33" x="408.634766"/>
    <use xlink:href="#DejaVuSans-20" x="472.257812"/>
    <use xlink:href="#DejaVuSans-4d" x="504.044922"/>
    <use xlink:href="#DejaVuSans-75" x="590.324219"/>
    <use xlink:href="#DejaVuSans-6c" x="653.703125"/>
    <use xlink:href="#DejaVuSans-74" x="681.486328"/>
    <use xlink:href="#DejaVuSans-69" x="720.695312"/>
    <use xlink:href="#DejaVuSans-63" x="748.478516"/>
    <use xlink:href="#DejaVuSans-6c" x="803.458984"/>
    <use xlink:href="#DejaVuSans-61" x="831.242188"/>
    <use xlink:href="#DejaVuSans-73" x="892.521484"/>
    <use xlink:href="#DejaVuSans-73" x="944.621094"/>
    <use xlink:href="#DejaVuSans-20" x="996.720703"/>
    <use xlink:href="#DejaVuSans-54" x="1028.507812"/>
    <use xlink:href="#DejaVuSans-69" x="1086.466797"/>
    <use xlink:href="#DejaVuSans-73" x="1114.25"/>
    <use xlink:href="#DejaVuSans-73" x="1166.349609"/>
    <use xlink:href="#DejaVuSans-75" x="1218.449219"/>
    <use xlink:href="#DejaVuSans-65" x="1281.828125"/>
    <use xlink:href="#DejaVuSans-20" x="1343.351562"/>
    <use xlink:href="#DejaVuSans-50" x="1375.138672"/>
    <use xlink:href="#DejaVuSans-72" x="1433.691406"/>
    <use xlink:href="#DejaVuSans-65" x="1472.554688"/>
    <use xlink:href="#DejaVuSans-64" x="1534.078125"/>
    <use xlink:href="#DejaVuSans-69" x="1597.554688"/>
    <use xlink:href="#DejaVuSans-63" x="1625.337891"/>
    <use xlink:href="#DejaVuSans-74" x="1680.318359"/>
    <use xlink:href="#DejaVuSans-69" x="1719.527344"/>
    <use xlink:href="#DejaVuSans-6f" x="1747.310547"/>
    <use xlink:href="#DejaVuSans-6e" x="1808.492188"/>
   </g>
  </g>
 </g>
 <defs>
  <clipPath id="p3b6180f169">
   <rect x="41.190688" y="26.105371" width="357.12" height="266.112"/>
  </clipPath>
  <clipPath id="p62e7dbec17">
   <path d="M 417.710688 125.673371 
L 417.710688 109.833371 
L 433.550687 109.833371 
L 433.550687 125.673371 
"/>
  </clipPath>
  <clipPath id="p3537ab3a75">
   <path d="M 417.710688 143.513371 
L 417.710688 127.673371 
L 433.550687 127.673371 
L 433.550687 143.513371 
"/>
  </clipPath>
  <clipPath id="pad03ae335d">
   <path d="M 417.710688 161.353371 
L 417.710688 145.513371 
L 433.550687 145.513371 
L 433.550687 161.353371 
"/>
  </clipPath>
  <clipPath id="p0f15b2a974">
   <path d="M 417.710688 202.239308 
L 417.710688 186.399308 
L 433.550687 186.399308 
L 433.550687 202.239308 
"/>
  </clipPath>
  <clipPath id="p940c84539a">
   <path d="M 417.710688 220.079308 
L 417.710688 204.239308 
L 433.550687 204.239308 
L 433.550687 220.079308 
"/>
  </clipPath>
 </defs>
</svg>
