<?xml version="1.0" encoding="utf-8" standalone="no"?>
<!DOCTYPE svg PUBLIC "-//W3C//DTD SVG 1.1//EN"
  "http://www.w3.org/Graphics/SVG/1.1/DTD/svg11.dtd">
<svg xmlns:xlink="http://www.w3.org/1999/xlink" width="548.024813pt" height="327.930058pt" viewBox="0 0 548.024813 327.930058" xmlns="http://www.w3.org/2000/svg" version="1.1">
 <metadata>
  <rdf:RDF xmlns:dc="http://purl.org/dc/elements/1.1/" xmlns:cc="http://creativecommons.org/ns#" xmlns:rdf="http://www.w3.org/1999/02/22-rdf-syntax-ns#">
   <cc:Work>
    <dc:type rdf:resource="http://purl.org/dc/dcmitype/StillImage"/>
    <dc:date>2023-01-30T07:36:56.785585</dc:date>
    <dc:format>image/svg+xml</dc:format>
    <dc:creator>
     <cc:Agent>
      <dc:title>Matplotlib v3.5.1, https://matplotlib.org/</dc:title>
     </cc:Agent>
    </dc:creator>
   </cc:Work>
  </rdf:RDF>
 </metadata>
 <defs>
  <style type="text/css">*{stroke-linejoin: round; stroke-linecap: butt}</style>
 </defs>
 <g id="figure_1">
  <g id="patch_1">
   <path d="M 0 327.930058 
L 548.024813 327.930058 
L 548.024813 0 
L 0 0 
z
" style="fill: #ffffff; stroke: #ffffff; stroke-linejoin: miter"/>
  </g>
  <g id="axes_1">
   <g id="patch_2">
    <path d="M 41.190688 292.217371 
L 398.310688 292.217371 
L 398.310688 26.105371 
L 41.190688 26.105371 
z
" style="fill: #ebebeb"/>
   </g>
   <g id="matplotlib.axis_1">
    <g id="xtick_1">
     <g id="line2d_1">
      <path d="M 115.113903 292.217371 
L 115.113903 26.105371 
" clip-path="url(#p57e6314dc9)" style="fill: none; stroke: #ffffff"/>
     </g>
     <g id="line2d_2">
      <path d="M 115.113903 292.217371 
" style="fill: none; stroke: #333333; stroke-width: 1.5"/>
      <defs>
       <path id="m6bd32fb87e" d="M 0 0 
L 0 2.75 
" style="stroke: #000000"/>
      </defs>
      <g>
       <use xlink:href="#m6bd32fb87e" x="115.113903" y="292.217371" style="fill: #333333; stroke: #000000"/>
      </g>
     </g>
     <g id="text_1">
      <!-- 2500 -->
      <g style="fill: #4d4d4d" transform="translate(103.915903 303.853996)scale(0.088 -0.088)">
       <defs>
        <path id="DejaVuSans-32" d="M 1228 531 
L 3431 531 
L 3431 0 
L 469 0 
L 469 531 
Q 828 903 1448 1529 
Q 2069 2156 2228 2338 
Q 2531 2678 2651 2914 
Q 2772 3150 2772 3378 
Q 2772 3750 2511 3984 
Q 2250 4219 1831 4219 
Q 1534 4219 1204 4116 
Q 875 4013 500 3803 
L 500 4441 
Q 881 4594 1212 4672 
Q 1544 4750 1819 4750 
Q 2544 4750 2975 4387 
Q 3406 4025 3406 3419 
Q 3406 3131 3298 2873 
Q 3191 2616 2906 2266 
Q 2828 2175 2409 1742 
Q 1991 1309 1228 531 
z
" transform="scale(0.015625)"/>
        <path id="DejaVuSans-35" d="M 691 4666 
L 3169 4666 
L 3169 4134 
L 1269 4134 
L 1269 2991 
Q 1406 3038 1543 3061 
Q 1681 3084 1819 3084 
Q 2600 3084 3056 2656 
Q 3513 2228 3513 1497 
Q 3513 744 3044 326 
Q 2575 -91 1722 -91 
Q 1428 -91 1123 -41 
Q 819 9 494 109 
L 494 744 
Q 775 591 1075 516 
Q 1375 441 1709 441 
Q 2250 441 2565 725 
Q 2881 1009 2881 1497 
Q 2881 1984 2565 2268 
Q 2250 2553 1709 2553 
Q 1456 2553 1204 2497 
Q 953 2441 691 2322 
L 691 4666 
z
" transform="scale(0.015625)"/>
        <path id="DejaVuSans-30" d="M 2034 4250 
Q 1547 4250 1301 3770 
Q 1056 3291 1056 2328 
Q 1056 1369 1301 889 
Q 1547 409 2034 409 
Q 2525 409 2770 889 
Q 3016 1369 3016 2328 
Q 3016 3291 2770 3770 
Q 2525 4250 2034 4250 
z
M 2034 4750 
Q 2819 4750 3233 4129 
Q 3647 3509 3647 2328 
Q 3647 1150 3233 529 
Q 2819 -91 2034 -91 
Q 1250 -91 836 529 
Q 422 1150 422 2328 
Q 422 3509 836 4129 
Q 1250 4750 2034 4750 
z
" transform="scale(0.015625)"/>
       </defs>
       <use xlink:href="#DejaVuSans-32"/>
       <use xlink:href="#DejaVuSans-35" x="63.623047"/>
       <use xlink:href="#DejaVuSans-30" x="127.246094"/>
       <use xlink:href="#DejaVuSans-30" x="190.869141"/>
      </g>
     </g>
    </g>
    <g id="xtick_2">
     <g id="line2d_3">
      <path d="M 203.325659 292.217371 
L 203.325659 26.105371 
" clip-path="url(#p57e6314dc9)" style="fill: none; stroke: #ffffff"/>
     </g>
     <g id="line2d_4">
      <path d="M 203.325659 292.217371 
" style="fill: none; stroke: #333333; stroke-width: 1.5"/>
      <g>
       <use xlink:href="#m6bd32fb87e" x="203.325659" y="292.217371" style="fill: #333333; stroke: #000000"/>
      </g>
     </g>
     <g id="text_2">
      <!-- 5000 -->
      <g style="fill: #4d4d4d" transform="translate(192.127659 303.853996)scale(0.088 -0.088)">
       <use xlink:href="#DejaVuSans-35"/>
       <use xlink:href="#DejaVuSans-30" x="63.623047"/>
       <use xlink:href="#DejaVuSans-30" x="127.246094"/>
       <use xlink:href="#DejaVuSans-30" x="190.869141"/>
      </g>
     </g>
    </g>
    <g id="xtick_3">
     <g id="line2d_5">
      <path d="M 291.537414 292.217371 
L 291.537414 26.105371 
" clip-path="url(#p57e6314dc9)" style="fill: none; stroke: #ffffff"/>
     </g>
     <g id="line2d_6">
      <path d="M 291.537414 292.217371 
" style="fill: none; stroke: #333333; stroke-width: 1.5"/>
      <g>
       <use xlink:href="#m6bd32fb87e" x="291.537414" y="292.217371" style="fill: #333333; stroke: #000000"/>
      </g>
     </g>
     <g id="text_3">
      <!-- 7500 -->
      <g style="fill: #4d4d4d" transform="translate(280.339414 303.853996)scale(0.088 -0.088)">
       <defs>
        <path id="DejaVuSans-37" d="M 525 4666 
L 3525 4666 
L 3525 4397 
L 1831 0 
L 1172 0 
L 2766 4134 
L 525 4134 
L 525 4666 
z
" transform="scale(0.015625)"/>
       </defs>
       <use xlink:href="#DejaVuSans-37"/>
       <use xlink:href="#DejaVuSans-35" x="63.623047"/>
       <use xlink:href="#DejaVuSans-30" x="127.246094"/>
       <use xlink:href="#DejaVuSans-30" x="190.869141"/>
      </g>
     </g>
    </g>
    <g id="xtick_4">
     <g id="line2d_7">
      <path d="M 379.74917 292.217371 
L 379.74917 26.105371 
" clip-path="url(#p57e6314dc9)" style="fill: none; stroke: #ffffff"/>
     </g>
     <g id="line2d_8">
      <path d="M 379.74917 292.217371 
" style="fill: none; stroke: #333333; stroke-width: 1.5"/>
      <g>
       <use xlink:href="#m6bd32fb87e" x="379.74917" y="292.217371" style="fill: #333333; stroke: #000000"/>
      </g>
     </g>
     <g id="text_4">
      <!-- 10000 -->
      <g style="fill: #4d4d4d" transform="translate(365.75167 303.853996)scale(0.088 -0.088)">
       <defs>
        <path id="DejaVuSans-31" d="M 794 531 
L 1825 531 
L 1825 4091 
L 703 3866 
L 703 4441 
L 1819 4666 
L 2450 4666 
L 2450 531 
L 3481 531 
L 3481 0 
L 794 0 
L 794 531 
z
" transform="scale(0.015625)"/>
       </defs>
       <use xlink:href="#DejaVuSans-31"/>
       <use xlink:href="#DejaVuSans-30" x="63.623047"/>
       <use xlink:href="#DejaVuSans-30" x="127.246094"/>
       <use xlink:href="#DejaVuSans-30" x="190.869141"/>
       <use xlink:href="#DejaVuSans-30" x="254.492188"/>
      </g>
     </g>
    </g>
    <g id="xtick_5">
     <g id="line2d_9">
      <path d="M 71.008025 292.217371 
L 71.008025 26.105371 
" clip-path="url(#p57e6314dc9)" style="fill: none; stroke: #ffffff; stroke-width: 0.5"/>
     </g>
    </g>
    <g id="xtick_6">
     <g id="line2d_10">
      <path d="M 159.219781 292.217371 
L 159.219781 26.105371 
" clip-path="url(#p57e6314dc9)" style="fill: none; stroke: #ffffff; stroke-width: 0.5"/>
     </g>
    </g>
    <g id="xtick_7">
     <g id="line2d_11">
      <path d="M 247.431536 292.217371 
L 247.431536 26.105371 
" clip-path="url(#p57e6314dc9)" style="fill: none; stroke: #ffffff; stroke-width: 0.5"/>
     </g>
    </g>
    <g id="xtick_8">
     <g id="line2d_12">
      <path d="M 335.643292 292.217371 
L 335.643292 26.105371 
" clip-path="url(#p57e6314dc9)" style="fill: none; stroke: #ffffff; stroke-width: 0.5"/>
     </g>
    </g>
    <g id="text_5">
     <!-- Train Sample Count -->
     <g transform="translate(160.345063 318.442402)scale(0.11 -0.11)">
      <defs>
       <path id="DejaVuSans-54" d="M -19 4666 
L 3928 4666 
L 3928 4134 
L 2272 4134 
L 2272 0 
L 1638 0 
L 1638 4134 
L -19 4134 
L -19 4666 
z
" transform="scale(0.015625)"/>
       <path id="DejaVuSans-72" d="M 2631 2963 
Q 2534 3019 2420 3045 
Q 2306 3072 2169 3072 
Q 1681 3072 1420 2755 
Q 1159 2438 1159 1844 
L 1159 0 
L 581 0 
L 581 3500 
L 1159 3500 
L 1159 2956 
Q 1341 3275 1631 3429 
Q 1922 3584 2338 3584 
Q 2397 3584 2469 3576 
Q 2541 3569 2628 3553 
L 2631 2963 
z
" transform="scale(0.015625)"/>
       <path id="DejaVuSans-61" d="M 2194 1759 
Q 1497 1759 1228 1600 
Q 959 1441 959 1056 
Q 959 750 1161 570 
Q 1363 391 1709 391 
Q 2188 391 2477 730 
Q 2766 1069 2766 1631 
L 2766 1759 
L 2194 1759 
z
M 3341 1997 
L 3341 0 
L 2766 0 
L 2766 531 
Q 2569 213 2275 61 
Q 1981 -91 1556 -91 
Q 1019 -91 701 211 
Q 384 513 384 1019 
Q 384 1609 779 1909 
Q 1175 2209 1959 2209 
L 2766 2209 
L 2766 2266 
Q 2766 2663 2505 2880 
Q 2244 3097 1772 3097 
Q 1472 3097 1187 3025 
Q 903 2953 641 2809 
L 641 3341 
Q 956 3463 1253 3523 
Q 1550 3584 1831 3584 
Q 2591 3584 2966 3190 
Q 3341 2797 3341 1997 
z
" transform="scale(0.015625)"/>
       <path id="DejaVuSans-69" d="M 603 3500 
L 1178 3500 
L 1178 0 
L 603 0 
L 603 3500 
z
M 603 4863 
L 1178 4863 
L 1178 4134 
L 603 4134 
L 603 4863 
z
" transform="scale(0.015625)"/>
       <path id="DejaVuSans-6e" d="M 3513 2113 
L 3513 0 
L 2938 0 
L 2938 2094 
Q 2938 2591 2744 2837 
Q 2550 3084 2163 3084 
Q 1697 3084 1428 2787 
Q 1159 2491 1159 1978 
L 1159 0 
L 581 0 
L 581 3500 
L 1159 3500 
L 1159 2956 
Q 1366 3272 1645 3428 
Q 1925 3584 2291 3584 
Q 2894 3584 3203 3211 
Q 3513 2838 3513 2113 
z
" transform="scale(0.015625)"/>
       <path id="DejaVuSans-20" transform="scale(0.015625)"/>
       <path id="DejaVuSans-53" d="M 3425 4513 
L 3425 3897 
Q 3066 4069 2747 4153 
Q 2428 4238 2131 4238 
Q 1616 4238 1336 4038 
Q 1056 3838 1056 3469 
Q 1056 3159 1242 3001 
Q 1428 2844 1947 2747 
L 2328 2669 
Q 3034 2534 3370 2195 
Q 3706 1856 3706 1288 
Q 3706 609 3251 259 
Q 2797 -91 1919 -91 
Q 1588 -91 1214 -16 
Q 841 59 441 206 
L 441 856 
Q 825 641 1194 531 
Q 1563 422 1919 422 
Q 2459 422 2753 634 
Q 3047 847 3047 1241 
Q 3047 1584 2836 1778 
Q 2625 1972 2144 2069 
L 1759 2144 
Q 1053 2284 737 2584 
Q 422 2884 422 3419 
Q 422 4038 858 4394 
Q 1294 4750 2059 4750 
Q 2388 4750 2728 4690 
Q 3069 4631 3425 4513 
z
" transform="scale(0.015625)"/>
       <path id="DejaVuSans-6d" d="M 3328 2828 
Q 3544 3216 3844 3400 
Q 4144 3584 4550 3584 
Q 5097 3584 5394 3201 
Q 5691 2819 5691 2113 
L 5691 0 
L 5113 0 
L 5113 2094 
Q 5113 2597 4934 2840 
Q 4756 3084 4391 3084 
Q 3944 3084 3684 2787 
Q 3425 2491 3425 1978 
L 3425 0 
L 2847 0 
L 2847 2094 
Q 2847 2600 2669 2842 
Q 2491 3084 2119 3084 
Q 1678 3084 1418 2786 
Q 1159 2488 1159 1978 
L 1159 0 
L 581 0 
L 581 3500 
L 1159 3500 
L 1159 2956 
Q 1356 3278 1631 3431 
Q 1906 3584 2284 3584 
Q 2666 3584 2933 3390 
Q 3200 3197 3328 2828 
z
" transform="scale(0.015625)"/>
       <path id="DejaVuSans-70" d="M 1159 525 
L 1159 -1331 
L 581 -1331 
L 581 3500 
L 1159 3500 
L 1159 2969 
Q 1341 3281 1617 3432 
Q 1894 3584 2278 3584 
Q 2916 3584 3314 3078 
Q 3713 2572 3713 1747 
Q 3713 922 3314 415 
Q 2916 -91 2278 -91 
Q 1894 -91 1617 61 
Q 1341 213 1159 525 
z
M 3116 1747 
Q 3116 2381 2855 2742 
Q 2594 3103 2138 3103 
Q 1681 3103 1420 2742 
Q 1159 2381 1159 1747 
Q 1159 1113 1420 752 
Q 1681 391 2138 391 
Q 2594 391 2855 752 
Q 3116 1113 3116 1747 
z
" transform="scale(0.015625)"/>
       <path id="DejaVuSans-6c" d="M 603 4863 
L 1178 4863 
L 1178 0 
L 603 0 
L 603 4863 
z
" transform="scale(0.015625)"/>
       <path id="DejaVuSans-65" d="M 3597 1894 
L 3597 1613 
L 953 1613 
Q 991 1019 1311 708 
Q 1631 397 2203 397 
Q 2534 397 2845 478 
Q 3156 559 3463 722 
L 3463 178 
Q 3153 47 2828 -22 
Q 2503 -91 2169 -91 
Q 1331 -91 842 396 
Q 353 884 353 1716 
Q 353 2575 817 3079 
Q 1281 3584 2069 3584 
Q 2775 3584 3186 3129 
Q 3597 2675 3597 1894 
z
M 3022 2063 
Q 3016 2534 2758 2815 
Q 2500 3097 2075 3097 
Q 1594 3097 1305 2825 
Q 1016 2553 972 2059 
L 3022 2063 
z
" transform="scale(0.015625)"/>
       <path id="DejaVuSans-43" d="M 4122 4306 
L 4122 3641 
Q 3803 3938 3442 4084 
Q 3081 4231 2675 4231 
Q 1875 4231 1450 3742 
Q 1025 3253 1025 2328 
Q 1025 1406 1450 917 
Q 1875 428 2675 428 
Q 3081 428 3442 575 
Q 3803 722 4122 1019 
L 4122 359 
Q 3791 134 3420 21 
Q 3050 -91 2638 -91 
Q 1578 -91 968 557 
Q 359 1206 359 2328 
Q 359 3453 968 4101 
Q 1578 4750 2638 4750 
Q 3056 4750 3426 4639 
Q 3797 4528 4122 4306 
z
" transform="scale(0.015625)"/>
       <path id="DejaVuSans-6f" d="M 1959 3097 
Q 1497 3097 1228 2736 
Q 959 2375 959 1747 
Q 959 1119 1226 758 
Q 1494 397 1959 397 
Q 2419 397 2687 759 
Q 2956 1122 2956 1747 
Q 2956 2369 2687 2733 
Q 2419 3097 1959 3097 
z
M 1959 3584 
Q 2709 3584 3137 3096 
Q 3566 2609 3566 1747 
Q 3566 888 3137 398 
Q 2709 -91 1959 -91 
Q 1206 -91 779 398 
Q 353 888 353 1747 
Q 353 2609 779 3096 
Q 1206 3584 1959 3584 
z
" transform="scale(0.015625)"/>
       <path id="DejaVuSans-75" d="M 544 1381 
L 544 3500 
L 1119 3500 
L 1119 1403 
Q 1119 906 1312 657 
Q 1506 409 1894 409 
Q 2359 409 2629 706 
Q 2900 1003 2900 1516 
L 2900 3500 
L 3475 3500 
L 3475 0 
L 2900 0 
L 2900 538 
Q 2691 219 2414 64 
Q 2138 -91 1772 -91 
Q 1169 -91 856 284 
Q 544 659 544 1381 
z
M 1991 3584 
L 1991 3584 
z
" transform="scale(0.015625)"/>
       <path id="DejaVuSans-74" d="M 1172 4494 
L 1172 3500 
L 2356 3500 
L 2356 3053 
L 1172 3053 
L 1172 1153 
Q 1172 725 1289 603 
Q 1406 481 1766 481 
L 2356 481 
L 2356 0 
L 1766 0 
Q 1100 0 847 248 
Q 594 497 594 1153 
L 594 3053 
L 172 3053 
L 172 3500 
L 594 3500 
L 594 4494 
L 1172 4494 
z
" transform="scale(0.015625)"/>
      </defs>
      <use xlink:href="#DejaVuSans-54"/>
      <use xlink:href="#DejaVuSans-72" x="46.333984"/>
      <use xlink:href="#DejaVuSans-61" x="87.447266"/>
      <use xlink:href="#DejaVuSans-69" x="148.726562"/>
      <use xlink:href="#DejaVuSans-6e" x="176.509766"/>
      <use xlink:href="#DejaVuSans-20" x="239.888672"/>
      <use xlink:href="#DejaVuSans-53" x="271.675781"/>
      <use xlink:href="#DejaVuSans-61" x="335.152344"/>
      <use xlink:href="#DejaVuSans-6d" x="396.431641"/>
      <use xlink:href="#DejaVuSans-70" x="493.84375"/>
      <use xlink:href="#DejaVuSans-6c" x="557.320312"/>
      <use xlink:href="#DejaVuSans-65" x="585.103516"/>
      <use xlink:href="#DejaVuSans-20" x="646.626953"/>
      <use xlink:href="#DejaVuSans-43" x="678.414062"/>
      <use xlink:href="#DejaVuSans-6f" x="748.238281"/>
      <use xlink:href="#DejaVuSans-75" x="809.419922"/>
      <use xlink:href="#DejaVuSans-6e" x="872.798828"/>
      <use xlink:href="#DejaVuSans-74" x="936.177734"/>
     </g>
    </g>
   </g>
   <g id="matplotlib.axis_2">
    <g id="ytick_1">
     <g id="line2d_13">
      <path d="M 41.190688 254.941418 
L 398.310688 254.941418 
" clip-path="url(#p57e6314dc9)" style="fill: none; stroke: #ffffff"/>
     </g>
     <g id="line2d_14">
      <path d="M 41.190688 254.941418 
" style="fill: none; stroke: #333333; stroke-width: 1.5"/>
      <defs>
       <path id="m3095519089" d="M 0 0 
L -2.75 0 
" style="stroke: #000000"/>
      </defs>
      <g>
       <use xlink:href="#m3095519089" x="41.190688" y="254.941418" style="fill: #333333; stroke: #000000"/>
      </g>
     </g>
     <g id="text_6">
      <!-- 0.1 -->
      <g style="fill: #4d4d4d" transform="translate(22.245938 257.369668)scale(0.088 -0.088)">
       <defs>
        <path id="DejaVuSans-2e" d="M 684 794 
L 1344 794 
L 1344 0 
L 684 0 
L 684 794 
z
" transform="scale(0.015625)"/>
       </defs>
       <use xlink:href="#DejaVuSans-30"/>
       <use xlink:href="#DejaVuSans-2e" x="63.623047"/>
       <use xlink:href="#DejaVuSans-31" x="95.410156"/>
      </g>
     </g>
    </g>
    <g id="ytick_2">
     <g id="line2d_15">
      <path d="M 41.190688 206.870599 
L 398.310688 206.870599 
" clip-path="url(#p57e6314dc9)" style="fill: none; stroke: #ffffff"/>
     </g>
     <g id="line2d_16">
      <path d="M 41.190688 206.870599 
" style="fill: none; stroke: #333333; stroke-width: 1.5"/>
      <g>
       <use xlink:href="#m3095519089" x="41.190688" y="206.870599" style="fill: #333333; stroke: #000000"/>
      </g>
     </g>
     <g id="text_7">
      <!-- 0.2 -->
      <g style="fill: #4d4d4d" transform="translate(22.245938 209.298849)scale(0.088 -0.088)">
       <use xlink:href="#DejaVuSans-30"/>
       <use xlink:href="#DejaVuSans-2e" x="63.623047"/>
       <use xlink:href="#DejaVuSans-32" x="95.410156"/>
      </g>
     </g>
    </g>
    <g id="ytick_3">
     <g id="line2d_17">
      <path d="M 41.190688 158.799781 
L 398.310688 158.799781 
" clip-path="url(#p57e6314dc9)" style="fill: none; stroke: #ffffff"/>
     </g>
     <g id="line2d_18">
      <path d="M 41.190688 158.799781 
" style="fill: none; stroke: #333333; stroke-width: 1.5"/>
      <g>
       <use xlink:href="#m3095519089" x="41.190688" y="158.799781" style="fill: #333333; stroke: #000000"/>
      </g>
     </g>
     <g id="text_8">
      <!-- 0.3 -->
      <g style="fill: #4d4d4d" transform="translate(22.245938 161.228031)scale(0.088 -0.088)">
       <defs>
        <path id="DejaVuSans-33" d="M 2597 2516 
Q 3050 2419 3304 2112 
Q 3559 1806 3559 1356 
Q 3559 666 3084 287 
Q 2609 -91 1734 -91 
Q 1441 -91 1130 -33 
Q 819 25 488 141 
L 488 750 
Q 750 597 1062 519 
Q 1375 441 1716 441 
Q 2309 441 2620 675 
Q 2931 909 2931 1356 
Q 2931 1769 2642 2001 
Q 2353 2234 1838 2234 
L 1294 2234 
L 1294 2753 
L 1863 2753 
Q 2328 2753 2575 2939 
Q 2822 3125 2822 3475 
Q 2822 3834 2567 4026 
Q 2313 4219 1838 4219 
Q 1578 4219 1281 4162 
Q 984 4106 628 3988 
L 628 4550 
Q 988 4650 1302 4700 
Q 1616 4750 1894 4750 
Q 2613 4750 3031 4423 
Q 3450 4097 3450 3541 
Q 3450 3153 3228 2886 
Q 3006 2619 2597 2516 
z
" transform="scale(0.015625)"/>
       </defs>
       <use xlink:href="#DejaVuSans-30"/>
       <use xlink:href="#DejaVuSans-2e" x="63.623047"/>
       <use xlink:href="#DejaVuSans-33" x="95.410156"/>
      </g>
     </g>
    </g>
    <g id="ytick_4">
     <g id="line2d_19">
      <path d="M 41.190688 110.728962 
L 398.310688 110.728962 
" clip-path="url(#p57e6314dc9)" style="fill: none; stroke: #ffffff"/>
     </g>
     <g id="line2d_20">
      <path d="M 41.190688 110.728962 
" style="fill: none; stroke: #333333; stroke-width: 1.5"/>
      <g>
       <use xlink:href="#m3095519089" x="41.190688" y="110.728962" style="fill: #333333; stroke: #000000"/>
      </g>
     </g>
     <g id="text_9">
      <!-- 0.4 -->
      <g style="fill: #4d4d4d" transform="translate(22.245938 113.157212)scale(0.088 -0.088)">
       <defs>
        <path id="DejaVuSans-34" d="M 2419 4116 
L 825 1625 
L 2419 1625 
L 2419 4116 
z
M 2253 4666 
L 3047 4666 
L 3047 1625 
L 3713 1625 
L 3713 1100 
L 3047 1100 
L 3047 0 
L 2419 0 
L 2419 1100 
L 313 1100 
L 313 1709 
L 2253 4666 
z
" transform="scale(0.015625)"/>
       </defs>
       <use xlink:href="#DejaVuSans-30"/>
       <use xlink:href="#DejaVuSans-2e" x="63.623047"/>
       <use xlink:href="#DejaVuSans-34" x="95.410156"/>
      </g>
     </g>
    </g>
    <g id="ytick_5">
     <g id="line2d_21">
      <path d="M 41.190688 62.658143 
L 398.310688 62.658143 
" clip-path="url(#p57e6314dc9)" style="fill: none; stroke: #ffffff"/>
     </g>
     <g id="line2d_22">
      <path d="M 41.190688 62.658143 
" style="fill: none; stroke: #333333; stroke-width: 1.5"/>
      <g>
       <use xlink:href="#m3095519089" x="41.190688" y="62.658143" style="fill: #333333; stroke: #000000"/>
      </g>
     </g>
     <g id="text_10">
      <!-- 0.5 -->
      <g style="fill: #4d4d4d" transform="translate(22.245938 65.086393)scale(0.088 -0.088)">
       <use xlink:href="#DejaVuSans-30"/>
       <use xlink:href="#DejaVuSans-2e" x="63.623047"/>
       <use xlink:href="#DejaVuSans-35" x="95.410156"/>
      </g>
     </g>
    </g>
    <g id="ytick_6">
     <g id="line2d_23">
      <path d="M 41.190688 278.976827 
L 398.310688 278.976827 
" clip-path="url(#p57e6314dc9)" style="fill: none; stroke: #ffffff; stroke-width: 0.5"/>
     </g>
    </g>
    <g id="ytick_7">
     <g id="line2d_24">
      <path d="M 41.190688 230.906009 
L 398.310688 230.906009 
" clip-path="url(#p57e6314dc9)" style="fill: none; stroke: #ffffff; stroke-width: 0.5"/>
     </g>
    </g>
    <g id="ytick_8">
     <g id="line2d_25">
      <path d="M 41.190688 182.83519 
L 398.310688 182.83519 
" clip-path="url(#p57e6314dc9)" style="fill: none; stroke: #ffffff; stroke-width: 0.5"/>
     </g>
    </g>
    <g id="ytick_9">
     <g id="line2d_26">
      <path d="M 41.190688 134.764371 
L 398.310688 134.764371 
" clip-path="url(#p57e6314dc9)" style="fill: none; stroke: #ffffff; stroke-width: 0.5"/>
     </g>
    </g>
    <g id="ytick_10">
     <g id="line2d_27">
      <path d="M 41.190688 86.693553 
L 398.310688 86.693553 
" clip-path="url(#p57e6314dc9)" style="fill: none; stroke: #ffffff; stroke-width: 0.5"/>
     </g>
    </g>
    <g id="ytick_11">
     <g id="line2d_28">
      <path d="M 41.190688 38.622734 
L 398.310688 38.622734 
" clip-path="url(#p57e6314dc9)" style="fill: none; stroke: #ffffff; stroke-width: 0.5"/>
     </g>
    </g>
    <g id="text_11">
     <!-- Balanced Accuracy (Val Set) -->
     <g transform="translate(15.558281 234.774543)rotate(-90)scale(0.11 -0.11)">
      <defs>
       <path id="DejaVuSans-42" d="M 1259 2228 
L 1259 519 
L 2272 519 
Q 2781 519 3026 730 
Q 3272 941 3272 1375 
Q 3272 1813 3026 2020 
Q 2781 2228 2272 2228 
L 1259 2228 
z
M 1259 4147 
L 1259 2741 
L 2194 2741 
Q 2656 2741 2882 2914 
Q 3109 3088 3109 3444 
Q 3109 3797 2882 3972 
Q 2656 4147 2194 4147 
L 1259 4147 
z
M 628 4666 
L 2241 4666 
Q 2963 4666 3353 4366 
Q 3744 4066 3744 3513 
Q 3744 3084 3544 2831 
Q 3344 2578 2956 2516 
Q 3422 2416 3680 2098 
Q 3938 1781 3938 1306 
Q 3938 681 3513 340 
Q 3088 0 2303 0 
L 628 0 
L 628 4666 
z
" transform="scale(0.015625)"/>
       <path id="DejaVuSans-63" d="M 3122 3366 
L 3122 2828 
Q 2878 2963 2633 3030 
Q 2388 3097 2138 3097 
Q 1578 3097 1268 2742 
Q 959 2388 959 1747 
Q 959 1106 1268 751 
Q 1578 397 2138 397 
Q 2388 397 2633 464 
Q 2878 531 3122 666 
L 3122 134 
Q 2881 22 2623 -34 
Q 2366 -91 2075 -91 
Q 1284 -91 818 406 
Q 353 903 353 1747 
Q 353 2603 823 3093 
Q 1294 3584 2113 3584 
Q 2378 3584 2631 3529 
Q 2884 3475 3122 3366 
z
" transform="scale(0.015625)"/>
       <path id="DejaVuSans-64" d="M 2906 2969 
L 2906 4863 
L 3481 4863 
L 3481 0 
L 2906 0 
L 2906 525 
Q 2725 213 2448 61 
Q 2172 -91 1784 -91 
Q 1150 -91 751 415 
Q 353 922 353 1747 
Q 353 2572 751 3078 
Q 1150 3584 1784 3584 
Q 2172 3584 2448 3432 
Q 2725 3281 2906 2969 
z
M 947 1747 
Q 947 1113 1208 752 
Q 1469 391 1925 391 
Q 2381 391 2643 752 
Q 2906 1113 2906 1747 
Q 2906 2381 2643 2742 
Q 2381 3103 1925 3103 
Q 1469 3103 1208 2742 
Q 947 2381 947 1747 
z
" transform="scale(0.015625)"/>
       <path id="DejaVuSans-41" d="M 2188 4044 
L 1331 1722 
L 3047 1722 
L 2188 4044 
z
M 1831 4666 
L 2547 4666 
L 4325 0 
L 3669 0 
L 3244 1197 
L 1141 1197 
L 716 0 
L 50 0 
L 1831 4666 
z
" transform="scale(0.015625)"/>
       <path id="DejaVuSans-79" d="M 2059 -325 
Q 1816 -950 1584 -1140 
Q 1353 -1331 966 -1331 
L 506 -1331 
L 506 -850 
L 844 -850 
Q 1081 -850 1212 -737 
Q 1344 -625 1503 -206 
L 1606 56 
L 191 3500 
L 800 3500 
L 1894 763 
L 2988 3500 
L 3597 3500 
L 2059 -325 
z
" transform="scale(0.015625)"/>
       <path id="DejaVuSans-28" d="M 1984 4856 
Q 1566 4138 1362 3434 
Q 1159 2731 1159 2009 
Q 1159 1288 1364 580 
Q 1569 -128 1984 -844 
L 1484 -844 
Q 1016 -109 783 600 
Q 550 1309 550 2009 
Q 550 2706 781 3412 
Q 1013 4119 1484 4856 
L 1984 4856 
z
" transform="scale(0.015625)"/>
       <path id="DejaVuSans-56" d="M 1831 0 
L 50 4666 
L 709 4666 
L 2188 738 
L 3669 4666 
L 4325 4666 
L 2547 0 
L 1831 0 
z
" transform="scale(0.015625)"/>
       <path id="DejaVuSans-29" d="M 513 4856 
L 1013 4856 
Q 1481 4119 1714 3412 
Q 1947 2706 1947 2009 
Q 1947 1309 1714 600 
Q 1481 -109 1013 -844 
L 513 -844 
Q 928 -128 1133 580 
Q 1338 1288 1338 2009 
Q 1338 2731 1133 3434 
Q 928 4138 513 4856 
z
" transform="scale(0.015625)"/>
      </defs>
      <use xlink:href="#DejaVuSans-42"/>
      <use xlink:href="#DejaVuSans-61" x="68.603516"/>
      <use xlink:href="#DejaVuSans-6c" x="129.882812"/>
      <use xlink:href="#DejaVuSans-61" x="157.666016"/>
      <use xlink:href="#DejaVuSans-6e" x="218.945312"/>
      <use xlink:href="#DejaVuSans-63" x="282.324219"/>
      <use xlink:href="#DejaVuSans-65" x="337.304688"/>
      <use xlink:href="#DejaVuSans-64" x="398.828125"/>
      <use xlink:href="#DejaVuSans-20" x="462.304688"/>
      <use xlink:href="#DejaVuSans-41" x="494.091797"/>
      <use xlink:href="#DejaVuSans-63" x="560.75"/>
      <use xlink:href="#DejaVuSans-63" x="615.730469"/>
      <use xlink:href="#DejaVuSans-75" x="670.710938"/>
      <use xlink:href="#DejaVuSans-72" x="734.089844"/>
      <use xlink:href="#DejaVuSans-61" x="775.203125"/>
      <use xlink:href="#DejaVuSans-63" x="836.482422"/>
      <use xlink:href="#DejaVuSans-79" x="891.462891"/>
      <use xlink:href="#DejaVuSans-20" x="950.642578"/>
      <use xlink:href="#DejaVuSans-28" x="982.429688"/>
      <use xlink:href="#DejaVuSans-56" x="1021.443359"/>
      <use xlink:href="#DejaVuSans-61" x="1082.101562"/>
      <use xlink:href="#DejaVuSans-6c" x="1143.380859"/>
      <use xlink:href="#DejaVuSans-20" x="1171.164062"/>
      <use xlink:href="#DejaVuSans-53" x="1202.951172"/>
      <use xlink:href="#DejaVuSans-65" x="1266.427734"/>
      <use xlink:href="#DejaVuSans-74" x="1327.951172"/>
      <use xlink:href="#DejaVuSans-29" x="1367.160156"/>
     </g>
    </g>
   </g>
   <g id="PolyCollection_1">
    <path d="M 57.423415 179.048199 
L 57.423415 226.237281 
L 59.752205 220.859533 
L 59.893344 220.538021 
L 59.963913 220.377454 
L 59.999198 220.297219 
L 60.281476 219.656475 
L 60.352045 219.496607 
L 60.457899 219.257041 
L 60.563753 219.017762 
L 60.634323 218.858401 
L 60.881316 218.30164 
L 60.9166 218.22223 
L 61.939857 215.933209 
L 62.292704 215.150125 
L 62.398558 214.915825 
L 87.979967 167.051112 
L 92.602263 160.267131 
L 92.919825 159.82079 
L 93.060964 159.623212 
L 93.131533 159.524608 
L 93.696089 158.740336 
L 93.801943 158.594181 
L 94.013651 158.302717 
L 94.260644 157.964091 
L 94.366498 157.819431 
L 94.895769 157.100288 
L 94.966338 157.004924 
L 96.977566 154.337582 
L 97.68326 153.424346 
L 97.930253 153.107434 
L 118.536519 130.901288 
L 125.487605 124.93771 
L 125.946307 124.565892 
L 126.158015 124.39514 
L 126.263869 124.309965 
L 127.110702 123.63337 
L 127.251841 123.521427 
L 127.569403 123.270407 
L 127.92225 122.993977 
L 128.133958 122.829863 
L 128.874937 122.265606 
L 128.980791 122.18627 
L 132.05056 120.018008 
L 133.073816 119.34962 
L 133.426663 119.125145 
L 149.093071 111.670343 
L 158.337663 108.583979 
L 158.937503 108.385185 
L 159.219781 108.291062 
L 159.396204 108.232027 
L 160.49003 107.861866 
L 160.701738 107.789291 
L 161.125155 107.643116 
L 161.619141 107.470717 
L 161.866133 107.38371 
L 162.88939 107.016928 
L 163.030529 106.965478 
L 167.088269 105.563677 
L 168.464373 105.128043 
L 168.958359 104.977075 
L 179.649623 102.550114 
L 191.223006 101.797623 
L 191.963984 101.791101 
L 192.316831 101.78851 
L 192.52854 101.787066 
L 193.904643 101.778336 
L 194.151636 101.776649 
L 194.716191 101.772319 
L 195.316031 101.766665 
L 195.633594 101.763085 
L 196.903843 101.743181 
L 197.080266 101.739553 
L 202.161263 101.484078 
L 203.890214 101.302465 
L 204.490054 101.224813 
L 210.206176 100.491351 
L 224.073064 99.435093 
L 224.990466 99.420984 
L 225.413882 99.417281 
L 225.660875 99.415947 
L 227.319256 99.422871 
L 227.601534 99.426812 
L 228.271943 99.439391 
L 228.977637 99.457506 
L 229.365769 99.469585 
L 230.883011 99.530968 
L 231.094719 99.541294 
L 237.198973 100.001813 
L 239.28077 100.214634 
L 239.986464 100.29066 
L 240.762728 100.375833 
L 256.923121 101.494405 
L 257.981662 101.451339 
L 258.475648 101.42345 
L 258.793211 101.40345 
L 260.698584 101.266364 
L 261.051431 101.237999 
L 261.827695 101.172635 
L 262.674528 101.097009 
L 263.097944 101.057638 
L 264.897464 100.880199 
L 265.144457 100.854715 
L 271.31928 100.165158 
L 272.236682 100.058776 
L 274.671327 99.77765 
L 275.518159 99.680911 
L 289.808464 98.158311 
L 291.008144 98.030134 
L 291.572699 97.968949 
L 291.925546 97.93039 
L 294.113198 97.685042 
L 294.501329 97.640266 
L 295.383447 97.536994 
L 296.336134 97.423816 
L 296.865404 97.360542 
L 298.876632 97.117969 
L 299.15891 97.083702 
L 301.875832 96.752212 
L 307.309676 96.091465 
L 310.061883 95.766071 
L 311.01457 95.656059 
L 322.658522 94.516455 
L 324.034625 94.418862 
L 324.66975 94.377388 
L 325.057881 94.353207 
L 327.527811 94.221478 
L 327.951227 94.20298 
L 328.939199 94.1648 
L 330.033024 94.131014 
L 330.59758 94.117221 
L 332.432384 94.090505 
L 332.891085 94.088346 
L 333.208648 94.087975 
L 342.347385 94.522278 
L 345.452439 94.881963 
L 346.546265 95.035614 
L 355.543864 96.834471 
L 357.061106 97.230297 
L 357.7668 97.423241 
L 358.190217 97.541678 
L 360.942424 98.359645 
L 361.436409 98.515167 
L 362.530235 98.868804 
L 363.729915 99.271174 
L 364.36504 99.490263 
L 366.905538 100.407839 
L 367.258385 100.540414 
L 377.42038 104.86524 
L 380.87828 106.546554 
L 382.07796 107.153152 
L 382.07796 45.347987 
L 382.07796 45.347987 
L 380.87828 46.154234 
L 377.42038 48.409222 
L 367.258385 54.411283 
L 366.905538 54.602033 
L 364.36504 55.938656 
L 363.729915 56.262582 
L 362.530235 56.863092 
L 361.436409 57.397538 
L 360.942424 57.634771 
L 358.190217 58.908741 
L 357.7668 59.097461 
L 357.061106 59.407633 
L 355.543864 60.055893 
L 346.546265 63.366365 
L 345.452439 63.705905 
L 342.347385 64.596347 
L 333.208648 66.623997 
L 332.891085 66.679955 
L 332.432384 66.759266 
L 330.59758 67.059415 
L 330.033024 67.146468 
L 328.939199 67.308364 
L 327.951227 67.447193 
L 327.527811 67.504617 
L 325.057881 67.816157 
L 324.66975 67.861651 
L 324.034625 67.934176 
L 322.658522 68.083438 
L 311.01457 69.000688 
L 310.061883 69.054485 
L 307.309676 69.196693 
L 301.875832 69.429883 
L 299.15891 69.527975 
L 298.876632 69.537592 
L 296.865404 69.603351 
L 296.336134 69.619907 
L 295.383447 69.648989 
L 294.501329 69.677601 
L 294.113198 69.691488 
L 291.925546 69.783406 
L 291.572699 69.800217 
L 291.008144 69.828136 
L 289.808464 69.891258 
L 275.518159 70.741046 
L 274.671327 70.783807 
L 272.236682 70.898699 
L 271.31928 70.939199 
L 265.144457 71.191936 
L 264.897464 71.202104 
L 263.097944 71.278734 
L 262.674528 71.297621 
L 261.827695 71.336666 
L 261.051431 71.374178 
L 260.698584 71.391842 
L 258.793211 71.494992 
L 258.475648 71.51361 
L 257.981662 71.542806 
L 256.923121 71.604535 
L 240.762728 72.111823 
L 239.986464 72.099496 
L 239.28077 72.084298 
L 237.198973 72.016834 
L 231.094719 71.627497 
L 230.883011 71.609323 
L 229.365769 71.471527 
L 228.977637 71.434323 
L 228.271943 71.364884 
L 227.601534 71.29699 
L 227.319256 71.267903 
L 225.660875 71.092329 
L 225.413882 71.065659 
L 224.990466 71.019739 
L 224.073064 70.919722 
L 210.206176 69.970887 
L 204.490054 70.401795 
L 203.890214 70.487806 
L 202.161263 70.744897 
L 197.080266 71.553787 
L 196.903843 71.582579 
L 195.633594 71.789864 
L 195.316031 71.841577 
L 194.716191 71.938999 
L 194.151636 72.030274 
L 193.904643 72.07005 
L 192.52854 72.289398 
L 192.316831 72.322744 
L 191.963984 72.378047 
L 191.223006 72.492986 
L 179.649623 74.032404 
L 168.958359 75.641811 
L 168.464373 75.750817 
L 167.088269 76.081053 
L 163.030529 77.324572 
L 162.88939 77.375767 
L 161.866133 77.745676 
L 161.619141 77.834689 
L 161.125155 78.012472 
L 160.701738 78.164654 
L 160.49003 78.240693 
L 159.396204 78.633305 
L 159.219781 78.696629 
L 158.937503 78.797971 
L 158.337663 79.013489 
L 149.093071 82.481381 
L 133.426663 90.64113 
L 133.073816 90.88787 
L 132.05056 91.624901 
L 128.980791 94.041195 
L 128.874937 94.130337 
L 128.133958 94.765752 
L 127.92225 94.951016 
L 127.569403 95.263516 
L 127.251841 95.547451 
L 127.110702 95.674013 
L 126.263869 96.438171 
L 126.158015 96.534268 
L 125.946307 96.726846 
L 125.487605 97.145858 
L 118.536519 103.790393 
L 97.930253 126.583806 
L 97.68326 126.882113 
L 96.977566 127.737219 
L 94.966338 130.196378 
L 94.895769 130.283241 
L 94.366498 130.935927 
L 94.260644 131.066718 
L 94.013651 131.372225 
L 93.801943 131.63445 
L 93.696089 131.765686 
L 93.131533 132.466998 
L 93.060964 132.554824 
L 92.919825 132.730564 
L 92.602263 133.126347 
L 87.979967 138.938722 
L 62.398558 172.29751 
L 62.292704 172.439982 
L 61.939857 172.915233 
L 60.9166 174.296527 
L 60.881316 174.34424 
L 60.634323 174.67839 
L 60.563753 174.773912 
L 60.457899 174.917237 
L 60.352045 175.060614 
L 60.281476 175.156226 
L 59.999198 175.538903 
L 59.963913 175.586764 
L 59.893344 175.682502 
L 59.752205 175.874047 
L 57.423415 179.048199 
z
" clip-path="url(#p57e6314dc9)" style="fill: #999999; fill-opacity: 0.4"/>
   </g>
   <g id="line2d_29">
    <path d="M 57.423415 202.64274 
L 62.398558 193.606668 
L 87.979967 152.994917 
L 94.966338 143.600651 
L 97.930253 139.84562 
L 118.536519 117.345841 
L 127.92225 108.972497 
L 128.980791 108.113733 
L 133.426663 104.883137 
L 149.093071 97.075862 
L 163.030529 92.145025 
L 168.958359 90.309443 
L 179.649623 88.291259 
L 210.206176 85.231119 
L 225.660875 85.254138 
L 231.094719 85.584395 
L 240.762728 86.243828 
L 258.475648 86.46853 
L 265.144457 86.023325 
L 275.518159 85.210979 
L 342.347385 79.559312 
L 382.07796 76.250569 
L 382.07796 76.250569 
" clip-path="url(#p57e6314dc9)" style="fill: none; stroke: #db5f57; stroke-width: 1.772454; stroke-linejoin: miter"/>
   </g>
   <g id="PolyCollection_2">
    <path d="M 57.423415 132.388714 
L 57.423415 166.536851 
L 59.752205 162.971587 
L 59.893344 162.758454 
L 59.963913 162.652015 
L 59.999198 162.598827 
L 60.281476 162.174084 
L 60.352045 162.068111 
L 60.457899 161.909309 
L 60.563753 161.750699 
L 60.634323 161.645065 
L 60.881316 161.276015 
L 60.9166 161.223378 
L 61.939857 159.706203 
L 62.292704 159.187212 
L 62.398558 159.031933 
L 87.979967 127.422785 
L 92.602263 122.980001 
L 92.919825 122.688244 
L 93.060964 122.559117 
L 93.131533 122.494682 
L 93.696089 121.982364 
L 93.801943 121.886928 
L 94.013651 121.696642 
L 94.260644 121.475626 
L 94.366498 121.381228 
L 94.895769 120.912122 
L 94.966338 120.849936 
L 96.977566 119.112631 
L 97.68326 118.518716 
L 97.930253 118.312721 
L 118.536519 103.99026 
L 125.487605 100.157827 
L 125.946307 99.918452 
L 126.158015 99.808496 
L 126.263869 99.753641 
L 127.110702 99.317734 
L 127.251841 99.245584 
L 127.569403 99.083763 
L 127.92225 98.905272 
L 128.133958 98.79905 
L 128.874937 98.432362 
L 128.980791 98.380618 
L 132.05056 96.947342 
L 133.073816 96.497562 
L 133.426663 96.345605 
L 149.093071 91.014608 
L 158.337663 88.751077 
L 158.937503 88.611329 
L 159.219781 88.545536 
L 159.396204 88.504394 
L 160.49003 88.248662 
L 160.701738 88.198979 
L 161.125155 88.099369 
L 161.619141 87.982676 
L 161.866133 87.924105 
L 162.88939 87.67956 
L 163.030529 87.645558 
L 167.088269 86.798829 
L 168.464373 86.570577 
L 168.958359 86.495838 
L 179.649623 85.789893 
L 191.223006 86.563125 
L 191.963984 86.632243 
L 192.316831 86.664689 
L 192.52854 86.683963 
L 193.904643 86.804398 
L 194.151636 86.82489 
L 194.716191 86.870122 
L 195.316031 86.91541 
L 195.633594 86.938089 
L 196.903843 87.018363 
L 197.080266 87.028042 
L 202.161263 87.094906 
L 203.890214 86.997281 
L 204.490054 86.945825 
L 210.206176 86.29631 
L 224.073064 84.332006 
L 224.990466 84.212676 
L 225.413882 84.158879 
L 225.660875 84.127891 
L 227.319256 83.927825 
L 227.601534 83.895233 
L 228.271943 83.819625 
L 228.977637 83.742849 
L 229.365769 83.701882 
L 230.883011 83.550577 
L 231.094719 83.530603 
L 237.198973 83.07547 
L 239.28077 82.97005 
L 239.986464 82.939209 
L 240.762728 82.907854 
L 256.923121 82.401498 
L 257.981662 82.344088 
L 258.475648 82.314954 
L 258.793211 82.295466 
L 260.698584 82.16844 
L 261.051431 82.143194 
L 261.827695 82.085991 
L 262.674528 82.02123 
L 263.097944 81.988025 
L 264.897464 81.841877 
L 265.144457 81.821294 
L 271.31928 81.292774 
L 272.236682 81.215493 
L 274.671327 81.016626 
L 275.518159 80.950073 
L 289.808464 80.063026 
L 291.008144 80.002675 
L 291.572699 79.974467 
L 291.925546 79.956875 
L 294.113198 79.847916 
L 294.501329 79.82853 
L 295.383447 79.78434 
L 296.336134 79.736617 
L 296.865404 79.710226 
L 298.876632 79.61113 
L 299.15891 79.597414 
L 301.875832 79.468781 
L 307.309676 79.239459 
L 310.061883 79.144314 
L 311.01457 79.115637 
L 322.658522 79.019785 
L 324.034625 79.049203 
L 324.66975 79.066418 
L 325.057881 79.078113 
L 327.527811 79.174552 
L 327.951227 79.195094 
L 328.939199 79.247849 
L 330.033024 79.31441 
L 330.59758 79.352238 
L 332.432384 79.492276 
L 332.891085 79.53152 
L 333.208648 79.559706 
L 342.347385 80.751138 
L 345.452439 81.335115 
L 346.546265 81.563434 
L 355.543864 83.890026 
L 357.061106 84.36007 
L 357.7668 84.586152 
L 358.190217 84.724058 
L 360.942424 85.661184 
L 361.436409 85.836773 
L 362.530235 86.233457 
L 363.729915 86.680894 
L 364.36504 86.922953 
L 366.905538 87.926482 
L 367.258385 88.070267 
L 377.42038 92.650346 
L 380.87828 94.392507 
L 382.07796 95.017571 
L 382.07796 50.29258 
L 382.07796 50.29258 
L 380.87828 50.689914 
L 377.42038 51.796238 
L 367.258385 54.689158 
L 366.905538 54.779345 
L 364.36504 55.407056 
L 363.729915 55.557946 
L 362.530235 55.836239 
L 361.436409 56.082211 
L 360.942424 56.190838 
L 358.190217 56.767531 
L 357.7668 56.851899 
L 357.061106 56.989893 
L 355.543864 57.275397 
L 346.546265 58.646145 
L 345.452439 58.774721 
L 342.347385 59.095391 
L 333.208648 59.685539 
L 332.891085 59.697579 
L 332.432384 59.714164 
L 330.59758 59.771996 
L 330.033024 59.787182 
L 328.939199 59.813327 
L 327.951227 59.833406 
L 327.527811 59.841033 
L 325.057881 59.874713 
L 324.66975 59.878441 
L 324.034625 59.883695 
L 322.658522 59.891668 
L 311.01457 59.826615 
L 310.061883 59.814612 
L 307.309676 59.777195 
L 301.875832 59.697118 
L 299.15891 59.656854 
L 298.876632 59.652732 
L 296.865404 59.623878 
L 296.336134 59.616461 
L 295.383447 59.603328 
L 294.501329 59.593491 
L 294.113198 59.590524 
L 291.925546 59.588454 
L 291.572699 59.590308 
L 291.008144 59.594444 
L 289.808464 59.607718 
L 275.518159 60.007889 
L 274.671327 60.035381 
L 272.236682 60.113953 
L 271.31928 60.14356 
L 265.144457 60.355976 
L 264.897464 60.365476 
L 263.097944 60.438673 
L 262.674528 60.457055 
L 261.827695 60.495345 
L 261.051431 60.532392 
L 260.698584 60.549896 
L 258.793211 60.652364 
L 258.475648 60.670852 
L 257.981662 60.700932 
L 256.923121 60.771847 
L 240.762728 62.454749 
L 239.986464 62.538818 
L 239.28077 62.613677 
L 237.198973 62.824284 
L 231.094719 63.330927 
L 230.883011 63.345221 
L 229.365769 63.441231 
L 228.977637 63.464016 
L 228.271943 63.503652 
L 227.601534 63.539231 
L 227.319256 63.553627 
L 225.660875 63.631649 
L 225.413882 63.642373 
L 224.990466 63.660261 
L 224.073064 63.697004 
L 210.206176 64.210333 
L 204.490054 64.640907 
L 203.890214 64.698411 
L 202.161263 64.850655 
L 197.080266 65.184267 
L 196.903843 65.192799 
L 195.633594 65.248121 
L 195.316031 65.260273 
L 194.716191 65.281393 
L 194.151636 65.299079 
L 193.904643 65.306149 
L 192.52854 65.338127 
L 192.316831 65.341938 
L 191.963984 65.347637 
L 191.223006 65.356975 
L 179.649623 65.153198 
L 168.958359 65.267524 
L 168.464373 65.311898 
L 167.088269 65.463879 
L 163.030529 66.196069 
L 162.88939 66.229886 
L 161.866133 66.476694 
L 161.619141 66.536716 
L 161.125155 66.657305 
L 160.701738 66.761263 
L 160.49003 66.813453 
L 159.396204 67.085431 
L 159.219781 67.129676 
L 158.937503 67.200693 
L 158.337663 67.352543 
L 149.093071 69.892165 
L 133.426663 75.733293 
L 133.073816 75.901363 
L 132.05056 76.400816 
L 128.980791 78.013579 
L 128.874937 78.072419 
L 128.133958 78.4906 
L 127.92225 78.612127 
L 127.569403 78.81672 
L 127.251841 79.002359 
L 127.110702 79.085089 
L 126.263869 79.584361 
L 126.158015 79.647119 
L 125.946307 79.772869 
L 125.487605 80.046395 
L 118.536519 84.3716 
L 97.930253 99.119034 
L 97.68326 99.311565 
L 96.977566 99.863415 
L 94.966338 101.450069 
L 94.895769 101.506103 
L 94.366498 101.927118 
L 94.260644 102.01148 
L 94.013651 102.20853 
L 93.801943 102.377656 
L 93.696089 102.462297 
L 93.131533 102.914581 
L 93.060964 102.971218 
L 92.919825 103.084541 
L 92.602263 103.339712 
L 87.979967 107.079399 
L 62.398558 128.191408 
L 62.292704 128.280236 
L 61.939857 128.576466 
L 60.9166 129.436768 
L 60.881316 129.466468 
L 60.634323 129.674426 
L 60.563753 129.733864 
L 60.457899 129.823038 
L 60.352045 129.912232 
L 60.281476 129.971707 
L 59.999198 130.209701 
L 59.963913 130.239461 
L 59.893344 130.298988 
L 59.752205 130.418071 
L 57.423415 132.388714 
z
" clip-path="url(#p57e6314dc9)" style="fill: #999999; fill-opacity: 0.4"/>
   </g>
   <g id="line2d_30">
    <path d="M 57.423415 149.462782 
L 62.398558 143.61167 
L 87.979967 117.251092 
L 94.966338 111.150003 
L 97.930253 108.715877 
L 118.536519 94.18093 
L 128.133958 88.644825 
L 132.05056 86.674079 
L 133.426663 86.039449 
L 149.093071 80.453387 
L 163.030529 76.920813 
L 168.464373 75.941237 
L 168.958359 75.881681 
L 179.649623 75.471545 
L 197.080266 76.106155 
L 203.890214 75.847846 
L 231.094719 73.430765 
L 240.762728 72.681302 
L 271.31928 70.718167 
L 275.518159 70.478981 
L 295.383447 69.693834 
L 311.01457 69.471126 
L 330.033024 69.550796 
L 333.208648 69.622622 
L 346.546265 70.10479 
L 363.729915 71.11942 
L 367.258385 71.379713 
L 382.07796 72.655075 
L 382.07796 72.655075 
" clip-path="url(#p57e6314dc9)" style="fill: none; stroke: #91db57; stroke-width: 1.772454; stroke-linejoin: miter"/>
   </g>
   <g id="PolyCollection_3">
    <path d="M 57.423415 95.9871 
L 57.423415 157.096994 
L 59.752205 154.058271 
L 59.893344 153.877369 
L 59.963913 153.787058 
L 59.999198 153.741939 
L 60.281476 153.381829 
L 60.352045 153.292037 
L 60.457899 153.157528 
L 60.563753 153.02323 
L 60.634323 152.933818 
L 60.881316 152.621619 
L 60.9166 152.577114 
L 61.939857 151.296852 
L 62.292704 150.860057 
L 62.398558 150.729488 
L 87.979967 125.992161 
L 92.602263 122.993089 
L 92.919825 122.802188 
L 93.060964 122.717946 
L 93.131533 122.675965 
L 93.696089 122.343574 
L 93.801943 122.281929 
L 94.013651 122.159273 
L 94.260644 122.01724 
L 94.366498 121.956717 
L 94.895769 121.657206 
L 94.966338 121.617659 
L 96.977566 120.527733 
L 97.68326 120.16175 
L 97.930253 120.0356 
L 118.536519 112.18697 
L 125.487605 110.310527 
L 125.946307 110.19421 
L 126.158015 110.140782 
L 126.263869 110.114128 
L 127.110702 109.90228 
L 127.251841 109.867204 
L 127.569403 109.788518 
L 127.92225 109.701466 
L 128.133958 109.649427 
L 128.874937 109.468414 
L 128.980791 109.442697 
L 132.05056 108.712815 
L 133.073816 108.476749 
L 133.426663 108.396251 
L 149.093071 105.423912 
L 158.337663 104.161027 
L 158.937503 104.081679 
L 159.219781 104.044156 
L 159.396204 104.020634 
L 160.49003 103.873322 
L 160.701738 103.844465 
L 161.125155 103.786355 
L 161.619141 103.71783 
L 161.866133 103.683247 
L 162.88939 103.537405 
L 163.030529 103.516936 
L 167.088269 102.9385 
L 168.464373 102.754267 
L 168.958359 102.690614 
L 179.649623 101.913196 
L 191.223006 102.830868 
L 191.963984 102.933611 
L 192.316831 102.983102 
L 192.52854 103.012918 
L 193.904643 103.207461 
L 194.151636 103.24225 
L 194.716191 103.321254 
L 195.316031 103.404044 
L 195.633594 103.447231 
L 196.903843 103.613843 
L 197.080266 103.636034 
L 202.161263 104.1086 
L 203.890214 104.164952 
L 204.490054 104.168371 
L 210.206176 103.987241 
L 224.073064 103.004204 
L 224.990466 102.959869 
L 225.413882 102.941582 
L 225.660875 102.93158 
L 227.319256 102.877851 
L 227.601534 102.871143 
L 228.271943 102.858183 
L 228.977637 102.849165 
L 229.365769 102.846268 
L 230.883011 102.849279 
L 231.094719 102.851534 
L 237.198973 103.104855 
L 239.28077 103.265035 
L 239.986464 103.325952 
L 240.762728 103.39622 
L 256.923121 104.700201 
L 257.981662 104.707249 
L 258.475648 104.704585 
L 258.793211 104.701215 
L 260.698584 104.665282 
L 261.051431 104.655913 
L 261.827695 104.632637 
L 262.674528 104.603402 
L 263.097944 104.587417 
L 264.897464 104.510836 
L 265.144457 104.499385 
L 271.31928 104.175864 
L 272.236682 104.126228 
L 274.671327 103.998008 
L 275.518159 103.95506 
L 289.808464 103.275425 
L 291.008144 103.199954 
L 291.572699 103.161847 
L 291.925546 103.137119 
L 294.113198 102.966557 
L 294.501329 102.932951 
L 295.383447 102.852553 
L 296.336134 102.762686 
L 296.865404 102.712809 
L 298.876632 102.523893 
L 299.15891 102.49749 
L 301.875832 102.245541 
L 307.309676 101.762068 
L 310.061883 101.534106 
L 311.01457 101.458837 
L 322.658522 100.777733 
L 324.034625 100.737931 
L 324.66975 100.723375 
L 325.057881 100.715721 
L 327.527811 100.690554 
L 327.951227 100.690572 
L 328.939199 100.695884 
L 330.033024 100.710737 
L 330.59758 100.722253 
L 332.432384 100.778791 
L 332.891085 100.797693 
L 333.208648 100.811986 
L 342.347385 101.724136 
L 345.452439 102.277231 
L 346.546265 102.503367 
L 355.543864 104.989387 
L 357.061106 105.517261 
L 357.7668 105.773199 
L 358.190217 105.92991 
L 360.942424 107.005312 
L 361.436409 107.208611 
L 362.530235 107.669721 
L 363.729915 108.192603 
L 364.36504 108.476599 
L 366.905538 109.661349 
L 367.258385 109.831976 
L 377.42038 115.347226 
L 380.87828 117.473556 
L 382.07796 118.239104 
L 382.07796 38.201371 
L 382.07796 38.201371 
L 380.87828 39.265458 
L 377.42038 42.236642 
L 367.258385 50.094717 
L 366.905538 50.342798 
L 364.36504 52.077235 
L 363.729915 52.496445 
L 362.530235 53.272293 
L 361.436409 53.961252 
L 360.942424 54.26657 
L 358.190217 55.900229 
L 357.7668 56.141287 
L 357.061106 56.536884 
L 355.543864 57.361102 
L 346.546265 61.491667 
L 345.452439 61.904212 
L 342.347385 62.970033 
L 333.208648 65.246115 
L 332.891085 65.303806 
L 332.432384 65.384817 
L 330.59758 65.682374 
L 330.033024 65.76573 
L 328.939199 65.91678 
L 327.951227 66.041808 
L 327.527811 66.092201 
L 325.057881 66.350221 
L 324.66975 66.385476 
L 324.034625 66.440243 
L 322.658522 66.546957 
L 311.01457 66.940113 
L 310.061883 66.942583 
L 307.309676 66.933317 
L 301.875832 66.863105 
L 299.15891 66.812803 
L 298.876632 66.807285 
L 296.865404 66.767226 
L 296.336134 66.756604 
L 295.383447 66.737566 
L 294.501329 66.721279 
L 294.113198 66.714885 
L 291.925546 66.686754 
L 291.572699 66.683318 
L 291.008144 66.678345 
L 289.808464 66.66957 
L 275.518159 66.477914 
L 274.671327 66.450961 
L 272.236682 66.363908 
L 271.31928 66.328226 
L 265.144457 66.086065 
L 264.897464 66.077682 
L 263.097944 66.023714 
L 262.674528 66.013172 
L 261.827695 65.995035 
L 261.051431 65.982242 
L 260.698584 65.977755 
L 258.793211 65.96974 
L 258.475648 65.971321 
L 257.981662 65.975678 
L 256.923121 65.992798 
L 240.762728 66.794308 
L 239.986464 66.818373 
L 239.28077 66.836229 
L 237.198973 66.864287 
L 231.094719 66.703147 
L 230.883011 66.690728 
L 229.365769 66.588763 
L 228.977637 66.559123 
L 228.271943 66.501676 
L 227.601534 66.443002 
L 227.319256 66.417147 
L 225.660875 66.252474 
L 225.413882 66.226212 
L 224.990466 66.180236 
L 224.073064 66.076778 
L 210.206176 64.463218 
L 204.490054 64.252541 
L 203.890214 64.259947 
L 202.161263 64.301337 
L 197.080266 64.545446 
L 196.903843 64.555842 
L 195.633594 64.631888 
L 195.316031 64.651033 
L 194.716191 64.687083 
L 194.151636 64.720674 
L 193.904643 64.735209 
L 192.52854 64.813416 
L 192.316831 64.824913 
L 191.963984 64.843685 
L 191.223006 64.881343 
L 179.649623 64.982741 
L 168.958359 64.701425 
L 168.464373 64.710738 
L 167.088269 64.758481 
L 163.030529 65.131941 
L 162.88939 65.15208 
L 161.866133 65.301972 
L 161.619141 65.339153 
L 161.125155 65.414649 
L 160.701738 65.480538 
L 160.49003 65.513882 
L 159.396204 65.690268 
L 159.219781 65.719344 
L 158.937503 65.766215 
L 158.337663 65.867221 
L 149.093071 67.624186 
L 133.426663 71.509432 
L 133.073816 71.618762 
L 132.05056 71.943722 
L 128.980791 72.994805 
L 128.874937 73.033221 
L 128.133958 73.306383 
L 127.92225 73.385811 
L 127.569403 73.519573 
L 127.251841 73.640884 
L 127.110702 73.694892 
L 126.263869 74.020134 
L 126.158015 74.060933 
L 125.946307 74.142625 
L 125.487605 74.320058 
L 118.536519 77.078342 
L 97.930253 85.687483 
L 97.68326 85.789539 
L 96.977566 86.080242 
L 94.966338 86.900572 
L 94.895769 86.92911 
L 94.366498 87.14256 
L 94.260644 87.185123 
L 94.013651 87.284268 
L 93.801943 87.369057 
L 93.696089 87.411383 
L 93.131533 87.63634 
L 93.060964 87.664364 
L 92.919825 87.720326 
L 92.602263 87.845754 
L 87.979967 89.586597 
L 62.398558 95.53874 
L 62.292704 95.550391 
L 61.939857 95.588542 
L 60.9166 95.693297 
L 60.881316 95.696754 
L 60.634323 95.720671 
L 60.563753 95.727413 
L 60.457899 95.737449 
L 60.352045 95.747394 
L 60.281476 95.753974 
L 59.999198 95.779888 
L 59.963913 95.783082 
L 59.893344 95.789439 
L 59.752205 95.802035 
L 57.423415 95.9871 
z
" clip-path="url(#p57e6314dc9)" style="fill: #999999; fill-opacity: 0.4"/>
   </g>
   <g id="line2d_31">
    <path d="M 57.423415 126.542047 
L 62.398558 123.134114 
L 87.979967 107.789379 
L 94.966338 104.259116 
L 97.930253 102.861542 
L 118.536519 94.632656 
L 128.980791 91.218751 
L 133.426663 89.952841 
L 149.093071 86.524049 
L 163.030529 84.324439 
L 168.958359 83.69602 
L 179.649623 83.447968 
L 203.890214 84.21245 
L 210.206176 84.225229 
L 231.094719 84.77734 
L 240.762728 85.095264 
L 261.827695 85.313836 
L 275.518159 85.216487 
L 296.336134 84.759645 
L 311.01457 84.199475 
L 330.59758 83.202314 
L 342.347385 82.347085 
L 357.061106 81.027072 
L 367.258385 79.963347 
L 382.07796 78.220237 
L 382.07796 78.220237 
" clip-path="url(#p57e6314dc9)" style="fill: none; stroke: #57d3db; stroke-width: 1.772454; stroke-linejoin: miter"/>
   </g>
   <g id="PolyCollection_4">
    <path d="M 57.423415 173.174576 
L 57.423415 217.138086 
L 59.752205 212.880821 
L 59.893344 212.626404 
L 59.963913 212.499351 
L 59.999198 212.435863 
L 60.281476 211.928893 
L 60.352045 211.802409 
L 60.457899 211.612878 
L 60.563753 211.423581 
L 60.634323 211.297512 
L 60.881316 210.857091 
L 60.9166 210.794278 
L 61.939857 208.984036 
L 62.292704 208.364915 
L 62.398558 208.179691 
L 87.979967 170.640705 
L 92.602263 165.401223 
L 92.919825 165.057522 
L 93.060964 164.905421 
L 93.131533 164.829522 
L 93.696089 164.226039 
L 93.801943 164.113616 
L 94.013651 163.889455 
L 94.260644 163.629086 
L 94.366498 163.517878 
L 94.895769 162.965212 
L 94.966338 162.891947 
L 96.977566 160.844863 
L 97.68326 160.144941 
L 97.930253 159.902168 
L 118.536519 143.026308 
L 125.487605 138.53211 
L 125.946307 138.252289 
L 126.158015 138.123799 
L 126.263869 138.059709 
L 127.110702 137.550674 
L 127.251841 137.466466 
L 127.569403 137.277652 
L 127.92225 137.069359 
L 128.133958 136.945336 
L 128.874937 136.516825 
L 128.980791 136.45631 
L 132.05056 134.775304 
L 133.073816 134.245857 
L 133.426663 134.066775 
L 149.093071 127.730835 
L 158.337663 125.045247 
L 158.937503 124.880834 
L 159.219781 124.803501 
L 159.396204 124.755167 
L 160.49003 124.45514 
L 160.701738 124.396935 
L 161.125155 124.28032 
L 161.619141 124.143844 
L 161.866133 124.075402 
L 162.88939 123.790041 
L 163.030529 123.750416 
L 167.088269 122.748936 
L 168.464373 122.472379 
L 168.958359 122.38097 
L 179.649623 121.443758 
L 191.223006 122.31259 
L 191.963984 122.396853 
L 192.316831 122.436678 
L 192.52854 122.460423 
L 193.904643 122.610455 
L 194.151636 122.636315 
L 194.716191 122.693821 
L 195.316031 122.752094 
L 195.633594 122.781597 
L 196.903843 122.888549 
L 197.080266 122.901827 
L 202.161263 123.050096 
L 203.890214 122.965277 
L 204.490054 122.915882 
L 210.206176 122.311728 
L 224.073064 120.703256 
L 224.990466 120.618972 
L 225.413882 120.58178 
L 225.660875 120.560599 
L 227.319256 120.428611 
L 227.601534 120.407974 
L 228.271943 120.361156 
L 228.977637 120.315258 
L 229.365769 120.291508 
L 230.883011 120.208918 
L 231.094719 120.198691 
L 237.198973 120.031283 
L 239.28077 120.021081 
L 239.986464 120.021344 
L 240.762728 120.023295 
L 256.923121 119.697168 
L 257.981662 119.596528 
L 258.475648 119.544063 
L 258.793211 119.508534 
L 260.698584 119.269821 
L 261.051431 119.221139 
L 261.827695 119.109549 
L 262.674528 118.981222 
L 263.097944 118.914661 
L 264.897464 118.615967 
L 265.144457 118.573177 
L 271.31928 117.413794 
L 272.236682 117.23373 
L 274.671327 116.75591 
L 275.518159 116.590942 
L 289.808464 114.131525 
L 291.008144 113.959948 
L 291.572699 113.881136 
L 291.925546 113.832509 
L 294.113198 113.541988 
L 294.501329 113.492465 
L 295.383447 113.382278 
L 296.336134 113.264693 
L 296.865404 113.199069 
L 298.876632 112.948426 
L 299.15891 112.913157 
L 301.875832 112.574169 
L 307.309676 111.91452 
L 310.061883 111.600745 
L 311.01457 111.496859 
L 322.658522 110.544466 
L 324.034625 110.485396 
L 324.66975 110.463051 
L 325.057881 110.450989 
L 327.527811 110.404255 
L 327.951227 110.401735 
L 328.939199 110.402487 
L 330.033024 110.414562 
L 330.59758 110.425596 
L 332.432384 110.485157 
L 332.891085 110.505931 
L 333.208648 110.521711 
L 342.347385 111.486069 
L 345.452439 112.052436 
L 346.546265 112.281886 
L 355.543864 114.760701 
L 357.061106 115.280813 
L 357.7668 115.532491 
L 358.190217 115.686449 
L 360.942424 116.740426 
L 361.436409 116.939243 
L 362.530235 117.389756 
L 363.729915 117.89997 
L 364.36504 118.176825 
L 366.905538 119.330097 
L 367.258385 119.495992 
L 377.42038 124.840712 
L 380.87828 126.89518 
L 382.07796 127.634269 
L 382.07796 70.053747 
L 382.07796 70.053747 
L 380.87828 70.630928 
L 377.42038 72.2437 
L 367.258385 76.51998 
L 366.905538 76.65531 
L 364.36504 77.602153 
L 363.729915 77.831196 
L 362.530235 78.255311 
L 361.436409 78.632177 
L 360.942424 78.799268 
L 358.190217 79.694236 
L 357.7668 79.826439 
L 357.061106 80.043486 
L 355.543864 80.496093 
L 346.546265 82.777364 
L 345.452439 83.007392 
L 342.347385 83.6057 
L 333.208648 84.935011 
L 332.891085 84.971018 
L 332.432384 85.022122 
L 330.59758 85.217305 
L 330.033024 85.274523 
L 328.939199 85.381801 
L 327.951227 85.474818 
L 327.527811 85.513604 
L 325.057881 85.727857 
L 324.66975 85.759775 
L 324.034625 85.811049 
L 322.658522 85.918257 
L 311.01457 86.663495 
L 310.061883 86.715008 
L 307.309676 86.858118 
L 301.875832 87.119436 
L 299.15891 87.24098 
L 298.876632 87.253283 
L 296.865404 87.339199 
L 296.336134 87.361298 
L 295.383447 87.400534 
L 294.501329 87.441165 
L 294.113198 87.461911 
L 291.925546 87.609489 
L 291.572699 87.637855 
L 291.008144 87.685674 
L 289.808464 87.796643 
L 275.518159 89.629238 
L 274.671327 89.743918 
L 272.236682 90.066866 
L 271.31928 90.185552 
L 265.144457 90.937974 
L 264.897464 90.966495 
L 263.097944 91.171269 
L 262.674528 91.218747 
L 261.827695 91.312994 
L 261.051431 91.398635 
L 260.698584 91.437348 
L 258.793211 91.644445 
L 258.475648 91.678686 
L 257.981662 91.732369 
L 256.923121 91.850397 
L 240.762728 93.691249 
L 239.986464 93.757164 
L 239.28077 93.813571 
L 237.198973 93.959195 
L 231.094719 94.192919 
L 230.883011 94.195834 
L 229.365769 94.207235 
L 228.977637 94.207577 
L 228.271943 94.20566 
L 227.601534 94.200943 
L 227.319256 94.198154 
L 225.660875 94.173018 
L 225.413882 94.16811 
L 224.990466 94.159071 
L 224.073064 94.137031 
L 210.206176 93.877465 
L 204.490054 94.199748 
L 203.890214 94.256929 
L 202.161263 94.412066 
L 197.080266 94.779384 
L 196.903843 94.789552 
L 195.633594 94.857172 
L 195.316031 94.872511 
L 194.716191 94.899733 
L 194.151636 94.923231 
L 193.904643 94.932855 
L 192.52854 94.979044 
L 192.316831 94.98502 
L 191.963984 94.994304 
L 191.223006 95.011048 
L 179.649623 94.875353 
L 168.958359 95.050894 
L 168.464373 95.10321 
L 167.088269 95.281574 
L 163.030529 96.13559 
L 162.88939 96.174977 
L 161.866133 96.463252 
L 161.619141 96.533564 
L 161.125155 96.675055 
L 160.701738 96.797266 
L 160.49003 96.858699 
L 159.396204 97.179642 
L 159.219781 97.231971 
L 158.937503 97.31603 
L 158.337663 97.496023 
L 149.093071 100.537062 
L 133.426663 107.529762 
L 133.073816 107.729587 
L 132.05056 108.322985 
L 128.980791 110.235069 
L 128.874937 110.30472 
L 128.133958 110.799525 
L 127.92225 110.943251 
L 127.569403 111.185149 
L 127.251841 111.404628 
L 127.110702 111.502456 
L 126.263869 112.093069 
L 126.158015 112.167334 
L 125.946307 112.316158 
L 125.487605 112.639947 
L 118.536519 117.768557 
L 97.930253 135.191541 
L 97.68326 135.416981 
L 96.977566 136.062746 
L 94.966338 137.915877 
L 94.895769 137.981223 
L 94.366498 138.471974 
L 94.260644 138.570262 
L 94.013651 138.799776 
L 93.801943 138.996695 
L 93.696089 139.09522 
L 93.131533 139.621413 
L 93.060964 139.687271 
L 92.919825 139.819027 
L 92.602263 140.115625 
L 87.979967 144.449915 
L 62.398558 168.474517 
L 62.292704 168.57419 
L 61.939857 168.906519 
L 60.9166 169.871081 
L 60.881316 169.904364 
L 60.634323 170.13739 
L 60.563753 170.203984 
L 60.457899 170.303886 
L 60.352045 170.403803 
L 60.281476 170.470422 
L 59.999198 170.736966 
L 59.963913 170.770292 
L 59.893344 170.836948 
L 59.752205 170.970282 
L 57.423415 173.174576 
z
" clip-path="url(#p57e6314dc9)" style="fill: #999999; fill-opacity: 0.4"/>
   </g>
   <g id="line2d_32">
    <path d="M 57.423415 195.156331 
L 62.398558 188.327104 
L 87.979967 157.54531 
L 94.966338 150.403912 
L 97.930253 147.546854 
L 118.536519 130.397433 
L 128.133958 123.872431 
L 132.05056 121.549144 
L 133.426663 120.798268 
L 149.093071 114.133948 
L 161.866133 110.269327 
L 163.030529 109.943003 
L 168.464373 108.787794 
L 168.958359 108.715932 
L 179.649623 108.159555 
L 197.080266 108.840605 
L 203.890214 108.611103 
L 210.206176 108.094597 
L 229.365769 107.249372 
L 240.762728 106.857272 
L 258.793211 105.57649 
L 265.144457 104.755576 
L 291.925546 100.720999 
L 299.15891 100.077068 
L 311.01457 99.080177 
L 327.951227 97.938276 
L 333.208648 97.728361 
L 346.546265 97.529625 
L 361.436409 97.78571 
L 367.258385 98.007986 
L 382.07796 98.844008 
L 382.07796 98.844008 
" clip-path="url(#p57e6314dc9)" style="fill: none; stroke: #a157db; stroke-width: 1.772454; stroke-linejoin: miter"/>
   </g>
   <g id="LineCollection_1">
    <path d="M 41.190688 280.121371 
L 398.310688 280.121371 
" clip-path="url(#p57e6314dc9)" style="fill: none; stroke-dasharray: 3.27904,1.417963; stroke-dashoffset: 0; stroke: #000000; stroke-width: 0.886227"/>
   </g>
   <g id="patch_3">
    <path d="M 405.510688 211.836339 
L 540.824813 211.836339 
L 540.824813 103.030402 
L 405.510688 103.030402 
z
" style="fill: #ffffff"/>
   </g>
   <g id="text_12">
    <!-- Model -->
    <g transform="translate(417.710688 126.623996)scale(0.11 -0.11)">
     <defs>
      <path id="DejaVuSans-4d" d="M 628 4666 
L 1569 4666 
L 2759 1491 
L 3956 4666 
L 4897 4666 
L 4897 0 
L 4281 0 
L 4281 4097 
L 3078 897 
L 2444 897 
L 1241 4097 
L 1241 0 
L 628 0 
L 628 4666 
z
" transform="scale(0.015625)"/>
     </defs>
     <use xlink:href="#DejaVuSans-4d"/>
     <use xlink:href="#DejaVuSans-6f" x="86.279297"/>
     <use xlink:href="#DejaVuSans-64" x="147.460938"/>
     <use xlink:href="#DejaVuSans-65" x="210.9375"/>
     <use xlink:href="#DejaVuSans-6c" x="272.460938"/>
    </g>
   </g>
   <g id="patch_4">
    <path d="M 417.710688 146.116339 
L 433.550687 146.116339 
L 433.550687 130.276339 
L 417.710688 130.276339 
z
" clip-path="url(#p4c0543ba78)" style="fill: #f2f2f2"/>
   </g>
   <g id="patch_5">
    <path d="M 417.710688 142.156339 
L 433.550687 142.156339 
L 433.550687 134.236339 
L 417.710688 134.236339 
z
" clip-path="url(#p4c0543ba78)" style="fill: #999999; opacity: 0.4"/>
   </g>
   <g id="line2d_33">
    <path d="M 417.710688 138.196339 
L 433.550687 138.196339 
" clip-path="url(#p4c0543ba78)" style="fill: none; stroke: #db5f57; stroke-width: 1.772454"/>
   </g>
   <g id="text_13">
    <!-- Five Layer Network -->
    <g transform="translate(436.550687 140.624589)scale(0.088 -0.088)">
     <defs>
      <path id="DejaVuSans-46" d="M 628 4666 
L 3309 4666 
L 3309 4134 
L 1259 4134 
L 1259 2759 
L 3109 2759 
L 3109 2228 
L 1259 2228 
L 1259 0 
L 628 0 
L 628 4666 
z
" transform="scale(0.015625)"/>
      <path id="DejaVuSans-76" d="M 191 3500 
L 800 3500 
L 1894 563 
L 2988 3500 
L 3597 3500 
L 2284 0 
L 1503 0 
L 191 3500 
z
" transform="scale(0.015625)"/>
      <path id="DejaVuSans-4c" d="M 628 4666 
L 1259 4666 
L 1259 531 
L 3531 531 
L 3531 0 
L 628 0 
L 628 4666 
z
" transform="scale(0.015625)"/>
      <path id="DejaVuSans-4e" d="M 628 4666 
L 1478 4666 
L 3547 763 
L 3547 4666 
L 4159 4666 
L 4159 0 
L 3309 0 
L 1241 3903 
L 1241 0 
L 628 0 
L 628 4666 
z
" transform="scale(0.015625)"/>
      <path id="DejaVuSans-77" d="M 269 3500 
L 844 3500 
L 1563 769 
L 2278 3500 
L 2956 3500 
L 3675 769 
L 4391 3500 
L 4966 3500 
L 4050 0 
L 3372 0 
L 2619 2869 
L 1863 0 
L 1184 0 
L 269 3500 
z
" transform="scale(0.015625)"/>
      <path id="DejaVuSans-6b" d="M 581 4863 
L 1159 4863 
L 1159 1991 
L 2875 3500 
L 3609 3500 
L 1753 1863 
L 3688 0 
L 2938 0 
L 1159 1709 
L 1159 0 
L 581 0 
L 581 4863 
z
" transform="scale(0.015625)"/>
     </defs>
     <use xlink:href="#DejaVuSans-46"/>
     <use xlink:href="#DejaVuSans-69" x="50.269531"/>
     <use xlink:href="#DejaVuSans-76" x="78.052734"/>
     <use xlink:href="#DejaVuSans-65" x="137.232422"/>
     <use xlink:href="#DejaVuSans-20" x="198.755859"/>
     <use xlink:href="#DejaVuSans-4c" x="230.542969"/>
     <use xlink:href="#DejaVuSans-61" x="286.255859"/>
     <use xlink:href="#DejaVuSans-79" x="347.535156"/>
     <use xlink:href="#DejaVuSans-65" x="406.714844"/>
     <use xlink:href="#DejaVuSans-72" x="468.238281"/>
     <use xlink:href="#DejaVuSans-20" x="509.351562"/>
     <use xlink:href="#DejaVuSans-4e" x="541.138672"/>
     <use xlink:href="#DejaVuSans-65" x="615.943359"/>
     <use xlink:href="#DejaVuSans-74" x="677.466797"/>
     <use xlink:href="#DejaVuSans-77" x="716.675781"/>
     <use xlink:href="#DejaVuSans-6f" x="798.462891"/>
     <use xlink:href="#DejaVuSans-72" x="859.644531"/>
     <use xlink:href="#DejaVuSans-6b" x="900.757812"/>
    </g>
   </g>
   <g id="patch_6">
    <path d="M 417.710688 163.956339 
L 433.550687 163.956339 
L 433.550687 148.116339 
L 417.710688 148.116339 
z
" clip-path="url(#p50100a57e4)" style="fill: #f2f2f2"/>
   </g>
   <g id="patch_7">
    <path d="M 417.710688 159.996339 
L 433.550687 159.996339 
L 433.550687 152.076339 
L 417.710688 152.076339 
z
" clip-path="url(#p50100a57e4)" style="fill: #999999; opacity: 0.4"/>
   </g>
   <g id="line2d_34">
    <path d="M 417.710688 156.036339 
L 433.550687 156.036339 
" clip-path="url(#p50100a57e4)" style="fill: none; stroke: #91db57; stroke-width: 1.772454"/>
   </g>
   <g id="text_14">
    <!-- Logistic Regression -->
    <g transform="translate(436.550687 158.464589)scale(0.088 -0.088)">
     <defs>
      <path id="DejaVuSans-67" d="M 2906 1791 
Q 2906 2416 2648 2759 
Q 2391 3103 1925 3103 
Q 1463 3103 1205 2759 
Q 947 2416 947 1791 
Q 947 1169 1205 825 
Q 1463 481 1925 481 
Q 2391 481 2648 825 
Q 2906 1169 2906 1791 
z
M 3481 434 
Q 3481 -459 3084 -895 
Q 2688 -1331 1869 -1331 
Q 1566 -1331 1297 -1286 
Q 1028 -1241 775 -1147 
L 775 -588 
Q 1028 -725 1275 -790 
Q 1522 -856 1778 -856 
Q 2344 -856 2625 -561 
Q 2906 -266 2906 331 
L 2906 616 
Q 2728 306 2450 153 
Q 2172 0 1784 0 
Q 1141 0 747 490 
Q 353 981 353 1791 
Q 353 2603 747 3093 
Q 1141 3584 1784 3584 
Q 2172 3584 2450 3431 
Q 2728 3278 2906 2969 
L 2906 3500 
L 3481 3500 
L 3481 434 
z
" transform="scale(0.015625)"/>
      <path id="DejaVuSans-73" d="M 2834 3397 
L 2834 2853 
Q 2591 2978 2328 3040 
Q 2066 3103 1784 3103 
Q 1356 3103 1142 2972 
Q 928 2841 928 2578 
Q 928 2378 1081 2264 
Q 1234 2150 1697 2047 
L 1894 2003 
Q 2506 1872 2764 1633 
Q 3022 1394 3022 966 
Q 3022 478 2636 193 
Q 2250 -91 1575 -91 
Q 1294 -91 989 -36 
Q 684 19 347 128 
L 347 722 
Q 666 556 975 473 
Q 1284 391 1588 391 
Q 1994 391 2212 530 
Q 2431 669 2431 922 
Q 2431 1156 2273 1281 
Q 2116 1406 1581 1522 
L 1381 1569 
Q 847 1681 609 1914 
Q 372 2147 372 2553 
Q 372 3047 722 3315 
Q 1072 3584 1716 3584 
Q 2034 3584 2315 3537 
Q 2597 3491 2834 3397 
z
" transform="scale(0.015625)"/>
      <path id="DejaVuSans-52" d="M 2841 2188 
Q 3044 2119 3236 1894 
Q 3428 1669 3622 1275 
L 4263 0 
L 3584 0 
L 2988 1197 
Q 2756 1666 2539 1819 
Q 2322 1972 1947 1972 
L 1259 1972 
L 1259 0 
L 628 0 
L 628 4666 
L 2053 4666 
Q 2853 4666 3247 4331 
Q 3641 3997 3641 3322 
Q 3641 2881 3436 2590 
Q 3231 2300 2841 2188 
z
M 1259 4147 
L 1259 2491 
L 2053 2491 
Q 2509 2491 2742 2702 
Q 2975 2913 2975 3322 
Q 2975 3731 2742 3939 
Q 2509 4147 2053 4147 
L 1259 4147 
z
" transform="scale(0.015625)"/>
     </defs>
     <use xlink:href="#DejaVuSans-4c"/>
     <use xlink:href="#DejaVuSans-6f" x="53.962891"/>
     <use xlink:href="#DejaVuSans-67" x="115.144531"/>
     <use xlink:href="#DejaVuSans-69" x="178.621094"/>
     <use xlink:href="#DejaVuSans-73" x="206.404297"/>
     <use xlink:href="#DejaVuSans-74" x="258.503906"/>
     <use xlink:href="#DejaVuSans-69" x="297.712891"/>
     <use xlink:href="#DejaVuSans-63" x="325.496094"/>
     <use xlink:href="#DejaVuSans-20" x="380.476562"/>
     <use xlink:href="#DejaVuSans-52" x="412.263672"/>
     <use xlink:href="#DejaVuSans-65" x="477.246094"/>
     <use xlink:href="#DejaVuSans-67" x="538.769531"/>
     <use xlink:href="#DejaVuSans-72" x="602.246094"/>
     <use xlink:href="#DejaVuSans-65" x="641.109375"/>
     <use xlink:href="#DejaVuSans-73" x="702.632812"/>
     <use xlink:href="#DejaVuSans-73" x="754.732422"/>
     <use xlink:href="#DejaVuSans-69" x="806.832031"/>
     <use xlink:href="#DejaVuSans-6f" x="834.615234"/>
     <use xlink:href="#DejaVuSans-6e" x="895.796875"/>
    </g>
   </g>
   <g id="patch_8">
    <path d="M 417.710688 181.796339 
L 433.550687 181.796339 
L 433.550687 165.956339 
L 417.710688 165.956339 
z
" clip-path="url(#p558cddf2f8)" style="fill: #f2f2f2"/>
   </g>
   <g id="patch_9">
    <path d="M 417.710688 177.836339 
L 433.550687 177.836339 
L 433.550687 169.916339 
L 417.710688 169.916339 
z
" clip-path="url(#p558cddf2f8)" style="fill: #999999; opacity: 0.4"/>
   </g>
   <g id="line2d_35">
    <path d="M 417.710688 173.876339 
L 433.550687 173.876339 
" clip-path="url(#p558cddf2f8)" style="fill: none; stroke: #57d3db; stroke-width: 1.772454"/>
   </g>
   <g id="text_15">
    <!-- SVM -->
    <g transform="translate(436.550687 176.304589)scale(0.088 -0.088)">
     <use xlink:href="#DejaVuSans-53"/>
     <use xlink:href="#DejaVuSans-56" x="63.476562"/>
     <use xlink:href="#DejaVuSans-4d" x="131.884766"/>
    </g>
   </g>
   <g id="patch_10">
    <path d="M 417.710688 199.636339 
L 433.550687 199.636339 
L 433.550687 183.796339 
L 417.710688 183.796339 
z
" clip-path="url(#pa7e1fb21ac)" style="fill: #f2f2f2"/>
   </g>
   <g id="patch_11">
    <path d="M 417.710688 195.676339 
L 433.550687 195.676339 
L 433.550687 187.756339 
L 417.710688 187.756339 
z
" clip-path="url(#pa7e1fb21ac)" style="fill: #999999; opacity: 0.4"/>
   </g>
   <g id="line2d_36">
    <path d="M 417.710688 191.716339 
L 433.550687 191.716339 
" clip-path="url(#pa7e1fb21ac)" style="fill: none; stroke: #a157db; stroke-width: 1.772454"/>
   </g>
   <g id="text_16">
    <!-- Three Layer Network -->
    <g transform="translate(436.550687 194.144589)scale(0.088 -0.088)">
     <defs>
      <path id="DejaVuSans-68" d="M 3513 2113 
L 3513 0 
L 2938 0 
L 2938 2094 
Q 2938 2591 2744 2837 
Q 2550 3084 2163 3084 
Q 1697 3084 1428 2787 
Q 1159 2491 1159 1978 
L 1159 0 
L 581 0 
L 581 4863 
L 1159 4863 
L 1159 2956 
Q 1366 3272 1645 3428 
Q 1925 3584 2291 3584 
Q 2894 3584 3203 3211 
Q 3513 2838 3513 2113 
z
" transform="scale(0.015625)"/>
     </defs>
     <use xlink:href="#DejaVuSans-54"/>
     <use xlink:href="#DejaVuSans-68" x="61.083984"/>
     <use xlink:href="#DejaVuSans-72" x="124.462891"/>
     <use xlink:href="#DejaVuSans-65" x="163.326172"/>
     <use xlink:href="#DejaVuSans-65" x="224.849609"/>
     <use xlink:href="#DejaVuSans-20" x="286.373047"/>
     <use xlink:href="#DejaVuSans-4c" x="318.160156"/>
     <use xlink:href="#DejaVuSans-61" x="373.873047"/>
     <use xlink:href="#DejaVuSans-79" x="435.152344"/>
     <use xlink:href="#DejaVuSans-65" x="494.332031"/>
     <use xlink:href="#DejaVuSans-72" x="555.855469"/>
     <use xlink:href="#DejaVuSans-20" x="596.96875"/>
     <use xlink:href="#DejaVuSans-4e" x="628.755859"/>
     <use xlink:href="#DejaVuSans-65" x="703.560547"/>
     <use xlink:href="#DejaVuSans-74" x="765.083984"/>
     <use xlink:href="#DejaVuSans-77" x="804.292969"/>
     <use xlink:href="#DejaVuSans-6f" x="886.080078"/>
     <use xlink:href="#DejaVuSans-72" x="947.261719"/>
     <use xlink:href="#DejaVuSans-6b" x="988.375"/>
    </g>
   </g>
  </g>
  <g id="text_17">
   <!-- Recount3 Multiclass Tissue Prediction -->
   <g transform="translate(90.450031 17.229938)scale(0.132 -0.132)">
    <defs>
     <path id="DejaVuSans-50" d="M 1259 4147 
L 1259 2394 
L 2053 2394 
Q 2494 2394 2734 2622 
Q 2975 2850 2975 3272 
Q 2975 3691 2734 3919 
Q 2494 4147 2053 4147 
L 1259 4147 
z
M 628 4666 
L 2053 4666 
Q 2838 4666 3239 4311 
Q 3641 3956 3641 3272 
Q 3641 2581 3239 2228 
Q 2838 1875 2053 1875 
L 1259 1875 
L 1259 0 
L 628 0 
L 628 4666 
z
" transform="scale(0.015625)"/>
    </defs>
    <use xlink:href="#DejaVuSans-52"/>
    <use xlink:href="#DejaVuSans-65" x="64.982422"/>
    <use xlink:href="#DejaVuSans-63" x="126.505859"/>
    <use xlink:href="#DejaVuSans-6f" x="181.486328"/>
    <use xlink:href="#DejaVuSans-75" x="242.667969"/>
    <use xlink:href="#DejaVuSans-6e" x="306.046875"/>
    <use xlink:href="#DejaVuSans-74" x="369.425781"/>
    <use xlink:href="#DejaVuSans-33" x="408.634766"/>
    <use xlink:href="#DejaVuSans-20" x="472.257812"/>
    <use xlink:href="#DejaVuSans-4d" x="504.044922"/>
    <use xlink:href="#DejaVuSans-75" x="590.324219"/>
    <use xlink:href="#DejaVuSans-6c" x="653.703125"/>
    <use xlink:href="#DejaVuSans-74" x="681.486328"/>
    <use xlink:href="#DejaVuSans-69" x="720.695312"/>
    <use xlink:href="#DejaVuSans-63" x="748.478516"/>
    <use xlink:href="#DejaVuSans-6c" x="803.458984"/>
    <use xlink:href="#DejaVuSans-61" x="831.242188"/>
    <use xlink:href="#DejaVuSans-73" x="892.521484"/>
    <use xlink:href="#DejaVuSans-73" x="944.621094"/>
    <use xlink:href="#DejaVuSans-20" x="996.720703"/>
    <use xlink:href="#DejaVuSans-54" x="1028.507812"/>
    <use xlink:href="#DejaVuSans-69" x="1086.466797"/>
    <use xlink:href="#DejaVuSans-73" x="1114.25"/>
    <use xlink:href="#DejaVuSans-73" x="1166.349609"/>
    <use xlink:href="#DejaVuSans-75" x="1218.449219"/>
    <use xlink:href="#DejaVuSans-65" x="1281.828125"/>
    <use xlink:href="#DejaVuSans-20" x="1343.351562"/>
    <use xlink:href="#DejaVuSans-50" x="1375.138672"/>
    <use xlink:href="#DejaVuSans-72" x="1433.691406"/>
    <use xlink:href="#DejaVuSans-65" x="1472.554688"/>
    <use xlink:href="#DejaVuSans-64" x="1534.078125"/>
    <use xlink:href="#DejaVuSans-69" x="1597.554688"/>
    <use xlink:href="#DejaVuSans-63" x="1625.337891"/>
    <use xlink:href="#DejaVuSans-74" x="1680.318359"/>
    <use xlink:href="#DejaVuSans-69" x="1719.527344"/>
    <use xlink:href="#DejaVuSans-6f" x="1747.310547"/>
    <use xlink:href="#DejaVuSans-6e" x="1808.492188"/>
   </g>
  </g>
 </g>
 <defs>
  <clipPath id="p57e6314dc9">
   <rect x="41.190688" y="26.105371" width="357.12" height="266.112"/>
  </clipPath>
  <clipPath id="p4c0543ba78">
   <path d="M 417.710688 146.116339 
L 417.710688 130.276339 
L 433.550687 130.276339 
L 433.550687 146.116339 
"/>
  </clipPath>
  <clipPath id="p50100a57e4">
   <path d="M 417.710688 163.956339 
L 417.710688 148.116339 
L 433.550687 148.116339 
L 433.550687 163.956339 
"/>
  </clipPath>
  <clipPath id="p558cddf2f8">
   <path d="M 417.710688 181.796339 
L 417.710688 165.956339 
L 433.550687 165.956339 
L 433.550687 181.796339 
"/>
  </clipPath>
  <clipPath id="pa7e1fb21ac">
   <path d="M 417.710688 199.636339 
L 417.710688 183.796339 
L 433.550687 183.796339 
L 433.550687 199.636339 
"/>
  </clipPath>
 </defs>
</svg>
