<?xml version="1.0" encoding="utf-8" standalone="no"?>
<!DOCTYPE svg PUBLIC "-//W3C//DTD SVG 1.1//EN"
  "http://www.w3.org/Graphics/SVG/1.1/DTD/svg11.dtd">
<svg xmlns:xlink="http://www.w3.org/1999/xlink" width="524.546688pt" height="327.930058pt" viewBox="0 0 524.546688 327.930058" xmlns="http://www.w3.org/2000/svg" version="1.1">
 <metadata>
  <rdf:RDF xmlns:dc="http://purl.org/dc/elements/1.1/" xmlns:cc="http://creativecommons.org/ns#" xmlns:rdf="http://www.w3.org/1999/02/22-rdf-syntax-ns#">
   <cc:Work>
    <dc:type rdf:resource="http://purl.org/dc/dcmitype/StillImage"/>
    <dc:date>2022-05-11T16:08:10.823077</dc:date>
    <dc:format>image/svg+xml</dc:format>
    <dc:creator>
     <cc:Agent>
      <dc:title>Matplotlib v3.5.1, https://matplotlib.org/</dc:title>
     </cc:Agent>
    </dc:creator>
   </cc:Work>
  </rdf:RDF>
 </metadata>
 <defs>
  <style type="text/css">*{stroke-linejoin: round; stroke-linecap: butt}</style>
 </defs>
 <g id="figure_1">
  <g id="patch_1">
   <path d="M 0 327.930058 
L 524.546688 327.930058 
L 524.546688 0 
L 0 0 
z
" style="fill: #ffffff; stroke: #ffffff; stroke-linejoin: miter"/>
  </g>
  <g id="axes_1">
   <g id="patch_2">
    <path d="M 41.190688 292.217371 
L 398.310688 292.217371 
L 398.310688 26.105371 
L 41.190688 26.105371 
z
" style="fill: #ebebeb"/>
   </g>
   <g id="matplotlib.axis_1">
    <g id="xtick_1">
     <g id="line2d_1">
      <path d="M 115.113903 292.217371 
L 115.113903 26.105371 
" clip-path="url(#pcc3d1e685c)" style="fill: none; stroke: #ffffff"/>
     </g>
     <g id="line2d_2">
      <path d="M 115.113903 292.217371 
" style="fill: none; stroke: #333333; stroke-width: 1.5"/>
      <defs>
       <path id="m2b907d9251" d="M 0 0 
L 0 2.75 
" style="stroke: #000000"/>
      </defs>
      <g>
       <use xlink:href="#m2b907d9251" x="115.113903" y="292.217371" style="fill: #333333; stroke: #000000"/>
      </g>
     </g>
     <g id="text_1">
      <!-- 2500 -->
      <g style="fill: #4d4d4d" transform="translate(103.915903 303.853996)scale(0.088 -0.088)">
       <defs>
        <path id="DejaVuSans-32" d="M 1228 531 
L 3431 531 
L 3431 0 
L 469 0 
L 469 531 
Q 828 903 1448 1529 
Q 2069 2156 2228 2338 
Q 2531 2678 2651 2914 
Q 2772 3150 2772 3378 
Q 2772 3750 2511 3984 
Q 2250 4219 1831 4219 
Q 1534 4219 1204 4116 
Q 875 4013 500 3803 
L 500 4441 
Q 881 4594 1212 4672 
Q 1544 4750 1819 4750 
Q 2544 4750 2975 4387 
Q 3406 4025 3406 3419 
Q 3406 3131 3298 2873 
Q 3191 2616 2906 2266 
Q 2828 2175 2409 1742 
Q 1991 1309 1228 531 
z
" transform="scale(0.015625)"/>
        <path id="DejaVuSans-35" d="M 691 4666 
L 3169 4666 
L 3169 4134 
L 1269 4134 
L 1269 2991 
Q 1406 3038 1543 3061 
Q 1681 3084 1819 3084 
Q 2600 3084 3056 2656 
Q 3513 2228 3513 1497 
Q 3513 744 3044 326 
Q 2575 -91 1722 -91 
Q 1428 -91 1123 -41 
Q 819 9 494 109 
L 494 744 
Q 775 591 1075 516 
Q 1375 441 1709 441 
Q 2250 441 2565 725 
Q 2881 1009 2881 1497 
Q 2881 1984 2565 2268 
Q 2250 2553 1709 2553 
Q 1456 2553 1204 2497 
Q 953 2441 691 2322 
L 691 4666 
z
" transform="scale(0.015625)"/>
        <path id="DejaVuSans-30" d="M 2034 4250 
Q 1547 4250 1301 3770 
Q 1056 3291 1056 2328 
Q 1056 1369 1301 889 
Q 1547 409 2034 409 
Q 2525 409 2770 889 
Q 3016 1369 3016 2328 
Q 3016 3291 2770 3770 
Q 2525 4250 2034 4250 
z
M 2034 4750 
Q 2819 4750 3233 4129 
Q 3647 3509 3647 2328 
Q 3647 1150 3233 529 
Q 2819 -91 2034 -91 
Q 1250 -91 836 529 
Q 422 1150 422 2328 
Q 422 3509 836 4129 
Q 1250 4750 2034 4750 
z
" transform="scale(0.015625)"/>
       </defs>
       <use xlink:href="#DejaVuSans-32"/>
       <use xlink:href="#DejaVuSans-35" x="63.623047"/>
       <use xlink:href="#DejaVuSans-30" x="127.246094"/>
       <use xlink:href="#DejaVuSans-30" x="190.869141"/>
      </g>
     </g>
    </g>
    <g id="xtick_2">
     <g id="line2d_3">
      <path d="M 203.325659 292.217371 
L 203.325659 26.105371 
" clip-path="url(#pcc3d1e685c)" style="fill: none; stroke: #ffffff"/>
     </g>
     <g id="line2d_4">
      <path d="M 203.325659 292.217371 
" style="fill: none; stroke: #333333; stroke-width: 1.5"/>
      <g>
       <use xlink:href="#m2b907d9251" x="203.325659" y="292.217371" style="fill: #333333; stroke: #000000"/>
      </g>
     </g>
     <g id="text_2">
      <!-- 5000 -->
      <g style="fill: #4d4d4d" transform="translate(192.127659 303.853996)scale(0.088 -0.088)">
       <use xlink:href="#DejaVuSans-35"/>
       <use xlink:href="#DejaVuSans-30" x="63.623047"/>
       <use xlink:href="#DejaVuSans-30" x="127.246094"/>
       <use xlink:href="#DejaVuSans-30" x="190.869141"/>
      </g>
     </g>
    </g>
    <g id="xtick_3">
     <g id="line2d_5">
      <path d="M 291.537414 292.217371 
L 291.537414 26.105371 
" clip-path="url(#pcc3d1e685c)" style="fill: none; stroke: #ffffff"/>
     </g>
     <g id="line2d_6">
      <path d="M 291.537414 292.217371 
" style="fill: none; stroke: #333333; stroke-width: 1.5"/>
      <g>
       <use xlink:href="#m2b907d9251" x="291.537414" y="292.217371" style="fill: #333333; stroke: #000000"/>
      </g>
     </g>
     <g id="text_3">
      <!-- 7500 -->
      <g style="fill: #4d4d4d" transform="translate(280.339414 303.853996)scale(0.088 -0.088)">
       <defs>
        <path id="DejaVuSans-37" d="M 525 4666 
L 3525 4666 
L 3525 4397 
L 1831 0 
L 1172 0 
L 2766 4134 
L 525 4134 
L 525 4666 
z
" transform="scale(0.015625)"/>
       </defs>
       <use xlink:href="#DejaVuSans-37"/>
       <use xlink:href="#DejaVuSans-35" x="63.623047"/>
       <use xlink:href="#DejaVuSans-30" x="127.246094"/>
       <use xlink:href="#DejaVuSans-30" x="190.869141"/>
      </g>
     </g>
    </g>
    <g id="xtick_4">
     <g id="line2d_7">
      <path d="M 379.74917 292.217371 
L 379.74917 26.105371 
" clip-path="url(#pcc3d1e685c)" style="fill: none; stroke: #ffffff"/>
     </g>
     <g id="line2d_8">
      <path d="M 379.74917 292.217371 
" style="fill: none; stroke: #333333; stroke-width: 1.5"/>
      <g>
       <use xlink:href="#m2b907d9251" x="379.74917" y="292.217371" style="fill: #333333; stroke: #000000"/>
      </g>
     </g>
     <g id="text_4">
      <!-- 10000 -->
      <g style="fill: #4d4d4d" transform="translate(365.75167 303.853996)scale(0.088 -0.088)">
       <defs>
        <path id="DejaVuSans-31" d="M 794 531 
L 1825 531 
L 1825 4091 
L 703 3866 
L 703 4441 
L 1819 4666 
L 2450 4666 
L 2450 531 
L 3481 531 
L 3481 0 
L 794 0 
L 794 531 
z
" transform="scale(0.015625)"/>
       </defs>
       <use xlink:href="#DejaVuSans-31"/>
       <use xlink:href="#DejaVuSans-30" x="63.623047"/>
       <use xlink:href="#DejaVuSans-30" x="127.246094"/>
       <use xlink:href="#DejaVuSans-30" x="190.869141"/>
       <use xlink:href="#DejaVuSans-30" x="254.492188"/>
      </g>
     </g>
    </g>
    <g id="xtick_5">
     <g id="line2d_9">
      <path d="M 71.008025 292.217371 
L 71.008025 26.105371 
" clip-path="url(#pcc3d1e685c)" style="fill: none; stroke: #ffffff; stroke-width: 0.5"/>
     </g>
    </g>
    <g id="xtick_6">
     <g id="line2d_10">
      <path d="M 159.219781 292.217371 
L 159.219781 26.105371 
" clip-path="url(#pcc3d1e685c)" style="fill: none; stroke: #ffffff; stroke-width: 0.5"/>
     </g>
    </g>
    <g id="xtick_7">
     <g id="line2d_11">
      <path d="M 247.431536 292.217371 
L 247.431536 26.105371 
" clip-path="url(#pcc3d1e685c)" style="fill: none; stroke: #ffffff; stroke-width: 0.5"/>
     </g>
    </g>
    <g id="xtick_8">
     <g id="line2d_12">
      <path d="M 335.643292 292.217371 
L 335.643292 26.105371 
" clip-path="url(#pcc3d1e685c)" style="fill: none; stroke: #ffffff; stroke-width: 0.5"/>
     </g>
    </g>
    <g id="text_5">
     <!-- Train Sample Count -->
     <g transform="translate(160.345063 318.442402)scale(0.11 -0.11)">
      <defs>
       <path id="DejaVuSans-54" d="M -19 4666 
L 3928 4666 
L 3928 4134 
L 2272 4134 
L 2272 0 
L 1638 0 
L 1638 4134 
L -19 4134 
L -19 4666 
z
" transform="scale(0.015625)"/>
       <path id="DejaVuSans-72" d="M 2631 2963 
Q 2534 3019 2420 3045 
Q 2306 3072 2169 3072 
Q 1681 3072 1420 2755 
Q 1159 2438 1159 1844 
L 1159 0 
L 581 0 
L 581 3500 
L 1159 3500 
L 1159 2956 
Q 1341 3275 1631 3429 
Q 1922 3584 2338 3584 
Q 2397 3584 2469 3576 
Q 2541 3569 2628 3553 
L 2631 2963 
z
" transform="scale(0.015625)"/>
       <path id="DejaVuSans-61" d="M 2194 1759 
Q 1497 1759 1228 1600 
Q 959 1441 959 1056 
Q 959 750 1161 570 
Q 1363 391 1709 391 
Q 2188 391 2477 730 
Q 2766 1069 2766 1631 
L 2766 1759 
L 2194 1759 
z
M 3341 1997 
L 3341 0 
L 2766 0 
L 2766 531 
Q 2569 213 2275 61 
Q 1981 -91 1556 -91 
Q 1019 -91 701 211 
Q 384 513 384 1019 
Q 384 1609 779 1909 
Q 1175 2209 1959 2209 
L 2766 2209 
L 2766 2266 
Q 2766 2663 2505 2880 
Q 2244 3097 1772 3097 
Q 1472 3097 1187 3025 
Q 903 2953 641 2809 
L 641 3341 
Q 956 3463 1253 3523 
Q 1550 3584 1831 3584 
Q 2591 3584 2966 3190 
Q 3341 2797 3341 1997 
z
" transform="scale(0.015625)"/>
       <path id="DejaVuSans-69" d="M 603 3500 
L 1178 3500 
L 1178 0 
L 603 0 
L 603 3500 
z
M 603 4863 
L 1178 4863 
L 1178 4134 
L 603 4134 
L 603 4863 
z
" transform="scale(0.015625)"/>
       <path id="DejaVuSans-6e" d="M 3513 2113 
L 3513 0 
L 2938 0 
L 2938 2094 
Q 2938 2591 2744 2837 
Q 2550 3084 2163 3084 
Q 1697 3084 1428 2787 
Q 1159 2491 1159 1978 
L 1159 0 
L 581 0 
L 581 3500 
L 1159 3500 
L 1159 2956 
Q 1366 3272 1645 3428 
Q 1925 3584 2291 3584 
Q 2894 3584 3203 3211 
Q 3513 2838 3513 2113 
z
" transform="scale(0.015625)"/>
       <path id="DejaVuSans-20" transform="scale(0.015625)"/>
       <path id="DejaVuSans-53" d="M 3425 4513 
L 3425 3897 
Q 3066 4069 2747 4153 
Q 2428 4238 2131 4238 
Q 1616 4238 1336 4038 
Q 1056 3838 1056 3469 
Q 1056 3159 1242 3001 
Q 1428 2844 1947 2747 
L 2328 2669 
Q 3034 2534 3370 2195 
Q 3706 1856 3706 1288 
Q 3706 609 3251 259 
Q 2797 -91 1919 -91 
Q 1588 -91 1214 -16 
Q 841 59 441 206 
L 441 856 
Q 825 641 1194 531 
Q 1563 422 1919 422 
Q 2459 422 2753 634 
Q 3047 847 3047 1241 
Q 3047 1584 2836 1778 
Q 2625 1972 2144 2069 
L 1759 2144 
Q 1053 2284 737 2584 
Q 422 2884 422 3419 
Q 422 4038 858 4394 
Q 1294 4750 2059 4750 
Q 2388 4750 2728 4690 
Q 3069 4631 3425 4513 
z
" transform="scale(0.015625)"/>
       <path id="DejaVuSans-6d" d="M 3328 2828 
Q 3544 3216 3844 3400 
Q 4144 3584 4550 3584 
Q 5097 3584 5394 3201 
Q 5691 2819 5691 2113 
L 5691 0 
L 5113 0 
L 5113 2094 
Q 5113 2597 4934 2840 
Q 4756 3084 4391 3084 
Q 3944 3084 3684 2787 
Q 3425 2491 3425 1978 
L 3425 0 
L 2847 0 
L 2847 2094 
Q 2847 2600 2669 2842 
Q 2491 3084 2119 3084 
Q 1678 3084 1418 2786 
Q 1159 2488 1159 1978 
L 1159 0 
L 581 0 
L 581 3500 
L 1159 3500 
L 1159 2956 
Q 1356 3278 1631 3431 
Q 1906 3584 2284 3584 
Q 2666 3584 2933 3390 
Q 3200 3197 3328 2828 
z
" transform="scale(0.015625)"/>
       <path id="DejaVuSans-70" d="M 1159 525 
L 1159 -1331 
L 581 -1331 
L 581 3500 
L 1159 3500 
L 1159 2969 
Q 1341 3281 1617 3432 
Q 1894 3584 2278 3584 
Q 2916 3584 3314 3078 
Q 3713 2572 3713 1747 
Q 3713 922 3314 415 
Q 2916 -91 2278 -91 
Q 1894 -91 1617 61 
Q 1341 213 1159 525 
z
M 3116 1747 
Q 3116 2381 2855 2742 
Q 2594 3103 2138 3103 
Q 1681 3103 1420 2742 
Q 1159 2381 1159 1747 
Q 1159 1113 1420 752 
Q 1681 391 2138 391 
Q 2594 391 2855 752 
Q 3116 1113 3116 1747 
z
" transform="scale(0.015625)"/>
       <path id="DejaVuSans-6c" d="M 603 4863 
L 1178 4863 
L 1178 0 
L 603 0 
L 603 4863 
z
" transform="scale(0.015625)"/>
       <path id="DejaVuSans-65" d="M 3597 1894 
L 3597 1613 
L 953 1613 
Q 991 1019 1311 708 
Q 1631 397 2203 397 
Q 2534 397 2845 478 
Q 3156 559 3463 722 
L 3463 178 
Q 3153 47 2828 -22 
Q 2503 -91 2169 -91 
Q 1331 -91 842 396 
Q 353 884 353 1716 
Q 353 2575 817 3079 
Q 1281 3584 2069 3584 
Q 2775 3584 3186 3129 
Q 3597 2675 3597 1894 
z
M 3022 2063 
Q 3016 2534 2758 2815 
Q 2500 3097 2075 3097 
Q 1594 3097 1305 2825 
Q 1016 2553 972 2059 
L 3022 2063 
z
" transform="scale(0.015625)"/>
       <path id="DejaVuSans-43" d="M 4122 4306 
L 4122 3641 
Q 3803 3938 3442 4084 
Q 3081 4231 2675 4231 
Q 1875 4231 1450 3742 
Q 1025 3253 1025 2328 
Q 1025 1406 1450 917 
Q 1875 428 2675 428 
Q 3081 428 3442 575 
Q 3803 722 4122 1019 
L 4122 359 
Q 3791 134 3420 21 
Q 3050 -91 2638 -91 
Q 1578 -91 968 557 
Q 359 1206 359 2328 
Q 359 3453 968 4101 
Q 1578 4750 2638 4750 
Q 3056 4750 3426 4639 
Q 3797 4528 4122 4306 
z
" transform="scale(0.015625)"/>
       <path id="DejaVuSans-6f" d="M 1959 3097 
Q 1497 3097 1228 2736 
Q 959 2375 959 1747 
Q 959 1119 1226 758 
Q 1494 397 1959 397 
Q 2419 397 2687 759 
Q 2956 1122 2956 1747 
Q 2956 2369 2687 2733 
Q 2419 3097 1959 3097 
z
M 1959 3584 
Q 2709 3584 3137 3096 
Q 3566 2609 3566 1747 
Q 3566 888 3137 398 
Q 2709 -91 1959 -91 
Q 1206 -91 779 398 
Q 353 888 353 1747 
Q 353 2609 779 3096 
Q 1206 3584 1959 3584 
z
" transform="scale(0.015625)"/>
       <path id="DejaVuSans-75" d="M 544 1381 
L 544 3500 
L 1119 3500 
L 1119 1403 
Q 1119 906 1312 657 
Q 1506 409 1894 409 
Q 2359 409 2629 706 
Q 2900 1003 2900 1516 
L 2900 3500 
L 3475 3500 
L 3475 0 
L 2900 0 
L 2900 538 
Q 2691 219 2414 64 
Q 2138 -91 1772 -91 
Q 1169 -91 856 284 
Q 544 659 544 1381 
z
M 1991 3584 
L 1991 3584 
z
" transform="scale(0.015625)"/>
       <path id="DejaVuSans-74" d="M 1172 4494 
L 1172 3500 
L 2356 3500 
L 2356 3053 
L 1172 3053 
L 1172 1153 
Q 1172 725 1289 603 
Q 1406 481 1766 481 
L 2356 481 
L 2356 0 
L 1766 0 
Q 1100 0 847 248 
Q 594 497 594 1153 
L 594 3053 
L 172 3053 
L 172 3500 
L 594 3500 
L 594 4494 
L 1172 4494 
z
" transform="scale(0.015625)"/>
      </defs>
      <use xlink:href="#DejaVuSans-54"/>
      <use xlink:href="#DejaVuSans-72" x="46.333984"/>
      <use xlink:href="#DejaVuSans-61" x="87.447266"/>
      <use xlink:href="#DejaVuSans-69" x="148.726562"/>
      <use xlink:href="#DejaVuSans-6e" x="176.509766"/>
      <use xlink:href="#DejaVuSans-20" x="239.888672"/>
      <use xlink:href="#DejaVuSans-53" x="271.675781"/>
      <use xlink:href="#DejaVuSans-61" x="335.152344"/>
      <use xlink:href="#DejaVuSans-6d" x="396.431641"/>
      <use xlink:href="#DejaVuSans-70" x="493.84375"/>
      <use xlink:href="#DejaVuSans-6c" x="557.320312"/>
      <use xlink:href="#DejaVuSans-65" x="585.103516"/>
      <use xlink:href="#DejaVuSans-20" x="646.626953"/>
      <use xlink:href="#DejaVuSans-43" x="678.414062"/>
      <use xlink:href="#DejaVuSans-6f" x="748.238281"/>
      <use xlink:href="#DejaVuSans-75" x="809.419922"/>
      <use xlink:href="#DejaVuSans-6e" x="872.798828"/>
      <use xlink:href="#DejaVuSans-74" x="936.177734"/>
     </g>
    </g>
   </g>
   <g id="matplotlib.axis_2">
    <g id="ytick_1">
     <g id="line2d_13">
      <path d="M 41.190688 254.174928 
L 398.310688 254.174928 
" clip-path="url(#pcc3d1e685c)" style="fill: none; stroke: #ffffff"/>
     </g>
     <g id="line2d_14">
      <path d="M 41.190688 254.174928 
" style="fill: none; stroke: #333333; stroke-width: 1.5"/>
      <defs>
       <path id="m7be872ec48" d="M 0 0 
L -2.75 0 
" style="stroke: #000000"/>
      </defs>
      <g>
       <use xlink:href="#m7be872ec48" x="41.190688" y="254.174928" style="fill: #333333; stroke: #000000"/>
      </g>
     </g>
     <g id="text_6">
      <!-- 0.1 -->
      <g style="fill: #4d4d4d" transform="translate(22.245938 256.603178)scale(0.088 -0.088)">
       <defs>
        <path id="DejaVuSans-2e" d="M 684 794 
L 1344 794 
L 1344 0 
L 684 0 
L 684 794 
z
" transform="scale(0.015625)"/>
       </defs>
       <use xlink:href="#DejaVuSans-30"/>
       <use xlink:href="#DejaVuSans-2e" x="63.623047"/>
       <use xlink:href="#DejaVuSans-31" x="95.410156"/>
      </g>
     </g>
    </g>
    <g id="ytick_2">
     <g id="line2d_15">
      <path d="M 41.190688 204.64081 
L 398.310688 204.64081 
" clip-path="url(#pcc3d1e685c)" style="fill: none; stroke: #ffffff"/>
     </g>
     <g id="line2d_16">
      <path d="M 41.190688 204.64081 
" style="fill: none; stroke: #333333; stroke-width: 1.5"/>
      <g>
       <use xlink:href="#m7be872ec48" x="41.190688" y="204.64081" style="fill: #333333; stroke: #000000"/>
      </g>
     </g>
     <g id="text_7">
      <!-- 0.2 -->
      <g style="fill: #4d4d4d" transform="translate(22.245938 207.06906)scale(0.088 -0.088)">
       <use xlink:href="#DejaVuSans-30"/>
       <use xlink:href="#DejaVuSans-2e" x="63.623047"/>
       <use xlink:href="#DejaVuSans-32" x="95.410156"/>
      </g>
     </g>
    </g>
    <g id="ytick_3">
     <g id="line2d_17">
      <path d="M 41.190688 155.106692 
L 398.310688 155.106692 
" clip-path="url(#pcc3d1e685c)" style="fill: none; stroke: #ffffff"/>
     </g>
     <g id="line2d_18">
      <path d="M 41.190688 155.106692 
" style="fill: none; stroke: #333333; stroke-width: 1.5"/>
      <g>
       <use xlink:href="#m7be872ec48" x="41.190688" y="155.106692" style="fill: #333333; stroke: #000000"/>
      </g>
     </g>
     <g id="text_8">
      <!-- 0.3 -->
      <g style="fill: #4d4d4d" transform="translate(22.245938 157.534942)scale(0.088 -0.088)">
       <defs>
        <path id="DejaVuSans-33" d="M 2597 2516 
Q 3050 2419 3304 2112 
Q 3559 1806 3559 1356 
Q 3559 666 3084 287 
Q 2609 -91 1734 -91 
Q 1441 -91 1130 -33 
Q 819 25 488 141 
L 488 750 
Q 750 597 1062 519 
Q 1375 441 1716 441 
Q 2309 441 2620 675 
Q 2931 909 2931 1356 
Q 2931 1769 2642 2001 
Q 2353 2234 1838 2234 
L 1294 2234 
L 1294 2753 
L 1863 2753 
Q 2328 2753 2575 2939 
Q 2822 3125 2822 3475 
Q 2822 3834 2567 4026 
Q 2313 4219 1838 4219 
Q 1578 4219 1281 4162 
Q 984 4106 628 3988 
L 628 4550 
Q 988 4650 1302 4700 
Q 1616 4750 1894 4750 
Q 2613 4750 3031 4423 
Q 3450 4097 3450 3541 
Q 3450 3153 3228 2886 
Q 3006 2619 2597 2516 
z
" transform="scale(0.015625)"/>
       </defs>
       <use xlink:href="#DejaVuSans-30"/>
       <use xlink:href="#DejaVuSans-2e" x="63.623047"/>
       <use xlink:href="#DejaVuSans-33" x="95.410156"/>
      </g>
     </g>
    </g>
    <g id="ytick_4">
     <g id="line2d_19">
      <path d="M 41.190688 105.572575 
L 398.310688 105.572575 
" clip-path="url(#pcc3d1e685c)" style="fill: none; stroke: #ffffff"/>
     </g>
     <g id="line2d_20">
      <path d="M 41.190688 105.572575 
" style="fill: none; stroke: #333333; stroke-width: 1.5"/>
      <g>
       <use xlink:href="#m7be872ec48" x="41.190688" y="105.572575" style="fill: #333333; stroke: #000000"/>
      </g>
     </g>
     <g id="text_9">
      <!-- 0.4 -->
      <g style="fill: #4d4d4d" transform="translate(22.245938 108.000825)scale(0.088 -0.088)">
       <defs>
        <path id="DejaVuSans-34" d="M 2419 4116 
L 825 1625 
L 2419 1625 
L 2419 4116 
z
M 2253 4666 
L 3047 4666 
L 3047 1625 
L 3713 1625 
L 3713 1100 
L 3047 1100 
L 3047 0 
L 2419 0 
L 2419 1100 
L 313 1100 
L 313 1709 
L 2253 4666 
z
" transform="scale(0.015625)"/>
       </defs>
       <use xlink:href="#DejaVuSans-30"/>
       <use xlink:href="#DejaVuSans-2e" x="63.623047"/>
       <use xlink:href="#DejaVuSans-34" x="95.410156"/>
      </g>
     </g>
    </g>
    <g id="ytick_5">
     <g id="line2d_21">
      <path d="M 41.190688 56.038457 
L 398.310688 56.038457 
" clip-path="url(#pcc3d1e685c)" style="fill: none; stroke: #ffffff"/>
     </g>
     <g id="line2d_22">
      <path d="M 41.190688 56.038457 
" style="fill: none; stroke: #333333; stroke-width: 1.5"/>
      <g>
       <use xlink:href="#m7be872ec48" x="41.190688" y="56.038457" style="fill: #333333; stroke: #000000"/>
      </g>
     </g>
     <g id="text_10">
      <!-- 0.5 -->
      <g style="fill: #4d4d4d" transform="translate(22.245938 58.466707)scale(0.088 -0.088)">
       <use xlink:href="#DejaVuSans-30"/>
       <use xlink:href="#DejaVuSans-2e" x="63.623047"/>
       <use xlink:href="#DejaVuSans-35" x="95.410156"/>
      </g>
     </g>
    </g>
    <g id="ytick_6">
     <g id="line2d_23">
      <path d="M 41.190688 278.941987 
L 398.310688 278.941987 
" clip-path="url(#pcc3d1e685c)" style="fill: none; stroke: #ffffff; stroke-width: 0.5"/>
     </g>
    </g>
    <g id="ytick_7">
     <g id="line2d_24">
      <path d="M 41.190688 229.407869 
L 398.310688 229.407869 
" clip-path="url(#pcc3d1e685c)" style="fill: none; stroke: #ffffff; stroke-width: 0.5"/>
     </g>
    </g>
    <g id="ytick_8">
     <g id="line2d_25">
      <path d="M 41.190688 179.873751 
L 398.310688 179.873751 
" clip-path="url(#pcc3d1e685c)" style="fill: none; stroke: #ffffff; stroke-width: 0.5"/>
     </g>
    </g>
    <g id="ytick_9">
     <g id="line2d_26">
      <path d="M 41.190688 130.339633 
L 398.310688 130.339633 
" clip-path="url(#pcc3d1e685c)" style="fill: none; stroke: #ffffff; stroke-width: 0.5"/>
     </g>
    </g>
    <g id="ytick_10">
     <g id="line2d_27">
      <path d="M 41.190688 80.805516 
L 398.310688 80.805516 
" clip-path="url(#pcc3d1e685c)" style="fill: none; stroke: #ffffff; stroke-width: 0.5"/>
     </g>
    </g>
    <g id="ytick_11">
     <g id="line2d_28">
      <path d="M 41.190688 31.271398 
L 398.310688 31.271398 
" clip-path="url(#pcc3d1e685c)" style="fill: none; stroke: #ffffff; stroke-width: 0.5"/>
     </g>
    </g>
    <g id="text_11">
     <!-- Balanced Accuracy (Val Set) -->
     <g transform="translate(15.558281 234.774543)rotate(-90)scale(0.11 -0.11)">
      <defs>
       <path id="DejaVuSans-42" d="M 1259 2228 
L 1259 519 
L 2272 519 
Q 2781 519 3026 730 
Q 3272 941 3272 1375 
Q 3272 1813 3026 2020 
Q 2781 2228 2272 2228 
L 1259 2228 
z
M 1259 4147 
L 1259 2741 
L 2194 2741 
Q 2656 2741 2882 2914 
Q 3109 3088 3109 3444 
Q 3109 3797 2882 3972 
Q 2656 4147 2194 4147 
L 1259 4147 
z
M 628 4666 
L 2241 4666 
Q 2963 4666 3353 4366 
Q 3744 4066 3744 3513 
Q 3744 3084 3544 2831 
Q 3344 2578 2956 2516 
Q 3422 2416 3680 2098 
Q 3938 1781 3938 1306 
Q 3938 681 3513 340 
Q 3088 0 2303 0 
L 628 0 
L 628 4666 
z
" transform="scale(0.015625)"/>
       <path id="DejaVuSans-63" d="M 3122 3366 
L 3122 2828 
Q 2878 2963 2633 3030 
Q 2388 3097 2138 3097 
Q 1578 3097 1268 2742 
Q 959 2388 959 1747 
Q 959 1106 1268 751 
Q 1578 397 2138 397 
Q 2388 397 2633 464 
Q 2878 531 3122 666 
L 3122 134 
Q 2881 22 2623 -34 
Q 2366 -91 2075 -91 
Q 1284 -91 818 406 
Q 353 903 353 1747 
Q 353 2603 823 3093 
Q 1294 3584 2113 3584 
Q 2378 3584 2631 3529 
Q 2884 3475 3122 3366 
z
" transform="scale(0.015625)"/>
       <path id="DejaVuSans-64" d="M 2906 2969 
L 2906 4863 
L 3481 4863 
L 3481 0 
L 2906 0 
L 2906 525 
Q 2725 213 2448 61 
Q 2172 -91 1784 -91 
Q 1150 -91 751 415 
Q 353 922 353 1747 
Q 353 2572 751 3078 
Q 1150 3584 1784 3584 
Q 2172 3584 2448 3432 
Q 2725 3281 2906 2969 
z
M 947 1747 
Q 947 1113 1208 752 
Q 1469 391 1925 391 
Q 2381 391 2643 752 
Q 2906 1113 2906 1747 
Q 2906 2381 2643 2742 
Q 2381 3103 1925 3103 
Q 1469 3103 1208 2742 
Q 947 2381 947 1747 
z
" transform="scale(0.015625)"/>
       <path id="DejaVuSans-41" d="M 2188 4044 
L 1331 1722 
L 3047 1722 
L 2188 4044 
z
M 1831 4666 
L 2547 4666 
L 4325 0 
L 3669 0 
L 3244 1197 
L 1141 1197 
L 716 0 
L 50 0 
L 1831 4666 
z
" transform="scale(0.015625)"/>
       <path id="DejaVuSans-79" d="M 2059 -325 
Q 1816 -950 1584 -1140 
Q 1353 -1331 966 -1331 
L 506 -1331 
L 506 -850 
L 844 -850 
Q 1081 -850 1212 -737 
Q 1344 -625 1503 -206 
L 1606 56 
L 191 3500 
L 800 3500 
L 1894 763 
L 2988 3500 
L 3597 3500 
L 2059 -325 
z
" transform="scale(0.015625)"/>
       <path id="DejaVuSans-28" d="M 1984 4856 
Q 1566 4138 1362 3434 
Q 1159 2731 1159 2009 
Q 1159 1288 1364 580 
Q 1569 -128 1984 -844 
L 1484 -844 
Q 1016 -109 783 600 
Q 550 1309 550 2009 
Q 550 2706 781 3412 
Q 1013 4119 1484 4856 
L 1984 4856 
z
" transform="scale(0.015625)"/>
       <path id="DejaVuSans-56" d="M 1831 0 
L 50 4666 
L 709 4666 
L 2188 738 
L 3669 4666 
L 4325 4666 
L 2547 0 
L 1831 0 
z
" transform="scale(0.015625)"/>
       <path id="DejaVuSans-29" d="M 513 4856 
L 1013 4856 
Q 1481 4119 1714 3412 
Q 1947 2706 1947 2009 
Q 1947 1309 1714 600 
Q 1481 -109 1013 -844 
L 513 -844 
Q 928 -128 1133 580 
Q 1338 1288 1338 2009 
Q 1338 2731 1133 3434 
Q 928 4138 513 4856 
z
" transform="scale(0.015625)"/>
      </defs>
      <use xlink:href="#DejaVuSans-42"/>
      <use xlink:href="#DejaVuSans-61" x="68.603516"/>
      <use xlink:href="#DejaVuSans-6c" x="129.882812"/>
      <use xlink:href="#DejaVuSans-61" x="157.666016"/>
      <use xlink:href="#DejaVuSans-6e" x="218.945312"/>
      <use xlink:href="#DejaVuSans-63" x="282.324219"/>
      <use xlink:href="#DejaVuSans-65" x="337.304688"/>
      <use xlink:href="#DejaVuSans-64" x="398.828125"/>
      <use xlink:href="#DejaVuSans-20" x="462.304688"/>
      <use xlink:href="#DejaVuSans-41" x="494.091797"/>
      <use xlink:href="#DejaVuSans-63" x="560.75"/>
      <use xlink:href="#DejaVuSans-63" x="615.730469"/>
      <use xlink:href="#DejaVuSans-75" x="670.710938"/>
      <use xlink:href="#DejaVuSans-72" x="734.089844"/>
      <use xlink:href="#DejaVuSans-61" x="775.203125"/>
      <use xlink:href="#DejaVuSans-63" x="836.482422"/>
      <use xlink:href="#DejaVuSans-79" x="891.462891"/>
      <use xlink:href="#DejaVuSans-20" x="950.642578"/>
      <use xlink:href="#DejaVuSans-28" x="982.429688"/>
      <use xlink:href="#DejaVuSans-56" x="1021.443359"/>
      <use xlink:href="#DejaVuSans-61" x="1082.101562"/>
      <use xlink:href="#DejaVuSans-6c" x="1143.380859"/>
      <use xlink:href="#DejaVuSans-20" x="1171.164062"/>
      <use xlink:href="#DejaVuSans-53" x="1202.951172"/>
      <use xlink:href="#DejaVuSans-65" x="1266.427734"/>
      <use xlink:href="#DejaVuSans-74" x="1327.951172"/>
      <use xlink:href="#DejaVuSans-29" x="1367.160156"/>
     </g>
    </g>
   </g>
   <g id="PolyCollection_1">
    <path d="M 57.423415 175.971483 
L 57.423415 224.597023 
L 59.752205 219.055573 
L 59.893344 218.724274 
L 59.963913 218.558821 
L 59.999198 218.476143 
L 60.281476 217.815894 
L 60.352045 217.651159 
L 60.457899 217.404302 
L 60.563753 217.157738 
L 60.634323 216.993527 
L 60.881316 216.419817 
L 60.9166 216.33799 
L 61.939857 213.97929 
L 62.292704 213.172369 
L 62.398558 212.930936 
L 87.979967 163.609198 
L 92.602263 156.61871 
L 92.919825 156.158781 
L 93.060964 155.955189 
L 93.131533 155.853584 
L 93.696089 155.045438 
L 93.801943 154.894835 
L 94.013651 154.594497 
L 94.260644 154.245564 
L 94.366498 154.0965 
L 94.895769 153.355466 
L 94.966338 153.257199 
L 96.977566 150.508663 
L 97.68326 149.567627 
L 97.930253 149.241068 
L 118.536519 126.358956 
L 125.487605 120.213844 
L 125.946307 119.830707 
L 126.158015 119.654757 
L 126.263869 119.56699 
L 127.110702 118.869799 
L 127.251841 118.754449 
L 127.569403 118.495788 
L 127.92225 118.210943 
L 128.133958 118.041833 
L 128.874937 117.460399 
L 128.980791 117.378648 
L 132.05056 115.144383 
L 133.073816 114.455649 
L 133.426663 114.224341 
L 149.093071 106.542611 
L 158.337663 103.362297 
L 158.937503 103.157452 
L 159.219781 103.060464 
L 159.396204 102.999631 
L 160.49003 102.618202 
L 160.701738 102.543419 
L 161.125155 102.392794 
L 161.619141 102.215147 
L 161.866133 102.125491 
L 162.88939 101.747544 
L 163.030529 101.694528 
L 167.088269 100.250056 
L 168.464373 99.80116 
L 168.958359 99.645597 
L 179.649623 97.144758 
L 191.223006 96.369361 
L 191.963984 96.362641 
L 192.316831 96.359971 
L 192.52854 96.358483 
L 193.904643 96.349487 
L 194.151636 96.347748 
L 194.716191 96.343287 
L 195.316031 96.337461 
L 195.633594 96.333772 
L 196.903843 96.313262 
L 197.080266 96.309524 
L 202.161263 96.046272 
L 203.890214 95.859131 
L 204.490054 95.779114 
L 210.206176 95.023326 
L 224.073064 93.934914 
L 224.990466 93.920376 
L 225.413882 93.916561 
L 225.660875 93.915186 
L 227.319256 93.922321 
L 227.601534 93.926382 
L 228.271943 93.939344 
L 228.977637 93.95801 
L 229.365769 93.970457 
L 230.883011 94.033708 
L 231.094719 94.044348 
L 237.198973 94.518885 
L 239.28077 94.738185 
L 239.986464 94.816525 
L 240.762728 94.904291 
L 256.923121 96.056913 
L 257.981662 96.012536 
L 258.475648 95.983798 
L 258.793211 95.96319 
L 260.698584 95.82193 
L 261.051431 95.792702 
L 261.827695 95.725349 
L 262.674528 95.647421 
L 263.097944 95.606851 
L 264.897464 95.42401 
L 265.144457 95.39775 
L 271.31928 94.687203 
L 272.236682 94.577583 
L 274.671327 94.287899 
L 275.518159 94.188216 
L 289.808464 92.619267 
L 291.008144 92.487188 
L 291.572699 92.424141 
L 291.925546 92.384408 
L 294.113198 92.131591 
L 294.501329 92.085453 
L 295.383447 91.979037 
L 296.336134 91.862413 
L 296.865404 91.797213 
L 298.876632 91.547257 
L 299.15891 91.511946 
L 301.875832 91.170365 
L 307.309676 90.489505 
L 310.061883 90.154206 
L 311.01457 90.040845 
L 322.658522 88.866551 
L 324.034625 88.765987 
L 324.66975 88.723251 
L 325.057881 88.698334 
L 327.527811 88.562594 
L 327.951227 88.543534 
L 328.939199 88.504191 
L 330.033024 88.469377 
L 330.59758 88.455164 
L 332.432384 88.427635 
L 332.891085 88.42541 
L 333.208648 88.425028 
L 342.347385 88.872551 
L 345.452439 89.243186 
L 346.546265 89.401513 
L 355.543864 91.255129 
L 357.061106 91.663003 
L 357.7668 91.861821 
L 358.190217 91.983863 
L 360.942424 92.82673 
L 361.436409 92.986986 
L 362.530235 93.351387 
L 363.729915 93.766006 
L 364.36504 93.991764 
L 366.905538 94.937271 
L 367.258385 95.073883 
L 377.42038 99.530358 
L 380.87828 101.262852 
L 382.07796 101.887915 
L 382.07796 38.201371 
L 382.07796 38.201371 
L 380.87828 39.03216 
L 377.42038 41.355791 
L 367.258385 47.540558 
L 366.905538 47.737115 
L 364.36504 49.114425 
L 363.729915 49.448211 
L 362.530235 50.067001 
L 361.436409 50.617716 
L 360.942424 50.86217 
L 358.190217 52.174921 
L 357.7668 52.369386 
L 357.061106 52.688999 
L 355.543864 53.356993 
L 346.546265 56.768237 
L 345.452439 57.118113 
L 342.347385 58.03566 
L 333.208648 60.125033 
L 332.891085 60.182694 
L 332.432384 60.264419 
L 330.59758 60.573705 
L 330.033024 60.663409 
L 328.939199 60.830232 
L 327.951227 60.973287 
L 327.527811 61.03246 
L 325.057881 61.353482 
L 324.66975 61.400362 
L 324.034625 61.475094 
L 322.658522 61.6289 
L 311.01457 62.574071 
L 310.061883 62.629506 
L 307.309676 62.776043 
L 301.875832 63.016331 
L 299.15891 63.117409 
L 298.876632 63.127319 
L 296.865404 63.19508 
L 296.336134 63.21214 
L 295.383447 63.242107 
L 294.501329 63.27159 
L 294.113198 63.2859 
L 291.925546 63.380616 
L 291.572699 63.397938 
L 291.008144 63.426707 
L 289.808464 63.491751 
L 275.518159 64.367407 
L 274.671327 64.41147 
L 272.236682 64.529859 
L 271.31928 64.571592 
L 265.144457 64.832022 
L 264.897464 64.842499 
L 263.097944 64.921462 
L 262.674528 64.940924 
L 261.827695 64.981158 
L 261.051431 65.019811 
L 260.698584 65.038013 
L 258.793211 65.144304 
L 258.475648 65.163488 
L 257.981662 65.193573 
L 256.923121 65.257181 
L 240.762728 65.779911 
L 239.986464 65.767208 
L 239.28077 65.751548 
L 237.198973 65.682031 
L 231.094719 65.280842 
L 230.883011 65.262114 
L 229.365769 65.120125 
L 228.977637 65.081788 
L 228.271943 65.010235 
L 227.601534 64.940274 
L 227.319256 64.910302 
L 225.660875 64.729383 
L 225.413882 64.701902 
L 224.990466 64.654584 
L 224.073064 64.551522 
L 210.206176 63.573803 
L 204.490054 64.017829 
L 203.890214 64.106458 
L 202.161263 64.371375 
L 197.080266 65.204888 
L 196.903843 65.234557 
L 195.633594 65.448152 
L 195.316031 65.501438 
L 194.716191 65.601826 
L 194.151636 65.69588 
L 193.904643 65.736866 
L 192.52854 65.962891 
L 192.316831 65.997252 
L 191.963984 66.054239 
L 191.223006 66.172677 
L 179.649623 67.758955 
L 168.958359 69.417353 
L 168.464373 69.529678 
L 167.088269 69.869966 
L 163.030529 71.151339 
L 162.88939 71.204092 
L 161.866133 71.585261 
L 161.619141 71.676984 
L 161.125155 71.860178 
L 160.701738 72.016993 
L 160.49003 72.095347 
L 159.396204 72.49991 
L 159.219781 72.565162 
L 158.937503 72.669589 
L 158.337663 72.891667 
L 149.093071 76.465124 
L 133.426663 84.873259 
L 133.073816 85.12751 
L 132.05056 85.886977 
L 128.980791 88.376824 
L 128.874937 88.46868 
L 128.133958 89.123437 
L 127.92225 89.31434 
L 127.569403 89.636353 
L 127.251841 89.92893 
L 127.110702 90.059346 
L 126.263869 90.846765 
L 126.158015 90.945787 
L 125.946307 91.144227 
L 125.487605 91.575994 
L 118.536519 98.422793 
L 97.930253 121.910048 
L 97.68326 122.217435 
L 96.977566 123.098571 
L 94.966338 125.632588 
L 94.895769 125.722095 
L 94.366498 126.394649 
L 94.260644 126.529422 
L 94.013651 126.844229 
L 93.801943 127.114435 
L 93.696089 127.249667 
L 93.131533 127.972327 
L 93.060964 128.062826 
L 92.919825 128.243916 
L 92.602263 128.651746 
L 87.979967 134.641054 
L 62.398558 169.0153 
L 62.292704 169.162108 
L 61.939857 169.651826 
L 60.9166 171.075167 
L 60.881316 171.124333 
L 60.634323 171.468655 
L 60.563753 171.567084 
L 60.457899 171.714772 
L 60.352045 171.862513 
L 60.281476 171.961036 
L 59.999198 172.355362 
L 59.963913 172.404679 
L 59.893344 172.503332 
L 59.752205 172.700708 
L 57.423415 175.971483 
z
" clip-path="url(#pcc3d1e685c)" style="fill: #999999; fill-opacity: 0.4"/>
   </g>
   <g id="line2d_29">
    <path d="M 57.423415 200.284253 
L 62.398558 190.973118 
L 87.979967 149.125126 
L 94.966338 139.444893 
L 97.930253 135.575558 
L 118.536519 112.390874 
L 127.92225 103.762642 
L 128.980791 102.877736 
L 133.426663 99.5488 
L 149.093071 91.503868 
L 163.030529 86.422934 
L 168.958359 84.531475 
L 179.649623 82.451857 
L 210.206176 79.298565 
L 225.660875 79.322284 
L 231.094719 79.662595 
L 240.762728 80.342101 
L 257.981662 80.603054 
L 265.144457 80.114886 
L 275.518159 79.277811 
L 342.347385 73.454105 
L 382.07796 70.044643 
L 382.07796 70.044643 
" clip-path="url(#pcc3d1e685c)" style="fill: none; stroke: #db5f57; stroke-width: 1.772454; stroke-linejoin: miter"/>
   </g>
   <g id="PolyCollection_2">
    <path d="M 57.423415 127.89166 
L 57.423415 163.079283 
L 59.752205 159.40549 
L 59.893344 159.18587 
L 59.963913 159.07619 
L 59.999198 159.021383 
L 60.281476 158.583711 
L 60.352045 158.474512 
L 60.457899 158.310876 
L 60.563753 158.147438 
L 60.634323 158.038588 
L 60.881316 157.658304 
L 60.9166 157.604066 
L 61.939857 156.040707 
L 62.292704 155.505917 
L 62.398558 155.345911 
L 87.979967 122.774566 
L 92.602263 118.196541 
L 92.919825 117.895903 
L 93.060964 117.762846 
L 93.131533 117.696448 
L 93.696089 117.168535 
L 93.801943 117.070194 
L 94.013651 116.874116 
L 94.260644 116.646372 
L 94.366498 116.5491 
L 94.895769 116.065715 
L 94.966338 116.001636 
L 96.977566 114.211447 
L 97.68326 113.599452 
L 97.930253 113.387187 
L 118.536519 98.628743 
L 125.487605 94.679649 
L 125.946307 94.432987 
L 126.158015 94.319684 
L 126.263869 94.26316 
L 127.110702 93.813983 
L 127.251841 93.739637 
L 127.569403 93.57289 
L 127.92225 93.388965 
L 128.133958 93.27951 
L 128.874937 92.90166 
L 128.980791 92.848341 
L 132.05056 91.371435 
L 133.073816 90.907964 
L 133.426663 90.751381 
L 149.093071 85.258106 
L 158.337663 82.925672 
L 158.937503 82.78167 
L 159.219781 82.713874 
L 159.396204 82.67148 
L 160.49003 82.407963 
L 160.701738 82.356768 
L 161.125155 82.254126 
L 161.619141 82.13388 
L 161.866133 82.073527 
L 162.88939 81.821537 
L 163.030529 81.786501 
L 167.088269 80.913996 
L 168.464373 80.678796 
L 168.958359 80.601782 
L 179.649623 79.874348 
L 191.223006 80.671118 
L 191.963984 80.742339 
L 192.316831 80.775773 
L 192.52854 80.795635 
L 193.904643 80.919735 
L 194.151636 80.940851 
L 194.716191 80.98746 
L 195.316031 81.034126 
L 195.633594 81.057495 
L 196.903843 81.140214 
L 197.080266 81.150187 
L 202.161263 81.219087 
L 203.890214 81.118489 
L 204.490054 81.065468 
L 210.206176 80.396181 
L 224.073064 78.372083 
L 224.990466 78.24912 
L 225.413882 78.193685 
L 225.660875 78.161753 
L 227.319256 77.955598 
L 227.601534 77.922014 
L 228.271943 77.844105 
L 228.977637 77.764991 
L 229.365769 77.722777 
L 230.883011 77.566866 
L 231.094719 77.546285 
L 237.198973 77.077297 
L 239.28077 76.968668 
L 239.986464 76.936888 
L 240.762728 76.904579 
L 256.923121 76.382809 
L 257.981662 76.323651 
L 258.475648 76.29363 
L 258.793211 76.273549 
L 260.698584 76.142656 
L 261.051431 76.116641 
L 261.827695 76.057698 
L 262.674528 75.990965 
L 263.097944 75.956749 
L 264.897464 75.806153 
L 265.144457 75.784943 
L 271.31928 75.240335 
L 272.236682 75.160701 
L 274.671327 74.955781 
L 275.518159 74.887202 
L 289.808464 73.973152 
L 291.008144 73.910965 
L 291.572699 73.881898 
L 291.925546 73.86377 
L 294.113198 73.751494 
L 294.501329 73.731518 
L 295.383447 73.685983 
L 296.336134 73.636808 
L 296.865404 73.609614 
L 298.876632 73.507501 
L 299.15891 73.493367 
L 301.875832 73.360818 
L 307.309676 73.124516 
L 310.061883 73.026475 
L 311.01457 72.996924 
L 322.658522 72.898154 
L 324.034625 72.928468 
L 324.66975 72.946207 
L 325.057881 72.958259 
L 327.527811 73.057633 
L 327.951227 73.0788 
L 328.939199 73.133161 
L 330.033024 73.201749 
L 330.59758 73.240728 
L 332.432384 73.385028 
L 332.891085 73.425468 
L 333.208648 73.454511 
L 342.347385 74.682211 
L 345.452439 75.283965 
L 346.546265 75.519234 
L 355.543864 77.916648 
L 357.061106 78.401 
L 357.7668 78.633965 
L 358.190217 78.776068 
L 360.942424 79.741721 
L 361.436409 79.922655 
L 362.530235 80.331414 
L 363.729915 80.792471 
L 364.36504 81.041899 
L 366.905538 82.075975 
L 367.258385 82.224138 
L 377.42038 86.943636 
L 380.87828 88.73883 
L 382.07796 89.382921 
L 382.07796 43.29648 
L 382.07796 43.29648 
L 380.87828 43.705909 
L 377.42038 44.84591 
L 367.258385 47.826892 
L 366.905538 47.919824 
L 364.36504 48.566642 
L 363.729915 48.722126 
L 362.530235 49.00889 
L 361.436409 49.26235 
L 360.942424 49.374283 
L 358.190217 49.968531 
L 357.7668 50.055467 
L 357.061106 50.197662 
L 355.543864 50.491857 
L 346.546265 51.904331 
L 345.452439 52.036821 
L 342.347385 52.367253 
L 333.208648 52.975365 
L 332.891085 52.987771 
L 332.432384 53.004862 
L 330.59758 53.064453 
L 330.033024 53.080102 
L 328.939199 53.107043 
L 327.951227 53.127733 
L 327.527811 53.135592 
L 325.057881 53.170297 
L 324.66975 53.174139 
L 324.034625 53.179553 
L 322.658522 53.187768 
L 311.01457 53.120735 
L 310.061883 53.108367 
L 307.309676 53.069811 
L 301.875832 52.987296 
L 299.15891 52.945806 
L 298.876632 52.941559 
L 296.865404 52.911826 
L 296.336134 52.904184 
L 295.383447 52.890651 
L 294.501329 52.880515 
L 294.113198 52.877458 
L 291.925546 52.875324 
L 291.572699 52.877235 
L 291.008144 52.881497 
L 289.808464 52.895175 
L 275.518159 53.307527 
L 274.671327 53.335856 
L 272.236682 53.41682 
L 271.31928 53.447328 
L 265.144457 53.666211 
L 264.897464 53.675999 
L 263.097944 53.751424 
L 262.674528 53.770366 
L 261.827695 53.809822 
L 261.051431 53.847997 
L 260.698584 53.866033 
L 258.793211 53.97162 
L 258.475648 53.990671 
L 257.981662 54.021667 
L 256.923121 54.094741 
L 240.762728 55.828871 
L 239.986464 55.915499 
L 239.28077 55.992637 
L 237.198973 56.209655 
L 231.094719 56.731721 
L 230.883011 56.74645 
L 229.365769 56.845382 
L 228.977637 56.868861 
L 228.271943 56.909703 
L 227.601534 56.946365 
L 227.319256 56.961199 
L 225.660875 57.041597 
L 225.413882 57.052647 
L 224.990466 57.071079 
L 224.073064 57.108941 
L 210.206176 57.637895 
L 204.490054 58.081577 
L 203.890214 58.140831 
L 202.161263 58.29771 
L 197.080266 58.641477 
L 196.903843 58.650268 
L 195.633594 58.707275 
L 195.316031 58.719797 
L 194.716191 58.741559 
L 194.151636 58.759783 
L 193.904643 58.767069 
L 192.52854 58.80002 
L 192.316831 58.803947 
L 191.963984 58.80982 
L 191.223006 58.819442 
L 179.649623 58.609462 
L 168.958359 58.727268 
L 168.464373 58.772993 
L 167.088269 58.929601 
L 163.030529 59.684078 
L 162.88939 59.718925 
L 161.866133 59.973246 
L 161.619141 60.035095 
L 161.125155 60.159355 
L 160.701738 60.266477 
L 160.49003 60.320256 
L 159.396204 60.600513 
L 159.219781 60.646105 
L 158.937503 60.719284 
L 158.337663 60.875756 
L 149.093071 63.492686 
L 133.426663 69.511621 
L 133.073816 69.684806 
L 132.05056 70.199463 
L 128.980791 71.861319 
L 128.874937 71.921951 
L 128.133958 72.352861 
L 127.92225 72.478087 
L 127.569403 72.688908 
L 127.251841 72.880198 
L 127.110702 72.965447 
L 126.263869 73.479916 
L 126.158015 73.544585 
L 125.946307 73.674163 
L 125.487605 73.956015 
L 118.536519 78.412881 
L 97.930253 93.609234 
L 97.68326 93.807626 
L 96.977566 94.376275 
L 94.966338 96.011228 
L 94.895769 96.068967 
L 94.366498 96.502798 
L 94.260644 96.589728 
L 94.013651 96.792777 
L 93.801943 96.967051 
L 93.696089 97.054268 
L 93.131533 97.520319 
L 93.060964 97.578681 
L 92.919825 97.695453 
L 92.602263 97.958392 
L 87.979967 101.811917 
L 62.398558 123.566586 
L 62.292704 123.658117 
L 61.939857 123.963365 
L 60.9166 124.849856 
L 60.881316 124.880459 
L 60.634323 125.094748 
L 60.563753 125.155995 
L 60.457899 125.247883 
L 60.352045 125.339793 
L 60.281476 125.401078 
L 59.999198 125.646317 
L 59.963913 125.676983 
L 59.893344 125.738322 
L 59.752205 125.86103 
L 57.423415 127.89166 
z
" clip-path="url(#pcc3d1e685c)" style="fill: #999999; fill-opacity: 0.4"/>
   </g>
   <g id="line2d_30">
    <path d="M 57.423415 145.485471 
L 62.398558 139.456249 
L 87.979967 112.293242 
L 94.966338 106.006432 
L 97.930253 103.49821 
L 118.536519 88.520812 
L 128.133958 82.816185 
L 132.05056 80.785449 
L 133.426663 80.131501 
L 149.093071 74.375396 
L 163.030529 70.735289 
L 168.464373 69.725894 
L 168.958359 69.664525 
L 179.649623 69.241905 
L 197.080266 69.895832 
L 203.890214 69.62966 
L 231.094719 67.139003 
L 240.762728 66.366725 
L 271.31928 64.343831 
L 275.518159 64.097365 
L 294.501329 63.306017 
L 311.01457 63.05883 
L 330.033024 63.140925 
L 333.208648 63.214938 
L 346.546265 63.711783 
L 363.729915 64.757299 
L 367.258385 65.025515 
L 382.07796 66.3397 
L 382.07796 66.3397 
" clip-path="url(#pcc3d1e685c)" style="fill: none; stroke: #57db5f; stroke-width: 1.772454; stroke-linejoin: miter"/>
   </g>
   <g id="PolyCollection_3">
    <path d="M 57.423415 169.919064 
L 57.423415 215.220844 
L 59.752205 210.833986 
L 59.893344 210.571824 
L 59.963913 210.440904 
L 59.999198 210.375483 
L 60.281476 209.85308 
L 60.352045 209.722747 
L 60.457899 209.527446 
L 60.563753 209.332387 
L 60.634323 209.202481 
L 60.881316 208.748653 
L 60.9166 208.683928 
L 61.939857 206.818581 
L 62.292704 206.180614 
L 62.398558 205.989751 
L 87.979967 167.30806 
L 92.602263 161.909086 
L 92.919825 161.554923 
L 93.060964 161.398191 
L 93.131533 161.319982 
L 93.696089 160.698129 
L 93.801943 160.582283 
L 94.013651 160.351299 
L 94.260644 160.083004 
L 94.366498 159.968411 
L 94.895769 159.398922 
L 94.966338 159.323426 
L 96.977566 157.214028 
L 97.68326 156.4928 
L 97.930253 156.242636 
L 118.536519 138.853068 
L 125.487605 134.222063 
L 125.946307 133.933725 
L 126.158015 133.801323 
L 126.263869 133.735282 
L 127.110702 133.210752 
L 127.251841 133.123981 
L 127.569403 132.92942 
L 127.92225 132.714786 
L 128.133958 132.586988 
L 128.874937 132.145433 
L 128.980791 132.083075 
L 132.05056 130.350899 
L 133.073816 129.805335 
L 133.426663 129.620802 
L 149.093071 123.091993 
L 158.337663 120.324654 
L 158.937503 120.155236 
L 159.219781 120.075549 
L 159.396204 120.025744 
L 160.49003 119.716584 
L 160.701738 119.656607 
L 161.125155 119.536443 
L 161.619141 119.395813 
L 161.866133 119.325286 
L 162.88939 119.031239 
L 163.030529 118.990408 
L 167.088269 117.958443 
L 168.464373 117.673467 
L 168.958359 117.579275 
L 179.649623 116.613534 
L 191.223006 117.508813 
L 191.963984 117.595641 
L 192.316831 117.636679 
L 192.52854 117.661147 
L 193.904643 117.815746 
L 194.151636 117.842393 
L 194.716191 117.901649 
L 195.316031 117.961696 
L 195.633594 117.992098 
L 196.903843 118.102306 
L 197.080266 118.115987 
L 202.161263 118.26877 
L 203.890214 118.181369 
L 204.490054 118.130471 
L 210.206176 117.507926 
L 224.073064 115.850491 
L 224.990466 115.763641 
L 225.413882 115.725317 
L 225.660875 115.703491 
L 227.319256 115.567486 
L 227.601534 115.54622 
L 228.271943 115.497978 
L 228.977637 115.450682 
L 229.365769 115.426209 
L 230.883011 115.341105 
L 231.094719 115.330567 
L 237.198973 115.158063 
L 239.28077 115.14755 
L 239.986464 115.147821 
L 240.762728 115.149831 
L 256.923121 114.813777 
L 257.981662 114.710073 
L 258.475648 114.656012 
L 258.793211 114.619401 
L 260.698584 114.373421 
L 261.051431 114.323257 
L 261.827695 114.208271 
L 262.674528 114.076038 
L 263.097944 114.00745 
L 264.897464 113.699664 
L 265.144457 113.655572 
L 271.31928 112.460896 
L 272.236682 112.27535 
L 274.671327 111.782986 
L 275.518159 111.612996 
L 289.808464 109.078713 
L 291.008144 108.901913 
L 291.572699 108.820703 
L 291.925546 108.770595 
L 294.113198 108.47123 
L 294.501329 108.420199 
L 295.383447 108.306658 
L 296.336134 108.185494 
L 296.865404 108.117873 
L 298.876632 107.8596 
L 299.15891 107.823258 
L 301.875832 107.47395 
L 307.309676 106.794221 
L 310.061883 106.470896 
L 311.01457 106.363847 
L 322.658522 105.382462 
L 324.034625 105.321594 
L 324.66975 105.298569 
L 325.057881 105.28614 
L 327.527811 105.237983 
L 327.951227 105.235386 
L 328.939199 105.236162 
L 330.033024 105.248604 
L 330.59758 105.259974 
L 332.432384 105.321348 
L 332.891085 105.342755 
L 333.208648 105.359014 
L 342.347385 106.352728 
L 345.452439 106.936336 
L 346.546265 107.172771 
L 355.543864 109.727042 
L 357.061106 110.262986 
L 357.7668 110.522325 
L 358.190217 110.68097 
L 360.942424 111.76703 
L 361.436409 111.9719 
L 362.530235 112.436127 
L 363.729915 112.961872 
L 364.36504 113.247154 
L 366.905538 114.435532 
L 367.258385 114.606477 
L 377.42038 120.113893 
L 380.87828 122.2309 
L 382.07796 122.992488 
L 382.07796 63.659186 
L 382.07796 63.659186 
L 380.87828 64.253937 
L 377.42038 65.915802 
L 367.258385 70.322255 
L 366.905538 70.461704 
L 364.36504 71.437369 
L 363.729915 71.673384 
L 362.530235 72.11041 
L 361.436409 72.498747 
L 360.942424 72.670925 
L 358.190217 73.593136 
L 357.7668 73.729364 
L 357.061106 73.953018 
L 355.543864 74.419403 
L 346.546265 76.770116 
L 345.452439 77.007146 
L 342.347385 77.623668 
L 333.208648 78.993443 
L 332.891085 79.030547 
L 332.432384 79.083206 
L 330.59758 79.28433 
L 330.033024 79.34329 
L 328.939199 79.453834 
L 327.951227 79.549682 
L 327.527811 79.589649 
L 325.057881 79.810424 
L 324.66975 79.843314 
L 324.034625 79.896148 
L 322.658522 80.006619 
L 311.01457 80.774543 
L 310.061883 80.827624 
L 307.309676 80.97509 
L 301.875832 81.244363 
L 299.15891 81.369607 
L 298.876632 81.382285 
L 296.865404 81.470815 
L 296.336134 81.493587 
L 295.383447 81.534018 
L 294.501329 81.575886 
L 294.113198 81.597263 
L 291.925546 81.749333 
L 291.572699 81.778563 
L 291.008144 81.827838 
L 289.808464 81.942185 
L 275.518159 83.830564 
L 274.671327 83.948736 
L 272.236682 84.281515 
L 271.31928 84.403813 
L 265.144457 85.179139 
L 264.897464 85.208528 
L 263.097944 85.419536 
L 262.674528 85.468459 
L 261.827695 85.565575 
L 261.051431 85.653823 
L 260.698584 85.693714 
L 258.793211 85.907116 
L 258.475648 85.942399 
L 257.981662 85.997716 
L 256.923121 86.119337 
L 240.762728 88.016226 
L 239.986464 88.084147 
L 239.28077 88.142271 
L 237.198973 88.292328 
L 231.094719 88.533166 
L 230.883011 88.53617 
L 229.365769 88.547918 
L 228.977637 88.54827 
L 228.271943 88.546295 
L 227.601534 88.541434 
L 227.319256 88.53856 
L 225.660875 88.51266 
L 225.413882 88.507602 
L 224.990466 88.498288 
L 224.073064 88.475577 
L 210.206176 88.20811 
L 204.490054 88.540203 
L 203.890214 88.599125 
L 202.161263 88.758985 
L 197.080266 89.137484 
L 196.903843 89.147961 
L 195.633594 89.217639 
L 195.316031 89.233445 
L 194.716191 89.261496 
L 194.151636 89.285709 
L 193.904643 89.295626 
L 192.52854 89.343221 
L 192.316831 89.349379 
L 191.963984 89.358946 
L 191.223006 89.376199 
L 179.649623 89.236374 
L 168.958359 89.417258 
L 168.464373 89.471167 
L 167.088269 89.65496 
L 163.030529 90.534973 
L 162.88939 90.57556 
L 161.866133 90.872609 
L 161.619141 90.945061 
L 161.125155 91.09086 
L 160.701738 91.216791 
L 160.49003 91.280094 
L 159.396204 91.610807 
L 159.219781 91.664729 
L 158.937503 91.751346 
L 158.337663 91.936819 
L 149.093071 95.070428 
L 133.426663 102.275989 
L 133.073816 102.481897 
L 132.05056 103.093359 
L 128.980791 105.063647 
L 128.874937 105.135419 
L 128.133958 105.645285 
L 127.92225 105.793387 
L 127.569403 106.042648 
L 127.251841 106.268808 
L 127.110702 106.369614 
L 126.263869 106.978205 
L 126.158015 107.054732 
L 125.946307 107.208085 
L 125.487605 107.54173 
L 118.536519 112.826458 
L 97.930253 130.779807 
L 97.68326 131.012109 
L 96.977566 131.677531 
L 94.966338 133.587073 
L 94.895769 133.654407 
L 94.366498 134.160098 
L 94.260644 134.261378 
L 94.013651 134.497878 
L 93.801943 134.700791 
L 93.696089 134.802315 
L 93.131533 135.344525 
L 93.060964 135.412388 
L 92.919825 135.548155 
L 92.602263 135.853782 
L 87.979967 140.32001 
L 62.398558 165.075932 
L 62.292704 165.178639 
L 61.939857 165.521085 
L 60.9166 166.515008 
L 60.881316 166.549304 
L 60.634323 166.789424 
L 60.563753 166.858045 
L 60.457899 166.960988 
L 60.352045 167.063946 
L 60.281476 167.132594 
L 59.999198 167.407252 
L 59.963913 167.441592 
L 59.893344 167.510277 
L 59.752205 167.64767 
L 57.423415 169.919064 
z
" clip-path="url(#pcc3d1e685c)" style="fill: #999999; fill-opacity: 0.4"/>
   </g>
   <g id="line2d_31">
    <path d="M 57.423415 192.569954 
L 62.398558 185.532842 
L 87.979967 153.814035 
L 94.966338 146.455249 
L 97.930253 143.511222 
L 118.536519 125.839763 
L 128.133958 119.116137 
L 132.05056 116.722129 
L 133.426663 115.948395 
L 149.093071 109.08121 
L 161.866133 105.098948 
L 163.030529 104.76269 
L 168.464373 103.572317 
L 168.958359 103.498267 
L 179.649623 102.924954 
L 197.080266 103.626735 
L 203.890214 103.390247 
L 210.206176 102.858018 
L 229.365769 101.987064 
L 240.762728 101.583029 
L 258.793211 100.263259 
L 265.144457 99.417355 
L 291.572699 95.299633 
L 296.865404 94.794344 
L 311.01457 93.569195 
L 327.951227 92.392534 
L 333.208648 92.176229 
L 346.546265 91.971444 
L 361.436409 92.235323 
L 367.258385 92.464366 
L 382.07796 93.325837 
L 382.07796 93.325837 
" clip-path="url(#pcc3d1e685c)" style="fill: none; stroke: #5f57db; stroke-width: 1.772454; stroke-linejoin: miter"/>
   </g>
   <g id="LineCollection_1">
    <path d="M 41.190688 280.121371 
L 398.310688 280.121371 
" clip-path="url(#pcc3d1e685c)" style="fill: none; stroke-dasharray: 3.27904,1.417963; stroke-dashoffset: 0; stroke: #000000; stroke-width: 0.886227"/>
   </g>
   <g id="patch_3">
    <path d="M 405.510688 202.916339 
L 517.346688 202.916339 
L 517.346688 111.950402 
L 405.510688 111.950402 
z
" style="fill: #ffffff"/>
   </g>
   <g id="text_12">
    <!-- Model -->
    <g transform="translate(417.710688 135.543996)scale(0.11 -0.11)">
     <defs>
      <path id="DejaVuSans-4d" d="M 628 4666 
L 1569 4666 
L 2759 1491 
L 3956 4666 
L 4897 4666 
L 4897 0 
L 4281 0 
L 4281 4097 
L 3078 897 
L 2444 897 
L 1241 4097 
L 1241 0 
L 628 0 
L 628 4666 
z
" transform="scale(0.015625)"/>
     </defs>
     <use xlink:href="#DejaVuSans-4d"/>
     <use xlink:href="#DejaVuSans-6f" x="86.279297"/>
     <use xlink:href="#DejaVuSans-64" x="147.460938"/>
     <use xlink:href="#DejaVuSans-65" x="210.9375"/>
     <use xlink:href="#DejaVuSans-6c" x="272.460938"/>
    </g>
   </g>
   <g id="patch_4">
    <path d="M 417.710688 155.036339 
L 433.550687 155.036339 
L 433.550687 139.196339 
L 417.710688 139.196339 
z
" clip-path="url(#p0e7c98f4ea)" style="fill: #f2f2f2"/>
   </g>
   <g id="patch_5">
    <path d="M 417.710688 151.076339 
L 433.550687 151.076339 
L 433.550687 143.156339 
L 417.710688 143.156339 
z
" clip-path="url(#p0e7c98f4ea)" style="fill: #999999; opacity: 0.4"/>
   </g>
   <g id="line2d_32">
    <path d="M 417.710688 147.116339 
L 433.550687 147.116339 
" clip-path="url(#p0e7c98f4ea)" style="fill: none; stroke: #db5f57; stroke-width: 1.772454"/>
   </g>
   <g id="text_13">
    <!-- five_layer_net -->
    <g transform="translate(436.550687 149.422214)scale(0.088 -0.088)">
     <defs>
      <path id="DejaVuSans-66" d="M 2375 4863 
L 2375 4384 
L 1825 4384 
Q 1516 4384 1395 4259 
Q 1275 4134 1275 3809 
L 1275 3500 
L 2222 3500 
L 2222 3053 
L 1275 3053 
L 1275 0 
L 697 0 
L 697 3053 
L 147 3053 
L 147 3500 
L 697 3500 
L 697 3744 
Q 697 4328 969 4595 
Q 1241 4863 1831 4863 
L 2375 4863 
z
" transform="scale(0.015625)"/>
      <path id="DejaVuSans-76" d="M 191 3500 
L 800 3500 
L 1894 563 
L 2988 3500 
L 3597 3500 
L 2284 0 
L 1503 0 
L 191 3500 
z
" transform="scale(0.015625)"/>
      <path id="DejaVuSans-5f" d="M 3263 -1063 
L 3263 -1509 
L -63 -1509 
L -63 -1063 
L 3263 -1063 
z
" transform="scale(0.015625)"/>
     </defs>
     <use xlink:href="#DejaVuSans-66"/>
     <use xlink:href="#DejaVuSans-69" x="35.205078"/>
     <use xlink:href="#DejaVuSans-76" x="62.988281"/>
     <use xlink:href="#DejaVuSans-65" x="122.167969"/>
     <use xlink:href="#DejaVuSans-5f" x="183.691406"/>
     <use xlink:href="#DejaVuSans-6c" x="233.691406"/>
     <use xlink:href="#DejaVuSans-61" x="261.474609"/>
     <use xlink:href="#DejaVuSans-79" x="322.753906"/>
     <use xlink:href="#DejaVuSans-65" x="381.933594"/>
     <use xlink:href="#DejaVuSans-72" x="443.457031"/>
     <use xlink:href="#DejaVuSans-5f" x="484.570312"/>
     <use xlink:href="#DejaVuSans-6e" x="534.570312"/>
     <use xlink:href="#DejaVuSans-65" x="597.949219"/>
     <use xlink:href="#DejaVuSans-74" x="659.472656"/>
    </g>
   </g>
   <g id="patch_6">
    <path d="M 417.710688 172.876339 
L 433.550687 172.876339 
L 433.550687 157.036339 
L 417.710688 157.036339 
z
" clip-path="url(#p2e50286b3e)" style="fill: #f2f2f2"/>
   </g>
   <g id="patch_7">
    <path d="M 417.710688 168.916339 
L 433.550687 168.916339 
L 433.550687 160.996339 
L 417.710688 160.996339 
z
" clip-path="url(#p2e50286b3e)" style="fill: #999999; opacity: 0.4"/>
   </g>
   <g id="line2d_33">
    <path d="M 417.710688 164.956339 
L 433.550687 164.956339 
" clip-path="url(#p2e50286b3e)" style="fill: none; stroke: #57db5f; stroke-width: 1.772454"/>
   </g>
   <g id="text_14">
    <!-- pytorch_lr -->
    <g transform="translate(436.550687 167.262214)scale(0.088 -0.088)">
     <defs>
      <path id="DejaVuSans-68" d="M 3513 2113 
L 3513 0 
L 2938 0 
L 2938 2094 
Q 2938 2591 2744 2837 
Q 2550 3084 2163 3084 
Q 1697 3084 1428 2787 
Q 1159 2491 1159 1978 
L 1159 0 
L 581 0 
L 581 4863 
L 1159 4863 
L 1159 2956 
Q 1366 3272 1645 3428 
Q 1925 3584 2291 3584 
Q 2894 3584 3203 3211 
Q 3513 2838 3513 2113 
z
" transform="scale(0.015625)"/>
     </defs>
     <use xlink:href="#DejaVuSans-70"/>
     <use xlink:href="#DejaVuSans-79" x="63.476562"/>
     <use xlink:href="#DejaVuSans-74" x="122.65625"/>
     <use xlink:href="#DejaVuSans-6f" x="161.865234"/>
     <use xlink:href="#DejaVuSans-72" x="223.046875"/>
     <use xlink:href="#DejaVuSans-63" x="261.910156"/>
     <use xlink:href="#DejaVuSans-68" x="316.890625"/>
     <use xlink:href="#DejaVuSans-5f" x="380.269531"/>
     <use xlink:href="#DejaVuSans-6c" x="430.269531"/>
     <use xlink:href="#DejaVuSans-72" x="458.052734"/>
    </g>
   </g>
   <g id="patch_8">
    <path d="M 417.710688 190.716339 
L 433.550687 190.716339 
L 433.550687 174.876339 
L 417.710688 174.876339 
z
" clip-path="url(#p82e4cc14a3)" style="fill: #f2f2f2"/>
   </g>
   <g id="patch_9">
    <path d="M 417.710688 186.756339 
L 433.550687 186.756339 
L 433.550687 178.836339 
L 417.710688 178.836339 
z
" clip-path="url(#p82e4cc14a3)" style="fill: #999999; opacity: 0.4"/>
   </g>
   <g id="line2d_34">
    <path d="M 417.710688 182.796339 
L 433.550687 182.796339 
" clip-path="url(#p82e4cc14a3)" style="fill: none; stroke: #5f57db; stroke-width: 1.772454"/>
   </g>
   <g id="text_15">
    <!-- three_layer_net -->
    <g transform="translate(436.550687 185.102214)scale(0.088 -0.088)">
     <use xlink:href="#DejaVuSans-74"/>
     <use xlink:href="#DejaVuSans-68" x="39.208984"/>
     <use xlink:href="#DejaVuSans-72" x="102.587891"/>
     <use xlink:href="#DejaVuSans-65" x="141.451172"/>
     <use xlink:href="#DejaVuSans-65" x="202.974609"/>
     <use xlink:href="#DejaVuSans-5f" x="264.498047"/>
     <use xlink:href="#DejaVuSans-6c" x="314.498047"/>
     <use xlink:href="#DejaVuSans-61" x="342.28125"/>
     <use xlink:href="#DejaVuSans-79" x="403.560547"/>
     <use xlink:href="#DejaVuSans-65" x="462.740234"/>
     <use xlink:href="#DejaVuSans-72" x="524.263672"/>
     <use xlink:href="#DejaVuSans-5f" x="565.376953"/>
     <use xlink:href="#DejaVuSans-6e" x="615.376953"/>
     <use xlink:href="#DejaVuSans-65" x="678.755859"/>
     <use xlink:href="#DejaVuSans-74" x="740.279297"/>
    </g>
   </g>
  </g>
  <g id="text_16">
   <!-- Recount3 Multiclass Tissue Prediction -->
   <g transform="translate(90.450031 17.229938)scale(0.132 -0.132)">
    <defs>
     <path id="DejaVuSans-52" d="M 2841 2188 
Q 3044 2119 3236 1894 
Q 3428 1669 3622 1275 
L 4263 0 
L 3584 0 
L 2988 1197 
Q 2756 1666 2539 1819 
Q 2322 1972 1947 1972 
L 1259 1972 
L 1259 0 
L 628 0 
L 628 4666 
L 2053 4666 
Q 2853 4666 3247 4331 
Q 3641 3997 3641 3322 
Q 3641 2881 3436 2590 
Q 3231 2300 2841 2188 
z
M 1259 4147 
L 1259 2491 
L 2053 2491 
Q 2509 2491 2742 2702 
Q 2975 2913 2975 3322 
Q 2975 3731 2742 3939 
Q 2509 4147 2053 4147 
L 1259 4147 
z
" transform="scale(0.015625)"/>
     <path id="DejaVuSans-73" d="M 2834 3397 
L 2834 2853 
Q 2591 2978 2328 3040 
Q 2066 3103 1784 3103 
Q 1356 3103 1142 2972 
Q 928 2841 928 2578 
Q 928 2378 1081 2264 
Q 1234 2150 1697 2047 
L 1894 2003 
Q 2506 1872 2764 1633 
Q 3022 1394 3022 966 
Q 3022 478 2636 193 
Q 2250 -91 1575 -91 
Q 1294 -91 989 -36 
Q 684 19 347 128 
L 347 722 
Q 666 556 975 473 
Q 1284 391 1588 391 
Q 1994 391 2212 530 
Q 2431 669 2431 922 
Q 2431 1156 2273 1281 
Q 2116 1406 1581 1522 
L 1381 1569 
Q 847 1681 609 1914 
Q 372 2147 372 2553 
Q 372 3047 722 3315 
Q 1072 3584 1716 3584 
Q 2034 3584 2315 3537 
Q 2597 3491 2834 3397 
z
" transform="scale(0.015625)"/>
     <path id="DejaVuSans-50" d="M 1259 4147 
L 1259 2394 
L 2053 2394 
Q 2494 2394 2734 2622 
Q 2975 2850 2975 3272 
Q 2975 3691 2734 3919 
Q 2494 4147 2053 4147 
L 1259 4147 
z
M 628 4666 
L 2053 4666 
Q 2838 4666 3239 4311 
Q 3641 3956 3641 3272 
Q 3641 2581 3239 2228 
Q 2838 1875 2053 1875 
L 1259 1875 
L 1259 0 
L 628 0 
L 628 4666 
z
" transform="scale(0.015625)"/>
    </defs>
    <use xlink:href="#DejaVuSans-52"/>
    <use xlink:href="#DejaVuSans-65" x="64.982422"/>
    <use xlink:href="#DejaVuSans-63" x="126.505859"/>
    <use xlink:href="#DejaVuSans-6f" x="181.486328"/>
    <use xlink:href="#DejaVuSans-75" x="242.667969"/>
    <use xlink:href="#DejaVuSans-6e" x="306.046875"/>
    <use xlink:href="#DejaVuSans-74" x="369.425781"/>
    <use xlink:href="#DejaVuSans-33" x="408.634766"/>
    <use xlink:href="#DejaVuSans-20" x="472.257812"/>
    <use xlink:href="#DejaVuSans-4d" x="504.044922"/>
    <use xlink:href="#DejaVuSans-75" x="590.324219"/>
    <use xlink:href="#DejaVuSans-6c" x="653.703125"/>
    <use xlink:href="#DejaVuSans-74" x="681.486328"/>
    <use xlink:href="#DejaVuSans-69" x="720.695312"/>
    <use xlink:href="#DejaVuSans-63" x="748.478516"/>
    <use xlink:href="#DejaVuSans-6c" x="803.458984"/>
    <use xlink:href="#DejaVuSans-61" x="831.242188"/>
    <use xlink:href="#DejaVuSans-73" x="892.521484"/>
    <use xlink:href="#DejaVuSans-73" x="944.621094"/>
    <use xlink:href="#DejaVuSans-20" x="996.720703"/>
    <use xlink:href="#DejaVuSans-54" x="1028.507812"/>
    <use xlink:href="#DejaVuSans-69" x="1086.466797"/>
    <use xlink:href="#DejaVuSans-73" x="1114.25"/>
    <use xlink:href="#DejaVuSans-73" x="1166.349609"/>
    <use xlink:href="#DejaVuSans-75" x="1218.449219"/>
    <use xlink:href="#DejaVuSans-65" x="1281.828125"/>
    <use xlink:href="#DejaVuSans-20" x="1343.351562"/>
    <use xlink:href="#DejaVuSans-50" x="1375.138672"/>
    <use xlink:href="#DejaVuSans-72" x="1433.691406"/>
    <use xlink:href="#DejaVuSans-65" x="1472.554688"/>
    <use xlink:href="#DejaVuSans-64" x="1534.078125"/>
    <use xlink:href="#DejaVuSans-69" x="1597.554688"/>
    <use xlink:href="#DejaVuSans-63" x="1625.337891"/>
    <use xlink:href="#DejaVuSans-74" x="1680.318359"/>
    <use xlink:href="#DejaVuSans-69" x="1719.527344"/>
    <use xlink:href="#DejaVuSans-6f" x="1747.310547"/>
    <use xlink:href="#DejaVuSans-6e" x="1808.492188"/>
   </g>
  </g>
 </g>
 <defs>
  <clipPath id="pcc3d1e685c">
   <rect x="41.190688" y="26.105371" width="357.12" height="266.112"/>
  </clipPath>
  <clipPath id="p0e7c98f4ea">
   <path d="M 417.710688 155.036339 
L 417.710688 139.196339 
L 433.550687 139.196339 
L 433.550687 155.036339 
"/>
  </clipPath>
  <clipPath id="p2e50286b3e">
   <path d="M 417.710688 172.876339 
L 417.710688 157.036339 
L 433.550687 157.036339 
L 433.550687 172.876339 
"/>
  </clipPath>
  <clipPath id="p82e4cc14a3">
   <path d="M 417.710688 190.716339 
L 417.710688 174.876339 
L 433.550687 174.876339 
L 433.550687 190.716339 
"/>
  </clipPath>
 </defs>
</svg>
