<?xml version="1.0" encoding="utf-8" standalone="no"?>
<!DOCTYPE svg PUBLIC "-//W3C//DTD SVG 1.1//EN"
  "http://www.w3.org/Graphics/SVG/1.1/DTD/svg11.dtd">
<svg xmlns:xlink="http://www.w3.org/1999/xlink" width="524.546688pt" height="342.230058pt" viewBox="0 0 524.546688 342.230058" xmlns="http://www.w3.org/2000/svg" version="1.1">
 <metadata>
  <rdf:RDF xmlns:dc="http://purl.org/dc/elements/1.1/" xmlns:cc="http://creativecommons.org/ns#" xmlns:rdf="http://www.w3.org/1999/02/22-rdf-syntax-ns#">
   <cc:Work>
    <dc:type rdf:resource="http://purl.org/dc/dcmitype/StillImage"/>
    <dc:date>2022-05-09T09:40:41.112778</dc:date>
    <dc:format>image/svg+xml</dc:format>
    <dc:creator>
     <cc:Agent>
      <dc:title>Matplotlib v3.5.1, https://matplotlib.org/</dc:title>
     </cc:Agent>
    </dc:creator>
   </cc:Work>
  </rdf:RDF>
 </metadata>
 <defs>
  <style type="text/css">*{stroke-linejoin: round; stroke-linecap: butt}</style>
 </defs>
 <g id="figure_1">
  <g id="patch_1">
   <path d="M 0 342.230058 
L 524.546688 342.230058 
L 524.546688 0 
L 0 0 
z
" style="fill: #ffffff; stroke: #ffffff; stroke-linejoin: miter"/>
  </g>
  <g id="axes_1">
   <g id="patch_2">
    <path d="M 41.190688 306.517371 
L 217.230688 306.517371 
L 217.230688 40.405371 
L 41.190688 40.405371 
z
" style="fill: #ebebeb"/>
   </g>
   <g id="matplotlib.axis_1">
    <g id="xtick_1">
     <g id="line2d_1">
      <path d="M 77.63066 306.517371 
L 77.63066 40.405371 
" clip-path="url(#p411fe35ee8)" style="fill: none; stroke: #ffffff"/>
     </g>
     <g id="line2d_2">
      <path d="M 77.63066 306.517371 
" style="fill: none; stroke: #333333; stroke-width: 1.5"/>
      <defs>
       <path id="me43b09867a" d="M 0 0 
L 0 2.75 
" style="stroke: #000000"/>
      </defs>
      <g>
       <use xlink:href="#me43b09867a" x="77.63066" y="306.517371" style="fill: #333333; stroke: #000000"/>
      </g>
     </g>
     <g id="text_1">
      <!-- 2500 -->
      <g style="fill: #4d4d4d" transform="translate(66.43266 318.153996)scale(0.088 -0.088)">
       <defs>
        <path id="DejaVuSans-32" d="M 1228 531 
L 3431 531 
L 3431 0 
L 469 0 
L 469 531 
Q 828 903 1448 1529 
Q 2069 2156 2228 2338 
Q 2531 2678 2651 2914 
Q 2772 3150 2772 3378 
Q 2772 3750 2511 3984 
Q 2250 4219 1831 4219 
Q 1534 4219 1204 4116 
Q 875 4013 500 3803 
L 500 4441 
Q 881 4594 1212 4672 
Q 1544 4750 1819 4750 
Q 2544 4750 2975 4387 
Q 3406 4025 3406 3419 
Q 3406 3131 3298 2873 
Q 3191 2616 2906 2266 
Q 2828 2175 2409 1742 
Q 1991 1309 1228 531 
z
" transform="scale(0.015625)"/>
        <path id="DejaVuSans-35" d="M 691 4666 
L 3169 4666 
L 3169 4134 
L 1269 4134 
L 1269 2991 
Q 1406 3038 1543 3061 
Q 1681 3084 1819 3084 
Q 2600 3084 3056 2656 
Q 3513 2228 3513 1497 
Q 3513 744 3044 326 
Q 2575 -91 1722 -91 
Q 1428 -91 1123 -41 
Q 819 9 494 109 
L 494 744 
Q 775 591 1075 516 
Q 1375 441 1709 441 
Q 2250 441 2565 725 
Q 2881 1009 2881 1497 
Q 2881 1984 2565 2268 
Q 2250 2553 1709 2553 
Q 1456 2553 1204 2497 
Q 953 2441 691 2322 
L 691 4666 
z
" transform="scale(0.015625)"/>
        <path id="DejaVuSans-30" d="M 2034 4250 
Q 1547 4250 1301 3770 
Q 1056 3291 1056 2328 
Q 1056 1369 1301 889 
Q 1547 409 2034 409 
Q 2525 409 2770 889 
Q 3016 1369 3016 2328 
Q 3016 3291 2770 3770 
Q 2525 4250 2034 4250 
z
M 2034 4750 
Q 2819 4750 3233 4129 
Q 3647 3509 3647 2328 
Q 3647 1150 3233 529 
Q 2819 -91 2034 -91 
Q 1250 -91 836 529 
Q 422 1150 422 2328 
Q 422 3509 836 4129 
Q 1250 4750 2034 4750 
z
" transform="scale(0.015625)"/>
       </defs>
       <use xlink:href="#DejaVuSans-32"/>
       <use xlink:href="#DejaVuSans-35" x="63.623047"/>
       <use xlink:href="#DejaVuSans-30" x="127.246094"/>
       <use xlink:href="#DejaVuSans-30" x="190.869141"/>
      </g>
     </g>
    </g>
    <g id="xtick_2">
     <g id="line2d_3">
      <path d="M 121.114075 306.517371 
L 121.114075 40.405371 
" clip-path="url(#p411fe35ee8)" style="fill: none; stroke: #ffffff"/>
     </g>
     <g id="line2d_4">
      <path d="M 121.114075 306.517371 
" style="fill: none; stroke: #333333; stroke-width: 1.5"/>
      <g>
       <use xlink:href="#me43b09867a" x="121.114075" y="306.517371" style="fill: #333333; stroke: #000000"/>
      </g>
     </g>
     <g id="text_2">
      <!-- 5000 -->
      <g style="fill: #4d4d4d" transform="translate(109.916075 318.153996)scale(0.088 -0.088)">
       <use xlink:href="#DejaVuSans-35"/>
       <use xlink:href="#DejaVuSans-30" x="63.623047"/>
       <use xlink:href="#DejaVuSans-30" x="127.246094"/>
       <use xlink:href="#DejaVuSans-30" x="190.869141"/>
      </g>
     </g>
    </g>
    <g id="xtick_3">
     <g id="line2d_5">
      <path d="M 164.597491 306.517371 
L 164.597491 40.405371 
" clip-path="url(#p411fe35ee8)" style="fill: none; stroke: #ffffff"/>
     </g>
     <g id="line2d_6">
      <path d="M 164.597491 306.517371 
" style="fill: none; stroke: #333333; stroke-width: 1.5"/>
      <g>
       <use xlink:href="#me43b09867a" x="164.597491" y="306.517371" style="fill: #333333; stroke: #000000"/>
      </g>
     </g>
     <g id="text_3">
      <!-- 7500 -->
      <g style="fill: #4d4d4d" transform="translate(153.399491 318.153996)scale(0.088 -0.088)">
       <defs>
        <path id="DejaVuSans-37" d="M 525 4666 
L 3525 4666 
L 3525 4397 
L 1831 0 
L 1172 0 
L 2766 4134 
L 525 4134 
L 525 4666 
z
" transform="scale(0.015625)"/>
       </defs>
       <use xlink:href="#DejaVuSans-37"/>
       <use xlink:href="#DejaVuSans-35" x="63.623047"/>
       <use xlink:href="#DejaVuSans-30" x="127.246094"/>
       <use xlink:href="#DejaVuSans-30" x="190.869141"/>
      </g>
     </g>
    </g>
    <g id="xtick_4">
     <g id="line2d_7">
      <path d="M 208.080907 306.517371 
L 208.080907 40.405371 
" clip-path="url(#p411fe35ee8)" style="fill: none; stroke: #ffffff"/>
     </g>
     <g id="line2d_8">
      <path d="M 208.080907 306.517371 
" style="fill: none; stroke: #333333; stroke-width: 1.5"/>
      <g>
       <use xlink:href="#me43b09867a" x="208.080907" y="306.517371" style="fill: #333333; stroke: #000000"/>
      </g>
     </g>
     <g id="text_4">
      <!-- 10000 -->
      <g style="fill: #4d4d4d" transform="translate(194.083407 318.153996)scale(0.088 -0.088)">
       <defs>
        <path id="DejaVuSans-31" d="M 794 531 
L 1825 531 
L 1825 4091 
L 703 3866 
L 703 4441 
L 1819 4666 
L 2450 4666 
L 2450 531 
L 3481 531 
L 3481 0 
L 794 0 
L 794 531 
z
" transform="scale(0.015625)"/>
       </defs>
       <use xlink:href="#DejaVuSans-31"/>
       <use xlink:href="#DejaVuSans-30" x="63.623047"/>
       <use xlink:href="#DejaVuSans-30" x="127.246094"/>
       <use xlink:href="#DejaVuSans-30" x="190.869141"/>
       <use xlink:href="#DejaVuSans-30" x="254.492188"/>
      </g>
     </g>
    </g>
    <g id="xtick_5">
     <g id="line2d_9">
      <path d="M 55.888952 306.517371 
L 55.888952 40.405371 
" clip-path="url(#p411fe35ee8)" style="fill: none; stroke: #ffffff; stroke-width: 0.5"/>
     </g>
    </g>
    <g id="xtick_6">
     <g id="line2d_10">
      <path d="M 99.372368 306.517371 
L 99.372368 40.405371 
" clip-path="url(#p411fe35ee8)" style="fill: none; stroke: #ffffff; stroke-width: 0.5"/>
     </g>
    </g>
    <g id="xtick_7">
     <g id="line2d_11">
      <path d="M 142.855783 306.517371 
L 142.855783 40.405371 
" clip-path="url(#p411fe35ee8)" style="fill: none; stroke: #ffffff; stroke-width: 0.5"/>
     </g>
    </g>
    <g id="xtick_8">
     <g id="line2d_12">
      <path d="M 186.339199 306.517371 
L 186.339199 40.405371 
" clip-path="url(#p411fe35ee8)" style="fill: none; stroke: #ffffff; stroke-width: 0.5"/>
     </g>
    </g>
   </g>
   <g id="matplotlib.axis_2">
    <g id="ytick_1">
     <g id="line2d_13">
      <path d="M 41.190688 293.913935 
L 217.230688 293.913935 
" clip-path="url(#p411fe35ee8)" style="fill: none; stroke: #ffffff"/>
     </g>
     <g id="line2d_14">
      <path d="M 41.190688 293.913935 
" style="fill: none; stroke: #333333; stroke-width: 1.5"/>
      <defs>
       <path id="m968190417e" d="M 0 0 
L -2.75 0 
" style="stroke: #000000"/>
      </defs>
      <g>
       <use xlink:href="#m968190417e" x="41.190688" y="293.913935" style="fill: #333333; stroke: #000000"/>
      </g>
     </g>
     <g id="text_5">
      <!-- 0 -->
      <g style="fill: #4d4d4d" transform="translate(30.641688 296.342185)scale(0.088 -0.088)">
       <use xlink:href="#DejaVuSans-30"/>
      </g>
     </g>
    </g>
    <g id="ytick_2">
     <g id="line2d_15">
      <path d="M 41.190688 203.83625 
L 217.230688 203.83625 
" clip-path="url(#p411fe35ee8)" style="fill: none; stroke: #ffffff"/>
     </g>
     <g id="line2d_16">
      <path d="M 41.190688 203.83625 
" style="fill: none; stroke: #333333; stroke-width: 1.5"/>
      <g>
       <use xlink:href="#m968190417e" x="41.190688" y="203.83625" style="fill: #333333; stroke: #000000"/>
      </g>
     </g>
     <g id="text_6">
      <!-- 0.2 -->
      <g style="fill: #4d4d4d" transform="translate(22.245938 206.2645)scale(0.088 -0.088)">
       <defs>
        <path id="DejaVuSans-2e" d="M 684 794 
L 1344 794 
L 1344 0 
L 684 0 
L 684 794 
z
" transform="scale(0.015625)"/>
       </defs>
       <use xlink:href="#DejaVuSans-30"/>
       <use xlink:href="#DejaVuSans-2e" x="63.623047"/>
       <use xlink:href="#DejaVuSans-32" x="95.410156"/>
      </g>
     </g>
    </g>
    <g id="ytick_3">
     <g id="line2d_17">
      <path d="M 41.190688 113.758564 
L 217.230688 113.758564 
" clip-path="url(#p411fe35ee8)" style="fill: none; stroke: #ffffff"/>
     </g>
     <g id="line2d_18">
      <path d="M 41.190688 113.758564 
" style="fill: none; stroke: #333333; stroke-width: 1.5"/>
      <g>
       <use xlink:href="#m968190417e" x="41.190688" y="113.758564" style="fill: #333333; stroke: #000000"/>
      </g>
     </g>
     <g id="text_7">
      <!-- 0.4 -->
      <g style="fill: #4d4d4d" transform="translate(22.245938 116.186814)scale(0.088 -0.088)">
       <defs>
        <path id="DejaVuSans-34" d="M 2419 4116 
L 825 1625 
L 2419 1625 
L 2419 4116 
z
M 2253 4666 
L 3047 4666 
L 3047 1625 
L 3713 1625 
L 3713 1100 
L 3047 1100 
L 3047 0 
L 2419 0 
L 2419 1100 
L 313 1100 
L 313 1709 
L 2253 4666 
z
" transform="scale(0.015625)"/>
       </defs>
       <use xlink:href="#DejaVuSans-30"/>
       <use xlink:href="#DejaVuSans-2e" x="63.623047"/>
       <use xlink:href="#DejaVuSans-34" x="95.410156"/>
      </g>
     </g>
    </g>
    <g id="ytick_4">
     <g id="line2d_19">
      <path d="M 41.190688 248.875093 
L 217.230688 248.875093 
" clip-path="url(#p411fe35ee8)" style="fill: none; stroke: #ffffff; stroke-width: 0.5"/>
     </g>
    </g>
    <g id="ytick_5">
     <g id="line2d_20">
      <path d="M 41.190688 158.797407 
L 217.230688 158.797407 
" clip-path="url(#p411fe35ee8)" style="fill: none; stroke: #ffffff; stroke-width: 0.5"/>
     </g>
    </g>
    <g id="ytick_6">
     <g id="line2d_21">
      <path d="M 41.190688 68.719722 
L 217.230688 68.719722 
" clip-path="url(#p411fe35ee8)" style="fill: none; stroke: #ffffff; stroke-width: 0.5"/>
     </g>
    </g>
    <g id="text_8">
     <!-- Balanced Accuracy (Val Set) -->
     <g transform="translate(15.558281 249.074543)rotate(-90)scale(0.11 -0.11)">
      <defs>
       <path id="DejaVuSans-42" d="M 1259 2228 
L 1259 519 
L 2272 519 
Q 2781 519 3026 730 
Q 3272 941 3272 1375 
Q 3272 1813 3026 2020 
Q 2781 2228 2272 2228 
L 1259 2228 
z
M 1259 4147 
L 1259 2741 
L 2194 2741 
Q 2656 2741 2882 2914 
Q 3109 3088 3109 3444 
Q 3109 3797 2882 3972 
Q 2656 4147 2194 4147 
L 1259 4147 
z
M 628 4666 
L 2241 4666 
Q 2963 4666 3353 4366 
Q 3744 4066 3744 3513 
Q 3744 3084 3544 2831 
Q 3344 2578 2956 2516 
Q 3422 2416 3680 2098 
Q 3938 1781 3938 1306 
Q 3938 681 3513 340 
Q 3088 0 2303 0 
L 628 0 
L 628 4666 
z
" transform="scale(0.015625)"/>
       <path id="DejaVuSans-61" d="M 2194 1759 
Q 1497 1759 1228 1600 
Q 959 1441 959 1056 
Q 959 750 1161 570 
Q 1363 391 1709 391 
Q 2188 391 2477 730 
Q 2766 1069 2766 1631 
L 2766 1759 
L 2194 1759 
z
M 3341 1997 
L 3341 0 
L 2766 0 
L 2766 531 
Q 2569 213 2275 61 
Q 1981 -91 1556 -91 
Q 1019 -91 701 211 
Q 384 513 384 1019 
Q 384 1609 779 1909 
Q 1175 2209 1959 2209 
L 2766 2209 
L 2766 2266 
Q 2766 2663 2505 2880 
Q 2244 3097 1772 3097 
Q 1472 3097 1187 3025 
Q 903 2953 641 2809 
L 641 3341 
Q 956 3463 1253 3523 
Q 1550 3584 1831 3584 
Q 2591 3584 2966 3190 
Q 3341 2797 3341 1997 
z
" transform="scale(0.015625)"/>
       <path id="DejaVuSans-6c" d="M 603 4863 
L 1178 4863 
L 1178 0 
L 603 0 
L 603 4863 
z
" transform="scale(0.015625)"/>
       <path id="DejaVuSans-6e" d="M 3513 2113 
L 3513 0 
L 2938 0 
L 2938 2094 
Q 2938 2591 2744 2837 
Q 2550 3084 2163 3084 
Q 1697 3084 1428 2787 
Q 1159 2491 1159 1978 
L 1159 0 
L 581 0 
L 581 3500 
L 1159 3500 
L 1159 2956 
Q 1366 3272 1645 3428 
Q 1925 3584 2291 3584 
Q 2894 3584 3203 3211 
Q 3513 2838 3513 2113 
z
" transform="scale(0.015625)"/>
       <path id="DejaVuSans-63" d="M 3122 3366 
L 3122 2828 
Q 2878 2963 2633 3030 
Q 2388 3097 2138 3097 
Q 1578 3097 1268 2742 
Q 959 2388 959 1747 
Q 959 1106 1268 751 
Q 1578 397 2138 397 
Q 2388 397 2633 464 
Q 2878 531 3122 666 
L 3122 134 
Q 2881 22 2623 -34 
Q 2366 -91 2075 -91 
Q 1284 -91 818 406 
Q 353 903 353 1747 
Q 353 2603 823 3093 
Q 1294 3584 2113 3584 
Q 2378 3584 2631 3529 
Q 2884 3475 3122 3366 
z
" transform="scale(0.015625)"/>
       <path id="DejaVuSans-65" d="M 3597 1894 
L 3597 1613 
L 953 1613 
Q 991 1019 1311 708 
Q 1631 397 2203 397 
Q 2534 397 2845 478 
Q 3156 559 3463 722 
L 3463 178 
Q 3153 47 2828 -22 
Q 2503 -91 2169 -91 
Q 1331 -91 842 396 
Q 353 884 353 1716 
Q 353 2575 817 3079 
Q 1281 3584 2069 3584 
Q 2775 3584 3186 3129 
Q 3597 2675 3597 1894 
z
M 3022 2063 
Q 3016 2534 2758 2815 
Q 2500 3097 2075 3097 
Q 1594 3097 1305 2825 
Q 1016 2553 972 2059 
L 3022 2063 
z
" transform="scale(0.015625)"/>
       <path id="DejaVuSans-64" d="M 2906 2969 
L 2906 4863 
L 3481 4863 
L 3481 0 
L 2906 0 
L 2906 525 
Q 2725 213 2448 61 
Q 2172 -91 1784 -91 
Q 1150 -91 751 415 
Q 353 922 353 1747 
Q 353 2572 751 3078 
Q 1150 3584 1784 3584 
Q 2172 3584 2448 3432 
Q 2725 3281 2906 2969 
z
M 947 1747 
Q 947 1113 1208 752 
Q 1469 391 1925 391 
Q 2381 391 2643 752 
Q 2906 1113 2906 1747 
Q 2906 2381 2643 2742 
Q 2381 3103 1925 3103 
Q 1469 3103 1208 2742 
Q 947 2381 947 1747 
z
" transform="scale(0.015625)"/>
       <path id="DejaVuSans-20" transform="scale(0.015625)"/>
       <path id="DejaVuSans-41" d="M 2188 4044 
L 1331 1722 
L 3047 1722 
L 2188 4044 
z
M 1831 4666 
L 2547 4666 
L 4325 0 
L 3669 0 
L 3244 1197 
L 1141 1197 
L 716 0 
L 50 0 
L 1831 4666 
z
" transform="scale(0.015625)"/>
       <path id="DejaVuSans-75" d="M 544 1381 
L 544 3500 
L 1119 3500 
L 1119 1403 
Q 1119 906 1312 657 
Q 1506 409 1894 409 
Q 2359 409 2629 706 
Q 2900 1003 2900 1516 
L 2900 3500 
L 3475 3500 
L 3475 0 
L 2900 0 
L 2900 538 
Q 2691 219 2414 64 
Q 2138 -91 1772 -91 
Q 1169 -91 856 284 
Q 544 659 544 1381 
z
M 1991 3584 
L 1991 3584 
z
" transform="scale(0.015625)"/>
       <path id="DejaVuSans-72" d="M 2631 2963 
Q 2534 3019 2420 3045 
Q 2306 3072 2169 3072 
Q 1681 3072 1420 2755 
Q 1159 2438 1159 1844 
L 1159 0 
L 581 0 
L 581 3500 
L 1159 3500 
L 1159 2956 
Q 1341 3275 1631 3429 
Q 1922 3584 2338 3584 
Q 2397 3584 2469 3576 
Q 2541 3569 2628 3553 
L 2631 2963 
z
" transform="scale(0.015625)"/>
       <path id="DejaVuSans-79" d="M 2059 -325 
Q 1816 -950 1584 -1140 
Q 1353 -1331 966 -1331 
L 506 -1331 
L 506 -850 
L 844 -850 
Q 1081 -850 1212 -737 
Q 1344 -625 1503 -206 
L 1606 56 
L 191 3500 
L 800 3500 
L 1894 763 
L 2988 3500 
L 3597 3500 
L 2059 -325 
z
" transform="scale(0.015625)"/>
       <path id="DejaVuSans-28" d="M 1984 4856 
Q 1566 4138 1362 3434 
Q 1159 2731 1159 2009 
Q 1159 1288 1364 580 
Q 1569 -128 1984 -844 
L 1484 -844 
Q 1016 -109 783 600 
Q 550 1309 550 2009 
Q 550 2706 781 3412 
Q 1013 4119 1484 4856 
L 1984 4856 
z
" transform="scale(0.015625)"/>
       <path id="DejaVuSans-56" d="M 1831 0 
L 50 4666 
L 709 4666 
L 2188 738 
L 3669 4666 
L 4325 4666 
L 2547 0 
L 1831 0 
z
" transform="scale(0.015625)"/>
       <path id="DejaVuSans-53" d="M 3425 4513 
L 3425 3897 
Q 3066 4069 2747 4153 
Q 2428 4238 2131 4238 
Q 1616 4238 1336 4038 
Q 1056 3838 1056 3469 
Q 1056 3159 1242 3001 
Q 1428 2844 1947 2747 
L 2328 2669 
Q 3034 2534 3370 2195 
Q 3706 1856 3706 1288 
Q 3706 609 3251 259 
Q 2797 -91 1919 -91 
Q 1588 -91 1214 -16 
Q 841 59 441 206 
L 441 856 
Q 825 641 1194 531 
Q 1563 422 1919 422 
Q 2459 422 2753 634 
Q 3047 847 3047 1241 
Q 3047 1584 2836 1778 
Q 2625 1972 2144 2069 
L 1759 2144 
Q 1053 2284 737 2584 
Q 422 2884 422 3419 
Q 422 4038 858 4394 
Q 1294 4750 2059 4750 
Q 2388 4750 2728 4690 
Q 3069 4631 3425 4513 
z
" transform="scale(0.015625)"/>
       <path id="DejaVuSans-74" d="M 1172 4494 
L 1172 3500 
L 2356 3500 
L 2356 3053 
L 1172 3053 
L 1172 1153 
Q 1172 725 1289 603 
Q 1406 481 1766 481 
L 2356 481 
L 2356 0 
L 1766 0 
Q 1100 0 847 248 
Q 594 497 594 1153 
L 594 3053 
L 172 3053 
L 172 3500 
L 594 3500 
L 594 4494 
L 1172 4494 
z
" transform="scale(0.015625)"/>
       <path id="DejaVuSans-29" d="M 513 4856 
L 1013 4856 
Q 1481 4119 1714 3412 
Q 1947 2706 1947 2009 
Q 1947 1309 1714 600 
Q 1481 -109 1013 -844 
L 513 -844 
Q 928 -128 1133 580 
Q 1338 1288 1338 2009 
Q 1338 2731 1133 3434 
Q 928 4138 513 4856 
z
" transform="scale(0.015625)"/>
      </defs>
      <use xlink:href="#DejaVuSans-42"/>
      <use xlink:href="#DejaVuSans-61" x="68.603516"/>
      <use xlink:href="#DejaVuSans-6c" x="129.882812"/>
      <use xlink:href="#DejaVuSans-61" x="157.666016"/>
      <use xlink:href="#DejaVuSans-6e" x="218.945312"/>
      <use xlink:href="#DejaVuSans-63" x="282.324219"/>
      <use xlink:href="#DejaVuSans-65" x="337.304688"/>
      <use xlink:href="#DejaVuSans-64" x="398.828125"/>
      <use xlink:href="#DejaVuSans-20" x="462.304688"/>
      <use xlink:href="#DejaVuSans-41" x="494.091797"/>
      <use xlink:href="#DejaVuSans-63" x="560.75"/>
      <use xlink:href="#DejaVuSans-63" x="615.730469"/>
      <use xlink:href="#DejaVuSans-75" x="670.710938"/>
      <use xlink:href="#DejaVuSans-72" x="734.089844"/>
      <use xlink:href="#DejaVuSans-61" x="775.203125"/>
      <use xlink:href="#DejaVuSans-63" x="836.482422"/>
      <use xlink:href="#DejaVuSans-79" x="891.462891"/>
      <use xlink:href="#DejaVuSans-20" x="950.642578"/>
      <use xlink:href="#DejaVuSans-28" x="982.429688"/>
      <use xlink:href="#DejaVuSans-56" x="1021.443359"/>
      <use xlink:href="#DejaVuSans-61" x="1082.101562"/>
      <use xlink:href="#DejaVuSans-6c" x="1143.380859"/>
      <use xlink:href="#DejaVuSans-20" x="1171.164062"/>
      <use xlink:href="#DejaVuSans-53" x="1202.951172"/>
      <use xlink:href="#DejaVuSans-65" x="1266.427734"/>
      <use xlink:href="#DejaVuSans-74" x="1327.951172"/>
      <use xlink:href="#DejaVuSans-29" x="1367.160156"/>
     </g>
    </g>
   </g>
   <g id="PolyCollection_1">
    <path d="M 49.192506 177.768695 
L 49.192506 221.981415 
L 50.340468 216.942858 
L 50.410041 216.641624 
L 50.444828 216.491186 
L 50.462221 216.416011 
L 50.601368 215.815681 
L 50.636155 215.665896 
L 50.688335 215.441441 
L 50.740515 215.217253 
L 50.775302 215.067944 
L 50.897056 214.5463 
L 50.914449 214.471898 
L 51.418857 212.327253 
L 51.59279 211.59356 
L 51.64497 211.374038 
L 64.255161 166.528301 
L 66.533692 160.172207 
L 66.690232 159.754018 
L 66.759806 159.568902 
L 66.794592 159.476518 
L 67.072886 158.741712 
L 67.125066 158.604776 
L 67.229427 158.331694 
L 67.35118 158.014427 
L 67.40336 157.878891 
L 67.664261 157.205107 
L 67.699047 157.115757 
L 68.690469 154.616654 
L 69.038337 153.761018 
L 69.16009 153.464095 
L 79.317816 132.658559 
L 82.744309 127.071123 
L 82.970423 126.722756 
L 83.074783 126.562774 
L 83.126963 126.482972 
L 83.544404 125.849052 
L 83.613978 125.744169 
L 83.770518 125.508982 
L 83.944452 125.249987 
L 84.048812 125.096224 
L 84.414073 124.567556 
L 84.466253 124.493224 
L 85.979475 122.461721 
L 86.483883 121.83549 
L 86.657817 121.625174 
L 94.380471 114.640569 
L 98.937533 111.748872 
L 99.233221 111.562617 
L 99.372368 111.474431 
L 99.459334 111.419119 
L 99.998529 111.072305 
L 100.102889 111.004308 
L 100.311609 110.867352 
L 100.555116 110.705827 
L 100.67687 110.624308 
L 101.181278 110.28066 
L 101.250851 110.232455 
L 103.251088 108.91907 
L 103.92943 108.510912 
L 104.172937 108.369467 
L 109.443127 106.095582 
L 115.148151 105.390553 
L 115.513412 105.384442 
L 115.687345 105.382015 
L 115.791705 105.380662 
L 116.470047 105.372483 
L 116.5918 105.370901 
L 116.870094 105.366845 
L 117.165781 105.361547 
L 117.322322 105.358193 
L 117.948483 105.339544 
L 118.03545 105.336146 
L 120.540094 105.096784 
L 121.392369 104.926626 
L 121.688057 104.853871 
L 124.505782 104.166671 
L 131.341375 103.177035 
L 131.793602 103.163816 
L 132.002323 103.160347 
L 132.124076 103.159097 
L 132.941565 103.165584 
L 133.080712 103.169276 
L 133.411185 103.181062 
L 133.759053 103.198034 
L 133.95038 103.209352 
L 134.698295 103.266863 
L 134.802655 103.276537 
L 137.811707 103.70801 
L 138.837916 103.907408 
L 139.185783 103.978639 
L 139.568437 104.058439 
L 147.534599 105.106459 
L 148.0564 105.06611 
L 148.299907 105.03998 
L 148.456447 105.021242 
L 149.395689 104.892802 
L 149.569623 104.866226 
L 149.952277 104.804985 
L 150.369718 104.734129 
L 150.578438 104.697241 
L 151.4655 104.530993 
L 151.587253 104.507117 
L 154.631092 103.861052 
L 155.08332 103.76138 
L 156.283462 103.497985 
L 156.700903 103.407349 
L 163.745216 101.980784 
L 164.336591 101.860691 
L 164.614885 101.803365 
L 164.788818 101.767238 
L 165.867207 101.537365 
L 166.058534 101.495414 
L 166.493368 101.398655 
L 166.962989 101.292615 
L 167.22389 101.233332 
L 168.215312 101.006059 
L 168.354458 100.973953 
L 169.693748 100.663371 
L 172.372326 100.0443 
L 173.729009 99.73943 
L 174.19863 99.636356 
L 179.93844 98.568631 
L 180.616782 98.477193 
L 180.929862 98.438335 
L 181.121189 98.415679 
L 182.338725 98.292258 
L 182.547445 98.274928 
L 183.03446 98.239155 
L 183.573654 98.207501 
L 183.851948 98.194578 
L 184.756403 98.169547 
L 184.982517 98.167524 
L 185.139057 98.167176 
L 189.643939 98.574086 
L 191.174555 98.911085 
L 191.713749 99.055045 
L 196.149058 100.740442 
L 196.896973 101.111302 
L 197.24484 101.292077 
L 197.45356 101.403043 
L 198.810243 102.169419 
L 199.05375 102.315131 
L 199.592944 102.646463 
L 200.184319 103.023455 
L 200.497399 103.228725 
L 201.749722 104.088427 
L 201.923655 104.21264 
L 206.932945 108.264685 
L 208.637495 109.839954 
L 209.228869 110.408292 
L 209.228869 52.501371 
L 209.228869 52.501371 
L 208.637495 53.256765 
L 206.932945 55.369524 
L 201.923655 60.993017 
L 201.749722 61.171736 
L 200.497399 62.424053 
L 200.184319 62.727548 
L 199.592944 63.290182 
L 199.05375 63.790919 
L 198.810243 64.013189 
L 197.45356 65.206806 
L 197.24484 65.383623 
L 196.896973 65.674231 
L 196.149058 66.281604 
L 191.713749 69.383274 
L 191.174555 69.701398 
L 189.643939 70.535677 
L 185.139057 72.435437 
L 184.982517 72.487865 
L 184.756403 72.562174 
L 183.851948 72.843392 
L 183.573654 72.924954 
L 183.03446 73.076638 
L 182.547445 73.206711 
L 182.338725 73.260513 
L 181.121189 73.552403 
L 180.929862 73.595028 
L 180.616782 73.662979 
L 179.93844 73.802826 
L 174.19863 74.662222 
L 173.729009 74.712626 
L 172.372326 74.845864 
L 169.693748 75.064346 
L 168.354458 75.156252 
L 168.215312 75.165262 
L 167.22389 75.226874 
L 166.962989 75.242385 
L 166.493368 75.269633 
L 166.058534 75.296441 
L 165.867207 75.309452 
L 164.788818 75.395572 
L 164.614885 75.411322 
L 164.336591 75.43748 
L 163.745216 75.496621 
L 156.700903 76.292811 
L 156.283462 76.332875 
L 155.08332 76.44052 
L 154.631092 76.478466 
L 151.587253 76.715262 
L 151.4655 76.724788 
L 150.578438 76.796585 
L 150.369718 76.81428 
L 149.952277 76.850863 
L 149.569623 76.886009 
L 149.395689 76.902559 
L 148.456447 76.999203 
L 148.299907 77.016647 
L 148.0564 77.044001 
L 147.534599 77.101837 
L 139.568437 77.577129 
L 139.185783 77.565578 
L 138.837916 77.551339 
L 137.811707 77.488131 
L 134.802655 77.12335 
L 134.698295 77.106323 
L 133.95038 76.977218 
L 133.759053 76.942361 
L 133.411185 76.877301 
L 133.080712 76.813689 
L 132.941565 76.786437 
L 132.124076 76.621937 
L 132.002323 76.59695 
L 131.793602 76.553926 
L 131.341375 76.460217 
L 124.505782 75.571228 
L 121.688057 75.974958 
L 121.392369 76.055543 
L 120.540094 76.296418 
L 118.03545 77.05429 
L 117.948483 77.081266 
L 117.322322 77.275477 
L 117.165781 77.323928 
L 116.870094 77.415205 
L 116.5918 77.500723 
L 116.470047 77.53799 
L 115.791705 77.743503 
L 115.687345 77.774746 
L 115.513412 77.826561 
L 115.148151 77.93425 
L 109.443127 79.376572 
L 104.172937 80.884469 
L 103.92943 80.9866 
L 103.251088 81.296007 
L 101.250851 82.461093 
L 101.181278 82.509059 
L 100.67687 82.855637 
L 100.555116 82.939036 
L 100.311609 83.105605 
L 100.102889 83.248189 
L 99.998529 83.319432 
L 99.459334 83.68728 
L 99.372368 83.74661 
L 99.233221 83.841561 
L 98.937533 84.043484 
L 94.380471 87.292647 
L 86.657817 94.937734 
L 86.483883 95.168912 
L 85.979475 95.859456 
L 84.466253 98.123347 
L 84.414073 98.206867 
L 84.048812 98.802204 
L 83.944452 98.975783 
L 83.770518 99.268572 
L 83.613978 99.534598 
L 83.544404 99.653178 
L 83.126963 100.369138 
L 83.074783 100.459174 
L 82.970423 100.639605 
L 82.744309 101.032189 
L 79.317816 107.257633 
L 69.16009 128.613395 
L 69.038337 128.892886 
L 68.690469 129.694057 
L 67.699047 131.99811 
L 67.664261 132.079494 
L 67.40336 132.691013 
L 67.35118 132.813555 
L 67.229427 133.099793 
L 67.125066 133.345478 
L 67.072886 133.468437 
L 66.794592 134.125515 
L 66.759806 134.207802 
L 66.690232 134.372457 
L 66.533692 134.743276 
L 64.255161 140.189047 
L 51.64497 171.443793 
L 51.59279 171.577279 
L 51.418857 172.022554 
L 50.914449 173.316725 
L 50.897056 173.361429 
L 50.775302 173.674504 
L 50.740515 173.764001 
L 50.688335 173.898286 
L 50.636155 174.032619 
L 50.601368 174.122201 
L 50.462221 174.480741 
L 50.444828 174.525583 
L 50.410041 174.615283 
L 50.340468 174.794747 
L 49.192506 177.768695 
z
" clip-path="url(#p411fe35ee8)" style="fill: #999999; fill-opacity: 0.4"/>
   </g>
   <g id="line2d_22">
    <path d="M 49.192506 199.875055 
L 51.64497 191.408916 
L 64.255161 153.358674 
L 68.690469 142.155356 
L 69.16009 141.038745 
L 79.317816 119.958096 
L 84.414073 111.387211 
L 85.979475 109.160589 
L 86.657817 108.281454 
L 94.380471 100.966608 
L 103.251088 95.107538 
L 104.172937 94.626968 
L 109.443127 92.736077 
L 124.505782 89.868949 
L 132.124076 89.890517 
L 134.802655 90.199944 
L 139.568437 90.817784 
L 148.299907 91.028313 
L 151.587253 90.611189 
L 163.745216 88.738702 
L 180.616782 86.070086 
L 197.45356 83.304924 
L 209.228869 81.454831 
L 209.228869 81.454831 
" clip-path="url(#p411fe35ee8)" style="fill: none; stroke: #db5f57; stroke-width: 1.772454; stroke-linejoin: miter"/>
   </g>
   <g id="PolyCollection_2">
    <path d="M 49.192506 134.052169 
L 49.192506 166.046476 
L 50.340468 162.706085 
L 50.410041 162.506395 
L 50.444828 162.406669 
L 50.462221 162.356835 
L 50.601368 161.958883 
L 50.636155 161.859593 
L 50.688335 161.710808 
L 50.740515 161.562202 
L 50.775302 161.46323 
L 50.897056 161.117457 
L 50.914449 161.068141 
L 51.418857 159.646659 
L 51.59279 159.160402 
L 51.64497 159.014917 
L 64.255161 129.399457 
L 66.533692 125.236893 
L 66.690232 124.963537 
L 66.759806 124.842555 
L 66.794592 124.782184 
L 67.072886 124.302179 
L 67.125066 124.212763 
L 67.229427 124.034479 
L 67.35118 123.827403 
L 67.40336 123.738958 
L 67.664261 123.299441 
L 67.699047 123.241177 
L 68.690469 121.61345 
L 69.038337 121.056994 
L 69.16009 120.863992 
L 79.317816 107.444893 
L 82.744309 103.854184 
L 82.970423 103.629907 
L 83.074783 103.526886 
L 83.126963 103.475491 
L 83.544404 103.067078 
L 83.613978 102.999479 
L 83.770518 102.847864 
L 83.944452 102.680631 
L 84.048812 102.581109 
L 84.414073 102.237549 
L 84.466253 102.189069 
L 85.979475 100.846194 
L 86.483883 100.424783 
L 86.657817 100.28241 
L 94.380471 95.287656 
L 98.937533 93.166893 
L 99.233221 93.035959 
L 99.372368 92.974316 
L 99.459334 92.935769 
L 99.998529 92.696167 
L 100.102889 92.649618 
L 100.311609 92.55629 
L 100.555116 92.446957 
L 100.67687 92.392081 
L 101.181278 92.16296 
L 101.250851 92.131103 
L 103.251088 91.337779 
L 103.92943 91.123923 
L 104.172937 91.053899 
L 109.443127 90.39248 
L 115.148151 91.116942 
L 115.513412 91.1817 
L 115.687345 91.2121 
L 115.791705 91.230159 
L 116.470047 91.342997 
L 116.5918 91.362196 
L 116.870094 91.404576 
L 117.165781 91.447007 
L 117.322322 91.468255 
L 117.948483 91.543467 
L 118.03545 91.552535 
L 120.540094 91.615182 
L 121.392369 91.523714 
L 121.688057 91.475504 
L 124.505782 90.866956 
L 131.341375 89.026547 
L 131.793602 88.914743 
L 132.002323 88.864339 
L 132.124076 88.835305 
L 132.941565 88.647858 
L 133.080712 88.617322 
L 133.411185 88.546483 
L 133.759053 88.474549 
L 133.95038 88.436167 
L 134.698295 88.294404 
L 134.802655 88.275691 
L 137.811707 87.849264 
L 138.837916 87.750494 
L 139.185783 87.721598 
L 139.568437 87.69222 
L 147.534599 87.217802 
L 148.0564 87.164013 
L 148.299907 87.136716 
L 148.456447 87.118458 
L 149.395689 86.999443 
L 149.569623 86.975789 
L 149.952277 86.922195 
L 150.369718 86.861518 
L 150.578438 86.830407 
L 151.4655 86.693478 
L 151.587253 86.674193 
L 154.631092 86.179009 
L 155.08332 86.106601 
L 156.283462 85.920278 
L 156.700903 85.857923 
L 163.745216 85.026824 
L 164.336591 84.97028 
L 164.614885 84.943851 
L 164.788818 84.927368 
L 165.867207 84.825282 
L 166.058534 84.807119 
L 166.493368 84.765716 
L 166.962989 84.721003 
L 167.22389 84.696277 
L 168.215312 84.603431 
L 168.354458 84.59058 
L 169.693748 84.47006 
L 172.372326 84.255202 
L 173.729009 84.166059 
L 174.19863 84.13919 
L 179.93844 84.049383 
L 180.616782 84.076946 
L 180.929862 84.093076 
L 181.121189 84.104033 
L 182.338725 84.194389 
L 182.547445 84.213636 
L 183.03446 84.263063 
L 183.573654 84.325426 
L 183.851948 84.360868 
L 184.756403 84.492073 
L 184.982517 84.528843 
L 185.139057 84.55525 
L 189.643939 85.671535 
L 191.174555 86.218679 
L 191.713749 86.432597 
L 196.149058 88.612444 
L 196.896973 89.05284 
L 197.24484 89.264663 
L 197.45356 89.39387 
L 198.810243 90.271889 
L 199.05375 90.436403 
L 199.592944 90.808067 
L 200.184319 91.227283 
L 200.497399 91.454074 
L 201.749722 92.394307 
L 201.923655 92.529024 
L 206.932945 96.820223 
L 208.637495 98.4525 
L 209.228869 99.038139 
L 209.228869 57.134093 
L 209.228869 57.134093 
L 208.637495 57.506366 
L 206.932945 58.54291 
L 201.923655 61.253365 
L 201.749722 61.337864 
L 200.497399 61.925983 
L 200.184319 62.067356 
L 199.592944 62.328096 
L 199.05375 62.558554 
L 198.810243 62.660329 
L 197.45356 63.200649 
L 197.24484 63.279695 
L 196.896973 63.408985 
L 196.149058 63.676482 
L 191.713749 64.960773 
L 191.174555 65.081239 
L 189.643939 65.381683 
L 185.139057 65.934609 
L 184.982517 65.945889 
L 184.756403 65.961429 
L 183.851948 66.015612 
L 183.573654 66.029841 
L 183.03446 66.054337 
L 182.547445 66.073149 
L 182.338725 66.080295 
L 181.121189 66.111851 
L 180.929862 66.115344 
L 180.616782 66.120267 
L 179.93844 66.127736 
L 174.19863 66.066787 
L 173.729009 66.055541 
L 172.372326 66.020484 
L 169.693748 65.945457 
L 168.354458 65.907733 
L 168.215312 65.903871 
L 167.22389 65.876837 
L 166.962989 65.869888 
L 166.493368 65.857583 
L 166.058534 65.848367 
L 165.867207 65.845587 
L 164.788818 65.843647 
L 164.614885 65.845384 
L 164.336591 65.849259 
L 163.745216 65.861696 
L 156.700903 66.236627 
L 156.283462 66.262385 
L 155.08332 66.336001 
L 154.631092 66.363741 
L 151.587253 66.56276 
L 151.4655 66.57166 
L 150.578438 66.64024 
L 150.369718 66.657463 
L 149.952277 66.693338 
L 149.569623 66.728048 
L 149.395689 66.744448 
L 148.456447 66.840453 
L 148.299907 66.857775 
L 148.0564 66.885958 
L 147.534599 66.9524 
L 139.568437 68.529156 
L 139.185783 68.607923 
L 138.837916 68.67806 
L 137.811707 68.875383 
L 134.802655 69.350071 
L 134.698295 69.363463 
L 133.95038 69.453418 
L 133.759053 69.474766 
L 133.411185 69.511902 
L 133.080712 69.545237 
L 132.941565 69.558724 
L 132.124076 69.631826 
L 132.002323 69.641873 
L 131.793602 69.658632 
L 131.341375 69.693059 
L 124.505782 70.17401 
L 121.688057 70.577426 
L 121.392369 70.631303 
L 120.540094 70.773945 
L 118.03545 71.086515 
L 117.948483 71.094508 
L 117.322322 71.146342 
L 117.165781 71.157727 
L 116.870094 71.177515 
L 116.5918 71.194085 
L 116.470047 71.200709 
L 115.791705 71.230671 
L 115.687345 71.234241 
L 115.513412 71.239581 
L 115.148151 71.248329 
L 109.443127 71.057405 
L 104.172937 71.164521 
L 103.92943 71.206096 
L 103.251088 71.348491 
L 101.250851 72.034499 
L 101.181278 72.066183 
L 100.67687 72.297425 
L 100.555116 72.353661 
L 100.311609 72.466644 
L 100.102889 72.564045 
L 99.998529 72.612943 
L 99.459334 72.867767 
L 99.372368 72.909221 
L 99.233221 72.975759 
L 98.937533 73.118031 
L 94.380471 75.497472 
L 86.657817 80.970182 
L 86.483883 81.12765 
L 85.979475 81.595601 
L 84.466253 83.106642 
L 84.414073 83.161771 
L 84.048812 83.553576 
L 83.944452 83.667438 
L 83.770518 83.859126 
L 83.613978 84.033057 
L 83.544404 84.110569 
L 83.126963 84.57835 
L 83.074783 84.63715 
L 82.970423 84.754968 
L 82.744309 85.011242 
L 79.317816 89.063643 
L 69.16009 102.88091 
L 69.038337 103.061298 
L 68.690469 103.578341 
L 67.699047 105.06492 
L 67.664261 105.11742 
L 67.40336 105.51188 
L 67.35118 105.590921 
L 67.229427 105.775543 
L 67.125066 105.934001 
L 67.072886 106.013304 
L 66.794592 106.43706 
L 66.759806 106.490125 
L 66.690232 106.596301 
L 66.533692 106.835377 
L 64.255161 110.339191 
L 51.64497 130.1196 
L 51.59279 130.202825 
L 51.418857 130.480371 
L 50.914449 131.286411 
L 50.897056 131.314237 
L 50.775302 131.509079 
L 50.740515 131.564768 
L 50.688335 131.648317 
L 50.636155 131.731886 
L 50.601368 131.78761 
L 50.462221 132.010593 
L 50.444828 132.038476 
L 50.410041 132.094248 
L 50.340468 132.20582 
L 49.192506 134.052169 
z
" clip-path="url(#p411fe35ee8)" style="fill: #999999; fill-opacity: 0.4"/>
   </g>
   <g id="line2d_23">
    <path d="M 49.192506 150.049322 
L 51.64497 144.567258 
L 64.255161 119.869324 
L 68.690469 112.595895 
L 69.16009 111.872451 
L 79.317816 98.254268 
L 84.466253 92.647856 
L 86.657817 90.626296 
L 94.380471 85.392564 
L 101.250851 82.082801 
L 104.172937 81.10921 
L 109.443127 80.724943 
L 118.03545 81.319525 
L 121.688057 81.026465 
L 133.411185 79.029193 
L 139.568437 78.110688 
L 155.08332 76.221301 
L 156.700903 76.047275 
L 166.493368 75.311649 
L 174.19863 75.102988 
L 183.851948 75.18824 
L 189.643939 75.526609 
L 196.149058 76.144463 
L 201.923655 76.891195 
L 209.228869 78.086116 
L 209.228869 78.086116 
" clip-path="url(#p411fe35ee8)" style="fill: none; stroke: #57db5f; stroke-width: 1.772454; stroke-linejoin: miter"/>
   </g>
   <g id="PolyCollection_3">
    <path d="M 49.192506 172.26554 
L 49.192506 213.456134 
L 50.340468 209.467388 
L 50.410041 209.229018 
L 50.444828 209.109979 
L 50.462221 209.050495 
L 50.601368 208.575501 
L 50.636155 208.456995 
L 50.688335 208.279418 
L 50.740515 208.102061 
L 50.775302 207.983944 
L 50.897056 207.571301 
L 50.914449 207.51245 
L 51.418857 205.816386 
L 51.59279 205.236315 
L 51.64497 205.062773 
L 64.255161 169.891487 
L 66.533692 164.982476 
L 66.690232 164.660454 
L 66.759806 164.517945 
L 66.794592 164.446834 
L 67.072886 163.881415 
L 67.125066 163.776082 
L 67.229427 163.56606 
L 67.35118 163.322114 
L 67.40336 163.217919 
L 67.664261 162.700112 
L 67.699047 162.631468 
L 68.690469 160.7135 
L 69.038337 160.057724 
L 69.16009 159.830263 
L 79.317816 144.018817 
L 82.744309 139.808081 
L 82.970423 139.545909 
L 83.074783 139.425524 
L 83.126963 139.365476 
L 83.544404 138.888547 
L 83.613978 138.809651 
L 83.770518 138.632746 
L 83.944452 138.43759 
L 84.048812 138.32139 
L 84.414073 137.919907 
L 84.466253 137.863208 
L 85.979475 136.288229 
L 86.483883 135.792175 
L 86.657817 135.624389 
L 94.380471 129.688077 
L 98.937533 127.171877 
L 99.233221 127.017834 
L 99.372368 126.945379 
L 99.459334 126.900093 
L 99.998529 126.61899 
L 100.102889 126.564456 
L 100.311609 126.455196 
L 100.555116 126.327329 
L 100.67687 126.263203 
L 101.181278 125.99584 
L 101.250851 125.958715 
L 103.251088 125.020402 
L 103.92943 124.761287 
L 104.172937 124.675644 
L 109.443127 123.797545 
L 115.148151 124.611577 
L 115.513412 124.690525 
L 115.687345 124.727838 
L 115.791705 124.750086 
L 116.470047 124.890655 
L 116.5918 124.914884 
L 116.870094 124.968762 
L 117.165781 125.02336 
L 117.322322 125.051002 
L 117.948483 125.151209 
L 118.03545 125.163649 
L 120.540094 125.302566 
L 121.392369 125.223097 
L 121.688057 125.176818 
L 124.505782 124.610769 
L 131.341375 123.103749 
L 131.793602 123.02478 
L 132.002323 122.989934 
L 132.124076 122.970089 
L 132.941565 122.846427 
L 133.080712 122.827091 
L 133.411185 122.783226 
L 133.759053 122.740223 
L 133.95038 122.717971 
L 134.698295 122.64059 
L 134.802655 122.631008 
L 137.811707 122.474159 
L 138.837916 122.4646 
L 139.185783 122.464847 
L 139.568437 122.466675 
L 147.534599 122.161118 
L 148.0564 122.066825 
L 148.299907 122.01767 
L 148.456447 121.984382 
L 149.395689 121.760725 
L 149.569623 121.715113 
L 149.952277 121.610562 
L 150.369718 121.490329 
L 150.578438 121.427966 
L 151.4655 121.148112 
L 151.587253 121.108021 
L 154.631092 120.021763 
L 155.08332 119.853056 
L 156.283462 119.405374 
L 156.700903 119.250811 
L 163.745216 116.946517 
L 164.336591 116.785762 
L 164.614885 116.711921 
L 164.788818 116.666361 
L 165.867207 116.394164 
L 166.058534 116.347764 
L 166.493368 116.244527 
L 166.962989 116.134359 
L 167.22389 116.072874 
L 168.215312 115.83804 
L 168.354458 115.804996 
L 169.693748 115.487388 
L 172.372326 114.869346 
L 173.729009 114.575362 
L 174.19863 114.478028 
L 179.93844 113.585705 
L 180.616782 113.53036 
L 180.929862 113.509425 
L 181.121189 113.498124 
L 182.338725 113.454338 
L 182.547445 113.451977 
L 183.03446 113.452681 
L 183.573654 113.463995 
L 183.851948 113.474333 
L 184.756403 113.530137 
L 184.982517 113.549601 
L 185.139057 113.564385 
L 189.643939 114.467918 
L 191.174555 114.998563 
L 191.713749 115.213541 
L 196.149058 117.53601 
L 196.896973 118.023316 
L 197.24484 118.25912 
L 197.45356 118.403368 
L 198.810243 119.390867 
L 199.05375 119.577144 
L 199.592944 119.999242 
L 200.184319 120.477275 
L 200.497399 120.736668 
L 201.749722 121.817199 
L 201.923655 121.972631 
L 206.932945 126.980243 
L 208.637495 128.905129 
L 209.228869 129.597601 
L 209.228869 75.648861 
L 209.228869 75.648861 
L 208.637495 76.189638 
L 206.932945 77.700687 
L 201.923655 81.70725 
L 201.749722 81.834044 
L 200.497399 82.721166 
L 200.184319 82.935762 
L 199.592944 83.333127 
L 199.05375 83.686223 
L 198.810243 83.842775 
L 197.45356 84.681295 
L 197.24484 84.80516 
L 196.896973 85.008517 
L 196.149058 85.432577 
L 191.713749 87.569961 
L 191.174555 87.78548 
L 189.643939 88.346051 
L 185.139057 89.591518 
L 184.982517 89.625254 
L 184.756403 89.673135 
L 183.851948 89.856007 
L 183.573654 89.909616 
L 183.03446 90.010128 
L 182.547445 90.097278 
L 182.338725 90.133618 
L 181.121189 90.334357 
L 180.929862 90.364262 
L 180.616782 90.412301 
L 179.93844 90.512747 
L 174.19863 91.210981 
L 173.729009 91.259246 
L 172.372326 91.393329 
L 169.693748 91.638164 
L 168.354458 91.752042 
L 168.215312 91.76357 
L 167.22389 91.844066 
L 166.962989 91.864771 
L 166.493368 91.901533 
L 166.058534 91.939601 
L 165.867207 91.959039 
L 164.788818 92.097308 
L 164.614885 92.123885 
L 164.336591 92.168688 
L 163.745216 92.272659 
L 156.700903 93.989665 
L 156.283462 94.097113 
L 155.08332 94.399691 
L 154.631092 94.510891 
L 151.587253 95.215855 
L 151.4655 95.242577 
L 150.578438 95.434436 
L 150.369718 95.478919 
L 149.952277 95.567221 
L 149.569623 95.647461 
L 149.395689 95.683732 
L 148.456447 95.877767 
L 148.299907 95.909849 
L 148.0564 95.960146 
L 147.534599 96.070729 
L 139.568437 97.795473 
L 139.185783 97.85723 
L 138.837916 97.91008 
L 137.811707 98.046519 
L 134.802655 98.265501 
L 134.698295 98.268232 
L 133.95038 98.278914 
L 133.759053 98.279234 
L 133.411185 98.277438 
L 133.080712 98.273019 
L 132.941565 98.270406 
L 132.124076 98.246856 
L 132.002323 98.242257 
L 131.793602 98.233788 
L 131.341375 98.213138 
L 124.505782 97.969944 
L 121.688057 98.271899 
L 121.392369 98.325474 
L 120.540094 98.470826 
L 118.03545 98.814976 
L 117.948483 98.824502 
L 117.322322 98.887857 
L 117.165781 98.902229 
L 116.870094 98.927734 
L 116.5918 98.94975 
L 116.470047 98.958767 
L 115.791705 99.002043 
L 115.687345 99.007642 
L 115.513412 99.016341 
L 115.148151 99.032028 
L 109.443127 98.904892 
L 104.172937 99.069361 
L 103.92943 99.118377 
L 103.251088 99.285491 
L 101.250851 100.085642 
L 101.181278 100.122545 
L 100.67687 100.392637 
L 100.555116 100.458514 
L 100.311609 100.591081 
L 100.102889 100.705584 
L 99.998529 100.763142 
L 99.459334 101.063842 
L 99.372368 101.112871 
L 99.233221 101.191628 
L 98.937533 101.360268 
L 94.380471 104.209499 
L 86.657817 110.761148 
L 86.483883 110.948369 
L 85.979475 111.50434 
L 84.466253 113.295823 
L 84.414073 113.361081 
L 84.048812 113.824677 
L 83.944452 113.959338 
L 83.770518 114.185979 
L 83.613978 114.391614 
L 83.544404 114.483272 
L 83.126963 115.036633 
L 83.074783 115.106214 
L 82.970423 115.245651 
L 82.744309 115.549017 
L 79.317816 120.35415 
L 69.16009 136.678213 
L 69.038337 136.889433 
L 68.690469 137.494468 
L 67.699047 139.230716 
L 67.664261 139.29194 
L 67.40336 139.751739 
L 67.35118 139.843827 
L 67.229427 140.058865 
L 67.125066 140.243364 
L 67.072886 140.335675 
L 66.794592 140.828678 
L 66.759806 140.890383 
L 66.690232 141.013828 
L 66.533692 141.29172 
L 64.255161 145.352632 
L 51.64497 167.861928 
L 51.59279 167.955314 
L 51.418857 168.266683 
L 50.914449 169.170406 
L 50.897056 169.20159 
L 50.775302 169.419919 
L 50.740515 169.482312 
L 50.688335 169.575913 
L 50.636155 169.669527 
L 50.601368 169.731945 
L 50.462221 169.981677 
L 50.444828 170.012901 
L 50.410041 170.075353 
L 50.340468 170.200277 
L 49.192506 172.26554 
z
" clip-path="url(#p411fe35ee8)" style="fill: #999999; fill-opacity: 0.4"/>
   </g>
   <g id="line2d_24">
    <path d="M 49.192506 192.860837 
L 51.64497 186.46235 
L 64.255161 157.62206 
L 68.690469 149.103984 
L 69.16009 148.254238 
L 79.317816 132.186484 
L 84.466253 125.579516 
L 86.657817 123.192768 
L 94.380471 116.948788 
L 101.250851 113.022178 
L 104.172937 111.872503 
L 109.443127 111.351218 
L 118.03545 111.989312 
L 121.392369 111.774285 
L 124.505782 111.290357 
L 134.802655 110.448255 
L 139.568437 110.131074 
L 148.456447 108.931075 
L 151.587253 108.161938 
L 164.788818 104.381835 
L 168.354458 103.778519 
L 174.19863 102.844505 
L 183.03446 101.731405 
L 185.139057 101.577951 
L 191.713749 101.391751 
L 199.592944 101.666185 
L 201.923655 101.83994 
L 209.228869 102.623231 
L 209.228869 102.623231 
" clip-path="url(#p411fe35ee8)" style="fill: none; stroke: #5f57db; stroke-width: 1.772454; stroke-linejoin: miter"/>
   </g>
   <g id="LineCollection_1">
    <path d="M 41.190688 272.466867 
L 217.230688 272.466867 
" clip-path="url(#p411fe35ee8)" style="fill: none; stroke-dasharray: 3.27904,1.417963; stroke-dashoffset: 0; stroke: #000000; stroke-width: 0.886227"/>
   </g>
   <g id="patch_3">
    <path d="M 41.190688 40.405371 
L 217.230688 40.405371 
L 217.230688 26.105371 
L 41.190688 26.105371 
z
" style="fill: #d9d9d9"/>
   </g>
   <g id="text_9">
    <!-- Full Signal -->
    <g style="fill: #1a1a1a" transform="translate(106.774125 35.683621)scale(0.088 -0.088)">
     <defs>
      <path id="DejaVuSans-46" d="M 628 4666 
L 3309 4666 
L 3309 4134 
L 1259 4134 
L 1259 2759 
L 3109 2759 
L 3109 2228 
L 1259 2228 
L 1259 0 
L 628 0 
L 628 4666 
z
" transform="scale(0.015625)"/>
      <path id="DejaVuSans-69" d="M 603 3500 
L 1178 3500 
L 1178 0 
L 603 0 
L 603 3500 
z
M 603 4863 
L 1178 4863 
L 1178 4134 
L 603 4134 
L 603 4863 
z
" transform="scale(0.015625)"/>
      <path id="DejaVuSans-67" d="M 2906 1791 
Q 2906 2416 2648 2759 
Q 2391 3103 1925 3103 
Q 1463 3103 1205 2759 
Q 947 2416 947 1791 
Q 947 1169 1205 825 
Q 1463 481 1925 481 
Q 2391 481 2648 825 
Q 2906 1169 2906 1791 
z
M 3481 434 
Q 3481 -459 3084 -895 
Q 2688 -1331 1869 -1331 
Q 1566 -1331 1297 -1286 
Q 1028 -1241 775 -1147 
L 775 -588 
Q 1028 -725 1275 -790 
Q 1522 -856 1778 -856 
Q 2344 -856 2625 -561 
Q 2906 -266 2906 331 
L 2906 616 
Q 2728 306 2450 153 
Q 2172 0 1784 0 
Q 1141 0 747 490 
Q 353 981 353 1791 
Q 353 2603 747 3093 
Q 1141 3584 1784 3584 
Q 2172 3584 2450 3431 
Q 2728 3278 2906 2969 
L 2906 3500 
L 3481 3500 
L 3481 434 
z
" transform="scale(0.015625)"/>
     </defs>
     <use xlink:href="#DejaVuSans-46"/>
     <use xlink:href="#DejaVuSans-75" x="52.019531"/>
     <use xlink:href="#DejaVuSans-6c" x="115.398438"/>
     <use xlink:href="#DejaVuSans-6c" x="143.181641"/>
     <use xlink:href="#DejaVuSans-20" x="170.964844"/>
     <use xlink:href="#DejaVuSans-53" x="202.751953"/>
     <use xlink:href="#DejaVuSans-69" x="266.228516"/>
     <use xlink:href="#DejaVuSans-67" x="294.011719"/>
     <use xlink:href="#DejaVuSans-6e" x="357.488281"/>
     <use xlink:href="#DejaVuSans-61" x="420.867188"/>
     <use xlink:href="#DejaVuSans-6c" x="482.146484"/>
    </g>
   </g>
   <g id="patch_4">
    <path d="M 405.510688 217.216339 
L 517.346688 217.216339 
L 517.346688 126.250402 
L 405.510688 126.250402 
z
" style="fill: #ffffff"/>
   </g>
   <g id="text_10">
    <!-- Model -->
    <g transform="translate(417.710688 149.843996)scale(0.11 -0.11)">
     <defs>
      <path id="DejaVuSans-4d" d="M 628 4666 
L 1569 4666 
L 2759 1491 
L 3956 4666 
L 4897 4666 
L 4897 0 
L 4281 0 
L 4281 4097 
L 3078 897 
L 2444 897 
L 1241 4097 
L 1241 0 
L 628 0 
L 628 4666 
z
" transform="scale(0.015625)"/>
      <path id="DejaVuSans-6f" d="M 1959 3097 
Q 1497 3097 1228 2736 
Q 959 2375 959 1747 
Q 959 1119 1226 758 
Q 1494 397 1959 397 
Q 2419 397 2687 759 
Q 2956 1122 2956 1747 
Q 2956 2369 2687 2733 
Q 2419 3097 1959 3097 
z
M 1959 3584 
Q 2709 3584 3137 3096 
Q 3566 2609 3566 1747 
Q 3566 888 3137 398 
Q 2709 -91 1959 -91 
Q 1206 -91 779 398 
Q 353 888 353 1747 
Q 353 2609 779 3096 
Q 1206 3584 1959 3584 
z
" transform="scale(0.015625)"/>
     </defs>
     <use xlink:href="#DejaVuSans-4d"/>
     <use xlink:href="#DejaVuSans-6f" x="86.279297"/>
     <use xlink:href="#DejaVuSans-64" x="147.460938"/>
     <use xlink:href="#DejaVuSans-65" x="210.9375"/>
     <use xlink:href="#DejaVuSans-6c" x="272.460938"/>
    </g>
   </g>
   <g id="patch_5">
    <path d="M 417.710688 169.336339 
L 433.550687 169.336339 
L 433.550687 153.496339 
L 417.710688 153.496339 
z
" clip-path="url(#pa4a9bfed59)" style="fill: #f2f2f2"/>
   </g>
   <g id="patch_6">
    <path d="M 417.710688 165.376339 
L 433.550687 165.376339 
L 433.550687 157.456339 
L 417.710688 157.456339 
z
" clip-path="url(#pa4a9bfed59)" style="fill: #999999; opacity: 0.4"/>
   </g>
   <g id="line2d_25">
    <path d="M 417.710688 161.416339 
L 433.550687 161.416339 
" clip-path="url(#pa4a9bfed59)" style="fill: none; stroke: #db5f57; stroke-width: 1.772454"/>
   </g>
   <g id="text_11">
    <!-- five_layer_net -->
    <g transform="translate(436.550687 163.722214)scale(0.088 -0.088)">
     <defs>
      <path id="DejaVuSans-66" d="M 2375 4863 
L 2375 4384 
L 1825 4384 
Q 1516 4384 1395 4259 
Q 1275 4134 1275 3809 
L 1275 3500 
L 2222 3500 
L 2222 3053 
L 1275 3053 
L 1275 0 
L 697 0 
L 697 3053 
L 147 3053 
L 147 3500 
L 697 3500 
L 697 3744 
Q 697 4328 969 4595 
Q 1241 4863 1831 4863 
L 2375 4863 
z
" transform="scale(0.015625)"/>
      <path id="DejaVuSans-76" d="M 191 3500 
L 800 3500 
L 1894 563 
L 2988 3500 
L 3597 3500 
L 2284 0 
L 1503 0 
L 191 3500 
z
" transform="scale(0.015625)"/>
      <path id="DejaVuSans-5f" d="M 3263 -1063 
L 3263 -1509 
L -63 -1509 
L -63 -1063 
L 3263 -1063 
z
" transform="scale(0.015625)"/>
     </defs>
     <use xlink:href="#DejaVuSans-66"/>
     <use xlink:href="#DejaVuSans-69" x="35.205078"/>
     <use xlink:href="#DejaVuSans-76" x="62.988281"/>
     <use xlink:href="#DejaVuSans-65" x="122.167969"/>
     <use xlink:href="#DejaVuSans-5f" x="183.691406"/>
     <use xlink:href="#DejaVuSans-6c" x="233.691406"/>
     <use xlink:href="#DejaVuSans-61" x="261.474609"/>
     <use xlink:href="#DejaVuSans-79" x="322.753906"/>
     <use xlink:href="#DejaVuSans-65" x="381.933594"/>
     <use xlink:href="#DejaVuSans-72" x="443.457031"/>
     <use xlink:href="#DejaVuSans-5f" x="484.570312"/>
     <use xlink:href="#DejaVuSans-6e" x="534.570312"/>
     <use xlink:href="#DejaVuSans-65" x="597.949219"/>
     <use xlink:href="#DejaVuSans-74" x="659.472656"/>
    </g>
   </g>
   <g id="patch_7">
    <path d="M 417.710688 187.176339 
L 433.550687 187.176339 
L 433.550687 171.336339 
L 417.710688 171.336339 
z
" clip-path="url(#p484a11285d)" style="fill: #f2f2f2"/>
   </g>
   <g id="patch_8">
    <path d="M 417.710688 183.216339 
L 433.550687 183.216339 
L 433.550687 175.296339 
L 417.710688 175.296339 
z
" clip-path="url(#p484a11285d)" style="fill: #999999; opacity: 0.4"/>
   </g>
   <g id="line2d_26">
    <path d="M 417.710688 179.256339 
L 433.550687 179.256339 
" clip-path="url(#p484a11285d)" style="fill: none; stroke: #57db5f; stroke-width: 1.772454"/>
   </g>
   <g id="text_12">
    <!-- pytorch_lr -->
    <g transform="translate(436.550687 181.562214)scale(0.088 -0.088)">
     <defs>
      <path id="DejaVuSans-70" d="M 1159 525 
L 1159 -1331 
L 581 -1331 
L 581 3500 
L 1159 3500 
L 1159 2969 
Q 1341 3281 1617 3432 
Q 1894 3584 2278 3584 
Q 2916 3584 3314 3078 
Q 3713 2572 3713 1747 
Q 3713 922 3314 415 
Q 2916 -91 2278 -91 
Q 1894 -91 1617 61 
Q 1341 213 1159 525 
z
M 3116 1747 
Q 3116 2381 2855 2742 
Q 2594 3103 2138 3103 
Q 1681 3103 1420 2742 
Q 1159 2381 1159 1747 
Q 1159 1113 1420 752 
Q 1681 391 2138 391 
Q 2594 391 2855 752 
Q 3116 1113 3116 1747 
z
" transform="scale(0.015625)"/>
      <path id="DejaVuSans-68" d="M 3513 2113 
L 3513 0 
L 2938 0 
L 2938 2094 
Q 2938 2591 2744 2837 
Q 2550 3084 2163 3084 
Q 1697 3084 1428 2787 
Q 1159 2491 1159 1978 
L 1159 0 
L 581 0 
L 581 4863 
L 1159 4863 
L 1159 2956 
Q 1366 3272 1645 3428 
Q 1925 3584 2291 3584 
Q 2894 3584 3203 3211 
Q 3513 2838 3513 2113 
z
" transform="scale(0.015625)"/>
     </defs>
     <use xlink:href="#DejaVuSans-70"/>
     <use xlink:href="#DejaVuSans-79" x="63.476562"/>
     <use xlink:href="#DejaVuSans-74" x="122.65625"/>
     <use xlink:href="#DejaVuSans-6f" x="161.865234"/>
     <use xlink:href="#DejaVuSans-72" x="223.046875"/>
     <use xlink:href="#DejaVuSans-63" x="261.910156"/>
     <use xlink:href="#DejaVuSans-68" x="316.890625"/>
     <use xlink:href="#DejaVuSans-5f" x="380.269531"/>
     <use xlink:href="#DejaVuSans-6c" x="430.269531"/>
     <use xlink:href="#DejaVuSans-72" x="458.052734"/>
    </g>
   </g>
   <g id="patch_9">
    <path d="M 417.710688 205.016339 
L 433.550687 205.016339 
L 433.550687 189.176339 
L 417.710688 189.176339 
z
" clip-path="url(#pffc80f014b)" style="fill: #f2f2f2"/>
   </g>
   <g id="patch_10">
    <path d="M 417.710688 201.056339 
L 433.550687 201.056339 
L 433.550687 193.136339 
L 417.710688 193.136339 
z
" clip-path="url(#pffc80f014b)" style="fill: #999999; opacity: 0.4"/>
   </g>
   <g id="line2d_27">
    <path d="M 417.710688 197.096339 
L 433.550687 197.096339 
" clip-path="url(#pffc80f014b)" style="fill: none; stroke: #5f57db; stroke-width: 1.772454"/>
   </g>
   <g id="text_13">
    <!-- three_layer_net -->
    <g transform="translate(436.550687 199.402214)scale(0.088 -0.088)">
     <use xlink:href="#DejaVuSans-74"/>
     <use xlink:href="#DejaVuSans-68" x="39.208984"/>
     <use xlink:href="#DejaVuSans-72" x="102.587891"/>
     <use xlink:href="#DejaVuSans-65" x="141.451172"/>
     <use xlink:href="#DejaVuSans-65" x="202.974609"/>
     <use xlink:href="#DejaVuSans-5f" x="264.498047"/>
     <use xlink:href="#DejaVuSans-6c" x="314.498047"/>
     <use xlink:href="#DejaVuSans-61" x="342.28125"/>
     <use xlink:href="#DejaVuSans-79" x="403.560547"/>
     <use xlink:href="#DejaVuSans-65" x="462.740234"/>
     <use xlink:href="#DejaVuSans-72" x="524.263672"/>
     <use xlink:href="#DejaVuSans-5f" x="565.376953"/>
     <use xlink:href="#DejaVuSans-6e" x="615.376953"/>
     <use xlink:href="#DejaVuSans-65" x="678.755859"/>
     <use xlink:href="#DejaVuSans-74" x="740.279297"/>
    </g>
   </g>
  </g>
  <g id="axes_2">
   <g id="patch_11">
    <path d="M 222.270688 306.517371 
L 398.310687 306.517371 
L 398.310687 40.405371 
L 222.270688 40.405371 
z
" style="fill: #ebebeb"/>
   </g>
   <g id="matplotlib.axis_3">
    <g id="xtick_9">
     <g id="line2d_28">
      <path d="M 258.71066 306.517371 
L 258.71066 40.405371 
" clip-path="url(#p119c975a58)" style="fill: none; stroke: #ffffff; stroke-linecap: square"/>
     </g>
     <g id="line2d_29">
      <path d="M 258.71066 306.517371 
" style="fill: none; stroke: #333333; stroke-width: 1.5; stroke-linecap: square"/>
      <g>
       <use xlink:href="#me43b09867a" x="258.71066" y="306.517371" style="fill: #333333; stroke: #000000"/>
      </g>
     </g>
     <g id="text_14">
      <!-- 2500 -->
      <g style="fill: #4d4d4d" transform="translate(247.51266 318.153996)scale(0.088 -0.088)">
       <use xlink:href="#DejaVuSans-32"/>
       <use xlink:href="#DejaVuSans-35" x="63.623047"/>
       <use xlink:href="#DejaVuSans-30" x="127.246094"/>
       <use xlink:href="#DejaVuSans-30" x="190.869141"/>
      </g>
     </g>
    </g>
    <g id="xtick_10">
     <g id="line2d_30">
      <path d="M 302.194075 306.517371 
L 302.194075 40.405371 
" clip-path="url(#p119c975a58)" style="fill: none; stroke: #ffffff; stroke-linecap: square"/>
     </g>
     <g id="line2d_31">
      <path d="M 302.194075 306.517371 
" style="fill: none; stroke: #333333; stroke-width: 1.5; stroke-linecap: square"/>
      <g>
       <use xlink:href="#me43b09867a" x="302.194075" y="306.517371" style="fill: #333333; stroke: #000000"/>
      </g>
     </g>
     <g id="text_15">
      <!-- 5000 -->
      <g style="fill: #4d4d4d" transform="translate(290.996075 318.153996)scale(0.088 -0.088)">
       <use xlink:href="#DejaVuSans-35"/>
       <use xlink:href="#DejaVuSans-30" x="63.623047"/>
       <use xlink:href="#DejaVuSans-30" x="127.246094"/>
       <use xlink:href="#DejaVuSans-30" x="190.869141"/>
      </g>
     </g>
    </g>
    <g id="xtick_11">
     <g id="line2d_32">
      <path d="M 345.677491 306.517371 
L 345.677491 40.405371 
" clip-path="url(#p119c975a58)" style="fill: none; stroke: #ffffff; stroke-linecap: square"/>
     </g>
     <g id="line2d_33">
      <path d="M 345.677491 306.517371 
" style="fill: none; stroke: #333333; stroke-width: 1.5; stroke-linecap: square"/>
      <g>
       <use xlink:href="#me43b09867a" x="345.677491" y="306.517371" style="fill: #333333; stroke: #000000"/>
      </g>
     </g>
     <g id="text_16">
      <!-- 7500 -->
      <g style="fill: #4d4d4d" transform="translate(334.479491 318.153996)scale(0.088 -0.088)">
       <use xlink:href="#DejaVuSans-37"/>
       <use xlink:href="#DejaVuSans-35" x="63.623047"/>
       <use xlink:href="#DejaVuSans-30" x="127.246094"/>
       <use xlink:href="#DejaVuSans-30" x="190.869141"/>
      </g>
     </g>
    </g>
    <g id="xtick_12">
     <g id="line2d_34">
      <path d="M 389.160907 306.517371 
L 389.160907 40.405371 
" clip-path="url(#p119c975a58)" style="fill: none; stroke: #ffffff; stroke-linecap: square"/>
     </g>
     <g id="line2d_35">
      <path d="M 389.160907 306.517371 
" style="fill: none; stroke: #333333; stroke-width: 1.5; stroke-linecap: square"/>
      <g>
       <use xlink:href="#me43b09867a" x="389.160907" y="306.517371" style="fill: #333333; stroke: #000000"/>
      </g>
     </g>
     <g id="text_17">
      <!-- 10000 -->
      <g style="fill: #4d4d4d" transform="translate(375.163407 318.153996)scale(0.088 -0.088)">
       <use xlink:href="#DejaVuSans-31"/>
       <use xlink:href="#DejaVuSans-30" x="63.623047"/>
       <use xlink:href="#DejaVuSans-30" x="127.246094"/>
       <use xlink:href="#DejaVuSans-30" x="190.869141"/>
       <use xlink:href="#DejaVuSans-30" x="254.492188"/>
      </g>
     </g>
    </g>
    <g id="xtick_13">
     <g id="line2d_36">
      <path d="M 236.968952 306.517371 
L 236.968952 40.405371 
" clip-path="url(#p119c975a58)" style="fill: none; stroke: #ffffff; stroke-width: 0.5; stroke-linecap: square"/>
     </g>
    </g>
    <g id="xtick_14">
     <g id="line2d_37">
      <path d="M 280.452368 306.517371 
L 280.452368 40.405371 
" clip-path="url(#p119c975a58)" style="fill: none; stroke: #ffffff; stroke-width: 0.5; stroke-linecap: square"/>
     </g>
    </g>
    <g id="xtick_15">
     <g id="line2d_38">
      <path d="M 323.935783 306.517371 
L 323.935783 40.405371 
" clip-path="url(#p119c975a58)" style="fill: none; stroke: #ffffff; stroke-width: 0.5; stroke-linecap: square"/>
     </g>
    </g>
    <g id="xtick_16">
     <g id="line2d_39">
      <path d="M 367.419199 306.517371 
L 367.419199 40.405371 
" clip-path="url(#p119c975a58)" style="fill: none; stroke: #ffffff; stroke-width: 0.5; stroke-linecap: square"/>
     </g>
    </g>
    <g id="text_18">
     <!-- Train Sample Count -->
     <g transform="translate(160.345063 332.742402)scale(0.11 -0.11)">
      <defs>
       <path id="DejaVuSans-54" d="M -19 4666 
L 3928 4666 
L 3928 4134 
L 2272 4134 
L 2272 0 
L 1638 0 
L 1638 4134 
L -19 4134 
L -19 4666 
z
" transform="scale(0.015625)"/>
       <path id="DejaVuSans-6d" d="M 3328 2828 
Q 3544 3216 3844 3400 
Q 4144 3584 4550 3584 
Q 5097 3584 5394 3201 
Q 5691 2819 5691 2113 
L 5691 0 
L 5113 0 
L 5113 2094 
Q 5113 2597 4934 2840 
Q 4756 3084 4391 3084 
Q 3944 3084 3684 2787 
Q 3425 2491 3425 1978 
L 3425 0 
L 2847 0 
L 2847 2094 
Q 2847 2600 2669 2842 
Q 2491 3084 2119 3084 
Q 1678 3084 1418 2786 
Q 1159 2488 1159 1978 
L 1159 0 
L 581 0 
L 581 3500 
L 1159 3500 
L 1159 2956 
Q 1356 3278 1631 3431 
Q 1906 3584 2284 3584 
Q 2666 3584 2933 3390 
Q 3200 3197 3328 2828 
z
" transform="scale(0.015625)"/>
       <path id="DejaVuSans-43" d="M 4122 4306 
L 4122 3641 
Q 3803 3938 3442 4084 
Q 3081 4231 2675 4231 
Q 1875 4231 1450 3742 
Q 1025 3253 1025 2328 
Q 1025 1406 1450 917 
Q 1875 428 2675 428 
Q 3081 428 3442 575 
Q 3803 722 4122 1019 
L 4122 359 
Q 3791 134 3420 21 
Q 3050 -91 2638 -91 
Q 1578 -91 968 557 
Q 359 1206 359 2328 
Q 359 3453 968 4101 
Q 1578 4750 2638 4750 
Q 3056 4750 3426 4639 
Q 3797 4528 4122 4306 
z
" transform="scale(0.015625)"/>
      </defs>
      <use xlink:href="#DejaVuSans-54"/>
      <use xlink:href="#DejaVuSans-72" x="46.333984"/>
      <use xlink:href="#DejaVuSans-61" x="87.447266"/>
      <use xlink:href="#DejaVuSans-69" x="148.726562"/>
      <use xlink:href="#DejaVuSans-6e" x="176.509766"/>
      <use xlink:href="#DejaVuSans-20" x="239.888672"/>
      <use xlink:href="#DejaVuSans-53" x="271.675781"/>
      <use xlink:href="#DejaVuSans-61" x="335.152344"/>
      <use xlink:href="#DejaVuSans-6d" x="396.431641"/>
      <use xlink:href="#DejaVuSans-70" x="493.84375"/>
      <use xlink:href="#DejaVuSans-6c" x="557.320312"/>
      <use xlink:href="#DejaVuSans-65" x="585.103516"/>
      <use xlink:href="#DejaVuSans-20" x="646.626953"/>
      <use xlink:href="#DejaVuSans-43" x="678.414062"/>
      <use xlink:href="#DejaVuSans-6f" x="748.238281"/>
      <use xlink:href="#DejaVuSans-75" x="809.419922"/>
      <use xlink:href="#DejaVuSans-6e" x="872.798828"/>
      <use xlink:href="#DejaVuSans-74" x="936.177734"/>
     </g>
    </g>
   </g>
   <g id="matplotlib.axis_4">
    <g id="ytick_7">
     <g id="line2d_40">
      <path d="M 222.270688 293.913935 
L 398.310687 293.913935 
" clip-path="url(#p119c975a58)" style="fill: none; stroke: #ffffff; stroke-linecap: square"/>
     </g>
    </g>
    <g id="ytick_8">
     <g id="line2d_41">
      <path d="M 222.270688 203.83625 
L 398.310687 203.83625 
" clip-path="url(#p119c975a58)" style="fill: none; stroke: #ffffff; stroke-linecap: square"/>
     </g>
    </g>
    <g id="ytick_9">
     <g id="line2d_42">
      <path d="M 222.270688 113.758564 
L 398.310687 113.758564 
" clip-path="url(#p119c975a58)" style="fill: none; stroke: #ffffff; stroke-linecap: square"/>
     </g>
    </g>
    <g id="ytick_10">
     <g id="line2d_43">
      <path d="M 222.270688 248.875093 
L 398.310687 248.875093 
" clip-path="url(#p119c975a58)" style="fill: none; stroke: #ffffff; stroke-width: 0.5; stroke-linecap: square"/>
     </g>
    </g>
    <g id="ytick_11">
     <g id="line2d_44">
      <path d="M 222.270688 158.797407 
L 398.310687 158.797407 
" clip-path="url(#p119c975a58)" style="fill: none; stroke: #ffffff; stroke-width: 0.5; stroke-linecap: square"/>
     </g>
    </g>
    <g id="ytick_12">
     <g id="line2d_45">
      <path d="M 222.270688 68.719722 
L 398.310687 68.719722 
" clip-path="url(#p119c975a58)" style="fill: none; stroke: #ffffff; stroke-width: 0.5; stroke-linecap: square"/>
     </g>
    </g>
   </g>
   <g id="PolyCollection_4">
    <path d="M 230.272506 234.372602 
L 230.272506 294.421371 
L 231.420468 291.228233 
L 231.490041 291.037913 
L 231.524828 290.942891 
L 231.542221 290.895415 
L 231.681368 290.516438 
L 231.716155 290.421926 
L 231.768335 290.28033 
L 231.820515 290.138944 
L 231.855302 290.044803 
L 231.977056 289.71604 
L 231.994449 289.669168 
L 232.498857 288.320028 
L 232.67279 287.859389 
L 232.72497 287.721658 
L 245.335161 261.083708 
L 247.613692 257.696372 
L 247.770232 257.478222 
L 247.839806 257.381845 
L 247.874592 257.333789 
L 248.152886 256.952493 
L 248.205066 256.881619 
L 248.309427 256.740452 
L 248.43118 256.576729 
L 248.48336 256.50688 
L 248.744261 256.160477 
L 248.779047 256.114645 
L 249.770469 254.842477 
L 250.118337 254.4112 
L 250.24009 254.262043 
L 260.397816 244.338548 
L 263.824309 241.76569 
L 264.050423 241.604755 
L 264.154783 241.530804 
L 264.206963 241.493905 
L 264.624404 241.200522 
L 264.693978 241.151932 
L 264.850518 241.042918 
L 265.024452 240.922131 
L 265.128812 240.849754 
L 265.494073 240.597014 
L 265.546253 240.560983 
L 267.059475 239.525231 
L 267.563883 239.184604 
L 267.737817 239.067785 
L 275.460471 234.415964 
L 280.017533 232.201196 
L 280.313221 232.063836 
L 280.452368 231.999219 
L 280.539334 231.958833 
L 281.078529 231.708182 
L 281.182889 231.659574 
L 281.391609 231.562217 
L 281.635116 231.44834 
L 281.75687 231.391261 
L 282.261278 231.153546 
L 282.330851 231.120577 
L 284.331088 230.161865 
L 285.00943 229.839848 
L 285.252937 229.725772 
L 290.523127 227.766906 
L 296.228151 227.357256 
L 296.593412 227.379131 
L 296.767345 227.390438 
L 296.871705 227.39745 
L 297.550047 227.44583 
L 297.6718 227.454788 
L 297.950094 227.475243 
L 298.245781 227.496609 
L 298.402322 227.507619 
L 299.028483 227.548033 
L 299.11545 227.553029 
L 301.620094 227.57089 
L 302.472369 227.493074 
L 302.768057 227.45272 
L 305.585782 226.965196 
L 312.421375 225.880333 
L 312.873602 225.849762 
L 313.082323 225.838332 
L 313.204076 225.832465 
L 314.021565 225.8088 
L 314.160712 225.80756 
L 314.491185 225.807929 
L 314.839053 225.813399 
L 315.03038 225.818639 
L 315.778295 225.854326 
L 315.882655 225.861219 
L 318.891707 226.245061 
L 319.917916 226.442985 
L 320.265783 226.515275 
L 320.648437 226.597075 
L 328.614599 227.738519 
L 329.1364 227.696657 
L 329.379907 227.669082 
L 329.536447 227.64927 
L 330.475689 227.514833 
L 330.649623 227.487206 
L 331.032277 227.423686 
L 331.449718 227.350371 
L 331.658438 227.312252 
L 332.5455 227.140639 
L 332.667253 227.115995 
L 335.711092 226.443973 
L 336.16332 226.338481 
L 337.363462 226.05529 
L 337.780903 225.95591 
L 344.825216 224.054131 
L 345.416591 223.847324 
L 345.694885 223.745586 
L 345.868818 223.680483 
L 346.947207 223.248892 
L 347.138534 223.166995 
L 347.573368 222.974558 
L 348.042989 222.761102 
L 348.30389 222.641831 
L 349.295312 222.184453 
L 349.434458 222.119767 
L 350.773748 221.491773 
L 353.452326 220.21515 
L 354.809009 219.564644 
L 355.27863 219.339855 
L 361.01844 216.696149 
L 361.696782 216.407881 
L 362.009862 216.277468 
L 362.201189 216.198644 
L 363.418725 215.714043 
L 363.627445 215.634165 
L 364.11446 215.451757 
L 364.653654 215.256661 
L 364.931948 215.158944 
L 365.836403 214.856374 
L 366.062517 214.784517 
L 366.219057 214.735749 
L 370.723939 213.752424 
L 372.254555 213.625163 
L 372.793749 213.60715 
L 377.229058 213.9951 
L 377.976973 214.153267 
L 378.32484 214.235673 
L 378.53356 214.287783 
L 379.890243 214.674469 
L 380.13375 214.752534 
L 380.672944 214.934579 
L 381.264319 215.148603 
L 381.577399 215.267903 
L 382.829722 215.785667 
L 383.003655 215.862617 
L 388.012945 218.570507 
L 389.717495 219.692974 
L 390.308869 220.104434 
L 390.308869 141.456494 
L 390.308869 141.456494 
L 389.717495 142.842898 
L 388.012945 146.729431 
L 383.003655 157.16265 
L 382.829722 157.497136 
L 381.577399 159.847871 
L 381.264319 160.419565 
L 380.672944 161.481721 
L 380.13375 162.429774 
L 379.890243 162.851495 
L 378.53356 165.126829 
L 378.32484 165.46558 
L 377.976973 166.023396 
L 377.229058 167.193843 
L 372.793749 173.307587 
L 372.254555 173.953191 
L 370.723939 175.671257 
L 366.219057 179.787451 
L 366.062517 179.906954 
L 365.836403 180.076988 
L 364.931948 180.727506 
L 364.653654 180.918447 
L 364.11446 181.276565 
L 363.627445 181.58705 
L 363.418725 181.716463 
L 362.201189 182.429875 
L 362.009862 182.53582 
L 361.696782 182.705746 
L 361.01844 183.059764 
L 355.27863 185.420522 
L 354.809009 185.573776 
L 353.452326 185.991174 
L 350.773748 186.723726 
L 349.434458 187.054717 
L 349.295312 187.088035 
L 348.30389 187.320416 
L 348.042989 187.380237 
L 347.573368 187.486679 
L 347.138534 187.584111 
L 346.947207 187.626702 
L 345.868818 187.863051 
L 345.694885 187.900479 
L 345.416591 187.959885 
L 344.825216 188.083909 
L 337.780903 189.129525 
L 337.363462 189.160218 
L 336.16332 189.231873 
L 335.711092 189.253531 
L 332.667253 189.369693 
L 332.5455 189.374846 
L 331.658438 189.418178 
L 331.449718 189.43023 
L 331.032277 189.456996 
L 330.649623 189.485074 
L 330.475689 189.499085 
L 329.536447 189.590337 
L 329.379907 189.60839 
L 329.1364 189.63763 
L 328.614599 189.70324 
L 320.648437 190.630726 
L 320.265783 190.641622 
L 319.917916 190.646737 
L 318.891707 190.633783 
L 315.882655 190.340521 
L 315.778295 190.32364 
L 315.03038 190.190718 
L 314.839053 190.153505 
L 314.491185 190.082725 
L 314.160712 190.011966 
L 314.021565 189.981208 
L 313.204076 189.790262 
L 313.082323 189.760495 
L 312.873602 189.708779 
L 312.421375 189.594124 
L 305.585782 188.127477 
L 302.768057 188.229998 
L 302.472369 188.280988 
L 301.620094 188.45485 
L 299.11545 189.141218 
L 299.028483 189.168244 
L 298.402322 189.366275 
L 298.245781 189.416515 
L 297.950094 189.511925 
L 297.6718 189.602109 
L 297.550047 189.641619 
L 296.871705 189.861252 
L 296.767345 189.894836 
L 296.593412 189.950607 
L 296.228151 190.066694 
L 290.523127 191.477719 
L 285.252937 192.396236 
L 285.00943 192.456916 
L 284.331088 192.644812 
L 282.330851 193.402108 
L 282.261278 193.434753 
L 281.75687 193.676447 
L 281.635116 193.736079 
L 281.391609 193.856806 
L 281.182889 193.961808 
L 281.078529 194.014824 
L 280.539334 194.294044 
L 280.452368 194.339888 
L 280.313221 194.41369 
L 280.017533 194.572331 
L 275.460471 197.2726 
L 267.737817 202.821476 
L 267.563883 202.966628 
L 267.059475 203.394605 
L 265.546253 204.74598 
L 265.494073 204.79449 
L 265.128812 205.137779 
L 265.024452 205.237069 
L 264.850518 205.403755 
L 264.693978 205.554654 
L 264.624404 205.621848 
L 264.206963 206.026656 
L 264.154783 206.077453 
L 264.050423 206.179177 
L 263.824309 206.400167 
L 260.397816 209.839554 
L 250.24009 220.510354 
L 250.118337 220.635836 
L 249.770469 220.99314 
L 248.779047 222.000394 
L 248.744261 222.035408 
L 248.48336 222.297244 
L 248.43118 222.349445 
L 248.309427 222.471024 
L 248.205066 222.574982 
L 248.152886 222.626873 
L 247.874592 222.9026 
L 247.839806 222.936942 
L 247.770232 223.005529 
L 247.613692 223.159343 
L 245.335161 225.310298 
L 232.72497 233.489254 
L 232.67279 233.510132 
L 232.498857 233.579049 
L 231.994449 233.773093 
L 231.977056 233.779631 
L 231.855302 233.825118 
L 231.820515 233.838024 
L 231.768335 233.857307 
L 231.716155 233.876501 
L 231.681368 233.889246 
L 231.542221 233.93983 
L 231.524828 233.946109 
L 231.490041 233.958636 
L 231.420468 233.983571 
L 230.272506 234.372602 
z
" clip-path="url(#p119c975a58)" style="fill: #999999; fill-opacity: 0.4"/>
   </g>
   <g id="line2d_46">
    <path d="M 230.272506 264.396986 
L 232.72497 260.605456 
L 245.335161 243.197003 
L 250.24009 237.386198 
L 260.397816 227.089051 
L 265.546253 222.653481 
L 267.737817 220.944631 
L 275.460471 215.844282 
L 282.330851 212.261343 
L 285.252937 211.061004 
L 290.523127 209.622312 
L 299.11545 208.347123 
L 305.585782 207.546337 
L 313.204076 207.811363 
L 320.648437 208.6139 
L 329.379907 208.638736 
L 337.780903 207.542717 
L 345.868818 205.771767 
L 349.434458 204.587242 
L 355.27863 202.380188 
L 363.418725 198.715253 
L 366.219057 197.2616 
L 372.793749 193.457368 
L 380.13375 188.591154 
L 383.003655 186.512633 
L 390.308869 180.780464 
L 390.308869 180.780464 
" clip-path="url(#p119c975a58)" style="fill: none; stroke: #db5f57; stroke-width: 1.772454; stroke-linejoin: miter"/>
   </g>
   <g id="PolyCollection_5">
    <path d="M 230.272506 270.202694 
L 230.272506 277.804171 
L 231.420468 277.595534 
L 231.490041 277.583232 
L 231.524828 277.577096 
L 231.542221 277.574031 
L 231.681368 277.549605 
L 231.716155 277.543523 
L 231.768335 277.534419 
L 231.820515 277.525337 
L 231.855302 277.519295 
L 231.977056 277.498227 
L 231.994449 277.495227 
L 232.498857 277.409328 
L 232.67279 277.380201 
L 232.72497 277.371512 
L 245.335161 276.000054 
L 247.613692 275.90977 
L 247.770232 275.905166 
L 247.839806 275.903182 
L 247.874592 275.902205 
L 248.152886 275.894751 
L 248.205066 275.893424 
L 248.309427 275.890836 
L 248.43118 275.887928 
L 248.48336 275.886718 
L 248.744261 275.88099 
L 248.779047 275.880267 
L 249.770469 275.863482 
L 250.118337 275.859281 
L 250.24009 275.858009 
L 260.397816 276.009191 
L 263.824309 276.124837 
L 264.050423 276.132891 
L 264.154783 276.136619 
L 264.206963 276.138486 
L 264.624404 276.153472 
L 264.693978 276.155978 
L 264.850518 276.161625 
L 265.024452 276.167914 
L 265.128812 276.171696 
L 265.494073 276.184976 
L 265.546253 276.186879 
L 267.059475 276.242705 
L 267.563883 276.261626 
L 267.737817 276.268193 
L 275.460471 276.595456 
L 280.017533 276.809388 
L 280.313221 276.822448 
L 280.452368 276.828521 
L 280.539334 276.832291 
L 281.078529 276.855202 
L 281.182889 276.859537 
L 281.391609 276.868102 
L 281.635116 276.877911 
L 281.75687 276.882737 
L 282.261278 276.902142 
L 282.330851 276.90474 
L 284.331088 276.987048 
L 285.00943 277.018913 
L 285.252937 277.030902 
L 290.523127 277.378614 
L 296.228151 277.934461 
L 296.593412 277.971668 
L 296.767345 277.989236 
L 296.871705 277.999721 
L 297.550047 278.066642 
L 297.6718 278.078384 
L 297.950094 278.104861 
L 298.245781 278.132379 
L 298.402322 278.146667 
L 299.028483 278.201612 
L 299.11545 278.208937 
L 301.620094 278.377497 
L 302.472369 278.411335 
L 302.768057 278.419698 
L 305.585782 278.451573 
L 312.421375 278.320304 
L 312.873602 278.30751 
L 313.082323 278.301607 
L 313.204076 278.298169 
L 314.021565 278.275271 
L 314.160712 278.271422 
L 314.491185 278.262355 
L 314.839053 278.252939 
L 315.03038 278.247822 
L 315.778295 278.228291 
L 315.882655 278.225628 
L 318.891707 278.15526 
L 319.917916 278.133098 
L 320.265783 278.125584 
L 320.648437 278.117246 
L 328.614599 277.816572 
L 329.1364 277.780402 
L 329.379907 277.762516 
L 329.536447 277.750641 
L 330.475689 277.672687 
L 330.649623 277.65706 
L 331.032277 277.621461 
L 331.449718 277.580807 
L 331.658438 277.559808 
L 332.5455 277.465979 
L 332.667253 277.452565 
L 335.711092 277.086001 
L 336.16332 277.027904 
L 337.363462 276.871343 
L 337.780903 276.816358 
L 344.825216 275.910129 
L 345.416591 275.838987 
L 345.694885 275.805881 
L 345.868818 275.785316 
L 346.947207 275.660106 
L 347.138534 275.63833 
L 347.573368 275.589372 
L 348.042989 275.536608 
L 348.30389 275.507041 
L 349.295312 275.393155 
L 349.434458 275.37699 
L 350.773748 275.219418 
L 353.452326 274.896351 
L 354.809009 274.730684 
L 355.27863 274.673298 
L 361.01844 273.991951 
L 361.696782 273.916514 
L 362.009862 273.882258 
L 362.201189 273.861509 
L 363.418725 273.733072 
L 363.627445 273.711729 
L 364.11446 273.662767 
L 364.653654 273.609998 
L 364.931948 273.583386 
L 365.836403 273.500029 
L 366.062517 273.479978 
L 366.219057 273.466283 
L 370.723939 273.140112 
L 372.254555 273.061666 
L 372.793749 273.038135 
L 377.229058 272.92569 
L 377.976973 272.920678 
L 378.32484 272.919672 
L 378.53356 272.919468 
L 379.890243 272.925326 
L 380.13375 272.927674 
L 380.672944 272.934247 
L 381.264319 272.943605 
L 381.577399 272.949456 
L 382.829722 272.978927 
L 383.003655 272.983774 
L 388.012945 273.196816 
L 389.717495 273.299278 
L 390.308869 273.338099 
L 390.308869 263.382183 
L 390.308869 263.382183 
L 389.717495 263.570951 
L 388.012945 264.10257 
L 383.003655 265.553039 
L 382.829722 265.600276 
L 381.577399 265.933924 
L 381.264319 266.015545 
L 380.672944 266.167736 
L 380.13375 266.30422 
L 379.890243 266.365139 
L 378.53356 266.696262 
L 378.32484 266.745945 
L 377.976973 266.827995 
L 377.229058 267.001194 
L 372.793749 267.936678 
L 372.254555 268.039654 
L 370.723939 268.319478 
L 366.219057 269.042234 
L 366.062517 269.064884 
L 365.836403 269.097363 
L 364.931948 269.224765 
L 364.653654 269.263178 
L 364.11446 269.336584 
L 363.627445 269.40176 
L 363.418725 269.429373 
L 362.201189 269.586774 
L 362.009862 269.610957 
L 361.696782 269.650215 
L 361.01844 269.733975 
L 355.27863 270.379504 
L 354.809009 270.427835 
L 353.452326 270.563993 
L 350.773748 270.818187 
L 349.434458 270.938162 
L 349.295312 270.950356 
L 348.30389 271.03576 
L 348.042989 271.057801 
L 347.573368 271.097019 
L 347.138534 271.13395 
L 346.947207 271.15075 
L 345.868818 271.251245 
L 345.694885 271.268307 
L 345.416591 271.296054 
L 344.825216 271.356717 
L 337.780903 272.154565 
L 337.363462 272.200855 
L 336.16332 272.330639 
L 335.711092 272.378123 
L 332.667253 272.674321 
L 332.5455 272.685268 
L 331.658438 272.762858 
L 331.449718 272.780558 
L 331.032277 272.815318 
L 330.649623 272.846431 
L 330.475689 272.860335 
L 329.536447 272.932822 
L 329.379907 272.944475 
L 329.1364 272.962571 
L 328.614599 273.001747 
L 320.648437 273.564324 
L 320.265783 273.584396 
L 319.917916 273.601709 
L 318.891707 273.647286 
L 315.882655 273.72912 
L 315.778295 273.730518 
L 315.03038 273.737741 
L 314.839053 273.73881 
L 314.491185 273.739959 
L 314.160712 273.740116 
L 314.021565 273.739914 
L 313.204076 273.735644 
L 313.082323 273.734572 
L 312.873602 273.732481 
L 312.421375 273.726891 
L 305.585782 273.535169 
L 302.768057 273.454557 
L 302.472369 273.44754 
L 301.620094 273.42586 
L 299.11545 273.346448 
L 299.028483 273.343176 
L 298.402322 273.318415 
L 298.245781 273.311881 
L 297.950094 273.299145 
L 297.6718 273.286675 
L 297.550047 273.281067 
L 296.871705 273.248075 
L 296.767345 273.242728 
L 296.593412 273.233651 
L 296.228151 273.213908 
L 290.523127 272.784824 
L 285.252937 272.305416 
L 285.00943 272.286668 
L 284.331088 272.237825 
L 282.330851 272.13002 
L 282.261278 272.12738 
L 281.75687 272.10848 
L 281.635116 272.103976 
L 281.391609 272.095035 
L 281.182889 272.087437 
L 281.078529 272.08366 
L 280.539334 272.064366 
L 280.452368 272.061286 
L 280.313221 272.056377 
L 280.017533 272.046011 
L 275.460471 271.893538 
L 267.737817 271.679831 
L 267.563883 271.676851 
L 267.059475 271.668987 
L 265.546253 271.653116 
L 265.494073 271.652792 
L 265.128812 271.650974 
L 265.024452 271.6506 
L 264.850518 271.650121 
L 264.693978 271.649776 
L 264.624404 271.649625 
L 264.206963 271.648744 
L 264.154783 271.648636 
L 264.050423 271.648424 
L 263.824309 271.647973 
L 260.397816 271.642019 
L 250.24009 271.585437 
L 250.118337 271.583712 
L 249.770469 271.578549 
L 248.779047 271.561798 
L 248.744261 271.561153 
L 248.48336 271.556175 
L 248.43118 271.555151 
L 248.309427 271.552724 
L 248.205066 271.550602 
L 248.152886 271.549526 
L 247.874592 271.543617 
L 247.839806 271.542858 
L 247.770232 271.541323 
L 247.613692 271.537783 
L 245.335161 271.471555 
L 232.72497 270.506319 
L 232.67279 270.500216 
L 232.498857 270.479756 
L 231.994449 270.419433 
L 231.977056 270.417327 
L 231.855302 270.402536 
L 231.820515 270.398294 
L 231.768335 270.391919 
L 231.716155 270.385528 
L 231.681368 270.38126 
L 231.542221 270.364115 
L 231.524828 270.361965 
L 231.490041 270.357658 
L 231.420468 270.349025 
L 230.272506 270.202694 
z
" clip-path="url(#p119c975a58)" style="fill: #999999; fill-opacity: 0.4"/>
   </g>
   <g id="line2d_47">
    <path d="M 230.272506 274.003433 
L 232.72497 273.938916 
L 250.24009 273.721723 
L 267.737817 273.974012 
L 285.252937 274.668159 
L 302.768057 275.937128 
L 312.421375 276.023597 
L 320.265783 275.85499 
L 320.648437 275.840785 
L 331.658438 275.161333 
L 337.780903 274.485461 
L 350.773748 273.018803 
L 366.219057 271.254259 
L 390.308869 268.360141 
L 390.308869 268.360141 
" clip-path="url(#p119c975a58)" style="fill: none; stroke: #57db5f; stroke-width: 1.772454; stroke-linejoin: miter"/>
   </g>
   <g id="PolyCollection_6">
    <path d="M 230.272506 249.175333 
L 230.272506 283.771944 
L 231.420468 282.757773 
L 231.490041 282.697721 
L 231.524828 282.667756 
L 231.542221 282.652789 
L 231.681368 282.533421 
L 231.716155 282.503681 
L 231.768335 282.459149 
L 231.820515 282.414709 
L 231.855302 282.385134 
L 231.977056 282.281945 
L 231.994449 282.267245 
L 232.498857 281.845458 
L 232.67279 281.702049 
L 232.72497 281.659231 
L 245.335161 274.310569 
L 247.613692 273.625002 
L 247.770232 273.58425 
L 247.839806 273.566386 
L 247.874592 273.55751 
L 248.152886 273.487775 
L 248.205066 273.474949 
L 248.309427 273.449531 
L 248.43118 273.420266 
L 248.48336 273.407851 
L 248.744261 273.346913 
L 248.779047 273.338929 
L 249.770469 273.12486 
L 250.118337 273.055663 
L 250.24009 273.032138 
L 260.397816 271.967377 
L 263.824309 271.842534 
L 264.050423 271.83626 
L 264.154783 271.833429 
L 264.206963 271.832029 
L 264.624404 271.821174 
L 264.693978 271.819422 
L 264.850518 271.81554 
L 265.024452 271.811138 
L 265.128812 271.808369 
L 265.494073 271.797938 
L 265.546253 271.796356 
L 267.059475 271.74129 
L 267.563883 271.719521 
L 267.737817 271.711694 
L 275.460471 271.347952 
L 280.017533 271.183942 
L 280.313221 271.171531 
L 280.452368 271.165494 
L 280.539334 271.161652 
L 281.078529 271.136541 
L 281.182889 271.131401 
L 281.391609 271.120825 
L 281.635116 271.107957 
L 281.75687 271.101298 
L 282.261278 271.071994 
L 282.330851 271.067722 
L 284.331088 270.893152 
L 285.00943 270.816582 
L 285.252937 270.78778 
L 290.523127 270.223413 
L 296.228151 270.28176 
L 296.593412 270.308797 
L 296.767345 270.322157 
L 296.871705 270.330299 
L 297.550047 270.384912 
L 297.6718 270.394909 
L 297.950094 270.417821 
L 298.245781 270.442098 
L 298.402322 270.454851 
L 299.028483 270.504431 
L 299.11545 270.511059 
L 301.620094 270.64522 
L 302.472369 270.652195 
L 302.768057 270.648399 
L 305.585782 270.522349 
L 312.421375 270.04907 
L 312.873602 270.033582 
L 313.082323 270.027747 
L 313.204076 270.02474 
L 314.021565 270.012483 
L 314.160712 270.01182 
L 314.491185 270.011962 
L 314.839053 270.014764 
L 315.03038 270.01748 
L 315.778295 270.036184 
L 315.882655 270.039821 
L 318.891707 270.246887 
L 319.917916 270.35584 
L 320.265783 270.395941 
L 320.648437 270.441515 
L 328.614599 271.1591 
L 329.1364 271.148907 
L 329.379907 271.140099 
L 329.536447 271.133281 
L 330.475689 271.080431 
L 330.649623 271.068549 
L 331.032277 271.040308 
L 331.449718 271.006417 
L 331.658438 270.988351 
L 332.5455 270.904197 
L 332.667253 270.89181 
L 335.711092 270.53984 
L 336.16332 270.483552 
L 337.363462 270.332877 
L 337.780903 270.280378 
L 344.825216 269.370224 
L 345.416591 269.281515 
L 345.694885 269.238329 
L 345.868818 269.210835 
L 346.947207 269.030981 
L 347.138534 268.997268 
L 347.573368 268.918504 
L 348.042989 268.831341 
L 348.30389 268.782534 
L 349.295312 268.594854 
L 349.434458 268.568263 
L 350.773748 268.309901 
L 353.452326 267.787297 
L 354.809009 267.524927 
L 355.27863 267.435245 
L 361.01844 266.450876 
L 361.696782 266.356365 
L 362.009862 266.314933 
L 362.201189 266.290331 
L 363.418725 266.147534 
L 363.627445 266.125609 
L 364.11446 266.077585 
L 364.653654 266.029782 
L 364.931948 266.007422 
L 365.836403 265.946302 
L 366.062517 265.933915 
L 366.219057 265.926054 
L 370.723939 265.983889 
L 372.254555 266.140802 
L 372.793749 266.213665 
L 377.229058 267.163162 
L 377.976973 267.383808 
L 378.32484 267.492211 
L 378.53356 267.558996 
L 379.890243 268.024502 
L 380.13375 268.113729 
L 380.672944 268.317334 
L 381.264319 268.550076 
L 381.577399 268.677235 
L 382.829722 269.212595 
L 383.003655 269.290275 
L 388.012945 271.853768 
L 389.717495 272.86031 
L 390.308869 273.224331 
L 390.308869 227.911958 
L 390.308869 227.911958 
L 389.717495 228.583762 
L 388.012945 230.463114 
L 383.003655 235.470764 
L 382.829722 235.63013 
L 381.577399 236.747432 
L 381.264319 237.018385 
L 380.672944 237.520902 
L 380.13375 237.968395 
L 379.890243 238.167116 
L 378.53356 239.235311 
L 378.32484 239.393717 
L 377.976973 239.654173 
L 377.229058 240.198997 
L 372.793749 242.995398 
L 372.254555 243.284117 
L 370.723939 244.043733 
L 366.219057 245.790876 
L 366.062517 245.83949 
L 365.836403 245.90844 
L 364.931948 246.170027 
L 364.653654 246.246098 
L 364.11446 246.387826 
L 363.627445 246.509639 
L 363.418725 246.560104 
L 362.201189 246.834728 
L 362.009862 246.874956 
L 361.696782 246.939153 
L 361.01844 247.071545 
L 355.27863 247.892896 
L 354.809009 247.941364 
L 353.452326 248.069431 
L 350.773748 248.278573 
L 349.434458 248.365819 
L 349.295312 248.374337 
L 348.30389 248.432386 
L 348.042989 248.446942 
L 347.573368 248.47245 
L 347.138534 248.496478 
L 346.947207 248.507545 
L 345.868818 248.574911 
L 345.694885 248.58646 
L 345.416591 248.605258 
L 344.825216 248.646272 
L 337.780903 249.063155 
L 337.363462 249.076081 
L 336.16332 249.104881 
L 335.711092 249.112868 
L 332.667253 249.144584 
L 332.5455 249.145741 
L 331.658438 249.155988 
L 331.449718 249.159035 
L 331.032277 249.166107 
L 330.649623 249.173928 
L 330.475689 249.177965 
L 329.536447 249.205936 
L 329.379907 249.21174 
L 329.1364 249.221507 
L 328.614599 249.245382 
L 320.648437 249.719795 
L 320.265783 249.727627 
L 319.917916 249.732122 
L 318.891707 249.729738 
L 315.882655 249.574858 
L 315.778295 249.565467 
L 315.03038 249.490742 
L 314.839053 249.469605 
L 314.491185 249.429175 
L 314.160712 249.388478 
L 314.021565 249.370706 
L 313.204076 249.259317 
L 313.082323 249.241793 
L 312.873602 249.211247 
L 312.421375 249.143065 
L 305.585782 248.146312 
L 302.768057 248.050546 
L 302.472369 248.060469 
L 301.620094 248.108831 
L 299.11545 248.380406 
L 299.028483 248.392227 
L 298.402322 248.480025 
L 298.245781 248.50256 
L 297.950094 248.545562 
L 297.6718 248.586395 
L 297.550047 248.604322 
L 296.871705 248.704123 
L 296.767345 248.719369 
L 296.593412 248.744656 
L 296.228151 248.797105 
L 290.523127 249.315692 
L 285.252937 249.280671 
L 285.00943 249.278709 
L 284.331088 249.278006 
L 282.330851 249.336532 
L 282.261278 249.340616 
L 281.75687 249.372214 
L 281.635116 249.380343 
L 281.391609 249.397158 
L 281.182889 249.412139 
L 281.078529 249.419818 
L 280.539334 249.461389 
L 280.452368 249.468375 
L 280.313221 249.479704 
L 280.017533 249.504376 
L 275.460471 249.948104 
L 267.737817 250.828677 
L 267.563883 250.852828 
L 267.059475 250.924922 
L 265.546253 251.161832 
L 265.494073 251.170604 
L 265.128812 251.233204 
L 265.024452 251.251478 
L 264.850518 251.282326 
L 264.693978 251.310339 
L 264.624404 251.322809 
L 264.206963 251.397861 
L 264.154783 251.407269 
L 264.050423 251.426101 
L 263.824309 251.466975 
L 260.397816 252.091061 
L 250.24009 253.586376 
L 250.118337 253.596261 
L 249.770469 253.622839 
L 248.779047 253.68428 
L 248.744261 253.686031 
L 248.48336 253.698247 
L 248.43118 253.700493 
L 248.309427 253.705477 
L 248.205066 253.709458 
L 248.152886 253.711347 
L 247.874592 253.720259 
L 247.839806 253.721234 
L 247.770232 253.723087 
L 247.613692 253.726772 
L 245.335161 253.700008 
L 232.72497 250.413671 
L 232.67279 250.389165 
L 232.498857 250.306886 
L 231.994449 250.063174 
L 231.977056 250.054636 
L 231.855302 249.994618 
L 231.820515 249.97739 
L 231.768335 249.951481 
L 231.716155 249.925493 
L 231.681368 249.908123 
L 231.542221 249.838291 
L 231.524828 249.829522 
L 231.490041 249.811958 
L 231.420468 249.776725 
L 230.272506 249.175333 
z
" clip-path="url(#p119c975a58)" style="fill: #999999; fill-opacity: 0.4"/>
   </g>
   <g id="line2d_48">
    <path d="M 230.272506 266.473639 
L 232.72497 266.036451 
L 250.24009 263.309257 
L 265.546253 261.479094 
L 267.737817 261.270185 
L 282.330851 260.202127 
L 290.523127 259.769553 
L 302.768057 259.349472 
L 305.585782 259.33433 
L 315.882655 259.80734 
L 320.648437 260.080655 
L 330.475689 260.129198 
L 337.363462 259.704479 
L 337.780903 259.671766 
L 349.434458 258.467041 
L 355.27863 257.664071 
L 366.219057 255.858465 
L 377.229058 253.681079 
L 383.003655 252.38052 
L 390.308869 250.568144 
L 390.308869 250.568144 
" clip-path="url(#p119c975a58)" style="fill: none; stroke: #5f57db; stroke-width: 1.772454; stroke-linejoin: miter"/>
   </g>
   <g id="LineCollection_2">
    <path d="M 222.270688 272.466867 
L 398.310687 272.466867 
" clip-path="url(#p119c975a58)" style="fill: none; stroke-dasharray: 3.27904,1.417963; stroke-dashoffset: 0; stroke: #000000; stroke-width: 0.886227"/>
   </g>
   <g id="patch_12">
    <path d="M 222.270688 40.405371 
L 398.310687 40.405371 
L 398.310687 26.105371 
L 222.270688 26.105371 
z
" style="fill: #d9d9d9"/>
   </g>
   <g id="text_19">
    <!-- Signal Removed -->
    <g style="fill: #1a1a1a" transform="translate(274.726313 35.683621)scale(0.088 -0.088)">
     <defs>
      <path id="DejaVuSans-52" d="M 2841 2188 
Q 3044 2119 3236 1894 
Q 3428 1669 3622 1275 
L 4263 0 
L 3584 0 
L 2988 1197 
Q 2756 1666 2539 1819 
Q 2322 1972 1947 1972 
L 1259 1972 
L 1259 0 
L 628 0 
L 628 4666 
L 2053 4666 
Q 2853 4666 3247 4331 
Q 3641 3997 3641 3322 
Q 3641 2881 3436 2590 
Q 3231 2300 2841 2188 
z
M 1259 4147 
L 1259 2491 
L 2053 2491 
Q 2509 2491 2742 2702 
Q 2975 2913 2975 3322 
Q 2975 3731 2742 3939 
Q 2509 4147 2053 4147 
L 1259 4147 
z
" transform="scale(0.015625)"/>
     </defs>
     <use xlink:href="#DejaVuSans-53"/>
     <use xlink:href="#DejaVuSans-69" x="63.476562"/>
     <use xlink:href="#DejaVuSans-67" x="91.259766"/>
     <use xlink:href="#DejaVuSans-6e" x="154.736328"/>
     <use xlink:href="#DejaVuSans-61" x="218.115234"/>
     <use xlink:href="#DejaVuSans-6c" x="279.394531"/>
     <use xlink:href="#DejaVuSans-20" x="307.177734"/>
     <use xlink:href="#DejaVuSans-52" x="338.964844"/>
     <use xlink:href="#DejaVuSans-65" x="403.947266"/>
     <use xlink:href="#DejaVuSans-6d" x="465.470703"/>
     <use xlink:href="#DejaVuSans-6f" x="562.882812"/>
     <use xlink:href="#DejaVuSans-76" x="624.064453"/>
     <use xlink:href="#DejaVuSans-65" x="683.244141"/>
     <use xlink:href="#DejaVuSans-64" x="744.767578"/>
    </g>
   </g>
  </g>
  <g id="text_20">
   <!-- Recount3 21-Class Tissue Prediction -->
   <g transform="translate(94.822531 17.229938)scale(0.132 -0.132)">
    <defs>
     <path id="DejaVuSans-33" d="M 2597 2516 
Q 3050 2419 3304 2112 
Q 3559 1806 3559 1356 
Q 3559 666 3084 287 
Q 2609 -91 1734 -91 
Q 1441 -91 1130 -33 
Q 819 25 488 141 
L 488 750 
Q 750 597 1062 519 
Q 1375 441 1716 441 
Q 2309 441 2620 675 
Q 2931 909 2931 1356 
Q 2931 1769 2642 2001 
Q 2353 2234 1838 2234 
L 1294 2234 
L 1294 2753 
L 1863 2753 
Q 2328 2753 2575 2939 
Q 2822 3125 2822 3475 
Q 2822 3834 2567 4026 
Q 2313 4219 1838 4219 
Q 1578 4219 1281 4162 
Q 984 4106 628 3988 
L 628 4550 
Q 988 4650 1302 4700 
Q 1616 4750 1894 4750 
Q 2613 4750 3031 4423 
Q 3450 4097 3450 3541 
Q 3450 3153 3228 2886 
Q 3006 2619 2597 2516 
z
" transform="scale(0.015625)"/>
     <path id="DejaVuSans-2d" d="M 313 2009 
L 1997 2009 
L 1997 1497 
L 313 1497 
L 313 2009 
z
" transform="scale(0.015625)"/>
     <path id="DejaVuSans-73" d="M 2834 3397 
L 2834 2853 
Q 2591 2978 2328 3040 
Q 2066 3103 1784 3103 
Q 1356 3103 1142 2972 
Q 928 2841 928 2578 
Q 928 2378 1081 2264 
Q 1234 2150 1697 2047 
L 1894 2003 
Q 2506 1872 2764 1633 
Q 3022 1394 3022 966 
Q 3022 478 2636 193 
Q 2250 -91 1575 -91 
Q 1294 -91 989 -36 
Q 684 19 347 128 
L 347 722 
Q 666 556 975 473 
Q 1284 391 1588 391 
Q 1994 391 2212 530 
Q 2431 669 2431 922 
Q 2431 1156 2273 1281 
Q 2116 1406 1581 1522 
L 1381 1569 
Q 847 1681 609 1914 
Q 372 2147 372 2553 
Q 372 3047 722 3315 
Q 1072 3584 1716 3584 
Q 2034 3584 2315 3537 
Q 2597 3491 2834 3397 
z
" transform="scale(0.015625)"/>
     <path id="DejaVuSans-50" d="M 1259 4147 
L 1259 2394 
L 2053 2394 
Q 2494 2394 2734 2622 
Q 2975 2850 2975 3272 
Q 2975 3691 2734 3919 
Q 2494 4147 2053 4147 
L 1259 4147 
z
M 628 4666 
L 2053 4666 
Q 2838 4666 3239 4311 
Q 3641 3956 3641 3272 
Q 3641 2581 3239 2228 
Q 2838 1875 2053 1875 
L 1259 1875 
L 1259 0 
L 628 0 
L 628 4666 
z
" transform="scale(0.015625)"/>
    </defs>
    <use xlink:href="#DejaVuSans-52"/>
    <use xlink:href="#DejaVuSans-65" x="64.982422"/>
    <use xlink:href="#DejaVuSans-63" x="126.505859"/>
    <use xlink:href="#DejaVuSans-6f" x="181.486328"/>
    <use xlink:href="#DejaVuSans-75" x="242.667969"/>
    <use xlink:href="#DejaVuSans-6e" x="306.046875"/>
    <use xlink:href="#DejaVuSans-74" x="369.425781"/>
    <use xlink:href="#DejaVuSans-33" x="408.634766"/>
    <use xlink:href="#DejaVuSans-20" x="472.257812"/>
    <use xlink:href="#DejaVuSans-32" x="504.044922"/>
    <use xlink:href="#DejaVuSans-31" x="567.667969"/>
    <use xlink:href="#DejaVuSans-2d" x="631.291016"/>
    <use xlink:href="#DejaVuSans-43" x="667.375"/>
    <use xlink:href="#DejaVuSans-6c" x="737.199219"/>
    <use xlink:href="#DejaVuSans-61" x="764.982422"/>
    <use xlink:href="#DejaVuSans-73" x="826.261719"/>
    <use xlink:href="#DejaVuSans-73" x="878.361328"/>
    <use xlink:href="#DejaVuSans-20" x="930.460938"/>
    <use xlink:href="#DejaVuSans-54" x="962.248047"/>
    <use xlink:href="#DejaVuSans-69" x="1020.207031"/>
    <use xlink:href="#DejaVuSans-73" x="1047.990234"/>
    <use xlink:href="#DejaVuSans-73" x="1100.089844"/>
    <use xlink:href="#DejaVuSans-75" x="1152.189453"/>
    <use xlink:href="#DejaVuSans-65" x="1215.568359"/>
    <use xlink:href="#DejaVuSans-20" x="1277.091797"/>
    <use xlink:href="#DejaVuSans-50" x="1308.878906"/>
    <use xlink:href="#DejaVuSans-72" x="1367.431641"/>
    <use xlink:href="#DejaVuSans-65" x="1406.294922"/>
    <use xlink:href="#DejaVuSans-64" x="1467.818359"/>
    <use xlink:href="#DejaVuSans-69" x="1531.294922"/>
    <use xlink:href="#DejaVuSans-63" x="1559.078125"/>
    <use xlink:href="#DejaVuSans-74" x="1614.058594"/>
    <use xlink:href="#DejaVuSans-69" x="1653.267578"/>
    <use xlink:href="#DejaVuSans-6f" x="1681.050781"/>
    <use xlink:href="#DejaVuSans-6e" x="1742.232422"/>
   </g>
  </g>
 </g>
 <defs>
  <clipPath id="p411fe35ee8">
   <rect x="41.190688" y="40.405371" width="176.04" height="266.112"/>
  </clipPath>
  <clipPath id="pa4a9bfed59">
   <path d="M 417.710688 169.336339 
L 417.710688 153.496339 
L 433.550687 153.496339 
L 433.550687 169.336339 
"/>
  </clipPath>
  <clipPath id="p484a11285d">
   <path d="M 417.710688 187.176339 
L 417.710688 171.336339 
L 433.550687 171.336339 
L 433.550687 187.176339 
"/>
  </clipPath>
  <clipPath id="pffc80f014b">
   <path d="M 417.710688 205.016339 
L 417.710688 189.176339 
L 433.550687 189.176339 
L 433.550687 205.016339 
"/>
  </clipPath>
  <clipPath id="p119c975a58">
   <rect x="222.270688" y="40.405371" width="176.04" height="266.112"/>
  </clipPath>
 </defs>
</svg>
