<?xml version="1.0" encoding="utf-8" standalone="no"?>
<!DOCTYPE svg PUBLIC "-//W3C//DTD SVG 1.1//EN"
  "http://www.w3.org/Graphics/SVG/1.1/DTD/svg11.dtd">
<svg xmlns:xlink="http://www.w3.org/1999/xlink" width="548.024813pt" height="327.930058pt" viewBox="0 0 548.024813 327.930058" xmlns="http://www.w3.org/2000/svg" version="1.1">
 <metadata>
  <rdf:RDF xmlns:dc="http://purl.org/dc/elements/1.1/" xmlns:cc="http://creativecommons.org/ns#" xmlns:rdf="http://www.w3.org/1999/02/22-rdf-syntax-ns#">
   <cc:Work>
    <dc:type rdf:resource="http://purl.org/dc/dcmitype/StillImage"/>
    <dc:date>2023-01-30T07:36:59.920601</dc:date>
    <dc:format>image/svg+xml</dc:format>
    <dc:creator>
     <cc:Agent>
      <dc:title>Matplotlib v3.5.1, https://matplotlib.org/</dc:title>
     </cc:Agent>
    </dc:creator>
   </cc:Work>
  </rdf:RDF>
 </metadata>
 <defs>
  <style type="text/css">*{stroke-linejoin: round; stroke-linecap: butt}</style>
 </defs>
 <g id="figure_1">
  <g id="patch_1">
   <path d="M 0 327.930058 
L 548.024813 327.930058 
L 548.024813 0 
L 0 0 
z
" style="fill: #ffffff; stroke: #ffffff; stroke-linejoin: miter"/>
  </g>
  <g id="axes_1">
   <g id="patch_2">
    <path d="M 41.190688 292.217371 
L 398.310688 292.217371 
L 398.310688 26.105371 
L 41.190688 26.105371 
z
" style="fill: #ebebeb"/>
   </g>
   <g id="matplotlib.axis_1">
    <g id="xtick_1">
     <g id="line2d_1">
      <path d="M 115.113903 292.217371 
L 115.113903 26.105371 
" clip-path="url(#pd5c02ad3e0)" style="fill: none; stroke: #ffffff"/>
     </g>
     <g id="line2d_2">
      <path d="M 115.113903 292.217371 
" style="fill: none; stroke: #333333; stroke-width: 1.5"/>
      <defs>
       <path id="mce0efcc00b" d="M 0 0 
L 0 2.75 
" style="stroke: #000000"/>
      </defs>
      <g>
       <use xlink:href="#mce0efcc00b" x="115.113903" y="292.217371" style="fill: #333333; stroke: #000000"/>
      </g>
     </g>
     <g id="text_1">
      <!-- 2500 -->
      <g style="fill: #4d4d4d" transform="translate(103.915903 303.853996)scale(0.088 -0.088)">
       <defs>
        <path id="DejaVuSans-32" d="M 1228 531 
L 3431 531 
L 3431 0 
L 469 0 
L 469 531 
Q 828 903 1448 1529 
Q 2069 2156 2228 2338 
Q 2531 2678 2651 2914 
Q 2772 3150 2772 3378 
Q 2772 3750 2511 3984 
Q 2250 4219 1831 4219 
Q 1534 4219 1204 4116 
Q 875 4013 500 3803 
L 500 4441 
Q 881 4594 1212 4672 
Q 1544 4750 1819 4750 
Q 2544 4750 2975 4387 
Q 3406 4025 3406 3419 
Q 3406 3131 3298 2873 
Q 3191 2616 2906 2266 
Q 2828 2175 2409 1742 
Q 1991 1309 1228 531 
z
" transform="scale(0.015625)"/>
        <path id="DejaVuSans-35" d="M 691 4666 
L 3169 4666 
L 3169 4134 
L 1269 4134 
L 1269 2991 
Q 1406 3038 1543 3061 
Q 1681 3084 1819 3084 
Q 2600 3084 3056 2656 
Q 3513 2228 3513 1497 
Q 3513 744 3044 326 
Q 2575 -91 1722 -91 
Q 1428 -91 1123 -41 
Q 819 9 494 109 
L 494 744 
Q 775 591 1075 516 
Q 1375 441 1709 441 
Q 2250 441 2565 725 
Q 2881 1009 2881 1497 
Q 2881 1984 2565 2268 
Q 2250 2553 1709 2553 
Q 1456 2553 1204 2497 
Q 953 2441 691 2322 
L 691 4666 
z
" transform="scale(0.015625)"/>
        <path id="DejaVuSans-30" d="M 2034 4250 
Q 1547 4250 1301 3770 
Q 1056 3291 1056 2328 
Q 1056 1369 1301 889 
Q 1547 409 2034 409 
Q 2525 409 2770 889 
Q 3016 1369 3016 2328 
Q 3016 3291 2770 3770 
Q 2525 4250 2034 4250 
z
M 2034 4750 
Q 2819 4750 3233 4129 
Q 3647 3509 3647 2328 
Q 3647 1150 3233 529 
Q 2819 -91 2034 -91 
Q 1250 -91 836 529 
Q 422 1150 422 2328 
Q 422 3509 836 4129 
Q 1250 4750 2034 4750 
z
" transform="scale(0.015625)"/>
       </defs>
       <use xlink:href="#DejaVuSans-32"/>
       <use xlink:href="#DejaVuSans-35" x="63.623047"/>
       <use xlink:href="#DejaVuSans-30" x="127.246094"/>
       <use xlink:href="#DejaVuSans-30" x="190.869141"/>
      </g>
     </g>
    </g>
    <g id="xtick_2">
     <g id="line2d_3">
      <path d="M 203.325659 292.217371 
L 203.325659 26.105371 
" clip-path="url(#pd5c02ad3e0)" style="fill: none; stroke: #ffffff"/>
     </g>
     <g id="line2d_4">
      <path d="M 203.325659 292.217371 
" style="fill: none; stroke: #333333; stroke-width: 1.5"/>
      <g>
       <use xlink:href="#mce0efcc00b" x="203.325659" y="292.217371" style="fill: #333333; stroke: #000000"/>
      </g>
     </g>
     <g id="text_2">
      <!-- 5000 -->
      <g style="fill: #4d4d4d" transform="translate(192.127659 303.853996)scale(0.088 -0.088)">
       <use xlink:href="#DejaVuSans-35"/>
       <use xlink:href="#DejaVuSans-30" x="63.623047"/>
       <use xlink:href="#DejaVuSans-30" x="127.246094"/>
       <use xlink:href="#DejaVuSans-30" x="190.869141"/>
      </g>
     </g>
    </g>
    <g id="xtick_3">
     <g id="line2d_5">
      <path d="M 291.537414 292.217371 
L 291.537414 26.105371 
" clip-path="url(#pd5c02ad3e0)" style="fill: none; stroke: #ffffff"/>
     </g>
     <g id="line2d_6">
      <path d="M 291.537414 292.217371 
" style="fill: none; stroke: #333333; stroke-width: 1.5"/>
      <g>
       <use xlink:href="#mce0efcc00b" x="291.537414" y="292.217371" style="fill: #333333; stroke: #000000"/>
      </g>
     </g>
     <g id="text_3">
      <!-- 7500 -->
      <g style="fill: #4d4d4d" transform="translate(280.339414 303.853996)scale(0.088 -0.088)">
       <defs>
        <path id="DejaVuSans-37" d="M 525 4666 
L 3525 4666 
L 3525 4397 
L 1831 0 
L 1172 0 
L 2766 4134 
L 525 4134 
L 525 4666 
z
" transform="scale(0.015625)"/>
       </defs>
       <use xlink:href="#DejaVuSans-37"/>
       <use xlink:href="#DejaVuSans-35" x="63.623047"/>
       <use xlink:href="#DejaVuSans-30" x="127.246094"/>
       <use xlink:href="#DejaVuSans-30" x="190.869141"/>
      </g>
     </g>
    </g>
    <g id="xtick_4">
     <g id="line2d_7">
      <path d="M 379.74917 292.217371 
L 379.74917 26.105371 
" clip-path="url(#pd5c02ad3e0)" style="fill: none; stroke: #ffffff"/>
     </g>
     <g id="line2d_8">
      <path d="M 379.74917 292.217371 
" style="fill: none; stroke: #333333; stroke-width: 1.5"/>
      <g>
       <use xlink:href="#mce0efcc00b" x="379.74917" y="292.217371" style="fill: #333333; stroke: #000000"/>
      </g>
     </g>
     <g id="text_4">
      <!-- 10000 -->
      <g style="fill: #4d4d4d" transform="translate(365.75167 303.853996)scale(0.088 -0.088)">
       <defs>
        <path id="DejaVuSans-31" d="M 794 531 
L 1825 531 
L 1825 4091 
L 703 3866 
L 703 4441 
L 1819 4666 
L 2450 4666 
L 2450 531 
L 3481 531 
L 3481 0 
L 794 0 
L 794 531 
z
" transform="scale(0.015625)"/>
       </defs>
       <use xlink:href="#DejaVuSans-31"/>
       <use xlink:href="#DejaVuSans-30" x="63.623047"/>
       <use xlink:href="#DejaVuSans-30" x="127.246094"/>
       <use xlink:href="#DejaVuSans-30" x="190.869141"/>
       <use xlink:href="#DejaVuSans-30" x="254.492188"/>
      </g>
     </g>
    </g>
    <g id="xtick_5">
     <g id="line2d_9">
      <path d="M 71.008025 292.217371 
L 71.008025 26.105371 
" clip-path="url(#pd5c02ad3e0)" style="fill: none; stroke: #ffffff; stroke-width: 0.5"/>
     </g>
    </g>
    <g id="xtick_6">
     <g id="line2d_10">
      <path d="M 159.219781 292.217371 
L 159.219781 26.105371 
" clip-path="url(#pd5c02ad3e0)" style="fill: none; stroke: #ffffff; stroke-width: 0.5"/>
     </g>
    </g>
    <g id="xtick_7">
     <g id="line2d_11">
      <path d="M 247.431536 292.217371 
L 247.431536 26.105371 
" clip-path="url(#pd5c02ad3e0)" style="fill: none; stroke: #ffffff; stroke-width: 0.5"/>
     </g>
    </g>
    <g id="xtick_8">
     <g id="line2d_12">
      <path d="M 335.643292 292.217371 
L 335.643292 26.105371 
" clip-path="url(#pd5c02ad3e0)" style="fill: none; stroke: #ffffff; stroke-width: 0.5"/>
     </g>
    </g>
    <g id="text_5">
     <!-- Train Sample Count -->
     <g transform="translate(160.345063 318.442402)scale(0.11 -0.11)">
      <defs>
       <path id="DejaVuSans-54" d="M -19 4666 
L 3928 4666 
L 3928 4134 
L 2272 4134 
L 2272 0 
L 1638 0 
L 1638 4134 
L -19 4134 
L -19 4666 
z
" transform="scale(0.015625)"/>
       <path id="DejaVuSans-72" d="M 2631 2963 
Q 2534 3019 2420 3045 
Q 2306 3072 2169 3072 
Q 1681 3072 1420 2755 
Q 1159 2438 1159 1844 
L 1159 0 
L 581 0 
L 581 3500 
L 1159 3500 
L 1159 2956 
Q 1341 3275 1631 3429 
Q 1922 3584 2338 3584 
Q 2397 3584 2469 3576 
Q 2541 3569 2628 3553 
L 2631 2963 
z
" transform="scale(0.015625)"/>
       <path id="DejaVuSans-61" d="M 2194 1759 
Q 1497 1759 1228 1600 
Q 959 1441 959 1056 
Q 959 750 1161 570 
Q 1363 391 1709 391 
Q 2188 391 2477 730 
Q 2766 1069 2766 1631 
L 2766 1759 
L 2194 1759 
z
M 3341 1997 
L 3341 0 
L 2766 0 
L 2766 531 
Q 2569 213 2275 61 
Q 1981 -91 1556 -91 
Q 1019 -91 701 211 
Q 384 513 384 1019 
Q 384 1609 779 1909 
Q 1175 2209 1959 2209 
L 2766 2209 
L 2766 2266 
Q 2766 2663 2505 2880 
Q 2244 3097 1772 3097 
Q 1472 3097 1187 3025 
Q 903 2953 641 2809 
L 641 3341 
Q 956 3463 1253 3523 
Q 1550 3584 1831 3584 
Q 2591 3584 2966 3190 
Q 3341 2797 3341 1997 
z
" transform="scale(0.015625)"/>
       <path id="DejaVuSans-69" d="M 603 3500 
L 1178 3500 
L 1178 0 
L 603 0 
L 603 3500 
z
M 603 4863 
L 1178 4863 
L 1178 4134 
L 603 4134 
L 603 4863 
z
" transform="scale(0.015625)"/>
       <path id="DejaVuSans-6e" d="M 3513 2113 
L 3513 0 
L 2938 0 
L 2938 2094 
Q 2938 2591 2744 2837 
Q 2550 3084 2163 3084 
Q 1697 3084 1428 2787 
Q 1159 2491 1159 1978 
L 1159 0 
L 581 0 
L 581 3500 
L 1159 3500 
L 1159 2956 
Q 1366 3272 1645 3428 
Q 1925 3584 2291 3584 
Q 2894 3584 3203 3211 
Q 3513 2838 3513 2113 
z
" transform="scale(0.015625)"/>
       <path id="DejaVuSans-20" transform="scale(0.015625)"/>
       <path id="DejaVuSans-53" d="M 3425 4513 
L 3425 3897 
Q 3066 4069 2747 4153 
Q 2428 4238 2131 4238 
Q 1616 4238 1336 4038 
Q 1056 3838 1056 3469 
Q 1056 3159 1242 3001 
Q 1428 2844 1947 2747 
L 2328 2669 
Q 3034 2534 3370 2195 
Q 3706 1856 3706 1288 
Q 3706 609 3251 259 
Q 2797 -91 1919 -91 
Q 1588 -91 1214 -16 
Q 841 59 441 206 
L 441 856 
Q 825 641 1194 531 
Q 1563 422 1919 422 
Q 2459 422 2753 634 
Q 3047 847 3047 1241 
Q 3047 1584 2836 1778 
Q 2625 1972 2144 2069 
L 1759 2144 
Q 1053 2284 737 2584 
Q 422 2884 422 3419 
Q 422 4038 858 4394 
Q 1294 4750 2059 4750 
Q 2388 4750 2728 4690 
Q 3069 4631 3425 4513 
z
" transform="scale(0.015625)"/>
       <path id="DejaVuSans-6d" d="M 3328 2828 
Q 3544 3216 3844 3400 
Q 4144 3584 4550 3584 
Q 5097 3584 5394 3201 
Q 5691 2819 5691 2113 
L 5691 0 
L 5113 0 
L 5113 2094 
Q 5113 2597 4934 2840 
Q 4756 3084 4391 3084 
Q 3944 3084 3684 2787 
Q 3425 2491 3425 1978 
L 3425 0 
L 2847 0 
L 2847 2094 
Q 2847 2600 2669 2842 
Q 2491 3084 2119 3084 
Q 1678 3084 1418 2786 
Q 1159 2488 1159 1978 
L 1159 0 
L 581 0 
L 581 3500 
L 1159 3500 
L 1159 2956 
Q 1356 3278 1631 3431 
Q 1906 3584 2284 3584 
Q 2666 3584 2933 3390 
Q 3200 3197 3328 2828 
z
" transform="scale(0.015625)"/>
       <path id="DejaVuSans-70" d="M 1159 525 
L 1159 -1331 
L 581 -1331 
L 581 3500 
L 1159 3500 
L 1159 2969 
Q 1341 3281 1617 3432 
Q 1894 3584 2278 3584 
Q 2916 3584 3314 3078 
Q 3713 2572 3713 1747 
Q 3713 922 3314 415 
Q 2916 -91 2278 -91 
Q 1894 -91 1617 61 
Q 1341 213 1159 525 
z
M 3116 1747 
Q 3116 2381 2855 2742 
Q 2594 3103 2138 3103 
Q 1681 3103 1420 2742 
Q 1159 2381 1159 1747 
Q 1159 1113 1420 752 
Q 1681 391 2138 391 
Q 2594 391 2855 752 
Q 3116 1113 3116 1747 
z
" transform="scale(0.015625)"/>
       <path id="DejaVuSans-6c" d="M 603 4863 
L 1178 4863 
L 1178 0 
L 603 0 
L 603 4863 
z
" transform="scale(0.015625)"/>
       <path id="DejaVuSans-65" d="M 3597 1894 
L 3597 1613 
L 953 1613 
Q 991 1019 1311 708 
Q 1631 397 2203 397 
Q 2534 397 2845 478 
Q 3156 559 3463 722 
L 3463 178 
Q 3153 47 2828 -22 
Q 2503 -91 2169 -91 
Q 1331 -91 842 396 
Q 353 884 353 1716 
Q 353 2575 817 3079 
Q 1281 3584 2069 3584 
Q 2775 3584 3186 3129 
Q 3597 2675 3597 1894 
z
M 3022 2063 
Q 3016 2534 2758 2815 
Q 2500 3097 2075 3097 
Q 1594 3097 1305 2825 
Q 1016 2553 972 2059 
L 3022 2063 
z
" transform="scale(0.015625)"/>
       <path id="DejaVuSans-43" d="M 4122 4306 
L 4122 3641 
Q 3803 3938 3442 4084 
Q 3081 4231 2675 4231 
Q 1875 4231 1450 3742 
Q 1025 3253 1025 2328 
Q 1025 1406 1450 917 
Q 1875 428 2675 428 
Q 3081 428 3442 575 
Q 3803 722 4122 1019 
L 4122 359 
Q 3791 134 3420 21 
Q 3050 -91 2638 -91 
Q 1578 -91 968 557 
Q 359 1206 359 2328 
Q 359 3453 968 4101 
Q 1578 4750 2638 4750 
Q 3056 4750 3426 4639 
Q 3797 4528 4122 4306 
z
" transform="scale(0.015625)"/>
       <path id="DejaVuSans-6f" d="M 1959 3097 
Q 1497 3097 1228 2736 
Q 959 2375 959 1747 
Q 959 1119 1226 758 
Q 1494 397 1959 397 
Q 2419 397 2687 759 
Q 2956 1122 2956 1747 
Q 2956 2369 2687 2733 
Q 2419 3097 1959 3097 
z
M 1959 3584 
Q 2709 3584 3137 3096 
Q 3566 2609 3566 1747 
Q 3566 888 3137 398 
Q 2709 -91 1959 -91 
Q 1206 -91 779 398 
Q 353 888 353 1747 
Q 353 2609 779 3096 
Q 1206 3584 1959 3584 
z
" transform="scale(0.015625)"/>
       <path id="DejaVuSans-75" d="M 544 1381 
L 544 3500 
L 1119 3500 
L 1119 1403 
Q 1119 906 1312 657 
Q 1506 409 1894 409 
Q 2359 409 2629 706 
Q 2900 1003 2900 1516 
L 2900 3500 
L 3475 3500 
L 3475 0 
L 2900 0 
L 2900 538 
Q 2691 219 2414 64 
Q 2138 -91 1772 -91 
Q 1169 -91 856 284 
Q 544 659 544 1381 
z
M 1991 3584 
L 1991 3584 
z
" transform="scale(0.015625)"/>
       <path id="DejaVuSans-74" d="M 1172 4494 
L 1172 3500 
L 2356 3500 
L 2356 3053 
L 1172 3053 
L 1172 1153 
Q 1172 725 1289 603 
Q 1406 481 1766 481 
L 2356 481 
L 2356 0 
L 1766 0 
Q 1100 0 847 248 
Q 594 497 594 1153 
L 594 3053 
L 172 3053 
L 172 3500 
L 594 3500 
L 594 4494 
L 1172 4494 
z
" transform="scale(0.015625)"/>
      </defs>
      <use xlink:href="#DejaVuSans-54"/>
      <use xlink:href="#DejaVuSans-72" x="46.333984"/>
      <use xlink:href="#DejaVuSans-61" x="87.447266"/>
      <use xlink:href="#DejaVuSans-69" x="148.726562"/>
      <use xlink:href="#DejaVuSans-6e" x="176.509766"/>
      <use xlink:href="#DejaVuSans-20" x="239.888672"/>
      <use xlink:href="#DejaVuSans-53" x="271.675781"/>
      <use xlink:href="#DejaVuSans-61" x="335.152344"/>
      <use xlink:href="#DejaVuSans-6d" x="396.431641"/>
      <use xlink:href="#DejaVuSans-70" x="493.84375"/>
      <use xlink:href="#DejaVuSans-6c" x="557.320312"/>
      <use xlink:href="#DejaVuSans-65" x="585.103516"/>
      <use xlink:href="#DejaVuSans-20" x="646.626953"/>
      <use xlink:href="#DejaVuSans-43" x="678.414062"/>
      <use xlink:href="#DejaVuSans-6f" x="748.238281"/>
      <use xlink:href="#DejaVuSans-75" x="809.419922"/>
      <use xlink:href="#DejaVuSans-6e" x="872.798828"/>
      <use xlink:href="#DejaVuSans-74" x="936.177734"/>
     </g>
    </g>
   </g>
   <g id="matplotlib.axis_2">
    <g id="ytick_1">
     <g id="line2d_13">
      <path d="M 41.190688 231.675873 
L 398.310688 231.675873 
" clip-path="url(#pd5c02ad3e0)" style="fill: none; stroke: #ffffff"/>
     </g>
     <g id="line2d_14">
      <path d="M 41.190688 231.675873 
" style="fill: none; stroke: #333333; stroke-width: 1.5"/>
      <defs>
       <path id="m1cf50f1286" d="M 0 0 
L -2.75 0 
" style="stroke: #000000"/>
      </defs>
      <g>
       <use xlink:href="#m1cf50f1286" x="41.190688" y="231.675873" style="fill: #333333; stroke: #000000"/>
      </g>
     </g>
     <g id="text_6">
      <!-- 0.3 -->
      <g style="fill: #4d4d4d" transform="translate(22.245938 234.104123)scale(0.088 -0.088)">
       <defs>
        <path id="DejaVuSans-2e" d="M 684 794 
L 1344 794 
L 1344 0 
L 684 0 
L 684 794 
z
" transform="scale(0.015625)"/>
        <path id="DejaVuSans-33" d="M 2597 2516 
Q 3050 2419 3304 2112 
Q 3559 1806 3559 1356 
Q 3559 666 3084 287 
Q 2609 -91 1734 -91 
Q 1441 -91 1130 -33 
Q 819 25 488 141 
L 488 750 
Q 750 597 1062 519 
Q 1375 441 1716 441 
Q 2309 441 2620 675 
Q 2931 909 2931 1356 
Q 2931 1769 2642 2001 
Q 2353 2234 1838 2234 
L 1294 2234 
L 1294 2753 
L 1863 2753 
Q 2328 2753 2575 2939 
Q 2822 3125 2822 3475 
Q 2822 3834 2567 4026 
Q 2313 4219 1838 4219 
Q 1578 4219 1281 4162 
Q 984 4106 628 3988 
L 628 4550 
Q 988 4650 1302 4700 
Q 1616 4750 1894 4750 
Q 2613 4750 3031 4423 
Q 3450 4097 3450 3541 
Q 3450 3153 3228 2886 
Q 3006 2619 2597 2516 
z
" transform="scale(0.015625)"/>
       </defs>
       <use xlink:href="#DejaVuSans-30"/>
       <use xlink:href="#DejaVuSans-2e" x="63.623047"/>
       <use xlink:href="#DejaVuSans-33" x="95.410156"/>
      </g>
     </g>
    </g>
    <g id="ytick_2">
     <g id="line2d_15">
      <path d="M 41.190688 162.610005 
L 398.310688 162.610005 
" clip-path="url(#pd5c02ad3e0)" style="fill: none; stroke: #ffffff"/>
     </g>
     <g id="line2d_16">
      <path d="M 41.190688 162.610005 
" style="fill: none; stroke: #333333; stroke-width: 1.5"/>
      <g>
       <use xlink:href="#m1cf50f1286" x="41.190688" y="162.610005" style="fill: #333333; stroke: #000000"/>
      </g>
     </g>
     <g id="text_7">
      <!-- 0.5 -->
      <g style="fill: #4d4d4d" transform="translate(22.245938 165.038255)scale(0.088 -0.088)">
       <use xlink:href="#DejaVuSans-30"/>
       <use xlink:href="#DejaVuSans-2e" x="63.623047"/>
       <use xlink:href="#DejaVuSans-35" x="95.410156"/>
      </g>
     </g>
    </g>
    <g id="ytick_3">
     <g id="line2d_17">
      <path d="M 41.190688 93.544137 
L 398.310688 93.544137 
" clip-path="url(#pd5c02ad3e0)" style="fill: none; stroke: #ffffff"/>
     </g>
     <g id="line2d_18">
      <path d="M 41.190688 93.544137 
" style="fill: none; stroke: #333333; stroke-width: 1.5"/>
      <g>
       <use xlink:href="#m1cf50f1286" x="41.190688" y="93.544137" style="fill: #333333; stroke: #000000"/>
      </g>
     </g>
     <g id="text_8">
      <!-- 0.7 -->
      <g style="fill: #4d4d4d" transform="translate(22.245938 95.972387)scale(0.088 -0.088)">
       <use xlink:href="#DejaVuSans-30"/>
       <use xlink:href="#DejaVuSans-2e" x="63.623047"/>
       <use xlink:href="#DejaVuSans-37" x="95.410156"/>
      </g>
     </g>
    </g>
    <g id="ytick_4">
     <g id="line2d_19">
      <path d="M 41.190688 266.208807 
L 398.310688 266.208807 
" clip-path="url(#pd5c02ad3e0)" style="fill: none; stroke: #ffffff; stroke-width: 0.5"/>
     </g>
    </g>
    <g id="ytick_5">
     <g id="line2d_20">
      <path d="M 41.190688 197.142939 
L 398.310688 197.142939 
" clip-path="url(#pd5c02ad3e0)" style="fill: none; stroke: #ffffff; stroke-width: 0.5"/>
     </g>
    </g>
    <g id="ytick_6">
     <g id="line2d_21">
      <path d="M 41.190688 128.077071 
L 398.310688 128.077071 
" clip-path="url(#pd5c02ad3e0)" style="fill: none; stroke: #ffffff; stroke-width: 0.5"/>
     </g>
    </g>
    <g id="ytick_7">
     <g id="line2d_22">
      <path d="M 41.190688 59.011203 
L 398.310688 59.011203 
" clip-path="url(#pd5c02ad3e0)" style="fill: none; stroke: #ffffff; stroke-width: 0.5"/>
     </g>
    </g>
    <g id="text_9">
     <!-- Balanced Accuracy (Val Set) -->
     <g transform="translate(15.558281 234.774543)rotate(-90)scale(0.11 -0.11)">
      <defs>
       <path id="DejaVuSans-42" d="M 1259 2228 
L 1259 519 
L 2272 519 
Q 2781 519 3026 730 
Q 3272 941 3272 1375 
Q 3272 1813 3026 2020 
Q 2781 2228 2272 2228 
L 1259 2228 
z
M 1259 4147 
L 1259 2741 
L 2194 2741 
Q 2656 2741 2882 2914 
Q 3109 3088 3109 3444 
Q 3109 3797 2882 3972 
Q 2656 4147 2194 4147 
L 1259 4147 
z
M 628 4666 
L 2241 4666 
Q 2963 4666 3353 4366 
Q 3744 4066 3744 3513 
Q 3744 3084 3544 2831 
Q 3344 2578 2956 2516 
Q 3422 2416 3680 2098 
Q 3938 1781 3938 1306 
Q 3938 681 3513 340 
Q 3088 0 2303 0 
L 628 0 
L 628 4666 
z
" transform="scale(0.015625)"/>
       <path id="DejaVuSans-63" d="M 3122 3366 
L 3122 2828 
Q 2878 2963 2633 3030 
Q 2388 3097 2138 3097 
Q 1578 3097 1268 2742 
Q 959 2388 959 1747 
Q 959 1106 1268 751 
Q 1578 397 2138 397 
Q 2388 397 2633 464 
Q 2878 531 3122 666 
L 3122 134 
Q 2881 22 2623 -34 
Q 2366 -91 2075 -91 
Q 1284 -91 818 406 
Q 353 903 353 1747 
Q 353 2603 823 3093 
Q 1294 3584 2113 3584 
Q 2378 3584 2631 3529 
Q 2884 3475 3122 3366 
z
" transform="scale(0.015625)"/>
       <path id="DejaVuSans-64" d="M 2906 2969 
L 2906 4863 
L 3481 4863 
L 3481 0 
L 2906 0 
L 2906 525 
Q 2725 213 2448 61 
Q 2172 -91 1784 -91 
Q 1150 -91 751 415 
Q 353 922 353 1747 
Q 353 2572 751 3078 
Q 1150 3584 1784 3584 
Q 2172 3584 2448 3432 
Q 2725 3281 2906 2969 
z
M 947 1747 
Q 947 1113 1208 752 
Q 1469 391 1925 391 
Q 2381 391 2643 752 
Q 2906 1113 2906 1747 
Q 2906 2381 2643 2742 
Q 2381 3103 1925 3103 
Q 1469 3103 1208 2742 
Q 947 2381 947 1747 
z
" transform="scale(0.015625)"/>
       <path id="DejaVuSans-41" d="M 2188 4044 
L 1331 1722 
L 3047 1722 
L 2188 4044 
z
M 1831 4666 
L 2547 4666 
L 4325 0 
L 3669 0 
L 3244 1197 
L 1141 1197 
L 716 0 
L 50 0 
L 1831 4666 
z
" transform="scale(0.015625)"/>
       <path id="DejaVuSans-79" d="M 2059 -325 
Q 1816 -950 1584 -1140 
Q 1353 -1331 966 -1331 
L 506 -1331 
L 506 -850 
L 844 -850 
Q 1081 -850 1212 -737 
Q 1344 -625 1503 -206 
L 1606 56 
L 191 3500 
L 800 3500 
L 1894 763 
L 2988 3500 
L 3597 3500 
L 2059 -325 
z
" transform="scale(0.015625)"/>
       <path id="DejaVuSans-28" d="M 1984 4856 
Q 1566 4138 1362 3434 
Q 1159 2731 1159 2009 
Q 1159 1288 1364 580 
Q 1569 -128 1984 -844 
L 1484 -844 
Q 1016 -109 783 600 
Q 550 1309 550 2009 
Q 550 2706 781 3412 
Q 1013 4119 1484 4856 
L 1984 4856 
z
" transform="scale(0.015625)"/>
       <path id="DejaVuSans-56" d="M 1831 0 
L 50 4666 
L 709 4666 
L 2188 738 
L 3669 4666 
L 4325 4666 
L 2547 0 
L 1831 0 
z
" transform="scale(0.015625)"/>
       <path id="DejaVuSans-29" d="M 513 4856 
L 1013 4856 
Q 1481 4119 1714 3412 
Q 1947 2706 1947 2009 
Q 1947 1309 1714 600 
Q 1481 -109 1013 -844 
L 513 -844 
Q 928 -128 1133 580 
Q 1338 1288 1338 2009 
Q 1338 2731 1133 3434 
Q 928 4138 513 4856 
z
" transform="scale(0.015625)"/>
      </defs>
      <use xlink:href="#DejaVuSans-42"/>
      <use xlink:href="#DejaVuSans-61" x="68.603516"/>
      <use xlink:href="#DejaVuSans-6c" x="129.882812"/>
      <use xlink:href="#DejaVuSans-61" x="157.666016"/>
      <use xlink:href="#DejaVuSans-6e" x="218.945312"/>
      <use xlink:href="#DejaVuSans-63" x="282.324219"/>
      <use xlink:href="#DejaVuSans-65" x="337.304688"/>
      <use xlink:href="#DejaVuSans-64" x="398.828125"/>
      <use xlink:href="#DejaVuSans-20" x="462.304688"/>
      <use xlink:href="#DejaVuSans-41" x="494.091797"/>
      <use xlink:href="#DejaVuSans-63" x="560.75"/>
      <use xlink:href="#DejaVuSans-63" x="615.730469"/>
      <use xlink:href="#DejaVuSans-75" x="670.710938"/>
      <use xlink:href="#DejaVuSans-72" x="734.089844"/>
      <use xlink:href="#DejaVuSans-61" x="775.203125"/>
      <use xlink:href="#DejaVuSans-63" x="836.482422"/>
      <use xlink:href="#DejaVuSans-79" x="891.462891"/>
      <use xlink:href="#DejaVuSans-20" x="950.642578"/>
      <use xlink:href="#DejaVuSans-28" x="982.429688"/>
      <use xlink:href="#DejaVuSans-56" x="1021.443359"/>
      <use xlink:href="#DejaVuSans-61" x="1082.101562"/>
      <use xlink:href="#DejaVuSans-6c" x="1143.380859"/>
      <use xlink:href="#DejaVuSans-20" x="1171.164062"/>
      <use xlink:href="#DejaVuSans-53" x="1202.951172"/>
      <use xlink:href="#DejaVuSans-65" x="1266.427734"/>
      <use xlink:href="#DejaVuSans-74" x="1327.951172"/>
      <use xlink:href="#DejaVuSans-29" x="1367.160156"/>
     </g>
    </g>
   </g>
   <g id="PolyCollection_1">
    <path d="M 60.528469 193.290006 
L 60.528469 234.765549 
L 94.15479 171.090362 
L 127.781111 131.034915 
L 161.407432 106.177225 
L 195.069038 97.930654 
L 228.69536 92.877931 
L 262.321681 88.106359 
L 295.948002 81.957399 
L 329.574323 76.26472 
L 363.235929 79.693271 
L 363.235929 38.201371 
L 363.235929 38.201371 
L 329.574323 51.061925 
L 295.948002 55.796475 
L 262.321681 60.516499 
L 228.69536 65.2843 
L 195.069038 70.332453 
L 161.407432 78.580841 
L 127.781111 104.872319 
L 94.15479 145.886505 
L 60.528469 193.290006 
z
" clip-path="url(#pd5c02ad3e0)" style="fill: #999999; fill-opacity: 0.4"/>
   </g>
   <g id="line2d_23">
    <path d="M 60.528469 214.027777 
L 94.15479 158.488433 
L 127.781111 117.953617 
L 161.407432 92.379033 
L 195.069038 84.131554 
L 228.69536 79.081116 
L 262.321681 74.311429 
L 295.948002 68.876937 
L 329.574323 63.663322 
L 363.235929 58.947321 
" clip-path="url(#pd5c02ad3e0)" style="fill: none; stroke: #db5f57; stroke-width: 1.772454; stroke-linejoin: miter"/>
   </g>
   <g id="PolyCollection_2">
    <path d="M 60.528469 159.453051 
L 60.528469 185.665595 
L 94.15479 135.088936 
L 127.781111 103.399746 
L 161.407432 85.855547 
L 195.069038 80.976217 
L 228.69536 78.868028 
L 262.321681 77.835282 
L 295.948002 73.736784 
L 329.574323 68.809729 
L 363.235929 68.556422 
L 363.235929 42.333541 
L 363.235929 42.333541 
L 329.574323 52.881562 
L 295.948002 57.20308 
L 262.321681 60.39849 
L 228.69536 61.428853 
L 195.069038 63.534154 
L 161.407432 68.414632 
L 127.781111 86.864985 
L 94.15479 119.160098 
L 60.528469 159.453051 
z
" clip-path="url(#pd5c02ad3e0)" style="fill: #999999; fill-opacity: 0.4"/>
   </g>
   <g id="line2d_24">
    <path d="M 60.528469 172.559323 
L 94.15479 127.124517 
L 127.781111 95.132365 
L 161.407432 77.13509 
L 195.069038 72.255186 
L 228.69536 70.148441 
L 262.321681 69.116886 
L 295.948002 65.469932 
L 329.574323 60.845646 
L 363.235929 55.444982 
" clip-path="url(#pd5c02ad3e0)" style="fill: none; stroke: #91db57; stroke-width: 1.772454; stroke-linejoin: miter"/>
   </g>
   <g id="PolyCollection_3">
    <path d="M 60.528469 156.822388 
L 60.528469 203.542317 
L 94.15479 156.288743 
L 127.781111 129.244219 
L 161.407432 113.584175 
L 195.069038 107.925431 
L 228.69536 107.66435 
L 262.321681 111.563882 
L 295.948002 111.453276 
L 329.574323 109.044317 
L 363.235929 114.083626 
L 363.235929 67.345272 
L 363.235929 67.345272 
L 329.574323 80.654748 
L 295.948002 81.984427 
L 262.321681 80.485415 
L 228.69536 76.581635 
L 195.069038 76.837568 
L 161.407432 82.49836 
L 127.781111 99.773486 
L 94.15479 127.897978 
L 60.528469 156.822388 
z
" clip-path="url(#pd5c02ad3e0)" style="fill: #999999; fill-opacity: 0.4"/>
   </g>
   <g id="line2d_25">
    <path d="M 60.528469 180.182353 
L 94.15479 142.09336 
L 127.781111 114.508852 
L 161.407432 98.041267 
L 195.069038 92.3815 
L 228.69536 92.122992 
L 262.321681 96.024648 
L 295.948002 96.718852 
L 329.574323 94.849533 
L 363.235929 90.714449 
" clip-path="url(#pd5c02ad3e0)" style="fill: none; stroke: #57d3db; stroke-width: 1.772454; stroke-linejoin: miter"/>
   </g>
   <g id="PolyCollection_4">
    <path d="M 60.528469 229.719906 
L 60.528469 272.358568 
L 94.15479 204.608781 
L 127.781111 161.841839 
L 161.407432 135.946131 
L 195.069038 129.222029 
L 228.69536 127.084137 
L 262.321681 122.913709 
L 295.948002 111.73003 
L 329.574323 99.327406 
L 363.235929 94.565319 
L 363.235929 51.909841 
L 363.235929 51.909841 
L 329.574323 73.417837 
L 295.948002 84.835463 
L 262.321681 94.550134 
L 228.69536 98.716684 
L 195.069038 100.849878 
L 161.407432 107.575848 
L 127.781111 134.945552 
L 94.15479 178.69812 
L 60.528469 229.719906 
z
" clip-path="url(#pd5c02ad3e0)" style="fill: #999999; fill-opacity: 0.4"/>
   </g>
   <g id="line2d_26">
    <path d="M 60.528469 251.039237 
L 94.15479 191.653451 
L 127.781111 148.393695 
L 161.407432 121.76099 
L 195.069038 115.035954 
L 228.69536 112.900411 
L 262.321681 108.731922 
L 295.948002 98.282746 
L 329.574323 86.372622 
L 363.235929 73.23758 
" clip-path="url(#pd5c02ad3e0)" style="fill: none; stroke: #a157db; stroke-width: 1.772454; stroke-linejoin: miter"/>
   </g>
   <g id="PolyCollection_5">
    <path d="M 57.423415 246.221856 
L 57.423415 280.121371 
L 59.752205 276.258124 
L 59.893344 276.027158 
L 59.963913 275.911811 
L 59.999198 275.854171 
L 60.281476 275.393876 
L 60.352045 275.27903 
L 60.457899 275.106933 
L 60.563753 274.93504 
L 60.634323 274.820559 
L 60.881316 274.420595 
L 60.9166 274.363549 
L 61.939857 272.719171 
L 62.292704 272.156622 
L 62.398558 271.988306 
L 87.979967 237.603433 
L 92.602263 232.729983 
L 92.919825 232.409342 
L 93.060964 232.267406 
L 93.131533 232.196572 
L 93.696089 231.633169 
L 93.801943 231.528175 
L 94.013651 231.318794 
L 94.260644 231.075533 
L 94.366498 230.971613 
L 94.895769 230.454998 
L 94.966338 230.38649 
L 96.977566 228.470336 
L 97.68326 227.814288 
L 97.930253 227.586626 
L 118.536519 211.634259 
L 125.487605 207.350166 
L 125.946307 207.083061 
L 126.158015 206.960396 
L 126.263869 206.899209 
L 127.110702 206.413159 
L 127.251841 206.332742 
L 127.569403 206.152415 
L 127.92225 205.953835 
L 128.133958 205.835939 
L 128.874937 205.43059 
L 128.980791 205.373597 
L 132.05056 203.815969 
L 133.073816 203.335815 
L 133.426663 203.174557 
L 149.093071 197.819205 
L 158.337663 195.602034 
L 158.937503 195.459226 
L 159.219781 195.39161 
L 159.396204 195.3492 
L 160.49003 195.083285 
L 160.701738 195.031149 
L 161.125155 194.926141 
L 161.619141 194.802293 
L 161.866133 194.739789 
L 162.88939 194.476302 
L 163.030529 194.439342 
L 167.088269 193.432321 
L 168.464373 193.119372 
L 168.958359 193.01092 
L 179.649623 191.267449 
L 191.223006 190.726877 
L 191.963984 190.722192 
L 192.316831 190.720331 
L 192.52854 190.719294 
L 193.904643 190.713022 
L 194.151636 190.71181 
L 194.716191 190.708699 
L 195.316031 190.704638 
L 195.633594 190.702066 
L 196.903843 190.687767 
L 197.080266 190.685161 
L 202.161263 190.501634 
L 203.890214 190.371168 
L 204.490054 190.315384 
L 210.206176 189.788483 
L 224.073064 189.029692 
L 224.990466 189.019556 
L 225.413882 189.016896 
L 225.660875 189.015938 
L 227.319256 189.020912 
L 227.601534 189.023743 
L 228.271943 189.03278 
L 228.977637 189.045793 
L 229.365769 189.05447 
L 230.883011 189.098566 
L 231.094719 189.105984 
L 237.198973 189.43681 
L 239.28077 189.589696 
L 239.986464 189.644311 
L 240.762728 189.705497 
L 256.923121 190.509052 
L 257.981662 190.478115 
L 258.475648 190.45808 
L 258.793211 190.443713 
L 260.698584 190.345233 
L 261.051431 190.324857 
L 261.827695 190.277901 
L 262.674528 190.223573 
L 263.097944 190.19529 
L 264.897464 190.067822 
L 265.144457 190.049514 
L 271.31928 189.554153 
L 272.236682 189.477731 
L 274.671327 189.275776 
L 275.518159 189.206282 
L 289.808464 188.112482 
L 291.008144 188.020403 
L 291.572699 187.976449 
L 291.925546 187.948749 
L 294.113198 187.772497 
L 294.501329 187.740331 
L 295.383447 187.666143 
L 296.336134 187.584838 
L 296.865404 187.539384 
L 298.876632 187.365125 
L 299.15891 187.340508 
L 301.875832 187.102374 
L 307.309676 186.627709 
L 310.061883 186.393954 
L 311.01457 186.314923 
L 322.658522 185.496259 
L 324.034625 185.426151 
L 324.66975 185.396357 
L 325.057881 185.378986 
L 327.527811 185.284354 
L 327.951227 185.271066 
L 328.939199 185.243638 
L 330.033024 185.219368 
L 330.59758 185.209459 
L 332.432384 185.190267 
L 332.891085 185.188716 
L 333.208648 185.188449 
L 342.347385 185.500442 
L 345.452439 185.758832 
L 346.546265 185.869211 
L 355.543864 187.161467 
L 357.061106 187.445819 
L 357.7668 187.584425 
L 358.190217 187.669507 
L 360.942424 188.257116 
L 361.436409 188.368839 
L 362.530235 188.622883 
L 363.729915 188.911937 
L 364.36504 189.069325 
L 366.905538 189.728489 
L 367.258385 189.823729 
L 377.42038 192.93058 
L 380.87828 194.138397 
L 382.07796 194.574162 
L 382.07796 150.1748 
L 382.07796 150.1748 
L 380.87828 150.753989 
L 377.42038 152.373918 
L 367.258385 156.685657 
L 366.905538 156.822687 
L 364.36504 157.782885 
L 363.729915 158.015586 
L 362.530235 158.446978 
L 361.436409 158.830911 
L 360.942424 159.001334 
L 358.190217 159.916523 
L 357.7668 160.052096 
L 357.061106 160.274916 
L 355.543864 160.740611 
L 346.546265 163.118775 
L 345.452439 163.362692 
L 342.347385 164.002364 
L 333.208648 165.45898 
L 332.891085 165.499179 
L 332.432384 165.556154 
L 330.59758 165.771774 
L 330.033024 165.834311 
L 328.939199 165.950613 
L 327.951227 166.050345 
L 327.527811 166.091597 
L 325.057881 166.315399 
L 324.66975 166.348082 
L 324.034625 166.400182 
L 322.658522 166.507408 
L 311.01457 167.166338 
L 310.061883 167.204985 
L 307.309676 167.307144 
L 301.875832 167.474662 
L 299.15891 167.545129 
L 298.876632 167.552037 
L 296.865404 167.599277 
L 296.336134 167.611171 
L 295.383447 167.632062 
L 294.501329 167.652617 
L 294.113198 167.662593 
L 291.925546 167.728624 
L 291.572699 167.740701 
L 291.008144 167.760757 
L 289.808464 167.806103 
L 275.518159 168.416571 
L 274.671327 168.447289 
L 272.236682 168.529825 
L 271.31928 168.558919 
L 265.144457 168.740479 
L 264.897464 168.747783 
L 263.097944 168.802833 
L 262.674528 168.8164 
L 261.827695 168.84445 
L 261.051431 168.871397 
L 260.698584 168.884087 
L 258.793211 168.958187 
L 258.475648 168.971562 
L 257.981662 168.992536 
L 256.923121 169.03688 
L 240.762728 169.401304 
L 239.986464 169.392448 
L 239.28077 169.381531 
L 237.198973 169.333066 
L 231.094719 169.053376 
L 230.883011 169.04032 
L 229.365769 168.941331 
L 228.977637 168.914604 
L 228.271943 168.864721 
L 227.601534 168.815947 
L 227.319256 168.795052 
L 225.660875 168.668923 
L 225.413882 168.649765 
L 224.990466 168.616777 
L 224.073064 168.544927 
L 210.206176 167.863306 
L 204.490054 168.172861 
L 203.890214 168.234649 
L 202.161263 168.419337 
L 197.080266 169.000424 
L 196.903843 169.021108 
L 195.633594 169.170017 
L 195.316031 169.207166 
L 194.716191 169.277151 
L 194.151636 169.342721 
L 193.904643 169.371295 
L 192.52854 169.52887 
L 192.316831 169.552824 
L 191.963984 169.592553 
L 191.223006 169.675123 
L 179.649623 170.781003 
L 168.958359 171.937163 
L 168.464373 172.015471 
L 167.088269 172.252705 
L 163.030529 173.146019 
L 162.88939 173.182796 
L 161.866133 173.44853 
L 161.619141 173.512475 
L 161.125155 173.64019 
L 160.701738 173.749514 
L 160.49003 173.804139 
L 159.396204 174.086182 
L 159.219781 174.131672 
L 158.937503 174.204474 
L 158.337663 174.359297 
L 149.093071 176.850548 
L 133.426663 182.712318 
L 133.073816 182.88957 
L 132.05056 183.419036 
L 128.980791 185.154844 
L 128.874937 185.218881 
L 128.133958 185.675348 
L 127.92225 185.808438 
L 127.569403 186.03293 
L 127.251841 186.236902 
L 127.110702 186.327822 
L 126.263869 186.876775 
L 126.158015 186.945808 
L 125.946307 187.084151 
L 125.487605 187.38516 
L 118.536519 192.158436 
L 97.930253 208.532683 
L 97.68326 208.746979 
L 96.977566 209.361267 
L 94.966338 211.127868 
L 94.895769 211.190268 
L 94.366498 211.659142 
L 94.260644 211.7531 
L 94.013651 211.972569 
L 93.801943 212.160945 
L 93.696089 212.255222 
L 93.131533 212.759027 
L 93.060964 212.82212 
L 92.919825 212.948367 
L 92.602263 213.232688 
L 87.979967 217.408161 
L 62.398558 241.372321 
L 62.292704 241.474669 
L 61.939857 241.816079 
L 60.9166 242.808367 
L 60.881316 242.842643 
L 60.634323 243.082689 
L 60.563753 243.15131 
L 60.457899 243.254271 
L 60.352045 243.357269 
L 60.281476 243.425955 
L 59.999198 243.700861 
L 59.963913 243.735243 
L 59.893344 243.804019 
L 59.752205 243.94162 
L 57.423415 246.221856 
z
" clip-path="url(#pd5c02ad3e0)" style="fill: #999999; fill-opacity: 0.4"/>
   </g>
   <g id="line2d_27">
    <path d="M 57.423415 263.171613 
L 62.398558 256.680314 
L 87.979967 227.505797 
L 94.966338 220.757179 
L 97.930253 218.059655 
L 118.536519 201.896348 
L 128.133958 195.755644 
L 128.980791 195.26422 
L 133.426663 192.943437 
L 149.093071 187.334877 
L 167.088269 182.842513 
L 168.958359 182.474042 
L 179.649623 181.024226 
L 210.206176 178.825894 
L 225.660875 178.842431 
L 239.986464 179.51838 
L 240.762728 179.553401 
L 258.793211 179.70095 
L 272.236682 179.003778 
L 330.59758 175.490617 
L 367.258385 173.254693 
L 382.07796 172.374481 
L 382.07796 172.374481 
" clip-path="url(#pd5c02ad3e0)" style="fill: none; stroke-dasharray: 6.558079,2.835926; stroke-dashoffset: 0; stroke: #db5f57; stroke-width: 1.772454; stroke-linejoin: miter"/>
   </g>
   <g id="PolyCollection_6">
    <path d="M 57.423415 212.70279 
L 57.423415 237.234 
L 59.752205 234.6728 
L 59.893344 234.51969 
L 59.963913 234.443226 
L 59.999198 234.405017 
L 60.281476 234.099893 
L 60.352045 234.023764 
L 60.457899 233.909684 
L 60.563753 233.795742 
L 60.634323 233.719857 
L 60.881316 233.454741 
L 60.9166 233.416928 
L 61.939857 232.327026 
L 62.292704 231.954194 
L 62.398558 231.842646 
L 87.979967 209.135385 
L 92.602263 205.943795 
L 92.919825 205.734203 
L 93.060964 205.641442 
L 93.131533 205.595152 
L 93.696089 205.227116 
L 93.801943 205.158557 
L 94.013651 205.02186 
L 94.260644 204.863087 
L 94.366498 204.795274 
L 94.895769 204.458279 
L 94.966338 204.413606 
L 96.977566 203.165568 
L 97.68326 202.738913 
L 97.930253 202.590931 
L 118.536519 192.302015 
L 125.487605 189.548887 
L 125.946307 189.376925 
L 126.158015 189.297936 
L 126.263869 189.25853 
L 127.110702 188.945384 
L 127.251841 188.893553 
L 127.569403 188.777305 
L 127.92225 188.649081 
L 128.133958 188.572773 
L 128.874937 188.309354 
L 128.980791 188.272182 
L 132.05056 187.24255 
L 133.073816 186.919439 
L 133.426663 186.810277 
L 149.093071 182.980615 
L 158.337663 181.354549 
L 158.937503 181.254157 
L 159.219781 181.206893 
L 159.396204 181.177338 
L 160.49003 180.993626 
L 160.701738 180.957935 
L 161.125155 180.886377 
L 161.619141 180.802547 
L 161.866133 180.760472 
L 162.88939 180.584796 
L 163.030529 180.56037 
L 167.088269 179.9521 
L 168.464373 179.788129 
L 168.958359 179.734439 
L 179.649623 179.227304 
L 191.223006 179.782776 
L 191.963984 179.832428 
L 192.316831 179.855737 
L 192.52854 179.869583 
L 193.904643 179.9561 
L 194.151636 179.970822 
L 194.716191 180.003315 
L 195.316031 180.035849 
L 195.633594 180.052141 
L 196.903843 180.109808 
L 197.080266 180.116761 
L 202.161263 180.164795 
L 203.890214 180.094663 
L 204.490054 180.057699 
L 210.206176 179.591102 
L 224.073064 178.179993 
L 224.990466 178.094269 
L 225.413882 178.055623 
L 225.660875 178.033361 
L 227.319256 177.889639 
L 227.601534 177.866226 
L 228.271943 177.811911 
L 228.977637 177.756757 
L 229.365769 177.727327 
L 230.883011 177.618633 
L 231.094719 177.604284 
L 237.198973 177.277327 
L 239.28077 177.201597 
L 239.986464 177.179441 
L 240.762728 177.156916 
L 256.923121 176.793162 
L 257.981662 176.75192 
L 258.475648 176.730991 
L 258.793211 176.716991 
L 260.698584 176.625739 
L 261.051431 176.607602 
L 261.827695 176.56651 
L 262.674528 176.519986 
L 263.097944 176.496132 
L 264.897464 176.391144 
L 265.144457 176.376357 
L 271.31928 175.996681 
L 272.236682 175.941164 
L 274.671327 175.798303 
L 275.518159 175.750493 
L 289.808464 175.113259 
L 291.008144 175.069905 
L 291.572699 175.049641 
L 291.925546 175.037003 
L 294.113198 174.958729 
L 294.501329 174.944803 
L 295.383447 174.913058 
L 296.336134 174.878775 
L 296.865404 174.859816 
L 298.876632 174.788628 
L 299.15891 174.778775 
L 301.875832 174.686368 
L 307.309676 174.521628 
L 310.061883 174.453279 
L 311.01457 174.432678 
L 322.658522 174.363819 
L 324.034625 174.384953 
L 324.66975 174.39732 
L 325.057881 174.405721 
L 327.527811 174.475001 
L 327.951227 174.489758 
L 328.939199 174.527656 
L 330.033024 174.575472 
L 330.59758 174.602646 
L 332.432384 174.703246 
L 332.891085 174.731438 
L 333.208648 174.751686 
L 342.347385 175.607582 
L 345.452439 176.027098 
L 346.546265 176.191117 
L 355.543864 177.862485 
L 357.061106 178.200153 
L 357.7668 178.362566 
L 358.190217 178.461634 
L 360.942424 179.134843 
L 361.436409 179.260982 
L 362.530235 179.54595 
L 363.729915 179.867378 
L 364.36504 180.041268 
L 366.905538 180.762179 
L 367.258385 180.865471 
L 377.42038 184.155691 
L 380.87828 185.407218 
L 382.07796 185.856249 
L 382.07796 153.726878 
L 382.07796 153.726878 
L 380.87828 154.012314 
L 377.42038 154.80707 
L 367.258385 156.885275 
L 366.905538 156.950064 
L 364.36504 157.400996 
L 363.729915 157.509392 
L 362.530235 157.709311 
L 361.436409 157.886012 
L 360.942424 157.964047 
L 358.190217 158.378329 
L 357.7668 158.438937 
L 357.061106 158.538069 
L 355.543864 158.743168 
L 346.546265 159.727881 
L 345.452439 159.820246 
L 342.347385 160.050609 
L 333.208648 160.474557 
L 332.891085 160.483206 
L 332.432384 160.495121 
L 330.59758 160.536665 
L 330.033024 160.547575 
L 328.939199 160.566357 
L 327.951227 160.580781 
L 327.527811 160.58626 
L 325.057881 160.610455 
L 324.66975 160.613133 
L 324.034625 160.616907 
L 322.658522 160.622635 
L 311.01457 160.575902 
L 310.061883 160.56728 
L 307.309676 160.5404 
L 301.875832 160.482875 
L 299.15891 160.45395 
L 298.876632 160.450989 
L 296.865404 160.430261 
L 296.336134 160.424933 
L 295.383447 160.415498 
L 294.501329 160.408432 
L 294.113198 160.406301 
L 291.925546 160.404813 
L 291.572699 160.406145 
L 291.008144 160.409116 
L 289.808464 160.418652 
L 275.518159 160.706125 
L 274.671327 160.725875 
L 272.236682 160.782319 
L 271.31928 160.803588 
L 265.144457 160.956183 
L 264.897464 160.963007 
L 263.097944 161.01559 
L 262.674528 161.028795 
L 261.827695 161.056302 
L 261.051431 161.082916 
L 260.698584 161.09549 
L 258.793211 161.169101 
L 258.475648 161.182382 
L 257.981662 161.203991 
L 256.923121 161.254935 
L 240.762728 162.463891 
L 239.986464 162.524285 
L 239.28077 162.578061 
L 237.198973 162.729357 
L 231.094719 163.093317 
L 230.883011 163.103586 
L 229.365769 163.172557 
L 228.977637 163.188925 
L 228.271943 163.217399 
L 227.601534 163.242958 
L 227.319256 163.253299 
L 225.660875 163.309349 
L 225.413882 163.317053 
L 224.990466 163.329902 
L 224.073064 163.356298 
L 210.206176 163.725061 
L 204.490054 164.034375 
L 203.890214 164.075685 
L 202.161263 164.185054 
L 197.080266 164.424713 
L 196.903843 164.430841 
L 195.633594 164.470584 
L 195.316031 164.479314 
L 194.716191 164.494485 
L 194.151636 164.50719 
L 193.904643 164.512269 
L 192.52854 164.535242 
L 192.316831 164.537979 
L 191.963984 164.542073 
L 191.223006 164.548781 
L 179.649623 164.402393 
L 168.958359 164.484522 
L 168.464373 164.516399 
L 167.088269 164.625579 
L 163.030529 165.151567 
L 162.88939 165.17586 
L 161.866133 165.353161 
L 161.619141 165.39628 
L 161.125155 165.482908 
L 160.701738 165.557589 
L 160.49003 165.595081 
L 159.396204 165.790463 
L 159.219781 165.822248 
L 158.937503 165.873265 
L 158.337663 165.982351 
L 149.093071 167.806755 
L 133.426663 172.002882 
L 133.073816 172.123619 
L 132.05056 172.482414 
L 128.980791 173.640985 
L 128.874937 173.683255 
L 128.133958 173.983665 
L 127.92225 174.070968 
L 127.569403 174.217942 
L 127.251841 174.351301 
L 127.110702 174.410733 
L 126.263869 174.769397 
L 126.158015 174.814482 
L 125.946307 174.904817 
L 125.487605 175.101312 
L 118.536519 178.208436 
L 97.930253 188.802642 
L 97.68326 188.940952 
L 96.977566 189.337388 
L 94.966338 190.477203 
L 94.895769 190.517457 
L 94.366498 190.819903 
L 94.260644 190.880507 
L 94.013651 191.022063 
L 93.801943 191.143559 
L 93.696089 191.204363 
L 93.131533 191.529273 
L 93.060964 191.56996 
L 92.919825 191.651369 
L 92.602263 191.834677 
L 87.979967 194.52118 
L 62.398558 209.687545 
L 62.292704 209.751357 
L 61.939857 209.964162 
L 60.9166 210.582183 
L 60.881316 210.603518 
L 60.634323 210.75291 
L 60.563753 210.795609 
L 60.457899 210.859669 
L 60.352045 210.923745 
L 60.281476 210.96647 
L 59.999198 211.137439 
L 59.963913 211.158818 
L 59.893344 211.201581 
L 59.752205 211.287127 
L 57.423415 212.70279 
z
" clip-path="url(#pd5c02ad3e0)" style="fill: #999999; fill-opacity: 0.4"/>
   </g>
   <g id="line2d_28">
    <path d="M 57.423415 224.968395 
L 62.398558 220.765095 
L 87.979967 201.828283 
L 94.966338 197.445405 
L 97.930253 195.696787 
L 118.536519 185.255226 
L 128.980791 180.956584 
L 133.426663 179.40658 
L 149.093071 175.393685 
L 163.030529 172.855968 
L 168.958359 172.10948 
L 179.649623 171.814849 
L 197.080266 172.270737 
L 204.490054 172.046037 
L 231.094719 170.348801 
L 240.762728 169.810404 
L 275.518159 168.228309 
L 296.865404 167.645039 
L 311.01457 167.50429 
L 330.59758 167.569656 
L 342.347385 167.829095 
L 358.190217 168.419981 
L 367.258385 168.875373 
L 382.07796 169.791564 
L 382.07796 169.791564 
" clip-path="url(#pd5c02ad3e0)" style="fill: none; stroke-dasharray: 6.558079,2.835926; stroke-dashoffset: 0; stroke: #91db57; stroke-width: 1.772454; stroke-linejoin: miter"/>
   </g>
   <g id="PolyCollection_7">
    <path d="M 57.423415 186.552735 
L 57.423415 230.452631 
L 59.752205 228.269685 
L 59.893344 228.139729 
L 59.963913 228.074852 
L 59.999198 228.04244 
L 60.281476 227.783745 
L 60.352045 227.719241 
L 60.457899 227.622612 
L 60.563753 227.526137 
L 60.634323 227.461904 
L 60.881316 227.237629 
L 60.9166 227.205657 
L 61.939857 226.285948 
L 62.292704 225.972164 
L 62.398558 225.878367 
L 87.979967 208.107659 
L 92.602263 205.953197 
L 92.919825 205.816058 
L 93.060964 205.75554 
L 93.131533 205.725382 
L 93.696089 205.486601 
L 93.801943 205.442316 
L 94.013651 205.354203 
L 94.260644 205.25217 
L 94.366498 205.208691 
L 94.895769 204.99353 
L 94.966338 204.96512 
L 96.977566 204.182143 
L 97.68326 203.91923 
L 97.930253 203.828607 
L 118.536519 198.190338 
L 125.487605 196.842346 
L 125.946307 196.758786 
L 126.158015 196.720404 
L 126.263869 196.701257 
L 127.110702 196.54907 
L 127.251841 196.523873 
L 127.569403 196.467346 
L 127.92225 196.404811 
L 128.133958 196.367427 
L 128.874937 196.237391 
L 128.980791 196.218917 
L 132.05056 195.694587 
L 133.073816 195.525003 
L 133.426663 195.467175 
L 149.093071 193.331917 
L 158.337663 192.424691 
L 158.937503 192.367689 
L 159.219781 192.340733 
L 159.396204 192.323836 
L 160.49003 192.21801 
L 160.701738 192.19728 
L 161.125155 192.155535 
L 161.619141 192.106309 
L 161.866133 192.081465 
L 162.88939 191.976695 
L 163.030529 191.961991 
L 167.088269 191.546456 
L 168.464373 191.414108 
L 168.958359 191.368381 
L 179.649623 190.809902 
L 191.223006 191.469136 
L 191.963984 191.542944 
L 192.316831 191.578497 
L 192.52854 191.599917 
L 193.904643 191.739672 
L 194.151636 191.764663 
L 194.716191 191.821418 
L 195.316031 191.880892 
L 195.633594 191.911916 
L 196.903843 192.031607 
L 197.080266 192.047548 
L 202.161263 192.387028 
L 203.890214 192.427511 
L 204.490054 192.429966 
L 210.206176 192.299847 
L 224.073064 191.593657 
L 224.990466 191.561807 
L 225.413882 191.548671 
L 225.660875 191.541485 
L 227.319256 191.502887 
L 227.601534 191.498068 
L 228.271943 191.488759 
L 228.977637 191.48228 
L 229.365769 191.480199 
L 230.883011 191.482362 
L 231.094719 191.483982 
L 237.198973 191.665962 
L 239.28077 191.781031 
L 239.986464 191.824792 
L 240.762728 191.875272 
L 256.923121 192.81202 
L 257.981662 192.817084 
L 258.475648 192.81517 
L 258.793211 192.812749 
L 260.698584 192.786935 
L 261.051431 192.780205 
L 261.827695 192.763484 
L 262.674528 192.742482 
L 263.097944 192.730999 
L 264.897464 192.675985 
L 265.144457 192.667759 
L 271.31928 192.435349 
L 272.236682 192.399692 
L 274.671327 192.307582 
L 275.518159 192.276729 
L 289.808464 191.788495 
L 291.008144 191.734279 
L 291.572699 191.706904 
L 291.925546 191.68914 
L 294.113198 191.566612 
L 294.501329 191.54247 
L 295.383447 191.484714 
L 296.336134 191.420155 
L 296.865404 191.384325 
L 298.876632 191.248613 
L 299.15891 191.229645 
L 301.875832 191.048651 
L 307.309676 190.701335 
L 310.061883 190.537573 
L 311.01457 190.483502 
L 322.658522 189.994212 
L 324.034625 189.96562 
L 324.66975 189.955163 
L 325.057881 189.949665 
L 327.527811 189.931585 
L 327.951227 189.931598 
L 328.939199 189.935414 
L 330.033024 189.946084 
L 330.59758 189.954357 
L 332.432384 189.994973 
L 332.891085 190.008551 
L 333.208648 190.018819 
L 342.347385 190.674086 
L 345.452439 191.071416 
L 346.546265 191.233867 
L 355.543864 193.019765 
L 357.061106 193.398977 
L 357.7668 193.582837 
L 358.190217 193.695414 
L 360.942424 194.467957 
L 361.436409 194.614003 
L 362.530235 194.945253 
L 363.729915 195.320879 
L 364.36504 195.524895 
L 366.905538 196.375991 
L 367.258385 196.498566 
L 377.42038 200.46059 
L 380.87828 201.988095 
L 382.07796 202.538047 
L 382.07796 145.040841 
L 382.07796 145.040841 
L 380.87828 145.805255 
L 377.42038 147.939683 
L 367.258385 153.584738 
L 366.905538 153.762953 
L 364.36504 155.008932 
L 363.729915 155.310082 
L 362.530235 155.867433 
L 361.436409 156.362365 
L 360.942424 156.581698 
L 358.190217 157.75528 
L 357.7668 157.92845 
L 357.061106 158.212638 
L 355.543864 158.804737 
L 346.546265 161.772036 
L 345.452439 162.068399 
L 342.347385 162.83406 
L 333.208648 164.469143 
L 332.891085 164.510586 
L 332.432384 164.568782 
L 330.59758 164.782541 
L 330.033024 164.842422 
L 328.939199 164.950932 
L 327.951227 165.04075 
L 327.527811 165.07695 
L 325.057881 165.262306 
L 324.66975 165.287633 
L 324.034625 165.326976 
L 322.658522 165.403636 
L 311.01457 165.686071 
L 310.061883 165.687845 
L 307.309676 165.681189 
L 301.875832 165.63075 
L 299.15891 165.594614 
L 298.876632 165.59065 
L 296.865404 165.561873 
L 296.336134 165.554242 
L 295.383447 165.540565 
L 294.501329 165.528865 
L 294.113198 165.524272 
L 291.925546 165.504063 
L 291.572699 165.501595 
L 291.008144 165.498023 
L 289.808464 165.491719 
L 275.518159 165.354038 
L 274.671327 165.334675 
L 272.236682 165.272138 
L 271.31928 165.246506 
L 265.144457 165.072543 
L 264.897464 165.06652 
L 263.097944 165.027751 
L 262.674528 165.020178 
L 261.827695 165.007149 
L 261.051431 164.997959 
L 260.698584 164.994735 
L 258.793211 164.988978 
L 258.475648 164.990113 
L 257.981662 164.993243 
L 256.923121 165.005542 
L 240.762728 165.581328 
L 239.986464 165.598616 
L 239.28077 165.611443 
L 237.198973 165.631599 
L 231.094719 165.515839 
L 230.883011 165.506918 
L 229.365769 165.433669 
L 228.977637 165.412376 
L 228.271943 165.371108 
L 227.601534 165.328958 
L 227.319256 165.310384 
L 225.660875 165.192087 
L 225.413882 165.173221 
L 224.990466 165.140193 
L 224.073064 165.065871 
L 210.206176 163.906728 
L 204.490054 163.755382 
L 203.890214 163.760703 
L 202.161263 163.790437 
L 197.080266 163.965798 
L 196.903843 163.973267 
L 195.633594 164.027897 
L 195.316031 164.04165 
L 194.716191 164.067547 
L 194.151636 164.091678 
L 193.904643 164.10212 
L 192.52854 164.158302 
L 192.316831 164.166561 
L 191.963984 164.180047 
L 191.223006 164.207099 
L 179.649623 164.279941 
L 168.958359 164.07785 
L 168.464373 164.084541 
L 167.088269 164.118838 
L 163.030529 164.387123 
L 162.88939 164.40159 
L 161.866133 164.509269 
L 161.619141 164.535979 
L 161.125155 164.590213 
L 160.701738 164.637547 
L 160.49003 164.6615 
L 159.396204 164.788211 
L 159.219781 164.809099 
L 158.937503 164.84277 
L 158.337663 164.91533 
L 149.093071 166.177492 
L 133.426663 168.96856 
L 133.073816 169.047101 
L 132.05056 169.280544 
L 128.980791 170.035617 
L 128.874937 170.063214 
L 128.133958 170.259447 
L 127.92225 170.316507 
L 127.569403 170.412598 
L 127.251841 170.499745 
L 127.110702 170.538543 
L 126.263869 170.772189 
L 126.158015 170.801498 
L 125.946307 170.860184 
L 125.487605 170.987648 
L 118.536519 172.969133 
L 97.930253 179.153736 
L 97.68326 179.22705 
L 96.977566 179.435885 
L 94.966338 180.02519 
L 94.895769 180.045691 
L 94.366498 180.199028 
L 94.260644 180.229605 
L 94.013651 180.300828 
L 93.801943 180.361738 
L 93.696089 180.392145 
L 93.131533 180.553748 
L 93.060964 180.57388 
L 92.919825 180.614082 
L 92.602263 180.704186 
L 87.979967 181.954766 
L 62.398558 186.230645 
L 62.292704 186.239014 
L 61.939857 186.266421 
L 60.9166 186.341674 
L 60.881316 186.344158 
L 60.634323 186.36134 
L 60.563753 186.366183 
L 60.457899 186.373393 
L 60.352045 186.380537 
L 60.281476 186.385263 
L 59.999198 186.403879 
L 59.963913 186.406174 
L 59.893344 186.410741 
L 59.752205 186.419789 
L 57.423415 186.552735 
z
" clip-path="url(#pd5c02ad3e0)" style="fill: #999999; fill-opacity: 0.4"/>
   </g>
   <g id="line2d_29">
    <path d="M 57.423415 208.502683 
L 62.398558 206.054506 
L 87.979967 195.031212 
L 97.68326 191.57314 
L 97.930253 191.491171 
L 118.536519 185.579736 
L 128.980791 183.127267 
L 133.426663 182.217868 
L 149.093071 179.754705 
L 163.030529 178.174557 
L 168.958359 177.723116 
L 179.649623 177.544921 
L 204.490054 178.092674 
L 210.206176 178.103287 
L 237.198973 178.64878 
L 240.762728 178.7283 
L 263.097944 178.879375 
L 275.518159 178.815383 
L 298.876632 178.419631 
L 324.034625 177.646298 
L 333.208648 177.243981 
L 346.546265 176.502952 
L 367.258385 175.041652 
L 382.07796 173.789444 
L 382.07796 173.789444 
" clip-path="url(#pd5c02ad3e0)" style="fill: none; stroke-dasharray: 6.558079,2.835926; stroke-dashoffset: 0; stroke: #57d3db; stroke-width: 1.772454; stroke-linejoin: miter"/>
   </g>
   <g id="PolyCollection_8">
    <path d="M 57.423415 242.002385 
L 57.423415 273.584725 
L 59.752205 270.526407 
L 59.893344 270.34364 
L 59.963913 270.252368 
L 59.999198 270.20676 
L 60.281476 269.842565 
L 60.352045 269.751702 
L 60.457899 269.615547 
L 60.563753 269.479561 
L 60.634323 269.388996 
L 60.881316 269.072608 
L 60.9166 269.027484 
L 61.939857 267.72705 
L 62.292704 267.282288 
L 62.398558 267.149227 
L 87.979967 240.182112 
L 92.602263 236.418192 
L 92.919825 236.171286 
L 93.060964 236.06202 
L 93.131533 236.007496 
L 93.696089 235.573968 
L 93.801943 235.493206 
L 94.013651 235.332174 
L 94.260644 235.145132 
L 94.366498 235.065242 
L 94.895769 234.66822 
L 94.966338 234.615588 
L 96.977566 233.145011 
L 97.68326 232.642204 
L 97.930253 232.467802 
L 118.536519 220.344585 
L 125.487605 217.11606 
L 125.946307 216.915043 
L 126.158015 216.822739 
L 126.263869 216.776698 
L 127.110702 216.411019 
L 127.251841 216.350527 
L 127.569403 216.214887 
L 127.92225 216.065254 
L 128.133958 215.976159 
L 128.874937 215.668327 
L 128.980791 215.624854 
L 132.05056 214.41726 
L 133.073816 214.036917 
L 133.426663 213.908269 
L 149.093071 209.356681 
L 158.337663 207.427418 
L 158.937503 207.309307 
L 159.219781 207.253754 
L 159.396204 207.219032 
L 160.49003 207.003499 
L 160.701738 206.961686 
L 161.125155 206.877913 
L 161.619141 206.779872 
L 161.866133 206.730704 
L 162.88939 206.525708 
L 163.030529 206.497242 
L 167.088269 205.777803 
L 168.464373 205.579131 
L 168.958359 205.513465 
L 179.649623 204.840194 
L 191.223006 205.464342 
L 191.963984 205.524874 
L 192.316831 205.553484 
L 192.52854 205.570542 
L 193.904643 205.678321 
L 194.151636 205.696899 
L 194.716191 205.738209 
L 195.316031 205.780071 
L 195.633594 205.801266 
L 196.903843 205.878098 
L 197.080266 205.887636 
L 202.161263 205.994149 
L 203.890214 205.933217 
L 204.490054 205.897733 
L 210.206176 205.463723 
L 224.073064 204.308235 
L 224.990466 204.247687 
L 225.413882 204.220969 
L 225.660875 204.205753 
L 227.319256 204.110937 
L 227.601534 204.096111 
L 228.271943 204.062479 
L 228.977637 204.029506 
L 229.365769 204.012445 
L 230.883011 203.953114 
L 231.094719 203.945767 
L 237.198973 203.825505 
L 239.28077 203.818176 
L 239.986464 203.818366 
L 240.762728 203.819767 
L 256.923121 203.585485 
L 257.981662 203.513188 
L 258.475648 203.475498 
L 258.793211 203.449975 
L 260.698584 203.278489 
L 261.051431 203.243517 
L 261.827695 203.163354 
L 262.674528 203.071167 
L 263.097944 203.023351 
L 264.897464 202.808776 
L 265.144457 202.778037 
L 271.31928 201.945163 
L 272.236682 201.81581 
L 274.671327 201.472555 
L 275.518159 201.354046 
L 289.808464 199.58726 
L 291.008144 199.464003 
L 291.572699 199.407386 
L 291.925546 199.372453 
L 294.113198 199.16375 
L 294.501329 199.128174 
L 295.383447 199.049018 
L 296.336134 198.964548 
L 296.865404 198.917405 
L 298.876632 198.737349 
L 299.15891 198.712013 
L 301.875832 198.468492 
L 307.309676 197.994616 
L 310.061883 197.769208 
L 311.01457 197.694578 
L 322.658522 197.010401 
L 324.034625 196.967967 
L 324.66975 196.951915 
L 325.057881 196.94325 
L 327.527811 196.909677 
L 327.951227 196.907867 
L 328.939199 196.908407 
L 330.033024 196.917082 
L 330.59758 196.925008 
L 332.432384 196.967795 
L 332.891085 196.982719 
L 333.208648 196.994055 
L 342.347385 197.686826 
L 345.452439 198.093691 
L 346.546265 198.258523 
L 355.543864 200.039245 
L 357.061106 200.41288 
L 357.7668 200.59368 
L 358.190217 200.70428 
L 360.942424 201.461432 
L 361.436409 201.604257 
L 362.530235 201.927895 
L 363.729915 202.294421 
L 364.36504 202.493307 
L 366.905538 203.32179 
L 367.258385 203.440965 
L 377.42038 207.280485 
L 380.87828 208.756366 
L 382.07796 209.28731 
L 382.07796 167.922831 
L 382.07796 167.922831 
L 380.87828 168.337464 
L 377.42038 169.496041 
L 367.258385 172.568019 
L 366.905538 172.665237 
L 364.36504 173.345426 
L 363.729915 173.509965 
L 362.530235 173.81464 
L 361.436409 174.085371 
L 360.942424 174.205405 
L 358.190217 174.848329 
L 357.7668 174.943301 
L 357.061106 175.099223 
L 355.543864 175.424365 
L 346.546265 177.063175 
L 345.452439 177.228422 
L 342.347385 177.658232 
L 333.208648 178.613177 
L 332.891085 178.639044 
L 332.432384 178.675756 
L 330.59758 178.815971 
L 330.033024 178.857075 
L 328.939199 178.934141 
L 327.951227 179.000962 
L 327.527811 179.028825 
L 325.057881 179.182739 
L 324.66975 179.205669 
L 324.034625 179.242502 
L 322.658522 179.319518 
L 311.01457 179.854879 
L 310.061883 179.891885 
L 307.309676 179.994692 
L 301.875832 180.182416 
L 299.15891 180.269731 
L 298.876632 180.278569 
L 296.865404 180.340289 
L 296.336134 180.356164 
L 295.383447 180.384351 
L 294.501329 180.413539 
L 294.113198 180.428442 
L 291.925546 180.534459 
L 291.572699 180.554836 
L 291.008144 180.589189 
L 289.808464 180.668906 
L 275.518159 181.985399 
L 274.671327 182.067782 
L 272.236682 182.299781 
L 271.31928 182.385042 
L 265.144457 182.925563 
L 264.897464 182.946052 
L 263.097944 183.093157 
L 262.674528 183.127264 
L 261.827695 183.194969 
L 261.051431 183.256491 
L 260.698584 183.284302 
L 258.793211 183.433076 
L 258.475648 183.457674 
L 257.981662 183.496238 
L 256.923121 183.581026 
L 240.762728 184.903451 
L 239.986464 184.950803 
L 239.28077 184.991324 
L 237.198973 185.095937 
L 231.094719 185.263839 
L 230.883011 185.265933 
L 229.365769 185.274123 
L 228.977637 185.274369 
L 228.271943 185.272991 
L 227.601534 185.269603 
L 227.319256 185.267599 
L 225.660875 185.249543 
L 225.413882 185.246016 
L 224.990466 185.239523 
L 224.073064 185.22369 
L 210.206176 185.037224 
L 204.490054 185.268744 
L 203.890214 185.309822 
L 202.161263 185.421269 
L 197.080266 185.685141 
L 196.903843 185.692445 
L 195.633594 185.741022 
L 195.316031 185.752041 
L 194.716191 185.771597 
L 194.151636 185.788477 
L 193.904643 185.795391 
L 192.52854 185.828572 
L 192.316831 185.832865 
L 191.963984 185.839535 
L 191.223006 185.851563 
L 179.649623 185.754083 
L 168.958359 185.880187 
L 168.464373 185.91777 
L 167.088269 186.045902 
L 163.030529 186.659407 
L 162.88939 186.687702 
L 161.866133 186.894792 
L 161.619141 186.945302 
L 161.125155 187.046946 
L 160.701738 187.13474 
L 160.49003 187.178872 
L 159.396204 187.40943 
L 159.219781 187.447022 
L 158.937503 187.507407 
L 158.337663 187.63671 
L 149.093071 189.82132 
L 133.426663 194.84471 
L 133.073816 194.988259 
L 132.05056 195.414542 
L 128.980791 196.788138 
L 128.874937 196.838174 
L 128.133958 197.19363 
L 127.92225 197.296879 
L 127.569403 197.470653 
L 127.251841 197.628321 
L 127.110702 197.698599 
L 126.263869 198.122881 
L 126.158015 198.176232 
L 125.946307 198.283143 
L 125.487605 198.515745 
L 118.536519 202.200017 
L 97.930253 214.716275 
L 97.68326 214.878225 
L 96.977566 215.342127 
L 94.966338 216.673373 
L 94.895769 216.720316 
L 94.366498 217.07286 
L 94.260644 217.143468 
L 94.013651 217.308345 
L 93.801943 217.449807 
L 93.696089 217.520585 
L 93.131533 217.898589 
L 93.060964 217.9459 
L 92.919825 218.04055 
L 92.602263 218.25362 
L 87.979967 221.367271 
L 62.398558 238.625974 
L 62.292704 238.697576 
L 61.939857 238.936314 
L 60.9166 239.629232 
L 60.881316 239.653142 
L 60.634323 239.820542 
L 60.563753 239.868382 
L 60.457899 239.940149 
L 60.352045 240.011927 
L 60.281476 240.059784 
L 59.999198 240.251264 
L 59.963913 240.275204 
L 59.893344 240.323088 
L 59.752205 240.418872 
L 57.423415 242.002385 
z
" clip-path="url(#pd5c02ad3e0)" style="fill: #999999; fill-opacity: 0.4"/>
   </g>
   <g id="line2d_30">
    <path d="M 57.423415 257.793555 
L 62.398558 252.8876 
L 87.979967 230.774691 
L 94.966338 225.64448 
L 97.930253 223.592038 
L 118.536519 211.272301 
L 128.874937 206.253251 
L 133.073816 204.512588 
L 133.426663 204.376489 
L 149.093071 199.589 
L 163.030529 196.578325 
L 168.958359 195.696826 
L 179.649623 195.297138 
L 197.080266 195.786389 
L 204.490054 195.583239 
L 210.206176 195.250474 
L 231.094719 194.604803 
L 240.762728 194.361609 
L 258.793211 193.441525 
L 265.144457 192.8518 
L 291.925546 189.953456 
L 301.875832 189.325454 
L 322.658522 188.16496 
L 333.208648 187.803616 
L 346.546265 187.660849 
L 363.729915 187.902193 
L 367.258385 188.004492 
L 382.07796 188.60507 
L 382.07796 188.60507 
" clip-path="url(#pd5c02ad3e0)" style="fill: none; stroke-dasharray: 6.558079,2.835926; stroke-dashoffset: 0; stroke: #a157db; stroke-width: 1.772454; stroke-linejoin: miter"/>
   </g>
   <g id="patch_3">
    <path d="M 405.510688 241.199308 
L 540.824813 241.199308 
L 540.824813 73.667433 
L 405.510688 73.667433 
z
" style="fill: #ffffff"/>
   </g>
   <g id="text_10">
    <!-- split -->
    <g transform="translate(417.710688 97.261027)scale(0.11 -0.11)">
     <defs>
      <path id="DejaVuSans-73" d="M 2834 3397 
L 2834 2853 
Q 2591 2978 2328 3040 
Q 2066 3103 1784 3103 
Q 1356 3103 1142 2972 
Q 928 2841 928 2578 
Q 928 2378 1081 2264 
Q 1234 2150 1697 2047 
L 1894 2003 
Q 2506 1872 2764 1633 
Q 3022 1394 3022 966 
Q 3022 478 2636 193 
Q 2250 -91 1575 -91 
Q 1294 -91 989 -36 
Q 684 19 347 128 
L 347 722 
Q 666 556 975 473 
Q 1284 391 1588 391 
Q 1994 391 2212 530 
Q 2431 669 2431 922 
Q 2431 1156 2273 1281 
Q 2116 1406 1581 1522 
L 1381 1569 
Q 847 1681 609 1914 
Q 372 2147 372 2553 
Q 372 3047 722 3315 
Q 1072 3584 1716 3584 
Q 2034 3584 2315 3537 
Q 2597 3491 2834 3397 
z
" transform="scale(0.015625)"/>
     </defs>
     <use xlink:href="#DejaVuSans-73"/>
     <use xlink:href="#DejaVuSans-70" x="52.099609"/>
     <use xlink:href="#DejaVuSans-6c" x="115.576172"/>
     <use xlink:href="#DejaVuSans-69" x="143.359375"/>
     <use xlink:href="#DejaVuSans-74" x="171.142578"/>
    </g>
   </g>
   <g id="patch_4">
    <path d="M 417.710688 116.753371 
L 433.550687 116.753371 
L 433.550687 100.913371 
L 417.710688 100.913371 
z
" clip-path="url(#pfdd371df6b)" style="fill: #f2f2f2"/>
   </g>
   <g id="patch_5">
    <path d="M 417.710688 112.793371 
L 433.550687 112.793371 
L 433.550687 104.873371 
L 417.710688 104.873371 
z
" clip-path="url(#pfdd371df6b)" style="fill: #999999; opacity: 0.4"/>
   </g>
   <g id="line2d_31">
    <path d="M 417.710688 108.833371 
L 433.550687 108.833371 
" clip-path="url(#pfdd371df6b)" style="fill: none; stroke: #000000; stroke-width: 1.772454"/>
   </g>
   <g id="text_11">
    <!-- sample -->
    <g transform="translate(436.550687 111.261621)scale(0.088 -0.088)">
     <use xlink:href="#DejaVuSans-73"/>
     <use xlink:href="#DejaVuSans-61" x="52.099609"/>
     <use xlink:href="#DejaVuSans-6d" x="113.378906"/>
     <use xlink:href="#DejaVuSans-70" x="210.791016"/>
     <use xlink:href="#DejaVuSans-6c" x="274.267578"/>
     <use xlink:href="#DejaVuSans-65" x="302.050781"/>
    </g>
   </g>
   <g id="patch_6">
    <path d="M 417.710688 134.593371 
L 433.550687 134.593371 
L 433.550687 118.753371 
L 417.710688 118.753371 
z
" clip-path="url(#p81647fb8ad)" style="fill: #f2f2f2"/>
   </g>
   <g id="patch_7">
    <path d="M 417.710688 130.633371 
L 433.550687 130.633371 
L 433.550687 122.713371 
L 417.710688 122.713371 
z
" clip-path="url(#p81647fb8ad)" style="fill: #999999; opacity: 0.4"/>
   </g>
   <g id="line2d_32">
    <path d="M 417.710688 126.673371 
L 433.550687 126.673371 
" clip-path="url(#p81647fb8ad)" style="fill: none; stroke-dasharray: 6.558079,2.835926; stroke-dashoffset: 0; stroke: #000000; stroke-width: 1.772454"/>
   </g>
   <g id="text_12">
    <!-- study -->
    <g transform="translate(436.550687 129.101621)scale(0.088 -0.088)">
     <use xlink:href="#DejaVuSans-73"/>
     <use xlink:href="#DejaVuSans-74" x="52.099609"/>
     <use xlink:href="#DejaVuSans-75" x="91.308594"/>
     <use xlink:href="#DejaVuSans-64" x="154.6875"/>
     <use xlink:href="#DejaVuSans-79" x="218.164062"/>
    </g>
   </g>
   <g id="text_13">
    <!-- Model -->
    <g transform="translate(417.710688 155.986964)scale(0.11 -0.11)">
     <defs>
      <path id="DejaVuSans-4d" d="M 628 4666 
L 1569 4666 
L 2759 1491 
L 3956 4666 
L 4897 4666 
L 4897 0 
L 4281 0 
L 4281 4097 
L 3078 897 
L 2444 897 
L 1241 4097 
L 1241 0 
L 628 0 
L 628 4666 
z
" transform="scale(0.015625)"/>
     </defs>
     <use xlink:href="#DejaVuSans-4d"/>
     <use xlink:href="#DejaVuSans-6f" x="86.279297"/>
     <use xlink:href="#DejaVuSans-64" x="147.460938"/>
     <use xlink:href="#DejaVuSans-65" x="210.9375"/>
     <use xlink:href="#DejaVuSans-6c" x="272.460938"/>
    </g>
   </g>
   <g id="patch_8">
    <path d="M 417.710688 175.479308 
L 433.550687 175.479308 
L 433.550687 159.639308 
L 417.710688 159.639308 
z
" clip-path="url(#p3ea91e1aa0)" style="fill: #f2f2f2"/>
   </g>
   <g id="patch_9">
    <path d="M 417.710688 171.519308 
L 433.550687 171.519308 
L 433.550687 163.599308 
L 417.710688 163.599308 
z
" clip-path="url(#p3ea91e1aa0)" style="fill: #999999; opacity: 0.4"/>
   </g>
   <g id="line2d_33">
    <path d="M 417.710688 167.559308 
L 433.550687 167.559308 
" clip-path="url(#p3ea91e1aa0)" style="fill: none; stroke: #db5f57; stroke-width: 1.772454"/>
   </g>
   <g id="text_14">
    <!-- Five Layer Network -->
    <g transform="translate(436.550687 169.987558)scale(0.088 -0.088)">
     <defs>
      <path id="DejaVuSans-46" d="M 628 4666 
L 3309 4666 
L 3309 4134 
L 1259 4134 
L 1259 2759 
L 3109 2759 
L 3109 2228 
L 1259 2228 
L 1259 0 
L 628 0 
L 628 4666 
z
" transform="scale(0.015625)"/>
      <path id="DejaVuSans-76" d="M 191 3500 
L 800 3500 
L 1894 563 
L 2988 3500 
L 3597 3500 
L 2284 0 
L 1503 0 
L 191 3500 
z
" transform="scale(0.015625)"/>
      <path id="DejaVuSans-4c" d="M 628 4666 
L 1259 4666 
L 1259 531 
L 3531 531 
L 3531 0 
L 628 0 
L 628 4666 
z
" transform="scale(0.015625)"/>
      <path id="DejaVuSans-4e" d="M 628 4666 
L 1478 4666 
L 3547 763 
L 3547 4666 
L 4159 4666 
L 4159 0 
L 3309 0 
L 1241 3903 
L 1241 0 
L 628 0 
L 628 4666 
z
" transform="scale(0.015625)"/>
      <path id="DejaVuSans-77" d="M 269 3500 
L 844 3500 
L 1563 769 
L 2278 3500 
L 2956 3500 
L 3675 769 
L 4391 3500 
L 4966 3500 
L 4050 0 
L 3372 0 
L 2619 2869 
L 1863 0 
L 1184 0 
L 269 3500 
z
" transform="scale(0.015625)"/>
      <path id="DejaVuSans-6b" d="M 581 4863 
L 1159 4863 
L 1159 1991 
L 2875 3500 
L 3609 3500 
L 1753 1863 
L 3688 0 
L 2938 0 
L 1159 1709 
L 1159 0 
L 581 0 
L 581 4863 
z
" transform="scale(0.015625)"/>
     </defs>
     <use xlink:href="#DejaVuSans-46"/>
     <use xlink:href="#DejaVuSans-69" x="50.269531"/>
     <use xlink:href="#DejaVuSans-76" x="78.052734"/>
     <use xlink:href="#DejaVuSans-65" x="137.232422"/>
     <use xlink:href="#DejaVuSans-20" x="198.755859"/>
     <use xlink:href="#DejaVuSans-4c" x="230.542969"/>
     <use xlink:href="#DejaVuSans-61" x="286.255859"/>
     <use xlink:href="#DejaVuSans-79" x="347.535156"/>
     <use xlink:href="#DejaVuSans-65" x="406.714844"/>
     <use xlink:href="#DejaVuSans-72" x="468.238281"/>
     <use xlink:href="#DejaVuSans-20" x="509.351562"/>
     <use xlink:href="#DejaVuSans-4e" x="541.138672"/>
     <use xlink:href="#DejaVuSans-65" x="615.943359"/>
     <use xlink:href="#DejaVuSans-74" x="677.466797"/>
     <use xlink:href="#DejaVuSans-77" x="716.675781"/>
     <use xlink:href="#DejaVuSans-6f" x="798.462891"/>
     <use xlink:href="#DejaVuSans-72" x="859.644531"/>
     <use xlink:href="#DejaVuSans-6b" x="900.757812"/>
    </g>
   </g>
   <g id="patch_10">
    <path d="M 417.710688 193.319308 
L 433.550687 193.319308 
L 433.550687 177.479308 
L 417.710688 177.479308 
z
" clip-path="url(#pabca288ea3)" style="fill: #f2f2f2"/>
   </g>
   <g id="patch_11">
    <path d="M 417.710688 189.359308 
L 433.550687 189.359308 
L 433.550687 181.439308 
L 417.710688 181.439308 
z
" clip-path="url(#pabca288ea3)" style="fill: #999999; opacity: 0.4"/>
   </g>
   <g id="line2d_34">
    <path d="M 417.710688 185.399308 
L 433.550687 185.399308 
" clip-path="url(#pabca288ea3)" style="fill: none; stroke: #91db57; stroke-width: 1.772454"/>
   </g>
   <g id="text_15">
    <!-- Logistic Regression -->
    <g transform="translate(436.550687 187.827558)scale(0.088 -0.088)">
     <defs>
      <path id="DejaVuSans-67" d="M 2906 1791 
Q 2906 2416 2648 2759 
Q 2391 3103 1925 3103 
Q 1463 3103 1205 2759 
Q 947 2416 947 1791 
Q 947 1169 1205 825 
Q 1463 481 1925 481 
Q 2391 481 2648 825 
Q 2906 1169 2906 1791 
z
M 3481 434 
Q 3481 -459 3084 -895 
Q 2688 -1331 1869 -1331 
Q 1566 -1331 1297 -1286 
Q 1028 -1241 775 -1147 
L 775 -588 
Q 1028 -725 1275 -790 
Q 1522 -856 1778 -856 
Q 2344 -856 2625 -561 
Q 2906 -266 2906 331 
L 2906 616 
Q 2728 306 2450 153 
Q 2172 0 1784 0 
Q 1141 0 747 490 
Q 353 981 353 1791 
Q 353 2603 747 3093 
Q 1141 3584 1784 3584 
Q 2172 3584 2450 3431 
Q 2728 3278 2906 2969 
L 2906 3500 
L 3481 3500 
L 3481 434 
z
" transform="scale(0.015625)"/>
      <path id="DejaVuSans-52" d="M 2841 2188 
Q 3044 2119 3236 1894 
Q 3428 1669 3622 1275 
L 4263 0 
L 3584 0 
L 2988 1197 
Q 2756 1666 2539 1819 
Q 2322 1972 1947 1972 
L 1259 1972 
L 1259 0 
L 628 0 
L 628 4666 
L 2053 4666 
Q 2853 4666 3247 4331 
Q 3641 3997 3641 3322 
Q 3641 2881 3436 2590 
Q 3231 2300 2841 2188 
z
M 1259 4147 
L 1259 2491 
L 2053 2491 
Q 2509 2491 2742 2702 
Q 2975 2913 2975 3322 
Q 2975 3731 2742 3939 
Q 2509 4147 2053 4147 
L 1259 4147 
z
" transform="scale(0.015625)"/>
     </defs>
     <use xlink:href="#DejaVuSans-4c"/>
     <use xlink:href="#DejaVuSans-6f" x="53.962891"/>
     <use xlink:href="#DejaVuSans-67" x="115.144531"/>
     <use xlink:href="#DejaVuSans-69" x="178.621094"/>
     <use xlink:href="#DejaVuSans-73" x="206.404297"/>
     <use xlink:href="#DejaVuSans-74" x="258.503906"/>
     <use xlink:href="#DejaVuSans-69" x="297.712891"/>
     <use xlink:href="#DejaVuSans-63" x="325.496094"/>
     <use xlink:href="#DejaVuSans-20" x="380.476562"/>
     <use xlink:href="#DejaVuSans-52" x="412.263672"/>
     <use xlink:href="#DejaVuSans-65" x="477.246094"/>
     <use xlink:href="#DejaVuSans-67" x="538.769531"/>
     <use xlink:href="#DejaVuSans-72" x="602.246094"/>
     <use xlink:href="#DejaVuSans-65" x="641.109375"/>
     <use xlink:href="#DejaVuSans-73" x="702.632812"/>
     <use xlink:href="#DejaVuSans-73" x="754.732422"/>
     <use xlink:href="#DejaVuSans-69" x="806.832031"/>
     <use xlink:href="#DejaVuSans-6f" x="834.615234"/>
     <use xlink:href="#DejaVuSans-6e" x="895.796875"/>
    </g>
   </g>
   <g id="patch_12">
    <path d="M 417.710688 211.159308 
L 433.550687 211.159308 
L 433.550687 195.319308 
L 417.710688 195.319308 
z
" clip-path="url(#p1890766892)" style="fill: #f2f2f2"/>
   </g>
   <g id="patch_13">
    <path d="M 417.710688 207.199308 
L 433.550687 207.199308 
L 433.550687 199.279308 
L 417.710688 199.279308 
z
" clip-path="url(#p1890766892)" style="fill: #999999; opacity: 0.4"/>
   </g>
   <g id="line2d_35">
    <path d="M 417.710688 203.239308 
L 433.550687 203.239308 
" clip-path="url(#p1890766892)" style="fill: none; stroke: #57d3db; stroke-width: 1.772454"/>
   </g>
   <g id="text_16">
    <!-- SVM -->
    <g transform="translate(436.550687 205.667558)scale(0.088 -0.088)">
     <use xlink:href="#DejaVuSans-53"/>
     <use xlink:href="#DejaVuSans-56" x="63.476562"/>
     <use xlink:href="#DejaVuSans-4d" x="131.884766"/>
    </g>
   </g>
   <g id="patch_14">
    <path d="M 417.710688 228.999308 
L 433.550687 228.999308 
L 433.550687 213.159308 
L 417.710688 213.159308 
z
" clip-path="url(#p6894b46381)" style="fill: #f2f2f2"/>
   </g>
   <g id="patch_15">
    <path d="M 417.710688 225.039308 
L 433.550687 225.039308 
L 433.550687 217.119308 
L 417.710688 217.119308 
z
" clip-path="url(#p6894b46381)" style="fill: #999999; opacity: 0.4"/>
   </g>
   <g id="line2d_36">
    <path d="M 417.710688 221.079308 
L 433.550687 221.079308 
" clip-path="url(#p6894b46381)" style="fill: none; stroke: #a157db; stroke-width: 1.772454"/>
   </g>
   <g id="text_17">
    <!-- Three Layer Network -->
    <g transform="translate(436.550687 223.507558)scale(0.088 -0.088)">
     <defs>
      <path id="DejaVuSans-68" d="M 3513 2113 
L 3513 0 
L 2938 0 
L 2938 2094 
Q 2938 2591 2744 2837 
Q 2550 3084 2163 3084 
Q 1697 3084 1428 2787 
Q 1159 2491 1159 1978 
L 1159 0 
L 581 0 
L 581 4863 
L 1159 4863 
L 1159 2956 
Q 1366 3272 1645 3428 
Q 1925 3584 2291 3584 
Q 2894 3584 3203 3211 
Q 3513 2838 3513 2113 
z
" transform="scale(0.015625)"/>
     </defs>
     <use xlink:href="#DejaVuSans-54"/>
     <use xlink:href="#DejaVuSans-68" x="61.083984"/>
     <use xlink:href="#DejaVuSans-72" x="124.462891"/>
     <use xlink:href="#DejaVuSans-65" x="163.326172"/>
     <use xlink:href="#DejaVuSans-65" x="224.849609"/>
     <use xlink:href="#DejaVuSans-20" x="286.373047"/>
     <use xlink:href="#DejaVuSans-4c" x="318.160156"/>
     <use xlink:href="#DejaVuSans-61" x="373.873047"/>
     <use xlink:href="#DejaVuSans-79" x="435.152344"/>
     <use xlink:href="#DejaVuSans-65" x="494.332031"/>
     <use xlink:href="#DejaVuSans-72" x="555.855469"/>
     <use xlink:href="#DejaVuSans-20" x="596.96875"/>
     <use xlink:href="#DejaVuSans-4e" x="628.755859"/>
     <use xlink:href="#DejaVuSans-65" x="703.560547"/>
     <use xlink:href="#DejaVuSans-74" x="765.083984"/>
     <use xlink:href="#DejaVuSans-77" x="804.292969"/>
     <use xlink:href="#DejaVuSans-6f" x="886.080078"/>
     <use xlink:href="#DejaVuSans-72" x="947.261719"/>
     <use xlink:href="#DejaVuSans-6b" x="988.375"/>
    </g>
   </g>
  </g>
  <g id="text_18">
   <!-- Recount3 Effects of Data Splitting -->
   <g transform="translate(102.349625 17.229938)scale(0.132 -0.132)">
    <defs>
     <path id="DejaVuSans-45" d="M 628 4666 
L 3578 4666 
L 3578 4134 
L 1259 4134 
L 1259 2753 
L 3481 2753 
L 3481 2222 
L 1259 2222 
L 1259 531 
L 3634 531 
L 3634 0 
L 628 0 
L 628 4666 
z
" transform="scale(0.015625)"/>
     <path id="DejaVuSans-66" d="M 2375 4863 
L 2375 4384 
L 1825 4384 
Q 1516 4384 1395 4259 
Q 1275 4134 1275 3809 
L 1275 3500 
L 2222 3500 
L 2222 3053 
L 1275 3053 
L 1275 0 
L 697 0 
L 697 3053 
L 147 3053 
L 147 3500 
L 697 3500 
L 697 3744 
Q 697 4328 969 4595 
Q 1241 4863 1831 4863 
L 2375 4863 
z
" transform="scale(0.015625)"/>
     <path id="DejaVuSans-44" d="M 1259 4147 
L 1259 519 
L 2022 519 
Q 2988 519 3436 956 
Q 3884 1394 3884 2338 
Q 3884 3275 3436 3711 
Q 2988 4147 2022 4147 
L 1259 4147 
z
M 628 4666 
L 1925 4666 
Q 3281 4666 3915 4102 
Q 4550 3538 4550 2338 
Q 4550 1131 3912 565 
Q 3275 0 1925 0 
L 628 0 
L 628 4666 
z
" transform="scale(0.015625)"/>
    </defs>
    <use xlink:href="#DejaVuSans-52"/>
    <use xlink:href="#DejaVuSans-65" x="64.982422"/>
    <use xlink:href="#DejaVuSans-63" x="126.505859"/>
    <use xlink:href="#DejaVuSans-6f" x="181.486328"/>
    <use xlink:href="#DejaVuSans-75" x="242.667969"/>
    <use xlink:href="#DejaVuSans-6e" x="306.046875"/>
    <use xlink:href="#DejaVuSans-74" x="369.425781"/>
    <use xlink:href="#DejaVuSans-33" x="408.634766"/>
    <use xlink:href="#DejaVuSans-20" x="472.257812"/>
    <use xlink:href="#DejaVuSans-45" x="504.044922"/>
    <use xlink:href="#DejaVuSans-66" x="567.228516"/>
    <use xlink:href="#DejaVuSans-66" x="602.433594"/>
    <use xlink:href="#DejaVuSans-65" x="637.638672"/>
    <use xlink:href="#DejaVuSans-63" x="699.162109"/>
    <use xlink:href="#DejaVuSans-74" x="754.142578"/>
    <use xlink:href="#DejaVuSans-73" x="793.351562"/>
    <use xlink:href="#DejaVuSans-20" x="845.451172"/>
    <use xlink:href="#DejaVuSans-6f" x="877.238281"/>
    <use xlink:href="#DejaVuSans-66" x="938.419922"/>
    <use xlink:href="#DejaVuSans-20" x="973.625"/>
    <use xlink:href="#DejaVuSans-44" x="1005.412109"/>
    <use xlink:href="#DejaVuSans-61" x="1082.414062"/>
    <use xlink:href="#DejaVuSans-74" x="1143.693359"/>
    <use xlink:href="#DejaVuSans-61" x="1182.902344"/>
    <use xlink:href="#DejaVuSans-20" x="1244.181641"/>
    <use xlink:href="#DejaVuSans-53" x="1275.96875"/>
    <use xlink:href="#DejaVuSans-70" x="1339.445312"/>
    <use xlink:href="#DejaVuSans-6c" x="1402.921875"/>
    <use xlink:href="#DejaVuSans-69" x="1430.705078"/>
    <use xlink:href="#DejaVuSans-74" x="1458.488281"/>
    <use xlink:href="#DejaVuSans-74" x="1497.697266"/>
    <use xlink:href="#DejaVuSans-69" x="1536.90625"/>
    <use xlink:href="#DejaVuSans-6e" x="1564.689453"/>
    <use xlink:href="#DejaVuSans-67" x="1628.068359"/>
   </g>
  </g>
 </g>
 <defs>
  <clipPath id="pd5c02ad3e0">
   <rect x="41.190688" y="26.105371" width="357.12" height="266.112"/>
  </clipPath>
  <clipPath id="pfdd371df6b">
   <path d="M 417.710688 116.753371 
L 417.710688 100.913371 
L 433.550687 100.913371 
L 433.550687 116.753371 
"/>
  </clipPath>
  <clipPath id="p81647fb8ad">
   <path d="M 417.710688 134.593371 
L 417.710688 118.753371 
L 433.550687 118.753371 
L 433.550687 134.593371 
"/>
  </clipPath>
  <clipPath id="p3ea91e1aa0">
   <path d="M 417.710688 175.479308 
L 417.710688 159.639308 
L 433.550687 159.639308 
L 433.550687 175.479308 
"/>
  </clipPath>
  <clipPath id="pabca288ea3">
   <path d="M 417.710688 193.319308 
L 417.710688 177.479308 
L 433.550687 177.479308 
L 433.550687 193.319308 
"/>
  </clipPath>
  <clipPath id="p1890766892">
   <path d="M 417.710688 211.159308 
L 417.710688 195.319308 
L 433.550687 195.319308 
L 433.550687 211.159308 
"/>
  </clipPath>
  <clipPath id="p6894b46381">
   <path d="M 417.710688 228.999308 
L 417.710688 213.159308 
L 433.550687 213.159308 
L 433.550687 228.999308 
"/>
  </clipPath>
 </defs>
</svg>
