<?xml version="1.0" encoding="utf-8" standalone="no"?>
<!DOCTYPE svg PUBLIC "-//W3C//DTD SVG 1.1//EN"
  "http://www.w3.org/Graphics/SVG/1.1/DTD/svg11.dtd">
<svg xmlns:xlink="http://www.w3.org/1999/xlink" width="524.546688pt" height="327.930058pt" viewBox="0 0 524.546688 327.930058" xmlns="http://www.w3.org/2000/svg" version="1.1">
 <metadata>
  <rdf:RDF xmlns:dc="http://purl.org/dc/elements/1.1/" xmlns:cc="http://creativecommons.org/ns#" xmlns:rdf="http://www.w3.org/1999/02/22-rdf-syntax-ns#">
   <cc:Work>
    <dc:type rdf:resource="http://purl.org/dc/dcmitype/StillImage"/>
    <dc:date>2022-05-09T09:49:38.210560</dc:date>
    <dc:format>image/svg+xml</dc:format>
    <dc:creator>
     <cc:Agent>
      <dc:title>Matplotlib v3.5.1, https://matplotlib.org/</dc:title>
     </cc:Agent>
    </dc:creator>
   </cc:Work>
  </rdf:RDF>
 </metadata>
 <defs>
  <style type="text/css">*{stroke-linejoin: round; stroke-linecap: butt}</style>
 </defs>
 <g id="figure_1">
  <g id="patch_1">
   <path d="M 0 327.930058 
L 524.546688 327.930058 
L 524.546688 0 
L 0 0 
z
" style="fill: #ffffff; stroke: #ffffff; stroke-linejoin: miter"/>
  </g>
  <g id="axes_1">
   <g id="patch_2">
    <path d="M 41.190688 292.217371 
L 398.310688 292.217371 
L 398.310688 26.105371 
L 41.190688 26.105371 
z
" style="fill: #ebebeb"/>
   </g>
   <g id="matplotlib.axis_1">
    <g id="xtick_1">
     <g id="line2d_1">
      <path d="M 115.59405 292.217371 
L 115.59405 26.105371 
" clip-path="url(#p04e8c14e61)" style="fill: none; stroke: #ffffff"/>
     </g>
     <g id="line2d_2">
      <path d="M 115.59405 292.217371 
" style="fill: none; stroke: #333333; stroke-width: 1.5"/>
      <defs>
       <path id="m3261cec27e" d="M 0 0 
L 0 2.75 
" style="stroke: #000000"/>
      </defs>
      <g>
       <use xlink:href="#m3261cec27e" x="115.59405" y="292.217371" style="fill: #333333; stroke: #000000"/>
      </g>
     </g>
     <g id="text_1">
      <!-- 5000 -->
      <g style="fill: #4d4d4d" transform="translate(104.39605 303.853996)scale(0.088 -0.088)">
       <defs>
        <path id="DejaVuSans-35" d="M 691 4666 
L 3169 4666 
L 3169 4134 
L 1269 4134 
L 1269 2991 
Q 1406 3038 1543 3061 
Q 1681 3084 1819 3084 
Q 2600 3084 3056 2656 
Q 3513 2228 3513 1497 
Q 3513 744 3044 326 
Q 2575 -91 1722 -91 
Q 1428 -91 1123 -41 
Q 819 9 494 109 
L 494 744 
Q 775 591 1075 516 
Q 1375 441 1709 441 
Q 2250 441 2565 725 
Q 2881 1009 2881 1497 
Q 2881 1984 2565 2268 
Q 2250 2553 1709 2553 
Q 1456 2553 1204 2497 
Q 953 2441 691 2322 
L 691 4666 
z
" transform="scale(0.015625)"/>
        <path id="DejaVuSans-30" d="M 2034 4250 
Q 1547 4250 1301 3770 
Q 1056 3291 1056 2328 
Q 1056 1369 1301 889 
Q 1547 409 2034 409 
Q 2525 409 2770 889 
Q 3016 1369 3016 2328 
Q 3016 3291 2770 3770 
Q 2525 4250 2034 4250 
z
M 2034 4750 
Q 2819 4750 3233 4129 
Q 3647 3509 3647 2328 
Q 3647 1150 3233 529 
Q 2819 -91 2034 -91 
Q 1250 -91 836 529 
Q 422 1150 422 2328 
Q 422 3509 836 4129 
Q 1250 4750 2034 4750 
z
" transform="scale(0.015625)"/>
       </defs>
       <use xlink:href="#DejaVuSans-35"/>
       <use xlink:href="#DejaVuSans-30" x="63.623047"/>
       <use xlink:href="#DejaVuSans-30" x="127.246094"/>
       <use xlink:href="#DejaVuSans-30" x="190.869141"/>
      </g>
     </g>
    </g>
    <g id="xtick_2">
     <g id="line2d_3">
      <path d="M 205.252858 292.217371 
L 205.252858 26.105371 
" clip-path="url(#p04e8c14e61)" style="fill: none; stroke: #ffffff"/>
     </g>
     <g id="line2d_4">
      <path d="M 205.252858 292.217371 
" style="fill: none; stroke: #333333; stroke-width: 1.5"/>
      <g>
       <use xlink:href="#m3261cec27e" x="205.252858" y="292.217371" style="fill: #333333; stroke: #000000"/>
      </g>
     </g>
     <g id="text_2">
      <!-- 10000 -->
      <g style="fill: #4d4d4d" transform="translate(191.255358 303.853996)scale(0.088 -0.088)">
       <defs>
        <path id="DejaVuSans-31" d="M 794 531 
L 1825 531 
L 1825 4091 
L 703 3866 
L 703 4441 
L 1819 4666 
L 2450 4666 
L 2450 531 
L 3481 531 
L 3481 0 
L 794 0 
L 794 531 
z
" transform="scale(0.015625)"/>
       </defs>
       <use xlink:href="#DejaVuSans-31"/>
       <use xlink:href="#DejaVuSans-30" x="63.623047"/>
       <use xlink:href="#DejaVuSans-30" x="127.246094"/>
       <use xlink:href="#DejaVuSans-30" x="190.869141"/>
       <use xlink:href="#DejaVuSans-30" x="254.492188"/>
      </g>
     </g>
    </g>
    <g id="xtick_3">
     <g id="line2d_5">
      <path d="M 294.911667 292.217371 
L 294.911667 26.105371 
" clip-path="url(#p04e8c14e61)" style="fill: none; stroke: #ffffff"/>
     </g>
     <g id="line2d_6">
      <path d="M 294.911667 292.217371 
" style="fill: none; stroke: #333333; stroke-width: 1.5"/>
      <g>
       <use xlink:href="#m3261cec27e" x="294.911667" y="292.217371" style="fill: #333333; stroke: #000000"/>
      </g>
     </g>
     <g id="text_3">
      <!-- 15000 -->
      <g style="fill: #4d4d4d" transform="translate(280.914167 303.853996)scale(0.088 -0.088)">
       <use xlink:href="#DejaVuSans-31"/>
       <use xlink:href="#DejaVuSans-35" x="63.623047"/>
       <use xlink:href="#DejaVuSans-30" x="127.246094"/>
       <use xlink:href="#DejaVuSans-30" x="190.869141"/>
       <use xlink:href="#DejaVuSans-30" x="254.492188"/>
      </g>
     </g>
    </g>
    <g id="xtick_4">
     <g id="line2d_7">
      <path d="M 384.570475 292.217371 
L 384.570475 26.105371 
" clip-path="url(#p04e8c14e61)" style="fill: none; stroke: #ffffff"/>
     </g>
     <g id="line2d_8">
      <path d="M 384.570475 292.217371 
" style="fill: none; stroke: #333333; stroke-width: 1.5"/>
      <g>
       <use xlink:href="#m3261cec27e" x="384.570475" y="292.217371" style="fill: #333333; stroke: #000000"/>
      </g>
     </g>
     <g id="text_4">
      <!-- 20000 -->
      <g style="fill: #4d4d4d" transform="translate(370.572975 303.853996)scale(0.088 -0.088)">
       <defs>
        <path id="DejaVuSans-32" d="M 1228 531 
L 3431 531 
L 3431 0 
L 469 0 
L 469 531 
Q 828 903 1448 1529 
Q 2069 2156 2228 2338 
Q 2531 2678 2651 2914 
Q 2772 3150 2772 3378 
Q 2772 3750 2511 3984 
Q 2250 4219 1831 4219 
Q 1534 4219 1204 4116 
Q 875 4013 500 3803 
L 500 4441 
Q 881 4594 1212 4672 
Q 1544 4750 1819 4750 
Q 2544 4750 2975 4387 
Q 3406 4025 3406 3419 
Q 3406 3131 3298 2873 
Q 3191 2616 2906 2266 
Q 2828 2175 2409 1742 
Q 1991 1309 1228 531 
z
" transform="scale(0.015625)"/>
       </defs>
       <use xlink:href="#DejaVuSans-32"/>
       <use xlink:href="#DejaVuSans-30" x="63.623047"/>
       <use xlink:href="#DejaVuSans-30" x="127.246094"/>
       <use xlink:href="#DejaVuSans-30" x="190.869141"/>
       <use xlink:href="#DejaVuSans-30" x="254.492188"/>
      </g>
     </g>
    </g>
    <g id="xtick_5">
     <g id="line2d_9">
      <path d="M 70.764645 292.217371 
L 70.764645 26.105371 
" clip-path="url(#p04e8c14e61)" style="fill: none; stroke: #ffffff; stroke-width: 0.5"/>
     </g>
    </g>
    <g id="xtick_6">
     <g id="line2d_10">
      <path d="M 160.423454 292.217371 
L 160.423454 26.105371 
" clip-path="url(#p04e8c14e61)" style="fill: none; stroke: #ffffff; stroke-width: 0.5"/>
     </g>
    </g>
    <g id="xtick_7">
     <g id="line2d_11">
      <path d="M 250.082262 292.217371 
L 250.082262 26.105371 
" clip-path="url(#p04e8c14e61)" style="fill: none; stroke: #ffffff; stroke-width: 0.5"/>
     </g>
    </g>
    <g id="xtick_8">
     <g id="line2d_12">
      <path d="M 339.741071 292.217371 
L 339.741071 26.105371 
" clip-path="url(#p04e8c14e61)" style="fill: none; stroke: #ffffff; stroke-width: 0.5"/>
     </g>
    </g>
    <g id="text_5">
     <!-- Train Sample Count -->
     <g transform="translate(160.345063 318.442402)scale(0.11 -0.11)">
      <defs>
       <path id="DejaVuSans-54" d="M -19 4666 
L 3928 4666 
L 3928 4134 
L 2272 4134 
L 2272 0 
L 1638 0 
L 1638 4134 
L -19 4134 
L -19 4666 
z
" transform="scale(0.015625)"/>
       <path id="DejaVuSans-72" d="M 2631 2963 
Q 2534 3019 2420 3045 
Q 2306 3072 2169 3072 
Q 1681 3072 1420 2755 
Q 1159 2438 1159 1844 
L 1159 0 
L 581 0 
L 581 3500 
L 1159 3500 
L 1159 2956 
Q 1341 3275 1631 3429 
Q 1922 3584 2338 3584 
Q 2397 3584 2469 3576 
Q 2541 3569 2628 3553 
L 2631 2963 
z
" transform="scale(0.015625)"/>
       <path id="DejaVuSans-61" d="M 2194 1759 
Q 1497 1759 1228 1600 
Q 959 1441 959 1056 
Q 959 750 1161 570 
Q 1363 391 1709 391 
Q 2188 391 2477 730 
Q 2766 1069 2766 1631 
L 2766 1759 
L 2194 1759 
z
M 3341 1997 
L 3341 0 
L 2766 0 
L 2766 531 
Q 2569 213 2275 61 
Q 1981 -91 1556 -91 
Q 1019 -91 701 211 
Q 384 513 384 1019 
Q 384 1609 779 1909 
Q 1175 2209 1959 2209 
L 2766 2209 
L 2766 2266 
Q 2766 2663 2505 2880 
Q 2244 3097 1772 3097 
Q 1472 3097 1187 3025 
Q 903 2953 641 2809 
L 641 3341 
Q 956 3463 1253 3523 
Q 1550 3584 1831 3584 
Q 2591 3584 2966 3190 
Q 3341 2797 3341 1997 
z
" transform="scale(0.015625)"/>
       <path id="DejaVuSans-69" d="M 603 3500 
L 1178 3500 
L 1178 0 
L 603 0 
L 603 3500 
z
M 603 4863 
L 1178 4863 
L 1178 4134 
L 603 4134 
L 603 4863 
z
" transform="scale(0.015625)"/>
       <path id="DejaVuSans-6e" d="M 3513 2113 
L 3513 0 
L 2938 0 
L 2938 2094 
Q 2938 2591 2744 2837 
Q 2550 3084 2163 3084 
Q 1697 3084 1428 2787 
Q 1159 2491 1159 1978 
L 1159 0 
L 581 0 
L 581 3500 
L 1159 3500 
L 1159 2956 
Q 1366 3272 1645 3428 
Q 1925 3584 2291 3584 
Q 2894 3584 3203 3211 
Q 3513 2838 3513 2113 
z
" transform="scale(0.015625)"/>
       <path id="DejaVuSans-20" transform="scale(0.015625)"/>
       <path id="DejaVuSans-53" d="M 3425 4513 
L 3425 3897 
Q 3066 4069 2747 4153 
Q 2428 4238 2131 4238 
Q 1616 4238 1336 4038 
Q 1056 3838 1056 3469 
Q 1056 3159 1242 3001 
Q 1428 2844 1947 2747 
L 2328 2669 
Q 3034 2534 3370 2195 
Q 3706 1856 3706 1288 
Q 3706 609 3251 259 
Q 2797 -91 1919 -91 
Q 1588 -91 1214 -16 
Q 841 59 441 206 
L 441 856 
Q 825 641 1194 531 
Q 1563 422 1919 422 
Q 2459 422 2753 634 
Q 3047 847 3047 1241 
Q 3047 1584 2836 1778 
Q 2625 1972 2144 2069 
L 1759 2144 
Q 1053 2284 737 2584 
Q 422 2884 422 3419 
Q 422 4038 858 4394 
Q 1294 4750 2059 4750 
Q 2388 4750 2728 4690 
Q 3069 4631 3425 4513 
z
" transform="scale(0.015625)"/>
       <path id="DejaVuSans-6d" d="M 3328 2828 
Q 3544 3216 3844 3400 
Q 4144 3584 4550 3584 
Q 5097 3584 5394 3201 
Q 5691 2819 5691 2113 
L 5691 0 
L 5113 0 
L 5113 2094 
Q 5113 2597 4934 2840 
Q 4756 3084 4391 3084 
Q 3944 3084 3684 2787 
Q 3425 2491 3425 1978 
L 3425 0 
L 2847 0 
L 2847 2094 
Q 2847 2600 2669 2842 
Q 2491 3084 2119 3084 
Q 1678 3084 1418 2786 
Q 1159 2488 1159 1978 
L 1159 0 
L 581 0 
L 581 3500 
L 1159 3500 
L 1159 2956 
Q 1356 3278 1631 3431 
Q 1906 3584 2284 3584 
Q 2666 3584 2933 3390 
Q 3200 3197 3328 2828 
z
" transform="scale(0.015625)"/>
       <path id="DejaVuSans-70" d="M 1159 525 
L 1159 -1331 
L 581 -1331 
L 581 3500 
L 1159 3500 
L 1159 2969 
Q 1341 3281 1617 3432 
Q 1894 3584 2278 3584 
Q 2916 3584 3314 3078 
Q 3713 2572 3713 1747 
Q 3713 922 3314 415 
Q 2916 -91 2278 -91 
Q 1894 -91 1617 61 
Q 1341 213 1159 525 
z
M 3116 1747 
Q 3116 2381 2855 2742 
Q 2594 3103 2138 3103 
Q 1681 3103 1420 2742 
Q 1159 2381 1159 1747 
Q 1159 1113 1420 752 
Q 1681 391 2138 391 
Q 2594 391 2855 752 
Q 3116 1113 3116 1747 
z
" transform="scale(0.015625)"/>
       <path id="DejaVuSans-6c" d="M 603 4863 
L 1178 4863 
L 1178 0 
L 603 0 
L 603 4863 
z
" transform="scale(0.015625)"/>
       <path id="DejaVuSans-65" d="M 3597 1894 
L 3597 1613 
L 953 1613 
Q 991 1019 1311 708 
Q 1631 397 2203 397 
Q 2534 397 2845 478 
Q 3156 559 3463 722 
L 3463 178 
Q 3153 47 2828 -22 
Q 2503 -91 2169 -91 
Q 1331 -91 842 396 
Q 353 884 353 1716 
Q 353 2575 817 3079 
Q 1281 3584 2069 3584 
Q 2775 3584 3186 3129 
Q 3597 2675 3597 1894 
z
M 3022 2063 
Q 3016 2534 2758 2815 
Q 2500 3097 2075 3097 
Q 1594 3097 1305 2825 
Q 1016 2553 972 2059 
L 3022 2063 
z
" transform="scale(0.015625)"/>
       <path id="DejaVuSans-43" d="M 4122 4306 
L 4122 3641 
Q 3803 3938 3442 4084 
Q 3081 4231 2675 4231 
Q 1875 4231 1450 3742 
Q 1025 3253 1025 2328 
Q 1025 1406 1450 917 
Q 1875 428 2675 428 
Q 3081 428 3442 575 
Q 3803 722 4122 1019 
L 4122 359 
Q 3791 134 3420 21 
Q 3050 -91 2638 -91 
Q 1578 -91 968 557 
Q 359 1206 359 2328 
Q 359 3453 968 4101 
Q 1578 4750 2638 4750 
Q 3056 4750 3426 4639 
Q 3797 4528 4122 4306 
z
" transform="scale(0.015625)"/>
       <path id="DejaVuSans-6f" d="M 1959 3097 
Q 1497 3097 1228 2736 
Q 959 2375 959 1747 
Q 959 1119 1226 758 
Q 1494 397 1959 397 
Q 2419 397 2687 759 
Q 2956 1122 2956 1747 
Q 2956 2369 2687 2733 
Q 2419 3097 1959 3097 
z
M 1959 3584 
Q 2709 3584 3137 3096 
Q 3566 2609 3566 1747 
Q 3566 888 3137 398 
Q 2709 -91 1959 -91 
Q 1206 -91 779 398 
Q 353 888 353 1747 
Q 353 2609 779 3096 
Q 1206 3584 1959 3584 
z
" transform="scale(0.015625)"/>
       <path id="DejaVuSans-75" d="M 544 1381 
L 544 3500 
L 1119 3500 
L 1119 1403 
Q 1119 906 1312 657 
Q 1506 409 1894 409 
Q 2359 409 2629 706 
Q 2900 1003 2900 1516 
L 2900 3500 
L 3475 3500 
L 3475 0 
L 2900 0 
L 2900 538 
Q 2691 219 2414 64 
Q 2138 -91 1772 -91 
Q 1169 -91 856 284 
Q 544 659 544 1381 
z
M 1991 3584 
L 1991 3584 
z
" transform="scale(0.015625)"/>
       <path id="DejaVuSans-74" d="M 1172 4494 
L 1172 3500 
L 2356 3500 
L 2356 3053 
L 1172 3053 
L 1172 1153 
Q 1172 725 1289 603 
Q 1406 481 1766 481 
L 2356 481 
L 2356 0 
L 1766 0 
Q 1100 0 847 248 
Q 594 497 594 1153 
L 594 3053 
L 172 3053 
L 172 3500 
L 594 3500 
L 594 4494 
L 1172 4494 
z
" transform="scale(0.015625)"/>
      </defs>
      <use xlink:href="#DejaVuSans-54"/>
      <use xlink:href="#DejaVuSans-72" x="46.333984"/>
      <use xlink:href="#DejaVuSans-61" x="87.447266"/>
      <use xlink:href="#DejaVuSans-69" x="148.726562"/>
      <use xlink:href="#DejaVuSans-6e" x="176.509766"/>
      <use xlink:href="#DejaVuSans-20" x="239.888672"/>
      <use xlink:href="#DejaVuSans-53" x="271.675781"/>
      <use xlink:href="#DejaVuSans-61" x="335.152344"/>
      <use xlink:href="#DejaVuSans-6d" x="396.431641"/>
      <use xlink:href="#DejaVuSans-70" x="493.84375"/>
      <use xlink:href="#DejaVuSans-6c" x="557.320312"/>
      <use xlink:href="#DejaVuSans-65" x="585.103516"/>
      <use xlink:href="#DejaVuSans-20" x="646.626953"/>
      <use xlink:href="#DejaVuSans-43" x="678.414062"/>
      <use xlink:href="#DejaVuSans-6f" x="748.238281"/>
      <use xlink:href="#DejaVuSans-75" x="809.419922"/>
      <use xlink:href="#DejaVuSans-6e" x="872.798828"/>
      <use xlink:href="#DejaVuSans-74" x="936.177734"/>
     </g>
    </g>
   </g>
   <g id="matplotlib.axis_2">
    <g id="ytick_1">
     <g id="line2d_13">
      <path d="M 41.190688 245.819577 
L 398.310688 245.819577 
" clip-path="url(#p04e8c14e61)" style="fill: none; stroke: #ffffff"/>
     </g>
     <g id="line2d_14">
      <path d="M 41.190688 245.819577 
" style="fill: none; stroke: #333333; stroke-width: 1.5"/>
      <defs>
       <path id="m488e01cbda" d="M 0 0 
L -2.75 0 
" style="stroke: #000000"/>
      </defs>
      <g>
       <use xlink:href="#m488e01cbda" x="41.190688" y="245.819577" style="fill: #333333; stroke: #000000"/>
      </g>
     </g>
     <g id="text_6">
      <!-- 0.5 -->
      <g style="fill: #4d4d4d" transform="translate(22.245938 248.247827)scale(0.088 -0.088)">
       <defs>
        <path id="DejaVuSans-2e" d="M 684 794 
L 1344 794 
L 1344 0 
L 684 0 
L 684 794 
z
" transform="scale(0.015625)"/>
       </defs>
       <use xlink:href="#DejaVuSans-30"/>
       <use xlink:href="#DejaVuSans-2e" x="63.623047"/>
       <use xlink:href="#DejaVuSans-35" x="95.410156"/>
      </g>
     </g>
    </g>
    <g id="ytick_2">
     <g id="line2d_15">
      <path d="M 41.190688 180.471044 
L 398.310688 180.471044 
" clip-path="url(#p04e8c14e61)" style="fill: none; stroke: #ffffff"/>
     </g>
     <g id="line2d_16">
      <path d="M 41.190688 180.471044 
" style="fill: none; stroke: #333333; stroke-width: 1.5"/>
      <g>
       <use xlink:href="#m488e01cbda" x="41.190688" y="180.471044" style="fill: #333333; stroke: #000000"/>
      </g>
     </g>
     <g id="text_7">
      <!-- 0.6 -->
      <g style="fill: #4d4d4d" transform="translate(22.245938 182.899294)scale(0.088 -0.088)">
       <defs>
        <path id="DejaVuSans-36" d="M 2113 2584 
Q 1688 2584 1439 2293 
Q 1191 2003 1191 1497 
Q 1191 994 1439 701 
Q 1688 409 2113 409 
Q 2538 409 2786 701 
Q 3034 994 3034 1497 
Q 3034 2003 2786 2293 
Q 2538 2584 2113 2584 
z
M 3366 4563 
L 3366 3988 
Q 3128 4100 2886 4159 
Q 2644 4219 2406 4219 
Q 1781 4219 1451 3797 
Q 1122 3375 1075 2522 
Q 1259 2794 1537 2939 
Q 1816 3084 2150 3084 
Q 2853 3084 3261 2657 
Q 3669 2231 3669 1497 
Q 3669 778 3244 343 
Q 2819 -91 2113 -91 
Q 1303 -91 875 529 
Q 447 1150 447 2328 
Q 447 3434 972 4092 
Q 1497 4750 2381 4750 
Q 2619 4750 2861 4703 
Q 3103 4656 3366 4563 
z
" transform="scale(0.015625)"/>
       </defs>
       <use xlink:href="#DejaVuSans-30"/>
       <use xlink:href="#DejaVuSans-2e" x="63.623047"/>
       <use xlink:href="#DejaVuSans-36" x="95.410156"/>
      </g>
     </g>
    </g>
    <g id="ytick_3">
     <g id="line2d_17">
      <path d="M 41.190688 115.12251 
L 398.310688 115.12251 
" clip-path="url(#p04e8c14e61)" style="fill: none; stroke: #ffffff"/>
     </g>
     <g id="line2d_18">
      <path d="M 41.190688 115.12251 
" style="fill: none; stroke: #333333; stroke-width: 1.5"/>
      <g>
       <use xlink:href="#m488e01cbda" x="41.190688" y="115.12251" style="fill: #333333; stroke: #000000"/>
      </g>
     </g>
     <g id="text_8">
      <!-- 0.7 -->
      <g style="fill: #4d4d4d" transform="translate(22.245938 117.55076)scale(0.088 -0.088)">
       <defs>
        <path id="DejaVuSans-37" d="M 525 4666 
L 3525 4666 
L 3525 4397 
L 1831 0 
L 1172 0 
L 2766 4134 
L 525 4134 
L 525 4666 
z
" transform="scale(0.015625)"/>
       </defs>
       <use xlink:href="#DejaVuSans-30"/>
       <use xlink:href="#DejaVuSans-2e" x="63.623047"/>
       <use xlink:href="#DejaVuSans-37" x="95.410156"/>
      </g>
     </g>
    </g>
    <g id="ytick_4">
     <g id="line2d_19">
      <path d="M 41.190688 49.773977 
L 398.310688 49.773977 
" clip-path="url(#p04e8c14e61)" style="fill: none; stroke: #ffffff"/>
     </g>
     <g id="line2d_20">
      <path d="M 41.190688 49.773977 
" style="fill: none; stroke: #333333; stroke-width: 1.5"/>
      <g>
       <use xlink:href="#m488e01cbda" x="41.190688" y="49.773977" style="fill: #333333; stroke: #000000"/>
      </g>
     </g>
     <g id="text_9">
      <!-- 0.8 -->
      <g style="fill: #4d4d4d" transform="translate(22.245938 52.202227)scale(0.088 -0.088)">
       <defs>
        <path id="DejaVuSans-38" d="M 2034 2216 
Q 1584 2216 1326 1975 
Q 1069 1734 1069 1313 
Q 1069 891 1326 650 
Q 1584 409 2034 409 
Q 2484 409 2743 651 
Q 3003 894 3003 1313 
Q 3003 1734 2745 1975 
Q 2488 2216 2034 2216 
z
M 1403 2484 
Q 997 2584 770 2862 
Q 544 3141 544 3541 
Q 544 4100 942 4425 
Q 1341 4750 2034 4750 
Q 2731 4750 3128 4425 
Q 3525 4100 3525 3541 
Q 3525 3141 3298 2862 
Q 3072 2584 2669 2484 
Q 3125 2378 3379 2068 
Q 3634 1759 3634 1313 
Q 3634 634 3220 271 
Q 2806 -91 2034 -91 
Q 1263 -91 848 271 
Q 434 634 434 1313 
Q 434 1759 690 2068 
Q 947 2378 1403 2484 
z
M 1172 3481 
Q 1172 3119 1398 2916 
Q 1625 2713 2034 2713 
Q 2441 2713 2670 2916 
Q 2900 3119 2900 3481 
Q 2900 3844 2670 4047 
Q 2441 4250 2034 4250 
Q 1625 4250 1398 4047 
Q 1172 3844 1172 3481 
z
" transform="scale(0.015625)"/>
       </defs>
       <use xlink:href="#DejaVuSans-30"/>
       <use xlink:href="#DejaVuSans-2e" x="63.623047"/>
       <use xlink:href="#DejaVuSans-38" x="95.410156"/>
      </g>
     </g>
    </g>
    <g id="ytick_5">
     <g id="line2d_21">
      <path d="M 41.190688 278.493844 
L 398.310688 278.493844 
" clip-path="url(#p04e8c14e61)" style="fill: none; stroke: #ffffff; stroke-width: 0.5"/>
     </g>
    </g>
    <g id="ytick_6">
     <g id="line2d_22">
      <path d="M 41.190688 213.145311 
L 398.310688 213.145311 
" clip-path="url(#p04e8c14e61)" style="fill: none; stroke: #ffffff; stroke-width: 0.5"/>
     </g>
    </g>
    <g id="ytick_7">
     <g id="line2d_23">
      <path d="M 41.190688 147.796777 
L 398.310688 147.796777 
" clip-path="url(#p04e8c14e61)" style="fill: none; stroke: #ffffff; stroke-width: 0.5"/>
     </g>
    </g>
    <g id="ytick_8">
     <g id="line2d_24">
      <path d="M 41.190688 82.448244 
L 398.310688 82.448244 
" clip-path="url(#p04e8c14e61)" style="fill: none; stroke: #ffffff; stroke-width: 0.5"/>
     </g>
    </g>
    <g id="text_10">
     <!-- Balanced Accuracy (Val Set) -->
     <g transform="translate(15.558281 234.774543)rotate(-90)scale(0.11 -0.11)">
      <defs>
       <path id="DejaVuSans-42" d="M 1259 2228 
L 1259 519 
L 2272 519 
Q 2781 519 3026 730 
Q 3272 941 3272 1375 
Q 3272 1813 3026 2020 
Q 2781 2228 2272 2228 
L 1259 2228 
z
M 1259 4147 
L 1259 2741 
L 2194 2741 
Q 2656 2741 2882 2914 
Q 3109 3088 3109 3444 
Q 3109 3797 2882 3972 
Q 2656 4147 2194 4147 
L 1259 4147 
z
M 628 4666 
L 2241 4666 
Q 2963 4666 3353 4366 
Q 3744 4066 3744 3513 
Q 3744 3084 3544 2831 
Q 3344 2578 2956 2516 
Q 3422 2416 3680 2098 
Q 3938 1781 3938 1306 
Q 3938 681 3513 340 
Q 3088 0 2303 0 
L 628 0 
L 628 4666 
z
" transform="scale(0.015625)"/>
       <path id="DejaVuSans-63" d="M 3122 3366 
L 3122 2828 
Q 2878 2963 2633 3030 
Q 2388 3097 2138 3097 
Q 1578 3097 1268 2742 
Q 959 2388 959 1747 
Q 959 1106 1268 751 
Q 1578 397 2138 397 
Q 2388 397 2633 464 
Q 2878 531 3122 666 
L 3122 134 
Q 2881 22 2623 -34 
Q 2366 -91 2075 -91 
Q 1284 -91 818 406 
Q 353 903 353 1747 
Q 353 2603 823 3093 
Q 1294 3584 2113 3584 
Q 2378 3584 2631 3529 
Q 2884 3475 3122 3366 
z
" transform="scale(0.015625)"/>
       <path id="DejaVuSans-64" d="M 2906 2969 
L 2906 4863 
L 3481 4863 
L 3481 0 
L 2906 0 
L 2906 525 
Q 2725 213 2448 61 
Q 2172 -91 1784 -91 
Q 1150 -91 751 415 
Q 353 922 353 1747 
Q 353 2572 751 3078 
Q 1150 3584 1784 3584 
Q 2172 3584 2448 3432 
Q 2725 3281 2906 2969 
z
M 947 1747 
Q 947 1113 1208 752 
Q 1469 391 1925 391 
Q 2381 391 2643 752 
Q 2906 1113 2906 1747 
Q 2906 2381 2643 2742 
Q 2381 3103 1925 3103 
Q 1469 3103 1208 2742 
Q 947 2381 947 1747 
z
" transform="scale(0.015625)"/>
       <path id="DejaVuSans-41" d="M 2188 4044 
L 1331 1722 
L 3047 1722 
L 2188 4044 
z
M 1831 4666 
L 2547 4666 
L 4325 0 
L 3669 0 
L 3244 1197 
L 1141 1197 
L 716 0 
L 50 0 
L 1831 4666 
z
" transform="scale(0.015625)"/>
       <path id="DejaVuSans-79" d="M 2059 -325 
Q 1816 -950 1584 -1140 
Q 1353 -1331 966 -1331 
L 506 -1331 
L 506 -850 
L 844 -850 
Q 1081 -850 1212 -737 
Q 1344 -625 1503 -206 
L 1606 56 
L 191 3500 
L 800 3500 
L 1894 763 
L 2988 3500 
L 3597 3500 
L 2059 -325 
z
" transform="scale(0.015625)"/>
       <path id="DejaVuSans-28" d="M 1984 4856 
Q 1566 4138 1362 3434 
Q 1159 2731 1159 2009 
Q 1159 1288 1364 580 
Q 1569 -128 1984 -844 
L 1484 -844 
Q 1016 -109 783 600 
Q 550 1309 550 2009 
Q 550 2706 781 3412 
Q 1013 4119 1484 4856 
L 1984 4856 
z
" transform="scale(0.015625)"/>
       <path id="DejaVuSans-56" d="M 1831 0 
L 50 4666 
L 709 4666 
L 2188 738 
L 3669 4666 
L 4325 4666 
L 2547 0 
L 1831 0 
z
" transform="scale(0.015625)"/>
       <path id="DejaVuSans-29" d="M 513 4856 
L 1013 4856 
Q 1481 4119 1714 3412 
Q 1947 2706 1947 2009 
Q 1947 1309 1714 600 
Q 1481 -109 1013 -844 
L 513 -844 
Q 928 -128 1133 580 
Q 1338 1288 1338 2009 
Q 1338 2731 1133 3434 
Q 928 4138 513 4856 
z
" transform="scale(0.015625)"/>
      </defs>
      <use xlink:href="#DejaVuSans-42"/>
      <use xlink:href="#DejaVuSans-61" x="68.603516"/>
      <use xlink:href="#DejaVuSans-6c" x="129.882812"/>
      <use xlink:href="#DejaVuSans-61" x="157.666016"/>
      <use xlink:href="#DejaVuSans-6e" x="218.945312"/>
      <use xlink:href="#DejaVuSans-63" x="282.324219"/>
      <use xlink:href="#DejaVuSans-65" x="337.304688"/>
      <use xlink:href="#DejaVuSans-64" x="398.828125"/>
      <use xlink:href="#DejaVuSans-20" x="462.304688"/>
      <use xlink:href="#DejaVuSans-41" x="494.091797"/>
      <use xlink:href="#DejaVuSans-63" x="560.75"/>
      <use xlink:href="#DejaVuSans-63" x="615.730469"/>
      <use xlink:href="#DejaVuSans-75" x="670.710938"/>
      <use xlink:href="#DejaVuSans-72" x="734.089844"/>
      <use xlink:href="#DejaVuSans-61" x="775.203125"/>
      <use xlink:href="#DejaVuSans-63" x="836.482422"/>
      <use xlink:href="#DejaVuSans-79" x="891.462891"/>
      <use xlink:href="#DejaVuSans-20" x="950.642578"/>
      <use xlink:href="#DejaVuSans-28" x="982.429688"/>
      <use xlink:href="#DejaVuSans-56" x="1021.443359"/>
      <use xlink:href="#DejaVuSans-61" x="1082.101562"/>
      <use xlink:href="#DejaVuSans-6c" x="1143.380859"/>
      <use xlink:href="#DejaVuSans-20" x="1171.164062"/>
      <use xlink:href="#DejaVuSans-53" x="1202.951172"/>
      <use xlink:href="#DejaVuSans-65" x="1266.427734"/>
      <use xlink:href="#DejaVuSans-74" x="1327.951172"/>
      <use xlink:href="#DejaVuSans-29" x="1367.160156"/>
     </g>
    </g>
   </g>
   <g id="PolyCollection_1">
    <path d="M 57.423415 128.652071 
L 57.423415 247.268755 
L 58.194481 246.122663 
L 58.481389 245.70024 
L 58.786229 245.253823 
L 59.144864 244.731817 
L 59.431772 244.316706 
L 59.467636 244.264973 
L 59.646953 244.006832 
L 59.951793 243.569993 
L 60.113179 243.339749 
L 60.274565 243.110215 
L 60.364224 242.983003 
L 61.045631 242.023401 
L 61.24288 241.748007 
L 61.54772 241.324518 
L 88.92952 214.685981 
L 90.471652 213.859149 
L 91.045468 213.567557 
L 91.637216 213.275715 
L 92.354487 212.933176 
L 92.946235 212.659202 
L 93.00003 212.634674 
L 93.358665 212.47275 
L 93.968345 212.203745 
L 94.309049 212.056791 
L 94.63182 211.919761 
L 94.793206 211.852035 
L 96.173952 211.293514 
L 96.550519 211.147501 
L 97.160199 210.916626 
L 120.435625 205.53765 
L 122.730891 205.220403 
L 123.591615 205.106242 
L 124.488204 204.989819 
L 125.582041 204.850971 
L 126.460697 204.741785 
L 126.532424 204.732959 
L 127.070377 204.667166 
L 127.984897 204.551454 
L 128.486986 204.484197 
L 128.989076 204.414375 
L 129.222189 204.381106 
L 131.284341 204.064755 
L 131.858158 203.970242 
L 132.772677 203.814469 
L 151.941731 200.200606 
L 155.008062 199.664333 
L 156.155695 199.461811 
L 157.339191 199.249708 
L 158.791664 198.982451 
L 159.957228 198.760386 
L 160.08275 198.735987 
L 160.782089 198.598108 
L 162.001449 198.348953 
L 162.682856 198.204254 
L 163.346331 198.059183 
L 163.651171 197.991061 
L 166.412662 197.288881 
L 167.165796 197.073615 
L 168.385156 196.709124 
L 183.447836 192.661108 
L 187.285233 192.246585 
L 188.701842 192.160789 
L 190.190178 192.09979 
L 192.019218 192.052419 
L 193.471691 192.024337 
L 193.615145 192.021567 
L 194.511733 192.002841 
L 196.018001 191.960062 
L 196.860794 191.92577 
L 197.703586 191.881061 
L 198.080153 191.85709 
L 201.523052 191.48316 
L 202.473435 191.317989 
L 203.997635 190.983444 
L 214.936009 186.726357 
L 219.544472 184.518599 
L 221.265921 183.717036 
L 223.041166 182.924538 
L 225.228841 182.013202 
L 226.986153 181.345252 
L 227.147539 181.287088 
L 228.223445 180.913777 
L 230.034553 180.34445 
L 231.056663 180.057015 
L 232.060842 179.798783 
L 232.509136 179.691231 
L 236.651373 178.915401 
L 237.781074 178.767255 
L 239.610114 178.576959 
L 246.442115 178.23112 
L 251.821643 178.034062 
L 253.812069 177.901293 
L 255.892153 177.701173 
L 258.438463 177.376932 
L 260.482684 177.076381 
L 260.697865 177.043205 
L 261.935157 176.848249 
L 264.051105 176.50425 
L 265.234601 176.310059 
L 266.418097 176.117294 
L 266.938118 176.033557 
L 271.761762 175.313128 
L 273.088713 175.139737 
L 275.222592 174.887997 
L 277.94822 174.615401 
L 284.080883 174.157002 
L 286.376148 174.007253 
L 288.743141 173.839884 
L 291.666018 173.586965 
L 293.997147 173.327232 
L 294.23026 173.297762 
L 295.646869 173.103495 
L 298.067657 172.750422 
L 299.430471 172.554443 
L 300.775353 172.364119 
L 301.367101 172.281583 
L 306.890083 171.564201 
L 308.396351 171.391243 
L 309.454325 171.277372 
L 310.835071 171.139389 
L 316.358054 170.737162 
L 318.922296 170.652478 
L 321.594128 170.650373 
L 324.87564 170.788895 
L 327.511609 171.030519 
L 327.762654 171.060197 
L 329.358581 171.277813 
L 332.084209 171.772698 
L 333.608408 172.122517 
L 335.132608 172.528483 
L 335.796083 172.723476 
L 340.960431 174.64947 
L 342.000473 175.129315 
L 343.70399 175.984779 
L 346.44755 177.54748 
L 348.635225 178.959522 
L 351.486375 181.022289 
L 354.463047 183.443471 
L 358.103195 186.770107 
L 361.026072 189.725426 
L 361.31298 190.028866 
L 363.088225 191.958525 
L 366.100761 195.434535 
L 367.804278 197.509488 
L 369.489864 199.638346 
L 370.242998 200.613475 
L 377.128794 210.18848 
L 379.029561 213.032916 
L 382.07796 217.768118 
L 382.07796 59.933712 
L 382.07796 59.933712 
L 379.029561 64.25043 
L 377.128794 66.846014 
L 370.242998 75.596669 
L 369.489864 76.488926 
L 367.804278 78.437486 
L 366.100761 80.337477 
L 363.088225 83.521855 
L 361.31298 85.290249 
L 361.026072 85.56836 
L 358.103195 88.277256 
L 354.463047 91.326431 
L 351.486375 93.544836 
L 348.635225 95.43359 
L 346.44755 96.725451 
L 343.70399 98.153717 
L 342.000473 98.934785 
L 340.960431 99.372617 
L 335.796083 101.128029 
L 335.132608 101.305847 
L 333.608408 101.677516 
L 332.084209 102.000119 
L 329.358581 102.463543 
L 327.762654 102.672718 
L 327.511609 102.701725 
L 324.87564 102.94686 
L 321.594128 103.115897 
L 318.922296 103.159152 
L 316.358054 103.134558 
L 310.835071 102.913667 
L 309.454325 102.8315 
L 308.396351 102.763098 
L 306.890083 102.658819 
L 301.367101 102.230821 
L 300.775353 102.182608 
L 299.430471 102.072553 
L 298.067657 101.961035 
L 295.646869 101.76543 
L 294.23026 101.660161 
L 293.997147 101.644269 
L 291.666018 101.505693 
L 288.743141 101.374142 
L 286.376148 101.288095 
L 284.080883 101.209458 
L 277.94822 100.95008 
L 275.222592 100.792557 
L 273.088713 100.651823 
L 271.761762 100.559088 
L 266.938118 100.227421 
L 266.418097 100.196089 
L 265.234601 100.131297 
L 264.051105 100.077852 
L 261.935157 100.019926 
L 260.697865 100.014281 
L 260.482684 100.015781 
L 258.438463 100.071892 
L 255.892153 100.265527 
L 253.812069 100.564839 
L 251.821643 100.983849 
L 246.442115 102.606699 
L 239.610114 105.159639 
L 237.781074 105.837423 
L 236.651373 106.241988 
L 232.509136 107.587248 
L 232.060842 107.717121 
L 231.056663 107.995584 
L 230.034553 108.260881 
L 228.223445 108.685218 
L 227.147539 108.909769 
L 226.986153 108.941717 
L 225.228841 109.261414 
L 223.041166 109.592934 
L 221.265921 109.81632 
L 219.544472 110.003132 
L 214.936009 110.436448 
L 203.997635 112.161793 
L 202.473435 112.597293 
L 201.523052 112.899811 
L 198.080153 114.147028 
L 197.703586 114.293954 
L 196.860794 114.627517 
L 196.018001 114.965905 
L 194.511733 115.576149 
L 193.615145 115.938733 
L 193.471691 115.996489 
L 192.019218 116.574199 
L 190.190178 117.273043 
L 188.701842 117.807416 
L 187.285233 118.279952 
L 183.447836 119.3476 
L 168.385156 121.142022 
L 167.165796 121.283422 
L 166.412662 121.385061 
L 163.651171 121.877477 
L 163.346331 121.944444 
L 162.682856 122.094486 
L 162.001449 122.25441 
L 160.782089 122.55416 
L 160.08275 122.733237 
L 159.957228 122.765889 
L 158.791664 123.075896 
L 157.339191 123.477358 
L 156.155695 123.814613 
L 155.008062 124.148483 
L 151.941731 125.062107 
L 132.772677 130.911494 
L 131.858158 131.217903 
L 131.284341 131.413615 
L 129.222189 132.141418 
L 128.989076 132.226274 
L 128.486986 132.410922 
L 127.984897 132.598191 
L 127.070377 132.946178 
L 126.532424 133.153836 
L 126.460697 133.181568 
L 125.582041 133.522058 
L 124.488204 133.94762 
L 123.591615 134.297473 
L 122.730891 134.63389 
L 120.435625 135.531377 
L 97.160199 143.048722 
L 96.550519 143.157542 
L 96.173952 143.2211 
L 94.793206 143.429241 
L 94.63182 143.450929 
L 94.309049 143.492593 
L 93.968345 143.534064 
L 93.358665 143.601709 
L 93.00003 143.637482 
L 92.946235 143.642587 
L 92.354487 143.69418 
L 91.637216 143.745266 
L 91.045468 143.777685 
L 90.471652 143.800514 
L 88.92952 143.818659 
L 61.54772 132.28471 
L 61.24288 132.031601 
L 61.045631 131.866493 
L 60.364224 131.288114 
L 60.274565 131.211091 
L 60.113179 131.071913 
L 59.951793 130.932047 
L 59.646953 130.66598 
L 59.467636 130.508329 
L 59.431772 130.476697 
L 59.144864 130.222435 
L 58.786229 129.901587 
L 58.481389 129.626242 
L 58.194481 129.3649 
L 57.423415 128.652071 
z
" clip-path="url(#p04e8c14e61)" style="fill: #999999; fill-opacity: 0.4"/>
   </g>
   <g id="line2d_25">
    <path d="M 57.423415 187.960413 
L 61.54772 186.804614 
L 128.486986 168.44756 
L 132.772677 167.362981 
L 160.08275 160.734612 
L 168.385156 158.925573 
L 196.018001 153.462983 
L 202.473435 151.957641 
L 203.997635 151.572619 
L 223.041166 146.258736 
L 232.509136 143.639239 
L 239.610114 141.868299 
L 246.442115 140.41891 
L 253.812069 139.233066 
L 258.438463 138.724412 
L 265.234601 138.220678 
L 273.088713 137.89578 
L 286.376148 137.647674 
L 299.430471 137.313498 
L 310.835071 137.026528 
L 324.87564 136.867878 
L 335.796083 136.925753 
L 351.486375 137.283563 
L 366.100761 137.886006 
L 379.029561 138.641673 
L 382.07796 138.850915 
L 382.07796 138.850915 
" clip-path="url(#p04e8c14e61)" style="fill: none; stroke: #db5f57; stroke-width: 1.772454; stroke-linejoin: miter"/>
   </g>
   <g id="PolyCollection_2">
    <path d="M 57.423415 232.077013 
L 57.423415 269.271144 
L 58.194481 269.045128 
L 58.481389 268.961881 
L 58.786229 268.873941 
L 59.144864 268.771158 
L 59.431772 268.689463 
L 59.467636 268.679284 
L 59.646953 268.628502 
L 59.951793 268.542598 
L 60.113179 268.497339 
L 60.274565 268.452231 
L 60.364224 268.427236 
L 61.045631 268.238823 
L 61.24288 268.184795 
L 61.54772 268.101751 
L 88.92952 263.168896 
L 90.471652 263.039665 
L 91.045468 262.994889 
L 91.637216 262.950509 
L 92.354487 262.898659 
L 92.946235 262.857143 
L 93.00003 262.853424 
L 93.358665 262.828858 
L 93.968345 262.787989 
L 94.309049 262.765627 
L 94.63182 262.744748 
L 94.793206 262.734418 
L 96.173952 262.648892 
L 96.550519 262.626413 
L 97.160199 262.590741 
L 120.435625 261.562928 
L 122.730891 261.471651 
L 123.591615 261.437315 
L 124.488204 261.401484 
L 125.582041 261.357688 
L 126.460697 261.322452 
L 126.532424 261.319574 
L 127.070377 261.29798 
L 127.984897 261.255029 
L 128.486986 261.226258 
L 128.989076 261.19392 
L 129.222189 261.177717 
L 131.284341 261.003242 
L 131.858158 260.945302 
L 132.772677 260.845159 
L 151.941731 257.597776 
L 155.008062 257.048601 
L 156.155695 256.84957 
L 157.339191 256.648669 
L 158.791664 256.408676 
L 159.957228 256.221715 
L 160.08275 256.201894 
L 160.782089 256.092612 
L 162.001449 255.906884 
L 162.682856 255.805866 
L 163.346331 255.709492 
L 163.651171 255.665885 
L 166.412662 255.23502 
L 167.165796 255.106161 
L 168.385156 254.889505 
L 183.447836 252.239885 
L 187.285233 251.791103 
L 188.701842 251.656835 
L 190.190178 251.532244 
L 192.019218 251.399402 
L 193.471691 251.307071 
L 193.615145 251.298478 
L 194.511733 251.24657 
L 196.018001 251.164948 
L 196.860794 251.121322 
L 197.703586 251.078435 
L 198.080153 251.059358 
L 201.523052 250.877549 
L 202.473435 250.821914 
L 203.997635 250.724503 
L 214.936009 249.640137 
L 219.544472 249.113449 
L 221.265921 248.929631 
L 223.041166 248.753069 
L 225.228841 248.558266 
L 226.986153 248.423005 
L 227.147539 248.411607 
L 228.223445 248.340186 
L 230.034553 248.238354 
L 231.056663 248.191222 
L 232.060842 248.152151 
L 232.509136 248.136994 
L 236.651373 248.059259 
L 237.781074 248.05544 
L 239.610114 248.061807 
L 246.442115 248.156678 
L 251.821643 248.18987 
L 253.812069 248.16501 
L 255.892153 248.107709 
L 258.438463 247.987649 
L 260.482684 247.856784 
L 260.697865 247.841551 
L 261.935157 247.749467 
L 264.051105 247.577816 
L 265.234601 247.476471 
L 266.418097 247.372992 
L 266.938118 247.327182 
L 271.761762 246.912515 
L 273.088713 246.807545 
L 275.222592 246.652563 
L 277.94822 246.485026 
L 284.080883 246.258722 
L 286.376148 246.231751 
L 288.743141 246.236938 
L 291.666018 246.28867 
L 293.997147 246.365418 
L 294.23026 246.374838 
L 295.646869 246.439053 
L 298.067657 246.56416 
L 299.430471 246.639571 
L 300.775353 246.718087 
L 301.367101 246.754046 
L 306.890083 247.139894 
L 308.396351 247.263795 
L 309.454325 247.356443 
L 310.835071 247.484874 
L 316.358054 248.096721 
L 318.922296 248.4431 
L 321.594128 248.853352 
L 324.87564 249.434741 
L 327.511609 249.970882 
L 327.762654 250.025402 
L 329.358581 250.386805 
L 332.084209 251.066255 
L 333.608408 251.48257 
L 335.132608 251.926472 
L 335.796083 252.128617 
L 340.960431 253.891563 
L 342.000473 254.288311 
L 343.70399 254.969122 
L 346.44755 256.147244 
L 348.635225 257.15933 
L 351.486375 258.575131 
L 354.463047 260.169213 
L 358.103195 262.276849 
L 361.026072 264.092223 
L 361.31298 264.276207 
L 363.088225 265.437249 
L 366.100761 267.49517 
L 367.804278 268.706599 
L 369.489864 269.938429 
L 370.242998 270.499318 
L 377.128794 275.917907 
L 379.029561 277.502698 
L 382.07796 280.121371 
L 382.07796 230.629905 
L 382.07796 230.629905 
L 379.029561 230.849604 
L 377.128794 230.970617 
L 370.242998 231.298328 
L 369.489864 231.322987 
L 367.804278 231.369696 
L 366.100761 231.404674 
L 363.088225 231.435222 
L 361.31298 231.433762 
L 361.026072 231.432133 
L 358.103195 231.392863 
L 354.463047 231.284463 
L 351.486375 231.145196 
L 348.635225 230.968457 
L 346.44755 230.804223 
L 343.70399 230.563966 
L 342.000473 230.396315 
L 340.960431 230.287319 
L 335.796083 229.678736 
L 335.132608 229.593492 
L 333.608408 229.39343 
L 332.084209 229.187963 
L 329.358581 228.809006 
L 327.762654 228.58143 
L 327.511609 228.545312 
L 324.87564 228.161801 
L 321.594128 227.676853 
L 318.922296 227.279503 
L 316.358054 226.898859 
L 310.835071 226.091623 
L 309.454325 225.894161 
L 308.396351 225.744358 
L 306.890083 225.533525 
L 301.367101 224.788525 
L 300.775353 224.711568 
L 299.430471 224.538863 
L 298.067657 224.367032 
L 295.646869 224.069878 
L 294.23026 223.911739 
L 293.997147 223.888095 
L 291.666018 223.686451 
L 288.743141 223.514163 
L 286.376148 223.429513 
L 284.080883 223.38487 
L 277.94822 223.386104 
L 275.222592 223.41877 
L 273.088713 223.450686 
L 271.761762 223.472207 
L 266.938118 223.556973 
L 266.418097 223.566702 
L 265.234601 223.58942 
L 264.051105 223.613115 
L 261.935157 223.658735 
L 260.697865 223.687918 
L 260.482684 223.693218 
L 258.438463 223.747434 
L 255.892153 223.826541 
L 253.812069 223.914945 
L 251.821643 224.029562 
L 246.442115 224.443449 
L 239.610114 225.04065 
L 237.781074 225.187142 
L 236.651373 225.271365 
L 232.509136 225.527653 
L 232.060842 225.54981 
L 231.056663 225.595225 
L 230.034553 225.635415 
L 228.223445 225.691783 
L 227.147539 225.716557 
L 226.986153 225.719736 
L 225.228841 225.745796 
L 223.041166 225.758788 
L 221.265921 225.756896 
L 219.544472 225.74795 
L 214.936009 225.718233 
L 203.997635 226.008732 
L 202.473435 226.137799 
L 201.523052 226.236501 
L 198.080153 226.692143 
L 197.703586 226.749774 
L 196.860794 226.883236 
L 196.018001 227.022216 
L 194.511733 227.281776 
L 193.615145 227.441506 
L 193.471691 227.467341 
L 192.019218 227.732016 
L 190.190178 228.069138 
L 188.701842 228.342163 
L 187.285233 228.597699 
L 183.447836 229.251279 
L 168.385156 231.194249 
L 167.165796 231.340951 
L 166.412662 231.434181 
L 163.651171 231.799271 
L 163.346331 231.842516 
L 162.682856 231.940449 
L 162.001449 232.04624 
L 160.782089 232.247834 
L 160.08275 232.370034 
L 159.957228 232.392443 
L 158.791664 232.606979 
L 157.339191 232.889054 
L 156.155695 233.129199 
L 155.008062 233.369416 
L 151.941731 234.036916 
L 132.772677 237.985282 
L 131.858158 238.132659 
L 131.284341 238.222332 
L 129.222189 238.525825 
L 128.989076 238.558202 
L 128.486986 238.626547 
L 127.984897 238.692949 
L 127.070377 238.808734 
L 126.532424 238.874811 
L 126.460697 238.883618 
L 125.582041 238.991382 
L 124.488204 239.125082 
L 123.591615 239.234109 
L 122.730891 239.338137 
L 120.435625 239.611358 
L 97.160199 241.30969 
L 96.550519 241.30709 
L 96.173952 241.303714 
L 94.793206 241.279373 
L 94.63182 241.275267 
L 94.309049 241.266243 
L 93.968345 241.255528 
L 93.358665 241.233257 
L 93.00003 241.218266 
L 92.946235 241.215895 
L 92.354487 241.18768 
L 91.637216 241.148141 
L 91.045468 241.111175 
L 90.471652 241.071676 
L 88.92952 240.94733 
L 61.54772 233.910601 
L 61.24288 233.781486 
L 61.045631 233.697388 
L 60.364224 233.403543 
L 60.274565 233.364496 
L 60.113179 233.293989 
L 59.951793 233.223195 
L 59.646953 233.088691 
L 59.467636 233.009095 
L 59.431772 232.993134 
L 59.144864 232.864936 
L 58.786229 232.703429 
L 58.481389 232.565049 
L 58.194481 232.433891 
L 57.423415 232.077013 
z
" clip-path="url(#p04e8c14e61)" style="fill: #999999; fill-opacity: 0.4"/>
   </g>
   <g id="line2d_26">
    <path d="M 57.423415 250.674079 
L 61.54772 251.006176 
L 91.045468 252.053032 
L 97.160199 251.950215 
L 125.582041 250.174535 
L 131.284341 249.612787 
L 132.772677 249.415221 
L 163.651171 243.732578 
L 168.385156 243.041877 
L 190.190178 239.800691 
L 198.080153 238.87575 
L 203.997635 238.366617 
L 223.041166 237.255928 
L 239.610114 236.551229 
L 266.938118 235.442078 
L 277.94822 234.935565 
L 286.376148 234.830632 
L 291.666018 234.987561 
L 298.067657 235.465596 
L 308.396351 236.504077 
L 316.358054 237.49779 
L 324.87564 238.798271 
L 332.084209 240.127109 
L 335.796083 240.903676 
L 343.70399 242.766544 
L 351.486375 244.860164 
L 358.103195 246.834856 
L 366.100761 249.449922 
L 370.242998 250.898823 
L 382.07796 255.375638 
L 382.07796 255.375638 
" clip-path="url(#p04e8c14e61)" style="fill: none; stroke: #57db5f; stroke-width: 1.772454; stroke-linejoin: miter"/>
   </g>
   <g id="PolyCollection_3">
    <path d="M 57.423415 140.145714 
L 57.423415 264.22518 
L 58.194481 262.593347 
L 58.481389 261.991223 
L 58.786229 261.354495 
L 59.144864 260.609413 
L 59.431772 260.01648 
L 59.467636 259.942559 
L 59.646953 259.573613 
L 59.951793 258.948916 
L 60.113179 258.619478 
L 60.274565 258.290931 
L 60.364224 258.10879 
L 61.045631 256.733556 
L 61.24288 256.338453 
L 61.54772 255.730491 
L 88.92952 215.301744 
L 90.471652 213.867377 
L 91.045468 213.354374 
L 91.637216 212.83684 
L 92.354487 212.224738 
L 92.946235 211.731929 
L 93.00003 211.687666 
L 93.358665 211.394836 
L 93.968345 210.905937 
L 94.309049 210.637539 
L 94.63182 210.3864 
L 94.793206 210.261962 
L 96.173952 209.227428 
L 96.550519 208.954411 
L 97.160199 208.520426 
L 120.435625 197.306916 
L 122.730891 196.572518 
L 123.591615 196.30726 
L 124.488204 196.036369 
L 125.582041 195.712949 
L 126.460697 195.458456 
L 126.532424 195.437881 
L 127.070377 195.2845 
L 127.984897 195.024131 
L 128.486986 194.880364 
L 128.989076 194.736064 
L 129.222189 194.6689 
L 131.284341 194.071236 
L 131.858158 193.904239 
L 132.772677 193.638026 
L 151.941731 188.924201 
L 155.008062 188.377719 
L 156.155695 188.17903 
L 157.339191 187.974631 
L 158.791664 187.721429 
L 159.957228 187.513813 
L 160.08275 187.491119 
L 160.782089 187.363225 
L 162.001449 187.133232 
L 162.682856 187.000068 
L 163.346331 186.8667 
L 163.651171 186.804089 
L 166.412662 186.246364 
L 167.165796 186.101481 
L 168.385156 185.87703 
L 183.447836 185.462221 
L 187.285233 186.260479 
L 188.701842 186.621175 
L 190.190178 187.022159 
L 192.019218 187.526066 
L 193.471691 187.917633 
L 193.615145 187.955257 
L 194.511733 188.184175 
L 196.018001 188.53656 
L 196.860794 188.710449 
L 197.703586 188.863586 
L 198.080153 188.924451 
L 201.523052 189.209746 
L 202.473435 189.18493 
L 203.997635 189.032699 
L 214.936009 185.511847 
L 219.544472 183.417276 
L 221.265921 182.632624 
L 223.041166 181.844244 
L 225.228841 180.920352 
L 226.986153 180.228899 
L 227.147539 180.167996 
L 228.223445 179.773979 
L 230.034553 179.160346 
L 231.056663 178.842764 
L 232.060842 178.551344 
L 232.509136 178.427837 
L 236.651373 177.471366 
L 237.781074 177.263439 
L 239.610114 176.966556 
L 246.442115 176.109205 
L 251.821643 175.371377 
L 253.812069 175.004867 
L 255.892153 174.540081 
L 258.438463 173.842412 
L 260.482684 173.193896 
L 260.697865 173.121847 
L 261.935157 172.695748 
L 264.051105 171.929076 
L 265.234601 171.485298 
L 266.418097 171.034831 
L 266.938118 170.835565 
L 271.761762 168.994209 
L 273.088713 168.502424 
L 275.222592 167.735704 
L 277.94822 166.80792 
L 284.080883 164.941492 
L 286.376148 164.307586 
L 288.743141 163.675682 
L 291.666018 162.907837 
L 293.997147 162.291946 
L 294.23026 162.229807 
L 295.646869 161.849359 
L 298.067657 161.192157 
L 299.430471 160.821431 
L 300.775353 160.45666 
L 301.367101 160.296838 
L 306.890083 158.84937 
L 308.396351 158.476756 
L 309.454325 158.223116 
L 310.835071 157.903676 
L 316.358054 156.794973 
L 318.922296 156.398441 
L 321.594128 156.086689 
L 324.87564 155.871175 
L 327.511609 155.853394 
L 327.762654 155.859662 
L 329.358581 155.934127 
L 332.084209 156.208813 
L 333.608408 156.449995 
L 335.132608 156.758538 
L 335.796083 156.914789 
L 340.960431 158.604413 
L 342.000473 159.050171 
L 343.70399 159.859455 
L 346.44755 161.372661 
L 348.635225 162.766827 
L 351.486375 164.834306 
L 354.463047 167.293176 
L 358.103195 170.709478 
L 361.026072 173.769847 
L 361.31298 174.085126 
L 363.088225 176.093937 
L 366.100761 179.726787 
L 367.804278 181.902465 
L 369.489864 184.139188 
L 370.242998 185.165075 
L 377.128794 195.272784 
L 379.029561 198.284535 
L 382.07796 203.304695 
L 382.07796 38.201371 
L 382.07796 38.201371 
L 379.029561 42.650009 
L 377.128794 45.328814 
L 370.242998 54.390735 
L 369.489864 55.318236 
L 367.804278 57.346712 
L 366.100761 59.32904 
L 363.088225 62.663317 
L 361.31298 64.522869 
L 361.026072 64.815924 
L 358.103195 67.68063 
L 354.463047 70.93377 
L 351.486375 73.32816 
L 348.635225 75.394185 
L 346.44755 76.828448 
L 343.70399 78.443955 
L 342.000473 79.346572 
L 340.960431 79.860754 
L 335.796083 82.02208 
L 335.132608 82.255809 
L 333.608408 82.760716 
L 332.084209 83.222922 
L 329.358581 83.950679 
L 327.762654 84.32266 
L 327.511609 84.37778 
L 324.87564 84.904738 
L 321.594128 85.441975 
L 318.922296 85.796772 
L 316.358054 86.078994 
L 310.835071 86.535882 
L 309.454325 86.625034 
L 308.396351 86.688004 
L 306.890083 86.770614 
L 301.367101 87.019952 
L 300.775353 87.043004 
L 299.430471 87.093562 
L 298.067657 87.142631 
L 295.646869 87.225886 
L 294.23026 87.293003 
L 293.997147 87.307691 
L 291.666018 87.506929 
L 288.743141 87.872597 
L 286.376148 88.239415 
L 284.080883 88.634416 
L 277.94822 89.750011 
L 275.222592 90.227867 
L 273.088713 90.584037 
L 271.761762 90.797441 
L 266.938118 91.538247 
L 266.418097 91.617145 
L 265.234601 91.798195 
L 264.051105 91.982931 
L 261.935157 92.329168 
L 260.697865 92.545427 
L 260.482684 92.584341 
L 258.438463 92.977159 
L 255.892153 93.538208 
L 253.812069 94.106754 
L 251.821643 94.772688 
L 246.442115 97.001971 
L 239.610114 100.16807 
L 237.781074 100.974892 
L 236.651373 101.451046 
L 232.509136 103.003171 
L 232.060842 103.150026 
L 231.056663 103.462611 
L 230.034553 103.757035 
L 228.223445 104.219 
L 227.147539 104.457407 
L 226.986153 104.490887 
L 225.228841 104.818048 
L 223.041166 105.13542 
L 221.265921 105.328479 
L 219.544472 105.470069 
L 214.936009 105.708476 
L 203.997635 106.58099 
L 202.473435 106.838825 
L 201.523052 107.007314 
L 198.080153 107.635524 
L 197.703586 107.703276 
L 196.860794 107.852297 
L 196.018001 107.996509 
L 194.511733 108.237722 
L 193.615145 108.368499 
L 193.471691 108.388393 
L 192.019218 108.571766 
L 190.190178 108.749336 
L 188.701842 108.843526 
L 187.285233 108.887381 
L 183.447836 108.772328 
L 168.385156 106.829755 
L 167.165796 106.82084 
L 166.412662 106.846864 
L 163.651171 107.185164 
L 163.346331 107.246566 
L 162.682856 107.385135 
L 162.001449 107.534226 
L 160.782089 107.817144 
L 160.08275 107.988133 
L 159.957228 108.019459 
L 158.791664 108.319067 
L 157.339191 108.712656 
L 156.155695 109.047969 
L 155.008062 109.384057 
L 151.941731 110.325268 
L 132.772677 117.377572 
L 131.858158 117.801358 
L 131.284341 118.074215 
L 129.222189 119.102281 
L 128.989076 119.223407 
L 128.486986 119.487821 
L 127.984897 119.757127 
L 127.070377 120.260468 
L 126.532424 120.562248 
L 126.460697 120.6026 
L 125.582041 121.099048 
L 124.488204 121.722387 
L 123.591615 122.237459 
L 122.730891 122.735208 
L 120.435625 124.076568 
L 97.160199 137.52693 
L 96.550519 137.833238 
L 96.173952 138.020002 
L 94.793206 138.688019 
L 94.63182 138.764299 
L 94.309049 138.915681 
L 93.968345 139.073737 
L 93.358665 139.352002 
L 93.00003 139.512871 
L 92.946235 139.536818 
L 92.354487 139.797003 
L 91.637216 140.104231 
L 91.045468 140.350395 
L 90.471652 140.582256 
L 88.92952 141.170693 
L 61.54772 141.668956 
L 61.24288 141.569158 
L 61.045631 141.503474 
L 60.364224 141.269896 
L 60.274565 141.238396 
L 60.113179 141.18125 
L 59.951793 141.123532 
L 59.646953 141.012952 
L 59.467636 140.946958 
L 59.431772 140.933675 
L 59.144864 140.826407 
L 58.786229 140.689819 
L 58.481389 140.571545 
L 58.194481 140.458413 
L 57.423415 140.145714 
z
" clip-path="url(#p04e8c14e61)" style="fill: #999999; fill-opacity: 0.4"/>
   </g>
   <g id="line2d_27">
    <path d="M 57.423415 202.185447 
L 61.54772 198.699723 
L 88.92952 178.236218 
L 94.793206 174.474991 
L 97.160199 173.023678 
L 120.435625 160.691742 
L 127.984897 157.390629 
L 132.772677 155.507799 
L 151.941731 149.624734 
L 160.782089 147.590185 
L 163.651171 146.994626 
L 167.165796 146.46116 
L 168.385156 146.353393 
L 183.447836 147.117274 
L 192.019218 148.048916 
L 196.018001 148.266535 
L 198.080153 148.279987 
L 202.473435 148.011878 
L 203.997635 147.806845 
L 214.936009 145.610161 
L 223.041166 143.489832 
L 232.509136 140.715504 
L 246.442115 136.555588 
L 255.892153 134.039145 
L 266.418097 131.325988 
L 277.94822 128.278966 
L 286.376148 126.2735 
L 291.666018 125.207383 
L 299.430471 123.957497 
L 316.358054 121.436984 
L 324.87564 120.387956 
L 332.084209 119.715868 
L 335.796083 119.468435 
L 343.70399 119.151705 
L 351.486375 119.081233 
L 361.026072 119.292886 
L 369.489864 119.728712 
L 377.128794 120.300799 
L 382.07796 120.753033 
L 382.07796 120.753033 
" clip-path="url(#p04e8c14e61)" style="fill: none; stroke: #5f57db; stroke-width: 1.772454; stroke-linejoin: miter"/>
   </g>
   <g id="patch_3">
    <path d="M 405.510688 202.916339 
L 517.346688 202.916339 
L 517.346688 111.950402 
L 405.510688 111.950402 
z
" style="fill: #ffffff"/>
   </g>
   <g id="text_11">
    <!-- Model -->
    <g transform="translate(417.710688 135.543996)scale(0.11 -0.11)">
     <defs>
      <path id="DejaVuSans-4d" d="M 628 4666 
L 1569 4666 
L 2759 1491 
L 3956 4666 
L 4897 4666 
L 4897 0 
L 4281 0 
L 4281 4097 
L 3078 897 
L 2444 897 
L 1241 4097 
L 1241 0 
L 628 0 
L 628 4666 
z
" transform="scale(0.015625)"/>
     </defs>
     <use xlink:href="#DejaVuSans-4d"/>
     <use xlink:href="#DejaVuSans-6f" x="86.279297"/>
     <use xlink:href="#DejaVuSans-64" x="147.460938"/>
     <use xlink:href="#DejaVuSans-65" x="210.9375"/>
     <use xlink:href="#DejaVuSans-6c" x="272.460938"/>
    </g>
   </g>
   <g id="patch_4">
    <path d="M 417.710688 155.036339 
L 433.550687 155.036339 
L 433.550687 139.196339 
L 417.710688 139.196339 
z
" clip-path="url(#p848a42e237)" style="fill: #f2f2f2"/>
   </g>
   <g id="patch_5">
    <path d="M 417.710688 151.076339 
L 433.550687 151.076339 
L 433.550687 143.156339 
L 417.710688 143.156339 
z
" clip-path="url(#p848a42e237)" style="fill: #999999; opacity: 0.4"/>
   </g>
   <g id="line2d_28">
    <path d="M 417.710688 147.116339 
L 433.550687 147.116339 
" clip-path="url(#p848a42e237)" style="fill: none; stroke: #db5f57; stroke-width: 1.772454"/>
   </g>
   <g id="text_12">
    <!-- five_layer_net -->
    <g transform="translate(436.550687 149.422214)scale(0.088 -0.088)">
     <defs>
      <path id="DejaVuSans-66" d="M 2375 4863 
L 2375 4384 
L 1825 4384 
Q 1516 4384 1395 4259 
Q 1275 4134 1275 3809 
L 1275 3500 
L 2222 3500 
L 2222 3053 
L 1275 3053 
L 1275 0 
L 697 0 
L 697 3053 
L 147 3053 
L 147 3500 
L 697 3500 
L 697 3744 
Q 697 4328 969 4595 
Q 1241 4863 1831 4863 
L 2375 4863 
z
" transform="scale(0.015625)"/>
      <path id="DejaVuSans-76" d="M 191 3500 
L 800 3500 
L 1894 563 
L 2988 3500 
L 3597 3500 
L 2284 0 
L 1503 0 
L 191 3500 
z
" transform="scale(0.015625)"/>
      <path id="DejaVuSans-5f" d="M 3263 -1063 
L 3263 -1509 
L -63 -1509 
L -63 -1063 
L 3263 -1063 
z
" transform="scale(0.015625)"/>
     </defs>
     <use xlink:href="#DejaVuSans-66"/>
     <use xlink:href="#DejaVuSans-69" x="35.205078"/>
     <use xlink:href="#DejaVuSans-76" x="62.988281"/>
     <use xlink:href="#DejaVuSans-65" x="122.167969"/>
     <use xlink:href="#DejaVuSans-5f" x="183.691406"/>
     <use xlink:href="#DejaVuSans-6c" x="233.691406"/>
     <use xlink:href="#DejaVuSans-61" x="261.474609"/>
     <use xlink:href="#DejaVuSans-79" x="322.753906"/>
     <use xlink:href="#DejaVuSans-65" x="381.933594"/>
     <use xlink:href="#DejaVuSans-72" x="443.457031"/>
     <use xlink:href="#DejaVuSans-5f" x="484.570312"/>
     <use xlink:href="#DejaVuSans-6e" x="534.570312"/>
     <use xlink:href="#DejaVuSans-65" x="597.949219"/>
     <use xlink:href="#DejaVuSans-74" x="659.472656"/>
    </g>
   </g>
   <g id="patch_6">
    <path d="M 417.710688 172.876339 
L 433.550687 172.876339 
L 433.550687 157.036339 
L 417.710688 157.036339 
z
" clip-path="url(#p45c7837d6f)" style="fill: #f2f2f2"/>
   </g>
   <g id="patch_7">
    <path d="M 417.710688 168.916339 
L 433.550687 168.916339 
L 433.550687 160.996339 
L 417.710688 160.996339 
z
" clip-path="url(#p45c7837d6f)" style="fill: #999999; opacity: 0.4"/>
   </g>
   <g id="line2d_29">
    <path d="M 417.710688 164.956339 
L 433.550687 164.956339 
" clip-path="url(#p45c7837d6f)" style="fill: none; stroke: #57db5f; stroke-width: 1.772454"/>
   </g>
   <g id="text_13">
    <!-- pytorch_lr -->
    <g transform="translate(436.550687 167.262214)scale(0.088 -0.088)">
     <defs>
      <path id="DejaVuSans-68" d="M 3513 2113 
L 3513 0 
L 2938 0 
L 2938 2094 
Q 2938 2591 2744 2837 
Q 2550 3084 2163 3084 
Q 1697 3084 1428 2787 
Q 1159 2491 1159 1978 
L 1159 0 
L 581 0 
L 581 4863 
L 1159 4863 
L 1159 2956 
Q 1366 3272 1645 3428 
Q 1925 3584 2291 3584 
Q 2894 3584 3203 3211 
Q 3513 2838 3513 2113 
z
" transform="scale(0.015625)"/>
     </defs>
     <use xlink:href="#DejaVuSans-70"/>
     <use xlink:href="#DejaVuSans-79" x="63.476562"/>
     <use xlink:href="#DejaVuSans-74" x="122.65625"/>
     <use xlink:href="#DejaVuSans-6f" x="161.865234"/>
     <use xlink:href="#DejaVuSans-72" x="223.046875"/>
     <use xlink:href="#DejaVuSans-63" x="261.910156"/>
     <use xlink:href="#DejaVuSans-68" x="316.890625"/>
     <use xlink:href="#DejaVuSans-5f" x="380.269531"/>
     <use xlink:href="#DejaVuSans-6c" x="430.269531"/>
     <use xlink:href="#DejaVuSans-72" x="458.052734"/>
    </g>
   </g>
   <g id="patch_8">
    <path d="M 417.710688 190.716339 
L 433.550687 190.716339 
L 433.550687 174.876339 
L 417.710688 174.876339 
z
" clip-path="url(#p9c10fb36b8)" style="fill: #f2f2f2"/>
   </g>
   <g id="patch_9">
    <path d="M 417.710688 186.756339 
L 433.550687 186.756339 
L 433.550687 178.836339 
L 417.710688 178.836339 
z
" clip-path="url(#p9c10fb36b8)" style="fill: #999999; opacity: 0.4"/>
   </g>
   <g id="line2d_30">
    <path d="M 417.710688 182.796339 
L 433.550687 182.796339 
" clip-path="url(#p9c10fb36b8)" style="fill: none; stroke: #5f57db; stroke-width: 1.772454"/>
   </g>
   <g id="text_14">
    <!-- three_layer_net -->
    <g transform="translate(436.550687 185.102214)scale(0.088 -0.088)">
     <use xlink:href="#DejaVuSans-74"/>
     <use xlink:href="#DejaVuSans-68" x="39.208984"/>
     <use xlink:href="#DejaVuSans-72" x="102.587891"/>
     <use xlink:href="#DejaVuSans-65" x="141.451172"/>
     <use xlink:href="#DejaVuSans-65" x="202.974609"/>
     <use xlink:href="#DejaVuSans-5f" x="264.498047"/>
     <use xlink:href="#DejaVuSans-6c" x="314.498047"/>
     <use xlink:href="#DejaVuSans-61" x="342.28125"/>
     <use xlink:href="#DejaVuSans-79" x="403.560547"/>
     <use xlink:href="#DejaVuSans-65" x="462.740234"/>
     <use xlink:href="#DejaVuSans-72" x="524.263672"/>
     <use xlink:href="#DejaVuSans-5f" x="565.376953"/>
     <use xlink:href="#DejaVuSans-6e" x="615.376953"/>
     <use xlink:href="#DejaVuSans-65" x="678.755859"/>
     <use xlink:href="#DejaVuSans-74" x="740.279297"/>
    </g>
   </g>
  </g>
  <g id="text_15">
   <!-- Sex Label Prediction - Signal Removed -->
   <g transform="translate(87.23975 17.229938)scale(0.132 -0.132)">
    <defs>
     <path id="DejaVuSans-78" d="M 3513 3500 
L 2247 1797 
L 3578 0 
L 2900 0 
L 1881 1375 
L 863 0 
L 184 0 
L 1544 1831 
L 300 3500 
L 978 3500 
L 1906 2253 
L 2834 3500 
L 3513 3500 
z
" transform="scale(0.015625)"/>
     <path id="DejaVuSans-4c" d="M 628 4666 
L 1259 4666 
L 1259 531 
L 3531 531 
L 3531 0 
L 628 0 
L 628 4666 
z
" transform="scale(0.015625)"/>
     <path id="DejaVuSans-62" d="M 3116 1747 
Q 3116 2381 2855 2742 
Q 2594 3103 2138 3103 
Q 1681 3103 1420 2742 
Q 1159 2381 1159 1747 
Q 1159 1113 1420 752 
Q 1681 391 2138 391 
Q 2594 391 2855 752 
Q 3116 1113 3116 1747 
z
M 1159 2969 
Q 1341 3281 1617 3432 
Q 1894 3584 2278 3584 
Q 2916 3584 3314 3078 
Q 3713 2572 3713 1747 
Q 3713 922 3314 415 
Q 2916 -91 2278 -91 
Q 1894 -91 1617 61 
Q 1341 213 1159 525 
L 1159 0 
L 581 0 
L 581 4863 
L 1159 4863 
L 1159 2969 
z
" transform="scale(0.015625)"/>
     <path id="DejaVuSans-50" d="M 1259 4147 
L 1259 2394 
L 2053 2394 
Q 2494 2394 2734 2622 
Q 2975 2850 2975 3272 
Q 2975 3691 2734 3919 
Q 2494 4147 2053 4147 
L 1259 4147 
z
M 628 4666 
L 2053 4666 
Q 2838 4666 3239 4311 
Q 3641 3956 3641 3272 
Q 3641 2581 3239 2228 
Q 2838 1875 2053 1875 
L 1259 1875 
L 1259 0 
L 628 0 
L 628 4666 
z
" transform="scale(0.015625)"/>
     <path id="DejaVuSans-2d" d="M 313 2009 
L 1997 2009 
L 1997 1497 
L 313 1497 
L 313 2009 
z
" transform="scale(0.015625)"/>
     <path id="DejaVuSans-67" d="M 2906 1791 
Q 2906 2416 2648 2759 
Q 2391 3103 1925 3103 
Q 1463 3103 1205 2759 
Q 947 2416 947 1791 
Q 947 1169 1205 825 
Q 1463 481 1925 481 
Q 2391 481 2648 825 
Q 2906 1169 2906 1791 
z
M 3481 434 
Q 3481 -459 3084 -895 
Q 2688 -1331 1869 -1331 
Q 1566 -1331 1297 -1286 
Q 1028 -1241 775 -1147 
L 775 -588 
Q 1028 -725 1275 -790 
Q 1522 -856 1778 -856 
Q 2344 -856 2625 -561 
Q 2906 -266 2906 331 
L 2906 616 
Q 2728 306 2450 153 
Q 2172 0 1784 0 
Q 1141 0 747 490 
Q 353 981 353 1791 
Q 353 2603 747 3093 
Q 1141 3584 1784 3584 
Q 2172 3584 2450 3431 
Q 2728 3278 2906 2969 
L 2906 3500 
L 3481 3500 
L 3481 434 
z
" transform="scale(0.015625)"/>
     <path id="DejaVuSans-52" d="M 2841 2188 
Q 3044 2119 3236 1894 
Q 3428 1669 3622 1275 
L 4263 0 
L 3584 0 
L 2988 1197 
Q 2756 1666 2539 1819 
Q 2322 1972 1947 1972 
L 1259 1972 
L 1259 0 
L 628 0 
L 628 4666 
L 2053 4666 
Q 2853 4666 3247 4331 
Q 3641 3997 3641 3322 
Q 3641 2881 3436 2590 
Q 3231 2300 2841 2188 
z
M 1259 4147 
L 1259 2491 
L 2053 2491 
Q 2509 2491 2742 2702 
Q 2975 2913 2975 3322 
Q 2975 3731 2742 3939 
Q 2509 4147 2053 4147 
L 1259 4147 
z
" transform="scale(0.015625)"/>
    </defs>
    <use xlink:href="#DejaVuSans-53"/>
    <use xlink:href="#DejaVuSans-65" x="63.476562"/>
    <use xlink:href="#DejaVuSans-78" x="123.25"/>
    <use xlink:href="#DejaVuSans-20" x="182.429688"/>
    <use xlink:href="#DejaVuSans-4c" x="214.216797"/>
    <use xlink:href="#DejaVuSans-61" x="269.929688"/>
    <use xlink:href="#DejaVuSans-62" x="331.208984"/>
    <use xlink:href="#DejaVuSans-65" x="394.685547"/>
    <use xlink:href="#DejaVuSans-6c" x="456.208984"/>
    <use xlink:href="#DejaVuSans-20" x="483.992188"/>
    <use xlink:href="#DejaVuSans-50" x="515.779297"/>
    <use xlink:href="#DejaVuSans-72" x="574.332031"/>
    <use xlink:href="#DejaVuSans-65" x="613.195312"/>
    <use xlink:href="#DejaVuSans-64" x="674.71875"/>
    <use xlink:href="#DejaVuSans-69" x="738.195312"/>
    <use xlink:href="#DejaVuSans-63" x="765.978516"/>
    <use xlink:href="#DejaVuSans-74" x="820.958984"/>
    <use xlink:href="#DejaVuSans-69" x="860.167969"/>
    <use xlink:href="#DejaVuSans-6f" x="887.951172"/>
    <use xlink:href="#DejaVuSans-6e" x="949.132812"/>
    <use xlink:href="#DejaVuSans-20" x="1012.511719"/>
    <use xlink:href="#DejaVuSans-2d" x="1044.298828"/>
    <use xlink:href="#DejaVuSans-20" x="1080.382812"/>
    <use xlink:href="#DejaVuSans-53" x="1112.169922"/>
    <use xlink:href="#DejaVuSans-69" x="1175.646484"/>
    <use xlink:href="#DejaVuSans-67" x="1203.429688"/>
    <use xlink:href="#DejaVuSans-6e" x="1266.90625"/>
    <use xlink:href="#DejaVuSans-61" x="1330.285156"/>
    <use xlink:href="#DejaVuSans-6c" x="1391.564453"/>
    <use xlink:href="#DejaVuSans-20" x="1419.347656"/>
    <use xlink:href="#DejaVuSans-52" x="1451.134766"/>
    <use xlink:href="#DejaVuSans-65" x="1516.117188"/>
    <use xlink:href="#DejaVuSans-6d" x="1577.640625"/>
    <use xlink:href="#DejaVuSans-6f" x="1675.052734"/>
    <use xlink:href="#DejaVuSans-76" x="1736.234375"/>
    <use xlink:href="#DejaVuSans-65" x="1795.414062"/>
    <use xlink:href="#DejaVuSans-64" x="1856.9375"/>
   </g>
  </g>
 </g>
 <defs>
  <clipPath id="p04e8c14e61">
   <rect x="41.190688" y="26.105371" width="357.12" height="266.112"/>
  </clipPath>
  <clipPath id="p848a42e237">
   <path d="M 417.710688 155.036339 
L 417.710688 139.196339 
L 433.550687 139.196339 
L 433.550687 155.036339 
"/>
  </clipPath>
  <clipPath id="p45c7837d6f">
   <path d="M 417.710688 172.876339 
L 417.710688 157.036339 
L 433.550687 157.036339 
L 433.550687 172.876339 
"/>
  </clipPath>
  <clipPath id="p9c10fb36b8">
   <path d="M 417.710688 190.716339 
L 417.710688 174.876339 
L 433.550687 174.876339 
L 433.550687 190.716339 
"/>
  </clipPath>
 </defs>
</svg>
