<?xml version="1.0" encoding="utf-8" standalone="no"?>
<!DOCTYPE svg PUBLIC "-//W3C//DTD SVG 1.1//EN"
  "http://www.w3.org/Graphics/SVG/1.1/DTD/svg11.dtd">
<svg xmlns:xlink="http://www.w3.org/1999/xlink" width="524.546688pt" height="342.230058pt" viewBox="0 0 524.546688 342.230058" xmlns="http://www.w3.org/2000/svg" version="1.1">
 <metadata>
  <rdf:RDF xmlns:dc="http://purl.org/dc/elements/1.1/" xmlns:cc="http://creativecommons.org/ns#" xmlns:rdf="http://www.w3.org/1999/02/22-rdf-syntax-ns#">
   <cc:Work>
    <dc:type rdf:resource="http://purl.org/dc/dcmitype/StillImage"/>
    <dc:date>2022-05-09T09:49:38.914771</dc:date>
    <dc:format>image/svg+xml</dc:format>
    <dc:creator>
     <cc:Agent>
      <dc:title>Matplotlib v3.5.1, https://matplotlib.org/</dc:title>
     </cc:Agent>
    </dc:creator>
   </cc:Work>
  </rdf:RDF>
 </metadata>
 <defs>
  <style type="text/css">*{stroke-linejoin: round; stroke-linecap: butt}</style>
 </defs>
 <g id="figure_1">
  <g id="patch_1">
   <path d="M 0 342.230058 
L 524.546688 342.230058 
L 524.546688 0 
L 0 0 
z
" style="fill: #ffffff; stroke: #ffffff; stroke-linejoin: miter"/>
  </g>
  <g id="axes_1">
   <g id="patch_2">
    <path d="M 41.190688 306.517371 
L 217.230688 306.517371 
L 217.230688 40.405371 
L 41.190688 40.405371 
z
" style="fill: #ebebeb"/>
   </g>
   <g id="matplotlib.axis_1">
    <g id="xtick_1">
     <g id="line2d_1">
      <path d="M 77.867345 306.517371 
L 77.867345 40.405371 
" clip-path="url(#pa3dd132b48)" style="fill: none; stroke: #ffffff"/>
     </g>
     <g id="line2d_2">
      <path d="M 77.867345 306.517371 
" style="fill: none; stroke: #333333; stroke-width: 1.5"/>
      <defs>
       <path id="m4638acb004" d="M 0 0 
L 0 2.75 
" style="stroke: #000000"/>
      </defs>
      <g>
       <use xlink:href="#m4638acb004" x="77.867345" y="306.517371" style="fill: #333333; stroke: #000000"/>
      </g>
     </g>
     <g id="text_1">
      <!-- 5000 -->
      <g style="fill: #4d4d4d" transform="translate(66.669345 318.153996)scale(0.088 -0.088)">
       <defs>
        <path id="DejaVuSans-35" d="M 691 4666 
L 3169 4666 
L 3169 4134 
L 1269 4134 
L 1269 2991 
Q 1406 3038 1543 3061 
Q 1681 3084 1819 3084 
Q 2600 3084 3056 2656 
Q 3513 2228 3513 1497 
Q 3513 744 3044 326 
Q 2575 -91 1722 -91 
Q 1428 -91 1123 -41 
Q 819 9 494 109 
L 494 744 
Q 775 591 1075 516 
Q 1375 441 1709 441 
Q 2250 441 2565 725 
Q 2881 1009 2881 1497 
Q 2881 1984 2565 2268 
Q 2250 2553 1709 2553 
Q 1456 2553 1204 2497 
Q 953 2441 691 2322 
L 691 4666 
z
" transform="scale(0.015625)"/>
        <path id="DejaVuSans-30" d="M 2034 4250 
Q 1547 4250 1301 3770 
Q 1056 3291 1056 2328 
Q 1056 1369 1301 889 
Q 1547 409 2034 409 
Q 2525 409 2770 889 
Q 3016 1369 3016 2328 
Q 3016 3291 2770 3770 
Q 2525 4250 2034 4250 
z
M 2034 4750 
Q 2819 4750 3233 4129 
Q 3647 3509 3647 2328 
Q 3647 1150 3233 529 
Q 2819 -91 2034 -91 
Q 1250 -91 836 529 
Q 422 1150 422 2328 
Q 422 3509 836 4129 
Q 1250 4750 2034 4750 
z
" transform="scale(0.015625)"/>
       </defs>
       <use xlink:href="#DejaVuSans-35"/>
       <use xlink:href="#DejaVuSans-30" x="63.623047"/>
       <use xlink:href="#DejaVuSans-30" x="127.246094"/>
       <use xlink:href="#DejaVuSans-30" x="190.869141"/>
      </g>
     </g>
    </g>
    <g id="xtick_2">
     <g id="line2d_3">
      <path d="M 122.064076 306.517371 
L 122.064076 40.405371 
" clip-path="url(#pa3dd132b48)" style="fill: none; stroke: #ffffff"/>
     </g>
     <g id="line2d_4">
      <path d="M 122.064076 306.517371 
" style="fill: none; stroke: #333333; stroke-width: 1.5"/>
      <g>
       <use xlink:href="#m4638acb004" x="122.064076" y="306.517371" style="fill: #333333; stroke: #000000"/>
      </g>
     </g>
     <g id="text_2">
      <!-- 10000 -->
      <g style="fill: #4d4d4d" transform="translate(108.066576 318.153996)scale(0.088 -0.088)">
       <defs>
        <path id="DejaVuSans-31" d="M 794 531 
L 1825 531 
L 1825 4091 
L 703 3866 
L 703 4441 
L 1819 4666 
L 2450 4666 
L 2450 531 
L 3481 531 
L 3481 0 
L 794 0 
L 794 531 
z
" transform="scale(0.015625)"/>
       </defs>
       <use xlink:href="#DejaVuSans-31"/>
       <use xlink:href="#DejaVuSans-30" x="63.623047"/>
       <use xlink:href="#DejaVuSans-30" x="127.246094"/>
       <use xlink:href="#DejaVuSans-30" x="190.869141"/>
       <use xlink:href="#DejaVuSans-30" x="254.492188"/>
      </g>
     </g>
    </g>
    <g id="xtick_3">
     <g id="line2d_5">
      <path d="M 166.260807 306.517371 
L 166.260807 40.405371 
" clip-path="url(#pa3dd132b48)" style="fill: none; stroke: #ffffff"/>
     </g>
     <g id="line2d_6">
      <path d="M 166.260807 306.517371 
" style="fill: none; stroke: #333333; stroke-width: 1.5"/>
      <g>
       <use xlink:href="#m4638acb004" x="166.260807" y="306.517371" style="fill: #333333; stroke: #000000"/>
      </g>
     </g>
     <g id="text_3">
      <!-- 15000 -->
      <g style="fill: #4d4d4d" transform="translate(152.263307 318.153996)scale(0.088 -0.088)">
       <use xlink:href="#DejaVuSans-31"/>
       <use xlink:href="#DejaVuSans-35" x="63.623047"/>
       <use xlink:href="#DejaVuSans-30" x="127.246094"/>
       <use xlink:href="#DejaVuSans-30" x="190.869141"/>
       <use xlink:href="#DejaVuSans-30" x="254.492188"/>
      </g>
     </g>
    </g>
    <g id="xtick_4">
     <g id="line2d_7">
      <path d="M 210.457538 306.517371 
L 210.457538 40.405371 
" clip-path="url(#pa3dd132b48)" style="fill: none; stroke: #ffffff"/>
     </g>
     <g id="line2d_8">
      <path d="M 210.457538 306.517371 
" style="fill: none; stroke: #333333; stroke-width: 1.5"/>
      <g>
       <use xlink:href="#m4638acb004" x="210.457538" y="306.517371" style="fill: #333333; stroke: #000000"/>
      </g>
     </g>
     <g id="text_4">
      <!-- 20000 -->
      <g style="fill: #4d4d4d" transform="translate(196.460038 318.153996)scale(0.088 -0.088)">
       <defs>
        <path id="DejaVuSans-32" d="M 1228 531 
L 3431 531 
L 3431 0 
L 469 0 
L 469 531 
Q 828 903 1448 1529 
Q 2069 2156 2228 2338 
Q 2531 2678 2651 2914 
Q 2772 3150 2772 3378 
Q 2772 3750 2511 3984 
Q 2250 4219 1831 4219 
Q 1534 4219 1204 4116 
Q 875 4013 500 3803 
L 500 4441 
Q 881 4594 1212 4672 
Q 1544 4750 1819 4750 
Q 2544 4750 2975 4387 
Q 3406 4025 3406 3419 
Q 3406 3131 3298 2873 
Q 3191 2616 2906 2266 
Q 2828 2175 2409 1742 
Q 1991 1309 1228 531 
z
" transform="scale(0.015625)"/>
       </defs>
       <use xlink:href="#DejaVuSans-32"/>
       <use xlink:href="#DejaVuSans-30" x="63.623047"/>
       <use xlink:href="#DejaVuSans-30" x="127.246094"/>
       <use xlink:href="#DejaVuSans-30" x="190.869141"/>
       <use xlink:href="#DejaVuSans-30" x="254.492188"/>
      </g>
     </g>
    </g>
    <g id="xtick_5">
     <g id="line2d_9">
      <path d="M 55.768979 306.517371 
L 55.768979 40.405371 
" clip-path="url(#pa3dd132b48)" style="fill: none; stroke: #ffffff; stroke-width: 0.5"/>
     </g>
    </g>
    <g id="xtick_6">
     <g id="line2d_10">
      <path d="M 99.96571 306.517371 
L 99.96571 40.405371 
" clip-path="url(#pa3dd132b48)" style="fill: none; stroke: #ffffff; stroke-width: 0.5"/>
     </g>
    </g>
    <g id="xtick_7">
     <g id="line2d_11">
      <path d="M 144.162442 306.517371 
L 144.162442 40.405371 
" clip-path="url(#pa3dd132b48)" style="fill: none; stroke: #ffffff; stroke-width: 0.5"/>
     </g>
    </g>
    <g id="xtick_8">
     <g id="line2d_12">
      <path d="M 188.359173 306.517371 
L 188.359173 40.405371 
" clip-path="url(#pa3dd132b48)" style="fill: none; stroke: #ffffff; stroke-width: 0.5"/>
     </g>
    </g>
   </g>
   <g id="matplotlib.axis_2">
    <g id="ytick_1">
     <g id="line2d_13">
      <path d="M 41.190688 267.387889 
L 217.230688 267.387889 
" clip-path="url(#pa3dd132b48)" style="fill: none; stroke: #ffffff"/>
     </g>
     <g id="line2d_14">
      <path d="M 41.190688 267.387889 
" style="fill: none; stroke: #333333; stroke-width: 1.5"/>
      <defs>
       <path id="me375c41f5b" d="M 0 0 
L -2.75 0 
" style="stroke: #000000"/>
      </defs>
      <g>
       <use xlink:href="#me375c41f5b" x="41.190688" y="267.387889" style="fill: #333333; stroke: #000000"/>
      </g>
     </g>
     <g id="text_5">
      <!-- 0.5 -->
      <g style="fill: #4d4d4d" transform="translate(22.245938 269.816139)scale(0.088 -0.088)">
       <defs>
        <path id="DejaVuSans-2e" d="M 684 794 
L 1344 794 
L 1344 0 
L 684 0 
L 684 794 
z
" transform="scale(0.015625)"/>
       </defs>
       <use xlink:href="#DejaVuSans-30"/>
       <use xlink:href="#DejaVuSans-2e" x="63.623047"/>
       <use xlink:href="#DejaVuSans-35" x="95.410156"/>
      </g>
     </g>
    </g>
    <g id="ytick_2">
     <g id="line2d_15">
      <path d="M 41.190688 215.886255 
L 217.230688 215.886255 
" clip-path="url(#pa3dd132b48)" style="fill: none; stroke: #ffffff"/>
     </g>
     <g id="line2d_16">
      <path d="M 41.190688 215.886255 
" style="fill: none; stroke: #333333; stroke-width: 1.5"/>
      <g>
       <use xlink:href="#me375c41f5b" x="41.190688" y="215.886255" style="fill: #333333; stroke: #000000"/>
      </g>
     </g>
     <g id="text_6">
      <!-- 0.6 -->
      <g style="fill: #4d4d4d" transform="translate(22.245938 218.314505)scale(0.088 -0.088)">
       <defs>
        <path id="DejaVuSans-36" d="M 2113 2584 
Q 1688 2584 1439 2293 
Q 1191 2003 1191 1497 
Q 1191 994 1439 701 
Q 1688 409 2113 409 
Q 2538 409 2786 701 
Q 3034 994 3034 1497 
Q 3034 2003 2786 2293 
Q 2538 2584 2113 2584 
z
M 3366 4563 
L 3366 3988 
Q 3128 4100 2886 4159 
Q 2644 4219 2406 4219 
Q 1781 4219 1451 3797 
Q 1122 3375 1075 2522 
Q 1259 2794 1537 2939 
Q 1816 3084 2150 3084 
Q 2853 3084 3261 2657 
Q 3669 2231 3669 1497 
Q 3669 778 3244 343 
Q 2819 -91 2113 -91 
Q 1303 -91 875 529 
Q 447 1150 447 2328 
Q 447 3434 972 4092 
Q 1497 4750 2381 4750 
Q 2619 4750 2861 4703 
Q 3103 4656 3366 4563 
z
" transform="scale(0.015625)"/>
       </defs>
       <use xlink:href="#DejaVuSans-30"/>
       <use xlink:href="#DejaVuSans-2e" x="63.623047"/>
       <use xlink:href="#DejaVuSans-36" x="95.410156"/>
      </g>
     </g>
    </g>
    <g id="ytick_3">
     <g id="line2d_17">
      <path d="M 41.190688 164.384621 
L 217.230688 164.384621 
" clip-path="url(#pa3dd132b48)" style="fill: none; stroke: #ffffff"/>
     </g>
     <g id="line2d_18">
      <path d="M 41.190688 164.384621 
" style="fill: none; stroke: #333333; stroke-width: 1.5"/>
      <g>
       <use xlink:href="#me375c41f5b" x="41.190688" y="164.384621" style="fill: #333333; stroke: #000000"/>
      </g>
     </g>
     <g id="text_7">
      <!-- 0.7 -->
      <g style="fill: #4d4d4d" transform="translate(22.245938 166.812871)scale(0.088 -0.088)">
       <defs>
        <path id="DejaVuSans-37" d="M 525 4666 
L 3525 4666 
L 3525 4397 
L 1831 0 
L 1172 0 
L 2766 4134 
L 525 4134 
L 525 4666 
z
" transform="scale(0.015625)"/>
       </defs>
       <use xlink:href="#DejaVuSans-30"/>
       <use xlink:href="#DejaVuSans-2e" x="63.623047"/>
       <use xlink:href="#DejaVuSans-37" x="95.410156"/>
      </g>
     </g>
    </g>
    <g id="ytick_4">
     <g id="line2d_19">
      <path d="M 41.190688 112.882987 
L 217.230688 112.882987 
" clip-path="url(#pa3dd132b48)" style="fill: none; stroke: #ffffff"/>
     </g>
     <g id="line2d_20">
      <path d="M 41.190688 112.882987 
" style="fill: none; stroke: #333333; stroke-width: 1.5"/>
      <g>
       <use xlink:href="#me375c41f5b" x="41.190688" y="112.882987" style="fill: #333333; stroke: #000000"/>
      </g>
     </g>
     <g id="text_8">
      <!-- 0.8 -->
      <g style="fill: #4d4d4d" transform="translate(22.245938 115.311237)scale(0.088 -0.088)">
       <defs>
        <path id="DejaVuSans-38" d="M 2034 2216 
Q 1584 2216 1326 1975 
Q 1069 1734 1069 1313 
Q 1069 891 1326 650 
Q 1584 409 2034 409 
Q 2484 409 2743 651 
Q 3003 894 3003 1313 
Q 3003 1734 2745 1975 
Q 2488 2216 2034 2216 
z
M 1403 2484 
Q 997 2584 770 2862 
Q 544 3141 544 3541 
Q 544 4100 942 4425 
Q 1341 4750 2034 4750 
Q 2731 4750 3128 4425 
Q 3525 4100 3525 3541 
Q 3525 3141 3298 2862 
Q 3072 2584 2669 2484 
Q 3125 2378 3379 2068 
Q 3634 1759 3634 1313 
Q 3634 634 3220 271 
Q 2806 -91 2034 -91 
Q 1263 -91 848 271 
Q 434 634 434 1313 
Q 434 1759 690 2068 
Q 947 2378 1403 2484 
z
M 1172 3481 
Q 1172 3119 1398 2916 
Q 1625 2713 2034 2713 
Q 2441 2713 2670 2916 
Q 2900 3119 2900 3481 
Q 2900 3844 2670 4047 
Q 2441 4250 2034 4250 
Q 1625 4250 1398 4047 
Q 1172 3844 1172 3481 
z
" transform="scale(0.015625)"/>
       </defs>
       <use xlink:href="#DejaVuSans-30"/>
       <use xlink:href="#DejaVuSans-2e" x="63.623047"/>
       <use xlink:href="#DejaVuSans-38" x="95.410156"/>
      </g>
     </g>
    </g>
    <g id="ytick_5">
     <g id="line2d_21">
      <path d="M 41.190688 61.381353 
L 217.230688 61.381353 
" clip-path="url(#pa3dd132b48)" style="fill: none; stroke: #ffffff"/>
     </g>
     <g id="line2d_22">
      <path d="M 41.190688 61.381353 
" style="fill: none; stroke: #333333; stroke-width: 1.5"/>
      <g>
       <use xlink:href="#me375c41f5b" x="41.190688" y="61.381353" style="fill: #333333; stroke: #000000"/>
      </g>
     </g>
     <g id="text_9">
      <!-- 0.9 -->
      <g style="fill: #4d4d4d" transform="translate(22.245938 63.809603)scale(0.088 -0.088)">
       <defs>
        <path id="DejaVuSans-39" d="M 703 97 
L 703 672 
Q 941 559 1184 500 
Q 1428 441 1663 441 
Q 2288 441 2617 861 
Q 2947 1281 2994 2138 
Q 2813 1869 2534 1725 
Q 2256 1581 1919 1581 
Q 1219 1581 811 2004 
Q 403 2428 403 3163 
Q 403 3881 828 4315 
Q 1253 4750 1959 4750 
Q 2769 4750 3195 4129 
Q 3622 3509 3622 2328 
Q 3622 1225 3098 567 
Q 2575 -91 1691 -91 
Q 1453 -91 1209 -44 
Q 966 3 703 97 
z
M 1959 2075 
Q 2384 2075 2632 2365 
Q 2881 2656 2881 3163 
Q 2881 3666 2632 3958 
Q 2384 4250 1959 4250 
Q 1534 4250 1286 3958 
Q 1038 3666 1038 3163 
Q 1038 2656 1286 2365 
Q 1534 2075 1959 2075 
z
" transform="scale(0.015625)"/>
       </defs>
       <use xlink:href="#DejaVuSans-30"/>
       <use xlink:href="#DejaVuSans-2e" x="63.623047"/>
       <use xlink:href="#DejaVuSans-39" x="95.410156"/>
      </g>
     </g>
    </g>
    <g id="ytick_6">
     <g id="line2d_23">
      <path d="M 41.190688 293.138706 
L 217.230688 293.138706 
" clip-path="url(#pa3dd132b48)" style="fill: none; stroke: #ffffff; stroke-width: 0.5"/>
     </g>
    </g>
    <g id="ytick_7">
     <g id="line2d_24">
      <path d="M 41.190688 241.637072 
L 217.230688 241.637072 
" clip-path="url(#pa3dd132b48)" style="fill: none; stroke: #ffffff; stroke-width: 0.5"/>
     </g>
    </g>
    <g id="ytick_8">
     <g id="line2d_25">
      <path d="M 41.190688 190.135438 
L 217.230688 190.135438 
" clip-path="url(#pa3dd132b48)" style="fill: none; stroke: #ffffff; stroke-width: 0.5"/>
     </g>
    </g>
    <g id="ytick_9">
     <g id="line2d_26">
      <path d="M 41.190688 138.633804 
L 217.230688 138.633804 
" clip-path="url(#pa3dd132b48)" style="fill: none; stroke: #ffffff; stroke-width: 0.5"/>
     </g>
    </g>
    <g id="ytick_10">
     <g id="line2d_27">
      <path d="M 41.190688 87.13217 
L 217.230688 87.13217 
" clip-path="url(#pa3dd132b48)" style="fill: none; stroke: #ffffff; stroke-width: 0.5"/>
     </g>
    </g>
    <g id="text_10">
     <!-- Balanced Accuracy (Val Set) -->
     <g transform="translate(15.558281 249.074543)rotate(-90)scale(0.11 -0.11)">
      <defs>
       <path id="DejaVuSans-42" d="M 1259 2228 
L 1259 519 
L 2272 519 
Q 2781 519 3026 730 
Q 3272 941 3272 1375 
Q 3272 1813 3026 2020 
Q 2781 2228 2272 2228 
L 1259 2228 
z
M 1259 4147 
L 1259 2741 
L 2194 2741 
Q 2656 2741 2882 2914 
Q 3109 3088 3109 3444 
Q 3109 3797 2882 3972 
Q 2656 4147 2194 4147 
L 1259 4147 
z
M 628 4666 
L 2241 4666 
Q 2963 4666 3353 4366 
Q 3744 4066 3744 3513 
Q 3744 3084 3544 2831 
Q 3344 2578 2956 2516 
Q 3422 2416 3680 2098 
Q 3938 1781 3938 1306 
Q 3938 681 3513 340 
Q 3088 0 2303 0 
L 628 0 
L 628 4666 
z
" transform="scale(0.015625)"/>
       <path id="DejaVuSans-61" d="M 2194 1759 
Q 1497 1759 1228 1600 
Q 959 1441 959 1056 
Q 959 750 1161 570 
Q 1363 391 1709 391 
Q 2188 391 2477 730 
Q 2766 1069 2766 1631 
L 2766 1759 
L 2194 1759 
z
M 3341 1997 
L 3341 0 
L 2766 0 
L 2766 531 
Q 2569 213 2275 61 
Q 1981 -91 1556 -91 
Q 1019 -91 701 211 
Q 384 513 384 1019 
Q 384 1609 779 1909 
Q 1175 2209 1959 2209 
L 2766 2209 
L 2766 2266 
Q 2766 2663 2505 2880 
Q 2244 3097 1772 3097 
Q 1472 3097 1187 3025 
Q 903 2953 641 2809 
L 641 3341 
Q 956 3463 1253 3523 
Q 1550 3584 1831 3584 
Q 2591 3584 2966 3190 
Q 3341 2797 3341 1997 
z
" transform="scale(0.015625)"/>
       <path id="DejaVuSans-6c" d="M 603 4863 
L 1178 4863 
L 1178 0 
L 603 0 
L 603 4863 
z
" transform="scale(0.015625)"/>
       <path id="DejaVuSans-6e" d="M 3513 2113 
L 3513 0 
L 2938 0 
L 2938 2094 
Q 2938 2591 2744 2837 
Q 2550 3084 2163 3084 
Q 1697 3084 1428 2787 
Q 1159 2491 1159 1978 
L 1159 0 
L 581 0 
L 581 3500 
L 1159 3500 
L 1159 2956 
Q 1366 3272 1645 3428 
Q 1925 3584 2291 3584 
Q 2894 3584 3203 3211 
Q 3513 2838 3513 2113 
z
" transform="scale(0.015625)"/>
       <path id="DejaVuSans-63" d="M 3122 3366 
L 3122 2828 
Q 2878 2963 2633 3030 
Q 2388 3097 2138 3097 
Q 1578 3097 1268 2742 
Q 959 2388 959 1747 
Q 959 1106 1268 751 
Q 1578 397 2138 397 
Q 2388 397 2633 464 
Q 2878 531 3122 666 
L 3122 134 
Q 2881 22 2623 -34 
Q 2366 -91 2075 -91 
Q 1284 -91 818 406 
Q 353 903 353 1747 
Q 353 2603 823 3093 
Q 1294 3584 2113 3584 
Q 2378 3584 2631 3529 
Q 2884 3475 3122 3366 
z
" transform="scale(0.015625)"/>
       <path id="DejaVuSans-65" d="M 3597 1894 
L 3597 1613 
L 953 1613 
Q 991 1019 1311 708 
Q 1631 397 2203 397 
Q 2534 397 2845 478 
Q 3156 559 3463 722 
L 3463 178 
Q 3153 47 2828 -22 
Q 2503 -91 2169 -91 
Q 1331 -91 842 396 
Q 353 884 353 1716 
Q 353 2575 817 3079 
Q 1281 3584 2069 3584 
Q 2775 3584 3186 3129 
Q 3597 2675 3597 1894 
z
M 3022 2063 
Q 3016 2534 2758 2815 
Q 2500 3097 2075 3097 
Q 1594 3097 1305 2825 
Q 1016 2553 972 2059 
L 3022 2063 
z
" transform="scale(0.015625)"/>
       <path id="DejaVuSans-64" d="M 2906 2969 
L 2906 4863 
L 3481 4863 
L 3481 0 
L 2906 0 
L 2906 525 
Q 2725 213 2448 61 
Q 2172 -91 1784 -91 
Q 1150 -91 751 415 
Q 353 922 353 1747 
Q 353 2572 751 3078 
Q 1150 3584 1784 3584 
Q 2172 3584 2448 3432 
Q 2725 3281 2906 2969 
z
M 947 1747 
Q 947 1113 1208 752 
Q 1469 391 1925 391 
Q 2381 391 2643 752 
Q 2906 1113 2906 1747 
Q 2906 2381 2643 2742 
Q 2381 3103 1925 3103 
Q 1469 3103 1208 2742 
Q 947 2381 947 1747 
z
" transform="scale(0.015625)"/>
       <path id="DejaVuSans-20" transform="scale(0.015625)"/>
       <path id="DejaVuSans-41" d="M 2188 4044 
L 1331 1722 
L 3047 1722 
L 2188 4044 
z
M 1831 4666 
L 2547 4666 
L 4325 0 
L 3669 0 
L 3244 1197 
L 1141 1197 
L 716 0 
L 50 0 
L 1831 4666 
z
" transform="scale(0.015625)"/>
       <path id="DejaVuSans-75" d="M 544 1381 
L 544 3500 
L 1119 3500 
L 1119 1403 
Q 1119 906 1312 657 
Q 1506 409 1894 409 
Q 2359 409 2629 706 
Q 2900 1003 2900 1516 
L 2900 3500 
L 3475 3500 
L 3475 0 
L 2900 0 
L 2900 538 
Q 2691 219 2414 64 
Q 2138 -91 1772 -91 
Q 1169 -91 856 284 
Q 544 659 544 1381 
z
M 1991 3584 
L 1991 3584 
z
" transform="scale(0.015625)"/>
       <path id="DejaVuSans-72" d="M 2631 2963 
Q 2534 3019 2420 3045 
Q 2306 3072 2169 3072 
Q 1681 3072 1420 2755 
Q 1159 2438 1159 1844 
L 1159 0 
L 581 0 
L 581 3500 
L 1159 3500 
L 1159 2956 
Q 1341 3275 1631 3429 
Q 1922 3584 2338 3584 
Q 2397 3584 2469 3576 
Q 2541 3569 2628 3553 
L 2631 2963 
z
" transform="scale(0.015625)"/>
       <path id="DejaVuSans-79" d="M 2059 -325 
Q 1816 -950 1584 -1140 
Q 1353 -1331 966 -1331 
L 506 -1331 
L 506 -850 
L 844 -850 
Q 1081 -850 1212 -737 
Q 1344 -625 1503 -206 
L 1606 56 
L 191 3500 
L 800 3500 
L 1894 763 
L 2988 3500 
L 3597 3500 
L 2059 -325 
z
" transform="scale(0.015625)"/>
       <path id="DejaVuSans-28" d="M 1984 4856 
Q 1566 4138 1362 3434 
Q 1159 2731 1159 2009 
Q 1159 1288 1364 580 
Q 1569 -128 1984 -844 
L 1484 -844 
Q 1016 -109 783 600 
Q 550 1309 550 2009 
Q 550 2706 781 3412 
Q 1013 4119 1484 4856 
L 1984 4856 
z
" transform="scale(0.015625)"/>
       <path id="DejaVuSans-56" d="M 1831 0 
L 50 4666 
L 709 4666 
L 2188 738 
L 3669 4666 
L 4325 4666 
L 2547 0 
L 1831 0 
z
" transform="scale(0.015625)"/>
       <path id="DejaVuSans-53" d="M 3425 4513 
L 3425 3897 
Q 3066 4069 2747 4153 
Q 2428 4238 2131 4238 
Q 1616 4238 1336 4038 
Q 1056 3838 1056 3469 
Q 1056 3159 1242 3001 
Q 1428 2844 1947 2747 
L 2328 2669 
Q 3034 2534 3370 2195 
Q 3706 1856 3706 1288 
Q 3706 609 3251 259 
Q 2797 -91 1919 -91 
Q 1588 -91 1214 -16 
Q 841 59 441 206 
L 441 856 
Q 825 641 1194 531 
Q 1563 422 1919 422 
Q 2459 422 2753 634 
Q 3047 847 3047 1241 
Q 3047 1584 2836 1778 
Q 2625 1972 2144 2069 
L 1759 2144 
Q 1053 2284 737 2584 
Q 422 2884 422 3419 
Q 422 4038 858 4394 
Q 1294 4750 2059 4750 
Q 2388 4750 2728 4690 
Q 3069 4631 3425 4513 
z
" transform="scale(0.015625)"/>
       <path id="DejaVuSans-74" d="M 1172 4494 
L 1172 3500 
L 2356 3500 
L 2356 3053 
L 1172 3053 
L 1172 1153 
Q 1172 725 1289 603 
Q 1406 481 1766 481 
L 2356 481 
L 2356 0 
L 1766 0 
Q 1100 0 847 248 
Q 594 497 594 1153 
L 594 3053 
L 172 3053 
L 172 3500 
L 594 3500 
L 594 4494 
L 1172 4494 
z
" transform="scale(0.015625)"/>
       <path id="DejaVuSans-29" d="M 513 4856 
L 1013 4856 
Q 1481 4119 1714 3412 
Q 1947 2706 1947 2009 
Q 1947 1309 1714 600 
Q 1481 -109 1013 -844 
L 513 -844 
Q 928 -128 1133 580 
Q 1338 1288 1338 2009 
Q 1338 2731 1133 3434 
Q 928 4138 513 4856 
z
" transform="scale(0.015625)"/>
      </defs>
      <use xlink:href="#DejaVuSans-42"/>
      <use xlink:href="#DejaVuSans-61" x="68.603516"/>
      <use xlink:href="#DejaVuSans-6c" x="129.882812"/>
      <use xlink:href="#DejaVuSans-61" x="157.666016"/>
      <use xlink:href="#DejaVuSans-6e" x="218.945312"/>
      <use xlink:href="#DejaVuSans-63" x="282.324219"/>
      <use xlink:href="#DejaVuSans-65" x="337.304688"/>
      <use xlink:href="#DejaVuSans-64" x="398.828125"/>
      <use xlink:href="#DejaVuSans-20" x="462.304688"/>
      <use xlink:href="#DejaVuSans-41" x="494.091797"/>
      <use xlink:href="#DejaVuSans-63" x="560.75"/>
      <use xlink:href="#DejaVuSans-63" x="615.730469"/>
      <use xlink:href="#DejaVuSans-75" x="670.710938"/>
      <use xlink:href="#DejaVuSans-72" x="734.089844"/>
      <use xlink:href="#DejaVuSans-61" x="775.203125"/>
      <use xlink:href="#DejaVuSans-63" x="836.482422"/>
      <use xlink:href="#DejaVuSans-79" x="891.462891"/>
      <use xlink:href="#DejaVuSans-20" x="950.642578"/>
      <use xlink:href="#DejaVuSans-28" x="982.429688"/>
      <use xlink:href="#DejaVuSans-56" x="1021.443359"/>
      <use xlink:href="#DejaVuSans-61" x="1082.101562"/>
      <use xlink:href="#DejaVuSans-6c" x="1143.380859"/>
      <use xlink:href="#DejaVuSans-20" x="1171.164062"/>
      <use xlink:href="#DejaVuSans-53" x="1202.951172"/>
      <use xlink:href="#DejaVuSans-65" x="1266.427734"/>
      <use xlink:href="#DejaVuSans-74" x="1327.951172"/>
      <use xlink:href="#DejaVuSans-29" x="1367.160156"/>
     </g>
    </g>
   </g>
   <g id="PolyCollection_1">
    <path d="M 49.192506 180.445924 
L 49.192506 209.251948 
L 49.572598 207.663224 
L 49.714027 207.075217 
L 49.864296 206.452335 
L 50.041083 205.72201 
L 50.182512 205.139682 
L 50.200191 205.067011 
L 50.288585 204.704064 
L 50.438854 204.088598 
L 50.518408 203.763551 
L 50.597962 203.43905 
L 50.642158 203.259009 
L 50.978054 201.896215 
L 51.075286 201.503548 
L 51.225555 200.898315 
L 64.723237 154.873259 
L 65.483421 152.779527 
L 65.76628 152.013675 
L 66.057978 151.231341 
L 66.411552 150.293847 
L 66.703251 149.529693 
L 66.729769 149.460636 
L 66.906556 149.002 
L 67.207093 148.229219 
L 67.375041 147.80112 
L 67.534149 147.398008 
L 67.613703 147.197342 
L 68.294333 145.504474 
L 68.479959 145.050114 
L 68.780497 144.321025 
L 80.253968 121.474962 
L 81.385405 119.637852 
L 81.809693 118.963471 
L 82.251661 118.269042 
L 82.790861 117.432598 
L 83.223989 116.768979 
L 83.259346 116.715124 
L 83.524526 116.312709 
L 83.975333 115.642343 
L 84.222835 115.283935 
L 84.470337 114.932218 
L 84.585248 114.771165 
L 85.601773 113.406649 
L 85.884632 113.045616 
L 86.335439 112.486384 
L 95.7847 104.303578 
L 97.296228 103.388166 
L 97.861946 103.053794 
L 98.445343 102.710698 
L 99.16133 102.289054 
L 99.735887 101.947843 
L 99.797763 101.910853 
L 100.142497 101.703658 
L 100.743573 101.336899 
L 101.079468 101.128202 
L 101.406524 100.921941 
L 101.556793 100.826062 
L 102.918052 100.04925 
L 103.289305 99.869433 
L 103.89038 99.60634 
L 111.315431 98.824733 
L 113.207051 99.159639 
L 113.905359 99.306589 
L 114.639025 99.465863 
L 115.540639 99.659057 
L 116.256626 99.802654 
L 116.32734 99.816086 
L 116.769308 99.896135 
L 117.511813 100.01208 
L 117.927262 100.064424 
L 118.342711 100.10608 
L 118.528338 100.120881 
L 120.225492 100.124126 
L 120.693977 100.075701 
L 121.445322 99.94537 
L 126.837323 98.622731 
L 129.109035 98.064855 
L 129.957612 97.870868 
L 130.832708 97.682392 
L 131.911108 97.468896 
L 132.777364 97.313945 
L 132.856918 97.300487 
L 133.387279 97.214141 
L 134.280053 97.082068 
L 134.783895 97.014777 
L 135.278899 96.953579 
L 135.499882 96.927776 
L 137.541771 96.728126 
L 138.09865 96.683489 
L 139.000263 96.616862 
L 142.368054 96.366955 
L 145.019858 96.057459 
L 146.001026 95.892053 
L 147.02639 95.68058 
L 148.281577 95.374375 
L 149.289262 95.101914 
L 149.395335 95.072054 
L 150.00525 94.896549 
L 151.048292 94.583539 
L 151.631689 94.40288 
L 152.215086 94.219236 
L 152.471427 94.137799 
L 154.849211 93.372482 
L 155.503323 93.162085 
L 156.555205 92.826776 
L 157.898786 92.406393 
L 160.921842 91.499222 
L 162.053278 91.171647 
L 163.220072 90.837954 
L 164.660886 90.428248 
L 165.810001 90.100875 
L 165.924912 90.068042 
L 166.62322 89.868044 
L 167.816532 89.525354 
L 168.488323 89.332513 
L 169.151273 89.142537 
L 169.442972 89.059109 
L 172.165491 88.289473 
L 172.907996 88.083891 
L 173.429517 87.941039 
L 174.110147 87.756814 
L 176.832665 87.052077 
L 178.096692 86.747411 
L 179.413754 86.449379 
L 181.031355 86.115536 
L 182.330739 85.877386 
L 182.45449 85.856249 
L 183.241191 85.7286 
L 184.584772 85.539307 
L 185.336116 85.450536 
L 186.087461 85.374931 
L 186.414517 85.346313 
L 188.960248 85.221014 
L 189.47293 85.217773 
L 190.312668 85.229079 
L 191.665088 85.291474 
L 192.743489 85.380851 
L 194.148945 85.550399 
L 195.616276 85.791166 
L 197.410663 86.172602 
L 198.851477 86.546343 
L 198.992906 86.586193 
L 199.868002 86.845107 
L 201.353012 87.332108 
L 202.19275 87.633308 
L 203.023648 87.949186 
L 203.394901 88.095956 
L 206.78921 89.592634 
L 207.72618 90.05288 
L 209.228869 90.831406 
L 209.228869 52.501371 
L 209.228869 52.501371 
L 207.72618 53.921101 
L 206.78921 54.781961 
L 203.394901 57.735665 
L 203.023648 58.042388 
L 202.19275 58.71671 
L 201.353012 59.380824 
L 199.868002 60.511296 
L 198.992906 61.150453 
L 198.851477 61.251833 
L 197.410663 62.253645 
L 195.616276 63.420572 
L 194.148945 64.306528 
L 192.743489 65.096604 
L 191.665088 65.66387 
L 190.312668 66.32783 
L 189.47293 66.713956 
L 188.960248 66.940054 
L 186.414517 67.959381 
L 186.087461 68.078536 
L 185.336116 68.34299 
L 184.584772 68.595058 
L 183.241191 69.017076 
L 182.45449 69.248371 
L 182.330739 69.28376 
L 181.031355 69.640119 
L 179.413754 70.048653 
L 178.096692 70.356678 
L 176.832665 70.634806 
L 174.110147 71.188219 
L 173.429517 71.318981 
L 172.907996 71.417567 
L 172.165491 71.555823 
L 169.442972 72.047304 
L 169.151273 72.098979 
L 168.488323 72.216008 
L 167.816532 72.334174 
L 166.62322 72.543618 
L 165.924912 72.670873 
L 165.810001 72.69269 
L 164.660886 72.923334 
L 163.220072 73.239672 
L 162.053278 73.511823 
L 160.921842 73.783934 
L 157.898786 74.516794 
L 156.555205 74.832722 
L 155.503323 75.072718 
L 154.849211 75.218488 
L 152.471427 75.728303 
L 152.215086 75.781795 
L 151.631689 75.902892 
L 151.048292 76.023413 
L 150.00525 76.238816 
L 149.395335 76.365605 
L 149.289262 76.387771 
L 148.281577 76.60087 
L 147.02639 76.875358 
L 146.001026 77.110919 
L 145.019858 77.345839 
L 142.368054 78.001589 
L 139.000263 78.787489 
L 138.09865 78.972503 
L 137.541771 79.079411 
L 135.499882 79.417346 
L 135.278899 79.448571 
L 134.783895 79.514682 
L 134.280053 79.576596 
L 133.387279 79.673458 
L 132.856918 79.723678 
L 132.777364 79.730769 
L 131.911108 79.801147 
L 130.832708 79.873835 
L 129.957612 79.924102 
L 129.109035 79.968798 
L 126.837323 80.095751 
L 121.445322 80.803557 
L 120.693977 80.958405 
L 120.225492 81.040185 
L 118.528338 81.249017 
L 118.342711 81.264075 
L 117.927262 81.292568 
L 117.511813 81.314074 
L 116.769308 81.335937 
L 116.32734 81.339394 
L 116.256626 81.339316 
L 115.540639 81.329195 
L 114.639025 81.294212 
L 113.905359 81.249896 
L 113.207051 81.196866 
L 111.315431 81.020571 
L 103.89038 81.254894 
L 103.289305 81.463809 
L 102.918052 81.616031 
L 101.556793 82.341902 
L 101.406524 82.437501 
L 101.079468 82.644969 
L 100.743573 82.857364 
L 100.142497 83.23641 
L 99.797763 83.45361 
L 99.735887 83.492604 
L 99.16133 83.855171 
L 98.445343 84.309407 
L 97.861946 84.682896 
L 97.296228 85.049165 
L 95.7847 86.056218 
L 86.335439 94.78192 
L 85.884632 95.377733 
L 85.601773 95.763343 
L 84.585248 97.22778 
L 84.470337 97.40136 
L 84.222835 97.780963 
L 83.975333 98.168516 
L 83.524526 98.89529 
L 83.259346 99.332156 
L 83.223989 99.390603 
L 82.790861 100.110394 
L 82.251661 101.016466 
L 81.809693 101.767584 
L 81.385405 102.49594 
L 80.253968 104.473961 
L 68.780497 127.839326 
L 68.479959 128.538774 
L 68.294333 128.97311 
L 67.613703 130.580889 
L 67.534149 130.770374 
L 67.375041 131.150326 
L 67.207093 131.552809 
L 66.906556 132.276689 
L 66.729769 132.70469 
L 66.703251 132.76903 
L 66.411552 133.479179 
L 66.057978 134.345894 
L 65.76628 135.065227 
L 65.483421 135.76581 
L 64.723237 137.663152 
L 51.225555 174.418032 
L 51.075286 174.858954 
L 50.978054 175.144645 
L 50.642158 176.13394 
L 50.597962 176.264384 
L 50.518408 176.499343 
L 50.438854 176.734508 
L 50.288585 177.179274 
L 50.200191 177.441247 
L 50.182512 177.493672 
L 50.041083 177.913443 
L 49.864296 178.439081 
L 49.714027 178.886684 
L 49.572598 179.308638 
L 49.192506 180.445924 
z
" clip-path="url(#pa3dd132b48)" style="fill: #999999; fill-opacity: 0.4"/>
   </g>
   <g id="line2d_28">
    <path d="M 49.192506 194.848936 
L 51.225555 187.658174 
L 65.483421 144.272669 
L 68.479959 136.794444 
L 68.780497 136.080175 
L 80.253968 112.974462 
L 83.975333 106.905429 
L 85.884632 104.211674 
L 86.335439 103.634152 
L 95.7847 95.179898 
L 101.556793 91.583982 
L 103.289305 90.666621 
L 103.89038 90.430617 
L 111.315431 89.922652 
L 117.511813 90.663077 
L 118.528338 90.684949 
L 120.693977 90.517053 
L 129.109035 89.016826 
L 145.019858 86.701649 
L 149.395335 85.718829 
L 155.503323 84.117402 
L 165.924912 81.369457 
L 188.960248 76.080534 
L 207.72618 71.986991 
L 209.228869 71.666388 
L 209.228869 71.666388 
" clip-path="url(#pa3dd132b48)" style="fill: none; stroke: #db5f57; stroke-width: 1.772454; stroke-linejoin: miter"/>
   </g>
   <g id="PolyCollection_2">
    <path d="M 49.192506 174.523658 
L 49.192506 204.179264 
L 49.572598 202.996652 
L 49.714027 202.558914 
L 49.864296 202.095189 
L 50.041083 201.551445 
L 50.182512 201.117866 
L 50.200191 201.063757 
L 50.288585 200.793509 
L 50.438854 200.335219 
L 50.518408 200.093173 
L 50.597962 199.851527 
L 50.642158 199.717453 
L 50.978054 198.702546 
L 51.075286 198.410097 
L 51.225555 197.959319 
L 64.723237 163.635861 
L 65.483421 162.070009 
L 65.76628 161.496898 
L 66.057978 160.911232 
L 66.411552 160.208823 
L 66.703251 159.635613 
L 66.729769 159.583782 
L 66.906556 159.239416 
L 67.207093 158.658656 
L 67.375041 158.336645 
L 67.534149 158.033238 
L 67.613703 157.882135 
L 68.294333 156.605494 
L 68.479959 156.262254 
L 68.780497 155.71093 
L 80.253968 137.993128 
L 81.385405 136.523838 
L 81.809693 135.982758 
L 82.251661 135.424654 
L 82.790861 134.751185 
L 83.223989 134.215941 
L 83.259346 134.172469 
L 83.524526 133.847476 
L 83.975333 133.301528 
L 84.222835 133.005977 
L 84.470337 132.71335 
L 84.585248 132.578474 
L 85.601773 131.412083 
L 85.884632 131.095935 
L 86.335439 130.599509 
L 95.7847 122.067935 
L 97.296228 120.960594 
L 97.861946 120.556021 
L 98.445343 120.142935 
L 99.16133 119.640167 
L 99.735887 119.238806 
L 99.797763 119.195645 
L 100.142497 118.955274 
L 100.743573 118.536033 
L 101.079468 118.301308 
L 101.406524 118.072206 
L 101.556793 117.966707 
L 102.918052 117.06823 
L 103.289305 116.843087 
L 103.89038 116.496469 
L 111.315431 113.978927 
L 113.207051 113.776707 
L 113.905359 113.727054 
L 114.639025 113.682871 
L 115.540639 113.632454 
L 116.256626 113.589265 
L 116.32734 113.584625 
L 116.769308 113.553422 
L 117.511813 113.489702 
L 117.927262 113.445933 
L 118.342711 113.394962 
L 118.528338 113.369571 
L 120.225492 113.043868 
L 120.693977 112.918279 
L 121.445322 112.678099 
L 126.837323 110.493876 
L 129.109035 109.519963 
L 129.957612 109.16748 
L 130.832708 108.815112 
L 131.911108 108.400297 
L 132.777364 108.085154 
L 132.856918 108.057084 
L 133.387279 107.873854 
L 134.280053 107.581148 
L 134.783895 107.424833 
L 135.278899 107.277503 
L 135.499882 107.21371 
L 137.541771 106.678965 
L 138.09865 106.548681 
L 139.000263 106.349437 
L 142.368054 105.682492 
L 145.019858 105.150584 
L 146.001026 104.930829 
L 147.02639 104.680349 
L 148.281577 104.349834 
L 149.289262 104.074203 
L 149.395335 104.044813 
L 150.00525 103.874854 
L 151.048292 103.5821 
L 151.631689 103.418363 
L 152.215086 103.255415 
L 152.471427 103.184216 
L 154.849211 102.543913 
L 155.503323 102.376351 
L 156.555205 102.116344 
L 157.898786 101.801976 
L 160.921842 101.161056 
L 162.053278 100.93833 
L 163.220072 100.713099 
L 164.660886 100.435189 
L 165.810001 100.209164 
L 165.924912 100.186209 
L 166.62322 100.045043 
L 167.816532 99.804061 
L 168.488323 99.671186 
L 169.151273 99.542314 
L 169.442972 99.486382 
L 172.165491 98.991563 
L 172.907996 98.866707 
L 173.429517 98.782058 
L 174.110147 98.675669 
L 176.832665 98.303854 
L 178.096692 98.165718 
L 179.413754 98.049452 
L 181.031355 97.950581 
L 182.330739 97.910723 
L 182.45449 97.90892 
L 183.241191 97.906029 
L 184.584772 97.937258 
L 185.336116 97.975957 
L 186.087461 98.030835 
L 186.414517 98.059964 
L 188.960248 98.403655 
L 189.47293 98.49907 
L 190.312668 98.675036 
L 191.665088 99.010671 
L 192.743489 99.325069 
L 194.148945 99.79742 
L 195.616276 100.365844 
L 197.410663 101.163956 
L 198.851477 101.884971 
L 198.992906 101.959518 
L 199.868002 102.435532 
L 201.353012 103.300436 
L 202.19275 103.820604 
L 203.023648 104.356884 
L 203.394901 104.603332 
L 206.78921 107.045587 
L 207.72618 107.777685 
L 209.228869 109.001944 
L 209.228869 69.541433 
L 209.228869 69.541433 
L 207.72618 70.580264 
L 206.78921 71.208237 
L 203.394901 73.347619 
L 203.023648 73.56804 
L 202.19275 74.051163 
L 201.353012 74.524779 
L 199.868002 75.325053 
L 198.992906 75.773597 
L 198.851477 75.844445 
L 197.410663 76.539552 
L 195.616276 77.33547 
L 194.148945 77.926999 
L 192.743489 78.442576 
L 191.665088 78.804186 
L 190.312668 79.216329 
L 189.47293 79.449515 
L 188.960248 79.583532 
L 186.414517 80.160236 
L 186.087461 80.224314 
L 185.336116 80.363855 
L 184.584772 80.493269 
L 183.241191 80.701629 
L 182.45449 80.811223 
L 182.330739 80.827698 
L 181.031355 80.989252 
L 179.413754 81.165016 
L 178.096692 81.29157 
L 176.832665 81.402386 
L 174.110147 81.618413 
L 173.429517 81.669762 
L 172.907996 81.708841 
L 172.165491 81.764384 
L 169.442972 81.972844 
L 169.151273 81.996088 
L 168.488323 82.049861 
L 167.816532 82.105858 
L 166.62322 82.209664 
L 165.924912 82.275943 
L 165.810001 82.287556 
L 164.660886 82.413999 
L 163.220072 82.595787 
L 162.053278 82.757661 
L 160.921842 82.923287 
L 157.898786 83.384754 
L 156.555205 83.591588 
L 155.503323 83.753472 
L 154.849211 83.854499 
L 152.471427 84.231765 
L 152.215086 84.274195 
L 151.631689 84.372751 
L 151.048292 84.474576 
L 150.00525 84.666844 
L 149.395335 84.78665 
L 149.289262 84.808121 
L 148.281577 85.022639 
L 147.02639 85.320501 
L 146.001026 85.59578 
L 145.019858 85.887099 
L 142.368054 86.775472 
L 139.000263 87.994219 
L 138.09865 88.315341 
L 137.541771 88.509733 
L 135.499882 89.186842 
L 135.278899 89.256216 
L 134.783895 89.408604 
L 134.280053 89.559384 
L 133.387279 89.81584 
L 132.856918 89.961879 
L 132.777364 89.983394 
L 131.911108 90.21147 
L 130.832708 90.481324 
L 129.957612 90.691407 
L 129.109035 90.890195 
L 126.837323 91.420476 
L 121.445322 92.971733 
L 120.693977 93.237152 
L 120.225492 93.39708 
L 118.528338 93.941116 
L 118.342711 93.997246 
L 117.927262 94.120434 
L 117.511813 94.240231 
L 116.769308 94.445824 
L 116.32734 94.562996 
L 116.256626 94.581383 
L 115.540639 94.761986 
L 114.639025 94.975279 
L 113.905359 95.137811 
L 113.207051 95.284154 
L 111.315431 95.649663 
L 103.89038 97.60378 
L 103.289305 97.894622 
L 102.918052 98.091357 
L 101.556793 98.93739 
L 101.406524 99.0426 
L 101.079468 99.272946 
L 100.743573 99.511477 
L 100.142497 99.943368 
L 99.797763 100.194038 
L 99.735887 100.239262 
L 99.16133 100.66261 
L 98.445343 101.198931 
L 97.861946 101.643306 
L 97.296228 102.080718 
L 95.7847 103.282401 
L 86.335439 112.372883 
L 85.884632 112.90697 
L 85.601773 113.248419 
L 84.585248 114.517678 
L 84.470337 114.665452 
L 84.222835 114.986786 
L 83.975333 115.312342 
L 83.524526 115.916361 
L 83.259346 116.276822 
L 83.223989 116.325021 
L 82.790861 116.918094 
L 82.251661 117.663245 
L 81.809693 118.27971 
L 81.385405 118.876356 
L 80.253968 120.490713 
L 68.780497 138.743134 
L 68.479959 139.263942 
L 68.294333 139.586567 
L 67.613703 140.775609 
L 67.534149 140.915202 
L 67.375041 141.194766 
L 67.207093 141.490405 
L 66.906556 142.020823 
L 66.729769 142.333649 
L 66.703251 142.380625 
L 66.411552 142.898236 
L 66.057978 143.527779 
L 65.76628 144.048586 
L 65.483421 144.554502 
L 64.723237 145.918173 
L 51.225555 170.698048 
L 51.075286 170.979669 
L 50.978054 171.161986 
L 50.642158 171.79238 
L 50.597962 171.875393 
L 50.518408 172.024856 
L 50.438854 172.174369 
L 50.288585 172.456925 
L 50.200191 172.62322 
L 50.182512 172.656487 
L 50.041083 172.922715 
L 49.864296 173.255735 
L 49.714027 173.53901 
L 49.572598 173.805799 
L 49.192506 174.523658 
z
" clip-path="url(#pa3dd132b48)" style="fill: #999999; fill-opacity: 0.4"/>
   </g>
   <g id="line2d_29">
    <path d="M 49.192506 189.351461 
L 51.225555 184.328683 
L 65.483421 153.312256 
L 68.780497 147.227032 
L 80.253968 129.24192 
L 84.222835 123.996382 
L 86.335439 121.486196 
L 95.7847 112.675168 
L 100.743573 109.023755 
L 102.918052 107.579793 
L 103.89038 107.050125 
L 111.315431 104.814295 
L 118.528338 103.655343 
L 121.445322 102.824916 
L 131.911108 99.305883 
L 139.000263 97.171828 
L 148.281577 94.686237 
L 154.849211 93.199206 
L 160.921842 92.042171 
L 167.816532 90.95496 
L 174.110147 90.147041 
L 182.330739 89.369211 
L 186.414517 89.1101 
L 194.148945 88.86221 
L 201.353012 88.912608 
L 207.72618 89.178975 
L 209.228869 89.271688 
L 209.228869 89.271688 
" clip-path="url(#pa3dd132b48)" style="fill: none; stroke: #57db5f; stroke-width: 1.772454; stroke-linejoin: miter"/>
   </g>
   <g id="PolyCollection_3">
    <path d="M 49.192506 165.22647 
L 49.192506 205.560523 
L 49.572598 204.302107 
L 49.714027 203.836474 
L 49.864296 203.343299 
L 50.041083 202.765157 
L 50.182512 202.304252 
L 50.200191 202.246739 
L 50.288585 201.959514 
L 50.438854 201.472518 
L 50.518408 201.215355 
L 50.597962 200.958648 
L 50.642158 200.81623 
L 50.978054 199.738472 
L 51.075286 199.428015 
L 51.225555 198.949572 
L 64.723237 163.03743 
L 65.483421 161.434831 
L 65.76628 160.849271 
L 66.057978 160.251438 
L 66.411552 159.535121 
L 66.703251 158.951074 
L 66.729769 158.898286 
L 66.906556 158.547655 
L 67.207093 157.956704 
L 67.375041 157.629243 
L 67.534149 157.320832 
L 67.613703 157.167284 
L 68.294333 155.871228 
L 68.479959 155.523143 
L 68.780497 154.964364 
L 80.253968 137.172176 
L 81.385405 135.70432 
L 81.809693 135.16373 
L 82.251661 134.606082 
L 82.790861 133.933071 
L 83.223989 133.3981 
L 83.259346 133.354646 
L 83.524526 133.029766 
L 83.975333 132.483931 
L 84.222835 132.188397 
L 84.470337 131.895751 
L 84.585248 131.760852 
L 85.601773 130.593893 
L 85.884632 130.277468 
L 86.335439 129.780504 
L 95.7847 121.219678 
L 97.296228 120.095976 
L 97.861946 119.682744 
L 98.445343 119.258915 
L 99.16133 118.74006 
L 99.735887 118.323162 
L 99.797763 118.278176 
L 100.142497 118.027064 
L 100.743573 117.586637 
L 101.079468 117.338618 
L 101.406524 117.095507 
L 101.556793 116.983206 
L 102.918052 116.000371 
L 103.289305 115.745356 
L 103.89038 115.344979 
L 111.315431 111.923899 
L 113.207051 111.50715 
L 113.905359 111.384724 
L 114.639025 111.267782 
L 115.540639 111.13279 
L 116.256626 111.025818 
L 116.32734 111.015023 
L 116.769308 110.94588 
L 117.511813 110.820219 
L 117.927262 110.742592 
L 118.342711 110.658202 
L 118.528338 110.617992 
L 120.225492 110.15821 
L 120.693977 109.995493 
L 121.445322 109.695088 
L 126.837323 107.001268 
L 129.109035 105.811645 
L 129.957612 105.385861 
L 130.832708 104.963844 
L 131.911108 104.473002 
L 132.777364 104.10563 
L 132.856918 104.073185 
L 133.387279 103.86266 
L 134.280053 103.531551 
L 134.783895 103.357825 
L 135.278899 103.196403 
L 135.499882 103.127281 
L 137.541771 102.570486 
L 138.09865 102.442213 
L 139.000263 102.252724 
L 142.368054 101.676338 
L 145.019858 101.244533 
L 146.001026 101.060986 
L 147.02639 100.845314 
L 148.281577 100.558212 
L 149.289262 100.322128 
L 149.395335 100.297141 
L 150.00525 100.153377 
L 151.048292 99.908858 
L 151.631689 99.773959 
L 152.215086 99.641142 
L 152.471427 99.583581 
L 154.849211 99.080104 
L 155.503323 98.952854 
L 156.555205 98.759132 
L 157.898786 98.530238 
L 160.921842 98.067369 
L 162.053278 97.898341 
L 163.220072 97.716139 
L 164.660886 97.468887 
L 165.810001 97.245485 
L 165.924912 97.221594 
L 166.62322 97.069701 
L 167.816532 96.802507 
L 168.488323 96.654656 
L 169.151273 96.510902 
L 169.442972 96.4484 
L 172.165491 95.892525 
L 172.907996 95.751435 
L 173.429517 95.655593 
L 174.110147 95.534928 
L 176.832665 95.111604 
L 178.096692 94.953933 
L 179.413754 94.821421 
L 181.031355 94.709769 
L 182.330739 94.666607 
L 182.45449 94.664856 
L 183.241191 94.663915 
L 184.584772 94.705487 
L 185.336116 94.754203 
L 186.087461 94.8224 
L 186.414517 94.85841 
L 188.960248 95.279914 
L 189.47293 95.396616 
L 190.312668 95.611811 
L 191.665088 96.022385 
L 192.743489 96.407219 
L 194.148945 96.985821 
L 195.616276 97.682656 
L 197.410663 98.661755 
L 198.851477 99.546693 
L 198.992906 99.638202 
L 199.868002 100.222567 
L 201.353012 101.284439 
L 202.19275 101.923072 
L 203.023648 102.58146 
L 203.394901 102.884007 
L 206.78921 105.881407 
L 207.72618 106.779571 
L 209.228869 108.281137 
L 209.228869 54.61161 
L 209.228869 54.61161 
L 207.72618 56.188031 
L 206.78921 57.139674 
L 203.394901 60.373676 
L 203.023648 60.706109 
L 202.19275 61.434194 
L 201.353012 62.147188 
L 199.868002 63.350095 
L 198.992906 64.023204 
L 198.851477 64.129444 
L 197.410663 65.170549 
L 195.616276 66.35946 
L 194.148945 67.240257 
L 192.743489 68.005318 
L 191.665088 68.539911 
L 190.312668 69.146375 
L 189.47293 69.487661 
L 188.960248 69.683004 
L 186.414517 70.513314 
L 186.087461 70.604073 
L 185.336116 70.800301 
L 184.584772 70.980233 
L 183.241191 71.264522 
L 182.45449 71.410587 
L 182.330739 71.432293 
L 181.031355 71.640972 
L 179.413754 71.857205 
L 178.096692 72.003709 
L 176.832665 72.124223 
L 174.110147 72.335662 
L 173.429517 72.381469 
L 172.907996 72.415331 
L 172.165491 72.462151 
L 169.442972 72.628554 
L 169.151273 72.646596 
L 168.488323 72.68821 
L 167.816532 72.731501 
L 166.62322 72.812124 
L 165.924912 72.862164 
L 165.810001 72.87063 
L 164.660886 72.958593 
L 163.220072 73.07511 
L 162.053278 73.171142 
L 160.921842 73.262509 
L 157.898786 73.481308 
L 156.555205 73.563946 
L 155.503323 73.624212 
L 154.849211 73.66097 
L 152.471427 73.806694 
L 152.215086 73.825129 
L 151.631689 73.870367 
L 151.048292 73.921061 
L 150.00525 74.02891 
L 149.395335 74.104462 
L 149.289262 74.118678 
L 148.281577 74.271643 
L 147.02639 74.514334 
L 146.001026 74.763735 
L 145.019858 75.044616 
L 142.368054 75.961242 
L 139.000263 77.288124 
L 138.09865 77.643377 
L 137.541771 77.858842 
L 135.499882 78.609263 
L 135.278899 78.685976 
L 134.783895 78.854277 
L 134.280053 79.020475 
L 133.387279 79.302282 
L 132.856918 79.462223 
L 132.777364 79.485754 
L 131.911108 79.734707 
L 130.832708 80.028391 
L 129.957612 80.256888 
L 129.109035 80.473635 
L 126.837323 81.059882 
L 121.445322 82.892816 
L 120.693977 83.227549 
L 120.225492 83.43697 
L 118.528338 84.193701 
L 118.342711 84.27572 
L 117.927262 84.458331 
L 117.511813 84.639363 
L 116.769308 84.957982 
L 116.32734 85.14405 
L 116.256626 85.173542 
L 115.540639 85.467407 
L 114.639025 85.823925 
L 113.905359 86.101831 
L 113.207051 86.355763 
L 111.315431 86.994599 
L 103.89038 89.649374 
L 103.289305 89.973891 
L 102.918052 90.190269 
L 101.556793 91.101776 
L 101.406524 91.213685 
L 101.079468 91.458486 
L 100.743573 91.711682 
L 100.142497 92.169314 
L 99.797763 92.434434 
L 99.735887 92.482226 
L 99.16133 92.929028 
L 98.445343 93.493517 
L 97.861946 93.959903 
L 97.296228 94.417798 
L 95.7847 95.669813 
L 86.335439 104.9908 
L 85.884632 105.538986 
L 85.601773 105.889822 
L 84.585248 107.19669 
L 84.470337 107.34913 
L 84.222835 107.680822 
L 83.975333 108.017165 
L 83.524526 108.641982 
L 83.259346 109.0151 
L 83.223989 109.064983 
L 82.790861 109.678606 
L 82.251661 110.449111 
L 81.809693 111.086134 
L 81.385405 111.702299 
L 80.253968 113.367458 
L 68.780497 131.886771 
L 68.479959 132.404046 
L 68.294333 132.724093 
L 67.613703 133.901008 
L 67.534149 134.0389 
L 67.375041 134.314883 
L 67.207093 134.606476 
L 66.906556 135.128958 
L 66.729769 135.436692 
L 66.703251 135.482876 
L 66.411552 135.991305 
L 66.057978 136.608518 
L 65.76628 137.118137 
L 65.483421 137.612307 
L 64.723237 138.939924 
L 51.225555 161.87201 
L 51.075286 162.120385 
L 50.978054 162.281055 
L 50.642158 162.835843 
L 50.597962 162.908813 
L 50.518408 163.040145 
L 50.438854 163.171457 
L 50.288585 163.419438 
L 50.200191 163.565279 
L 50.182512 163.594444 
L 50.041083 163.827737 
L 49.864296 164.119279 
L 49.714027 164.367028 
L 49.572598 164.600155 
L 49.192506 165.22647 
z
" clip-path="url(#pa3dd132b48)" style="fill: #999999; fill-opacity: 0.4"/>
   </g>
   <g id="line2d_30">
    <path d="M 49.192506 185.393497 
L 51.225555 180.410791 
L 65.483421 149.523569 
L 68.780497 143.425568 
L 80.253968 125.269817 
L 84.222835 119.934609 
L 86.335439 117.385652 
L 95.7847 108.444746 
L 101.556793 104.042491 
L 103.89038 102.497176 
L 111.315431 99.459249 
L 118.528338 97.405846 
L 121.445322 96.293952 
L 129.957612 92.821375 
L 135.499882 90.868272 
L 139.000263 89.770424 
L 145.019858 88.144574 
L 149.395335 87.200801 
L 152.471427 86.695138 
L 157.898786 86.005773 
L 166.62322 84.940912 
L 174.110147 83.935295 
L 183.241191 82.964218 
L 192.743489 82.206268 
L 202.19275 81.678633 
L 209.228869 81.446374 
L 209.228869 81.446374 
" clip-path="url(#pa3dd132b48)" style="fill: none; stroke: #5f57db; stroke-width: 1.772454; stroke-linejoin: miter"/>
   </g>
   <g id="patch_3">
    <path d="M 41.190688 40.405371 
L 217.230688 40.405371 
L 217.230688 26.105371 
L 41.190688 26.105371 
z
" style="fill: #d9d9d9"/>
   </g>
   <g id="text_11">
    <!-- Full Signal -->
    <g style="fill: #1a1a1a" transform="translate(106.774125 35.683621)scale(0.088 -0.088)">
     <defs>
      <path id="DejaVuSans-46" d="M 628 4666 
L 3309 4666 
L 3309 4134 
L 1259 4134 
L 1259 2759 
L 3109 2759 
L 3109 2228 
L 1259 2228 
L 1259 0 
L 628 0 
L 628 4666 
z
" transform="scale(0.015625)"/>
      <path id="DejaVuSans-69" d="M 603 3500 
L 1178 3500 
L 1178 0 
L 603 0 
L 603 3500 
z
M 603 4863 
L 1178 4863 
L 1178 4134 
L 603 4134 
L 603 4863 
z
" transform="scale(0.015625)"/>
      <path id="DejaVuSans-67" d="M 2906 1791 
Q 2906 2416 2648 2759 
Q 2391 3103 1925 3103 
Q 1463 3103 1205 2759 
Q 947 2416 947 1791 
Q 947 1169 1205 825 
Q 1463 481 1925 481 
Q 2391 481 2648 825 
Q 2906 1169 2906 1791 
z
M 3481 434 
Q 3481 -459 3084 -895 
Q 2688 -1331 1869 -1331 
Q 1566 -1331 1297 -1286 
Q 1028 -1241 775 -1147 
L 775 -588 
Q 1028 -725 1275 -790 
Q 1522 -856 1778 -856 
Q 2344 -856 2625 -561 
Q 2906 -266 2906 331 
L 2906 616 
Q 2728 306 2450 153 
Q 2172 0 1784 0 
Q 1141 0 747 490 
Q 353 981 353 1791 
Q 353 2603 747 3093 
Q 1141 3584 1784 3584 
Q 2172 3584 2450 3431 
Q 2728 3278 2906 2969 
L 2906 3500 
L 3481 3500 
L 3481 434 
z
" transform="scale(0.015625)"/>
     </defs>
     <use xlink:href="#DejaVuSans-46"/>
     <use xlink:href="#DejaVuSans-75" x="52.019531"/>
     <use xlink:href="#DejaVuSans-6c" x="115.398438"/>
     <use xlink:href="#DejaVuSans-6c" x="143.181641"/>
     <use xlink:href="#DejaVuSans-20" x="170.964844"/>
     <use xlink:href="#DejaVuSans-53" x="202.751953"/>
     <use xlink:href="#DejaVuSans-69" x="266.228516"/>
     <use xlink:href="#DejaVuSans-67" x="294.011719"/>
     <use xlink:href="#DejaVuSans-6e" x="357.488281"/>
     <use xlink:href="#DejaVuSans-61" x="420.867188"/>
     <use xlink:href="#DejaVuSans-6c" x="482.146484"/>
    </g>
   </g>
   <g id="patch_4">
    <path d="M 405.510688 217.216339 
L 517.346688 217.216339 
L 517.346688 126.250402 
L 405.510688 126.250402 
z
" style="fill: #ffffff"/>
   </g>
   <g id="text_12">
    <!-- Model -->
    <g transform="translate(417.710688 149.843996)scale(0.11 -0.11)">
     <defs>
      <path id="DejaVuSans-4d" d="M 628 4666 
L 1569 4666 
L 2759 1491 
L 3956 4666 
L 4897 4666 
L 4897 0 
L 4281 0 
L 4281 4097 
L 3078 897 
L 2444 897 
L 1241 4097 
L 1241 0 
L 628 0 
L 628 4666 
z
" transform="scale(0.015625)"/>
      <path id="DejaVuSans-6f" d="M 1959 3097 
Q 1497 3097 1228 2736 
Q 959 2375 959 1747 
Q 959 1119 1226 758 
Q 1494 397 1959 397 
Q 2419 397 2687 759 
Q 2956 1122 2956 1747 
Q 2956 2369 2687 2733 
Q 2419 3097 1959 3097 
z
M 1959 3584 
Q 2709 3584 3137 3096 
Q 3566 2609 3566 1747 
Q 3566 888 3137 398 
Q 2709 -91 1959 -91 
Q 1206 -91 779 398 
Q 353 888 353 1747 
Q 353 2609 779 3096 
Q 1206 3584 1959 3584 
z
" transform="scale(0.015625)"/>
     </defs>
     <use xlink:href="#DejaVuSans-4d"/>
     <use xlink:href="#DejaVuSans-6f" x="86.279297"/>
     <use xlink:href="#DejaVuSans-64" x="147.460938"/>
     <use xlink:href="#DejaVuSans-65" x="210.9375"/>
     <use xlink:href="#DejaVuSans-6c" x="272.460938"/>
    </g>
   </g>
   <g id="patch_5">
    <path d="M 417.710688 169.336339 
L 433.550687 169.336339 
L 433.550687 153.496339 
L 417.710688 153.496339 
z
" clip-path="url(#p76817e27a0)" style="fill: #f2f2f2"/>
   </g>
   <g id="patch_6">
    <path d="M 417.710688 165.376339 
L 433.550687 165.376339 
L 433.550687 157.456339 
L 417.710688 157.456339 
z
" clip-path="url(#p76817e27a0)" style="fill: #999999; opacity: 0.4"/>
   </g>
   <g id="line2d_31">
    <path d="M 417.710688 161.416339 
L 433.550687 161.416339 
" clip-path="url(#p76817e27a0)" style="fill: none; stroke: #db5f57; stroke-width: 1.772454"/>
   </g>
   <g id="text_13">
    <!-- five_layer_net -->
    <g transform="translate(436.550687 163.722214)scale(0.088 -0.088)">
     <defs>
      <path id="DejaVuSans-66" d="M 2375 4863 
L 2375 4384 
L 1825 4384 
Q 1516 4384 1395 4259 
Q 1275 4134 1275 3809 
L 1275 3500 
L 2222 3500 
L 2222 3053 
L 1275 3053 
L 1275 0 
L 697 0 
L 697 3053 
L 147 3053 
L 147 3500 
L 697 3500 
L 697 3744 
Q 697 4328 969 4595 
Q 1241 4863 1831 4863 
L 2375 4863 
z
" transform="scale(0.015625)"/>
      <path id="DejaVuSans-76" d="M 191 3500 
L 800 3500 
L 1894 563 
L 2988 3500 
L 3597 3500 
L 2284 0 
L 1503 0 
L 191 3500 
z
" transform="scale(0.015625)"/>
      <path id="DejaVuSans-5f" d="M 3263 -1063 
L 3263 -1509 
L -63 -1509 
L -63 -1063 
L 3263 -1063 
z
" transform="scale(0.015625)"/>
     </defs>
     <use xlink:href="#DejaVuSans-66"/>
     <use xlink:href="#DejaVuSans-69" x="35.205078"/>
     <use xlink:href="#DejaVuSans-76" x="62.988281"/>
     <use xlink:href="#DejaVuSans-65" x="122.167969"/>
     <use xlink:href="#DejaVuSans-5f" x="183.691406"/>
     <use xlink:href="#DejaVuSans-6c" x="233.691406"/>
     <use xlink:href="#DejaVuSans-61" x="261.474609"/>
     <use xlink:href="#DejaVuSans-79" x="322.753906"/>
     <use xlink:href="#DejaVuSans-65" x="381.933594"/>
     <use xlink:href="#DejaVuSans-72" x="443.457031"/>
     <use xlink:href="#DejaVuSans-5f" x="484.570312"/>
     <use xlink:href="#DejaVuSans-6e" x="534.570312"/>
     <use xlink:href="#DejaVuSans-65" x="597.949219"/>
     <use xlink:href="#DejaVuSans-74" x="659.472656"/>
    </g>
   </g>
   <g id="patch_7">
    <path d="M 417.710688 187.176339 
L 433.550687 187.176339 
L 433.550687 171.336339 
L 417.710688 171.336339 
z
" clip-path="url(#peb9f90b325)" style="fill: #f2f2f2"/>
   </g>
   <g id="patch_8">
    <path d="M 417.710688 183.216339 
L 433.550687 183.216339 
L 433.550687 175.296339 
L 417.710688 175.296339 
z
" clip-path="url(#peb9f90b325)" style="fill: #999999; opacity: 0.4"/>
   </g>
   <g id="line2d_32">
    <path d="M 417.710688 179.256339 
L 433.550687 179.256339 
" clip-path="url(#peb9f90b325)" style="fill: none; stroke: #57db5f; stroke-width: 1.772454"/>
   </g>
   <g id="text_14">
    <!-- pytorch_lr -->
    <g transform="translate(436.550687 181.562214)scale(0.088 -0.088)">
     <defs>
      <path id="DejaVuSans-70" d="M 1159 525 
L 1159 -1331 
L 581 -1331 
L 581 3500 
L 1159 3500 
L 1159 2969 
Q 1341 3281 1617 3432 
Q 1894 3584 2278 3584 
Q 2916 3584 3314 3078 
Q 3713 2572 3713 1747 
Q 3713 922 3314 415 
Q 2916 -91 2278 -91 
Q 1894 -91 1617 61 
Q 1341 213 1159 525 
z
M 3116 1747 
Q 3116 2381 2855 2742 
Q 2594 3103 2138 3103 
Q 1681 3103 1420 2742 
Q 1159 2381 1159 1747 
Q 1159 1113 1420 752 
Q 1681 391 2138 391 
Q 2594 391 2855 752 
Q 3116 1113 3116 1747 
z
" transform="scale(0.015625)"/>
      <path id="DejaVuSans-68" d="M 3513 2113 
L 3513 0 
L 2938 0 
L 2938 2094 
Q 2938 2591 2744 2837 
Q 2550 3084 2163 3084 
Q 1697 3084 1428 2787 
Q 1159 2491 1159 1978 
L 1159 0 
L 581 0 
L 581 4863 
L 1159 4863 
L 1159 2956 
Q 1366 3272 1645 3428 
Q 1925 3584 2291 3584 
Q 2894 3584 3203 3211 
Q 3513 2838 3513 2113 
z
" transform="scale(0.015625)"/>
     </defs>
     <use xlink:href="#DejaVuSans-70"/>
     <use xlink:href="#DejaVuSans-79" x="63.476562"/>
     <use xlink:href="#DejaVuSans-74" x="122.65625"/>
     <use xlink:href="#DejaVuSans-6f" x="161.865234"/>
     <use xlink:href="#DejaVuSans-72" x="223.046875"/>
     <use xlink:href="#DejaVuSans-63" x="261.910156"/>
     <use xlink:href="#DejaVuSans-68" x="316.890625"/>
     <use xlink:href="#DejaVuSans-5f" x="380.269531"/>
     <use xlink:href="#DejaVuSans-6c" x="430.269531"/>
     <use xlink:href="#DejaVuSans-72" x="458.052734"/>
    </g>
   </g>
   <g id="patch_9">
    <path d="M 417.710688 205.016339 
L 433.550687 205.016339 
L 433.550687 189.176339 
L 417.710688 189.176339 
z
" clip-path="url(#p6146c2aa9b)" style="fill: #f2f2f2"/>
   </g>
   <g id="patch_10">
    <path d="M 417.710688 201.056339 
L 433.550687 201.056339 
L 433.550687 193.136339 
L 417.710688 193.136339 
z
" clip-path="url(#p6146c2aa9b)" style="fill: #999999; opacity: 0.4"/>
   </g>
   <g id="line2d_33">
    <path d="M 417.710688 197.096339 
L 433.550687 197.096339 
" clip-path="url(#p6146c2aa9b)" style="fill: none; stroke: #5f57db; stroke-width: 1.772454"/>
   </g>
   <g id="text_15">
    <!-- three_layer_net -->
    <g transform="translate(436.550687 199.402214)scale(0.088 -0.088)">
     <use xlink:href="#DejaVuSans-74"/>
     <use xlink:href="#DejaVuSans-68" x="39.208984"/>
     <use xlink:href="#DejaVuSans-72" x="102.587891"/>
     <use xlink:href="#DejaVuSans-65" x="141.451172"/>
     <use xlink:href="#DejaVuSans-65" x="202.974609"/>
     <use xlink:href="#DejaVuSans-5f" x="264.498047"/>
     <use xlink:href="#DejaVuSans-6c" x="314.498047"/>
     <use xlink:href="#DejaVuSans-61" x="342.28125"/>
     <use xlink:href="#DejaVuSans-79" x="403.560547"/>
     <use xlink:href="#DejaVuSans-65" x="462.740234"/>
     <use xlink:href="#DejaVuSans-72" x="524.263672"/>
     <use xlink:href="#DejaVuSans-5f" x="565.376953"/>
     <use xlink:href="#DejaVuSans-6e" x="615.376953"/>
     <use xlink:href="#DejaVuSans-65" x="678.755859"/>
     <use xlink:href="#DejaVuSans-74" x="740.279297"/>
    </g>
   </g>
  </g>
  <g id="axes_2">
   <g id="patch_11">
    <path d="M 222.270688 306.517371 
L 398.310687 306.517371 
L 398.310687 40.405371 
L 222.270688 40.405371 
z
" style="fill: #ebebeb"/>
   </g>
   <g id="matplotlib.axis_3">
    <g id="xtick_9">
     <g id="line2d_34">
      <path d="M 258.947345 306.517371 
L 258.947345 40.405371 
" clip-path="url(#p63653a1ac5)" style="fill: none; stroke: #ffffff; stroke-linecap: square"/>
     </g>
     <g id="line2d_35">
      <path d="M 258.947345 306.517371 
" style="fill: none; stroke: #333333; stroke-width: 1.5; stroke-linecap: square"/>
      <g>
       <use xlink:href="#m4638acb004" x="258.947345" y="306.517371" style="fill: #333333; stroke: #000000"/>
      </g>
     </g>
     <g id="text_16">
      <!-- 5000 -->
      <g style="fill: #4d4d4d" transform="translate(247.749345 318.153996)scale(0.088 -0.088)">
       <use xlink:href="#DejaVuSans-35"/>
       <use xlink:href="#DejaVuSans-30" x="63.623047"/>
       <use xlink:href="#DejaVuSans-30" x="127.246094"/>
       <use xlink:href="#DejaVuSans-30" x="190.869141"/>
      </g>
     </g>
    </g>
    <g id="xtick_10">
     <g id="line2d_36">
      <path d="M 303.144076 306.517371 
L 303.144076 40.405371 
" clip-path="url(#p63653a1ac5)" style="fill: none; stroke: #ffffff; stroke-linecap: square"/>
     </g>
     <g id="line2d_37">
      <path d="M 303.144076 306.517371 
" style="fill: none; stroke: #333333; stroke-width: 1.5; stroke-linecap: square"/>
      <g>
       <use xlink:href="#m4638acb004" x="303.144076" y="306.517371" style="fill: #333333; stroke: #000000"/>
      </g>
     </g>
     <g id="text_17">
      <!-- 10000 -->
      <g style="fill: #4d4d4d" transform="translate(289.146576 318.153996)scale(0.088 -0.088)">
       <use xlink:href="#DejaVuSans-31"/>
       <use xlink:href="#DejaVuSans-30" x="63.623047"/>
       <use xlink:href="#DejaVuSans-30" x="127.246094"/>
       <use xlink:href="#DejaVuSans-30" x="190.869141"/>
       <use xlink:href="#DejaVuSans-30" x="254.492188"/>
      </g>
     </g>
    </g>
    <g id="xtick_11">
     <g id="line2d_38">
      <path d="M 347.340807 306.517371 
L 347.340807 40.405371 
" clip-path="url(#p63653a1ac5)" style="fill: none; stroke: #ffffff; stroke-linecap: square"/>
     </g>
     <g id="line2d_39">
      <path d="M 347.340807 306.517371 
" style="fill: none; stroke: #333333; stroke-width: 1.5; stroke-linecap: square"/>
      <g>
       <use xlink:href="#m4638acb004" x="347.340807" y="306.517371" style="fill: #333333; stroke: #000000"/>
      </g>
     </g>
     <g id="text_18">
      <!-- 15000 -->
      <g style="fill: #4d4d4d" transform="translate(333.343307 318.153996)scale(0.088 -0.088)">
       <use xlink:href="#DejaVuSans-31"/>
       <use xlink:href="#DejaVuSans-35" x="63.623047"/>
       <use xlink:href="#DejaVuSans-30" x="127.246094"/>
       <use xlink:href="#DejaVuSans-30" x="190.869141"/>
       <use xlink:href="#DejaVuSans-30" x="254.492188"/>
      </g>
     </g>
    </g>
    <g id="xtick_12">
     <g id="line2d_40">
      <path d="M 391.537538 306.517371 
L 391.537538 40.405371 
" clip-path="url(#p63653a1ac5)" style="fill: none; stroke: #ffffff; stroke-linecap: square"/>
     </g>
     <g id="line2d_41">
      <path d="M 391.537538 306.517371 
" style="fill: none; stroke: #333333; stroke-width: 1.5; stroke-linecap: square"/>
      <g>
       <use xlink:href="#m4638acb004" x="391.537538" y="306.517371" style="fill: #333333; stroke: #000000"/>
      </g>
     </g>
     <g id="text_19">
      <!-- 20000 -->
      <g style="fill: #4d4d4d" transform="translate(377.540038 318.153996)scale(0.088 -0.088)">
       <use xlink:href="#DejaVuSans-32"/>
       <use xlink:href="#DejaVuSans-30" x="63.623047"/>
       <use xlink:href="#DejaVuSans-30" x="127.246094"/>
       <use xlink:href="#DejaVuSans-30" x="190.869141"/>
       <use xlink:href="#DejaVuSans-30" x="254.492188"/>
      </g>
     </g>
    </g>
    <g id="xtick_13">
     <g id="line2d_42">
      <path d="M 236.848979 306.517371 
L 236.848979 40.405371 
" clip-path="url(#p63653a1ac5)" style="fill: none; stroke: #ffffff; stroke-width: 0.5; stroke-linecap: square"/>
     </g>
    </g>
    <g id="xtick_14">
     <g id="line2d_43">
      <path d="M 281.04571 306.517371 
L 281.04571 40.405371 
" clip-path="url(#p63653a1ac5)" style="fill: none; stroke: #ffffff; stroke-width: 0.5; stroke-linecap: square"/>
     </g>
    </g>
    <g id="xtick_15">
     <g id="line2d_44">
      <path d="M 325.242442 306.517371 
L 325.242442 40.405371 
" clip-path="url(#p63653a1ac5)" style="fill: none; stroke: #ffffff; stroke-width: 0.5; stroke-linecap: square"/>
     </g>
    </g>
    <g id="xtick_16">
     <g id="line2d_45">
      <path d="M 369.439173 306.517371 
L 369.439173 40.405371 
" clip-path="url(#p63653a1ac5)" style="fill: none; stroke: #ffffff; stroke-width: 0.5; stroke-linecap: square"/>
     </g>
    </g>
    <g id="text_20">
     <!-- Train Sample Count -->
     <g transform="translate(160.345063 332.742402)scale(0.11 -0.11)">
      <defs>
       <path id="DejaVuSans-54" d="M -19 4666 
L 3928 4666 
L 3928 4134 
L 2272 4134 
L 2272 0 
L 1638 0 
L 1638 4134 
L -19 4134 
L -19 4666 
z
" transform="scale(0.015625)"/>
       <path id="DejaVuSans-6d" d="M 3328 2828 
Q 3544 3216 3844 3400 
Q 4144 3584 4550 3584 
Q 5097 3584 5394 3201 
Q 5691 2819 5691 2113 
L 5691 0 
L 5113 0 
L 5113 2094 
Q 5113 2597 4934 2840 
Q 4756 3084 4391 3084 
Q 3944 3084 3684 2787 
Q 3425 2491 3425 1978 
L 3425 0 
L 2847 0 
L 2847 2094 
Q 2847 2600 2669 2842 
Q 2491 3084 2119 3084 
Q 1678 3084 1418 2786 
Q 1159 2488 1159 1978 
L 1159 0 
L 581 0 
L 581 3500 
L 1159 3500 
L 1159 2956 
Q 1356 3278 1631 3431 
Q 1906 3584 2284 3584 
Q 2666 3584 2933 3390 
Q 3200 3197 3328 2828 
z
" transform="scale(0.015625)"/>
       <path id="DejaVuSans-43" d="M 4122 4306 
L 4122 3641 
Q 3803 3938 3442 4084 
Q 3081 4231 2675 4231 
Q 1875 4231 1450 3742 
Q 1025 3253 1025 2328 
Q 1025 1406 1450 917 
Q 1875 428 2675 428 
Q 3081 428 3442 575 
Q 3803 722 4122 1019 
L 4122 359 
Q 3791 134 3420 21 
Q 3050 -91 2638 -91 
Q 1578 -91 968 557 
Q 359 1206 359 2328 
Q 359 3453 968 4101 
Q 1578 4750 2638 4750 
Q 3056 4750 3426 4639 
Q 3797 4528 4122 4306 
z
" transform="scale(0.015625)"/>
      </defs>
      <use xlink:href="#DejaVuSans-54"/>
      <use xlink:href="#DejaVuSans-72" x="46.333984"/>
      <use xlink:href="#DejaVuSans-61" x="87.447266"/>
      <use xlink:href="#DejaVuSans-69" x="148.726562"/>
      <use xlink:href="#DejaVuSans-6e" x="176.509766"/>
      <use xlink:href="#DejaVuSans-20" x="239.888672"/>
      <use xlink:href="#DejaVuSans-53" x="271.675781"/>
      <use xlink:href="#DejaVuSans-61" x="335.152344"/>
      <use xlink:href="#DejaVuSans-6d" x="396.431641"/>
      <use xlink:href="#DejaVuSans-70" x="493.84375"/>
      <use xlink:href="#DejaVuSans-6c" x="557.320312"/>
      <use xlink:href="#DejaVuSans-65" x="585.103516"/>
      <use xlink:href="#DejaVuSans-20" x="646.626953"/>
      <use xlink:href="#DejaVuSans-43" x="678.414062"/>
      <use xlink:href="#DejaVuSans-6f" x="748.238281"/>
      <use xlink:href="#DejaVuSans-75" x="809.419922"/>
      <use xlink:href="#DejaVuSans-6e" x="872.798828"/>
      <use xlink:href="#DejaVuSans-74" x="936.177734"/>
     </g>
    </g>
   </g>
   <g id="matplotlib.axis_4">
    <g id="ytick_11">
     <g id="line2d_46">
      <path d="M 222.270688 267.387889 
L 398.310687 267.387889 
" clip-path="url(#p63653a1ac5)" style="fill: none; stroke: #ffffff; stroke-linecap: square"/>
     </g>
    </g>
    <g id="ytick_12">
     <g id="line2d_47">
      <path d="M 222.270688 215.886255 
L 398.310687 215.886255 
" clip-path="url(#p63653a1ac5)" style="fill: none; stroke: #ffffff; stroke-linecap: square"/>
     </g>
    </g>
    <g id="ytick_13">
     <g id="line2d_48">
      <path d="M 222.270688 164.384621 
L 398.310687 164.384621 
" clip-path="url(#p63653a1ac5)" style="fill: none; stroke: #ffffff; stroke-linecap: square"/>
     </g>
    </g>
    <g id="ytick_14">
     <g id="line2d_49">
      <path d="M 222.270688 112.882987 
L 398.310687 112.882987 
" clip-path="url(#p63653a1ac5)" style="fill: none; stroke: #ffffff; stroke-linecap: square"/>
     </g>
    </g>
    <g id="ytick_15">
     <g id="line2d_50">
      <path d="M 222.270688 61.381353 
L 398.310687 61.381353 
" clip-path="url(#p63653a1ac5)" style="fill: none; stroke: #ffffff; stroke-linecap: square"/>
     </g>
    </g>
    <g id="ytick_16">
     <g id="line2d_51">
      <path d="M 222.270688 293.138706 
L 398.310687 293.138706 
" clip-path="url(#p63653a1ac5)" style="fill: none; stroke: #ffffff; stroke-width: 0.5; stroke-linecap: square"/>
     </g>
    </g>
    <g id="ytick_17">
     <g id="line2d_52">
      <path d="M 222.270688 241.637072 
L 398.310687 241.637072 
" clip-path="url(#p63653a1ac5)" style="fill: none; stroke: #ffffff; stroke-width: 0.5; stroke-linecap: square"/>
     </g>
    </g>
    <g id="ytick_18">
     <g id="line2d_53">
      <path d="M 222.270688 190.135438 
L 398.310687 190.135438 
" clip-path="url(#p63653a1ac5)" style="fill: none; stroke: #ffffff; stroke-width: 0.5; stroke-linecap: square"/>
     </g>
    </g>
    <g id="ytick_19">
     <g id="line2d_54">
      <path d="M 222.270688 138.633804 
L 398.310687 138.633804 
" clip-path="url(#p63653a1ac5)" style="fill: none; stroke: #ffffff; stroke-width: 0.5; stroke-linecap: square"/>
     </g>
    </g>
    <g id="ytick_20">
     <g id="line2d_55">
      <path d="M 222.270688 87.13217 
L 398.310687 87.13217 
" clip-path="url(#p63653a1ac5)" style="fill: none; stroke: #ffffff; stroke-width: 0.5; stroke-linecap: square"/>
     </g>
    </g>
   </g>
   <g id="PolyCollection_4">
    <path d="M 230.272506 175.047361 
L 230.272506 268.529996 
L 230.652598 267.626753 
L 230.794027 267.293838 
L 230.944296 266.942014 
L 231.121083 266.530617 
L 231.262512 266.203465 
L 231.280191 266.162694 
L 231.368585 265.959252 
L 231.518854 265.614976 
L 231.598408 265.433519 
L 231.677962 265.252621 
L 231.722158 265.152365 
L 232.058054 264.396096 
L 232.155286 264.179056 
L 232.305555 263.845301 
L 245.803237 242.851285 
L 246.563421 242.199653 
L 246.84628 241.969847 
L 247.137978 241.739844 
L 247.491552 241.469887 
L 247.783251 241.253966 
L 247.809769 241.234636 
L 247.986556 241.107022 
L 248.287093 240.895017 
L 248.455041 240.779202 
L 248.614149 240.671207 
L 248.693703 240.617832 
L 249.374333 240.177658 
L 249.559959 240.062584 
L 249.860497 239.88063 
L 261.333968 235.641422 
L 262.465405 235.391397 
L 262.889693 235.301426 
L 263.331661 235.209672 
L 263.870861 235.100245 
L 264.303989 235.014194 
L 264.339346 235.007239 
L 264.604526 234.955387 
L 265.055333 234.864193 
L 265.302835 234.811188 
L 265.550337 234.756161 
L 265.665248 234.729941 
L 266.681773 234.480622 
L 266.964632 234.406136 
L 267.415439 234.28337 
L 276.8647 231.43526 
L 278.376228 231.01262 
L 278.941946 230.853011 
L 279.525343 230.685851 
L 280.24133 230.475224 
L 280.815887 230.300213 
L 280.877763 230.280983 
L 281.222497 230.17232 
L 281.823573 229.975959 
L 282.159468 229.861921 
L 282.486524 229.74759 
L 282.636793 229.693902 
L 283.998052 229.140509 
L 284.369305 228.970857 
L 284.97038 228.683599 
L 292.395431 225.493329 
L 294.287051 225.166641 
L 294.985359 225.099025 
L 295.719025 225.05095 
L 296.620639 225.013617 
L 297.336626 224.991486 
L 297.40734 224.989302 
L 297.849308 224.974545 
L 298.591813 224.94083 
L 299.007262 224.913804 
L 299.422711 224.878569 
L 299.608338 224.859677 
L 301.305492 224.56498 
L 301.773977 224.434808 
L 302.525322 224.17115 
L 307.917323 220.816111 
L 310.189035 219.076161 
L 311.037612 218.444444 
L 311.912708 217.819871 
L 312.991108 217.101641 
L 313.857364 216.575224 
L 313.936918 216.529385 
L 314.467279 216.235176 
L 315.360053 215.786485 
L 315.863895 215.559956 
L 316.358899 215.356442 
L 316.579882 215.271679 
L 318.621771 214.660242 
L 319.17865 214.543487 
L 320.080263 214.393513 
L 323.448054 214.120955 
L 326.099858 213.965652 
L 327.081026 213.861016 
L 328.10639 213.703301 
L 329.361577 213.447764 
L 330.369262 213.210897 
L 330.475335 213.184751 
L 331.08525 213.031105 
L 332.128292 212.759997 
L 332.711689 212.606953 
L 333.295086 212.455034 
L 333.551427 212.389041 
L 335.929211 211.821265 
L 336.583323 211.684615 
L 337.635205 211.486217 
L 338.978786 211.271382 
L 342.001842 210.910115 
L 343.133278 210.792096 
L 344.300072 210.660192 
L 345.740886 210.460864 
L 346.890001 210.256167 
L 347.004912 210.232942 
L 347.70322 210.079838 
L 348.896532 209.801579 
L 349.568323 209.647127 
L 350.231273 209.497131 
L 350.522972 209.432084 
L 353.245491 208.86671 
L 353.987996 208.730401 
L 354.509517 208.640658 
L 355.190147 208.531913 
L 357.912665 208.214914 
L 359.176692 208.148174 
L 360.493754 208.146516 
L 362.111355 208.255686 
L 363.410739 208.446112 
L 363.53449 208.469501 
L 364.321191 208.641006 
L 365.664772 209.031028 
L 366.416116 209.306722 
L 367.167461 209.626667 
L 367.494517 209.780343 
L 370.040248 211.298232 
L 370.55293 211.676401 
L 371.392668 212.350599 
L 372.745088 213.582174 
L 373.823489 214.695014 
L 375.228945 216.320695 
L 376.696276 218.228845 
L 378.490663 220.85059 
L 379.931477 223.179697 
L 380.072906 223.418841 
L 380.948002 224.939618 
L 382.433012 227.679086 
L 383.27275 229.314371 
L 384.103648 230.992139 
L 384.474901 231.760645 
L 387.86921 239.306773 
L 388.80618 241.548492 
L 390.308869 245.280339 
L 390.308869 120.889945 
L 390.308869 120.889945 
L 388.80618 124.29198 
L 387.86921 126.337578 
L 384.474901 133.23403 
L 384.103648 133.937224 
L 383.27275 135.472898 
L 382.433012 136.970294 
L 380.948002 139.479925 
L 380.072906 140.873608 
L 379.931477 141.09279 
L 378.490663 143.227689 
L 376.696276 145.630765 
L 375.228945 147.379106 
L 373.823489 148.867646 
L 372.745088 149.885771 
L 371.392668 151.011397 
L 370.55293 151.626962 
L 370.040248 151.97202 
L 367.494517 153.355473 
L 367.167461 153.495612 
L 366.416116 153.788528 
L 365.664772 154.042773 
L 364.321191 154.408001 
L 363.53449 154.572853 
L 363.410739 154.595714 
L 362.111355 154.788907 
L 360.493754 154.922126 
L 359.176692 154.956215 
L 357.912665 154.936832 
L 355.190147 154.762747 
L 354.509517 154.69799 
L 353.987996 154.644082 
L 353.245491 154.561899 
L 350.522972 154.22459 
L 350.231273 154.186594 
L 349.568323 154.099859 
L 348.896532 154.011971 
L 347.70322 153.857813 
L 347.004912 153.77485 
L 346.890001 153.762325 
L 345.740886 153.653113 
L 344.300072 153.549436 
L 343.133278 153.481622 
L 342.001842 153.419648 
L 338.978786 153.21523 
L 337.635205 153.091085 
L 336.583323 152.980171 
L 335.929211 152.907087 
L 333.551427 152.645697 
L 333.295086 152.621004 
L 332.711689 152.569942 
L 332.128292 152.527821 
L 331.08525 152.482169 
L 330.475335 152.47772 
L 330.369262 152.478902 
L 329.361577 152.523124 
L 328.10639 152.675729 
L 327.081026 152.911619 
L 326.099858 153.241844 
L 323.448054 154.520823 
L 320.080263 156.532813 
L 319.17865 157.066979 
L 318.621771 157.385819 
L 316.579882 158.446028 
L 316.358899 158.548382 
L 315.863895 158.767841 
L 315.360053 158.976923 
L 314.467279 159.311346 
L 313.936918 159.488316 
L 313.857364 159.513495 
L 312.991108 159.76545 
L 311.912708 160.026723 
L 311.037612 160.202776 
L 310.189035 160.350003 
L 307.917323 160.691502 
L 302.525322 162.051259 
L 301.773977 162.394479 
L 301.305492 162.632896 
L 299.608338 163.615837 
L 299.422711 163.73163 
L 299.007262 163.994513 
L 298.591813 164.261199 
L 297.849308 164.742137 
L 297.40734 165.027892 
L 297.336626 165.07341 
L 296.620639 165.528707 
L 295.719025 166.079471 
L 294.985359 166.500614 
L 294.287051 166.873023 
L 292.395431 167.714444 
L 284.97038 169.12864 
L 284.369305 169.240079 
L 283.998052 169.320181 
L 282.636793 169.708257 
L 282.486524 169.761034 
L 282.159468 169.879283 
L 281.823573 170.00532 
L 281.222497 170.241556 
L 280.877763 170.382687 
L 280.815887 170.40842 
L 280.24133 170.65274 
L 279.525343 170.969135 
L 278.941946 171.234927 
L 278.376228 171.498053 
L 276.8647 172.218086 
L 267.415439 176.828029 
L 266.964632 177.069511 
L 266.681773 177.223754 
L 265.665248 177.797341 
L 265.550337 177.864216 
L 265.302835 178.009739 
L 265.055333 178.157326 
L 264.604526 178.431578 
L 264.339346 178.595234 
L 264.303989 178.61709 
L 263.870861 178.885432 
L 263.331661 179.22082 
L 262.889693 179.496543 
L 262.465405 179.761675 
L 261.333968 180.468991 
L 249.860497 186.393463 
L 249.559959 186.479225 
L 249.374333 186.529315 
L 248.693703 186.693352 
L 248.614149 186.710445 
L 248.455041 186.743281 
L 248.287093 186.775964 
L 247.986556 186.829275 
L 247.809769 186.857468 
L 247.783251 186.861491 
L 247.491552 186.902152 
L 247.137978 186.942414 
L 246.84628 186.967964 
L 246.563421 186.985955 
L 245.803237 187.000255 
L 232.305555 177.91027 
L 232.155286 177.710793 
L 232.058054 177.58067 
L 231.722158 177.124846 
L 231.677962 177.064143 
L 231.598408 176.954456 
L 231.518854 176.844227 
L 231.368585 176.634537 
L 231.280191 176.510292 
L 231.262512 176.485363 
L 231.121083 176.284976 
L 230.944296 176.032114 
L 230.794027 175.815113 
L 230.652598 175.609147 
L 230.272506 175.047361 
z
" clip-path="url(#p63653a1ac5)" style="fill: #999999; fill-opacity: 0.4"/>
   </g>
   <g id="line2d_56">
    <path d="M 230.272506 221.788679 
L 246.563421 214.592804 
L 267.415439 205.555699 
L 281.222497 200.206938 
L 284.97038 198.906119 
L 299.007262 194.454158 
L 302.525322 193.111205 
L 320.080263 185.463163 
L 323.448054 184.320889 
L 327.081026 183.386317 
L 330.475335 182.831236 
L 333.551427 182.517369 
L 338.978786 182.243306 
L 350.231273 181.841863 
L 357.912665 181.575873 
L 365.664772 181.5369 
L 372.745088 181.733972 
L 380.072906 182.146224 
L 387.86921 182.822176 
L 390.308869 183.085142 
L 390.308869 183.085142 
" clip-path="url(#p63653a1ac5)" style="fill: none; stroke: #db5f57; stroke-width: 1.772454; stroke-linejoin: miter"/>
   </g>
   <g id="PolyCollection_5">
    <path d="M 230.272506 256.557278 
L 230.272506 285.870232 
L 230.652598 285.692107 
L 230.794027 285.626499 
L 230.944296 285.557193 
L 231.121083 285.476189 
L 231.262512 285.411804 
L 231.280191 285.403783 
L 231.368585 285.363761 
L 231.518854 285.29606 
L 231.598408 285.26039 
L 231.677962 285.22484 
L 231.722158 285.205142 
L 232.058054 285.056652 
L 232.155286 285.014072 
L 232.305555 284.948625 
L 245.803237 281.061007 
L 246.563421 280.95916 
L 246.84628 280.923871 
L 247.137978 280.888895 
L 247.491552 280.848032 
L 247.783251 280.815313 
L 247.809769 280.812381 
L 247.986556 280.793021 
L 248.287093 280.760812 
L 248.455041 280.743189 
L 248.614149 280.726734 
L 248.693703 280.718593 
L 249.374333 280.651189 
L 249.559959 280.633473 
L 249.860497 280.605359 
L 261.333968 279.795333 
L 262.465405 279.723397 
L 262.889693 279.696336 
L 263.331661 279.668097 
L 263.870861 279.633581 
L 264.303989 279.605812 
L 264.339346 279.603544 
L 264.604526 279.586526 
L 265.055333 279.552676 
L 265.302835 279.530001 
L 265.550337 279.504515 
L 265.665248 279.491746 
L 266.681773 279.354241 
L 266.964632 279.308578 
L 267.415439 279.229654 
L 276.8647 276.670369 
L 278.376228 276.23756 
L 278.941946 276.080703 
L 279.525343 275.922371 
L 280.24133 275.733231 
L 280.815887 275.585886 
L 280.877763 275.570265 
L 281.222497 275.484139 
L 281.823573 275.337765 
L 282.159468 275.258152 
L 282.486524 275.182199 
L 282.636793 275.147832 
L 283.998052 274.808264 
L 284.369305 274.70671 
L 284.97038 274.535962 
L 292.395431 272.447778 
L 294.287051 272.09409 
L 294.985359 271.988272 
L 295.719025 271.890081 
L 296.620639 271.785387 
L 297.336626 271.712621 
L 297.40734 271.705848 
L 297.849308 271.66494 
L 298.591813 271.600612 
L 299.007262 271.56623 
L 299.422711 271.532431 
L 299.608338 271.517396 
L 301.305492 271.374111 
L 301.773977 271.330265 
L 302.525322 271.253495 
L 307.917323 270.398898 
L 310.189035 269.983812 
L 311.037612 269.838943 
L 311.912708 269.699793 
L 312.991108 269.546269 
L 313.857364 269.439668 
L 313.936918 269.430685 
L 314.467279 269.374398 
L 315.360053 269.294144 
L 315.863895 269.256999 
L 316.358899 269.226207 
L 316.579882 269.214261 
L 318.621771 269.152998 
L 319.17865 269.149988 
L 320.080263 269.155006 
L 323.448054 269.229774 
L 326.099858 269.255933 
L 327.081026 269.23634 
L 328.10639 269.191181 
L 329.361577 269.096561 
L 330.369262 268.993426 
L 330.475335 268.98142 
L 331.08525 268.908848 
L 332.128292 268.773569 
L 332.711689 268.693698 
L 333.295086 268.612146 
L 333.551427 268.576043 
L 335.929211 268.24924 
L 336.583323 268.166513 
L 337.635205 268.04437 
L 338.978786 267.912333 
L 342.001842 267.733982 
L 343.133278 267.712725 
L 344.300072 267.716814 
L 345.740886 267.757584 
L 346.890001 267.81807 
L 347.004912 267.825493 
L 347.70322 267.876102 
L 348.896532 267.9747 
L 349.568323 268.034131 
L 350.231273 268.096011 
L 350.522972 268.12435 
L 353.245491 268.428439 
L 353.987996 268.526087 
L 354.509517 268.599104 
L 355.190147 268.700321 
L 357.912665 269.182522 
L 359.176692 269.455505 
L 360.493754 269.778828 
L 362.111355 270.237024 
L 363.410739 270.659561 
L 363.53449 270.702529 
L 364.321191 270.987352 
L 365.664772 271.522832 
L 366.416116 271.850933 
L 367.167461 272.200775 
L 367.494517 272.360087 
L 370.040248 273.749477 
L 370.55293 274.062157 
L 371.392668 274.598709 
L 372.745088 275.527195 
L 373.823489 276.324826 
L 375.228945 277.440629 
L 376.696276 278.696937 
L 378.490663 280.357979 
L 379.931477 281.788687 
L 380.072906 281.933687 
L 380.948002 282.848712 
L 382.433012 284.470574 
L 383.27275 285.42531 
L 384.103648 286.396123 
L 384.474901 286.838164 
L 387.86921 291.108592 
L 388.80618 292.357576 
L 390.308869 294.421371 
L 390.308869 255.416802 
L 390.308869 255.416802 
L 388.80618 255.589949 
L 387.86921 255.68532 
L 384.474901 255.943591 
L 384.103648 255.963025 
L 383.27275 255.999836 
L 382.433012 256.027403 
L 380.948002 256.051478 
L 380.072906 256.050328 
L 379.931477 256.049044 
L 378.490663 256.018095 
L 376.696276 255.932664 
L 375.228945 255.822907 
L 373.823489 255.683617 
L 372.745088 255.554183 
L 371.392668 255.364835 
L 370.55293 255.232708 
L 370.040248 255.146808 
L 367.494517 254.667179 
L 367.167461 254.599998 
L 366.416116 254.442328 
L 365.664772 254.280398 
L 364.321191 253.981739 
L 363.53449 253.802385 
L 363.410739 253.77392 
L 362.111355 253.471673 
L 360.493754 253.089481 
L 359.176692 252.776327 
L 357.912665 252.476339 
L 355.190147 251.840151 
L 354.509517 251.68453 
L 353.987996 251.566469 
L 353.245491 251.40031 
L 350.522972 250.81317 
L 350.231273 250.75252 
L 349.568323 250.61641 
L 348.896532 250.480989 
L 347.70322 250.2468 
L 347.004912 250.122169 
L 346.890001 250.103535 
L 345.740886 249.944618 
L 344.300072 249.808836 
L 343.133278 249.742123 
L 342.001842 249.706939 
L 338.978786 249.707912 
L 337.635205 249.733656 
L 336.583323 249.75881 
L 335.929211 249.775771 
L 333.551427 249.842575 
L 333.295086 249.850242 
L 332.711689 249.868147 
L 332.128292 249.886821 
L 331.08525 249.922775 
L 330.475335 249.945774 
L 330.369262 249.949951 
L 329.361577 249.992679 
L 328.10639 250.055024 
L 327.081026 250.124696 
L 326.099858 250.215026 
L 323.448054 250.541213 
L 320.080263 251.011871 
L 319.17865 251.127323 
L 318.621771 251.193699 
L 316.579882 251.395682 
L 316.358899 251.413144 
L 315.863895 251.448936 
L 315.360053 251.48061 
L 314.467279 251.525034 
L 313.936918 251.544559 
L 313.857364 251.547064 
L 312.991108 251.567602 
L 311.912708 251.577841 
L 311.037612 251.57635 
L 310.189035 251.5693 
L 307.917323 251.54588 
L 302.525322 251.774824 
L 301.773977 251.876542 
L 301.305492 251.95433 
L 299.608338 252.313424 
L 299.422711 252.358844 
L 299.007262 252.464026 
L 298.591813 252.573558 
L 297.849308 252.778119 
L 297.40734 252.904003 
L 297.336626 252.924364 
L 296.620639 253.132956 
L 295.719025 253.398644 
L 294.985359 253.613817 
L 294.287051 253.815207 
L 292.395431 254.330298 
L 284.97038 255.861566 
L 284.369305 255.977182 
L 283.998052 256.050657 
L 282.636793 256.338387 
L 282.486524 256.372469 
L 282.159468 256.449651 
L 281.823573 256.533026 
L 281.222497 256.691903 
L 280.877763 256.78821 
L 280.815887 256.80587 
L 280.24133 256.974948 
L 279.525343 257.197254 
L 278.941946 257.386513 
L 278.376228 257.57583 
L 276.8647 258.101891 
L 267.415439 261.213626 
L 266.964632 261.329775 
L 266.681773 261.400447 
L 265.665248 261.639631 
L 265.550337 261.665149 
L 265.302835 261.719011 
L 265.055333 261.771343 
L 264.604526 261.862594 
L 264.339346 261.91467 
L 264.303989 261.921611 
L 263.870861 262.006541 
L 263.331661 262.11191 
L 262.889693 262.197835 
L 262.465405 262.279821 
L 261.333968 262.495148 
L 249.860497 263.833615 
L 249.559959 263.831566 
L 249.374333 263.828905 
L 248.693703 263.809722 
L 248.614149 263.806486 
L 248.455041 263.799374 
L 248.287093 263.79093 
L 247.986556 263.773378 
L 247.809769 263.761563 
L 247.783251 263.759695 
L 247.491552 263.737458 
L 247.137978 263.706297 
L 246.84628 263.677164 
L 246.563421 263.646034 
L 245.803237 263.548037 
L 232.305555 258.002341 
L 232.155286 257.900585 
L 232.058054 257.834307 
L 231.722158 257.602726 
L 231.677962 257.571953 
L 231.598408 257.516385 
L 231.518854 257.460592 
L 231.368585 257.354588 
L 231.280191 257.291858 
L 231.262512 257.279279 
L 231.121083 257.178246 
L 230.944296 257.050961 
L 230.794027 256.941903 
L 230.652598 256.838536 
L 230.272506 256.557278 
z
" clip-path="url(#p63653a1ac5)" style="fill: #999999; fill-opacity: 0.4"/>
   </g>
   <g id="line2d_57">
    <path d="M 230.272506 271.213755 
L 232.305555 271.475483 
L 247.137978 272.297596 
L 249.860497 272.219487 
L 264.339346 270.759107 
L 266.964632 270.319176 
L 267.415439 270.22164 
L 282.636793 265.74311 
L 299.608338 261.91541 
L 302.525322 261.514159 
L 312.991108 260.556935 
L 323.448054 259.885494 
L 333.551427 259.209309 
L 338.978786 258.810123 
L 344.300072 258.762825 
L 347.70322 259.061451 
L 353.987996 260.046278 
L 357.912665 260.82943 
L 362.111355 261.854348 
L 366.416116 263.14663 
L 370.55293 264.647432 
L 373.823489 266.004222 
L 378.490663 268.188037 
L 383.27275 270.712573 
L 387.86921 273.396956 
L 390.308869 274.919086 
L 390.308869 274.919086 
" clip-path="url(#p63653a1ac5)" style="fill: none; stroke: #57db5f; stroke-width: 1.772454; stroke-linejoin: miter"/>
   </g>
   <g id="PolyCollection_6">
    <path d="M 230.272506 184.105582 
L 230.272506 281.893473 
L 230.652598 280.607414 
L 230.794027 280.132876 
L 230.944296 279.631066 
L 231.121083 279.043861 
L 231.262512 278.576566 
L 231.280191 278.518309 
L 231.368585 278.22754 
L 231.518854 277.735212 
L 231.598408 277.475579 
L 231.677962 277.216649 
L 231.722158 277.073103 
L 232.058054 275.989271 
L 232.155286 275.677887 
L 232.305555 275.198749 
L 245.803237 243.336572 
L 246.563421 242.206137 
L 246.84628 241.801836 
L 247.137978 241.393964 
L 247.491552 240.911562 
L 247.783251 240.523176 
L 247.809769 240.488292 
L 247.986556 240.25751 
L 248.287093 239.872206 
L 248.455041 239.66068 
L 248.614149 239.462755 
L 248.693703 239.364684 
L 249.374333 238.549361 
L 249.559959 238.334195 
L 249.860497 237.992168 
L 261.333968 229.154723 
L 262.465405 228.575938 
L 262.889693 228.366887 
L 263.331661 228.153396 
L 263.870861 227.898506 
L 264.303989 227.697939 
L 264.339346 227.681723 
L 264.604526 227.560843 
L 265.055333 227.355644 
L 265.302835 227.24234 
L 265.550337 227.128617 
L 265.665248 227.075684 
L 266.681773 226.604661 
L 266.964632 226.47305 
L 267.415439 226.263245 
L 276.8647 222.548247 
L 278.376228 222.117561 
L 278.941946 221.960972 
L 279.525343 221.799884 
L 280.24133 221.600333 
L 280.815887 221.436711 
L 280.877763 221.418825 
L 281.222497 221.318031 
L 281.823573 221.136772 
L 282.159468 221.031824 
L 282.486524 220.926716 
L 282.636793 220.877372 
L 283.998052 220.437825 
L 284.369305 220.323641 
L 284.97038 220.14675 
L 292.395431 219.819836 
L 294.287051 220.448949 
L 294.985359 220.733216 
L 295.719025 221.049234 
L 296.620639 221.446367 
L 297.336626 221.754963 
L 297.40734 221.784616 
L 297.849308 221.965027 
L 298.591813 222.242744 
L 299.007262 222.379788 
L 299.422711 222.500475 
L 299.608338 222.548443 
L 301.305492 222.773287 
L 301.773977 222.753729 
L 302.525322 222.633755 
L 307.917323 219.858946 
L 310.189035 218.208201 
L 311.037612 217.589811 
L 311.912708 216.968483 
L 312.991108 216.240358 
L 313.857364 215.695419 
L 313.936918 215.647421 
L 314.467279 215.336893 
L 315.360053 214.853285 
L 315.863895 214.602996 
L 316.358899 214.373326 
L 316.579882 214.275989 
L 318.621771 213.522188 
L 319.17865 213.358319 
L 320.080263 213.124344 
L 323.448054 212.448659 
L 326.099858 211.867172 
L 327.081026 211.578323 
L 328.10639 211.212022 
L 329.361577 210.662184 
L 330.369262 210.151084 
L 330.475335 210.094302 
L 331.08525 209.75849 
L 332.128292 209.15427 
L 332.711689 208.804526 
L 333.295086 208.44951 
L 333.551427 208.292467 
L 335.929211 206.841281 
L 336.583323 206.453702 
L 337.635205 205.849445 
L 338.978786 205.118252 
L 342.001842 203.647307 
L 343.133278 203.147721 
L 344.300072 202.649713 
L 345.740886 202.044569 
L 346.890001 201.559181 
L 347.004912 201.510209 
L 347.70322 201.210375 
L 348.896532 200.69243 
L 349.568323 200.400258 
L 350.231273 200.112779 
L 350.522972 199.986823 
L 353.245491 198.846063 
L 353.987996 198.552403 
L 354.509517 198.352508 
L 355.190147 198.100755 
L 357.912665 197.226979 
L 359.176692 196.914469 
L 360.493754 196.668775 
L 362.111355 196.498927 
L 363.410739 196.484913 
L 363.53449 196.489853 
L 364.321191 196.54854 
L 365.664772 196.765022 
L 366.416116 196.955099 
L 367.167461 197.198264 
L 367.494517 197.321407 
L 370.040248 198.653011 
L 370.55293 199.004316 
L 371.392668 199.642118 
L 372.745088 200.834686 
L 373.823489 201.933438 
L 375.228945 203.562833 
L 376.696276 205.500685 
L 378.490663 208.193097 
L 379.931477 210.604995 
L 380.072906 210.853469 
L 380.948002 212.436626 
L 382.433012 215.299701 
L 383.27275 217.014368 
L 384.103648 218.777145 
L 384.474901 219.585654 
L 387.86921 227.551609 
L 388.80618 229.925191 
L 390.308869 233.881614 
L 390.308869 103.762536 
L 390.308869 103.762536 
L 388.80618 107.268538 
L 387.86921 109.379723 
L 384.474901 116.521487 
L 384.103648 117.252456 
L 383.27275 118.851112 
L 382.433012 120.413399 
L 380.948002 123.041165 
L 380.072906 124.506692 
L 379.931477 124.73765 
L 378.490663 126.995345 
L 376.696276 129.559167 
L 375.228945 131.446202 
L 373.823489 133.074451 
L 372.745088 134.204804 
L 371.392668 135.477996 
L 370.55293 136.189355 
L 370.040248 136.594585 
L 367.494517 138.297941 
L 367.167461 138.482145 
L 366.416116 138.880065 
L 365.664772 139.244333 
L 364.321191 139.817884 
L 363.53449 140.111045 
L 363.410739 140.154485 
L 362.111355 140.569784 
L 360.493754 140.993184 
L 359.176692 141.272803 
L 357.912665 141.495224 
L 355.190147 141.8553 
L 354.509517 141.925561 
L 353.987996 141.975189 
L 353.245491 142.040294 
L 350.522972 142.236799 
L 350.231273 142.254966 
L 349.568323 142.294812 
L 348.896532 142.333483 
L 347.70322 142.399097 
L 347.004912 142.451992 
L 346.890001 142.463568 
L 345.740886 142.620589 
L 344.300072 142.908775 
L 343.133278 143.197866 
L 342.001842 143.50917 
L 338.978786 144.388378 
L 337.635205 144.764979 
L 336.583323 145.045679 
L 335.929211 145.213865 
L 333.551427 145.797699 
L 333.295086 145.859879 
L 332.711689 146.002565 
L 332.128292 146.148158 
L 331.08525 146.421029 
L 330.475335 146.591465 
L 330.369262 146.622133 
L 329.361577 146.931715 
L 328.10639 147.373882 
L 327.081026 147.821957 
L 326.099858 148.346784 
L 323.448054 150.103698 
L 320.080263 152.598922 
L 319.17865 153.234784 
L 318.621771 153.610045 
L 316.579882 154.833285 
L 316.358899 154.949023 
L 315.863895 155.195373 
L 315.360053 155.427411 
L 314.467279 155.791488 
L 313.936918 155.979378 
L 313.857364 156.005764 
L 312.991108 156.263602 
L 311.912708 156.513725 
L 311.037612 156.665877 
L 310.189035 156.777464 
L 307.917323 156.965355 
L 302.525322 157.652989 
L 301.773977 157.856191 
L 301.305492 157.988978 
L 299.608338 158.484075 
L 299.422711 158.53747 
L 299.007262 158.654915 
L 298.591813 158.76857 
L 297.849308 158.958671 
L 297.40734 159.061737 
L 297.336626 159.077416 
L 296.620639 159.221934 
L 295.719025 159.361878 
L 294.985359 159.436109 
L 294.287051 159.470672 
L 292.395431 159.379998 
L 284.97038 157.849043 
L 284.369305 157.842017 
L 283.998052 157.862527 
L 282.636793 158.129143 
L 282.486524 158.177535 
L 282.159468 158.286741 
L 281.823573 158.404241 
L 281.222497 158.627211 
L 280.877763 158.761968 
L 280.815887 158.786657 
L 280.24133 159.02278 
L 279.525343 159.33297 
L 278.941946 159.597233 
L 278.376228 159.862106 
L 276.8647 160.603881 
L 267.415439 166.161851 
L 266.964632 166.495839 
L 266.681773 166.71088 
L 265.665248 167.521106 
L 265.550337 167.616566 
L 265.302835 167.824953 
L 265.055333 168.037194 
L 264.604526 168.433881 
L 264.339346 168.671716 
L 264.303989 168.703517 
L 263.870861 169.094772 
L 263.331661 169.586029 
L 262.889693 169.991961 
L 262.465405 170.384241 
L 261.333968 171.441376 
L 249.860497 182.0417 
L 249.559959 182.283103 
L 249.374333 182.430294 
L 248.693703 182.956763 
L 248.614149 183.016879 
L 248.455041 183.136184 
L 248.287093 183.260749 
L 247.986556 183.480052 
L 247.809769 183.606834 
L 247.783251 183.625707 
L 247.491552 183.830761 
L 247.137978 184.072888 
L 246.84628 184.266892 
L 246.563421 184.449624 
L 245.803237 184.913375 
L 232.305555 185.306059 
L 232.155286 185.227408 
L 232.058054 185.175642 
L 231.722158 184.991557 
L 231.677962 184.966732 
L 231.598408 184.921695 
L 231.518854 184.876207 
L 231.368585 184.789058 
L 231.280191 184.737047 
L 231.262512 184.726579 
L 231.121083 184.64204 
L 230.944296 184.534395 
L 230.794027 184.441182 
L 230.652598 184.352022 
L 230.272506 184.105582 
z
" clip-path="url(#p63653a1ac5)" style="fill: #999999; fill-opacity: 0.4"/>
   </g>
   <g id="line2d_58">
    <path d="M 230.272506 232.999527 
L 232.305555 230.252404 
L 246.84628 213.034364 
L 249.860497 210.016934 
L 262.465405 199.48009 
L 265.665248 197.298395 
L 267.415439 196.212548 
L 276.8647 191.576064 
L 281.823573 189.770506 
L 283.998052 189.150176 
L 284.97038 188.997897 
L 292.395431 189.599917 
L 296.620639 190.33415 
L 299.007262 190.517351 
L 299.608338 190.516259 
L 301.773977 190.30496 
L 302.525322 190.143372 
L 307.917323 188.412151 
L 312.991108 186.25198 
L 320.080263 182.861633 
L 326.099858 180.106978 
L 342.001842 173.578238 
L 345.740886 172.332579 
L 350.231273 171.183873 
L 357.912665 169.361101 
L 362.111355 168.534356 
L 366.416116 167.917582 
L 370.55293 167.596835 
L 373.823489 167.503945 
L 378.490663 167.594221 
L 383.27275 167.93274 
L 387.86921 168.465666 
L 390.308869 168.822075 
L 390.308869 168.822075 
" clip-path="url(#p63653a1ac5)" style="fill: none; stroke: #5f57db; stroke-width: 1.772454; stroke-linejoin: miter"/>
   </g>
   <g id="patch_12">
    <path d="M 222.270688 40.405371 
L 398.310687 40.405371 
L 398.310687 26.105371 
L 222.270688 26.105371 
z
" style="fill: #d9d9d9"/>
   </g>
   <g id="text_21">
    <!-- Signal Removed -->
    <g style="fill: #1a1a1a" transform="translate(274.726313 35.683621)scale(0.088 -0.088)">
     <defs>
      <path id="DejaVuSans-52" d="M 2841 2188 
Q 3044 2119 3236 1894 
Q 3428 1669 3622 1275 
L 4263 0 
L 3584 0 
L 2988 1197 
Q 2756 1666 2539 1819 
Q 2322 1972 1947 1972 
L 1259 1972 
L 1259 0 
L 628 0 
L 628 4666 
L 2053 4666 
Q 2853 4666 3247 4331 
Q 3641 3997 3641 3322 
Q 3641 2881 3436 2590 
Q 3231 2300 2841 2188 
z
M 1259 4147 
L 1259 2491 
L 2053 2491 
Q 2509 2491 2742 2702 
Q 2975 2913 2975 3322 
Q 2975 3731 2742 3939 
Q 2509 4147 2053 4147 
L 1259 4147 
z
" transform="scale(0.015625)"/>
     </defs>
     <use xlink:href="#DejaVuSans-53"/>
     <use xlink:href="#DejaVuSans-69" x="63.476562"/>
     <use xlink:href="#DejaVuSans-67" x="91.259766"/>
     <use xlink:href="#DejaVuSans-6e" x="154.736328"/>
     <use xlink:href="#DejaVuSans-61" x="218.115234"/>
     <use xlink:href="#DejaVuSans-6c" x="279.394531"/>
     <use xlink:href="#DejaVuSans-20" x="307.177734"/>
     <use xlink:href="#DejaVuSans-52" x="338.964844"/>
     <use xlink:href="#DejaVuSans-65" x="403.947266"/>
     <use xlink:href="#DejaVuSans-6d" x="465.470703"/>
     <use xlink:href="#DejaVuSans-6f" x="562.882812"/>
     <use xlink:href="#DejaVuSans-76" x="624.064453"/>
     <use xlink:href="#DejaVuSans-65" x="683.244141"/>
     <use xlink:href="#DejaVuSans-64" x="744.767578"/>
    </g>
   </g>
  </g>
  <g id="text_22">
   <!-- Sex Label Prediction - Signal Removed -->
   <g transform="translate(87.23975 17.229938)scale(0.132 -0.132)">
    <defs>
     <path id="DejaVuSans-78" d="M 3513 3500 
L 2247 1797 
L 3578 0 
L 2900 0 
L 1881 1375 
L 863 0 
L 184 0 
L 1544 1831 
L 300 3500 
L 978 3500 
L 1906 2253 
L 2834 3500 
L 3513 3500 
z
" transform="scale(0.015625)"/>
     <path id="DejaVuSans-4c" d="M 628 4666 
L 1259 4666 
L 1259 531 
L 3531 531 
L 3531 0 
L 628 0 
L 628 4666 
z
" transform="scale(0.015625)"/>
     <path id="DejaVuSans-62" d="M 3116 1747 
Q 3116 2381 2855 2742 
Q 2594 3103 2138 3103 
Q 1681 3103 1420 2742 
Q 1159 2381 1159 1747 
Q 1159 1113 1420 752 
Q 1681 391 2138 391 
Q 2594 391 2855 752 
Q 3116 1113 3116 1747 
z
M 1159 2969 
Q 1341 3281 1617 3432 
Q 1894 3584 2278 3584 
Q 2916 3584 3314 3078 
Q 3713 2572 3713 1747 
Q 3713 922 3314 415 
Q 2916 -91 2278 -91 
Q 1894 -91 1617 61 
Q 1341 213 1159 525 
L 1159 0 
L 581 0 
L 581 4863 
L 1159 4863 
L 1159 2969 
z
" transform="scale(0.015625)"/>
     <path id="DejaVuSans-50" d="M 1259 4147 
L 1259 2394 
L 2053 2394 
Q 2494 2394 2734 2622 
Q 2975 2850 2975 3272 
Q 2975 3691 2734 3919 
Q 2494 4147 2053 4147 
L 1259 4147 
z
M 628 4666 
L 2053 4666 
Q 2838 4666 3239 4311 
Q 3641 3956 3641 3272 
Q 3641 2581 3239 2228 
Q 2838 1875 2053 1875 
L 1259 1875 
L 1259 0 
L 628 0 
L 628 4666 
z
" transform="scale(0.015625)"/>
     <path id="DejaVuSans-2d" d="M 313 2009 
L 1997 2009 
L 1997 1497 
L 313 1497 
L 313 2009 
z
" transform="scale(0.015625)"/>
    </defs>
    <use xlink:href="#DejaVuSans-53"/>
    <use xlink:href="#DejaVuSans-65" x="63.476562"/>
    <use xlink:href="#DejaVuSans-78" x="123.25"/>
    <use xlink:href="#DejaVuSans-20" x="182.429688"/>
    <use xlink:href="#DejaVuSans-4c" x="214.216797"/>
    <use xlink:href="#DejaVuSans-61" x="269.929688"/>
    <use xlink:href="#DejaVuSans-62" x="331.208984"/>
    <use xlink:href="#DejaVuSans-65" x="394.685547"/>
    <use xlink:href="#DejaVuSans-6c" x="456.208984"/>
    <use xlink:href="#DejaVuSans-20" x="483.992188"/>
    <use xlink:href="#DejaVuSans-50" x="515.779297"/>
    <use xlink:href="#DejaVuSans-72" x="574.332031"/>
    <use xlink:href="#DejaVuSans-65" x="613.195312"/>
    <use xlink:href="#DejaVuSans-64" x="674.71875"/>
    <use xlink:href="#DejaVuSans-69" x="738.195312"/>
    <use xlink:href="#DejaVuSans-63" x="765.978516"/>
    <use xlink:href="#DejaVuSans-74" x="820.958984"/>
    <use xlink:href="#DejaVuSans-69" x="860.167969"/>
    <use xlink:href="#DejaVuSans-6f" x="887.951172"/>
    <use xlink:href="#DejaVuSans-6e" x="949.132812"/>
    <use xlink:href="#DejaVuSans-20" x="1012.511719"/>
    <use xlink:href="#DejaVuSans-2d" x="1044.298828"/>
    <use xlink:href="#DejaVuSans-20" x="1080.382812"/>
    <use xlink:href="#DejaVuSans-53" x="1112.169922"/>
    <use xlink:href="#DejaVuSans-69" x="1175.646484"/>
    <use xlink:href="#DejaVuSans-67" x="1203.429688"/>
    <use xlink:href="#DejaVuSans-6e" x="1266.90625"/>
    <use xlink:href="#DejaVuSans-61" x="1330.285156"/>
    <use xlink:href="#DejaVuSans-6c" x="1391.564453"/>
    <use xlink:href="#DejaVuSans-20" x="1419.347656"/>
    <use xlink:href="#DejaVuSans-52" x="1451.134766"/>
    <use xlink:href="#DejaVuSans-65" x="1516.117188"/>
    <use xlink:href="#DejaVuSans-6d" x="1577.640625"/>
    <use xlink:href="#DejaVuSans-6f" x="1675.052734"/>
    <use xlink:href="#DejaVuSans-76" x="1736.234375"/>
    <use xlink:href="#DejaVuSans-65" x="1795.414062"/>
    <use xlink:href="#DejaVuSans-64" x="1856.9375"/>
   </g>
  </g>
 </g>
 <defs>
  <clipPath id="pa3dd132b48">
   <rect x="41.190688" y="40.405371" width="176.04" height="266.112"/>
  </clipPath>
  <clipPath id="p76817e27a0">
   <path d="M 417.710688 169.336339 
L 417.710688 153.496339 
L 433.550687 153.496339 
L 433.550687 169.336339 
"/>
  </clipPath>
  <clipPath id="peb9f90b325">
   <path d="M 417.710688 187.176339 
L 417.710688 171.336339 
L 433.550687 171.336339 
L 433.550687 187.176339 
"/>
  </clipPath>
  <clipPath id="p6146c2aa9b">
   <path d="M 417.710688 205.016339 
L 417.710688 189.176339 
L 433.550687 189.176339 
L 433.550687 205.016339 
"/>
  </clipPath>
  <clipPath id="p63653a1ac5">
   <rect x="222.270688" y="40.405371" width="176.04" height="266.112"/>
  </clipPath>
 </defs>
</svg>
