<?xml version="1.0" encoding="utf-8" standalone="no"?>
<!DOCTYPE svg PUBLIC "-//W3C//DTD SVG 1.1//EN"
  "http://www.w3.org/Graphics/SVG/1.1/DTD/svg11.dtd">
<svg xmlns:xlink="http://www.w3.org/1999/xlink" width="548.024813pt" height="327.930058pt" viewBox="0 0 548.024813 327.930058" xmlns="http://www.w3.org/2000/svg" version="1.1">
 <metadata>
  <rdf:RDF xmlns:dc="http://purl.org/dc/elements/1.1/" xmlns:cc="http://creativecommons.org/ns#" xmlns:rdf="http://www.w3.org/1999/02/22-rdf-syntax-ns#">
   <cc:Work>
    <dc:type rdf:resource="http://purl.org/dc/dcmitype/StillImage"/>
    <dc:date>2023-01-30T07:37:02.461420</dc:date>
    <dc:format>image/svg+xml</dc:format>
    <dc:creator>
     <cc:Agent>
      <dc:title>Matplotlib v3.5.1, https://matplotlib.org/</dc:title>
     </cc:Agent>
    </dc:creator>
   </cc:Work>
  </rdf:RDF>
 </metadata>
 <defs>
  <style type="text/css">*{stroke-linejoin: round; stroke-linecap: butt}</style>
 </defs>
 <g id="figure_1">
  <g id="patch_1">
   <path d="M 0 327.930058 
L 548.024813 327.930058 
L 548.024813 0 
L 0 0 
z
" style="fill: #ffffff; stroke: #ffffff; stroke-linejoin: miter"/>
  </g>
  <g id="axes_1">
   <g id="patch_2">
    <path d="M 41.190688 292.217371 
L 398.310688 292.217371 
L 398.310688 26.105371 
L 41.190688 26.105371 
z
" style="fill: #ebebeb"/>
   </g>
   <g id="matplotlib.axis_1">
    <g id="xtick_1">
     <g id="line2d_1">
      <path d="M 115.59405 292.217371 
L 115.59405 26.105371 
" clip-path="url(#pc8e192b9e7)" style="fill: none; stroke: #ffffff"/>
     </g>
     <g id="line2d_2">
      <path d="M 115.59405 292.217371 
" style="fill: none; stroke: #333333; stroke-width: 1.5"/>
      <defs>
       <path id="m2565d5875d" d="M 0 0 
L 0 2.75 
" style="stroke: #000000"/>
      </defs>
      <g>
       <use xlink:href="#m2565d5875d" x="115.59405" y="292.217371" style="fill: #333333; stroke: #000000"/>
      </g>
     </g>
     <g id="text_1">
      <!-- 5000 -->
      <g style="fill: #4d4d4d" transform="translate(104.39605 303.853996)scale(0.088 -0.088)">
       <defs>
        <path id="DejaVuSans-35" d="M 691 4666 
L 3169 4666 
L 3169 4134 
L 1269 4134 
L 1269 2991 
Q 1406 3038 1543 3061 
Q 1681 3084 1819 3084 
Q 2600 3084 3056 2656 
Q 3513 2228 3513 1497 
Q 3513 744 3044 326 
Q 2575 -91 1722 -91 
Q 1428 -91 1123 -41 
Q 819 9 494 109 
L 494 744 
Q 775 591 1075 516 
Q 1375 441 1709 441 
Q 2250 441 2565 725 
Q 2881 1009 2881 1497 
Q 2881 1984 2565 2268 
Q 2250 2553 1709 2553 
Q 1456 2553 1204 2497 
Q 953 2441 691 2322 
L 691 4666 
z
" transform="scale(0.015625)"/>
        <path id="DejaVuSans-30" d="M 2034 4250 
Q 1547 4250 1301 3770 
Q 1056 3291 1056 2328 
Q 1056 1369 1301 889 
Q 1547 409 2034 409 
Q 2525 409 2770 889 
Q 3016 1369 3016 2328 
Q 3016 3291 2770 3770 
Q 2525 4250 2034 4250 
z
M 2034 4750 
Q 2819 4750 3233 4129 
Q 3647 3509 3647 2328 
Q 3647 1150 3233 529 
Q 2819 -91 2034 -91 
Q 1250 -91 836 529 
Q 422 1150 422 2328 
Q 422 3509 836 4129 
Q 1250 4750 2034 4750 
z
" transform="scale(0.015625)"/>
       </defs>
       <use xlink:href="#DejaVuSans-35"/>
       <use xlink:href="#DejaVuSans-30" x="63.623047"/>
       <use xlink:href="#DejaVuSans-30" x="127.246094"/>
       <use xlink:href="#DejaVuSans-30" x="190.869141"/>
      </g>
     </g>
    </g>
    <g id="xtick_2">
     <g id="line2d_3">
      <path d="M 205.252858 292.217371 
L 205.252858 26.105371 
" clip-path="url(#pc8e192b9e7)" style="fill: none; stroke: #ffffff"/>
     </g>
     <g id="line2d_4">
      <path d="M 205.252858 292.217371 
" style="fill: none; stroke: #333333; stroke-width: 1.5"/>
      <g>
       <use xlink:href="#m2565d5875d" x="205.252858" y="292.217371" style="fill: #333333; stroke: #000000"/>
      </g>
     </g>
     <g id="text_2">
      <!-- 10000 -->
      <g style="fill: #4d4d4d" transform="translate(191.255358 303.853996)scale(0.088 -0.088)">
       <defs>
        <path id="DejaVuSans-31" d="M 794 531 
L 1825 531 
L 1825 4091 
L 703 3866 
L 703 4441 
L 1819 4666 
L 2450 4666 
L 2450 531 
L 3481 531 
L 3481 0 
L 794 0 
L 794 531 
z
" transform="scale(0.015625)"/>
       </defs>
       <use xlink:href="#DejaVuSans-31"/>
       <use xlink:href="#DejaVuSans-30" x="63.623047"/>
       <use xlink:href="#DejaVuSans-30" x="127.246094"/>
       <use xlink:href="#DejaVuSans-30" x="190.869141"/>
       <use xlink:href="#DejaVuSans-30" x="254.492188"/>
      </g>
     </g>
    </g>
    <g id="xtick_3">
     <g id="line2d_5">
      <path d="M 294.911667 292.217371 
L 294.911667 26.105371 
" clip-path="url(#pc8e192b9e7)" style="fill: none; stroke: #ffffff"/>
     </g>
     <g id="line2d_6">
      <path d="M 294.911667 292.217371 
" style="fill: none; stroke: #333333; stroke-width: 1.5"/>
      <g>
       <use xlink:href="#m2565d5875d" x="294.911667" y="292.217371" style="fill: #333333; stroke: #000000"/>
      </g>
     </g>
     <g id="text_3">
      <!-- 15000 -->
      <g style="fill: #4d4d4d" transform="translate(280.914167 303.853996)scale(0.088 -0.088)">
       <use xlink:href="#DejaVuSans-31"/>
       <use xlink:href="#DejaVuSans-35" x="63.623047"/>
       <use xlink:href="#DejaVuSans-30" x="127.246094"/>
       <use xlink:href="#DejaVuSans-30" x="190.869141"/>
       <use xlink:href="#DejaVuSans-30" x="254.492188"/>
      </g>
     </g>
    </g>
    <g id="xtick_4">
     <g id="line2d_7">
      <path d="M 384.570475 292.217371 
L 384.570475 26.105371 
" clip-path="url(#pc8e192b9e7)" style="fill: none; stroke: #ffffff"/>
     </g>
     <g id="line2d_8">
      <path d="M 384.570475 292.217371 
" style="fill: none; stroke: #333333; stroke-width: 1.5"/>
      <g>
       <use xlink:href="#m2565d5875d" x="384.570475" y="292.217371" style="fill: #333333; stroke: #000000"/>
      </g>
     </g>
     <g id="text_4">
      <!-- 20000 -->
      <g style="fill: #4d4d4d" transform="translate(370.572975 303.853996)scale(0.088 -0.088)">
       <defs>
        <path id="DejaVuSans-32" d="M 1228 531 
L 3431 531 
L 3431 0 
L 469 0 
L 469 531 
Q 828 903 1448 1529 
Q 2069 2156 2228 2338 
Q 2531 2678 2651 2914 
Q 2772 3150 2772 3378 
Q 2772 3750 2511 3984 
Q 2250 4219 1831 4219 
Q 1534 4219 1204 4116 
Q 875 4013 500 3803 
L 500 4441 
Q 881 4594 1212 4672 
Q 1544 4750 1819 4750 
Q 2544 4750 2975 4387 
Q 3406 4025 3406 3419 
Q 3406 3131 3298 2873 
Q 3191 2616 2906 2266 
Q 2828 2175 2409 1742 
Q 1991 1309 1228 531 
z
" transform="scale(0.015625)"/>
       </defs>
       <use xlink:href="#DejaVuSans-32"/>
       <use xlink:href="#DejaVuSans-30" x="63.623047"/>
       <use xlink:href="#DejaVuSans-30" x="127.246094"/>
       <use xlink:href="#DejaVuSans-30" x="190.869141"/>
       <use xlink:href="#DejaVuSans-30" x="254.492188"/>
      </g>
     </g>
    </g>
    <g id="xtick_5">
     <g id="line2d_9">
      <path d="M 70.764645 292.217371 
L 70.764645 26.105371 
" clip-path="url(#pc8e192b9e7)" style="fill: none; stroke: #ffffff; stroke-width: 0.5"/>
     </g>
    </g>
    <g id="xtick_6">
     <g id="line2d_10">
      <path d="M 160.423454 292.217371 
L 160.423454 26.105371 
" clip-path="url(#pc8e192b9e7)" style="fill: none; stroke: #ffffff; stroke-width: 0.5"/>
     </g>
    </g>
    <g id="xtick_7">
     <g id="line2d_11">
      <path d="M 250.082262 292.217371 
L 250.082262 26.105371 
" clip-path="url(#pc8e192b9e7)" style="fill: none; stroke: #ffffff; stroke-width: 0.5"/>
     </g>
    </g>
    <g id="xtick_8">
     <g id="line2d_12">
      <path d="M 339.741071 292.217371 
L 339.741071 26.105371 
" clip-path="url(#pc8e192b9e7)" style="fill: none; stroke: #ffffff; stroke-width: 0.5"/>
     </g>
    </g>
    <g id="text_5">
     <!-- Train Sample Count -->
     <g transform="translate(160.345063 318.442402)scale(0.11 -0.11)">
      <defs>
       <path id="DejaVuSans-54" d="M -19 4666 
L 3928 4666 
L 3928 4134 
L 2272 4134 
L 2272 0 
L 1638 0 
L 1638 4134 
L -19 4134 
L -19 4666 
z
" transform="scale(0.015625)"/>
       <path id="DejaVuSans-72" d="M 2631 2963 
Q 2534 3019 2420 3045 
Q 2306 3072 2169 3072 
Q 1681 3072 1420 2755 
Q 1159 2438 1159 1844 
L 1159 0 
L 581 0 
L 581 3500 
L 1159 3500 
L 1159 2956 
Q 1341 3275 1631 3429 
Q 1922 3584 2338 3584 
Q 2397 3584 2469 3576 
Q 2541 3569 2628 3553 
L 2631 2963 
z
" transform="scale(0.015625)"/>
       <path id="DejaVuSans-61" d="M 2194 1759 
Q 1497 1759 1228 1600 
Q 959 1441 959 1056 
Q 959 750 1161 570 
Q 1363 391 1709 391 
Q 2188 391 2477 730 
Q 2766 1069 2766 1631 
L 2766 1759 
L 2194 1759 
z
M 3341 1997 
L 3341 0 
L 2766 0 
L 2766 531 
Q 2569 213 2275 61 
Q 1981 -91 1556 -91 
Q 1019 -91 701 211 
Q 384 513 384 1019 
Q 384 1609 779 1909 
Q 1175 2209 1959 2209 
L 2766 2209 
L 2766 2266 
Q 2766 2663 2505 2880 
Q 2244 3097 1772 3097 
Q 1472 3097 1187 3025 
Q 903 2953 641 2809 
L 641 3341 
Q 956 3463 1253 3523 
Q 1550 3584 1831 3584 
Q 2591 3584 2966 3190 
Q 3341 2797 3341 1997 
z
" transform="scale(0.015625)"/>
       <path id="DejaVuSans-69" d="M 603 3500 
L 1178 3500 
L 1178 0 
L 603 0 
L 603 3500 
z
M 603 4863 
L 1178 4863 
L 1178 4134 
L 603 4134 
L 603 4863 
z
" transform="scale(0.015625)"/>
       <path id="DejaVuSans-6e" d="M 3513 2113 
L 3513 0 
L 2938 0 
L 2938 2094 
Q 2938 2591 2744 2837 
Q 2550 3084 2163 3084 
Q 1697 3084 1428 2787 
Q 1159 2491 1159 1978 
L 1159 0 
L 581 0 
L 581 3500 
L 1159 3500 
L 1159 2956 
Q 1366 3272 1645 3428 
Q 1925 3584 2291 3584 
Q 2894 3584 3203 3211 
Q 3513 2838 3513 2113 
z
" transform="scale(0.015625)"/>
       <path id="DejaVuSans-20" transform="scale(0.015625)"/>
       <path id="DejaVuSans-53" d="M 3425 4513 
L 3425 3897 
Q 3066 4069 2747 4153 
Q 2428 4238 2131 4238 
Q 1616 4238 1336 4038 
Q 1056 3838 1056 3469 
Q 1056 3159 1242 3001 
Q 1428 2844 1947 2747 
L 2328 2669 
Q 3034 2534 3370 2195 
Q 3706 1856 3706 1288 
Q 3706 609 3251 259 
Q 2797 -91 1919 -91 
Q 1588 -91 1214 -16 
Q 841 59 441 206 
L 441 856 
Q 825 641 1194 531 
Q 1563 422 1919 422 
Q 2459 422 2753 634 
Q 3047 847 3047 1241 
Q 3047 1584 2836 1778 
Q 2625 1972 2144 2069 
L 1759 2144 
Q 1053 2284 737 2584 
Q 422 2884 422 3419 
Q 422 4038 858 4394 
Q 1294 4750 2059 4750 
Q 2388 4750 2728 4690 
Q 3069 4631 3425 4513 
z
" transform="scale(0.015625)"/>
       <path id="DejaVuSans-6d" d="M 3328 2828 
Q 3544 3216 3844 3400 
Q 4144 3584 4550 3584 
Q 5097 3584 5394 3201 
Q 5691 2819 5691 2113 
L 5691 0 
L 5113 0 
L 5113 2094 
Q 5113 2597 4934 2840 
Q 4756 3084 4391 3084 
Q 3944 3084 3684 2787 
Q 3425 2491 3425 1978 
L 3425 0 
L 2847 0 
L 2847 2094 
Q 2847 2600 2669 2842 
Q 2491 3084 2119 3084 
Q 1678 3084 1418 2786 
Q 1159 2488 1159 1978 
L 1159 0 
L 581 0 
L 581 3500 
L 1159 3500 
L 1159 2956 
Q 1356 3278 1631 3431 
Q 1906 3584 2284 3584 
Q 2666 3584 2933 3390 
Q 3200 3197 3328 2828 
z
" transform="scale(0.015625)"/>
       <path id="DejaVuSans-70" d="M 1159 525 
L 1159 -1331 
L 581 -1331 
L 581 3500 
L 1159 3500 
L 1159 2969 
Q 1341 3281 1617 3432 
Q 1894 3584 2278 3584 
Q 2916 3584 3314 3078 
Q 3713 2572 3713 1747 
Q 3713 922 3314 415 
Q 2916 -91 2278 -91 
Q 1894 -91 1617 61 
Q 1341 213 1159 525 
z
M 3116 1747 
Q 3116 2381 2855 2742 
Q 2594 3103 2138 3103 
Q 1681 3103 1420 2742 
Q 1159 2381 1159 1747 
Q 1159 1113 1420 752 
Q 1681 391 2138 391 
Q 2594 391 2855 752 
Q 3116 1113 3116 1747 
z
" transform="scale(0.015625)"/>
       <path id="DejaVuSans-6c" d="M 603 4863 
L 1178 4863 
L 1178 0 
L 603 0 
L 603 4863 
z
" transform="scale(0.015625)"/>
       <path id="DejaVuSans-65" d="M 3597 1894 
L 3597 1613 
L 953 1613 
Q 991 1019 1311 708 
Q 1631 397 2203 397 
Q 2534 397 2845 478 
Q 3156 559 3463 722 
L 3463 178 
Q 3153 47 2828 -22 
Q 2503 -91 2169 -91 
Q 1331 -91 842 396 
Q 353 884 353 1716 
Q 353 2575 817 3079 
Q 1281 3584 2069 3584 
Q 2775 3584 3186 3129 
Q 3597 2675 3597 1894 
z
M 3022 2063 
Q 3016 2534 2758 2815 
Q 2500 3097 2075 3097 
Q 1594 3097 1305 2825 
Q 1016 2553 972 2059 
L 3022 2063 
z
" transform="scale(0.015625)"/>
       <path id="DejaVuSans-43" d="M 4122 4306 
L 4122 3641 
Q 3803 3938 3442 4084 
Q 3081 4231 2675 4231 
Q 1875 4231 1450 3742 
Q 1025 3253 1025 2328 
Q 1025 1406 1450 917 
Q 1875 428 2675 428 
Q 3081 428 3442 575 
Q 3803 722 4122 1019 
L 4122 359 
Q 3791 134 3420 21 
Q 3050 -91 2638 -91 
Q 1578 -91 968 557 
Q 359 1206 359 2328 
Q 359 3453 968 4101 
Q 1578 4750 2638 4750 
Q 3056 4750 3426 4639 
Q 3797 4528 4122 4306 
z
" transform="scale(0.015625)"/>
       <path id="DejaVuSans-6f" d="M 1959 3097 
Q 1497 3097 1228 2736 
Q 959 2375 959 1747 
Q 959 1119 1226 758 
Q 1494 397 1959 397 
Q 2419 397 2687 759 
Q 2956 1122 2956 1747 
Q 2956 2369 2687 2733 
Q 2419 3097 1959 3097 
z
M 1959 3584 
Q 2709 3584 3137 3096 
Q 3566 2609 3566 1747 
Q 3566 888 3137 398 
Q 2709 -91 1959 -91 
Q 1206 -91 779 398 
Q 353 888 353 1747 
Q 353 2609 779 3096 
Q 1206 3584 1959 3584 
z
" transform="scale(0.015625)"/>
       <path id="DejaVuSans-75" d="M 544 1381 
L 544 3500 
L 1119 3500 
L 1119 1403 
Q 1119 906 1312 657 
Q 1506 409 1894 409 
Q 2359 409 2629 706 
Q 2900 1003 2900 1516 
L 2900 3500 
L 3475 3500 
L 3475 0 
L 2900 0 
L 2900 538 
Q 2691 219 2414 64 
Q 2138 -91 1772 -91 
Q 1169 -91 856 284 
Q 544 659 544 1381 
z
M 1991 3584 
L 1991 3584 
z
" transform="scale(0.015625)"/>
       <path id="DejaVuSans-74" d="M 1172 4494 
L 1172 3500 
L 2356 3500 
L 2356 3053 
L 1172 3053 
L 1172 1153 
Q 1172 725 1289 603 
Q 1406 481 1766 481 
L 2356 481 
L 2356 0 
L 1766 0 
Q 1100 0 847 248 
Q 594 497 594 1153 
L 594 3053 
L 172 3053 
L 172 3500 
L 594 3500 
L 594 4494 
L 1172 4494 
z
" transform="scale(0.015625)"/>
      </defs>
      <use xlink:href="#DejaVuSans-54"/>
      <use xlink:href="#DejaVuSans-72" x="46.333984"/>
      <use xlink:href="#DejaVuSans-61" x="87.447266"/>
      <use xlink:href="#DejaVuSans-69" x="148.726562"/>
      <use xlink:href="#DejaVuSans-6e" x="176.509766"/>
      <use xlink:href="#DejaVuSans-20" x="239.888672"/>
      <use xlink:href="#DejaVuSans-53" x="271.675781"/>
      <use xlink:href="#DejaVuSans-61" x="335.152344"/>
      <use xlink:href="#DejaVuSans-6d" x="396.431641"/>
      <use xlink:href="#DejaVuSans-70" x="493.84375"/>
      <use xlink:href="#DejaVuSans-6c" x="557.320312"/>
      <use xlink:href="#DejaVuSans-65" x="585.103516"/>
      <use xlink:href="#DejaVuSans-20" x="646.626953"/>
      <use xlink:href="#DejaVuSans-43" x="678.414062"/>
      <use xlink:href="#DejaVuSans-6f" x="748.238281"/>
      <use xlink:href="#DejaVuSans-75" x="809.419922"/>
      <use xlink:href="#DejaVuSans-6e" x="872.798828"/>
      <use xlink:href="#DejaVuSans-74" x="936.177734"/>
     </g>
    </g>
   </g>
   <g id="matplotlib.axis_2">
    <g id="ytick_1">
     <g id="line2d_13">
      <path d="M 41.190688 290.360385 
L 398.310688 290.360385 
" clip-path="url(#pc8e192b9e7)" style="fill: none; stroke: #ffffff"/>
     </g>
     <g id="line2d_14">
      <path d="M 41.190688 290.360385 
" style="fill: none; stroke: #333333; stroke-width: 1.5"/>
      <defs>
       <path id="m2678b209ed" d="M 0 0 
L -2.75 0 
" style="stroke: #000000"/>
      </defs>
      <g>
       <use xlink:href="#m2678b209ed" x="41.190688" y="290.360385" style="fill: #333333; stroke: #000000"/>
      </g>
     </g>
     <g id="text_6">
      <!-- 0.6 -->
      <g style="fill: #4d4d4d" transform="translate(22.245938 292.788635)scale(0.088 -0.088)">
       <defs>
        <path id="DejaVuSans-2e" d="M 684 794 
L 1344 794 
L 1344 0 
L 684 0 
L 684 794 
z
" transform="scale(0.015625)"/>
        <path id="DejaVuSans-36" d="M 2113 2584 
Q 1688 2584 1439 2293 
Q 1191 2003 1191 1497 
Q 1191 994 1439 701 
Q 1688 409 2113 409 
Q 2538 409 2786 701 
Q 3034 994 3034 1497 
Q 3034 2003 2786 2293 
Q 2538 2584 2113 2584 
z
M 3366 4563 
L 3366 3988 
Q 3128 4100 2886 4159 
Q 2644 4219 2406 4219 
Q 1781 4219 1451 3797 
Q 1122 3375 1075 2522 
Q 1259 2794 1537 2939 
Q 1816 3084 2150 3084 
Q 2853 3084 3261 2657 
Q 3669 2231 3669 1497 
Q 3669 778 3244 343 
Q 2819 -91 2113 -91 
Q 1303 -91 875 529 
Q 447 1150 447 2328 
Q 447 3434 972 4092 
Q 1497 4750 2381 4750 
Q 2619 4750 2861 4703 
Q 3103 4656 3366 4563 
z
" transform="scale(0.015625)"/>
       </defs>
       <use xlink:href="#DejaVuSans-30"/>
       <use xlink:href="#DejaVuSans-2e" x="63.623047"/>
       <use xlink:href="#DejaVuSans-36" x="95.410156"/>
      </g>
     </g>
    </g>
    <g id="ytick_2">
     <g id="line2d_15">
      <path d="M 41.190688 210.875668 
L 398.310688 210.875668 
" clip-path="url(#pc8e192b9e7)" style="fill: none; stroke: #ffffff"/>
     </g>
     <g id="line2d_16">
      <path d="M 41.190688 210.875668 
" style="fill: none; stroke: #333333; stroke-width: 1.5"/>
      <g>
       <use xlink:href="#m2678b209ed" x="41.190688" y="210.875668" style="fill: #333333; stroke: #000000"/>
      </g>
     </g>
     <g id="text_7">
      <!-- 0.7 -->
      <g style="fill: #4d4d4d" transform="translate(22.245938 213.303918)scale(0.088 -0.088)">
       <defs>
        <path id="DejaVuSans-37" d="M 525 4666 
L 3525 4666 
L 3525 4397 
L 1831 0 
L 1172 0 
L 2766 4134 
L 525 4134 
L 525 4666 
z
" transform="scale(0.015625)"/>
       </defs>
       <use xlink:href="#DejaVuSans-30"/>
       <use xlink:href="#DejaVuSans-2e" x="63.623047"/>
       <use xlink:href="#DejaVuSans-37" x="95.410156"/>
      </g>
     </g>
    </g>
    <g id="ytick_3">
     <g id="line2d_17">
      <path d="M 41.190688 131.390951 
L 398.310688 131.390951 
" clip-path="url(#pc8e192b9e7)" style="fill: none; stroke: #ffffff"/>
     </g>
     <g id="line2d_18">
      <path d="M 41.190688 131.390951 
" style="fill: none; stroke: #333333; stroke-width: 1.5"/>
      <g>
       <use xlink:href="#m2678b209ed" x="41.190688" y="131.390951" style="fill: #333333; stroke: #000000"/>
      </g>
     </g>
     <g id="text_8">
      <!-- 0.8 -->
      <g style="fill: #4d4d4d" transform="translate(22.245938 133.819201)scale(0.088 -0.088)">
       <defs>
        <path id="DejaVuSans-38" d="M 2034 2216 
Q 1584 2216 1326 1975 
Q 1069 1734 1069 1313 
Q 1069 891 1326 650 
Q 1584 409 2034 409 
Q 2484 409 2743 651 
Q 3003 894 3003 1313 
Q 3003 1734 2745 1975 
Q 2488 2216 2034 2216 
z
M 1403 2484 
Q 997 2584 770 2862 
Q 544 3141 544 3541 
Q 544 4100 942 4425 
Q 1341 4750 2034 4750 
Q 2731 4750 3128 4425 
Q 3525 4100 3525 3541 
Q 3525 3141 3298 2862 
Q 3072 2584 2669 2484 
Q 3125 2378 3379 2068 
Q 3634 1759 3634 1313 
Q 3634 634 3220 271 
Q 2806 -91 2034 -91 
Q 1263 -91 848 271 
Q 434 634 434 1313 
Q 434 1759 690 2068 
Q 947 2378 1403 2484 
z
M 1172 3481 
Q 1172 3119 1398 2916 
Q 1625 2713 2034 2713 
Q 2441 2713 2670 2916 
Q 2900 3119 2900 3481 
Q 2900 3844 2670 4047 
Q 2441 4250 2034 4250 
Q 1625 4250 1398 4047 
Q 1172 3844 1172 3481 
z
" transform="scale(0.015625)"/>
       </defs>
       <use xlink:href="#DejaVuSans-30"/>
       <use xlink:href="#DejaVuSans-2e" x="63.623047"/>
       <use xlink:href="#DejaVuSans-38" x="95.410156"/>
      </g>
     </g>
    </g>
    <g id="ytick_4">
     <g id="line2d_19">
      <path d="M 41.190688 51.906235 
L 398.310688 51.906235 
" clip-path="url(#pc8e192b9e7)" style="fill: none; stroke: #ffffff"/>
     </g>
     <g id="line2d_20">
      <path d="M 41.190688 51.906235 
" style="fill: none; stroke: #333333; stroke-width: 1.5"/>
      <g>
       <use xlink:href="#m2678b209ed" x="41.190688" y="51.906235" style="fill: #333333; stroke: #000000"/>
      </g>
     </g>
     <g id="text_9">
      <!-- 0.9 -->
      <g style="fill: #4d4d4d" transform="translate(22.245938 54.334485)scale(0.088 -0.088)">
       <defs>
        <path id="DejaVuSans-39" d="M 703 97 
L 703 672 
Q 941 559 1184 500 
Q 1428 441 1663 441 
Q 2288 441 2617 861 
Q 2947 1281 2994 2138 
Q 2813 1869 2534 1725 
Q 2256 1581 1919 1581 
Q 1219 1581 811 2004 
Q 403 2428 403 3163 
Q 403 3881 828 4315 
Q 1253 4750 1959 4750 
Q 2769 4750 3195 4129 
Q 3622 3509 3622 2328 
Q 3622 1225 3098 567 
Q 2575 -91 1691 -91 
Q 1453 -91 1209 -44 
Q 966 3 703 97 
z
M 1959 2075 
Q 2384 2075 2632 2365 
Q 2881 2656 2881 3163 
Q 2881 3666 2632 3958 
Q 2384 4250 1959 4250 
Q 1534 4250 1286 3958 
Q 1038 3666 1038 3163 
Q 1038 2656 1286 2365 
Q 1534 2075 1959 2075 
z
" transform="scale(0.015625)"/>
       </defs>
       <use xlink:href="#DejaVuSans-30"/>
       <use xlink:href="#DejaVuSans-2e" x="63.623047"/>
       <use xlink:href="#DejaVuSans-39" x="95.410156"/>
      </g>
     </g>
    </g>
    <g id="ytick_5">
     <g id="line2d_21">
      <path d="M 41.190688 250.618027 
L 398.310688 250.618027 
" clip-path="url(#pc8e192b9e7)" style="fill: none; stroke: #ffffff; stroke-width: 0.5"/>
     </g>
    </g>
    <g id="ytick_6">
     <g id="line2d_22">
      <path d="M 41.190688 171.13331 
L 398.310688 171.13331 
" clip-path="url(#pc8e192b9e7)" style="fill: none; stroke: #ffffff; stroke-width: 0.5"/>
     </g>
    </g>
    <g id="ytick_7">
     <g id="line2d_23">
      <path d="M 41.190688 91.648593 
L 398.310688 91.648593 
" clip-path="url(#pc8e192b9e7)" style="fill: none; stroke: #ffffff; stroke-width: 0.5"/>
     </g>
    </g>
    <g id="text_10">
     <!-- Balanced Accuracy (Val Set) -->
     <g transform="translate(15.558281 234.774543)rotate(-90)scale(0.11 -0.11)">
      <defs>
       <path id="DejaVuSans-42" d="M 1259 2228 
L 1259 519 
L 2272 519 
Q 2781 519 3026 730 
Q 3272 941 3272 1375 
Q 3272 1813 3026 2020 
Q 2781 2228 2272 2228 
L 1259 2228 
z
M 1259 4147 
L 1259 2741 
L 2194 2741 
Q 2656 2741 2882 2914 
Q 3109 3088 3109 3444 
Q 3109 3797 2882 3972 
Q 2656 4147 2194 4147 
L 1259 4147 
z
M 628 4666 
L 2241 4666 
Q 2963 4666 3353 4366 
Q 3744 4066 3744 3513 
Q 3744 3084 3544 2831 
Q 3344 2578 2956 2516 
Q 3422 2416 3680 2098 
Q 3938 1781 3938 1306 
Q 3938 681 3513 340 
Q 3088 0 2303 0 
L 628 0 
L 628 4666 
z
" transform="scale(0.015625)"/>
       <path id="DejaVuSans-63" d="M 3122 3366 
L 3122 2828 
Q 2878 2963 2633 3030 
Q 2388 3097 2138 3097 
Q 1578 3097 1268 2742 
Q 959 2388 959 1747 
Q 959 1106 1268 751 
Q 1578 397 2138 397 
Q 2388 397 2633 464 
Q 2878 531 3122 666 
L 3122 134 
Q 2881 22 2623 -34 
Q 2366 -91 2075 -91 
Q 1284 -91 818 406 
Q 353 903 353 1747 
Q 353 2603 823 3093 
Q 1294 3584 2113 3584 
Q 2378 3584 2631 3529 
Q 2884 3475 3122 3366 
z
" transform="scale(0.015625)"/>
       <path id="DejaVuSans-64" d="M 2906 2969 
L 2906 4863 
L 3481 4863 
L 3481 0 
L 2906 0 
L 2906 525 
Q 2725 213 2448 61 
Q 2172 -91 1784 -91 
Q 1150 -91 751 415 
Q 353 922 353 1747 
Q 353 2572 751 3078 
Q 1150 3584 1784 3584 
Q 2172 3584 2448 3432 
Q 2725 3281 2906 2969 
z
M 947 1747 
Q 947 1113 1208 752 
Q 1469 391 1925 391 
Q 2381 391 2643 752 
Q 2906 1113 2906 1747 
Q 2906 2381 2643 2742 
Q 2381 3103 1925 3103 
Q 1469 3103 1208 2742 
Q 947 2381 947 1747 
z
" transform="scale(0.015625)"/>
       <path id="DejaVuSans-41" d="M 2188 4044 
L 1331 1722 
L 3047 1722 
L 2188 4044 
z
M 1831 4666 
L 2547 4666 
L 4325 0 
L 3669 0 
L 3244 1197 
L 1141 1197 
L 716 0 
L 50 0 
L 1831 4666 
z
" transform="scale(0.015625)"/>
       <path id="DejaVuSans-79" d="M 2059 -325 
Q 1816 -950 1584 -1140 
Q 1353 -1331 966 -1331 
L 506 -1331 
L 506 -850 
L 844 -850 
Q 1081 -850 1212 -737 
Q 1344 -625 1503 -206 
L 1606 56 
L 191 3500 
L 800 3500 
L 1894 763 
L 2988 3500 
L 3597 3500 
L 2059 -325 
z
" transform="scale(0.015625)"/>
       <path id="DejaVuSans-28" d="M 1984 4856 
Q 1566 4138 1362 3434 
Q 1159 2731 1159 2009 
Q 1159 1288 1364 580 
Q 1569 -128 1984 -844 
L 1484 -844 
Q 1016 -109 783 600 
Q 550 1309 550 2009 
Q 550 2706 781 3412 
Q 1013 4119 1484 4856 
L 1984 4856 
z
" transform="scale(0.015625)"/>
       <path id="DejaVuSans-56" d="M 1831 0 
L 50 4666 
L 709 4666 
L 2188 738 
L 3669 4666 
L 4325 4666 
L 2547 0 
L 1831 0 
z
" transform="scale(0.015625)"/>
       <path id="DejaVuSans-29" d="M 513 4856 
L 1013 4856 
Q 1481 4119 1714 3412 
Q 1947 2706 1947 2009 
Q 1947 1309 1714 600 
Q 1481 -109 1013 -844 
L 513 -844 
Q 928 -128 1133 580 
Q 1338 1288 1338 2009 
Q 1338 2731 1133 3434 
Q 928 4138 513 4856 
z
" transform="scale(0.015625)"/>
      </defs>
      <use xlink:href="#DejaVuSans-42"/>
      <use xlink:href="#DejaVuSans-61" x="68.603516"/>
      <use xlink:href="#DejaVuSans-6c" x="129.882812"/>
      <use xlink:href="#DejaVuSans-61" x="157.666016"/>
      <use xlink:href="#DejaVuSans-6e" x="218.945312"/>
      <use xlink:href="#DejaVuSans-63" x="282.324219"/>
      <use xlink:href="#DejaVuSans-65" x="337.304688"/>
      <use xlink:href="#DejaVuSans-64" x="398.828125"/>
      <use xlink:href="#DejaVuSans-20" x="462.304688"/>
      <use xlink:href="#DejaVuSans-41" x="494.091797"/>
      <use xlink:href="#DejaVuSans-63" x="560.75"/>
      <use xlink:href="#DejaVuSans-63" x="615.730469"/>
      <use xlink:href="#DejaVuSans-75" x="670.710938"/>
      <use xlink:href="#DejaVuSans-72" x="734.089844"/>
      <use xlink:href="#DejaVuSans-61" x="775.203125"/>
      <use xlink:href="#DejaVuSans-63" x="836.482422"/>
      <use xlink:href="#DejaVuSans-79" x="891.462891"/>
      <use xlink:href="#DejaVuSans-20" x="950.642578"/>
      <use xlink:href="#DejaVuSans-28" x="982.429688"/>
      <use xlink:href="#DejaVuSans-56" x="1021.443359"/>
      <use xlink:href="#DejaVuSans-61" x="1082.101562"/>
      <use xlink:href="#DejaVuSans-6c" x="1143.380859"/>
      <use xlink:href="#DejaVuSans-20" x="1171.164062"/>
      <use xlink:href="#DejaVuSans-53" x="1202.951172"/>
      <use xlink:href="#DejaVuSans-65" x="1266.427734"/>
      <use xlink:href="#DejaVuSans-74" x="1327.951172"/>
      <use xlink:href="#DejaVuSans-29" x="1367.160156"/>
     </g>
    </g>
   </g>
   <g id="PolyCollection_1">
    <path d="M 57.423415 235.663778 
L 57.423415 280.121371 
L 58.194481 277.669423 
L 58.481389 276.761927 
L 58.786229 275.800606 
L 59.144864 274.673463 
L 59.431772 273.77473 
L 59.467636 273.662575 
L 59.646953 273.102423 
L 59.951793 272.152547 
L 60.113179 271.650888 
L 60.274565 271.150072 
L 60.364224 270.872206 
L 61.045631 268.768948 
L 61.24288 268.162927 
L 61.54772 267.228844 
L 88.92952 196.196369 
L 90.471652 192.965022 
L 91.045468 191.783049 
L 91.637216 190.575638 
L 92.354487 189.128763 
L 92.946235 187.94941 
L 93.00003 187.842832 
L 93.358665 187.134999 
L 93.968345 185.942333 
L 94.309049 185.281628 
L 94.63182 184.659488 
L 94.793206 184.349792 
L 96.173952 181.737114 
L 96.550519 181.03588 
L 97.160199 179.910645 
L 120.435625 144.651322 
L 122.730891 141.816029 
L 123.591615 140.775228 
L 124.488204 139.703485 
L 125.582041 138.412565 
L 126.460697 137.388372 
L 126.532424 137.305255 
L 127.070377 136.684191 
L 127.984897 135.649586 
L 128.486986 135.096439 
L 128.989076 134.553618 
L 129.222189 134.305059 
L 131.284341 132.199142 
L 131.858158 131.641943 
L 132.772677 130.778857 
L 151.941731 118.149976 
L 155.008062 116.73718 
L 156.155695 116.22113 
L 157.339191 115.691614 
L 158.791664 115.040873 
L 159.957228 114.514268 
L 160.08275 114.457179 
L 160.782089 114.137406 
L 162.001449 113.571371 
L 162.682856 113.249279 
L 163.346331 112.930948 
L 163.651171 112.782974 
L 166.412662 111.584085 
L 167.165796 111.306567 
L 168.385156 110.900524 
L 183.447836 109.694235 
L 187.285233 110.211111 
L 188.701842 110.437905 
L 190.190178 110.683719 
L 192.019218 110.981884 
L 193.471691 111.203504 
L 193.615145 111.224234 
L 194.511733 111.347777 
L 196.018001 111.52672 
L 196.860794 111.607505 
L 197.703586 111.671794 
L 198.080153 111.694637 
L 201.523052 111.699646 
L 202.473435 111.624908 
L 203.997635 111.423763 
L 214.936009 109.382477 
L 219.544472 108.521483 
L 221.265921 108.222093 
L 223.041166 107.931211 
L 225.228841 107.601713 
L 226.986153 107.36257 
L 227.147539 107.3418 
L 228.223445 107.208539 
L 230.034553 107.004705 
L 231.056663 106.900851 
L 232.060842 106.806402 
L 232.509136 106.766578 
L 236.651373 106.458451 
L 237.781074 106.389561 
L 239.610114 106.286731 
L 246.442115 105.90104 
L 251.821643 105.42338 
L 253.812069 105.168102 
L 255.892153 104.841727 
L 258.438463 104.369147 
L 260.482684 103.948646 
L 260.697865 103.902563 
L 261.935157 103.631698 
L 264.051105 103.148616 
L 265.234601 102.869796 
L 266.418097 102.586371 
L 266.938118 102.460685 
L 271.761762 101.279539 
L 273.088713 100.954823 
L 275.222592 100.437326 
L 277.94822 99.788532 
L 284.080883 98.388455 
L 286.376148 97.882894 
L 288.743141 97.367891 
L 291.666018 96.735574 
L 293.997147 96.230325 
L 294.23026 96.179652 
L 295.646869 95.870987 
L 298.067657 95.342099 
L 299.430471 95.044478 
L 300.775353 94.75128 
L 301.367101 94.622522 
L 306.890083 93.434709 
L 308.396351 93.117425 
L 309.454325 92.896956 
L 310.835071 92.612633 
L 316.358054 91.524982 
L 318.922296 91.054777 
L 321.594128 90.594812 
L 324.87564 90.079577 
L 327.511609 89.71203 
L 327.762654 89.679408 
L 329.358581 89.482402 
L 332.084209 89.190257 
L 333.608408 89.053254 
L 335.132608 88.936569 
L 335.796083 88.892402 
L 340.960431 88.699023 
L 342.000473 88.694021 
L 343.70399 88.71147 
L 346.44755 88.807767 
L 348.635225 88.945705 
L 351.486375 89.207377 
L 354.463047 89.578963 
L 358.103195 90.16765 
L 361.026072 90.744461 
L 361.31298 90.805963 
L 363.088225 91.205556 
L 366.100761 91.957166 
L 367.804278 92.422021 
L 369.489864 92.909529 
L 370.242998 93.136046 
L 377.128794 95.445934 
L 379.029561 96.156253 
L 382.07796 97.357786 
L 382.07796 38.201371 
L 382.07796 38.201371 
L 379.029561 40.392502 
L 377.128794 41.721105 
L 370.242998 46.279685 
L 369.489864 46.753065 
L 367.804278 47.793775 
L 366.100761 48.81873 
L 363.088225 50.563438 
L 361.31298 51.549877 
L 361.026072 51.70634 
L 358.103195 53.25248 
L 354.463047 55.05345 
L 351.486375 56.420784 
L 348.635225 57.640144 
L 346.44755 58.51563 
L 343.70399 59.540349 
L 342.000473 60.136273 
L 340.960431 60.48522 
L 335.796083 62.058392 
L 335.132608 62.242289 
L 333.608408 62.650433 
L 332.084209 63.039459 
L 329.358581 63.690779 
L 327.762654 64.047746 
L 327.511609 64.102364 
L 324.87564 64.652348 
L 321.594128 65.282857 
L 318.922296 65.758245 
L 316.358054 66.187492 
L 310.835071 67.041598 
L 309.454325 67.243409 
L 308.396351 67.395561 
L 306.890083 67.608937 
L 301.367101 68.367461 
L 300.775353 68.447214 
L 299.430471 68.62783 
L 298.067657 68.810201 
L 295.646869 69.133445 
L 294.23026 69.329843 
L 293.997147 69.363515 
L 291.666018 69.719477 
L 288.743141 70.207695 
L 286.376148 70.627717 
L 284.080883 71.047678 
L 277.94822 72.178733 
L 275.222592 72.666318 
L 273.088713 73.036716 
L 271.761762 73.261688 
L 266.938118 74.048507 
L 266.418097 74.131065 
L 265.234601 74.317958 
L 264.051105 74.503963 
L 261.935157 74.836404 
L 260.697865 75.032083 
L 260.482684 75.066294 
L 258.438463 75.395179 
L 255.892153 75.818808 
L 253.812069 76.18236 
L 251.821643 76.544922 
L 246.442115 77.556969 
L 239.610114 78.769883 
L 237.781074 79.055423 
L 236.651373 79.220419 
L 232.509136 79.741969 
L 232.060842 79.790159 
L 231.056663 79.892191 
L 230.034553 79.987747 
L 228.223445 80.137238 
L 227.147539 80.214744 
L 226.986153 80.225689 
L 225.228841 80.334306 
L 223.041166 80.446489 
L 221.265921 80.524068 
L 219.544472 80.593048 
L 214.936009 80.78898 
L 203.997635 81.881369 
L 202.473435 82.120352 
L 201.523052 82.246567 
L 198.080153 82.568867 
L 197.703586 82.592107 
L 196.860794 82.636081 
L 196.018001 82.669272 
L 194.511733 82.703015 
L 193.615145 82.70835 
L 193.471691 82.708228 
L 192.019218 82.692609 
L 190.190178 82.638617 
L 188.701842 82.570224 
L 187.285233 82.48838 
L 183.447836 82.216296 
L 168.385156 82.577936 
L 167.165796 82.900365 
L 166.412662 83.135295 
L 163.651171 84.255564 
L 163.346331 84.403106 
L 162.682856 84.7233 
L 162.001449 85.051098 
L 160.782089 85.636096 
L 160.08275 85.97131 
L 159.957228 86.031492 
L 158.791664 86.591058 
L 157.339191 87.2921 
L 156.155695 87.868522 
L 155.008062 88.433801 
L 151.941731 89.988029 
L 132.772677 103.454785 
L 131.858158 104.37433 
L 131.284341 104.969459 
L 129.222189 107.229588 
L 128.989076 107.497482 
L 128.486986 108.083339 
L 127.984897 108.681467 
L 127.070377 109.803128 
L 126.532424 110.477364 
L 126.460697 110.567567 
L 125.582041 111.678452 
L 124.488204 113.076832 
L 123.591615 114.236066 
L 122.730891 115.360168 
L 120.435625 118.412936 
L 97.160199 154.473721 
L 96.550519 155.55321 
L 96.173952 156.223539 
L 94.793206 158.704895 
L 94.63182 158.997335 
L 94.309049 159.583732 
L 93.968345 160.204902 
L 93.358665 161.322098 
L 93.00003 161.982649 
L 92.946235 162.081948 
L 92.354487 163.177952 
L 91.637216 164.515591 
L 91.045468 165.62577 
L 90.471652 166.70701 
L 88.92952 169.635261 
L 61.54772 226.36067 
L 61.24288 227.041163 
L 61.045631 227.482083 
L 60.364224 229.008905 
L 60.274565 229.210224 
L 60.113179 229.572847 
L 59.951793 229.935788 
L 59.646953 230.622215 
L 59.467636 231.026528 
L 59.431772 231.107438 
L 59.144864 231.755289 
L 58.786229 232.56653 
L 58.481389 233.257334 
L 58.194481 233.908555 
L 57.423415 235.663778 
z
" clip-path="url(#pc8e192b9e7)" style="fill: #999999; fill-opacity: 0.4"/>
   </g>
   <g id="line2d_24">
    <path d="M 57.423415 257.892574 
L 61.54772 246.794757 
L 88.92952 182.915815 
L 93.968345 173.073617 
L 97.160199 167.192183 
L 120.435625 131.532129 
L 126.532424 123.891309 
L 129.222189 120.767323 
L 132.772677 117.116821 
L 151.941731 104.069003 
L 163.651171 98.519269 
L 167.165796 97.103466 
L 168.385156 96.73923 
L 183.447836 95.955266 
L 194.511733 97.025396 
L 198.080153 97.131752 
L 202.473435 96.87263 
L 214.936009 95.085728 
L 228.223445 93.672889 
L 239.610114 92.528307 
L 246.442115 91.729005 
L 255.892153 90.330267 
L 265.234601 88.593877 
L 277.94822 85.983632 
L 291.666018 83.227526 
L 306.890083 80.521823 
L 346.44755 73.661698 
L 379.029561 68.274378 
L 382.07796 67.779578 
L 382.07796 67.779578 
" clip-path="url(#pc8e192b9e7)" style="fill: none; stroke: #db5f57; stroke-width: 1.772454; stroke-linejoin: miter"/>
   </g>
   <g id="PolyCollection_2">
    <path d="M 57.423415 226.523686 
L 57.423415 272.292476 
L 58.194481 270.4673 
L 58.481389 269.791719 
L 58.786229 269.076032 
L 59.144864 268.236849 
L 59.431772 267.567687 
L 59.467636 267.484178 
L 59.646953 267.067092 
L 59.951793 266.359793 
L 60.113179 265.986233 
L 60.274565 265.613291 
L 60.364224 265.406369 
L 61.045631 263.840018 
L 61.24288 263.38867 
L 61.54772 262.692963 
L 88.92952 209.720074 
L 90.471652 207.303427 
L 91.045468 206.41892 
L 91.637216 205.515036 
L 92.354487 204.430977 
L 92.946235 203.546318 
L 93.00003 203.466324 
L 93.358665 202.93485 
L 93.968345 202.038538 
L 94.309049 201.541563 
L 94.63182 201.073302 
L 94.793206 200.840099 
L 96.173952 198.869803 
L 96.550519 198.340066 
L 97.160199 197.489184 
L 120.435625 170.144526 
L 122.730891 167.876908 
L 123.591615 167.041836 
L 124.488204 166.18049 
L 125.582041 165.141095 
L 126.460697 164.31503 
L 126.532424 164.247937 
L 127.070377 163.746361 
L 127.984897 162.903776 
L 128.486986 162.447639 
L 128.989076 161.996016 
L 129.222189 161.787855 
L 131.284341 159.987714 
L 131.858158 159.499788 
L 132.772677 158.733632 
L 151.941731 145.566482 
L 155.008062 143.857474 
L 156.155695 143.233079 
L 157.339191 142.595546 
L 158.791664 141.819602 
L 159.957228 141.200164 
L 160.08275 141.133552 
L 160.782089 140.762577 
L 162.001449 140.115544 
L 162.682856 139.753283 
L 163.346331 139.399699 
L 163.651171 139.236878 
L 166.412662 137.850219 
L 167.165796 137.502746 
L 168.385156 136.967797 
L 183.447836 133.082364 
L 187.285233 132.770268 
L 188.701842 132.693636 
L 190.190178 132.625447 
L 192.019218 132.547636 
L 193.471691 132.480981 
L 193.615145 132.47382 
L 194.511733 132.425663 
L 196.018001 132.327321 
L 196.860794 132.25977 
L 197.703586 132.181105 
L 198.080153 132.141918 
L 201.523052 131.639246 
L 202.473435 131.445419 
L 203.997635 131.074739 
L 214.936009 127.703733 
L 219.544472 126.200651 
L 221.265921 125.656648 
L 223.041166 125.112823 
L 225.228841 124.47262 
L 226.986153 123.986246 
L 227.147539 123.942925 
L 228.223445 123.660138 
L 230.034553 123.208392 
L 231.056663 122.967145 
L 232.060842 122.739764 
L 232.509136 122.64131 
L 236.651373 121.816014 
L 237.781074 121.61494 
L 239.610114 121.307439 
L 246.442115 120.278113 
L 251.821643 119.457197 
L 253.812069 119.11804 
L 255.892153 118.731463 
L 258.438463 118.221365 
L 260.482684 117.795972 
L 260.697865 117.750612 
L 261.935157 117.488308 
L 264.051105 117.036487 
L 265.234601 116.783785 
L 266.418097 116.5323 
L 266.938118 116.422416 
L 271.761762 115.434209 
L 273.088713 115.175603 
L 275.222592 114.774322 
L 277.94822 114.289144 
L 284.080883 113.299984 
L 286.376148 112.956241 
L 288.743141 112.608633 
L 291.666018 112.179722 
L 293.997147 111.830888 
L 294.23026 111.795461 
L 295.646869 111.577593 
L 298.067657 111.205675 
L 299.430471 111.000603 
L 300.775353 110.80171 
L 301.367101 110.715388 
L 306.890083 109.951711 
L 308.396351 109.759016 
L 309.454325 109.628373 
L 310.835071 109.464178 
L 316.358054 108.89034 
L 318.922296 108.677149 
L 321.594128 108.49771 
L 324.87564 108.345118 
L 327.511609 108.283604 
L 327.762654 108.280821 
L 329.358581 108.27636 
L 332.084209 108.324557 
L 333.608408 108.384282 
L 335.132608 108.468977 
L 335.796083 108.513934 
L 340.960431 109.044368 
L 342.000473 109.191625 
L 343.70399 109.463202 
L 346.44755 109.981202 
L 348.635225 110.466426 
L 351.486375 111.195426 
L 354.463047 112.072699 
L 358.103195 113.30446 
L 361.026072 114.417235 
L 361.31298 114.532286 
L 363.088225 115.266939 
L 366.100761 116.601783 
L 367.804278 117.404582 
L 369.489864 118.232246 
L 370.242998 118.6126 
L 377.128794 122.381838 
L 379.029561 123.511717 
L 382.07796 125.401169 
L 382.07796 64.500042 
L 382.07796 64.500042 
L 379.029561 66.103315 
L 377.128794 67.072493 
L 370.242998 70.374294 
L 369.489864 70.714479 
L 367.804278 71.460105 
L 366.100761 72.191057 
L 363.088225 73.426154 
L 361.31298 74.118412 
L 361.026072 74.227755 
L 358.103195 75.300544 
L 354.463047 76.528919 
L 351.486375 77.441851 
L 348.635225 78.237564 
L 346.44755 78.795653 
L 343.70399 79.431731 
L 342.000473 79.791617 
L 340.960431 79.99845 
L 335.796083 80.888504 
L 335.132608 80.987398 
L 333.608408 81.202757 
L 332.084209 81.402488 
L 329.358581 81.72406 
L 327.762654 81.8932 
L 327.511609 81.918627 
L 324.87564 82.167959 
L 321.594128 82.439224 
L 318.922296 82.634541 
L 316.358054 82.805567 
L 310.835071 83.138971 
L 309.454325 83.218221 
L 308.396351 83.278532 
L 306.890083 83.364254 
L 301.367101 83.685981 
L 300.775353 83.721853 
L 299.430471 83.804843 
L 298.067657 83.891267 
L 295.646869 84.051474 
L 294.23026 84.153766 
L 293.997147 84.171689 
L 291.666018 84.366834 
L 288.743141 84.647395 
L 286.376148 84.897222 
L 284.080883 85.15284 
L 277.94822 85.865043 
L 275.222592 86.184258 
L 273.088713 86.434101 
L 271.761762 86.590021 
L 266.938118 87.172272 
L 266.418097 87.237756 
L 265.234601 87.389862 
L 264.051105 87.547012 
L 261.935157 87.843748 
L 260.697865 88.02865 
L 260.482684 88.061787 
L 258.438463 88.392862 
L 255.892153 88.852565 
L 253.812069 89.277416 
L 251.821643 89.727021 
L 246.442115 91.098085 
L 239.610114 92.979031 
L 237.781074 93.474632 
L 236.651373 93.774645 
L 232.509136 94.819658 
L 232.060842 94.926725 
L 231.056663 95.161913 
L 230.034553 95.394618 
L 228.223445 95.790419 
L 227.147539 96.015806 
L 226.986153 96.049012 
L 225.228841 96.401011 
L 223.041166 96.817489 
L 221.265921 97.141719 
L 219.544472 97.448517 
L 214.936009 98.266923 
L 203.997635 100.661046 
L 202.473435 101.070678 
L 201.523052 101.317502 
L 198.080153 102.157136 
L 197.703586 102.243765 
L 196.860794 102.433886 
L 196.018001 102.618774 
L 194.511733 102.936075 
L 193.615145 103.116911 
L 193.471691 103.145289 
L 192.019218 103.42402 
L 190.190178 103.753205 
L 188.701842 104.004048 
L 187.285233 104.229905 
L 183.447836 104.794012 
L 168.385156 107.809885 
L 167.165796 108.258754 
L 166.412662 108.562384 
L 163.651171 109.868104 
L 163.346331 110.03048 
L 162.682856 110.385981 
L 162.001449 110.754117 
L 160.782089 111.420673 
L 160.08275 111.807543 
L 159.957228 111.87734 
L 158.791664 112.530711 
L 157.339191 113.358439 
L 156.155695 114.044262 
L 155.008062 114.719338 
L 151.941731 116.573949 
L 132.772677 130.603686 
L 131.858158 131.427965 
L 131.284341 131.954939 
L 129.222189 133.913841 
L 128.989076 134.141907 
L 128.486986 134.637837 
L 127.984897 135.140281 
L 127.070377 136.07249 
L 126.532424 136.628805 
L 126.460697 136.703193 
L 125.582041 137.618508 
L 124.488204 138.768532 
L 123.591615 139.719949 
L 122.730891 140.640779 
L 120.435625 143.132286 
L 97.160199 171.302043 
L 96.550519 172.105829 
L 96.173952 172.603751 
L 94.793206 174.438851 
L 94.63182 174.654291 
L 94.309049 175.085754 
L 93.968345 175.542027 
L 93.358665 176.360644 
L 93.00003 176.843442 
L 92.946235 176.915942 
L 92.354487 177.714794 
L 91.637216 178.686395 
L 91.045468 179.490179 
L 90.471652 180.270982 
L 88.92952 182.375594 
L 61.54772 220.619455 
L 61.24288 221.054093 
L 61.045631 221.335472 
L 60.364224 222.308386 
L 60.274565 222.436503 
L 60.113179 222.667176 
L 59.951793 222.897927 
L 59.646953 223.334007 
L 59.467636 223.590657 
L 59.431772 223.642 
L 59.144864 224.052881 
L 58.786229 224.566845 
L 58.481389 225.004037 
L 58.194481 225.415784 
L 57.423415 226.523686 
z
" clip-path="url(#pc8e192b9e7)" style="fill: #999999; fill-opacity: 0.4"/>
   </g>
   <g id="line2d_25">
    <path d="M 57.423415 249.408081 
L 61.54772 241.656209 
L 88.92952 196.047834 
L 94.793206 187.639475 
L 97.160199 184.395614 
L 120.435625 156.638406 
L 127.070377 149.909425 
L 131.284341 145.971327 
L 132.772677 144.668659 
L 151.941731 131.070216 
L 159.957228 126.538752 
L 163.651171 124.552491 
L 167.165796 122.88075 
L 168.385156 122.388841 
L 183.447836 118.938188 
L 197.703586 117.212435 
L 201.523052 116.478374 
L 203.997635 115.867892 
L 221.265921 111.399184 
L 232.509136 108.730484 
L 246.442115 105.688099 
L 260.697865 102.889631 
L 266.938118 101.797344 
L 277.94822 100.077093 
L 291.666018 98.273278 
L 301.367101 97.200684 
L 310.835071 96.301575 
L 324.87564 95.256539 
L 335.796083 94.701219 
L 348.635225 94.351995 
L 358.103195 94.302502 
L 370.242998 94.493447 
L 382.07796 94.950605 
L 382.07796 94.950605 
" clip-path="url(#pc8e192b9e7)" style="fill: none; stroke: #91db57; stroke-width: 1.772454; stroke-linejoin: miter"/>
   </g>
   <g id="PolyCollection_3">
    <path d="M 57.423415 210.124836 
L 57.423415 246.274317 
L 58.194481 244.470438 
L 58.481389 243.80258 
L 58.786229 243.09498 
L 59.144864 242.265149 
L 59.431772 241.603344 
L 59.467636 241.520747 
L 59.646953 241.108193 
L 59.951793 240.408496 
L 60.113179 240.038909 
L 60.274565 239.669903 
L 60.364224 239.465152 
L 61.045631 237.914933 
L 61.24288 237.468131 
L 61.54772 236.779341 
L 88.92952 183.787476 
L 90.471652 181.330438 
L 91.045468 180.429976 
L 91.637216 179.509132 
L 92.354487 178.403897 
L 92.946235 177.50131 
L 93.00003 177.419667 
L 93.358665 176.877111 
L 93.968345 175.961637 
L 94.309049 175.453782 
L 94.63182 174.975103 
L 94.793206 174.73665 
L 96.173952 172.720413 
L 96.550519 172.17784 
L 97.160199 171.305916 
L 120.435625 143.05071 
L 122.730891 140.693932 
L 123.591615 139.825857 
L 124.488204 138.930407 
L 125.582041 137.849803 
L 126.460697 136.990968 
L 126.532424 136.921213 
L 127.070377 136.399741 
L 127.984897 135.525869 
L 128.486986 135.05458 
L 128.989076 134.589196 
L 129.222189 134.375108 
L 131.284341 132.534653 
L 131.858158 132.03916 
L 132.772677 131.263975 
L 151.941731 118.353244 
L 155.008062 116.691798 
L 156.155695 116.081472 
L 157.339191 115.455894 
L 158.791664 114.690689 
L 159.957228 114.076432 
L 160.08275 114.010184 
L 160.782089 113.640518 
L 162.001449 112.992724 
L 162.682856 112.628268 
L 163.346331 112.271269 
L 163.651171 112.106442 
L 166.412662 110.677836 
L 167.165796 110.311363 
L 168.385156 109.739065 
L 183.447836 104.822648 
L 187.285233 104.134956 
L 188.701842 103.917564 
L 190.190178 103.702961 
L 192.019218 103.450228 
L 193.471691 103.251055 
L 193.615145 103.231201 
L 194.511733 103.105585 
L 196.018001 102.885456 
L 196.860794 102.755083 
L 197.703586 102.617948 
L 198.080153 102.554156 
L 201.523052 101.877282 
L 202.473435 101.653815 
L 203.997635 101.254823 
L 214.936009 98.136936 
L 219.544472 96.900355 
L 221.265921 96.469969 
L 223.041166 96.048755 
L 225.228841 95.564967 
L 226.986153 95.206838 
L 227.147539 95.175363 
L 228.223445 94.971712 
L 230.034553 94.653351 
L 231.056663 94.487186 
L 232.060842 94.333269 
L 232.509136 94.267486 
L 236.651373 93.73924 
L 237.781074 93.617465 
L 239.610114 93.436782 
L 246.442115 92.868318 
L 251.821643 92.406797 
L 253.812069 92.202442 
L 255.892153 91.958585 
L 258.438463 91.635823 
L 260.482684 91.375304 
L 260.697865 91.347944 
L 261.935157 91.19123 
L 264.051105 90.9271 
L 265.234601 90.782497 
L 266.418097 90.640798 
L 266.938118 90.579578 
L 271.761762 90.048388 
L 273.088713 89.91528 
L 275.222592 89.713619 
L 277.94822 89.477287 
L 284.080883 89.010841 
L 286.376148 88.8465 
L 288.743141 88.673553 
L 291.666018 88.445008 
L 293.997147 88.243114 
L 294.23026 88.221722 
L 295.646869 88.086431 
L 298.067657 87.852122 
L 299.430471 87.724809 
L 300.775353 87.602663 
L 301.367101 87.550073 
L 306.890083 87.097342 
L 308.396351 86.98729 
L 309.454325 86.913874 
L 310.835071 86.823174 
L 316.358054 86.525802 
L 318.922296 86.428678 
L 321.594128 86.359649 
L 324.87564 86.325348 
L 327.511609 86.342853 
L 327.762654 86.346778 
L 329.358581 86.381413 
L 332.084209 86.481293 
L 333.608408 86.560982 
L 335.132608 86.658779 
L 335.796083 86.707205 
L 340.960431 87.218846 
L 342.000473 87.352281 
L 343.70399 87.593764 
L 346.44755 88.043646 
L 348.635225 88.457076 
L 351.486375 89.069268 
L 354.463047 89.796802 
L 358.103195 90.80764 
L 361.026072 91.713741 
L 361.31298 91.807132 
L 363.088225 92.402403 
L 366.100761 93.480028 
L 367.804278 94.12615 
L 369.489864 94.791018 
L 370.242998 95.09618 
L 377.128794 98.110448 
L 379.029561 99.011364 
L 382.07796 100.51597 
L 382.07796 52.414542 
L 382.07796 52.414542 
L 379.029561 53.668588 
L 377.128794 54.425567 
L 370.242998 56.996205 
L 369.489864 57.260146 
L 367.804278 57.837907 
L 366.100761 58.403184 
L 363.088225 59.355371 
L 361.31298 59.887114 
L 361.026072 59.970956 
L 358.103195 60.791075 
L 354.463047 61.723321 
L 351.486375 62.409742 
L 348.635225 63.001811 
L 346.44755 63.412419 
L 343.70399 63.874061 
L 342.000473 64.131325 
L 340.960431 64.277561 
L 335.796083 64.887861 
L 335.132608 64.953052 
L 333.608408 65.092247 
L 332.084209 65.217483 
L 329.358581 65.409657 
L 327.762654 65.50509 
L 327.511609 65.51905 
L 324.87564 65.649889 
L 321.594128 65.777921 
L 318.922296 65.859491 
L 316.358054 65.923313 
L 310.835071 66.030784 
L 309.454325 66.054391 
L 308.396351 66.072257 
L 306.890083 66.097819 
L 301.367101 66.201485 
L 300.775353 66.214229 
L 299.430471 66.244831 
L 298.067657 66.278432 
L 295.646869 66.345526 
L 294.23026 66.389531 
L 293.997147 66.397099 
L 291.666018 66.477604 
L 288.743141 66.588978 
L 286.376148 66.684695 
L 284.080883 66.779433 
L 277.94822 67.027131 
L 275.222592 67.13238 
L 273.088713 67.214431 
L 271.761762 67.266435 
L 266.938118 67.476989 
L 266.418097 67.503141 
L 265.234601 67.566347 
L 264.051105 67.635481 
L 261.935157 67.777121 
L 260.697865 67.8727 
L 260.482684 67.890406 
L 258.438463 68.076429 
L 255.892153 68.359388 
L 253.812069 68.633476 
L 251.821643 68.925065 
L 246.442115 69.821109 
L 239.610114 71.062206 
L 237.781074 71.391455 
L 236.651373 71.591376 
L 232.509136 72.293161 
L 232.060842 72.365746 
L 231.056663 72.525829 
L 230.034553 72.685247 
L 228.223445 72.959422 
L 227.147539 73.117737 
L 226.986153 73.141222 
L 225.228841 73.393218 
L 223.041166 73.700301 
L 221.265921 73.948074 
L 219.544472 74.191109 
L 214.936009 74.886913 
L 203.997635 77.23323 
L 202.473435 77.662988 
L 201.523052 77.928313 
L 198.080153 78.871329 
L 197.703586 78.972593 
L 196.860794 79.197758 
L 196.018001 79.420808 
L 194.511733 79.813876 
L 193.615145 80.044286 
L 193.471691 80.080898 
L 192.019218 80.447574 
L 190.190178 80.89885 
L 188.701842 81.257718 
L 187.285233 81.592972 
L 183.447836 82.47971 
L 168.385156 86.709324 
L 167.165796 87.213633 
L 166.412662 87.545477 
L 163.651171 88.910156 
L 163.346331 89.07463 
L 162.682856 89.433145 
L 162.001449 89.802241 
L 160.782089 90.465454 
L 160.08275 90.847676 
L 159.957228 90.916439 
L 158.791664 91.557497 
L 157.339191 92.363602 
L 156.155695 93.027321 
L 155.008062 93.677676 
L 151.941731 95.454124 
L 132.772677 109.04615 
L 131.858158 109.867243 
L 131.284341 110.393577 
L 129.222189 112.359426 
L 128.989076 112.589235 
L 128.486986 113.089614 
L 127.984897 113.597477 
L 127.070377 114.542137 
L 126.532424 115.106844 
L 126.460697 115.18236 
L 125.582041 116.111688 
L 124.488204 117.27967 
L 123.591615 118.24626 
L 122.730891 119.182069 
L 120.435625 121.71568 
L 97.160199 150.622574 
L 96.550519 151.4573 
L 96.173952 151.974744 
L 94.793206 153.8842 
L 94.63182 154.108622 
L 94.309049 154.558238 
L 93.968345 155.033946 
L 93.358665 155.888054 
L 93.00003 156.392164 
L 92.946235 156.467888 
L 92.354487 157.302702 
L 91.637216 158.319114 
L 91.045468 159.160897 
L 90.471652 159.979451 
L 88.92952 162.190034 
L 61.54772 203.548498 
L 61.24288 204.031088 
L 61.045631 204.343643 
L 60.364224 205.425149 
L 60.274565 205.567658 
L 60.113179 205.824295 
L 59.951793 206.081088 
L 59.646953 206.566568 
L 59.467636 206.852406 
L 59.431772 206.909597 
L 59.144864 207.367405 
L 58.786229 207.940368 
L 58.481389 208.428005 
L 58.194481 208.887479 
L 57.423415 210.124836 
z
" clip-path="url(#pc8e192b9e7)" style="fill: #999999; fill-opacity: 0.4"/>
   </g>
   <g id="line2d_26">
    <path d="M 57.423415 228.199577 
L 61.54772 220.16392 
L 88.92952 172.988755 
L 94.793206 164.310425 
L 97.160199 160.964245 
L 120.435625 132.383195 
L 127.070377 125.470939 
L 129.222189 123.367267 
L 132.772677 120.155063 
L 151.941731 106.903684 
L 160.782089 102.052986 
L 166.412662 99.111657 
L 168.385156 98.224194 
L 183.447836 93.651179 
L 202.473435 89.658402 
L 203.997635 89.244026 
L 214.936009 86.511925 
L 223.041166 84.874528 
L 232.060842 83.349507 
L 239.610114 82.249494 
L 258.438463 79.856126 
L 266.938118 79.028284 
L 277.94822 78.252209 
L 310.835071 76.426979 
L 324.87564 75.987618 
L 340.960431 75.748203 
L 354.463047 75.760061 
L 369.489864 76.025582 
L 382.07796 76.465256 
L 382.07796 76.465256 
" clip-path="url(#pc8e192b9e7)" style="fill: none; stroke: #57d3db; stroke-width: 1.772454; stroke-linejoin: miter"/>
   </g>
   <g id="PolyCollection_4">
    <path d="M 57.423415 212.174931 
L 57.423415 274.424234 
L 58.194481 272.482064 
L 58.481389 271.763433 
L 58.786229 271.002296 
L 59.144864 270.110022 
L 59.431772 269.398688 
L 59.467636 269.309926 
L 59.646953 268.866639 
L 59.951793 268.115038 
L 60.113179 267.718146 
L 60.274565 267.321959 
L 60.364224 267.10216 
L 61.045631 265.438808 
L 61.24288 264.959667 
L 61.54772 264.221264 
L 88.92952 208.796491 
L 90.471652 206.323128 
L 91.045468 205.419409 
L 91.637216 204.496747 
L 92.354487 203.391224 
L 92.946235 202.489839 
L 93.00003 202.408368 
L 93.358665 201.867225 
L 93.968345 200.955184 
L 94.309049 200.449799 
L 94.63182 199.973815 
L 94.793206 199.736838 
L 96.173952 197.736578 
L 96.550519 197.199363 
L 97.160199 196.336976 
L 120.435625 168.877516 
L 122.730891 166.61211 
L 123.591615 165.777794 
L 124.488204 164.917152 
L 125.582041 163.878464 
L 126.460697 163.05282 
L 126.532424 162.985755 
L 127.070377 162.484354 
L 127.984897 161.641944 
L 128.486986 161.185832 
L 128.989076 160.734178 
L 129.222189 160.525983 
L 131.284341 158.724965 
L 131.858158 158.236613 
L 132.772677 157.469627 
L 151.941731 144.25733 
L 155.008062 142.523071 
L 156.155695 141.885313 
L 157.339191 141.231199 
L 158.791664 140.430428 
L 159.957228 139.787011 
L 160.08275 139.717582 
L 160.782089 139.33003 
L 162.001449 138.6503 
L 162.682856 138.267522 
L 163.346331 137.892317 
L 163.651171 137.718998 
L 166.412662 136.202146 
L 167.165796 135.80857 
L 168.385156 135.190651 
L 183.447836 129.910749 
L 187.285233 129.267563 
L 188.701842 129.078617 
L 190.190178 128.898135 
L 192.019218 128.689796 
L 193.471691 128.524701 
L 193.615145 128.508041 
L 194.511733 128.40133 
L 196.018001 128.207392 
L 196.860794 128.087587 
L 197.703586 127.957343 
L 198.080153 127.895285 
L 201.523052 127.185685 
L 202.473435 126.934556 
L 203.997635 126.470928 
L 214.936009 122.313439 
L 219.544472 120.477442 
L 221.265921 119.82031 
L 223.041166 119.168993 
L 225.228841 118.411454 
L 226.986153 117.844474 
L 227.147539 117.7944 
L 228.223445 117.469487 
L 230.034553 116.958472 
L 231.056663 116.690354 
L 232.060842 116.441224 
L 232.509136 116.334545 
L 236.651373 115.475219 
L 237.781074 115.27725 
L 239.610114 114.984804 
L 246.442115 114.095242 
L 251.821643 113.428819 
L 253.812069 113.145542 
L 255.892153 112.812686 
L 258.438463 112.369589 
L 260.482684 112.005231 
L 260.697865 111.966666 
L 261.935157 111.744789 
L 264.051105 111.367413 
L 265.234601 111.159217 
L 266.418097 110.954235 
L 266.938118 110.865398 
L 271.761762 110.08836 
L 273.088713 109.89197 
L 275.222592 109.592991 
L 277.94822 109.239728 
L 284.080883 108.525362 
L 286.376148 108.264495 
L 288.743141 107.983293 
L 291.666018 107.601699 
L 293.997147 107.256913 
L 294.23026 107.22004 
L 295.646869 106.985617 
L 298.067657 106.573245 
L 299.430471 106.345061 
L 300.775353 106.123199 
L 301.367101 106.026737 
L 306.890083 105.168831 
L 308.396351 104.95108 
L 309.454325 104.803163 
L 310.835071 104.616935 
L 316.358054 103.963602 
L 318.922296 103.72026 
L 321.594128 103.515749 
L 324.87564 103.343432 
L 327.511609 103.276818 
L 327.762654 103.274115 
L 329.358581 103.272663 
L 332.084209 103.336823 
L 333.608408 103.412009 
L 335.132608 103.51726 
L 335.796083 103.572837 
L 340.960431 104.223361 
L 342.000473 104.403472 
L 343.70399 104.735593 
L 346.44755 105.36925 
L 348.635225 105.963181 
L 351.486375 106.856163 
L 354.463047 107.931618 
L 358.103195 109.442705 
L 361.026072 110.808467 
L 361.31298 110.949697 
L 363.088225 111.851574 
L 366.100761 113.490407 
L 367.804278 114.476037 
L 369.489864 115.492155 
L 370.242998 115.95909 
L 377.128794 120.585107 
L 379.029561 121.971283 
L 382.07796 124.288716 
L 382.07796 41.458195 
L 382.07796 41.458195 
L 379.029561 43.891154 
L 377.128794 45.359867 
L 370.242998 50.351043 
L 369.489864 50.864101 
L 367.804278 51.987786 
L 366.100761 53.088181 
L 363.088225 54.94468 
L 361.31298 55.983518 
L 361.026072 56.147483 
L 358.103195 57.754265 
L 354.463047 59.589164 
L 351.486375 60.948536 
L 348.635225 62.129288 
L 346.44755 62.954349 
L 343.70399 63.890332 
L 342.000473 64.417054 
L 340.960431 64.718534 
L 335.796083 65.999988 
L 335.132608 66.14006 
L 333.608408 66.442908 
L 332.084209 66.720604 
L 329.358581 67.159359 
L 327.762654 67.384789 
L 327.511609 67.418289 
L 324.87564 67.740351 
L 321.594128 68.074073 
L 318.922296 68.30018 
L 316.358054 68.486174 
L 310.835071 68.812498 
L 309.454325 68.883193 
L 308.396351 68.935453 
L 306.890083 69.007712 
L 301.367101 69.264529 
L 300.775353 69.292375 
L 299.430471 69.3566 
L 298.067657 69.423412 
L 295.646869 69.547842 
L 294.23026 69.62507 
L 293.997147 69.638137 
L 291.666018 69.773893 
L 288.743141 69.953719 
L 286.376148 70.10193 
L 284.080883 70.242941 
L 277.94822 70.580623 
L 275.222592 70.708162 
L 273.088713 70.801173 
L 271.761762 70.857903 
L 266.938118 71.082806 
L 266.418097 71.111256 
L 265.234601 71.181074 
L 264.051105 71.259312 
L 261.935157 71.42576 
L 260.697865 71.542363 
L 260.482684 71.564304 
L 258.438463 71.800381 
L 255.892153 72.174937 
L 253.812069 72.559849 
L 251.821643 72.993343 
L 246.442115 74.408013 
L 239.610114 76.455848 
L 237.781074 77.004126 
L 236.651373 77.336661 
L 232.509136 78.49482 
L 232.060842 78.613213 
L 231.056663 78.87296 
L 230.034553 79.129461 
L 228.223445 79.564386 
L 227.147539 79.81123 
L 226.986153 79.847546 
L 225.228841 80.231765 
L 223.041166 80.68502 
L 221.265921 81.037671 
L 219.544472 81.372185 
L 214.936009 82.276965 
L 203.997635 85.105813 
L 202.473435 85.622421 
L 201.523052 85.945629 
L 198.080153 87.113525 
L 197.703586 87.240109 
L 196.860794 87.521941 
L 196.018001 87.801335 
L 194.511733 88.293074 
L 193.615145 88.58024 
L 193.471691 88.625757 
L 192.019218 89.079292 
L 190.190178 89.629521 
L 188.701842 90.058426 
L 187.285233 90.450331 
L 183.447836 91.436273 
L 168.385156 95.533503 
L 167.165796 96.034345 
L 166.412662 96.36829 
L 163.651171 97.775059 
L 163.346331 97.947773 
L 162.682856 98.325586 
L 162.001449 98.716354 
L 160.782089 99.422636 
L 160.08275 99.831809 
L 159.957228 99.905568 
L 158.791664 100.595137 
L 157.339191 101.466338 
L 156.155695 102.186131 
L 155.008062 102.89282 
L 151.941731 104.82511 
L 132.772677 119.210596 
L 131.858158 120.056635 
L 131.284341 120.598095 
L 129.222189 122.615042 
L 128.989076 122.850309 
L 128.486986 123.362223 
L 127.984897 123.881316 
L 127.070377 124.845623 
L 126.532424 125.421473 
L 126.460697 125.49846 
L 125.582041 126.445491 
L 124.488204 127.634644 
L 123.591615 128.61779 
L 122.730891 129.568744 
L 120.435625 132.138656 
L 97.160199 160.72032 
L 96.550519 161.518652 
L 96.173952 162.012596 
L 94.793206 163.828979 
L 94.63182 164.041795 
L 94.309049 164.467731 
L 93.968345 164.91776 
L 93.358665 165.724128 
L 93.00003 166.199068 
L 92.946235 166.270346 
L 92.354487 167.055026 
L 91.637216 168.007598 
L 91.045468 168.794115 
L 90.471652 169.55679 
L 88.92952 171.605758 
L 61.54772 206.997847 
L 61.24288 207.381175 
L 61.045631 207.629143 
L 60.364224 208.485372 
L 60.274565 208.59799 
L 60.113179 208.80068 
L 59.951793 209.003339 
L 59.646953 209.38606 
L 59.467636 209.611142 
L 59.431772 209.656155 
L 59.144864 210.016206 
L 58.786229 210.466155 
L 58.481389 210.848517 
L 58.194481 211.208312 
L 57.423415 212.174931 
z
" clip-path="url(#pc8e192b9e7)" style="fill: #999999; fill-opacity: 0.4"/>
   </g>
   <g id="line2d_27">
    <path d="M 57.423415 243.299582 
L 61.54772 235.609555 
L 88.92952 190.201124 
L 94.793206 181.782909 
L 97.160199 178.528648 
L 120.435625 150.508086 
L 127.070377 143.664989 
L 129.222189 141.570512 
L 132.772677 138.340111 
L 151.941731 124.54122 
L 160.782089 119.376333 
L 166.412662 116.285218 
L 168.385156 115.362077 
L 183.447836 110.673511 
L 198.080153 107.504405 
L 203.997635 105.788371 
L 219.544472 100.924814 
L 228.223445 98.516936 
L 236.651373 96.40594 
L 239.610114 95.720326 
L 246.442115 94.251628 
L 255.892153 92.493811 
L 261.935157 91.585275 
L 266.938118 90.974102 
L 277.94822 89.910175 
L 294.23026 88.422555 
L 309.454325 86.843178 
L 321.594128 85.794911 
L 335.796083 84.786413 
L 351.486375 83.902349 
L 367.804278 83.231912 
L 382.07796 82.873456 
L 382.07796 82.873456 
" clip-path="url(#pc8e192b9e7)" style="fill: none; stroke: #a157db; stroke-width: 1.772454; stroke-linejoin: miter"/>
   </g>
   <g id="patch_3">
    <path d="M 405.510688 211.836339 
L 540.824813 211.836339 
L 540.824813 103.030402 
L 405.510688 103.030402 
z
" style="fill: #ffffff"/>
   </g>
   <g id="text_11">
    <!-- Model -->
    <g transform="translate(417.710688 126.623996)scale(0.11 -0.11)">
     <defs>
      <path id="DejaVuSans-4d" d="M 628 4666 
L 1569 4666 
L 2759 1491 
L 3956 4666 
L 4897 4666 
L 4897 0 
L 4281 0 
L 4281 4097 
L 3078 897 
L 2444 897 
L 1241 4097 
L 1241 0 
L 628 0 
L 628 4666 
z
" transform="scale(0.015625)"/>
     </defs>
     <use xlink:href="#DejaVuSans-4d"/>
     <use xlink:href="#DejaVuSans-6f" x="86.279297"/>
     <use xlink:href="#DejaVuSans-64" x="147.460938"/>
     <use xlink:href="#DejaVuSans-65" x="210.9375"/>
     <use xlink:href="#DejaVuSans-6c" x="272.460938"/>
    </g>
   </g>
   <g id="patch_4">
    <path d="M 417.710688 146.116339 
L 433.550687 146.116339 
L 433.550687 130.276339 
L 417.710688 130.276339 
z
" clip-path="url(#p3ac6efa973)" style="fill: #f2f2f2"/>
   </g>
   <g id="patch_5">
    <path d="M 417.710688 142.156339 
L 433.550687 142.156339 
L 433.550687 134.236339 
L 417.710688 134.236339 
z
" clip-path="url(#p3ac6efa973)" style="fill: #999999; opacity: 0.4"/>
   </g>
   <g id="line2d_28">
    <path d="M 417.710688 138.196339 
L 433.550687 138.196339 
" clip-path="url(#p3ac6efa973)" style="fill: none; stroke: #db5f57; stroke-width: 1.772454"/>
   </g>
   <g id="text_12">
    <!-- Five Layer Network -->
    <g transform="translate(436.550687 140.624589)scale(0.088 -0.088)">
     <defs>
      <path id="DejaVuSans-46" d="M 628 4666 
L 3309 4666 
L 3309 4134 
L 1259 4134 
L 1259 2759 
L 3109 2759 
L 3109 2228 
L 1259 2228 
L 1259 0 
L 628 0 
L 628 4666 
z
" transform="scale(0.015625)"/>
      <path id="DejaVuSans-76" d="M 191 3500 
L 800 3500 
L 1894 563 
L 2988 3500 
L 3597 3500 
L 2284 0 
L 1503 0 
L 191 3500 
z
" transform="scale(0.015625)"/>
      <path id="DejaVuSans-4c" d="M 628 4666 
L 1259 4666 
L 1259 531 
L 3531 531 
L 3531 0 
L 628 0 
L 628 4666 
z
" transform="scale(0.015625)"/>
      <path id="DejaVuSans-4e" d="M 628 4666 
L 1478 4666 
L 3547 763 
L 3547 4666 
L 4159 4666 
L 4159 0 
L 3309 0 
L 1241 3903 
L 1241 0 
L 628 0 
L 628 4666 
z
" transform="scale(0.015625)"/>
      <path id="DejaVuSans-77" d="M 269 3500 
L 844 3500 
L 1563 769 
L 2278 3500 
L 2956 3500 
L 3675 769 
L 4391 3500 
L 4966 3500 
L 4050 0 
L 3372 0 
L 2619 2869 
L 1863 0 
L 1184 0 
L 269 3500 
z
" transform="scale(0.015625)"/>
      <path id="DejaVuSans-6b" d="M 581 4863 
L 1159 4863 
L 1159 1991 
L 2875 3500 
L 3609 3500 
L 1753 1863 
L 3688 0 
L 2938 0 
L 1159 1709 
L 1159 0 
L 581 0 
L 581 4863 
z
" transform="scale(0.015625)"/>
     </defs>
     <use xlink:href="#DejaVuSans-46"/>
     <use xlink:href="#DejaVuSans-69" x="50.269531"/>
     <use xlink:href="#DejaVuSans-76" x="78.052734"/>
     <use xlink:href="#DejaVuSans-65" x="137.232422"/>
     <use xlink:href="#DejaVuSans-20" x="198.755859"/>
     <use xlink:href="#DejaVuSans-4c" x="230.542969"/>
     <use xlink:href="#DejaVuSans-61" x="286.255859"/>
     <use xlink:href="#DejaVuSans-79" x="347.535156"/>
     <use xlink:href="#DejaVuSans-65" x="406.714844"/>
     <use xlink:href="#DejaVuSans-72" x="468.238281"/>
     <use xlink:href="#DejaVuSans-20" x="509.351562"/>
     <use xlink:href="#DejaVuSans-4e" x="541.138672"/>
     <use xlink:href="#DejaVuSans-65" x="615.943359"/>
     <use xlink:href="#DejaVuSans-74" x="677.466797"/>
     <use xlink:href="#DejaVuSans-77" x="716.675781"/>
     <use xlink:href="#DejaVuSans-6f" x="798.462891"/>
     <use xlink:href="#DejaVuSans-72" x="859.644531"/>
     <use xlink:href="#DejaVuSans-6b" x="900.757812"/>
    </g>
   </g>
   <g id="patch_6">
    <path d="M 417.710688 163.956339 
L 433.550687 163.956339 
L 433.550687 148.116339 
L 417.710688 148.116339 
z
" clip-path="url(#p2d18c02f97)" style="fill: #f2f2f2"/>
   </g>
   <g id="patch_7">
    <path d="M 417.710688 159.996339 
L 433.550687 159.996339 
L 433.550687 152.076339 
L 417.710688 152.076339 
z
" clip-path="url(#p2d18c02f97)" style="fill: #999999; opacity: 0.4"/>
   </g>
   <g id="line2d_29">
    <path d="M 417.710688 156.036339 
L 433.550687 156.036339 
" clip-path="url(#p2d18c02f97)" style="fill: none; stroke: #91db57; stroke-width: 1.772454"/>
   </g>
   <g id="text_13">
    <!-- Logistic Regression -->
    <g transform="translate(436.550687 158.464589)scale(0.088 -0.088)">
     <defs>
      <path id="DejaVuSans-67" d="M 2906 1791 
Q 2906 2416 2648 2759 
Q 2391 3103 1925 3103 
Q 1463 3103 1205 2759 
Q 947 2416 947 1791 
Q 947 1169 1205 825 
Q 1463 481 1925 481 
Q 2391 481 2648 825 
Q 2906 1169 2906 1791 
z
M 3481 434 
Q 3481 -459 3084 -895 
Q 2688 -1331 1869 -1331 
Q 1566 -1331 1297 -1286 
Q 1028 -1241 775 -1147 
L 775 -588 
Q 1028 -725 1275 -790 
Q 1522 -856 1778 -856 
Q 2344 -856 2625 -561 
Q 2906 -266 2906 331 
L 2906 616 
Q 2728 306 2450 153 
Q 2172 0 1784 0 
Q 1141 0 747 490 
Q 353 981 353 1791 
Q 353 2603 747 3093 
Q 1141 3584 1784 3584 
Q 2172 3584 2450 3431 
Q 2728 3278 2906 2969 
L 2906 3500 
L 3481 3500 
L 3481 434 
z
" transform="scale(0.015625)"/>
      <path id="DejaVuSans-73" d="M 2834 3397 
L 2834 2853 
Q 2591 2978 2328 3040 
Q 2066 3103 1784 3103 
Q 1356 3103 1142 2972 
Q 928 2841 928 2578 
Q 928 2378 1081 2264 
Q 1234 2150 1697 2047 
L 1894 2003 
Q 2506 1872 2764 1633 
Q 3022 1394 3022 966 
Q 3022 478 2636 193 
Q 2250 -91 1575 -91 
Q 1294 -91 989 -36 
Q 684 19 347 128 
L 347 722 
Q 666 556 975 473 
Q 1284 391 1588 391 
Q 1994 391 2212 530 
Q 2431 669 2431 922 
Q 2431 1156 2273 1281 
Q 2116 1406 1581 1522 
L 1381 1569 
Q 847 1681 609 1914 
Q 372 2147 372 2553 
Q 372 3047 722 3315 
Q 1072 3584 1716 3584 
Q 2034 3584 2315 3537 
Q 2597 3491 2834 3397 
z
" transform="scale(0.015625)"/>
      <path id="DejaVuSans-52" d="M 2841 2188 
Q 3044 2119 3236 1894 
Q 3428 1669 3622 1275 
L 4263 0 
L 3584 0 
L 2988 1197 
Q 2756 1666 2539 1819 
Q 2322 1972 1947 1972 
L 1259 1972 
L 1259 0 
L 628 0 
L 628 4666 
L 2053 4666 
Q 2853 4666 3247 4331 
Q 3641 3997 3641 3322 
Q 3641 2881 3436 2590 
Q 3231 2300 2841 2188 
z
M 1259 4147 
L 1259 2491 
L 2053 2491 
Q 2509 2491 2742 2702 
Q 2975 2913 2975 3322 
Q 2975 3731 2742 3939 
Q 2509 4147 2053 4147 
L 1259 4147 
z
" transform="scale(0.015625)"/>
     </defs>
     <use xlink:href="#DejaVuSans-4c"/>
     <use xlink:href="#DejaVuSans-6f" x="53.962891"/>
     <use xlink:href="#DejaVuSans-67" x="115.144531"/>
     <use xlink:href="#DejaVuSans-69" x="178.621094"/>
     <use xlink:href="#DejaVuSans-73" x="206.404297"/>
     <use xlink:href="#DejaVuSans-74" x="258.503906"/>
     <use xlink:href="#DejaVuSans-69" x="297.712891"/>
     <use xlink:href="#DejaVuSans-63" x="325.496094"/>
     <use xlink:href="#DejaVuSans-20" x="380.476562"/>
     <use xlink:href="#DejaVuSans-52" x="412.263672"/>
     <use xlink:href="#DejaVuSans-65" x="477.246094"/>
     <use xlink:href="#DejaVuSans-67" x="538.769531"/>
     <use xlink:href="#DejaVuSans-72" x="602.246094"/>
     <use xlink:href="#DejaVuSans-65" x="641.109375"/>
     <use xlink:href="#DejaVuSans-73" x="702.632812"/>
     <use xlink:href="#DejaVuSans-73" x="754.732422"/>
     <use xlink:href="#DejaVuSans-69" x="806.832031"/>
     <use xlink:href="#DejaVuSans-6f" x="834.615234"/>
     <use xlink:href="#DejaVuSans-6e" x="895.796875"/>
    </g>
   </g>
   <g id="patch_8">
    <path d="M 417.710688 181.796339 
L 433.550687 181.796339 
L 433.550687 165.956339 
L 417.710688 165.956339 
z
" clip-path="url(#pa71ca5fe1c)" style="fill: #f2f2f2"/>
   </g>
   <g id="patch_9">
    <path d="M 417.710688 177.836339 
L 433.550687 177.836339 
L 433.550687 169.916339 
L 417.710688 169.916339 
z
" clip-path="url(#pa71ca5fe1c)" style="fill: #999999; opacity: 0.4"/>
   </g>
   <g id="line2d_30">
    <path d="M 417.710688 173.876339 
L 433.550687 173.876339 
" clip-path="url(#pa71ca5fe1c)" style="fill: none; stroke: #57d3db; stroke-width: 1.772454"/>
   </g>
   <g id="text_14">
    <!-- SVM -->
    <g transform="translate(436.550687 176.304589)scale(0.088 -0.088)">
     <use xlink:href="#DejaVuSans-53"/>
     <use xlink:href="#DejaVuSans-56" x="63.476562"/>
     <use xlink:href="#DejaVuSans-4d" x="131.884766"/>
    </g>
   </g>
   <g id="patch_10">
    <path d="M 417.710688 199.636339 
L 433.550687 199.636339 
L 433.550687 183.796339 
L 417.710688 183.796339 
z
" clip-path="url(#p1bf7082875)" style="fill: #f2f2f2"/>
   </g>
   <g id="patch_11">
    <path d="M 417.710688 195.676339 
L 433.550687 195.676339 
L 433.550687 187.756339 
L 417.710688 187.756339 
z
" clip-path="url(#p1bf7082875)" style="fill: #999999; opacity: 0.4"/>
   </g>
   <g id="line2d_31">
    <path d="M 417.710688 191.716339 
L 433.550687 191.716339 
" clip-path="url(#p1bf7082875)" style="fill: none; stroke: #a157db; stroke-width: 1.772454"/>
   </g>
   <g id="text_15">
    <!-- Three Layer Network -->
    <g transform="translate(436.550687 194.144589)scale(0.088 -0.088)">
     <defs>
      <path id="DejaVuSans-68" d="M 3513 2113 
L 3513 0 
L 2938 0 
L 2938 2094 
Q 2938 2591 2744 2837 
Q 2550 3084 2163 3084 
Q 1697 3084 1428 2787 
Q 1159 2491 1159 1978 
L 1159 0 
L 581 0 
L 581 4863 
L 1159 4863 
L 1159 2956 
Q 1366 3272 1645 3428 
Q 1925 3584 2291 3584 
Q 2894 3584 3203 3211 
Q 3513 2838 3513 2113 
z
" transform="scale(0.015625)"/>
     </defs>
     <use xlink:href="#DejaVuSans-54"/>
     <use xlink:href="#DejaVuSans-68" x="61.083984"/>
     <use xlink:href="#DejaVuSans-72" x="124.462891"/>
     <use xlink:href="#DejaVuSans-65" x="163.326172"/>
     <use xlink:href="#DejaVuSans-65" x="224.849609"/>
     <use xlink:href="#DejaVuSans-20" x="286.373047"/>
     <use xlink:href="#DejaVuSans-4c" x="318.160156"/>
     <use xlink:href="#DejaVuSans-61" x="373.873047"/>
     <use xlink:href="#DejaVuSans-79" x="435.152344"/>
     <use xlink:href="#DejaVuSans-65" x="494.332031"/>
     <use xlink:href="#DejaVuSans-72" x="555.855469"/>
     <use xlink:href="#DejaVuSans-20" x="596.96875"/>
     <use xlink:href="#DejaVuSans-4e" x="628.755859"/>
     <use xlink:href="#DejaVuSans-65" x="703.560547"/>
     <use xlink:href="#DejaVuSans-74" x="765.083984"/>
     <use xlink:href="#DejaVuSans-77" x="804.292969"/>
     <use xlink:href="#DejaVuSans-6f" x="886.080078"/>
     <use xlink:href="#DejaVuSans-72" x="947.261719"/>
     <use xlink:href="#DejaVuSans-6b" x="988.375"/>
    </g>
   </g>
  </g>
  <g id="text_16">
   <!-- Sex Label Prediction -->
   <g transform="translate(147.162594 17.229938)scale(0.132 -0.132)">
    <defs>
     <path id="DejaVuSans-78" d="M 3513 3500 
L 2247 1797 
L 3578 0 
L 2900 0 
L 1881 1375 
L 863 0 
L 184 0 
L 1544 1831 
L 300 3500 
L 978 3500 
L 1906 2253 
L 2834 3500 
L 3513 3500 
z
" transform="scale(0.015625)"/>
     <path id="DejaVuSans-62" d="M 3116 1747 
Q 3116 2381 2855 2742 
Q 2594 3103 2138 3103 
Q 1681 3103 1420 2742 
Q 1159 2381 1159 1747 
Q 1159 1113 1420 752 
Q 1681 391 2138 391 
Q 2594 391 2855 752 
Q 3116 1113 3116 1747 
z
M 1159 2969 
Q 1341 3281 1617 3432 
Q 1894 3584 2278 3584 
Q 2916 3584 3314 3078 
Q 3713 2572 3713 1747 
Q 3713 922 3314 415 
Q 2916 -91 2278 -91 
Q 1894 -91 1617 61 
Q 1341 213 1159 525 
L 1159 0 
L 581 0 
L 581 4863 
L 1159 4863 
L 1159 2969 
z
" transform="scale(0.015625)"/>
     <path id="DejaVuSans-50" d="M 1259 4147 
L 1259 2394 
L 2053 2394 
Q 2494 2394 2734 2622 
Q 2975 2850 2975 3272 
Q 2975 3691 2734 3919 
Q 2494 4147 2053 4147 
L 1259 4147 
z
M 628 4666 
L 2053 4666 
Q 2838 4666 3239 4311 
Q 3641 3956 3641 3272 
Q 3641 2581 3239 2228 
Q 2838 1875 2053 1875 
L 1259 1875 
L 1259 0 
L 628 0 
L 628 4666 
z
" transform="scale(0.015625)"/>
    </defs>
    <use xlink:href="#DejaVuSans-53"/>
    <use xlink:href="#DejaVuSans-65" x="63.476562"/>
    <use xlink:href="#DejaVuSans-78" x="123.25"/>
    <use xlink:href="#DejaVuSans-20" x="182.429688"/>
    <use xlink:href="#DejaVuSans-4c" x="214.216797"/>
    <use xlink:href="#DejaVuSans-61" x="269.929688"/>
    <use xlink:href="#DejaVuSans-62" x="331.208984"/>
    <use xlink:href="#DejaVuSans-65" x="394.685547"/>
    <use xlink:href="#DejaVuSans-6c" x="456.208984"/>
    <use xlink:href="#DejaVuSans-20" x="483.992188"/>
    <use xlink:href="#DejaVuSans-50" x="515.779297"/>
    <use xlink:href="#DejaVuSans-72" x="574.332031"/>
    <use xlink:href="#DejaVuSans-65" x="613.195312"/>
    <use xlink:href="#DejaVuSans-64" x="674.71875"/>
    <use xlink:href="#DejaVuSans-69" x="738.195312"/>
    <use xlink:href="#DejaVuSans-63" x="765.978516"/>
    <use xlink:href="#DejaVuSans-74" x="820.958984"/>
    <use xlink:href="#DejaVuSans-69" x="860.167969"/>
    <use xlink:href="#DejaVuSans-6f" x="887.951172"/>
    <use xlink:href="#DejaVuSans-6e" x="949.132812"/>
   </g>
  </g>
 </g>
 <defs>
  <clipPath id="pc8e192b9e7">
   <rect x="41.190688" y="26.105371" width="357.12" height="266.112"/>
  </clipPath>
  <clipPath id="p3ac6efa973">
   <path d="M 417.710688 146.116339 
L 417.710688 130.276339 
L 433.550687 130.276339 
L 433.550687 146.116339 
"/>
  </clipPath>
  <clipPath id="p2d18c02f97">
   <path d="M 417.710688 163.956339 
L 417.710688 148.116339 
L 433.550687 148.116339 
L 433.550687 163.956339 
"/>
  </clipPath>
  <clipPath id="pa71ca5fe1c">
   <path d="M 417.710688 181.796339 
L 417.710688 165.956339 
L 433.550687 165.956339 
L 433.550687 181.796339 
"/>
  </clipPath>
  <clipPath id="p1bf7082875">
   <path d="M 417.710688 199.636339 
L 417.710688 183.796339 
L 433.550687 183.796339 
L 433.550687 199.636339 
"/>
  </clipPath>
 </defs>
</svg>
